<svg id="balloon-sm" xmlns="http://www.w3.org/2000/svg" viewBox="0 0 1010 857.64"><defs><style>.cls-1{fill:#e2e2e2;}.cls-2{fill:#2c2c2c;}.cls-3{fill:#a2a2a2;}.cls-4{fill:#f2f2f2;}</style></defs><rect class="cls-1" x="553.12" y="118.12" width="10.69" height="10.69"/><rect class="cls-1" x="553.12" y="107.43" width="10.69" height="10.69"/><rect class="cls-1" x="542.42" y="118.12" width="10.7" height="10.69"/><rect class="cls-1" x="531.73" y="118.12" width="10.69" height="10.69"/><rect class="cls-2" x="585.2" y="107.43" width="10.69" height="10.69"/><rect class="cls-2" x="585.2" y="96.73" width="10.69" height="10.7"/><rect class="cls-2" x="585.2" y="86.04" width="10.69" height="10.69"/><rect class="cls-2" x="585.2" y="75.35" width="10.69" height="10.69"/><rect class="cls-2" x="585.2" y="64.65" width="10.69" height="10.7"/><rect class="cls-2" x="585.2" y="53.96" width="10.69" height="10.69"/><rect class="cls-2" x="574.5" y="128.81" width="10.7" height="10.7"/><rect class="cls-2" x="574.5" y="118.12" width="10.7" height="10.69"/><rect class="cls-3" x="574.5" y="107.43" width="10.7" height="10.69"/><rect class="cls-4" x="574.5" y="96.73" width="10.7" height="10.7"/><rect class="cls-4" x="574.5" y="86.04" width="10.7" height="10.69"/><rect class="cls-4" x="574.5" y="75.35" width="10.7" height="10.69"/><rect class="cls-4" x="574.5" y="64.65" width="10.7" height="10.7"/><rect class="cls-4" x="574.5" y="53.96" width="10.7" height="10.69"/><rect class="cls-2" x="574.5" y="43.27" width="10.7" height="10.69"/><rect class="cls-2" x="574.5" y="32.57" width="10.7" height="10.7"/><rect class="cls-2" x="563.81" y="139.51" width="10.69" height="10.69"/><rect class="cls-3" x="563.81" y="128.81" width="10.69" height="10.7"/><rect class="cls-3" x="563.81" y="118.12" width="10.69" height="10.69"/><rect class="cls-3" x="563.81" y="107.43" width="10.69" height="10.69"/><rect class="cls-4" x="563.81" y="96.73" width="10.69" height="10.7"/><rect class="cls-4" x="563.81" y="86.04" width="10.69" height="10.69"/><rect class="cls-4" x="563.81" y="75.35" width="10.69" height="10.69"/><rect class="cls-4" x="563.81" y="64.65" width="10.69" height="10.7"/><rect class="cls-4" x="563.81" y="53.96" width="10.69" height="10.69"/><rect class="cls-4" x="563.81" y="43.27" width="10.69" height="10.69"/><rect class="cls-4" x="563.81" y="32.57" width="10.69" height="10.7"/><rect class="cls-2" x="563.81" y="21.88" width="10.69" height="10.69"/><rect class="cls-2" x="563.81" y="11.19" width="10.69" height="10.69"/><rect class="cls-3" x="553.12" y="128.81" width="10.69" height="10.7"/><rect class="cls-3" x="542.42" y="128.81" width="10.7" height="10.7"/><rect class="cls-1" x="253.71" y="118.12" width="10.69" height="10.69"/><rect class="cls-3" x="243.02" y="128.81" width="10.69" height="10.7"/><rect class="cls-1" x="243.02" y="118.12" width="10.69" height="10.69"/><rect class="cls-3" x="232.32" y="128.81" width="10.7" height="10.7"/><rect class="cls-1" x="232.32" y="118.12" width="10.7" height="10.69"/><rect class="cls-1" x="232.32" y="107.43" width="10.7" height="10.69"/><rect class="cls-2" x="221.63" y="139.51" width="10.69" height="10.69"/><rect class="cls-3" x="221.63" y="128.81" width="10.69" height="10.7"/><rect class="cls-3" x="221.63" y="118.12" width="10.69" height="10.69"/><rect class="cls-3" x="221.63" y="107.43" width="10.69" height="10.69"/><rect class="cls-4" x="221.63" y="96.73" width="10.69" height="10.7"/><rect class="cls-4" x="221.63" y="86.04" width="10.69" height="10.69"/><rect class="cls-4" x="221.63" y="75.35" width="10.69" height="10.69"/><rect class="cls-4" x="221.63" y="64.65" width="10.69" height="10.7"/><rect class="cls-4" x="221.63" y="53.96" width="10.69" height="10.69"/><rect class="cls-4" x="221.63" y="43.27" width="10.69" height="10.69"/><rect class="cls-4" x="221.63" y="32.57" width="10.69" height="10.7"/><rect class="cls-2" x="221.63" y="21.88" width="10.69" height="10.69"/><rect class="cls-2" x="221.63" y="11.19" width="10.69" height="10.69"/><rect class="cls-2" x="210.94" y="128.81" width="10.69" height="10.7"/><rect class="cls-2" x="210.94" y="118.12" width="10.69" height="10.69"/><rect class="cls-3" x="210.94" y="107.43" width="10.69" height="10.69"/><rect class="cls-4" x="210.94" y="96.73" width="10.69" height="10.7"/><rect class="cls-4" x="210.94" y="86.04" width="10.69" height="10.69"/><rect class="cls-4" x="210.94" y="75.35" width="10.69" height="10.69"/><rect class="cls-4" x="210.94" y="64.65" width="10.69" height="10.7"/><rect class="cls-4" x="210.94" y="53.96" width="10.69" height="10.69"/><rect class="cls-2" x="210.94" y="43.27" width="10.69" height="10.69"/><rect class="cls-2" x="210.94" y="32.57" width="10.69" height="10.7"/><rect class="cls-2" x="200.25" y="107.43" width="10.69" height="10.69"/><rect class="cls-2" x="200.25" y="96.73" width="10.69" height="10.7"/><rect class="cls-2" x="200.25" y="86.04" width="10.69" height="10.69"/><rect class="cls-2" x="200.25" y="75.35" width="10.69" height="10.69"/><rect class="cls-2" x="200.25" y="64.65" width="10.69" height="10.7"/><rect class="cls-2" x="200.25" y="53.96" width="10.69" height="10.69"/><path d="M355.25,25.2H342.46v32h12.79V50.8H368v6.4h-6.4v6.39H336.06V57.2h-6.39v-32h6.39V18.8h25.58v6.4H368v6.4H355.25Z"/><path d="M394.45,57.2v6.39H381.66V57.2h-6.39V18.8h12.79V57.2Z"/><path d="M414.47,25.2H401.68V18.8h12.79Zm0,6.4v32H401.68v-32Z"/><path d="M447.28,38H434.49V57.2h12.79V50.8h12.79v6.4h-6.4v6.39H428.09V57.2H421.7V38h6.39V31.6h25.58V38h6.4v6.4H447.28Z"/><path d="M325.22,89.2v38.39H312.43V102H299.64v25.59H286.85V89.2h6.39V82.8h25.58v6.4Zm-12.79,0H299.64v6.4h12.79Z"/><path d="M370.82,134H358V121.2H338.84v-6.4h-6.39V102h6.39V95.6h32ZM358,108.4h-6.4V102h-6.39v12.8H358Z"/><path d="M416.42,127.59h-32V121.2h-6.4V95.6h12.79v25.6h12.79V95.6h12.79Z"/><path d="M442.84,89.2H423.65V82.8h19.19Zm-6.4,6.4v32H423.65v-32Z"/><path d="M462.85,114.8H450.06v-32h12.79Zm0,6.4v6.39H450.06V121.2Z"/><path d="M482.87,114.8H470.08v-32h12.79Zm0,6.4v6.39H470.08V121.2Z"/><path d="M502.89,114.8H490.1v-32h12.79Zm0,6.4v6.39H490.1V121.2Z"/></svg>