<svg id="balloon-xxl" xmlns="http://www.w3.org/2000/svg" viewBox="0 0 1010 857.64"><defs><style>.cls-1{fill:#2c2c2c;}.cls-2{fill:#a2a2a2;}.cls-3{fill:#f2f2f2;}.cls-4{fill:#e2e2e2;}</style></defs><rect class="cls-1" x="1002.23" y="107.43" width="10.69" height="10.69"/><rect class="cls-1" x="1002.23" y="96.73" width="10.69" height="10.7"/><rect class="cls-1" x="1002.23" y="86.04" width="10.69" height="10.69"/><rect class="cls-1" x="1002.23" y="75.35" width="10.69" height="10.69"/><rect class="cls-1" x="1002.23" y="64.65" width="10.69" height="10.7"/><rect class="cls-1" x="1002.23" y="53.96" width="10.69" height="10.69"/><rect class="cls-1" x="991.53" y="128.81" width="10.7" height="10.7"/><rect class="cls-1" x="991.53" y="118.12" width="10.7" height="10.69"/><rect class="cls-2" x="991.53" y="107.43" width="10.7" height="10.69"/><polygon class="cls-3" points="1002.23 96.73 1002.23 107.43 991.53 107.43 980.84 107.43 970.15 107.43 970.15 118.12 959.45 118.12 948.76 118.12 948.76 128.81 938.07 128.81 927.37 128.81 916.68 128.81 905.99 128.81 895.29 128.81 884.6 128.81 873.91 128.81 863.22 128.81 852.52 128.81 841.83 128.81 831.14 128.81 820.44 128.81 809.75 128.81 799.06 128.81 788.36 128.81 777.67 128.81 766.98 128.81 756.29 128.81 745.59 128.81 734.9 128.81 724.21 128.81 713.51 128.81 702.82 128.81 692.13 128.81 681.43 128.81 670.74 128.81 660.05 128.81 649.35 128.81 638.66 128.81 627.97 128.81 617.28 128.81 606.58 128.81 595.89 128.81 585.2 128.81 574.5 128.81 574.5 118.12 574.5 107.43 574.5 96.73 574.5 86.04 574.5 75.35 574.5 64.65 574.5 53.96 574.5 43.27 574.5 32.57 574.5 21.88 574.5 11.19 585.2 11.19 595.89 11.19 606.58 11.19 617.28 11.19 627.97 11.19 638.66 11.19 649.35 11.19 660.05 11.19 670.74 11.19 681.43 11.19 692.13 11.19 702.82 11.19 713.51 11.19 724.21 11.19 734.9 11.19 745.59 11.19 756.29 11.19 766.98 11.19 777.67 11.19 788.36 11.19 799.06 11.19 809.75 11.19 820.44 11.19 831.14 11.19 841.83 11.19 852.52 11.19 863.22 11.19 873.91 11.19 884.6 11.19 895.29 11.19 905.99 11.19 916.68 11.19 927.37 11.19 938.07 11.19 948.76 11.19 959.45 11.19 970.15 11.19 980.84 11.19 980.84 21.88 980.84 32.57 991.53 32.57 991.53 43.27 991.53 53.96 1002.23 53.96 1002.23 64.65 1002.23 75.35 1002.23 86.04 1002.23 96.73"/><rect class="cls-1" x="991.53" y="43.27" width="10.7" height="10.69"/><rect class="cls-1" x="991.53" y="32.57" width="10.7" height="10.7"/><rect class="cls-1" x="980.84" y="139.51" width="10.69" height="10.69"/><rect class="cls-2" x="980.84" y="128.81" width="10.69" height="10.7"/><rect class="cls-2" x="980.84" y="118.12" width="10.69" height="10.69"/><rect class="cls-2" x="980.84" y="107.43" width="10.69" height="10.69"/><rect class="cls-1" x="980.84" y="21.88" width="10.69" height="10.69"/><rect class="cls-1" x="980.84" y="11.19" width="10.69" height="10.69"/><rect class="cls-1" x="970.15" y="139.51" width="10.69" height="10.69"/><rect class="cls-2" x="970.15" y="128.81" width="10.69" height="10.7"/><rect class="cls-4" x="970.15" y="118.12" width="10.69" height="10.69"/><rect class="cls-4" x="970.15" y="107.43" width="10.69" height="10.69"/><rect class="cls-1" x="970.15" y="0.5" width="10.69" height="10.69"/><rect class="cls-1" x="959.45" y="139.51" width="10.7" height="10.69"/><rect class="cls-2" x="959.45" y="128.81" width="10.7" height="10.7"/><rect class="cls-4" x="959.45" y="118.12" width="10.7" height="10.69"/><rect class="cls-1" x="959.45" y="0.5" width="10.7" height="10.69"/><rect class="cls-1" x="948.76" y="139.51" width="10.69" height="10.69"/><rect class="cls-4" x="948.76" y="128.81" width="10.69" height="10.7"/><rect class="cls-4" x="948.76" y="118.12" width="10.69" height="10.69"/><rect class="cls-1" x="948.76" y="0.5" width="10.69" height="10.69"/><rect class="cls-1" x="938.07" y="139.51" width="10.69" height="10.69"/><rect class="cls-4" x="938.07" y="128.81" width="10.69" height="10.7"/><rect class="cls-1" x="938.07" y="0.5" width="10.69" height="10.69"/><rect class="cls-1" x="927.37" y="139.51" width="10.7" height="10.69"/><rect class="cls-4" x="927.37" y="128.81" width="10.7" height="10.7"/><rect class="cls-1" x="927.37" y="0.5" width="10.7" height="10.69"/><rect class="cls-1" x="916.68" y="139.51" width="10.69" height="10.69"/><rect class="cls-4" x="916.68" y="128.81" width="10.69" height="10.7"/><rect class="cls-1" x="916.68" y="0.5" width="10.69" height="10.69"/><rect class="cls-1" x="905.99" y="139.51" width="10.69" height="10.69"/><rect class="cls-4" x="905.99" y="128.81" width="10.69" height="10.7"/><rect class="cls-1" x="905.99" y="0.5" width="10.69" height="10.69"/><rect class="cls-1" x="895.29" y="139.51" width="10.7" height="10.69"/><rect class="cls-4" x="895.29" y="128.81" width="10.7" height="10.7"/><rect class="cls-1" x="895.29" y="0.5" width="10.7" height="10.69"/><rect class="cls-1" x="884.6" y="139.51" width="10.69" height="10.69"/><rect class="cls-4" x="884.6" y="128.81" width="10.69" height="10.7"/><rect class="cls-1" x="884.6" y="0.5" width="10.69" height="10.69"/><rect class="cls-1" x="873.91" y="139.51" width="10.69" height="10.69"/><rect class="cls-4" x="873.91" y="128.81" width="10.69" height="10.7"/><rect class="cls-1" x="873.91" y="0.5" width="10.69" height="10.69"/><rect class="cls-1" x="863.22" y="139.51" width="10.69" height="10.69"/><rect class="cls-4" x="863.22" y="128.81" width="10.69" height="10.7"/><rect class="cls-1" x="863.22" y="0.5" width="10.69" height="10.69"/><rect class="cls-1" x="852.52" y="139.51" width="10.7" height="10.69"/><rect class="cls-4" x="852.52" y="128.81" width="10.7" height="10.7"/><rect class="cls-1" x="852.52" y="0.5" width="10.7" height="10.69"/><rect class="cls-1" x="841.83" y="139.51" width="10.69" height="10.69"/><rect class="cls-4" x="841.83" y="128.81" width="10.69" height="10.7"/><rect class="cls-1" x="841.83" y="0.5" width="10.69" height="10.69"/><rect class="cls-1" x="831.14" y="139.51" width="10.69" height="10.69"/><rect class="cls-4" x="831.14" y="128.81" width="10.69" height="10.7"/><rect class="cls-1" x="831.14" y="0.5" width="10.69" height="10.69"/><rect class="cls-1" x="820.44" y="139.51" width="10.7" height="10.69"/><rect class="cls-4" x="820.44" y="128.81" width="10.7" height="10.7"/><rect class="cls-1" x="820.44" y="0.5" width="10.7" height="10.69"/><rect class="cls-1" x="809.75" y="139.51" width="10.69" height="10.69"/><rect class="cls-4" x="809.75" y="128.81" width="10.69" height="10.7"/><rect class="cls-1" x="809.75" y="0.5" width="10.69" height="10.69"/><rect class="cls-1" x="799.06" y="139.51" width="10.69" height="10.69"/><rect class="cls-4" x="799.06" y="128.81" width="10.69" height="10.7"/><rect class="cls-1" x="799.06" y="0.5" width="10.69" height="10.69"/><rect class="cls-1" x="788.36" y="139.51" width="10.7" height="10.69"/><rect class="cls-4" x="788.36" y="128.81" width="10.7" height="10.7"/><rect class="cls-1" x="788.36" y="0.5" width="10.7" height="10.69"/><rect class="cls-1" x="777.67" y="139.51" width="10.69" height="10.69"/><rect class="cls-4" x="777.67" y="128.81" width="10.69" height="10.7"/><rect class="cls-1" x="777.67" y="0.5" width="10.69" height="10.69"/><rect class="cls-1" x="766.98" y="139.51" width="10.69" height="10.69"/><rect class="cls-4" x="766.98" y="128.81" width="10.69" height="10.7"/><rect class="cls-1" x="766.98" y="0.5" width="10.69" height="10.69"/><rect class="cls-1" x="756.29" y="139.51" width="10.69" height="10.69"/><rect class="cls-4" x="756.29" y="128.81" width="10.69" height="10.7"/><rect class="cls-1" x="756.29" y="0.5" width="10.69" height="10.69"/><rect class="cls-1" x="745.59" y="139.51" width="10.7" height="10.69"/><rect class="cls-4" x="745.59" y="128.81" width="10.7" height="10.7"/><rect class="cls-1" x="745.59" y="0.5" width="10.7" height="10.69"/><rect class="cls-1" x="734.9" y="139.51" width="10.69" height="10.69"/><rect class="cls-4" x="734.9" y="128.81" width="10.69" height="10.7"/><rect class="cls-1" x="734.9" y="0.5" width="10.69" height="10.69"/><rect class="cls-1" x="724.21" y="139.51" width="10.69" height="10.69"/><rect class="cls-4" x="724.21" y="128.81" width="10.69" height="10.7"/><rect class="cls-1" x="724.21" y="0.5" width="10.69" height="10.69"/><rect class="cls-1" x="713.51" y="139.51" width="10.7" height="10.69"/><rect class="cls-4" x="713.51" y="128.81" width="10.7" height="10.7"/><rect class="cls-1" x="713.51" y="0.5" width="10.7" height="10.69"/><rect class="cls-1" x="702.82" y="139.51" width="10.69" height="10.69"/><rect class="cls-4" x="702.82" y="128.81" width="10.69" height="10.7"/><rect class="cls-1" x="702.82" y="0.5" width="10.69" height="10.69"/><rect class="cls-1" x="692.13" y="139.51" width="10.69" height="10.69"/><rect class="cls-4" x="692.13" y="128.81" width="10.69" height="10.7"/><rect class="cls-1" x="692.13" y="0.5" width="10.69" height="10.69"/><rect class="cls-1" x="681.43" y="139.51" width="10.7" height="10.69"/><rect class="cls-4" x="681.43" y="128.81" width="10.7" height="10.7"/><rect class="cls-1" x="681.43" y="0.5" width="10.7" height="10.69"/><rect class="cls-1" x="670.74" y="139.51" width="10.69" height="10.69"/><rect class="cls-4" x="670.74" y="128.81" width="10.69" height="10.7"/><rect class="cls-1" x="670.74" y="0.5" width="10.69" height="10.69"/><rect class="cls-1" x="660.05" y="139.51" width="10.69" height="10.69"/><rect class="cls-4" x="660.05" y="128.81" width="10.69" height="10.7"/><rect class="cls-1" x="660.05" y="0.5" width="10.69" height="10.69"/><rect class="cls-1" x="649.35" y="139.51" width="10.7" height="10.69"/><rect class="cls-4" x="649.35" y="128.81" width="10.7" height="10.7"/><rect class="cls-1" x="649.35" y="0.5" width="10.7" height="10.69"/><rect class="cls-1" x="638.66" y="139.51" width="10.69" height="10.69"/><rect class="cls-4" x="638.66" y="128.81" width="10.69" height="10.7"/><rect class="cls-1" x="638.66" y="0.5" width="10.69" height="10.69"/><rect class="cls-1" x="627.97" y="139.51" width="10.69" height="10.69"/><rect class="cls-4" x="627.97" y="128.81" width="10.69" height="10.7"/><rect class="cls-1" x="627.97" y="0.5" width="10.69" height="10.69"/><rect class="cls-1" x="617.28" y="139.51" width="10.69" height="10.69"/><rect class="cls-4" x="617.28" y="128.81" width="10.69" height="10.7"/><rect class="cls-1" x="617.28" y="0.5" width="10.69" height="10.69"/><rect class="cls-1" x="606.58" y="139.51" width="10.7" height="10.69"/><rect class="cls-4" x="606.58" y="128.81" width="10.7" height="10.7"/><rect class="cls-1" x="606.58" y="0.5" width="10.7" height="10.69"/><rect class="cls-1" x="595.89" y="139.51" width="10.69" height="10.69"/><rect class="cls-4" x="595.89" y="128.81" width="10.69" height="10.7"/><rect class="cls-1" x="595.89" y="0.5" width="10.69" height="10.69"/><rect class="cls-1" x="585.2" y="139.51" width="10.69" height="10.69"/><rect class="cls-4" x="585.2" y="128.81" width="10.69" height="10.7"/><rect class="cls-1" x="585.2" y="0.5" width="10.69" height="10.69"/><rect class="cls-1" x="574.5" y="139.51" width="10.7" height="10.69"/><rect class="cls-4" x="574.5" y="128.81" width="10.7" height="10.7"/><rect class="cls-1" x="574.5" y="0.5" width="10.7" height="10.69"/><rect class="cls-1" x="563.81" y="139.51" width="10.69" height="10.69"/><rect class="cls-4" x="563.81" y="128.81" width="10.69" height="10.7"/><rect class="cls-3" x="563.81" y="118.12" width="10.69" height="10.69"/><rect class="cls-3" x="563.81" y="107.43" width="10.69" height="10.69"/><rect class="cls-3" x="563.81" y="96.73" width="10.69" height="10.7"/><rect class="cls-3" x="563.81" y="86.04" width="10.69" height="10.69"/><rect class="cls-3" x="563.81" y="75.35" width="10.69" height="10.69"/><rect class="cls-3" x="563.81" y="64.65" width="10.69" height="10.7"/><rect class="cls-3" x="563.81" y="53.96" width="10.69" height="10.69"/><rect class="cls-3" x="563.81" y="43.27" width="10.69" height="10.69"/><rect class="cls-3" x="563.81" y="32.57" width="10.69" height="10.7"/><rect class="cls-3" x="563.81" y="21.88" width="10.69" height="10.69"/><rect class="cls-3" x="563.81" y="11.19" width="10.69" height="10.69"/><rect class="cls-1" x="563.81" y="0.5" width="10.69" height="10.69"/><rect class="cls-1" x="221.63" y="139.51" width="10.69" height="10.69"/><rect class="cls-4" x="221.63" y="128.81" width="10.69" height="10.7"/><rect class="cls-3" x="221.63" y="118.12" width="10.69" height="10.69"/><rect class="cls-3" x="221.63" y="107.43" width="10.69" height="10.69"/><rect class="cls-3" x="221.63" y="96.73" width="10.69" height="10.7"/><rect class="cls-3" x="221.63" y="86.04" width="10.69" height="10.69"/><rect class="cls-3" x="221.63" y="75.35" width="10.69" height="10.69"/><rect class="cls-3" x="221.63" y="64.65" width="10.69" height="10.7"/><rect class="cls-3" x="221.63" y="53.96" width="10.69" height="10.69"/><rect class="cls-3" x="221.63" y="43.27" width="10.69" height="10.69"/><rect class="cls-3" x="221.63" y="32.57" width="10.69" height="10.7"/><rect class="cls-3" x="221.63" y="21.88" width="10.69" height="10.69"/><rect class="cls-3" x="221.63" y="11.19" width="10.69" height="10.69"/><rect class="cls-1" x="221.63" y="0.5" width="10.69" height="10.69"/><rect class="cls-1" x="210.94" y="139.51" width="10.69" height="10.69"/><rect class="cls-4" x="210.94" y="128.81" width="10.69" height="10.7"/><polygon class="cls-3" points="221.63 118.12 221.63 128.81 210.94 128.81 200.25 128.81 189.55 128.81 178.86 128.81 168.17 128.81 157.47 128.81 146.78 128.81 136.09 128.81 125.39 128.81 114.7 128.81 104.01 128.81 93.31 128.81 82.62 128.81 71.93 128.81 61.24 128.81 61.24 118.12 50.54 118.12 39.85 118.12 39.85 107.43 29.16 107.43 18.46 107.43 7.77 107.43 7.77 96.73 7.77 86.04 7.77 75.35 7.77 64.65 7.77 53.96 7.77 43.27 18.46 43.27 18.46 32.57 29.16 32.57 29.16 21.88 29.16 11.19 39.85 11.19 50.54 11.19 61.24 11.19 71.93 11.19 82.62 11.19 93.31 11.19 104.01 11.19 114.7 11.19 125.39 11.19 136.09 11.19 146.78 11.19 157.47 11.19 168.17 11.19 178.86 11.19 189.55 11.19 200.25 11.19 210.94 11.19 221.63 11.19 221.63 21.88 221.63 32.57 221.63 43.27 221.63 53.96 221.63 64.65 221.63 75.35 221.63 86.04 221.63 96.73 221.63 107.43 221.63 118.12"/><rect class="cls-1" x="210.94" y="0.5" width="10.69" height="10.69"/><rect class="cls-1" x="200.25" y="139.51" width="10.69" height="10.69"/><rect class="cls-4" x="200.25" y="128.81" width="10.69" height="10.7"/><rect class="cls-1" x="200.25" y="0.5" width="10.69" height="10.69"/><rect class="cls-1" x="189.55" y="139.51" width="10.7" height="10.69"/><rect class="cls-4" x="189.55" y="128.81" width="10.7" height="10.7"/><rect class="cls-1" x="189.55" y="0.5" width="10.7" height="10.69"/><rect class="cls-1" x="178.86" y="139.51" width="10.69" height="10.69"/><rect class="cls-4" x="178.86" y="128.81" width="10.69" height="10.7"/><rect class="cls-1" x="178.86" y="0.5" width="10.69" height="10.69"/><rect class="cls-1" x="168.17" y="139.51" width="10.69" height="10.69"/><rect class="cls-4" x="168.17" y="128.81" width="10.69" height="10.7"/><rect class="cls-1" x="168.17" y="0.5" width="10.69" height="10.69"/><rect class="cls-1" x="157.47" y="139.51" width="10.7" height="10.69"/><rect class="cls-4" x="157.47" y="128.81" width="10.7" height="10.7"/><rect class="cls-1" x="157.47" y="0.5" width="10.7" height="10.69"/><rect class="cls-1" x="146.78" y="139.51" width="10.69" height="10.69"/><rect class="cls-4" x="146.78" y="128.81" width="10.69" height="10.7"/><rect class="cls-1" x="146.78" y="0.5" width="10.69" height="10.69"/><rect class="cls-1" x="136.09" y="139.51" width="10.69" height="10.69"/><rect class="cls-4" x="136.09" y="128.81" width="10.69" height="10.7"/><rect class="cls-1" x="136.09" y="0.5" width="10.69" height="10.69"/><rect class="cls-1" x="125.39" y="139.51" width="10.7" height="10.69"/><rect class="cls-4" x="125.39" y="128.81" width="10.7" height="10.7"/><rect class="cls-1" x="125.39" y="0.5" width="10.7" height="10.69"/><rect class="cls-1" x="114.7" y="139.51" width="10.69" height="10.69"/><rect class="cls-4" x="114.7" y="128.81" width="10.69" height="10.7"/><rect class="cls-1" x="114.7" y="0.5" width="10.69" height="10.69"/><rect class="cls-1" x="104.01" y="139.51" width="10.69" height="10.69"/><rect class="cls-4" x="104.01" y="128.81" width="10.69" height="10.7"/><rect class="cls-1" x="104.01" y="0.5" width="10.69" height="10.69"/><rect class="cls-1" x="93.31" y="139.51" width="10.7" height="10.69"/><rect class="cls-4" x="93.31" y="128.81" width="10.7" height="10.7"/><rect class="cls-1" x="93.31" y="0.5" width="10.7" height="10.69"/><rect class="cls-1" x="82.62" y="139.51" width="10.69" height="10.69"/><rect class="cls-4" x="82.62" y="128.81" width="10.69" height="10.7"/><rect class="cls-1" x="82.62" y="0.5" width="10.69" height="10.69"/><rect class="cls-1" x="71.93" y="139.51" width="10.69" height="10.69"/><rect class="cls-4" x="71.93" y="128.81" width="10.69" height="10.7"/><rect class="cls-1" x="71.93" y="0.5" width="10.69" height="10.69"/><rect class="cls-1" x="61.24" y="139.51" width="10.69" height="10.69"/><rect class="cls-4" x="61.24" y="128.81" width="10.69" height="10.7"/><rect class="cls-1" x="61.24" y="0.5" width="10.69" height="10.69"/><rect class="cls-1" x="50.54" y="139.51" width="10.7" height="10.69"/><rect class="cls-4" x="50.54" y="128.81" width="10.7" height="10.7"/><rect class="cls-4" x="50.54" y="118.12" width="10.7" height="10.69"/><rect class="cls-1" x="50.54" y="0.5" width="10.7" height="10.69"/><rect class="cls-1" x="39.85" y="139.51" width="10.69" height="10.69"/><rect class="cls-2" x="39.85" y="128.81" width="10.69" height="10.7"/><rect class="cls-4" x="39.85" y="118.12" width="10.69" height="10.69"/><rect class="cls-1" x="39.85" y="0.5" width="10.69" height="10.69"/><rect class="cls-1" x="29.16" y="139.51" width="10.69" height="10.69"/><rect class="cls-2" x="29.16" y="128.81" width="10.69" height="10.7"/><rect class="cls-4" x="29.16" y="118.12" width="10.69" height="10.69"/><rect class="cls-4" x="29.16" y="107.43" width="10.69" height="10.69"/><rect class="cls-1" x="29.16" y="0.5" width="10.69" height="10.69"/><rect class="cls-1" x="18.46" y="139.51" width="10.7" height="10.69"/><rect class="cls-2" x="18.46" y="128.81" width="10.7" height="10.7"/><rect class="cls-2" x="18.46" y="118.12" width="10.7" height="10.69"/><rect class="cls-2" x="18.46" y="107.43" width="10.7" height="10.69"/><rect class="cls-1" x="18.46" y="21.88" width="10.7" height="10.69"/><rect class="cls-1" x="18.46" y="11.19" width="10.7" height="10.69"/><rect class="cls-1" x="7.77" y="128.81" width="10.69" height="10.7"/><rect class="cls-1" x="7.77" y="118.12" width="10.69" height="10.69"/><rect class="cls-2" x="7.77" y="107.43" width="10.69" height="10.69"/><rect class="cls-1" x="7.77" y="32.57" width="10.69" height="10.7"/><rect class="cls-1" x="7.77" y="21.88" width="10.69" height="10.69"/><rect class="cls-1" x="-2.92" y="107.43" width="10.69" height="10.69"/><rect class="cls-1" x="-2.92" y="96.73" width="10.69" height="10.7"/><rect class="cls-1" x="-2.92" y="86.04" width="10.69" height="10.69"/><rect class="cls-1" x="-2.92" y="75.35" width="10.69" height="10.69"/><rect class="cls-1" x="-2.92" y="64.65" width="10.69" height="10.7"/><rect class="cls-1" x="-2.92" y="53.96" width="10.69" height="10.69"/><rect class="cls-1" x="-2.92" y="43.27" width="10.69" height="10.69"/><path d="M77.2,23.42v38.4H64.41V36.22H51.62v25.6H38.83V23.42h6.4V17H70.81v6.4Zm-12.79,0H51.62v6.4H64.41Z"/><path d="M122.8,36.22v25.6H110V36.22H97.22v25.6H84.43v-32h32v6.4Z"/><path d="M168.4,61.82H162v6.4H130v-6.4h25.58v-6.4H136.43V49H130V36.22h6.4v-6.4h32Zm-12.79-25.6H142.82V49h12.79Z"/><path d="M214,61.82H182v-6.4h-6.4V29.82h12.79v25.6h12.79V29.82H214Z"/><path d="M240.42,55.42v6.4H227.63v-6.4h-6.4V17H234v38.4Z"/><path d="M286,36.22v25.6H254v-6.4h-6.39V49H254v-6.4h19.19v-6.4H254v-6.4h25.58v6.4ZM273.23,49H260.44v6.4h12.79Z"/><path d="M331.62,36.22v6.4H318.83v-6.4h-6.4v6.4H306v19.2H293.25v-32h32v6.4Z"/><path d="M403.63,36.22V49H378.05v6.4h25.58v6.4h-32v-6.4h-6.4V36.22h6.4v-6.4h25.58v6.4Zm-12.79,0H378.05v6.4h12.79Z"/><path d="M423.65,42.62h19.19V49h6.39v6.4h-6.39v6.4h-32v-6.4h25.58V49H417.26v-6.4h-6.4v-6.4h6.4v-6.4h32v6.4H423.65Z"/><path d="M521.25,36.22v25.6H508.46V49H495.67v12.8H482.88v-32h32v6.4Z"/><path d="M541.27,23.42H528.48V17h12.79Zm0,6.4v32H528.48v-32Z"/><path d="M594.1,29.82h12.79v6.4H594.1v25.6H581.31V36.22h-6.4v-6.4h6.4v-6.4h6.39V17h19.19v6.4H594.1Z"/><path d="M652.49,36.22v6.4H639.7v-6.4h-6.4v6.4h-6.39v19.2H614.12v-32h32v6.4Z"/><path d="M698.09,36.22v25.6h-32v-6.4h-6.39V49h6.39v-6.4H685.3v-6.4H666.11v-6.4h25.58v6.4ZM685.3,49H672.51v6.4H685.3Z"/><path d="M743.69,36.22v25.6H730.9V49H718.11v12.8H705.32v-32h32v6.4Z"/><path d="M789.29,36.22V49H763.71v6.4h25.58v6.4h-32v-6.4h-6.39V36.22h6.39v-6.4h25.58v6.4Zm-12.79,0H763.71v6.4H776.5Z"/><path d="M834.89,61.82h-32v-6.4h-6.39V29.82h12.79v12.8H822.1V29.82h12.79Z"/><path d="M880.49,36.22v19.2H874.1v6.4H848.52v-6.4h-6.4V36.22h6.4v-6.4H874.1v6.4Zm-12.79,0H854.91v19.2H867.7Z"/><path d="M926.09,36.22v6.4H913.3v-6.4h-6.39v6.4h-6.4v19.2H887.72v-32h32v6.4Z"/><path d="M952.51,42.62V49h6.39v6.4h6.4v6.4H952.51v-6.4h-6.4v6.4H933.32V17h12.79v19.2h6.4v-6.4H965.3v6.4h-6.4v6.4Z"/><path d="M156,93.82h12.79v6.4H156v25.6H143.24v-25.6h-6.4v-6.4h6.4v-6.4h6.39V81h19.19v6.4H156Z"/><path d="M214.42,100.22v6.4H201.63v-6.4h-6.4v6.4h-6.39v19.2H176.05v-32h32v6.4Z"/><path d="M260,100.22v19.2h-6.4v6.4H228v-6.4h-6.39v-19.2H228v-6.4h25.58v6.4Zm-12.79,0H234.44v19.2h12.79Z"/><path d="M305.62,100.22v25.6H292.83v-25.6H280v25.6H267.25v-32h32v6.4Z"/><path d="M338.43,119.42v6.4H325.64v-6.4h-6.39v-19.2h-6.4v-6.4h6.4V81H332v12.8h6.39v6.4H332v19.2Z"/><path d="M384,106.62H345.66v-6.4H384Z"/><path d="M429.63,100.22V113H404.05v6.4h25.58v6.4h-32v-6.4h-6.4v-19.2h6.4v-6.4h25.58v6.4Zm-12.79,0H404.05v6.4h12.79Z"/><path d="M475.23,100.22v25.6H462.44v-25.6H449.65v25.6H436.86v-32h32v6.4Z"/><path d="M520.83,125.82h-32v-6.4h-6.4v-19.2h6.4v-6.4H508V81h12.79ZM508,106.62h-6.39v-6.4h-6.4v19.2H508Z"/><path d="M573.66,93.82h12.79v6.4H573.66v25.6H560.87v-25.6h-6.39v-6.4h6.39v-6.4h6.4V81h19.18v6.4H573.66Z"/><path d="M632.05,100.22v25.6h-32v-6.4h-6.4V113h6.4v-6.4h19.18v-6.4H600.08v-6.4h25.58v6.4ZM619.26,113H606.47v6.4h12.79Z"/><path d="M677.65,113h-6.39v6.4h-6.4v6.4H652.07v-6.4h-6.39V113h-6.4V93.82h12.79V113h12.79V93.82h12.79Z"/><path d="M723.25,100.22v19.2h-6.39v6.4H691.28v-6.4h-6.4v-19.2h6.4v-6.4h25.58v6.4Zm-12.79,0H697.67v19.2h12.79Z"/><path d="M768.86,100.22v6.4H756.07v-6.4h-6.4v6.4h-6.39v19.2H730.49v-32h32v6.4Z"/><path d="M788.88,87.42H776.09V81h12.79Zm0,6.4v32H776.09v-32Z"/><path d="M821.68,119.42v6.4H808.89v-6.4H802.5v-19.2h-6.4v-6.4h6.4V81h12.79v12.8h6.39v6.4h-6.39v19.2Z"/><path d="M867.28,100.22v19.2h-6.39v6.4H835.31v-6.4h-6.4v-19.2h6.4v-6.4h25.58v6.4Zm-12.79,0H841.7v19.2h12.79Z"/></svg>