<svg id="balloon-xxl" xmlns="http://www.w3.org/2000/svg" viewBox="0 0 1010 857.64"><defs><style>.cls-1{fill:#2c2c2c;}.cls-2{fill:#a2a2a2;}.cls-3{fill:#f2f2f2;}.cls-4{fill:#e2e2e2;}</style></defs><rect class="cls-1" x="1002.23" y="107.43" width="10.69" height="10.69"/><rect class="cls-1" x="1002.23" y="96.73" width="10.69" height="10.7"/><rect class="cls-1" x="1002.23" y="86.04" width="10.69" height="10.69"/><rect class="cls-1" x="1002.23" y="75.35" width="10.69" height="10.69"/><rect class="cls-1" x="1002.23" y="64.65" width="10.69" height="10.7"/><rect class="cls-1" x="1002.23" y="53.96" width="10.69" height="10.69"/><rect class="cls-1" x="991.53" y="128.81" width="10.7" height="10.7"/><rect class="cls-1" x="991.53" y="118.12" width="10.7" height="10.69"/><rect class="cls-2" x="991.53" y="107.43" width="10.7" height="10.69"/><polygon class="cls-3" points="1002.23 96.73 1002.23 107.43 991.53 107.43 980.84 107.43 970.15 107.43 970.15 118.12 959.45 118.12 948.76 118.12 948.76 128.81 938.07 128.81 927.37 128.81 916.68 128.81 905.99 128.81 895.29 128.81 884.6 128.81 873.91 128.81 863.22 128.81 852.52 128.81 841.83 128.81 831.14 128.81 820.44 128.81 809.75 128.81 799.06 128.81 788.36 128.81 777.67 128.81 766.98 128.81 756.29 128.81 745.59 128.81 734.9 128.81 724.21 128.81 713.51 128.81 702.82 128.81 692.13 128.81 681.43 128.81 670.74 128.81 660.05 128.81 649.35 128.81 638.66 128.81 627.97 128.81 617.28 128.81 606.58 128.81 595.89 128.81 585.2 128.81 574.5 128.81 574.5 118.12 574.5 107.43 574.5 96.73 574.5 86.04 574.5 75.35 574.5 64.65 574.5 53.96 574.5 43.27 574.5 32.57 574.5 21.88 574.5 11.19 585.2 11.19 595.89 11.19 606.58 11.19 617.28 11.19 627.97 11.19 638.66 11.19 649.35 11.19 660.05 11.19 670.74 11.19 681.43 11.19 692.13 11.19 702.82 11.19 713.51 11.19 724.21 11.19 734.9 11.19 745.59 11.19 756.29 11.19 766.98 11.19 777.67 11.19 788.36 11.19 799.06 11.19 809.75 11.19 820.44 11.19 831.14 11.19 841.83 11.19 852.52 11.19 863.22 11.19 873.91 11.19 884.6 11.19 895.29 11.19 905.99 11.19 916.68 11.19 927.37 11.19 938.07 11.19 948.76 11.19 959.45 11.19 970.15 11.19 980.84 11.19 980.84 21.88 980.84 32.57 991.53 32.57 991.53 43.27 991.53 53.96 1002.23 53.96 1002.23 64.65 1002.23 75.35 1002.23 86.04 1002.23 96.73"/><rect class="cls-1" x="991.53" y="43.27" width="10.7" height="10.69"/><rect class="cls-1" x="991.53" y="32.57" width="10.7" height="10.7"/><rect class="cls-1" x="980.84" y="139.51" width="10.69" height="10.69"/><rect class="cls-2" x="980.84" y="128.81" width="10.69" height="10.7"/><rect class="cls-2" x="980.84" y="118.12" width="10.69" height="10.69"/><rect class="cls-2" x="980.84" y="107.43" width="10.69" height="10.69"/><rect class="cls-1" x="980.84" y="21.88" width="10.69" height="10.69"/><rect class="cls-1" x="980.84" y="11.19" width="10.69" height="10.69"/><rect class="cls-1" x="970.15" y="139.51" width="10.69" height="10.69"/><rect class="cls-2" x="970.15" y="128.81" width="10.69" height="10.7"/><rect class="cls-4" x="970.15" y="118.12" width="10.69" height="10.69"/><rect class="cls-4" x="970.15" y="107.43" width="10.69" height="10.69"/><rect class="cls-1" x="970.15" y="0.5" width="10.69" height="10.69"/><rect class="cls-1" x="959.45" y="139.51" width="10.7" height="10.69"/><rect class="cls-2" x="959.45" y="128.81" width="10.7" height="10.7"/><rect class="cls-4" x="959.45" y="118.12" width="10.7" height="10.69"/><rect class="cls-1" x="959.45" y="0.5" width="10.7" height="10.69"/><rect class="cls-1" x="948.76" y="139.51" width="10.69" height="10.69"/><rect class="cls-4" x="948.76" y="128.81" width="10.69" height="10.7"/><rect class="cls-4" x="948.76" y="118.12" width="10.69" height="10.69"/><rect class="cls-1" x="948.76" y="0.5" width="10.69" height="10.69"/><rect class="cls-1" x="938.07" y="139.51" width="10.69" height="10.69"/><rect class="cls-4" x="938.07" y="128.81" width="10.69" height="10.7"/><rect class="cls-1" x="938.07" y="0.5" width="10.69" height="10.69"/><rect class="cls-1" x="927.37" y="139.51" width="10.7" height="10.69"/><rect class="cls-4" x="927.37" y="128.81" width="10.7" height="10.7"/><rect class="cls-1" x="927.37" y="0.5" width="10.7" height="10.69"/><rect class="cls-1" x="916.68" y="139.51" width="10.69" height="10.69"/><rect class="cls-4" x="916.68" y="128.81" width="10.69" height="10.7"/><rect class="cls-1" x="916.68" y="0.5" width="10.69" height="10.69"/><rect class="cls-1" x="905.99" y="139.51" width="10.69" height="10.69"/><rect class="cls-4" x="905.99" y="128.81" width="10.69" height="10.7"/><rect class="cls-1" x="905.99" y="0.5" width="10.69" height="10.69"/><rect class="cls-1" x="895.29" y="139.51" width="10.7" height="10.69"/><rect class="cls-4" x="895.29" y="128.81" width="10.7" height="10.7"/><rect class="cls-1" x="895.29" y="0.5" width="10.7" height="10.69"/><rect class="cls-1" x="884.6" y="139.51" width="10.69" height="10.69"/><rect class="cls-4" x="884.6" y="128.81" width="10.69" height="10.7"/><rect class="cls-1" x="884.6" y="0.5" width="10.69" height="10.69"/><rect class="cls-1" x="873.91" y="139.51" width="10.69" height="10.69"/><rect class="cls-4" x="873.91" y="128.81" width="10.69" height="10.7"/><rect class="cls-1" x="873.91" y="0.5" width="10.69" height="10.69"/><rect class="cls-1" x="863.22" y="139.51" width="10.69" height="10.69"/><rect class="cls-4" x="863.22" y="128.81" width="10.69" height="10.7"/><rect class="cls-1" x="863.22" y="0.5" width="10.69" height="10.69"/><rect class="cls-1" x="852.52" y="139.51" width="10.7" height="10.69"/><rect class="cls-4" x="852.52" y="128.81" width="10.7" height="10.7"/><rect class="cls-1" x="852.52" y="0.5" width="10.7" height="10.69"/><rect class="cls-1" x="841.83" y="139.51" width="10.69" height="10.69"/><rect class="cls-4" x="841.83" y="128.81" width="10.69" height="10.7"/><rect class="cls-1" x="841.83" y="0.5" width="10.69" height="10.69"/><rect class="cls-1" x="831.14" y="139.51" width="10.69" height="10.69"/><rect class="cls-4" x="831.14" y="128.81" width="10.69" height="10.7"/><rect class="cls-1" x="831.14" y="0.5" width="10.69" height="10.69"/><rect class="cls-1" x="820.44" y="139.51" width="10.7" height="10.69"/><rect class="cls-4" x="820.44" y="128.81" width="10.7" height="10.7"/><rect class="cls-1" x="820.44" y="0.5" width="10.7" height="10.69"/><rect class="cls-1" x="809.75" y="139.51" width="10.69" height="10.69"/><rect class="cls-4" x="809.75" y="128.81" width="10.69" height="10.7"/><rect class="cls-1" x="809.75" y="0.5" width="10.69" height="10.69"/><rect class="cls-1" x="799.06" y="139.51" width="10.69" height="10.69"/><rect class="cls-4" x="799.06" y="128.81" width="10.69" height="10.7"/><rect class="cls-1" x="799.06" y="0.5" width="10.69" height="10.69"/><rect class="cls-1" x="788.36" y="139.51" width="10.7" height="10.69"/><rect class="cls-4" x="788.36" y="128.81" width="10.7" height="10.7"/><rect class="cls-1" x="788.36" y="0.5" width="10.7" height="10.69"/><rect class="cls-1" x="777.67" y="139.51" width="10.69" height="10.69"/><rect class="cls-4" x="777.67" y="128.81" width="10.69" height="10.7"/><rect class="cls-1" x="777.67" y="0.5" width="10.69" height="10.69"/><rect class="cls-1" x="766.98" y="139.51" width="10.69" height="10.69"/><rect class="cls-4" x="766.98" y="128.81" width="10.69" height="10.7"/><rect class="cls-1" x="766.98" y="0.5" width="10.69" height="10.69"/><rect class="cls-1" x="756.29" y="139.51" width="10.69" height="10.69"/><rect class="cls-4" x="756.29" y="128.81" width="10.69" height="10.7"/><rect class="cls-1" x="756.29" y="0.5" width="10.69" height="10.69"/><rect class="cls-1" x="745.59" y="139.51" width="10.7" height="10.69"/><rect class="cls-4" x="745.59" y="128.81" width="10.7" height="10.7"/><rect class="cls-1" x="745.59" y="0.5" width="10.7" height="10.69"/><rect class="cls-1" x="734.9" y="139.51" width="10.69" height="10.69"/><rect class="cls-4" x="734.9" y="128.81" width="10.69" height="10.7"/><rect class="cls-1" x="734.9" y="0.5" width="10.69" height="10.69"/><rect class="cls-1" x="724.21" y="139.51" width="10.69" height="10.69"/><rect class="cls-4" x="724.21" y="128.81" width="10.69" height="10.7"/><rect class="cls-1" x="724.21" y="0.5" width="10.69" height="10.69"/><rect class="cls-1" x="713.51" y="139.51" width="10.7" height="10.69"/><rect class="cls-4" x="713.51" y="128.81" width="10.7" height="10.7"/><rect class="cls-1" x="713.51" y="0.5" width="10.7" height="10.69"/><rect class="cls-1" x="702.82" y="139.51" width="10.69" height="10.69"/><rect class="cls-4" x="702.82" y="128.81" width="10.69" height="10.7"/><rect class="cls-1" x="702.82" y="0.5" width="10.69" height="10.69"/><rect class="cls-1" x="692.13" y="139.51" width="10.69" height="10.69"/><rect class="cls-4" x="692.13" y="128.81" width="10.69" height="10.7"/><rect class="cls-1" x="692.13" y="0.5" width="10.69" height="10.69"/><rect class="cls-1" x="681.43" y="139.51" width="10.7" height="10.69"/><rect class="cls-4" x="681.43" y="128.81" width="10.7" height="10.7"/><rect class="cls-1" x="681.43" y="0.5" width="10.7" height="10.69"/><rect class="cls-1" x="670.74" y="139.51" width="10.69" height="10.69"/><rect class="cls-4" x="670.74" y="128.81" width="10.69" height="10.7"/><rect class="cls-1" x="670.74" y="0.5" width="10.69" height="10.69"/><rect class="cls-1" x="660.05" y="139.51" width="10.69" height="10.69"/><rect class="cls-4" x="660.05" y="128.81" width="10.69" height="10.7"/><rect class="cls-1" x="660.05" y="0.5" width="10.69" height="10.69"/><rect class="cls-1" x="649.35" y="139.51" width="10.7" height="10.69"/><rect class="cls-4" x="649.35" y="128.81" width="10.7" height="10.7"/><rect class="cls-1" x="649.35" y="0.5" width="10.7" height="10.69"/><rect class="cls-1" x="638.66" y="139.51" width="10.69" height="10.69"/><rect class="cls-4" x="638.66" y="128.81" width="10.69" height="10.7"/><rect class="cls-1" x="638.66" y="0.5" width="10.69" height="10.69"/><rect class="cls-1" x="627.97" y="139.51" width="10.69" height="10.69"/><rect class="cls-4" x="627.97" y="128.81" width="10.69" height="10.7"/><rect class="cls-1" x="627.97" y="0.5" width="10.69" height="10.69"/><rect class="cls-1" x="617.28" y="139.51" width="10.69" height="10.69"/><rect class="cls-4" x="617.28" y="128.81" width="10.69" height="10.7"/><rect class="cls-1" x="617.28" y="0.5" width="10.69" height="10.69"/><rect class="cls-1" x="606.58" y="139.51" width="10.7" height="10.69"/><rect class="cls-4" x="606.58" y="128.81" width="10.7" height="10.7"/><rect class="cls-1" x="606.58" y="0.5" width="10.7" height="10.69"/><rect class="cls-1" x="595.89" y="139.51" width="10.69" height="10.69"/><rect class="cls-4" x="595.89" y="128.81" width="10.69" height="10.7"/><rect class="cls-1" x="595.89" y="0.5" width="10.69" height="10.69"/><rect class="cls-1" x="585.2" y="139.51" width="10.69" height="10.69"/><rect class="cls-4" x="585.2" y="128.81" width="10.69" height="10.7"/><rect class="cls-1" x="585.2" y="0.5" width="10.69" height="10.69"/><rect class="cls-1" x="574.5" y="139.51" width="10.7" height="10.69"/><rect class="cls-4" x="574.5" y="128.81" width="10.7" height="10.7"/><rect class="cls-1" x="574.5" y="0.5" width="10.7" height="10.69"/><rect class="cls-1" x="563.81" y="139.51" width="10.69" height="10.69"/><rect class="cls-4" x="563.81" y="128.81" width="10.69" height="10.7"/><rect class="cls-3" x="563.81" y="118.12" width="10.69" height="10.69"/><rect class="cls-3" x="563.81" y="107.43" width="10.69" height="10.69"/><rect class="cls-3" x="563.81" y="96.73" width="10.69" height="10.7"/><rect class="cls-3" x="563.81" y="86.04" width="10.69" height="10.69"/><rect class="cls-3" x="563.81" y="75.35" width="10.69" height="10.69"/><rect class="cls-3" x="563.81" y="64.65" width="10.69" height="10.7"/><rect class="cls-3" x="563.81" y="53.96" width="10.69" height="10.69"/><rect class="cls-3" x="563.81" y="43.27" width="10.69" height="10.69"/><rect class="cls-3" x="563.81" y="32.57" width="10.69" height="10.7"/><rect class="cls-3" x="563.81" y="21.88" width="10.69" height="10.69"/><rect class="cls-3" x="563.81" y="11.19" width="10.69" height="10.69"/><rect class="cls-1" x="563.81" y="0.5" width="10.69" height="10.69"/><rect class="cls-1" x="221.63" y="139.51" width="10.69" height="10.69"/><rect class="cls-4" x="221.63" y="128.81" width="10.69" height="10.7"/><rect class="cls-3" x="221.63" y="118.12" width="10.69" height="10.69"/><rect class="cls-3" x="221.63" y="107.43" width="10.69" height="10.69"/><rect class="cls-3" x="221.63" y="96.73" width="10.69" height="10.7"/><rect class="cls-3" x="221.63" y="86.04" width="10.69" height="10.69"/><rect class="cls-3" x="221.63" y="75.35" width="10.69" height="10.69"/><rect class="cls-3" x="221.63" y="64.65" width="10.69" height="10.7"/><rect class="cls-3" x="221.63" y="53.96" width="10.69" height="10.69"/><rect class="cls-3" x="221.63" y="43.27" width="10.69" height="10.69"/><rect class="cls-3" x="221.63" y="32.57" width="10.69" height="10.7"/><rect class="cls-3" x="221.63" y="21.88" width="10.69" height="10.69"/><rect class="cls-3" x="221.63" y="11.19" width="10.69" height="10.69"/><rect class="cls-1" x="221.63" y="0.5" width="10.69" height="10.69"/><rect class="cls-1" x="210.94" y="139.51" width="10.69" height="10.69"/><rect class="cls-4" x="210.94" y="128.81" width="10.69" height="10.7"/><polygon class="cls-3" points="221.63 118.12 221.63 128.81 210.94 128.81 200.25 128.81 189.55 128.81 178.86 128.81 168.17 128.81 157.47 128.81 146.78 128.81 136.09 128.81 125.39 128.81 114.7 128.81 104.01 128.81 93.31 128.81 82.62 128.81 71.93 128.81 61.24 128.81 61.24 118.12 50.54 118.12 39.85 118.12 39.85 107.43 29.16 107.43 18.46 107.43 7.77 107.43 7.77 96.73 7.77 86.04 7.77 75.35 7.77 64.65 7.77 53.96 7.77 43.27 18.46 43.27 18.46 32.57 29.16 32.57 29.16 21.88 29.16 11.19 39.85 11.19 50.54 11.19 61.24 11.19 71.93 11.19 82.62 11.19 93.31 11.19 104.01 11.19 114.7 11.19 125.39 11.19 136.09 11.19 146.78 11.19 157.47 11.19 168.17 11.19 178.86 11.19 189.55 11.19 200.25 11.19 210.94 11.19 221.63 11.19 221.63 21.88 221.63 32.57 221.63 43.27 221.63 53.96 221.63 64.65 221.63 75.35 221.63 86.04 221.63 96.73 221.63 107.43 221.63 118.12"/><rect class="cls-1" x="210.94" y="0.5" width="10.69" height="10.69"/><rect class="cls-1" x="200.25" y="139.51" width="10.69" height="10.69"/><rect class="cls-4" x="200.25" y="128.81" width="10.69" height="10.7"/><rect class="cls-1" x="200.25" y="0.5" width="10.69" height="10.69"/><rect class="cls-1" x="189.55" y="139.51" width="10.7" height="10.69"/><rect class="cls-4" x="189.55" y="128.81" width="10.7" height="10.7"/><rect class="cls-1" x="189.55" y="0.5" width="10.7" height="10.69"/><rect class="cls-1" x="178.86" y="139.51" width="10.69" height="10.69"/><rect class="cls-4" x="178.86" y="128.81" width="10.69" height="10.7"/><rect class="cls-1" x="178.86" y="0.5" width="10.69" height="10.69"/><rect class="cls-1" x="168.17" y="139.51" width="10.69" height="10.69"/><rect class="cls-4" x="168.17" y="128.81" width="10.69" height="10.7"/><rect class="cls-1" x="168.17" y="0.5" width="10.69" height="10.69"/><rect class="cls-1" x="157.47" y="139.51" width="10.7" height="10.69"/><rect class="cls-4" x="157.47" y="128.81" width="10.7" height="10.7"/><rect class="cls-1" x="157.47" y="0.5" width="10.7" height="10.69"/><rect class="cls-1" x="146.78" y="139.51" width="10.69" height="10.69"/><rect class="cls-4" x="146.78" y="128.81" width="10.69" height="10.7"/><rect class="cls-1" x="146.78" y="0.5" width="10.69" height="10.69"/><rect class="cls-1" x="136.09" y="139.51" width="10.69" height="10.69"/><rect class="cls-4" x="136.09" y="128.81" width="10.69" height="10.7"/><rect class="cls-1" x="136.09" y="0.5" width="10.69" height="10.69"/><rect class="cls-1" x="125.39" y="139.51" width="10.7" height="10.69"/><rect class="cls-4" x="125.39" y="128.81" width="10.7" height="10.7"/><rect class="cls-1" x="125.39" y="0.5" width="10.7" height="10.69"/><rect class="cls-1" x="114.7" y="139.51" width="10.69" height="10.69"/><rect class="cls-4" x="114.7" y="128.81" width="10.69" height="10.7"/><rect class="cls-1" x="114.7" y="0.5" width="10.69" height="10.69"/><rect class="cls-1" x="104.01" y="139.51" width="10.69" height="10.69"/><rect class="cls-4" x="104.01" y="128.81" width="10.69" height="10.7"/><rect class="cls-1" x="104.01" y="0.5" width="10.69" height="10.69"/><rect class="cls-1" x="93.31" y="139.51" width="10.7" height="10.69"/><rect class="cls-4" x="93.31" y="128.81" width="10.7" height="10.7"/><rect class="cls-1" x="93.31" y="0.5" width="10.7" height="10.69"/><rect class="cls-1" x="82.62" y="139.51" width="10.69" height="10.69"/><rect class="cls-4" x="82.62" y="128.81" width="10.69" height="10.7"/><rect class="cls-1" x="82.62" y="0.5" width="10.69" height="10.69"/><rect class="cls-1" x="71.93" y="139.51" width="10.69" height="10.69"/><rect class="cls-4" x="71.93" y="128.81" width="10.69" height="10.7"/><rect class="cls-1" x="71.93" y="0.5" width="10.69" height="10.69"/><rect class="cls-1" x="61.24" y="139.51" width="10.69" height="10.69"/><rect class="cls-4" x="61.24" y="128.81" width="10.69" height="10.7"/><rect class="cls-1" x="61.24" y="0.5" width="10.69" height="10.69"/><rect class="cls-1" x="50.54" y="139.51" width="10.7" height="10.69"/><rect class="cls-4" x="50.54" y="128.81" width="10.7" height="10.7"/><rect class="cls-4" x="50.54" y="118.12" width="10.7" height="10.69"/><rect class="cls-1" x="50.54" y="0.5" width="10.7" height="10.69"/><rect class="cls-1" x="39.85" y="139.51" width="10.69" height="10.69"/><rect class="cls-2" x="39.85" y="128.81" width="10.69" height="10.7"/><rect class="cls-4" x="39.85" y="118.12" width="10.69" height="10.69"/><rect class="cls-1" x="39.85" y="0.5" width="10.69" height="10.69"/><rect class="cls-1" x="29.16" y="139.51" width="10.69" height="10.69"/><rect class="cls-2" x="29.16" y="128.81" width="10.69" height="10.7"/><rect class="cls-4" x="29.16" y="118.12" width="10.69" height="10.69"/><rect class="cls-4" x="29.16" y="107.43" width="10.69" height="10.69"/><rect class="cls-1" x="29.16" y="0.5" width="10.69" height="10.69"/><rect class="cls-1" x="18.46" y="139.51" width="10.7" height="10.69"/><rect class="cls-2" x="18.46" y="128.81" width="10.7" height="10.7"/><rect class="cls-2" x="18.46" y="118.12" width="10.7" height="10.69"/><rect class="cls-2" x="18.46" y="107.43" width="10.7" height="10.69"/><rect class="cls-1" x="18.46" y="21.88" width="10.7" height="10.69"/><rect class="cls-1" x="18.46" y="11.19" width="10.7" height="10.69"/><rect class="cls-1" x="7.77" y="128.81" width="10.69" height="10.7"/><rect class="cls-1" x="7.77" y="118.12" width="10.69" height="10.69"/><rect class="cls-2" x="7.77" y="107.43" width="10.69" height="10.69"/><rect class="cls-1" x="7.77" y="32.57" width="10.69" height="10.7"/><rect class="cls-1" x="7.77" y="21.88" width="10.69" height="10.69"/><rect class="cls-1" x="-2.92" y="107.43" width="10.69" height="10.69"/><rect class="cls-1" x="-2.92" y="96.73" width="10.69" height="10.7"/><rect class="cls-1" x="-2.92" y="86.04" width="10.69" height="10.69"/><rect class="cls-1" x="-2.92" y="75.35" width="10.69" height="10.69"/><rect class="cls-1" x="-2.92" y="64.65" width="10.69" height="10.7"/><rect class="cls-1" x="-2.92" y="53.96" width="10.69" height="10.69"/><rect class="cls-1" x="-2.92" y="43.27" width="10.69" height="10.69"/><path d="M116,23.42v38.4H103.2V36.22H90.41v25.6H77.62V23.42H84V17H109.6v6.4Zm-12.79,0H90.41v6.4H103.2Z"/><path d="M161.59,36.22v25.6H148.8V36.22H136v25.6H123.22v-32h32v6.4Z"/><path d="M207.19,61.82H200.8v6.4h-32v-6.4H194.4v-6.4H175.22V49h-6.4V36.22h6.4v-6.4h32ZM194.4,36.22H181.61V49H194.4Z"/><path d="M252.79,61.82h-32v-6.4h-6.4V29.82h12.79v25.6H240V29.82h12.79Z"/><path d="M279.21,55.42v6.4H266.42v-6.4H260V17h12.79v38.4Z"/><path d="M324.81,36.22v25.6h-32v-6.4h-6.39V49h6.39v-6.4H312v-6.4H292.83v-6.4h25.58v6.4ZM312,49H299.23v6.4H312Z"/><path d="M370.41,36.22v6.4H357.62v-6.4h-6.4v6.4h-6.39v19.2H332v-32h32v6.4Z"/><path d="M416.84,23.42H404.05V17h12.79Zm0,6.4v32H404.05v-32Z"/><path d="M436.86,42.62h19.19V49h6.39v6.4h-6.39v6.4h-32v-6.4h25.58V49H430.47v-6.4h-6.4v-6.4h6.4v-6.4h32v6.4H436.86Z"/><path d="M534.45,36.22v25.6H521.66V49H508.88v12.8H496.09v-32h32v6.4Z"/><path d="M580.06,61.82h-6.4v6.4h-32v-6.4h25.58v-6.4H548.08V49h-6.39V29.82h12.79V49h12.79V29.82h12.79Z"/><path d="M632.89,29.82h12.79v6.4H632.89v25.6H620.1V36.22h-6.4v-6.4h6.4v-6.4h6.39V17h19.19v6.4H632.89Z"/><path d="M691.27,36.22v25.6h-32v-6.4h-6.39V49h6.39v-6.4h19.19v-6.4H659.3v-6.4h25.58v6.4ZM678.49,49H665.7v6.4h12.79Z"/><path d="M736.88,49h-6.4v6.4h-6.39v6.4H711.3v-6.4h-6.4V49h-6.39V29.82H711.3V49h12.79V29.82h12.79Z"/><path d="M782.48,36.22v19.2h-6.4v6.4H750.5v-6.4h-6.39V36.22h6.39v-6.4h25.58v6.4Zm-12.79,0H756.9v19.2h12.79Z"/><path d="M828.08,36.22v6.4H815.29v-6.4h-6.4v6.4H802.5v19.2H789.71v-32h32v6.4Z"/><path d="M848.1,23.42H835.31V17H848.1Zm0,6.4v32H835.31v-32Z"/><path d="M880.91,55.42v6.4H868.12v-6.4h-6.4V36.22h-6.39v-6.4h6.39V17h12.79v12.8h6.4v6.4h-6.4v19.2Z"/><path d="M926.51,36.22V49H900.93v6.4h25.58v6.4h-32v-6.4h-6.39V36.22h6.39v-6.4h25.58v6.4Zm-12.79,0H900.93v6.4h12.79Z"/><path d="M117.24,93.82H130v6.4H117.24v25.6H104.45v-25.6h-6.4v-6.4h6.4v-6.4h6.39V81H130v6.4H117.24Z"/><path d="M175.63,100.22v6.4H162.84v-6.4h-6.4v6.4h-6.39v19.2H137.26v-32h32v6.4Z"/><path d="M221.23,100.22v19.2h-6.4v6.4H189.26v-6.4h-6.4v-19.2h6.4v-6.4h25.57v6.4Zm-12.79,0H195.65v19.2h12.79Z"/><path d="M266.83,100.22v25.6H254v-25.6H241.25v25.6H228.46v-32h32v6.4Z"/><path d="M299.64,119.42v6.4H286.85v-6.4h-6.39v-19.2h-6.4v-6.4h6.4V81h12.79v12.8h6.39v6.4h-6.39v19.2Z"/><path d="M345.24,106.62H306.87v-6.4h38.37Z"/><path d="M390.84,100.22V113H365.26v6.4h25.58v6.4h-32v-6.4h-6.4v-19.2h6.4v-6.4h25.58v6.4Zm-12.79,0H365.26v6.4h12.79Z"/><path d="M436.44,100.22v25.6H423.65v-25.6H410.86v25.6H398.07v-32h32v6.4Z"/><path d="M482,125.82h-32v-6.4h-6.4v-19.2h6.4v-6.4h19.18V81H482Zm-12.79-19.2h-6.39v-6.4h-6.4v19.2h12.79Z"/><path d="M534.87,93.82h12.79v6.4H534.87v25.6H522.08v-25.6h-6.39v-6.4h6.39v-6.4h6.4V81h19.18v6.4H534.87Z"/><path d="M593.26,100.22v6.4H580.47v-6.4h-6.39v6.4h-6.4v19.2H554.89v-32h32v6.4Z"/><path d="M638.86,100.22v25.6h-32v-6.4h-6.4V113h6.4v-6.4h19.18v-6.4H606.89v-6.4h25.58v6.4ZM626.07,113H613.28v6.4h12.79Z"/><path d="M684.47,100.22v25.6H671.68V113H658.89v12.8H646.1v-32h32v6.4Z"/><path d="M730.07,100.22V113H704.49v6.4h25.58v6.4h-32v-6.4H691.7v-19.2h6.39v-6.4h25.58v6.4Zm-12.79,0H704.49v6.4h12.79Z"/><path d="M775.67,125.82h-32v-6.4H737.3V93.82h12.79v12.8h12.79V93.82h12.79Z"/><path d="M821.27,100.22v19.2h-6.4v6.4H789.29v-6.4H782.9v-19.2h6.39v-6.4h25.58v6.4Zm-12.79,0H795.69v19.2h12.79Z"/><path d="M866.87,100.22v6.4H854.08v-6.4h-6.4v6.4h-6.39v19.2H828.5v-32h32v6.4Z"/><path d="M893.29,106.62V113h6.39v6.4h6.4v6.4H893.29v-6.4h-6.4v6.4H874.1V81h12.79v19.2h6.4v-6.4h12.79v6.4h-6.4v6.4Z"/></svg>