<svg id="balloon-xl" xmlns="http://www.w3.org/2000/svg" viewBox="0 0 1010 857.64"><defs><style>.cls-1{fill:#2c2c2c;}.cls-2{fill:#a2a2a2;}.cls-3{fill:#f2f2f2;}.cls-4{fill:#e2e2e2;}</style></defs><rect class="cls-1" x="906" y="107.43" width="10.69" height="10.69"/><rect class="cls-1" x="906" y="96.73" width="10.69" height="10.7"/><rect class="cls-1" x="906" y="86.04" width="10.69" height="10.69"/><rect class="cls-1" x="906" y="75.35" width="10.69" height="10.69"/><rect class="cls-1" x="906" y="64.65" width="10.69" height="10.7"/><rect class="cls-1" x="906" y="53.96" width="10.69" height="10.69"/><rect class="cls-1" x="895.3" y="128.81" width="10.7" height="10.7"/><rect class="cls-1" x="895.3" y="118.12" width="10.7" height="10.69"/><rect class="cls-2" x="895.3" y="107.43" width="10.7" height="10.69"/><polygon class="cls-3" points="906 96.73 906 107.43 895.3 107.43 884.61 107.43 873.92 107.43 873.92 118.12 863.23 118.12 852.53 118.12 852.53 128.81 841.84 128.81 831.15 128.81 820.45 128.81 809.76 128.81 799.07 128.81 788.37 128.81 777.68 128.81 766.99 128.81 756.3 128.81 745.6 128.81 734.91 128.81 724.22 128.81 713.52 128.81 702.83 128.81 692.14 128.81 681.44 128.81 670.75 128.81 660.06 128.81 649.36 128.81 638.67 128.81 627.98 128.81 617.29 128.81 606.59 128.81 595.9 128.81 585.21 128.81 574.51 128.81 574.51 118.12 574.51 107.43 574.51 96.73 574.51 86.04 574.51 75.35 574.51 64.65 574.51 53.96 574.51 43.27 574.51 32.57 574.51 21.88 574.51 11.19 585.21 11.19 595.9 11.19 606.59 11.19 617.29 11.19 627.98 11.19 638.67 11.19 649.36 11.19 660.06 11.19 670.75 11.19 681.44 11.19 692.14 11.19 702.83 11.19 713.52 11.19 724.22 11.19 734.91 11.19 745.6 11.19 756.3 11.19 766.99 11.19 777.68 11.19 788.37 11.19 799.07 11.19 809.76 11.19 820.45 11.19 831.15 11.19 841.84 11.19 852.53 11.19 863.23 11.19 873.92 11.19 884.61 11.19 884.61 21.88 884.61 32.57 895.3 32.57 895.3 43.27 895.3 53.96 906 53.96 906 64.65 906 75.35 906 86.04 906 96.73"/><rect class="cls-1" x="895.3" y="43.27" width="10.7" height="10.69"/><rect class="cls-1" x="895.3" y="32.57" width="10.7" height="10.7"/><rect class="cls-1" x="884.61" y="139.51" width="10.69" height="10.69"/><rect class="cls-2" x="884.61" y="128.81" width="10.69" height="10.7"/><rect class="cls-2" x="884.61" y="118.12" width="10.69" height="10.69"/><rect class="cls-2" x="884.61" y="107.43" width="10.69" height="10.69"/><rect class="cls-1" x="884.61" y="21.88" width="10.69" height="10.69"/><rect class="cls-1" x="884.61" y="11.19" width="10.69" height="10.69"/><rect class="cls-1" x="873.92" y="139.51" width="10.69" height="10.69"/><rect class="cls-2" x="873.92" y="128.81" width="10.69" height="10.7"/><rect class="cls-4" x="873.92" y="118.12" width="10.69" height="10.69"/><rect class="cls-4" x="873.92" y="107.43" width="10.69" height="10.69"/><rect class="cls-1" x="873.92" y="0.5" width="10.69" height="10.69"/><rect class="cls-1" x="863.23" y="139.51" width="10.69" height="10.69"/><rect class="cls-2" x="863.23" y="128.81" width="10.69" height="10.7"/><rect class="cls-4" x="863.23" y="118.12" width="10.69" height="10.69"/><rect class="cls-1" x="863.23" y="0.5" width="10.69" height="10.69"/><rect class="cls-1" x="852.53" y="139.51" width="10.7" height="10.69"/><rect class="cls-4" x="852.53" y="128.81" width="10.7" height="10.7"/><rect class="cls-4" x="852.53" y="118.12" width="10.7" height="10.69"/><rect class="cls-1" x="852.53" y="0.5" width="10.7" height="10.69"/><rect class="cls-1" x="841.84" y="139.51" width="10.69" height="10.69"/><rect class="cls-4" x="841.84" y="128.81" width="10.69" height="10.7"/><rect class="cls-1" x="841.84" y="0.5" width="10.69" height="10.69"/><rect class="cls-1" x="831.15" y="139.51" width="10.69" height="10.69"/><rect class="cls-4" x="831.15" y="128.81" width="10.69" height="10.7"/><rect class="cls-1" x="831.15" y="0.5" width="10.69" height="10.69"/><rect class="cls-1" x="820.45" y="139.51" width="10.7" height="10.69"/><rect class="cls-4" x="820.45" y="128.81" width="10.7" height="10.7"/><rect class="cls-1" x="820.45" y="0.5" width="10.7" height="10.69"/><rect class="cls-1" x="809.76" y="139.51" width="10.69" height="10.69"/><rect class="cls-4" x="809.76" y="128.81" width="10.69" height="10.7"/><rect class="cls-1" x="809.76" y="0.5" width="10.69" height="10.69"/><rect class="cls-1" x="799.07" y="139.51" width="10.69" height="10.69"/><rect class="cls-4" x="799.07" y="128.81" width="10.69" height="10.7"/><rect class="cls-1" x="799.07" y="0.5" width="10.69" height="10.69"/><rect class="cls-1" x="788.37" y="139.51" width="10.7" height="10.69"/><rect class="cls-4" x="788.37" y="128.81" width="10.7" height="10.7"/><rect class="cls-1" x="788.37" y="0.5" width="10.7" height="10.69"/><rect class="cls-1" x="777.68" y="139.51" width="10.69" height="10.69"/><rect class="cls-4" x="777.68" y="128.81" width="10.69" height="10.7"/><rect class="cls-1" x="777.68" y="0.5" width="10.69" height="10.69"/><rect class="cls-1" x="766.99" y="139.51" width="10.69" height="10.69"/><rect class="cls-4" x="766.99" y="128.81" width="10.69" height="10.7"/><rect class="cls-1" x="766.99" y="0.5" width="10.69" height="10.69"/><rect class="cls-1" x="756.3" y="139.51" width="10.69" height="10.69"/><rect class="cls-4" x="756.3" y="128.81" width="10.69" height="10.7"/><rect class="cls-1" x="756.3" y="0.5" width="10.69" height="10.69"/><rect class="cls-1" x="745.6" y="139.51" width="10.7" height="10.69"/><rect class="cls-4" x="745.6" y="128.81" width="10.7" height="10.7"/><rect class="cls-1" x="745.6" y="0.5" width="10.7" height="10.69"/><rect class="cls-1" x="734.91" y="139.51" width="10.69" height="10.69"/><rect class="cls-4" x="734.91" y="128.81" width="10.69" height="10.7"/><rect class="cls-1" x="734.91" y="0.5" width="10.69" height="10.69"/><rect class="cls-1" x="724.22" y="139.51" width="10.69" height="10.69"/><rect class="cls-4" x="724.22" y="128.81" width="10.69" height="10.7"/><rect class="cls-1" x="724.22" y="0.5" width="10.69" height="10.69"/><rect class="cls-1" x="713.52" y="139.51" width="10.7" height="10.69"/><rect class="cls-4" x="713.52" y="128.81" width="10.7" height="10.7"/><rect class="cls-1" x="713.52" y="0.5" width="10.7" height="10.69"/><rect class="cls-1" x="702.83" y="139.51" width="10.69" height="10.69"/><rect class="cls-4" x="702.83" y="128.81" width="10.69" height="10.7"/><rect class="cls-1" x="702.83" y="0.5" width="10.69" height="10.69"/><rect class="cls-1" x="692.14" y="139.51" width="10.69" height="10.69"/><rect class="cls-4" x="692.14" y="128.81" width="10.69" height="10.7"/><rect class="cls-1" x="692.14" y="0.5" width="10.69" height="10.69"/><rect class="cls-1" x="681.44" y="139.51" width="10.7" height="10.69"/><rect class="cls-4" x="681.44" y="128.81" width="10.7" height="10.7"/><rect class="cls-1" x="681.44" y="0.5" width="10.7" height="10.69"/><rect class="cls-1" x="670.75" y="139.51" width="10.69" height="10.69"/><rect class="cls-4" x="670.75" y="128.81" width="10.69" height="10.7"/><rect class="cls-1" x="670.75" y="0.5" width="10.69" height="10.69"/><rect class="cls-1" x="660.06" y="139.51" width="10.69" height="10.69"/><rect class="cls-4" x="660.06" y="128.81" width="10.69" height="10.7"/><rect class="cls-1" x="660.06" y="0.5" width="10.69" height="10.69"/><rect class="cls-1" x="649.36" y="139.51" width="10.7" height="10.69"/><rect class="cls-4" x="649.36" y="128.81" width="10.7" height="10.7"/><rect class="cls-1" x="649.36" y="0.5" width="10.7" height="10.69"/><rect class="cls-1" x="638.67" y="139.51" width="10.69" height="10.69"/><rect class="cls-4" x="638.67" y="128.81" width="10.69" height="10.7"/><rect class="cls-1" x="638.67" y="0.5" width="10.69" height="10.69"/><rect class="cls-1" x="627.98" y="139.51" width="10.69" height="10.69"/><rect class="cls-4" x="627.98" y="128.81" width="10.69" height="10.7"/><rect class="cls-1" x="627.98" y="0.5" width="10.69" height="10.69"/><rect class="cls-1" x="617.29" y="139.51" width="10.69" height="10.69"/><rect class="cls-4" x="617.29" y="128.81" width="10.69" height="10.7"/><rect class="cls-1" x="617.29" y="0.5" width="10.69" height="10.69"/><rect class="cls-1" x="606.59" y="139.51" width="10.7" height="10.69"/><rect class="cls-4" x="606.59" y="128.81" width="10.7" height="10.7"/><rect class="cls-1" x="606.59" y="0.5" width="10.7" height="10.69"/><rect class="cls-1" x="595.9" y="139.51" width="10.69" height="10.69"/><rect class="cls-4" x="595.9" y="128.81" width="10.69" height="10.7"/><rect class="cls-1" x="595.9" y="0.5" width="10.69" height="10.69"/><rect class="cls-1" x="585.21" y="139.51" width="10.69" height="10.69"/><rect class="cls-4" x="585.21" y="128.81" width="10.69" height="10.7"/><rect class="cls-1" x="585.21" y="0.5" width="10.69" height="10.69"/><rect class="cls-1" x="574.51" y="139.51" width="10.7" height="10.69"/><rect class="cls-4" x="574.51" y="128.81" width="10.7" height="10.7"/><rect class="cls-1" x="574.51" y="0.5" width="10.7" height="10.69"/><rect class="cls-1" x="563.82" y="139.51" width="10.69" height="10.69"/><rect class="cls-4" x="563.82" y="128.81" width="10.69" height="10.7"/><rect class="cls-3" x="563.82" y="118.12" width="10.69" height="10.69"/><rect class="cls-3" x="563.82" y="107.43" width="10.69" height="10.69"/><rect class="cls-3" x="563.82" y="96.73" width="10.69" height="10.7"/><rect class="cls-3" x="563.82" y="86.04" width="10.69" height="10.69"/><rect class="cls-3" x="563.82" y="75.35" width="10.69" height="10.69"/><rect class="cls-3" x="563.82" y="64.65" width="10.69" height="10.7"/><rect class="cls-3" x="563.82" y="53.96" width="10.69" height="10.69"/><rect class="cls-3" x="563.82" y="43.27" width="10.69" height="10.69"/><rect class="cls-3" x="563.82" y="32.57" width="10.69" height="10.7"/><rect class="cls-3" x="563.82" y="21.88" width="10.69" height="10.69"/><rect class="cls-3" x="563.82" y="11.19" width="10.69" height="10.69"/><rect class="cls-1" x="563.82" y="0.5" width="10.69" height="10.69"/><rect class="cls-1" x="221.64" y="139.51" width="10.69" height="10.69"/><rect class="cls-4" x="221.64" y="128.81" width="10.69" height="10.7"/><rect class="cls-3" x="221.64" y="118.12" width="10.69" height="10.69"/><rect class="cls-3" x="221.64" y="107.43" width="10.69" height="10.69"/><rect class="cls-3" x="221.64" y="96.73" width="10.69" height="10.7"/><rect class="cls-3" x="221.64" y="86.04" width="10.69" height="10.69"/><rect class="cls-3" x="221.64" y="75.35" width="10.69" height="10.69"/><rect class="cls-3" x="221.64" y="64.65" width="10.69" height="10.7"/><rect class="cls-3" x="221.64" y="53.96" width="10.69" height="10.69"/><rect class="cls-3" x="221.64" y="43.27" width="10.69" height="10.69"/><rect class="cls-3" x="221.64" y="32.57" width="10.69" height="10.7"/><rect class="cls-3" x="221.64" y="21.88" width="10.69" height="10.69"/><rect class="cls-3" x="221.64" y="11.19" width="10.69" height="10.69"/><rect class="cls-1" x="221.64" y="0.5" width="10.69" height="10.69"/><rect class="cls-1" x="210.95" y="139.51" width="10.69" height="10.69"/><rect class="cls-4" x="210.95" y="128.81" width="10.69" height="10.7"/><polygon class="cls-3" points="221.64 118.12 221.64 128.81 210.95 128.81 200.26 128.81 189.56 128.81 178.87 128.81 168.18 128.81 157.48 128.81 157.48 118.12 146.79 118.12 136.1 118.12 136.1 107.43 125.4 107.43 114.71 107.43 104.02 107.43 104.02 96.73 104.02 86.04 104.02 75.35 104.02 64.65 104.02 53.96 114.71 53.96 114.71 43.27 114.71 32.57 125.4 32.57 125.4 21.88 125.4 11.19 136.1 11.19 146.79 11.19 157.48 11.19 168.18 11.19 178.87 11.19 189.56 11.19 200.26 11.19 210.95 11.19 221.64 11.19 221.64 21.88 221.64 32.57 221.64 43.27 221.64 53.96 221.64 64.65 221.64 75.35 221.64 86.04 221.64 96.73 221.64 107.43 221.64 118.12"/><rect class="cls-1" x="210.95" y="0.5" width="10.69" height="10.69"/><rect class="cls-1" x="200.26" y="139.51" width="10.69" height="10.69"/><rect class="cls-4" x="200.26" y="128.81" width="10.69" height="10.7"/><rect class="cls-1" x="200.26" y="0.5" width="10.69" height="10.69"/><rect class="cls-1" x="189.56" y="139.51" width="10.7" height="10.69"/><rect class="cls-4" x="189.56" y="128.81" width="10.7" height="10.7"/><rect class="cls-1" x="189.56" y="0.5" width="10.7" height="10.69"/><rect class="cls-1" x="178.87" y="139.51" width="10.69" height="10.69"/><rect class="cls-4" x="178.87" y="128.81" width="10.69" height="10.7"/><rect class="cls-1" x="178.87" y="0.5" width="10.69" height="10.69"/><rect class="cls-1" x="168.18" y="139.51" width="10.69" height="10.69"/><rect class="cls-4" x="168.18" y="128.81" width="10.69" height="10.7"/><rect class="cls-1" x="168.18" y="0.5" width="10.69" height="10.69"/><rect class="cls-1" x="157.48" y="139.51" width="10.7" height="10.69"/><rect class="cls-4" x="157.48" y="128.81" width="10.7" height="10.7"/><rect class="cls-1" x="157.48" y="0.5" width="10.7" height="10.69"/><rect class="cls-1" x="146.79" y="139.51" width="10.69" height="10.69"/><rect class="cls-4" x="146.79" y="128.81" width="10.69" height="10.7"/><rect class="cls-4" x="146.79" y="118.12" width="10.69" height="10.69"/><rect class="cls-1" x="146.79" y="0.5" width="10.69" height="10.69"/><rect class="cls-1" x="136.1" y="139.51" width="10.69" height="10.69"/><rect class="cls-2" x="136.1" y="128.81" width="10.69" height="10.7"/><rect class="cls-4" x="136.1" y="118.12" width="10.69" height="10.69"/><rect class="cls-1" x="136.1" y="0.5" width="10.69" height="10.69"/><rect class="cls-1" x="125.4" y="139.51" width="10.7" height="10.69"/><rect class="cls-2" x="125.4" y="128.81" width="10.7" height="10.7"/><rect class="cls-4" x="125.4" y="118.12" width="10.7" height="10.69"/><rect class="cls-4" x="125.4" y="107.43" width="10.7" height="10.69"/><rect class="cls-1" x="125.4" y="0.5" width="10.7" height="10.69"/><rect class="cls-1" x="114.71" y="139.51" width="10.69" height="10.69"/><rect class="cls-2" x="114.71" y="128.81" width="10.69" height="10.7"/><rect class="cls-2" x="114.71" y="118.12" width="10.69" height="10.69"/><rect class="cls-2" x="114.71" y="107.43" width="10.69" height="10.69"/><rect class="cls-1" x="114.71" y="21.88" width="10.69" height="10.69"/><rect class="cls-1" x="114.71" y="11.19" width="10.69" height="10.69"/><rect class="cls-1" x="104.02" y="128.81" width="10.69" height="10.7"/><rect class="cls-1" x="104.02" y="118.12" width="10.69" height="10.69"/><rect class="cls-2" x="104.02" y="107.43" width="10.69" height="10.69"/><rect class="cls-1" x="104.02" y="43.27" width="10.69" height="10.69"/><rect class="cls-1" x="104.02" y="32.57" width="10.69" height="10.7"/><rect class="cls-1" x="93.32" y="107.43" width="10.7" height="10.69"/><rect class="cls-1" x="93.32" y="96.73" width="10.7" height="10.7"/><rect class="cls-1" x="93.32" y="86.04" width="10.7" height="10.69"/><rect class="cls-1" x="93.32" y="75.35" width="10.7" height="10.69"/><rect class="cls-1" x="93.32" y="64.65" width="10.7" height="10.7"/><rect class="cls-1" x="93.32" y="53.96" width="10.7" height="10.69"/><path d="M211.14,29.33h12.79v6.4H211.14v19.2h25.58v6.4H198.35V16.53h38.37v6.4H211.14Z"/><path d="M256.74,42.13h19.18v6.4h6.4v6.4h-6.4v6.4H244v-6.4h25.58v-6.4H250.34v-6.4H244v-6.4h6.39v-6.4h32v6.4H256.74Z"/><path d="M315.13,54.93v6.4H302.34v-6.4H296V35.73h-6.4v-6.4H296V16.53h12.79v12.8h6.39v6.4h-6.39v19.2Z"/><path d="M360.73,35.73v19.2h-6.4v6.4H328.75v-6.4h-6.39V35.73h6.39v-6.4h25.58v6.4Zm-12.79,0H335.15v19.2h12.79Z"/><path d="M432.74,35.73v12.8H407.16v6.4h25.58v6.4h-32v-6.4h-6.4V35.73h6.4v-6.4h25.58v6.4Zm-12.79,0H407.16v6.4H420Z"/><path d="M452.77,42.13H472v6.4h6.39v6.4H472v6.4H440v-6.4h25.58v-6.4H446.37v-6.4H440v-6.4h6.4v-6.4h32v6.4H452.77Z"/><path d="M550.36,61.33h-32v-6.4H512V29.33h12.79v25.6h12.79V29.33h12.79Z"/><path d="M596,35.73v25.6H583.17V35.73H570.38v25.6H557.59v-32h32v6.4Z"/><path d="M668,35.73v12.8h-6.39v6.4H642.39v12.8H629.6V29.33h32v6.4Zm-12.79,0h-6.39v6.4h-6.4v6.4h12.79Z"/><path d="M713.58,35.73v19.2h-6.4v6.4H681.6v-6.4h-6.39V35.73h6.39v-6.4h25.58v6.4Zm-12.79,0H688v19.2h12.79Z"/><path d="M746.39,35.73H733.6v19.2h12.79v-6.4h12.79v6.4h-6.4v6.4H727.2v-6.4h-6.39V35.73h6.39v-6.4h25.58v6.4h6.4v6.4H746.39Z"/><path d="M804.78,35.73v19.2h-6.4v6.4H772.8v-6.4h-6.39V35.73h6.39v-6.4h25.58v6.4Zm-12.79,0H779.2v19.2H792Z"/><path d="M315.54,112.53h-6.39v6.4h-6.4v6.4H290v-6.4h-6.39v-6.4h-6.4V93.33H290v19.2h12.79V93.33h12.79Z"/><path d="M361.14,99.73v12.8H335.56v6.4h25.58v6.4h-32v-6.4h-6.4V99.73h6.4v-6.4h25.58v6.4Zm-12.79,0H335.56v6.4h12.79Z"/><path d="M406.75,99.73v6.4H394v-6.4h-6.4v6.4h-6.39v19.2H368.38v-32h32v6.4Z"/><path d="M452.35,125.33H446v6.4H414v-6.4h25.58v-6.4H420.37v-6.4H414V99.73h6.39v-6.4h32Zm-12.79-25.6H426.77v12.8h12.79Z"/><path d="M498,99.73v19.2h-6.4v6.4H466v-6.4h-6.39V99.73H466v-6.4h25.58v6.4Zm-12.79,0H472.37v19.2h12.79Z"/><path d="M543.55,99.73v25.6H530.76V99.73H518v25.6H505.18v-32h32v6.4Z"/><path d="M570,112.53v6.4h19.19v6.4H550.78v-6.4h6.39v-6.4h6.4v-6.4H570v-6.4H550.78v-6.4h38.37v6.4h-6.4v6.4h-6.39v6.4Z"/><path d="M634.75,99.73v19.2h-6.4v6.4H602.78v-6.4h-6.4V99.73h6.4v-6.4h25.57v6.4Zm-12.79,0H609.17v19.2H622Z"/><path d="M654.77,106.13H674v6.4h6.39v6.4H674v6.4H642v-6.4h25.58v-6.4H648.38v-6.4H642v-6.4h6.4v-6.4h32v6.4H654.77Z"/><path d="M726,99.73v19.2h-6.39v6.4H694v-6.4h-6.4V99.73H694v-6.4h25.58v6.4Zm-12.79,0H700.37v19.2h12.79Z"/></svg>