<svg id="balloon-md" xmlns="http://www.w3.org/2000/svg" viewBox="0 0 1010 857.64"><defs><style>.cls-1{fill:#2c2c2c;}.cls-2{fill:#a2a2a2;}.cls-3{fill:#f2f2f2;}.cls-4{fill:#e2e2e2;}</style></defs><rect class="cls-1" x="638.68" y="107.43" width="10.69" height="10.69"/><rect class="cls-1" x="638.68" y="96.73" width="10.69" height="10.7"/><rect class="cls-1" x="638.68" y="86.04" width="10.69" height="10.69"/><rect class="cls-1" x="638.68" y="75.35" width="10.69" height="10.69"/><rect class="cls-1" x="638.68" y="64.65" width="10.69" height="10.7"/><rect class="cls-1" x="638.68" y="53.96" width="10.69" height="10.69"/><rect class="cls-1" x="627.99" y="128.81" width="10.69" height="10.7"/><rect class="cls-1" x="627.99" y="118.12" width="10.69" height="10.69"/><rect class="cls-2" x="627.99" y="107.43" width="10.69" height="10.69"/><polygon class="cls-3" points="638.68 96.73 638.68 107.44 627.99 107.44 617.3 107.44 606.6 107.44 606.6 118.13 595.91 118.13 585.22 118.13 585.22 128.81 574.52 128.81 574.52 118.13 574.52 107.44 574.52 96.73 574.52 86.05 574.52 75.36 574.52 64.66 574.52 53.97 574.52 43.27 574.52 32.58 574.52 21.89 574.52 11.2 585.22 11.2 595.91 11.2 606.6 11.2 617.3 11.2 617.3 21.89 617.3 32.58 627.99 32.58 627.99 43.27 627.99 53.97 638.68 53.97 638.68 64.66 638.68 75.36 638.68 86.05 638.68 96.73"/><rect class="cls-1" x="627.99" y="43.27" width="10.69" height="10.69"/><rect class="cls-1" x="627.99" y="32.57" width="10.69" height="10.7"/><rect class="cls-1" x="617.3" y="139.51" width="10.69" height="10.69"/><rect class="cls-2" x="617.3" y="128.81" width="10.69" height="10.7"/><rect class="cls-2" x="617.3" y="118.12" width="10.69" height="10.69"/><rect class="cls-2" x="617.3" y="107.43" width="10.69" height="10.69"/><rect class="cls-1" x="617.3" y="21.88" width="10.69" height="10.69"/><rect class="cls-1" x="617.3" y="11.19" width="10.69" height="10.69"/><rect class="cls-1" x="606.6" y="139.51" width="10.7" height="10.69"/><rect class="cls-2" x="606.6" y="128.81" width="10.7" height="10.7"/><rect class="cls-4" x="606.6" y="118.12" width="10.7" height="10.69"/><rect class="cls-4" x="606.6" y="107.43" width="10.7" height="10.69"/><rect class="cls-1" x="606.6" y="0.5" width="10.7" height="10.69"/><rect class="cls-1" x="595.91" y="139.51" width="10.69" height="10.69"/><rect class="cls-2" x="595.91" y="128.81" width="10.69" height="10.7"/><rect class="cls-4" x="595.91" y="118.12" width="10.69" height="10.69"/><rect class="cls-1" x="595.91" y="0.5" width="10.69" height="10.69"/><rect class="cls-1" x="585.22" y="139.51" width="10.69" height="10.69"/><rect class="cls-4" x="585.22" y="128.81" width="10.69" height="10.7"/><rect class="cls-4" x="585.22" y="118.12" width="10.69" height="10.69"/><rect class="cls-1" x="585.22" y="0.5" width="10.69" height="10.69"/><rect class="cls-1" x="574.52" y="139.51" width="10.7" height="10.69"/><rect class="cls-4" x="574.52" y="128.81" width="10.7" height="10.7"/><rect class="cls-1" x="574.52" y="0.5" width="10.7" height="10.69"/><rect class="cls-1" x="563.83" y="139.51" width="10.69" height="10.69"/><rect class="cls-4" x="563.83" y="128.81" width="10.69" height="10.7"/><rect class="cls-3" x="563.83" y="118.12" width="10.69" height="10.69"/><rect class="cls-3" x="563.83" y="107.43" width="10.69" height="10.69"/><rect class="cls-3" x="563.83" y="96.73" width="10.69" height="10.7"/><rect class="cls-3" x="563.83" y="86.04" width="10.69" height="10.69"/><rect class="cls-3" x="563.83" y="75.35" width="10.69" height="10.69"/><rect class="cls-3" x="563.83" y="64.65" width="10.69" height="10.7"/><rect class="cls-3" x="563.83" y="53.96" width="10.69" height="10.69"/><rect class="cls-3" x="563.83" y="43.27" width="10.69" height="10.69"/><rect class="cls-3" x="563.83" y="32.57" width="10.69" height="10.7"/><rect class="cls-3" x="563.83" y="21.88" width="10.69" height="10.69"/><rect class="cls-3" x="563.83" y="11.19" width="10.69" height="10.69"/><rect class="cls-1" x="563.83" y="0.5" width="10.69" height="10.69"/><rect class="cls-4" x="253.73" y="118.12" width="10.69" height="10.69"/><rect class="cls-2" x="243.04" y="128.81" width="10.69" height="10.7"/><rect class="cls-4" x="243.04" y="118.12" width="10.69" height="10.69"/><rect class="cls-2" x="232.34" y="128.81" width="10.7" height="10.7"/><rect class="cls-4" x="232.34" y="118.12" width="10.7" height="10.69"/><rect class="cls-4" x="232.34" y="107.43" width="10.7" height="10.69"/><rect class="cls-1" x="221.65" y="139.51" width="10.69" height="10.69"/><rect class="cls-2" x="221.65" y="128.81" width="10.69" height="10.7"/><rect class="cls-2" x="221.65" y="118.12" width="10.69" height="10.69"/><rect class="cls-2" x="221.65" y="107.43" width="10.69" height="10.69"/><rect class="cls-3" x="221.65" y="96.73" width="10.69" height="10.7"/><rect class="cls-3" x="221.65" y="86.04" width="10.69" height="10.69"/><rect class="cls-3" x="221.65" y="75.35" width="10.69" height="10.69"/><rect class="cls-3" x="221.65" y="64.65" width="10.69" height="10.7"/><rect class="cls-3" x="221.65" y="53.96" width="10.69" height="10.69"/><rect class="cls-3" x="221.65" y="43.27" width="10.69" height="10.69"/><rect class="cls-3" x="221.65" y="32.57" width="10.69" height="10.7"/><rect class="cls-1" x="221.65" y="21.88" width="10.69" height="10.69"/><rect class="cls-1" x="221.65" y="11.19" width="10.69" height="10.69"/><rect class="cls-1" x="210.96" y="128.81" width="10.69" height="10.7"/><rect class="cls-1" x="210.96" y="118.12" width="10.69" height="10.69"/><rect class="cls-2" x="210.96" y="107.43" width="10.69" height="10.69"/><rect class="cls-3" x="210.96" y="96.73" width="10.69" height="10.7"/><rect class="cls-3" x="210.96" y="86.04" width="10.69" height="10.69"/><rect class="cls-3" x="210.96" y="75.35" width="10.69" height="10.69"/><rect class="cls-3" x="210.96" y="64.65" width="10.69" height="10.7"/><rect class="cls-3" x="210.96" y="53.96" width="10.69" height="10.69"/><rect class="cls-1" x="210.96" y="43.27" width="10.69" height="10.69"/><rect class="cls-1" x="210.96" y="32.57" width="10.69" height="10.7"/><rect class="cls-1" x="200.27" y="107.43" width="10.69" height="10.69"/><rect class="cls-1" x="200.27" y="96.73" width="10.69" height="10.7"/><rect class="cls-1" x="200.27" y="86.04" width="10.69" height="10.69"/><rect class="cls-1" x="200.27" y="75.35" width="10.69" height="10.69"/><rect class="cls-1" x="200.27" y="64.65" width="10.69" height="10.7"/><rect class="cls-1" x="200.27" y="53.96" width="10.69" height="10.69"/><path d="M281.15,23.51H268.36v-6.4h12.79Zm0,6.4v32H268.36v-32Z"/><path d="M326.74,36.31V61.9H314V36.31H301.17V61.9H288.38v-32h32v6.4Z"/><path d="M353.16,29.91H366v6.4H353.16V61.9H340.37V36.31H334v-6.4h6.39v-6.4h6.4v-6.4H366v6.4H353.16Z"/><path d="M411.55,36.31V55.5h-6.39v6.4H379.58V55.5h-6.4V36.31h6.4v-6.4h25.58v6.4Zm-12.79,0H386V55.5h12.79Z"/><path d="M438,55.5v6.4H425.18V55.5h-6.4V17.11h12.79V55.5Z"/><path d="M483.57,36.31v12.8H458V55.5h25.58v6.4h-32V55.5H445.2V36.31h6.39v-6.4h25.58v6.4Zm-12.79,0H458v6.4h12.79Z"/><path d="M503.59,42.71h19.18v6.4h6.4V55.5h-6.4v6.4h-32V55.5h25.58V49.11H497.19v-6.4H490.8v-6.4h6.39v-6.4h32v6.4H503.59Z"/><path d="M549.19,42.71h19.18v6.4h6.4V55.5h-6.4v6.4h-32V55.5H562V49.11H542.79v-6.4H536.4v-6.4h6.39v-6.4h32v6.4H549.19Z"/><path d="M372.35,93.91v32H366v6.4H340.37v-6.4H334v-6.4h12.79v6.4h12.79v-32Zm0-6.4H359.56v-6.4h12.79Z"/><path d="M418,100.31v12.8H392.37v6.39H418v6.4H386v-6.4h-6.39V100.31H386v-6.4h25.58v6.4Zm-12.79,0H392.37v6.4h12.79Z"/><path d="M463.55,93.91v32h-6.4v6.4H431.57v-6.4h-6.39v-6.4H438v6.4h12.79v-32Zm0-6.4H450.76v-6.4h12.79Z"/><path d="M509.15,100.31v12.8H483.57v6.39h25.58v6.4h-32v-6.4h-6.39V100.31h6.39v-6.4h25.58v6.4Zm-12.79,0H483.57v6.4h12.79Z"/></svg>