<svg id="balloon-sm" xmlns="http://www.w3.org/2000/svg" viewBox="0 0 1010 857.64"><defs><style>.cls-1{fill:#e2e2e2;}.cls-2{fill:#2c2c2c;}.cls-3{fill:#a2a2a2;}.cls-4{fill:#f2f2f2;}</style></defs><path d="M335.64,27.2H322.85v32h12.79V52.8h12.79v6.4H342v6.39H316.46V59.2h-6.4v-32h6.4V20.8H342v6.4h6.39v6.4H335.64Z"/><path d="M374.85,59.2v6.39H362.06V59.2h-6.4V20.8h12.79V59.2Z"/><path d="M394.87,27.2H382.08V20.8h12.79Zm0,6.4v32H382.08v-32Z"/><path d="M427.68,40H414.89V59.2h12.79V52.8h12.79v6.4h-6.4v6.39H408.49V59.2H402.1V40h6.39V33.6h25.58V40h6.4v6.4H427.68Z"/><path d="M466.88,46.4v6.4h6.4v6.4h6.39v6.39H466.88V59.2h-6.39v6.39H447.7V20.8h12.79V40h6.39V33.6h12.79V40h-6.39v6.4Z"/><path d="M315.62,129.59H302.83V104H290v25.59H277.25V84.8H290V97.6h12.79V84.8h12.79Z"/><path d="M361.22,104v12.8H335.65v6.4h25.57v6.39h-32V123.2h-6.39V104h6.39V97.6h25.58V104Zm-12.78,0H335.65v6.4h12.79Z"/><path d="M406.83,104v6.4H394V104h-6.4v6.4h-6.39v19.19H368.46v-32h32V104Z"/><path d="M452.43,104v12.8H426.85v6.4h25.58v6.39h-32V123.2h-6.39V104h6.39V97.6H446V104Zm-12.79,0H426.85v6.4h12.79Z"/><path d="M472.45,116.8H459.66v-32h12.79Zm0,6.4v6.39H459.66V123.2Z"/><path d="M492.47,116.8H479.68v-32h12.79Zm0,6.4v6.39H479.68V123.2Z"/><path d="M512.48,116.8H499.69v-32h12.79Zm0,6.4v6.39H499.69V123.2Z"/><rect class="cls-1" x="553.12" y="118.12" width="10.69" height="10.69"/><rect class="cls-1" x="553.12" y="107.43" width="10.69" height="10.69"/><rect class="cls-1" x="542.42" y="118.12" width="10.7" height="10.69"/><rect class="cls-1" x="531.73" y="118.12" width="10.69" height="10.69"/><rect class="cls-2" x="585.2" y="107.43" width="10.69" height="10.69"/><rect class="cls-2" x="585.2" y="96.73" width="10.69" height="10.7"/><rect class="cls-2" x="585.2" y="86.04" width="10.69" height="10.69"/><rect class="cls-2" x="585.2" y="75.35" width="10.69" height="10.69"/><rect class="cls-2" x="585.2" y="64.65" width="10.69" height="10.7"/><rect class="cls-2" x="585.2" y="53.96" width="10.69" height="10.69"/><rect class="cls-2" x="574.5" y="128.81" width="10.7" height="10.7"/><rect class="cls-2" x="574.5" y="118.12" width="10.7" height="10.69"/><rect class="cls-3" x="574.5" y="107.43" width="10.7" height="10.69"/><rect class="cls-4" x="574.5" y="96.73" width="10.7" height="10.7"/><rect class="cls-4" x="574.5" y="86.04" width="10.7" height="10.69"/><rect class="cls-4" x="574.5" y="75.35" width="10.7" height="10.69"/><rect class="cls-4" x="574.5" y="64.65" width="10.7" height="10.7"/><rect class="cls-4" x="574.5" y="53.96" width="10.7" height="10.69"/><rect class="cls-2" x="574.5" y="43.27" width="10.7" height="10.69"/><rect class="cls-2" x="574.5" y="32.57" width="10.7" height="10.7"/><rect class="cls-2" x="563.81" y="139.51" width="10.69" height="10.69"/><rect class="cls-3" x="563.81" y="128.81" width="10.69" height="10.7"/><rect class="cls-3" x="563.81" y="118.12" width="10.69" height="10.69"/><rect class="cls-3" x="563.81" y="107.43" width="10.69" height="10.69"/><rect class="cls-4" x="563.81" y="96.73" width="10.69" height="10.7"/><rect class="cls-4" x="563.81" y="86.04" width="10.69" height="10.69"/><rect class="cls-4" x="563.81" y="75.35" width="10.69" height="10.69"/><rect class="cls-4" x="563.81" y="64.65" width="10.69" height="10.7"/><rect class="cls-4" x="563.81" y="53.96" width="10.69" height="10.69"/><rect class="cls-4" x="563.81" y="43.27" width="10.69" height="10.69"/><rect class="cls-4" x="563.81" y="32.57" width="10.69" height="10.7"/><rect class="cls-2" x="563.81" y="21.88" width="10.69" height="10.69"/><rect class="cls-2" x="563.81" y="11.19" width="10.69" height="10.69"/><rect class="cls-3" x="553.12" y="128.81" width="10.69" height="10.7"/><rect class="cls-3" x="542.42" y="128.81" width="10.7" height="10.7"/><rect class="cls-1" x="253.71" y="118.12" width="10.69" height="10.69"/><rect class="cls-3" x="243.02" y="128.81" width="10.69" height="10.7"/><rect class="cls-1" x="243.02" y="118.12" width="10.69" height="10.69"/><rect class="cls-3" x="232.32" y="128.81" width="10.7" height="10.7"/><rect class="cls-1" x="232.32" y="118.12" width="10.7" height="10.69"/><rect class="cls-1" x="232.32" y="107.43" width="10.7" height="10.69"/><rect class="cls-2" x="221.63" y="139.51" width="10.69" height="10.69"/><rect class="cls-3" x="221.63" y="128.81" width="10.69" height="10.7"/><rect class="cls-3" x="221.63" y="118.12" width="10.69" height="10.69"/><rect class="cls-3" x="221.63" y="107.43" width="10.69" height="10.69"/><rect class="cls-4" x="221.63" y="96.73" width="10.69" height="10.7"/><rect class="cls-4" x="221.63" y="86.04" width="10.69" height="10.69"/><rect class="cls-4" x="221.63" y="75.35" width="10.69" height="10.69"/><rect class="cls-4" x="221.63" y="64.65" width="10.69" height="10.7"/><rect class="cls-4" x="221.63" y="53.96" width="10.69" height="10.69"/><rect class="cls-4" x="221.63" y="43.27" width="10.69" height="10.69"/><rect class="cls-4" x="221.63" y="32.57" width="10.69" height="10.7"/><rect class="cls-2" x="221.63" y="21.88" width="10.69" height="10.69"/><rect class="cls-2" x="221.63" y="11.19" width="10.69" height="10.69"/><rect class="cls-2" x="210.94" y="128.81" width="10.69" height="10.7"/><rect class="cls-2" x="210.94" y="118.12" width="10.69" height="10.69"/><rect class="cls-3" x="210.94" y="107.43" width="10.69" height="10.69"/><rect class="cls-4" x="210.94" y="96.73" width="10.69" height="10.7"/><rect class="cls-4" x="210.94" y="86.04" width="10.69" height="10.69"/><rect class="cls-4" x="210.94" y="75.35" width="10.69" height="10.69"/><rect class="cls-4" x="210.94" y="64.65" width="10.69" height="10.7"/><rect class="cls-4" x="210.94" y="53.96" width="10.69" height="10.69"/><rect class="cls-2" x="210.94" y="43.27" width="10.69" height="10.69"/><rect class="cls-2" x="210.94" y="32.57" width="10.69" height="10.7"/><rect class="cls-2" x="200.25" y="107.43" width="10.69" height="10.69"/><rect class="cls-2" x="200.25" y="96.73" width="10.69" height="10.7"/><rect class="cls-2" x="200.25" y="86.04" width="10.69" height="10.69"/><rect class="cls-2" x="200.25" y="75.35" width="10.69" height="10.69"/><rect class="cls-2" x="200.25" y="64.65" width="10.69" height="10.7"/><rect class="cls-2" x="200.25" y="53.96" width="10.69" height="10.69"/></svg>