<svg id="balloon-lg" xmlns="http://www.w3.org/2000/svg" viewBox="0 0 1010 857.64"><defs><style>.cls-1{fill:#2c2c2c;}.cls-2{fill:#a2a2a2;}.cls-3{fill:#f2f2f2;}.cls-4{fill:#e2e2e2;}</style></defs><rect class="cls-1" x="809.75" y="107.43" width="10.69" height="10.69"/><rect class="cls-1" x="809.75" y="96.73" width="10.69" height="10.7"/><rect class="cls-1" x="809.75" y="86.04" width="10.69" height="10.69"/><rect class="cls-1" x="809.75" y="75.35" width="10.69" height="10.69"/><rect class="cls-1" x="809.75" y="64.65" width="10.69" height="10.7"/><rect class="cls-1" x="809.75" y="53.96" width="10.69" height="10.69"/><rect class="cls-1" x="799.06" y="128.81" width="10.69" height="10.7"/><rect class="cls-1" x="799.06" y="118.12" width="10.69" height="10.69"/><rect class="cls-2" x="799.06" y="107.43" width="10.69" height="10.69"/><polygon class="cls-3" points="809.75 96.73 809.75 107.43 799.06 107.43 788.36 107.43 777.67 107.43 777.67 118.12 766.98 118.12 756.29 118.12 756.29 128.81 745.59 128.81 734.9 128.81 724.21 128.81 713.51 128.81 702.82 128.81 692.13 128.81 681.43 128.81 670.74 128.81 660.05 128.81 649.35 128.81 638.66 128.81 627.97 128.81 617.28 128.81 606.58 128.81 595.89 128.81 585.2 128.81 574.5 128.81 574.5 118.12 574.5 107.43 574.5 96.73 574.5 86.04 574.5 75.35 574.5 64.65 574.5 53.96 574.5 43.27 574.5 32.57 574.5 21.88 574.5 11.19 585.2 11.19 595.89 11.19 606.58 11.19 617.28 11.19 627.97 11.19 638.66 11.19 649.35 11.19 660.05 11.19 670.74 11.19 681.43 11.19 692.13 11.19 702.82 11.19 713.51 11.19 724.21 11.19 734.9 11.19 745.59 11.19 756.29 11.19 766.98 11.19 777.67 11.19 788.36 11.19 788.36 21.88 788.36 32.57 799.06 32.57 799.06 43.27 799.06 53.96 809.75 53.96 809.75 64.65 809.75 75.35 809.75 86.04 809.75 96.73"/><rect class="cls-1" x="799.06" y="43.27" width="10.69" height="10.69"/><rect class="cls-1" x="799.06" y="32.57" width="10.69" height="10.7"/><rect class="cls-1" x="788.36" y="139.51" width="10.7" height="10.69"/><rect class="cls-2" x="788.36" y="128.81" width="10.7" height="10.7"/><rect class="cls-2" x="788.36" y="118.12" width="10.7" height="10.69"/><rect class="cls-2" x="788.36" y="107.43" width="10.7" height="10.69"/><rect class="cls-1" x="788.36" y="21.88" width="10.7" height="10.69"/><rect class="cls-1" x="788.36" y="11.19" width="10.7" height="10.69"/><rect class="cls-1" x="777.67" y="139.51" width="10.69" height="10.69"/><rect class="cls-2" x="777.67" y="128.81" width="10.69" height="10.7"/><rect class="cls-4" x="777.67" y="118.12" width="10.69" height="10.69"/><rect class="cls-4" x="777.67" y="107.43" width="10.69" height="10.69"/><rect class="cls-1" x="777.67" y="0.5" width="10.69" height="10.69"/><rect class="cls-1" x="766.98" y="139.51" width="10.69" height="10.69"/><rect class="cls-2" x="766.98" y="128.81" width="10.69" height="10.7"/><rect class="cls-4" x="766.98" y="118.12" width="10.69" height="10.69"/><rect class="cls-1" x="766.98" y="0.5" width="10.69" height="10.69"/><rect class="cls-1" x="756.29" y="139.51" width="10.69" height="10.69"/><rect class="cls-4" x="756.29" y="128.81" width="10.69" height="10.7"/><rect class="cls-4" x="756.29" y="118.12" width="10.69" height="10.69"/><rect class="cls-1" x="756.29" y="0.5" width="10.69" height="10.69"/><rect class="cls-1" x="745.59" y="139.51" width="10.7" height="10.69"/><rect class="cls-4" x="745.59" y="128.81" width="10.7" height="10.7"/><rect class="cls-1" x="745.59" y="0.5" width="10.7" height="10.69"/><rect class="cls-1" x="734.9" y="139.51" width="10.69" height="10.69"/><rect class="cls-4" x="734.9" y="128.81" width="10.69" height="10.7"/><rect class="cls-1" x="734.9" y="0.5" width="10.69" height="10.69"/><rect class="cls-1" x="724.21" y="139.51" width="10.69" height="10.69"/><rect class="cls-4" x="724.21" y="128.81" width="10.69" height="10.7"/><rect class="cls-1" x="724.21" y="0.5" width="10.69" height="10.69"/><rect class="cls-1" x="713.51" y="139.51" width="10.7" height="10.69"/><rect class="cls-4" x="713.51" y="128.81" width="10.7" height="10.7"/><rect class="cls-1" x="713.51" y="0.5" width="10.7" height="10.69"/><rect class="cls-1" x="702.82" y="139.51" width="10.69" height="10.69"/><rect class="cls-4" x="702.82" y="128.81" width="10.69" height="10.7"/><rect class="cls-1" x="702.82" y="0.5" width="10.69" height="10.69"/><rect class="cls-1" x="692.13" y="139.51" width="10.69" height="10.69"/><rect class="cls-4" x="692.13" y="128.81" width="10.69" height="10.7"/><rect class="cls-1" x="692.13" y="0.5" width="10.69" height="10.69"/><rect class="cls-1" x="681.43" y="139.51" width="10.7" height="10.69"/><rect class="cls-4" x="681.43" y="128.81" width="10.7" height="10.7"/><rect class="cls-1" x="681.43" y="0.5" width="10.7" height="10.69"/><rect class="cls-1" x="670.74" y="139.51" width="10.69" height="10.69"/><rect class="cls-4" x="670.74" y="128.81" width="10.69" height="10.7"/><rect class="cls-1" x="670.74" y="0.5" width="10.69" height="10.69"/><rect class="cls-1" x="660.05" y="139.51" width="10.69" height="10.69"/><rect class="cls-4" x="660.05" y="128.81" width="10.69" height="10.7"/><rect class="cls-1" x="660.05" y="0.5" width="10.69" height="10.69"/><rect class="cls-1" x="649.35" y="139.51" width="10.7" height="10.69"/><rect class="cls-4" x="649.35" y="128.81" width="10.7" height="10.7"/><rect class="cls-1" x="649.35" y="0.5" width="10.7" height="10.69"/><rect class="cls-1" x="638.66" y="139.51" width="10.69" height="10.69"/><rect class="cls-4" x="638.66" y="128.81" width="10.69" height="10.7"/><rect class="cls-1" x="638.66" y="0.5" width="10.69" height="10.69"/><rect class="cls-1" x="627.97" y="139.51" width="10.69" height="10.69"/><rect class="cls-4" x="627.97" y="128.81" width="10.69" height="10.7"/><rect class="cls-1" x="627.97" y="0.5" width="10.69" height="10.69"/><rect class="cls-1" x="617.28" y="139.51" width="10.69" height="10.69"/><rect class="cls-4" x="617.28" y="128.81" width="10.69" height="10.7"/><rect class="cls-1" x="617.28" y="0.5" width="10.69" height="10.69"/><rect class="cls-1" x="606.58" y="139.51" width="10.7" height="10.69"/><rect class="cls-4" x="606.58" y="128.81" width="10.7" height="10.7"/><rect class="cls-1" x="606.58" y="0.5" width="10.7" height="10.69"/><rect class="cls-1" x="595.89" y="139.51" width="10.69" height="10.69"/><rect class="cls-4" x="595.89" y="128.81" width="10.69" height="10.7"/><rect class="cls-1" x="595.89" y="0.5" width="10.69" height="10.69"/><rect class="cls-1" x="585.2" y="139.51" width="10.69" height="10.69"/><rect class="cls-4" x="585.2" y="128.81" width="10.69" height="10.7"/><rect class="cls-1" x="585.2" y="0.5" width="10.69" height="10.69"/><rect class="cls-1" x="574.5" y="139.51" width="10.7" height="10.69"/><rect class="cls-4" x="574.5" y="128.81" width="10.7" height="10.7"/><rect class="cls-1" x="574.5" y="0.5" width="10.7" height="10.69"/><rect class="cls-1" x="563.81" y="139.51" width="10.69" height="10.69"/><rect class="cls-4" x="563.81" y="128.81" width="10.69" height="10.7"/><rect class="cls-3" x="563.81" y="118.12" width="10.69" height="10.69"/><rect class="cls-3" x="563.81" y="107.43" width="10.69" height="10.69"/><rect class="cls-3" x="563.81" y="96.73" width="10.69" height="10.7"/><rect class="cls-3" x="563.81" y="86.04" width="10.69" height="10.69"/><rect class="cls-3" x="563.81" y="75.35" width="10.69" height="10.69"/><rect class="cls-3" x="563.81" y="64.65" width="10.69" height="10.7"/><rect class="cls-3" x="563.81" y="53.96" width="10.69" height="10.69"/><rect class="cls-3" x="563.81" y="43.27" width="10.69" height="10.69"/><rect class="cls-3" x="563.81" y="32.57" width="10.69" height="10.7"/><rect class="cls-3" x="563.81" y="21.88" width="10.69" height="10.69"/><rect class="cls-3" x="563.81" y="11.19" width="10.69" height="10.69"/><rect class="cls-1" x="563.81" y="0.5" width="10.69" height="10.69"/><rect class="cls-1" x="221.63" y="139.51" width="10.69" height="10.69"/><rect class="cls-2" x="221.63" y="128.81" width="10.69" height="10.7"/><rect class="cls-4" x="221.63" y="118.12" width="10.69" height="10.69"/><rect class="cls-3" x="221.63" y="107.43" width="10.69" height="10.69"/><rect class="cls-3" x="221.63" y="96.73" width="10.69" height="10.7"/><rect class="cls-3" x="221.63" y="86.04" width="10.69" height="10.69"/><rect class="cls-3" x="221.63" y="75.35" width="10.69" height="10.69"/><rect class="cls-3" x="221.63" y="64.65" width="10.69" height="10.7"/><rect class="cls-3" x="221.63" y="53.96" width="10.69" height="10.69"/><rect class="cls-3" x="221.63" y="43.27" width="10.69" height="10.69"/><rect class="cls-3" x="221.63" y="32.57" width="10.69" height="10.7"/><rect class="cls-3" x="221.63" y="21.88" width="10.69" height="10.69"/><rect class="cls-3" x="221.63" y="11.19" width="10.69" height="10.69"/><rect class="cls-1" x="221.63" y="0.5" width="10.69" height="10.69"/><rect class="cls-1" x="210.94" y="139.51" width="10.69" height="10.69"/><rect class="cls-2" x="210.94" y="128.81" width="10.69" height="10.7"/><rect class="cls-4" x="210.94" y="118.12" width="10.69" height="10.69"/><rect class="cls-4" x="210.94" y="107.43" width="10.69" height="10.69"/><polygon class="cls-3" points="221.63 96.73 221.63 107.43 210.94 107.43 200.25 107.43 189.55 107.43 189.55 96.73 189.55 86.04 189.55 75.35 189.55 64.65 189.55 53.96 200.25 53.96 200.25 43.27 200.25 32.57 210.94 32.57 210.94 21.88 210.94 11.19 221.63 11.19 221.63 21.88 221.63 32.57 221.63 43.27 221.63 53.96 221.63 64.65 221.63 75.35 221.63 86.04 221.63 96.73"/><rect class="cls-1" x="210.94" y="0.5" width="10.69" height="10.69"/><rect class="cls-1" x="200.25" y="139.51" width="10.69" height="10.69"/><rect class="cls-2" x="200.25" y="128.81" width="10.69" height="10.7"/><rect class="cls-2" x="200.25" y="118.12" width="10.69" height="10.69"/><rect class="cls-2" x="200.25" y="107.43" width="10.69" height="10.69"/><rect class="cls-1" x="200.25" y="21.88" width="10.69" height="10.69"/><rect class="cls-1" x="200.25" y="11.19" width="10.69" height="10.69"/><rect class="cls-1" x="189.55" y="128.81" width="10.7" height="10.7"/><rect class="cls-1" x="189.55" y="118.12" width="10.7" height="10.69"/><rect class="cls-2" x="189.55" y="107.43" width="10.7" height="10.69"/><rect class="cls-1" x="189.55" y="43.27" width="10.7" height="10.69"/><rect class="cls-1" x="189.55" y="32.57" width="10.7" height="10.7"/><rect class="cls-1" x="178.86" y="107.43" width="10.69" height="10.69"/><rect class="cls-1" x="178.86" y="96.73" width="10.69" height="10.7"/><rect class="cls-1" x="178.86" y="86.04" width="10.69" height="10.69"/><rect class="cls-1" x="178.86" y="75.35" width="10.69" height="10.69"/><rect class="cls-1" x="178.86" y="64.65" width="10.69" height="10.7"/><rect class="cls-1" x="178.86" y="53.96" width="10.69" height="10.69"/><path d="M269.2,39.08V64.67H256.41V51.88H243.62V64.67H230.83v-32h32v6.4Z"/><path d="M314.8,39.08V64.67H302V51.88H289.22V64.67H276.43v-32h32v6.4Z"/><path d="M360.4,39.08V64.67H347.61V51.88H334.82V64.67H322v-32h32v6.4Z"/><path d="M380.42,64.67H367.63V51.88h12.79Z"/><path d="M400.44,64.67H387.65V51.88h12.79Z"/><path d="M420.46,64.67H407.67V51.88h12.79Z"/><path d="M466.89,26.28H454.1v-6.4h12.79Zm0,6.4v32H454.1v-32Z"/><path d="M512.48,39.08V64.67H499.69V39.08H486.9V64.67H474.11v-32h32v6.4Z"/><path d="M545.29,58.28v6.39H532.5V58.28h-6.39V39.08h-6.4v-6.4h6.4V19.88H538.9v12.8h6.39v6.4H538.9v19.2Z"/><path d="M590.89,39.08v12.8H565.31v6.4h25.58v6.39h-32V58.28h-6.4V39.08h6.4v-6.4H584.5v6.4Zm-12.79,0H565.31v6.4H578.1Z"/><path d="M636.49,39.08v6.4H623.7v-6.4h-6.39v6.4h-6.39V64.67H598.13v-32h32v6.4Z"/><path d="M682.1,39.08v12.8H656.52v6.4H682.1v6.39h-32V58.28h-6.39V39.08h6.39v-6.4H675.7v6.4Zm-12.79,0H656.52v6.4h12.79Z"/><path d="M702.12,45.48H721.3v6.4h6.4v6.4h-6.4v6.39h-32V58.28h25.58v-6.4H695.72v-6.4h-6.39v-6.4h6.39v-6.4h32v6.4H702.12Z"/><path d="M773.3,45.48H734.93v-6.4H773.3Z"/><path d="M318.41,122.28v6.39H305.62v-6.39h-6.39v-19.2h-6.4v-6.4h6.4V83.88H312v12.8h6.39v6.4H312v19.2Z"/><path d="M338.43,90.28H325.64v-6.4h12.79Zm0,6.4v32H325.64v-32Z"/><path d="M384,103.08v25.59H371.24V103.08H358.45v25.59H345.66v-32h32v6.4Z"/><path d="M429.63,128.67h-6.4v6.4h-32v-6.4h25.58v-6.39H397.66v-6.4h-6.4v-12.8h6.4v-6.4h32Zm-12.79-25.59H404.05v12.8h12.79Z"/><path d="M449.65,135.07H436.86V115.88h12.79Z"/><path d="M521.66,103.08v6.4H508.87v-6.4h-6.39v6.4h-6.4v19.19H483.29v-32h32v6.4Z"/><path d="M541.68,90.28H528.89v-6.4h12.79Zm0,6.4v32H528.89v-32Z"/><path d="M587.28,128.67h-6.39v6.4h-32v-6.4h25.58v-6.39H555.31v-6.4h-6.4v-12.8h6.4v-6.4h32Zm-12.79-25.59H561.7v12.8h12.79Z"/><path d="M632.88,103.08v25.59H620.09V103.08H613.7v6.4h-6.4v19.19H594.51V83.88H607.3v12.8h19.19v6.4Z"/><path d="M665.69,122.28v6.39H652.9v-6.39h-6.39v-19.2h-6.4v-6.4h6.4V83.88H659.3v12.8h6.39v6.4H659.3v19.2Z"/><path d="M711.29,90.28v12.8H704.9v6.4h-6.4v6.4H685.71v-6.4h6.4v-6.4h6.39V90.28H685.71v6.4H672.92v-6.4h6.4v-6.4H704.9v6.4Zm-12.79,32v6.39H685.71v-6.39Z"/></svg>