<svg id="balloon-sm" xmlns="http://www.w3.org/2000/svg" viewBox="0 0 1010 857.64"><defs><style>.cls-1{fill:#e2e2e2;}.cls-2{fill:#2c2c2c;}.cls-3{fill:#a2a2a2;}.cls-4{fill:#f2f2f2;}</style></defs><rect class="cls-1" x="553.12" y="118.12" width="10.69" height="10.69"/><rect class="cls-1" x="553.12" y="107.43" width="10.69" height="10.69"/><rect class="cls-1" x="542.42" y="118.12" width="10.7" height="10.69"/><rect class="cls-1" x="531.73" y="118.12" width="10.69" height="10.69"/><rect class="cls-2" x="585.2" y="107.43" width="10.69" height="10.69"/><rect class="cls-2" x="585.2" y="96.73" width="10.69" height="10.7"/><rect class="cls-2" x="585.2" y="86.04" width="10.69" height="10.69"/><rect class="cls-2" x="585.2" y="75.35" width="10.69" height="10.69"/><rect class="cls-2" x="585.2" y="64.65" width="10.69" height="10.7"/><rect class="cls-2" x="585.2" y="53.96" width="10.69" height="10.69"/><rect class="cls-2" x="574.5" y="128.81" width="10.7" height="10.7"/><rect class="cls-2" x="574.5" y="118.12" width="10.7" height="10.69"/><rect class="cls-3" x="574.5" y="107.43" width="10.7" height="10.69"/><rect class="cls-4" x="574.5" y="96.73" width="10.7" height="10.7"/><rect class="cls-4" x="574.5" y="86.04" width="10.7" height="10.69"/><rect class="cls-4" x="574.5" y="75.35" width="10.7" height="10.69"/><rect class="cls-4" x="574.5" y="64.65" width="10.7" height="10.7"/><rect class="cls-4" x="574.5" y="53.96" width="10.7" height="10.69"/><rect class="cls-2" x="574.5" y="43.27" width="10.7" height="10.69"/><rect class="cls-2" x="574.5" y="32.57" width="10.7" height="10.7"/><rect class="cls-2" x="563.81" y="139.51" width="10.69" height="10.69"/><rect class="cls-3" x="563.81" y="128.81" width="10.69" height="10.7"/><rect class="cls-3" x="563.81" y="118.12" width="10.69" height="10.69"/><rect class="cls-3" x="563.81" y="107.43" width="10.69" height="10.69"/><rect class="cls-4" x="563.81" y="96.73" width="10.69" height="10.7"/><rect class="cls-4" x="563.81" y="86.04" width="10.69" height="10.69"/><rect class="cls-4" x="563.81" y="75.35" width="10.69" height="10.69"/><rect class="cls-4" x="563.81" y="64.65" width="10.69" height="10.7"/><rect class="cls-4" x="563.81" y="53.96" width="10.69" height="10.69"/><rect class="cls-4" x="563.81" y="43.27" width="10.69" height="10.69"/><rect class="cls-4" x="563.81" y="32.57" width="10.69" height="10.7"/><rect class="cls-2" x="563.81" y="21.88" width="10.69" height="10.69"/><rect class="cls-2" x="563.81" y="11.19" width="10.69" height="10.69"/><rect class="cls-3" x="553.12" y="128.81" width="10.69" height="10.7"/><rect class="cls-3" x="542.42" y="128.81" width="10.7" height="10.7"/><rect class="cls-1" x="253.71" y="118.12" width="10.69" height="10.69"/><rect class="cls-3" x="243.02" y="128.81" width="10.69" height="10.7"/><rect class="cls-1" x="243.02" y="118.12" width="10.69" height="10.69"/><rect class="cls-3" x="232.32" y="128.81" width="10.7" height="10.7"/><rect class="cls-1" x="232.32" y="118.12" width="10.7" height="10.69"/><rect class="cls-1" x="232.32" y="107.43" width="10.7" height="10.69"/><rect class="cls-2" x="221.63" y="139.51" width="10.69" height="10.69"/><rect class="cls-3" x="221.63" y="128.81" width="10.69" height="10.7"/><rect class="cls-3" x="221.63" y="118.12" width="10.69" height="10.69"/><rect class="cls-3" x="221.63" y="107.43" width="10.69" height="10.69"/><rect class="cls-4" x="221.63" y="96.73" width="10.69" height="10.7"/><rect class="cls-4" x="221.63" y="86.04" width="10.69" height="10.69"/><rect class="cls-4" x="221.63" y="75.35" width="10.69" height="10.69"/><rect class="cls-4" x="221.63" y="64.65" width="10.69" height="10.7"/><rect class="cls-4" x="221.63" y="53.96" width="10.69" height="10.69"/><rect class="cls-4" x="221.63" y="43.27" width="10.69" height="10.69"/><rect class="cls-4" x="221.63" y="32.57" width="10.69" height="10.7"/><rect class="cls-2" x="221.63" y="21.88" width="10.69" height="10.69"/><rect class="cls-2" x="221.63" y="11.19" width="10.69" height="10.69"/><rect class="cls-2" x="210.94" y="128.81" width="10.69" height="10.7"/><rect class="cls-2" x="210.94" y="118.12" width="10.69" height="10.69"/><rect class="cls-3" x="210.94" y="107.43" width="10.69" height="10.69"/><rect class="cls-4" x="210.94" y="96.73" width="10.69" height="10.7"/><rect class="cls-4" x="210.94" y="86.04" width="10.69" height="10.69"/><rect class="cls-4" x="210.94" y="75.35" width="10.69" height="10.69"/><rect class="cls-4" x="210.94" y="64.65" width="10.69" height="10.7"/><rect class="cls-4" x="210.94" y="53.96" width="10.69" height="10.69"/><rect class="cls-2" x="210.94" y="43.27" width="10.69" height="10.69"/><rect class="cls-2" x="210.94" y="32.57" width="10.69" height="10.7"/><rect class="cls-2" x="200.25" y="107.43" width="10.69" height="10.69"/><rect class="cls-2" x="200.25" y="96.73" width="10.69" height="10.7"/><rect class="cls-2" x="200.25" y="86.04" width="10.69" height="10.69"/><rect class="cls-2" x="200.25" y="75.35" width="10.69" height="10.69"/><rect class="cls-2" x="200.25" y="64.65" width="10.69" height="10.7"/><rect class="cls-2" x="200.25" y="53.96" width="10.69" height="10.69"/><path d="M381.25,92H368.46V79.17h12.79Z"/><path d="M401.26,92H388.47V79.17h12.79Z"/><path d="M421.28,92H408.49V79.17h12.79Z"/></svg>