<svg id="box" xmlns="http://www.w3.org/2000/svg" viewBox="0 0 1010 857.64"><defs><style>.cls-1{fill:#2c2c2c;}.cls-2{fill:#e2e2e2;}.cls-3{fill:#f2f2f2;}</style></defs><rect class="cls-1" x="553.12" y="139.51" width="10.69" height="10.69"/><rect class="cls-2" x="553.12" y="128.81" width="10.69" height="10.7"/><rect class="cls-3" x="553.12" y="118.12" width="10.69" height="10.69"/><rect class="cls-3" x="553.12" y="107.43" width="10.69" height="10.69"/><rect class="cls-3" x="553.12" y="96.73" width="10.69" height="10.7"/><rect class="cls-3" x="553.12" y="86.04" width="10.69" height="10.69"/><rect class="cls-3" x="553.12" y="75.35" width="10.69" height="10.69"/><rect class="cls-3" x="553.12" y="64.65" width="10.69" height="10.7"/><rect class="cls-3" x="553.12" y="53.96" width="10.69" height="10.69"/><rect class="cls-3" x="553.12" y="43.27" width="10.69" height="10.69"/><rect class="cls-3" x="553.12" y="32.57" width="10.69" height="10.7"/><rect class="cls-3" x="553.12" y="21.88" width="10.69" height="10.69"/><rect class="cls-3" x="553.12" y="11.19" width="10.69" height="10.69"/><rect class="cls-1" x="553.12" y="0.5" width="10.69" height="10.69"/><rect class="cls-1" x="542.42" y="139.51" width="10.7" height="10.69"/><rect class="cls-2" x="542.42" y="128.81" width="10.7" height="10.7"/><rect class="cls-3" x="542.42" y="118.12" width="10.7" height="10.69"/><rect class="cls-3" x="542.42" y="107.43" width="10.7" height="10.69"/><rect class="cls-3" x="542.42" y="96.73" width="10.7" height="10.7"/><rect class="cls-3" x="542.42" y="86.04" width="10.7" height="10.69"/><rect class="cls-3" x="542.42" y="75.35" width="10.7" height="10.69"/><rect class="cls-3" x="542.42" y="64.65" width="10.7" height="10.7"/><rect class="cls-3" x="542.42" y="53.96" width="10.7" height="10.69"/><rect class="cls-3" x="542.42" y="43.27" width="10.7" height="10.69"/><rect class="cls-3" x="542.42" y="32.57" width="10.7" height="10.7"/><rect class="cls-3" x="542.42" y="21.88" width="10.7" height="10.69"/><rect class="cls-3" x="542.42" y="11.19" width="10.7" height="10.69"/><rect class="cls-1" x="542.42" y="0.5" width="10.7" height="10.69"/><rect class="cls-1" x="531.73" y="139.51" width="10.69" height="10.69"/><rect class="cls-2" x="531.73" y="128.81" width="10.69" height="10.7"/><rect class="cls-3" x="531.73" y="118.12" width="10.69" height="10.69"/><rect class="cls-3" x="531.73" y="107.43" width="10.69" height="10.69"/><rect class="cls-3" x="531.73" y="96.73" width="10.69" height="10.7"/><rect class="cls-3" x="531.73" y="86.04" width="10.69" height="10.69"/><rect class="cls-3" x="531.73" y="75.35" width="10.69" height="10.69"/><rect class="cls-3" x="531.73" y="64.65" width="10.69" height="10.7"/><rect class="cls-3" x="531.73" y="53.96" width="10.69" height="10.69"/><rect class="cls-3" x="531.73" y="43.27" width="10.69" height="10.69"/><rect class="cls-3" x="531.73" y="32.57" width="10.69" height="10.7"/><rect class="cls-3" x="531.73" y="21.88" width="10.69" height="10.69"/><rect class="cls-3" x="531.73" y="11.19" width="10.69" height="10.69"/><rect class="cls-1" x="531.73" y="0.5" width="10.69" height="10.69"/><rect class="cls-1" x="521.04" y="139.51" width="10.69" height="10.69"/><rect class="cls-2" x="521.04" y="128.81" width="10.69" height="10.7"/><rect class="cls-3" x="521.04" y="118.12" width="10.69" height="10.69"/><rect class="cls-3" x="521.04" y="107.43" width="10.69" height="10.69"/><rect class="cls-3" x="521.04" y="96.73" width="10.69" height="10.7"/><rect class="cls-3" x="521.04" y="86.04" width="10.69" height="10.69"/><rect class="cls-3" x="521.04" y="75.35" width="10.69" height="10.69"/><rect class="cls-3" x="521.04" y="64.65" width="10.69" height="10.7"/><rect class="cls-3" x="521.04" y="53.96" width="10.69" height="10.69"/><rect class="cls-3" x="521.04" y="43.27" width="10.69" height="10.69"/><rect class="cls-3" x="521.04" y="32.57" width="10.69" height="10.7"/><rect class="cls-3" x="521.04" y="21.88" width="10.69" height="10.69"/><rect class="cls-3" x="521.04" y="11.19" width="10.69" height="10.69"/><rect class="cls-1" x="521.04" y="0.5" width="10.69" height="10.69"/><rect class="cls-1" x="510.34" y="139.51" width="10.7" height="10.69"/><rect class="cls-2" x="510.34" y="128.81" width="10.7" height="10.7"/><rect class="cls-3" x="510.34" y="118.12" width="10.7" height="10.69"/><rect class="cls-3" x="510.34" y="107.43" width="10.7" height="10.69"/><rect class="cls-3" x="510.34" y="96.73" width="10.7" height="10.7"/><rect class="cls-3" x="510.34" y="86.04" width="10.7" height="10.69"/><rect class="cls-3" x="510.34" y="75.35" width="10.7" height="10.69"/><rect class="cls-3" x="510.34" y="64.65" width="10.7" height="10.7"/><rect class="cls-3" x="510.34" y="53.96" width="10.7" height="10.69"/><rect class="cls-3" x="510.34" y="43.27" width="10.7" height="10.69"/><rect class="cls-3" x="510.34" y="32.57" width="10.7" height="10.7"/><rect class="cls-3" x="510.34" y="21.88" width="10.7" height="10.69"/><rect class="cls-3" x="510.34" y="11.19" width="10.7" height="10.69"/><rect class="cls-1" x="510.34" y="0.5" width="10.7" height="10.69"/><rect class="cls-1" x="499.65" y="139.51" width="10.69" height="10.69"/><rect class="cls-2" x="499.65" y="128.81" width="10.69" height="10.7"/><rect class="cls-3" x="499.65" y="118.12" width="10.69" height="10.69"/><rect class="cls-3" x="499.65" y="107.43" width="10.69" height="10.69"/><rect class="cls-3" x="499.65" y="96.73" width="10.69" height="10.7"/><rect class="cls-3" x="499.65" y="86.04" width="10.69" height="10.69"/><rect class="cls-3" x="499.65" y="75.35" width="10.69" height="10.69"/><rect class="cls-3" x="499.65" y="64.65" width="10.69" height="10.7"/><rect class="cls-3" x="499.65" y="53.96" width="10.69" height="10.69"/><rect class="cls-3" x="499.65" y="43.27" width="10.69" height="10.69"/><rect class="cls-3" x="499.65" y="32.57" width="10.69" height="10.7"/><rect class="cls-3" x="499.65" y="21.88" width="10.69" height="10.69"/><rect class="cls-3" x="499.65" y="11.19" width="10.69" height="10.69"/><rect class="cls-1" x="499.65" y="0.5" width="10.69" height="10.69"/><rect class="cls-1" x="488.96" y="139.51" width="10.69" height="10.69"/><rect class="cls-2" x="488.96" y="128.81" width="10.69" height="10.7"/><rect class="cls-3" x="488.96" y="118.12" width="10.69" height="10.69"/><rect class="cls-3" x="488.96" y="107.43" width="10.69" height="10.69"/><rect class="cls-3" x="488.96" y="96.73" width="10.69" height="10.7"/><rect class="cls-3" x="488.96" y="86.04" width="10.69" height="10.69"/><rect class="cls-3" x="488.96" y="75.35" width="10.69" height="10.69"/><rect class="cls-3" x="488.96" y="64.65" width="10.69" height="10.7"/><rect class="cls-3" x="488.96" y="53.96" width="10.69" height="10.69"/><rect class="cls-3" x="488.96" y="43.27" width="10.69" height="10.69"/><rect class="cls-3" x="488.96" y="32.57" width="10.69" height="10.7"/><rect class="cls-3" x="488.96" y="21.88" width="10.69" height="10.69"/><rect class="cls-3" x="488.96" y="11.19" width="10.69" height="10.69"/><rect class="cls-1" x="488.96" y="0.5" width="10.69" height="10.69"/><rect class="cls-1" x="478.27" y="139.51" width="10.69" height="10.69"/><rect class="cls-2" x="478.27" y="128.81" width="10.69" height="10.7"/><rect class="cls-3" x="478.27" y="118.12" width="10.69" height="10.69"/><rect class="cls-3" x="478.27" y="107.43" width="10.69" height="10.69"/><rect class="cls-3" x="478.27" y="96.73" width="10.69" height="10.7"/><rect class="cls-3" x="478.27" y="86.04" width="10.69" height="10.69"/><rect class="cls-3" x="478.27" y="75.35" width="10.69" height="10.69"/><rect class="cls-3" x="478.27" y="64.65" width="10.69" height="10.7"/><rect class="cls-3" x="478.27" y="53.96" width="10.69" height="10.69"/><rect class="cls-3" x="478.27" y="43.27" width="10.69" height="10.69"/><rect class="cls-3" x="478.27" y="32.57" width="10.69" height="10.7"/><rect class="cls-3" x="478.27" y="21.88" width="10.69" height="10.69"/><rect class="cls-3" x="478.27" y="11.19" width="10.69" height="10.69"/><rect class="cls-1" x="478.27" y="0.5" width="10.69" height="10.69"/><rect class="cls-1" x="467.57" y="139.51" width="10.7" height="10.69"/><rect class="cls-2" x="467.57" y="128.81" width="10.7" height="10.7"/><rect class="cls-3" x="467.57" y="118.12" width="10.7" height="10.69"/><rect class="cls-3" x="467.57" y="107.43" width="10.7" height="10.69"/><rect class="cls-3" x="467.57" y="96.73" width="10.7" height="10.7"/><rect class="cls-3" x="467.57" y="86.04" width="10.7" height="10.69"/><rect class="cls-3" x="467.57" y="75.35" width="10.7" height="10.69"/><rect class="cls-3" x="467.57" y="64.65" width="10.7" height="10.7"/><rect class="cls-3" x="467.57" y="53.96" width="10.7" height="10.69"/><rect class="cls-3" x="467.57" y="43.27" width="10.7" height="10.69"/><rect class="cls-3" x="467.57" y="32.57" width="10.7" height="10.7"/><rect class="cls-3" x="467.57" y="21.88" width="10.7" height="10.69"/><rect class="cls-3" x="467.57" y="11.19" width="10.7" height="10.69"/><rect class="cls-1" x="467.57" y="0.5" width="10.7" height="10.69"/><rect class="cls-1" x="456.88" y="139.51" width="10.69" height="10.69"/><rect class="cls-2" x="456.88" y="128.81" width="10.69" height="10.7"/><rect class="cls-3" x="456.88" y="118.12" width="10.69" height="10.69"/><rect class="cls-3" x="456.88" y="107.43" width="10.69" height="10.69"/><rect class="cls-3" x="456.88" y="96.73" width="10.69" height="10.7"/><rect class="cls-3" x="456.88" y="86.04" width="10.69" height="10.69"/><rect class="cls-3" x="456.88" y="75.35" width="10.69" height="10.69"/><rect class="cls-3" x="456.88" y="64.65" width="10.69" height="10.7"/><rect class="cls-3" x="456.88" y="53.96" width="10.69" height="10.69"/><rect class="cls-3" x="456.88" y="43.27" width="10.69" height="10.69"/><rect class="cls-3" x="456.88" y="32.57" width="10.69" height="10.7"/><rect class="cls-3" x="456.88" y="21.88" width="10.69" height="10.69"/><rect class="cls-3" x="456.88" y="11.19" width="10.69" height="10.69"/><rect class="cls-1" x="456.88" y="0.5" width="10.69" height="10.69"/><rect class="cls-1" x="446.19" y="139.51" width="10.69" height="10.69"/><rect class="cls-2" x="446.19" y="128.81" width="10.69" height="10.7"/><rect class="cls-3" x="446.19" y="118.12" width="10.69" height="10.69"/><rect class="cls-3" x="446.19" y="107.43" width="10.69" height="10.69"/><rect class="cls-3" x="446.19" y="96.73" width="10.69" height="10.7"/><rect class="cls-3" x="446.19" y="86.04" width="10.69" height="10.69"/><rect class="cls-3" x="446.19" y="75.35" width="10.69" height="10.69"/><rect class="cls-3" x="446.19" y="64.65" width="10.69" height="10.7"/><rect class="cls-3" x="446.19" y="53.96" width="10.69" height="10.69"/><rect class="cls-3" x="446.19" y="43.27" width="10.69" height="10.69"/><rect class="cls-3" x="446.19" y="32.57" width="10.69" height="10.7"/><rect class="cls-3" x="446.19" y="21.88" width="10.69" height="10.69"/><rect class="cls-3" x="446.19" y="11.19" width="10.69" height="10.69"/><rect class="cls-1" x="446.19" y="0.5" width="10.69" height="10.69"/><rect class="cls-1" x="435.49" y="139.51" width="10.7" height="10.69"/><rect class="cls-2" x="435.49" y="128.81" width="10.7" height="10.7"/><rect class="cls-3" x="435.49" y="118.12" width="10.7" height="10.69"/><rect class="cls-3" x="435.49" y="107.43" width="10.7" height="10.69"/><rect class="cls-3" x="435.49" y="96.73" width="10.7" height="10.7"/><rect class="cls-3" x="435.49" y="86.04" width="10.7" height="10.69"/><rect class="cls-3" x="435.49" y="75.35" width="10.7" height="10.69"/><rect class="cls-3" x="435.49" y="64.65" width="10.7" height="10.7"/><rect class="cls-3" x="435.49" y="53.96" width="10.7" height="10.69"/><rect class="cls-3" x="435.49" y="43.27" width="10.7" height="10.69"/><rect class="cls-3" x="435.49" y="32.57" width="10.7" height="10.7"/><rect class="cls-3" x="435.49" y="21.88" width="10.7" height="10.69"/><rect class="cls-3" x="435.49" y="11.19" width="10.7" height="10.69"/><rect class="cls-1" x="435.49" y="0.5" width="10.7" height="10.69"/><rect class="cls-1" x="424.8" y="139.51" width="10.69" height="10.69"/><rect class="cls-2" x="424.8" y="128.81" width="10.69" height="10.7"/><rect class="cls-3" x="424.8" y="118.12" width="10.69" height="10.69"/><rect class="cls-3" x="424.8" y="107.43" width="10.69" height="10.69"/><rect class="cls-3" x="424.8" y="96.73" width="10.69" height="10.7"/><rect class="cls-3" x="424.8" y="86.04" width="10.69" height="10.69"/><rect class="cls-3" x="424.8" y="75.35" width="10.69" height="10.69"/><rect class="cls-3" x="424.8" y="64.65" width="10.69" height="10.7"/><rect class="cls-3" x="424.8" y="53.96" width="10.69" height="10.69"/><rect class="cls-3" x="424.8" y="43.27" width="10.69" height="10.69"/><rect class="cls-3" x="424.8" y="32.57" width="10.69" height="10.7"/><rect class="cls-3" x="424.8" y="21.88" width="10.69" height="10.69"/><rect class="cls-3" x="424.8" y="11.19" width="10.69" height="10.69"/><rect class="cls-1" x="424.8" y="0.5" width="10.69" height="10.69"/><rect class="cls-1" x="414.11" y="139.51" width="10.69" height="10.69"/><rect class="cls-2" x="414.11" y="128.81" width="10.69" height="10.7"/><rect class="cls-3" x="414.11" y="118.12" width="10.69" height="10.69"/><rect class="cls-3" x="414.11" y="107.43" width="10.69" height="10.69"/><rect class="cls-3" x="414.11" y="96.73" width="10.69" height="10.7"/><rect class="cls-3" x="414.11" y="86.04" width="10.69" height="10.69"/><rect class="cls-3" x="414.11" y="75.35" width="10.69" height="10.69"/><rect class="cls-3" x="414.11" y="64.65" width="10.69" height="10.7"/><rect class="cls-3" x="414.11" y="53.96" width="10.69" height="10.69"/><rect class="cls-3" x="414.11" y="43.27" width="10.69" height="10.69"/><rect class="cls-3" x="414.11" y="32.57" width="10.69" height="10.7"/><rect class="cls-3" x="414.11" y="21.88" width="10.69" height="10.69"/><rect class="cls-3" x="414.11" y="11.19" width="10.69" height="10.69"/><rect class="cls-1" x="414.11" y="0.5" width="10.69" height="10.69"/><rect class="cls-1" x="403.41" y="139.51" width="10.7" height="10.69"/><rect class="cls-2" x="403.41" y="128.81" width="10.7" height="10.7"/><rect class="cls-3" x="403.41" y="118.12" width="10.7" height="10.69"/><rect class="cls-3" x="403.41" y="107.43" width="10.7" height="10.69"/><rect class="cls-3" x="403.41" y="96.73" width="10.7" height="10.7"/><rect class="cls-3" x="403.41" y="86.04" width="10.7" height="10.69"/><rect class="cls-3" x="403.41" y="75.35" width="10.7" height="10.69"/><rect class="cls-3" x="403.41" y="64.65" width="10.7" height="10.7"/><rect class="cls-3" x="403.41" y="53.96" width="10.7" height="10.69"/><rect class="cls-3" x="403.41" y="43.27" width="10.7" height="10.69"/><rect class="cls-3" x="403.41" y="32.57" width="10.7" height="10.7"/><rect class="cls-3" x="403.41" y="21.88" width="10.7" height="10.69"/><rect class="cls-3" x="403.41" y="11.19" width="10.7" height="10.69"/><rect class="cls-1" x="403.41" y="0.5" width="10.7" height="10.69"/><rect class="cls-1" x="392.72" y="139.51" width="10.69" height="10.69"/><rect class="cls-2" x="392.72" y="128.81" width="10.69" height="10.7"/><rect class="cls-3" x="392.72" y="118.12" width="10.69" height="10.69"/><rect class="cls-3" x="392.72" y="107.43" width="10.69" height="10.69"/><rect class="cls-3" x="392.72" y="96.73" width="10.69" height="10.7"/><rect class="cls-3" x="392.72" y="86.04" width="10.69" height="10.69"/><rect class="cls-3" x="392.72" y="75.35" width="10.69" height="10.69"/><rect class="cls-3" x="392.72" y="64.65" width="10.69" height="10.7"/><rect class="cls-3" x="392.72" y="53.96" width="10.69" height="10.69"/><rect class="cls-3" x="392.72" y="43.27" width="10.69" height="10.69"/><rect class="cls-3" x="392.72" y="32.57" width="10.69" height="10.7"/><rect class="cls-3" x="392.72" y="21.88" width="10.69" height="10.69"/><rect class="cls-3" x="392.72" y="11.19" width="10.69" height="10.69"/><rect class="cls-1" x="392.72" y="0.5" width="10.69" height="10.69"/><rect class="cls-1" x="382.03" y="139.51" width="10.69" height="10.69"/><rect class="cls-2" x="382.03" y="128.81" width="10.69" height="10.7"/><rect class="cls-3" x="382.03" y="118.12" width="10.69" height="10.69"/><rect class="cls-3" x="382.03" y="107.43" width="10.69" height="10.69"/><rect class="cls-3" x="382.03" y="96.73" width="10.69" height="10.7"/><rect class="cls-3" x="382.03" y="86.04" width="10.69" height="10.69"/><rect class="cls-3" x="382.03" y="75.35" width="10.69" height="10.69"/><rect class="cls-3" x="382.03" y="64.65" width="10.69" height="10.7"/><rect class="cls-3" x="382.03" y="53.96" width="10.69" height="10.69"/><rect class="cls-3" x="382.03" y="43.27" width="10.69" height="10.69"/><rect class="cls-3" x="382.03" y="32.57" width="10.69" height="10.7"/><rect class="cls-3" x="382.03" y="21.88" width="10.69" height="10.69"/><rect class="cls-3" x="382.03" y="11.19" width="10.69" height="10.69"/><rect class="cls-1" x="382.03" y="0.5" width="10.69" height="10.69"/><rect class="cls-1" x="371.33" y="139.51" width="10.7" height="10.69"/><rect class="cls-2" x="371.33" y="128.81" width="10.7" height="10.7"/><rect class="cls-3" x="371.33" y="118.12" width="10.7" height="10.69"/><rect class="cls-3" x="371.33" y="107.43" width="10.7" height="10.69"/><rect class="cls-3" x="371.33" y="96.73" width="10.7" height="10.7"/><rect class="cls-3" x="371.33" y="86.04" width="10.7" height="10.69"/><rect class="cls-3" x="371.33" y="75.35" width="10.7" height="10.69"/><rect class="cls-3" x="371.33" y="64.65" width="10.7" height="10.7"/><rect class="cls-3" x="371.33" y="53.96" width="10.7" height="10.69"/><rect class="cls-3" x="371.33" y="43.27" width="10.7" height="10.69"/><rect class="cls-3" x="371.33" y="32.57" width="10.7" height="10.7"/><rect class="cls-3" x="371.33" y="21.88" width="10.7" height="10.69"/><rect class="cls-3" x="371.33" y="11.19" width="10.7" height="10.69"/><rect class="cls-1" x="371.33" y="0.5" width="10.7" height="10.69"/><rect class="cls-1" x="360.64" y="139.51" width="10.69" height="10.69"/><rect class="cls-2" x="360.64" y="128.81" width="10.69" height="10.7"/><rect class="cls-3" x="360.64" y="118.12" width="10.69" height="10.69"/><rect class="cls-3" x="360.64" y="107.43" width="10.69" height="10.69"/><rect class="cls-3" x="360.64" y="96.73" width="10.69" height="10.7"/><rect class="cls-3" x="360.64" y="86.04" width="10.69" height="10.69"/><rect class="cls-3" x="360.64" y="75.35" width="10.69" height="10.69"/><rect class="cls-3" x="360.64" y="64.65" width="10.69" height="10.7"/><rect class="cls-3" x="360.64" y="53.96" width="10.69" height="10.69"/><rect class="cls-3" x="360.64" y="43.27" width="10.69" height="10.69"/><rect class="cls-3" x="360.64" y="32.57" width="10.69" height="10.7"/><rect class="cls-3" x="360.64" y="21.88" width="10.69" height="10.69"/><rect class="cls-3" x="360.64" y="11.19" width="10.69" height="10.69"/><rect class="cls-1" x="360.64" y="0.5" width="10.69" height="10.69"/><rect class="cls-1" x="349.95" y="139.51" width="10.69" height="10.69"/><rect class="cls-2" x="349.95" y="128.81" width="10.69" height="10.7"/><rect class="cls-3" x="349.95" y="118.12" width="10.69" height="10.69"/><rect class="cls-3" x="349.95" y="107.43" width="10.69" height="10.69"/><rect class="cls-3" x="349.95" y="96.73" width="10.69" height="10.7"/><rect class="cls-3" x="349.95" y="86.04" width="10.69" height="10.69"/><rect class="cls-3" x="349.95" y="75.35" width="10.69" height="10.69"/><rect class="cls-3" x="349.95" y="64.65" width="10.69" height="10.7"/><rect class="cls-3" x="349.95" y="53.96" width="10.69" height="10.69"/><rect class="cls-3" x="349.95" y="43.27" width="10.69" height="10.69"/><rect class="cls-3" x="349.95" y="32.57" width="10.69" height="10.7"/><rect class="cls-3" x="349.95" y="21.88" width="10.69" height="10.69"/><rect class="cls-3" x="349.95" y="11.19" width="10.69" height="10.69"/><rect class="cls-1" x="349.95" y="0.5" width="10.69" height="10.69"/><rect class="cls-1" x="339.26" y="139.51" width="10.69" height="10.69"/><rect class="cls-2" x="339.26" y="128.81" width="10.69" height="10.7"/><rect class="cls-3" x="339.26" y="118.12" width="10.69" height="10.69"/><rect class="cls-3" x="339.26" y="107.43" width="10.69" height="10.69"/><rect class="cls-3" x="339.26" y="96.73" width="10.69" height="10.7"/><rect class="cls-3" x="339.26" y="86.04" width="10.69" height="10.69"/><rect class="cls-3" x="339.26" y="75.35" width="10.69" height="10.69"/><rect class="cls-3" x="339.26" y="64.65" width="10.69" height="10.7"/><rect class="cls-3" x="339.26" y="53.96" width="10.69" height="10.69"/><rect class="cls-3" x="339.26" y="43.27" width="10.69" height="10.69"/><rect class="cls-3" x="339.26" y="32.57" width="10.69" height="10.7"/><rect class="cls-3" x="339.26" y="21.88" width="10.69" height="10.69"/><rect class="cls-3" x="339.26" y="11.19" width="10.69" height="10.69"/><rect class="cls-1" x="339.26" y="0.5" width="10.69" height="10.69"/><rect class="cls-1" x="328.56" y="139.51" width="10.7" height="10.69"/><rect class="cls-2" x="328.56" y="128.81" width="10.7" height="10.7"/><rect class="cls-3" x="328.56" y="118.12" width="10.7" height="10.69"/><rect class="cls-3" x="328.56" y="107.43" width="10.7" height="10.69"/><rect class="cls-3" x="328.56" y="96.73" width="10.7" height="10.7"/><rect class="cls-3" x="328.56" y="86.04" width="10.7" height="10.69"/><rect class="cls-3" x="328.56" y="75.35" width="10.7" height="10.69"/><rect class="cls-3" x="328.56" y="64.65" width="10.7" height="10.7"/><rect class="cls-3" x="328.56" y="53.96" width="10.7" height="10.69"/><rect class="cls-3" x="328.56" y="43.27" width="10.7" height="10.69"/><rect class="cls-3" x="328.56" y="32.57" width="10.7" height="10.7"/><rect class="cls-3" x="328.56" y="21.88" width="10.7" height="10.69"/><rect class="cls-3" x="328.56" y="11.19" width="10.7" height="10.69"/><rect class="cls-1" x="328.56" y="0.5" width="10.7" height="10.69"/><rect class="cls-1" x="317.87" y="139.51" width="10.69" height="10.69"/><rect class="cls-2" x="317.87" y="128.81" width="10.69" height="10.7"/><rect class="cls-3" x="317.87" y="118.12" width="10.69" height="10.69"/><rect class="cls-3" x="317.87" y="107.43" width="10.69" height="10.69"/><rect class="cls-3" x="317.87" y="96.73" width="10.69" height="10.7"/><rect class="cls-3" x="317.87" y="86.04" width="10.69" height="10.69"/><rect class="cls-3" x="317.87" y="75.35" width="10.69" height="10.69"/><rect class="cls-3" x="317.87" y="64.65" width="10.69" height="10.7"/><rect class="cls-3" x="317.87" y="53.96" width="10.69" height="10.69"/><rect class="cls-3" x="317.87" y="43.27" width="10.69" height="10.69"/><rect class="cls-3" x="317.87" y="32.57" width="10.69" height="10.7"/><rect class="cls-3" x="317.87" y="21.88" width="10.69" height="10.69"/><rect class="cls-3" x="317.87" y="11.19" width="10.69" height="10.69"/><rect class="cls-1" x="317.87" y="0.5" width="10.69" height="10.69"/><rect class="cls-1" x="307.18" y="139.51" width="10.69" height="10.69"/><rect class="cls-2" x="307.18" y="128.81" width="10.69" height="10.7"/><rect class="cls-3" x="307.18" y="118.12" width="10.69" height="10.69"/><rect class="cls-3" x="307.18" y="107.43" width="10.69" height="10.69"/><rect class="cls-3" x="307.18" y="96.73" width="10.69" height="10.7"/><rect class="cls-3" x="307.18" y="86.04" width="10.69" height="10.69"/><rect class="cls-3" x="307.18" y="75.35" width="10.69" height="10.69"/><rect class="cls-3" x="307.18" y="64.65" width="10.69" height="10.7"/><rect class="cls-3" x="307.18" y="53.96" width="10.69" height="10.69"/><rect class="cls-3" x="307.18" y="43.27" width="10.69" height="10.69"/><rect class="cls-3" x="307.18" y="32.57" width="10.69" height="10.7"/><rect class="cls-3" x="307.18" y="21.88" width="10.69" height="10.69"/><rect class="cls-3" x="307.18" y="11.19" width="10.69" height="10.69"/><rect class="cls-1" x="307.18" y="0.5" width="10.69" height="10.69"/><rect class="cls-1" x="296.48" y="139.51" width="10.7" height="10.69"/><rect class="cls-2" x="296.48" y="128.81" width="10.7" height="10.7"/><rect class="cls-3" x="296.48" y="118.12" width="10.7" height="10.69"/><rect class="cls-3" x="296.48" y="107.43" width="10.7" height="10.69"/><rect class="cls-3" x="296.48" y="96.73" width="10.7" height="10.7"/><rect class="cls-3" x="296.48" y="86.04" width="10.7" height="10.69"/><rect class="cls-3" x="296.48" y="75.35" width="10.7" height="10.69"/><rect class="cls-3" x="296.48" y="64.65" width="10.7" height="10.7"/><rect class="cls-3" x="296.48" y="53.96" width="10.7" height="10.69"/><rect class="cls-3" x="296.48" y="43.27" width="10.7" height="10.69"/><rect class="cls-3" x="296.48" y="32.57" width="10.7" height="10.7"/><rect class="cls-3" x="296.48" y="21.88" width="10.7" height="10.69"/><rect class="cls-3" x="296.48" y="11.19" width="10.7" height="10.69"/><rect class="cls-1" x="296.48" y="0.5" width="10.7" height="10.69"/><rect class="cls-1" x="285.79" y="139.51" width="10.69" height="10.69"/><rect class="cls-2" x="285.79" y="128.81" width="10.69" height="10.7"/><rect class="cls-3" x="285.79" y="118.12" width="10.69" height="10.69"/><rect class="cls-3" x="285.79" y="107.43" width="10.69" height="10.69"/><rect class="cls-3" x="285.79" y="96.73" width="10.69" height="10.7"/><rect class="cls-3" x="285.79" y="86.04" width="10.69" height="10.69"/><rect class="cls-3" x="285.79" y="75.35" width="10.69" height="10.69"/><rect class="cls-3" x="285.79" y="64.65" width="10.69" height="10.7"/><rect class="cls-3" x="285.79" y="53.96" width="10.69" height="10.69"/><rect class="cls-3" x="285.79" y="43.27" width="10.69" height="10.69"/><rect class="cls-3" x="285.79" y="32.57" width="10.69" height="10.7"/><rect class="cls-3" x="285.79" y="21.88" width="10.69" height="10.69"/><rect class="cls-3" x="285.79" y="11.19" width="10.69" height="10.69"/><rect class="cls-1" x="285.79" y="0.5" width="10.69" height="10.69"/><rect class="cls-1" x="275.1" y="139.51" width="10.69" height="10.69"/><rect class="cls-2" x="275.1" y="128.81" width="10.69" height="10.7"/><rect class="cls-3" x="275.1" y="118.12" width="10.69" height="10.69"/><rect class="cls-3" x="275.1" y="107.43" width="10.69" height="10.69"/><rect class="cls-3" x="275.1" y="96.73" width="10.69" height="10.7"/><rect class="cls-3" x="275.1" y="86.04" width="10.69" height="10.69"/><rect class="cls-3" x="275.1" y="75.35" width="10.69" height="10.69"/><rect class="cls-3" x="275.1" y="64.65" width="10.69" height="10.7"/><rect class="cls-3" x="275.1" y="53.96" width="10.69" height="10.69"/><rect class="cls-3" x="275.1" y="43.27" width="10.69" height="10.69"/><rect class="cls-3" x="275.1" y="32.57" width="10.69" height="10.7"/><rect class="cls-3" x="275.1" y="21.88" width="10.69" height="10.69"/><rect class="cls-3" x="275.1" y="11.19" width="10.69" height="10.69"/><rect class="cls-1" x="275.1" y="0.5" width="10.69" height="10.69"/><rect class="cls-1" x="264.4" y="139.51" width="10.7" height="10.69"/><rect class="cls-2" x="264.4" y="128.81" width="10.7" height="10.7"/><rect class="cls-3" x="264.4" y="118.12" width="10.7" height="10.69"/><rect class="cls-3" x="264.4" y="107.43" width="10.7" height="10.69"/><rect class="cls-3" x="264.4" y="96.73" width="10.7" height="10.7"/><rect class="cls-3" x="264.4" y="86.04" width="10.7" height="10.69"/><rect class="cls-3" x="264.4" y="75.35" width="10.7" height="10.69"/><rect class="cls-3" x="264.4" y="64.65" width="10.7" height="10.7"/><rect class="cls-3" x="264.4" y="53.96" width="10.7" height="10.69"/><rect class="cls-3" x="264.4" y="43.27" width="10.7" height="10.69"/><rect class="cls-3" x="264.4" y="32.57" width="10.7" height="10.7"/><rect class="cls-3" x="264.4" y="21.88" width="10.7" height="10.69"/><rect class="cls-3" x="264.4" y="11.19" width="10.7" height="10.69"/><rect class="cls-1" x="264.4" y="0.5" width="10.7" height="10.69"/><rect class="cls-1" x="253.71" y="139.51" width="10.69" height="10.69"/><rect class="cls-2" x="253.71" y="128.81" width="10.69" height="10.7"/><rect class="cls-3" x="253.71" y="118.12" width="10.69" height="10.69"/><rect class="cls-3" x="253.71" y="107.43" width="10.69" height="10.69"/><rect class="cls-3" x="253.71" y="96.73" width="10.69" height="10.7"/><rect class="cls-3" x="253.71" y="86.04" width="10.69" height="10.69"/><rect class="cls-3" x="253.71" y="75.35" width="10.69" height="10.69"/><rect class="cls-3" x="253.71" y="64.65" width="10.69" height="10.7"/><rect class="cls-3" x="253.71" y="53.96" width="10.69" height="10.69"/><rect class="cls-3" x="253.71" y="43.27" width="10.69" height="10.69"/><rect class="cls-3" x="253.71" y="32.57" width="10.69" height="10.7"/><rect class="cls-3" x="253.71" y="21.88" width="10.69" height="10.69"/><rect class="cls-3" x="253.71" y="11.19" width="10.69" height="10.69"/><rect class="cls-1" x="253.71" y="0.5" width="10.69" height="10.69"/><rect class="cls-1" x="243.02" y="139.51" width="10.69" height="10.69"/><rect class="cls-2" x="243.02" y="128.81" width="10.69" height="10.7"/><rect class="cls-3" x="243.02" y="118.12" width="10.69" height="10.69"/><rect class="cls-3" x="243.02" y="107.43" width="10.69" height="10.69"/><rect class="cls-3" x="243.02" y="96.73" width="10.69" height="10.7"/><rect class="cls-3" x="243.02" y="86.04" width="10.69" height="10.69"/><rect class="cls-3" x="243.02" y="75.35" width="10.69" height="10.69"/><rect class="cls-3" x="243.02" y="64.65" width="10.69" height="10.7"/><rect class="cls-3" x="243.02" y="53.96" width="10.69" height="10.69"/><rect class="cls-3" x="243.02" y="43.27" width="10.69" height="10.69"/><rect class="cls-3" x="243.02" y="32.57" width="10.69" height="10.7"/><rect class="cls-3" x="243.02" y="21.88" width="10.69" height="10.69"/><rect class="cls-3" x="243.02" y="11.19" width="10.69" height="10.69"/><rect class="cls-1" x="243.02" y="0.5" width="10.69" height="10.69"/><rect class="cls-1" x="232.32" y="139.51" width="10.7" height="10.69"/><rect class="cls-2" x="232.32" y="128.81" width="10.7" height="10.7"/><rect class="cls-3" x="232.32" y="118.12" width="10.7" height="10.69"/><rect class="cls-3" x="232.32" y="107.43" width="10.7" height="10.69"/><rect class="cls-3" x="232.32" y="96.73" width="10.7" height="10.7"/><rect class="cls-3" x="232.32" y="86.04" width="10.7" height="10.69"/><rect class="cls-3" x="232.32" y="75.35" width="10.7" height="10.69"/><rect class="cls-3" x="232.32" y="64.65" width="10.7" height="10.7"/><rect class="cls-3" x="232.32" y="53.96" width="10.7" height="10.69"/><rect class="cls-3" x="232.32" y="43.27" width="10.7" height="10.69"/><rect class="cls-3" x="232.32" y="32.57" width="10.7" height="10.7"/><rect class="cls-3" x="232.32" y="21.88" width="10.7" height="10.69"/><rect class="cls-3" x="232.32" y="11.19" width="10.7" height="10.69"/><rect class="cls-1" x="232.32" y="0.5" width="10.7" height="10.69"/></svg>