<svg id="balloon-lg" xmlns="http://www.w3.org/2000/svg" viewBox="0 0 1010 857.64"><defs><style>.cls-1{fill:#2c2c2c;}.cls-2{fill:#a2a2a2;}.cls-3{fill:#f2f2f2;}.cls-4{fill:#e2e2e2;}</style></defs><rect class="cls-1" x="809.75" y="107.43" width="10.69" height="10.69"/><rect class="cls-1" x="809.75" y="96.73" width="10.69" height="10.7"/><rect class="cls-1" x="809.75" y="86.04" width="10.69" height="10.69"/><rect class="cls-1" x="809.75" y="75.35" width="10.69" height="10.69"/><rect class="cls-1" x="809.75" y="64.65" width="10.69" height="10.7"/><rect class="cls-1" x="809.75" y="53.96" width="10.69" height="10.69"/><rect class="cls-1" x="799.06" y="128.81" width="10.69" height="10.7"/><rect class="cls-1" x="799.06" y="118.12" width="10.69" height="10.69"/><rect class="cls-2" x="799.06" y="107.43" width="10.69" height="10.69"/><polygon class="cls-3" points="809.75 96.73 809.75 107.43 799.06 107.43 788.36 107.43 777.67 107.43 777.67 118.12 766.98 118.12 756.29 118.12 756.29 128.81 745.59 128.81 734.9 128.81 724.21 128.81 713.51 128.81 702.82 128.81 692.13 128.81 681.43 128.81 670.74 128.81 660.05 128.81 649.35 128.81 638.66 128.81 627.97 128.81 617.28 128.81 606.58 128.81 595.89 128.81 585.2 128.81 574.5 128.81 574.5 118.12 574.5 107.43 574.5 96.73 574.5 86.04 574.5 75.35 574.5 64.65 574.5 53.96 574.5 43.27 574.5 32.57 574.5 21.88 574.5 11.19 585.2 11.19 595.89 11.19 606.58 11.19 617.28 11.19 627.97 11.19 638.66 11.19 649.35 11.19 660.05 11.19 670.74 11.19 681.43 11.19 692.13 11.19 702.82 11.19 713.51 11.19 724.21 11.19 734.9 11.19 745.59 11.19 756.29 11.19 766.98 11.19 777.67 11.19 788.36 11.19 788.36 21.88 788.36 32.57 799.06 32.57 799.06 43.27 799.06 53.96 809.75 53.96 809.75 64.65 809.75 75.35 809.75 86.04 809.75 96.73"/><rect class="cls-1" x="799.06" y="43.27" width="10.69" height="10.69"/><rect class="cls-1" x="799.06" y="32.57" width="10.69" height="10.7"/><rect class="cls-1" x="788.36" y="139.51" width="10.7" height="10.69"/><rect class="cls-2" x="788.36" y="128.81" width="10.7" height="10.7"/><rect class="cls-2" x="788.36" y="118.12" width="10.7" height="10.69"/><rect class="cls-2" x="788.36" y="107.43" width="10.7" height="10.69"/><rect class="cls-1" x="788.36" y="21.88" width="10.7" height="10.69"/><rect class="cls-1" x="788.36" y="11.19" width="10.7" height="10.69"/><rect class="cls-1" x="777.67" y="139.51" width="10.69" height="10.69"/><rect class="cls-2" x="777.67" y="128.81" width="10.69" height="10.7"/><rect class="cls-4" x="777.67" y="118.12" width="10.69" height="10.69"/><rect class="cls-4" x="777.67" y="107.43" width="10.69" height="10.69"/><rect class="cls-1" x="777.67" y="0.5" width="10.69" height="10.69"/><rect class="cls-1" x="766.98" y="139.51" width="10.69" height="10.69"/><rect class="cls-2" x="766.98" y="128.81" width="10.69" height="10.7"/><rect class="cls-4" x="766.98" y="118.12" width="10.69" height="10.69"/><rect class="cls-1" x="766.98" y="0.5" width="10.69" height="10.69"/><rect class="cls-1" x="756.29" y="139.51" width="10.69" height="10.69"/><rect class="cls-4" x="756.29" y="128.81" width="10.69" height="10.7"/><rect class="cls-4" x="756.29" y="118.12" width="10.69" height="10.69"/><rect class="cls-1" x="756.29" y="0.5" width="10.69" height="10.69"/><rect class="cls-1" x="745.59" y="139.51" width="10.7" height="10.69"/><rect class="cls-4" x="745.59" y="128.81" width="10.7" height="10.7"/><rect class="cls-1" x="745.59" y="0.5" width="10.7" height="10.69"/><rect class="cls-1" x="734.9" y="139.51" width="10.69" height="10.69"/><rect class="cls-4" x="734.9" y="128.81" width="10.69" height="10.7"/><rect class="cls-1" x="734.9" y="0.5" width="10.69" height="10.69"/><rect class="cls-1" x="724.21" y="139.51" width="10.69" height="10.69"/><rect class="cls-4" x="724.21" y="128.81" width="10.69" height="10.7"/><rect class="cls-1" x="724.21" y="0.5" width="10.69" height="10.69"/><rect class="cls-1" x="713.51" y="139.51" width="10.7" height="10.69"/><rect class="cls-4" x="713.51" y="128.81" width="10.7" height="10.7"/><rect class="cls-1" x="713.51" y="0.5" width="10.7" height="10.69"/><rect class="cls-1" x="702.82" y="139.51" width="10.69" height="10.69"/><rect class="cls-4" x="702.82" y="128.81" width="10.69" height="10.7"/><rect class="cls-1" x="702.82" y="0.5" width="10.69" height="10.69"/><rect class="cls-1" x="692.13" y="139.51" width="10.69" height="10.69"/><rect class="cls-4" x="692.13" y="128.81" width="10.69" height="10.7"/><rect class="cls-1" x="692.13" y="0.5" width="10.69" height="10.69"/><rect class="cls-1" x="681.43" y="139.51" width="10.7" height="10.69"/><rect class="cls-4" x="681.43" y="128.81" width="10.7" height="10.7"/><rect class="cls-1" x="681.43" y="0.5" width="10.7" height="10.69"/><rect class="cls-1" x="670.74" y="139.51" width="10.69" height="10.69"/><rect class="cls-4" x="670.74" y="128.81" width="10.69" height="10.7"/><rect class="cls-1" x="670.74" y="0.5" width="10.69" height="10.69"/><rect class="cls-1" x="660.05" y="139.51" width="10.69" height="10.69"/><rect class="cls-4" x="660.05" y="128.81" width="10.69" height="10.7"/><rect class="cls-1" x="660.05" y="0.5" width="10.69" height="10.69"/><rect class="cls-1" x="649.35" y="139.51" width="10.7" height="10.69"/><rect class="cls-4" x="649.35" y="128.81" width="10.7" height="10.7"/><rect class="cls-1" x="649.35" y="0.5" width="10.7" height="10.69"/><rect class="cls-1" x="638.66" y="139.51" width="10.69" height="10.69"/><rect class="cls-4" x="638.66" y="128.81" width="10.69" height="10.7"/><rect class="cls-1" x="638.66" y="0.5" width="10.69" height="10.69"/><rect class="cls-1" x="627.97" y="139.51" width="10.69" height="10.69"/><rect class="cls-4" x="627.97" y="128.81" width="10.69" height="10.7"/><rect class="cls-1" x="627.97" y="0.5" width="10.69" height="10.69"/><rect class="cls-1" x="617.28" y="139.51" width="10.69" height="10.69"/><rect class="cls-4" x="617.28" y="128.81" width="10.69" height="10.7"/><rect class="cls-1" x="617.28" y="0.5" width="10.69" height="10.69"/><rect class="cls-1" x="606.58" y="139.51" width="10.7" height="10.69"/><rect class="cls-4" x="606.58" y="128.81" width="10.7" height="10.7"/><rect class="cls-1" x="606.58" y="0.5" width="10.7" height="10.69"/><rect class="cls-1" x="595.89" y="139.51" width="10.69" height="10.69"/><rect class="cls-4" x="595.89" y="128.81" width="10.69" height="10.7"/><rect class="cls-1" x="595.89" y="0.5" width="10.69" height="10.69"/><rect class="cls-1" x="585.2" y="139.51" width="10.69" height="10.69"/><rect class="cls-4" x="585.2" y="128.81" width="10.69" height="10.7"/><rect class="cls-1" x="585.2" y="0.5" width="10.69" height="10.69"/><rect class="cls-1" x="574.5" y="139.51" width="10.7" height="10.69"/><rect class="cls-4" x="574.5" y="128.81" width="10.7" height="10.7"/><rect class="cls-1" x="574.5" y="0.5" width="10.7" height="10.69"/><rect class="cls-1" x="563.81" y="139.51" width="10.69" height="10.69"/><rect class="cls-4" x="563.81" y="128.81" width="10.69" height="10.7"/><rect class="cls-3" x="563.81" y="118.12" width="10.69" height="10.69"/><rect class="cls-3" x="563.81" y="107.43" width="10.69" height="10.69"/><rect class="cls-3" x="563.81" y="96.73" width="10.69" height="10.7"/><rect class="cls-3" x="563.81" y="86.04" width="10.69" height="10.69"/><rect class="cls-3" x="563.81" y="75.35" width="10.69" height="10.69"/><rect class="cls-3" x="563.81" y="64.65" width="10.69" height="10.7"/><rect class="cls-3" x="563.81" y="53.96" width="10.69" height="10.69"/><rect class="cls-3" x="563.81" y="43.27" width="10.69" height="10.69"/><rect class="cls-3" x="563.81" y="32.57" width="10.69" height="10.7"/><rect class="cls-3" x="563.81" y="21.88" width="10.69" height="10.69"/><rect class="cls-3" x="563.81" y="11.19" width="10.69" height="10.69"/><rect class="cls-1" x="563.81" y="0.5" width="10.69" height="10.69"/><rect class="cls-1" x="221.63" y="139.51" width="10.69" height="10.69"/><rect class="cls-2" x="221.63" y="128.81" width="10.69" height="10.7"/><rect class="cls-4" x="221.63" y="118.12" width="10.69" height="10.69"/><rect class="cls-3" x="221.63" y="107.43" width="10.69" height="10.69"/><rect class="cls-3" x="221.63" y="96.73" width="10.69" height="10.7"/><rect class="cls-3" x="221.63" y="86.04" width="10.69" height="10.69"/><rect class="cls-3" x="221.63" y="75.35" width="10.69" height="10.69"/><rect class="cls-3" x="221.63" y="64.65" width="10.69" height="10.7"/><rect class="cls-3" x="221.63" y="53.96" width="10.69" height="10.69"/><rect class="cls-3" x="221.63" y="43.27" width="10.69" height="10.69"/><rect class="cls-3" x="221.63" y="32.57" width="10.69" height="10.7"/><rect class="cls-3" x="221.63" y="21.88" width="10.69" height="10.69"/><rect class="cls-3" x="221.63" y="11.19" width="10.69" height="10.69"/><rect class="cls-1" x="221.63" y="0.5" width="10.69" height="10.69"/><rect class="cls-1" x="210.94" y="139.51" width="10.69" height="10.69"/><rect class="cls-2" x="210.94" y="128.81" width="10.69" height="10.7"/><rect class="cls-4" x="210.94" y="118.12" width="10.69" height="10.69"/><rect class="cls-4" x="210.94" y="107.43" width="10.69" height="10.69"/><polygon class="cls-3" points="221.63 96.73 221.63 107.43 210.94 107.43 200.25 107.43 189.55 107.43 189.55 96.73 189.55 86.04 189.55 75.35 189.55 64.65 189.55 53.96 200.25 53.96 200.25 43.27 200.25 32.57 210.94 32.57 210.94 21.88 210.94 11.19 221.63 11.19 221.63 21.88 221.63 32.57 221.63 43.27 221.63 53.96 221.63 64.65 221.63 75.35 221.63 86.04 221.63 96.73"/><rect class="cls-1" x="210.94" y="0.5" width="10.69" height="10.69"/><rect class="cls-1" x="200.25" y="139.51" width="10.69" height="10.69"/><rect class="cls-2" x="200.25" y="128.81" width="10.69" height="10.7"/><rect class="cls-2" x="200.25" y="118.12" width="10.69" height="10.69"/><rect class="cls-2" x="200.25" y="107.43" width="10.69" height="10.69"/><rect class="cls-1" x="200.25" y="21.88" width="10.69" height="10.69"/><rect class="cls-1" x="200.25" y="11.19" width="10.69" height="10.69"/><rect class="cls-1" x="189.55" y="128.81" width="10.7" height="10.7"/><rect class="cls-1" x="189.55" y="118.12" width="10.7" height="10.69"/><rect class="cls-2" x="189.55" y="107.43" width="10.7" height="10.69"/><rect class="cls-1" x="189.55" y="43.27" width="10.7" height="10.69"/><rect class="cls-1" x="189.55" y="32.57" width="10.7" height="10.7"/><rect class="cls-1" x="178.86" y="107.43" width="10.69" height="10.69"/><rect class="cls-1" x="178.86" y="96.73" width="10.69" height="10.7"/><rect class="cls-1" x="178.86" y="86.04" width="10.69" height="10.69"/><rect class="cls-1" x="178.86" y="75.35" width="10.69" height="10.69"/><rect class="cls-1" x="178.86" y="64.65" width="10.69" height="10.7"/><rect class="cls-1" x="178.86" y="53.96" width="10.69" height="10.69"/><path d="M292,39.08V64.67H279.21V51.88H266.42V64.67H253.63v-32h32v6.4Z"/><path d="M337.6,39.08V64.67H324.81V51.88H312V64.67H299.23v-32h32v6.4Z"/><path d="M383.2,39.08V64.67H370.41V51.88H357.62V64.67H344.83v-32h32v6.4Z"/><path d="M403.22,64.67H390.43V51.88h12.79Z"/><path d="M423.24,64.67H410.45V51.88h12.79Z"/><path d="M443.26,64.67H430.47V51.88h12.79Z"/><path d="M489.69,26.28H476.9v-6.4h12.79Zm0,6.4v32H476.9v-32Z"/><path d="M535.28,39.08V64.67H522.49V39.08H509.7V64.67H496.91v-32h32v6.4Z"/><path d="M568.09,58.28v6.39H555.31V58.28h-6.4V39.08h-6.39v-6.4h6.39V19.88H561.7v12.8h6.39v6.4H561.7v19.2Z"/><path d="M613.69,39.08v12.8H588.11v6.4h25.58v6.39h-32V58.28h-6.4V39.08h6.4v-6.4H607.3v6.4Zm-12.79,0H588.11v6.4H600.9Z"/><path d="M659.3,39.08v6.4H646.51v-6.4h-6.4v6.4h-6.39V64.67H620.93v-32h32v6.4Z"/><path d="M704.9,39.08v12.8H679.32v6.4H704.9v6.39h-32V58.28h-6.39V39.08h6.39v-6.4H698.5v6.4Zm-12.79,0H679.32v6.4h12.79Z"/><path d="M750.5,45.48H712.13v-6.4H750.5Z"/><path d="M306.45,109.48h19.19v6.4H332v6.4h-6.39v6.39h-32v-6.39h25.58v-6.4H300.06v-6.4h-6.4v-6.4h6.4v-6.4h32v6.4H306.45Z"/><path d="M377.63,103.08v25.59h-32v-6.39h-6.4v-6.4h6.4v-6.4h19.18v-6.4H345.66v-6.4h25.58v6.4Zm-12.79,12.8H352.05v6.4h12.79Z"/><path d="M423.23,103.08v25.59H410.45V103.08H397.66v25.59H384.87v-32h32v6.4Z"/><path d="M456.05,122.28v6.39H443.26v-6.39h-6.4v-19.2h-6.39v-6.4h6.39V83.88h12.79v12.8h6.4v6.4h-6.4v19.2Z"/><path d="M501.64,103.08v12.8H476.07v6.4h25.57v6.39h-32v-6.39h-6.39v-19.2h6.39v-6.4h25.58v6.4Zm-12.78,0H476.07v6.4h12.79Z"/><path d="M573.66,122.28h-6.4v6.39H541.68v-6.39h-6.39v-12.8h6.39v-6.4h6.4v-6.4h12.79v6.4h-6.4v6.4h-6.39v12.8h12.79v-6.4h12.79Zm-25.58-32v-6.4h12.79v6.4Z"/><path d="M619.26,103.08v25.59H606.47V103.08H593.68v25.59H580.89v-32h32v6.4Z"/><path d="M664.86,103.08v19.2h-6.39v6.39H632.89v-6.39h-6.4v-19.2h6.4v-6.4h25.58v6.4Zm-12.79,0H639.28v19.2h12.79Z"/><path d="M710.46,90.28v12.8h-6.39v6.4h-6.4v6.4H684.88v-6.4h6.4v-6.4h6.39V90.28H684.88v6.4H672.09v-6.4h6.4v-6.4h25.58v6.4Zm-12.79,32v6.39H684.88v-6.39Z"/></svg>