<svg xmlns="http://www.w3.org/2000/svg" viewBox="0 0 224.56 245.94"><defs><style>.cls-1{fill:#fd913c;}.cls-2{fill:#7b97d1;}.cls-3{fill:#d0e2ee;}.cls-4{fill:#a8c2e1;}.cls-5{fill:#bb570f;}.cls-6{fill:#4895ef;}.cls-7{fill:#3a4d5c;}.cls-8{fill:#fd750d;}.cls-9{fill:#143441;}.cls-10{fill:#801231;}.cls-11{fill:#4377d1;}.cls-12{fill:#91a9d9;}.cls-13{fill:#dc1c4b;}</style></defs><g id="Capa_2" data-name="Capa 2"><g id="logoMaker"><rect class="cls-1" x="213.86" y="42.77" width="10.7" height="10.7"/><rect class="cls-1" x="213.86" y="32.08" width="10.7" height="10.69"/><rect class="cls-1" x="213.86" y="21.39" width="10.7" height="10.69"/><rect class="cls-1" x="213.86" y="10.69" width="10.7" height="10.7"/><rect class="cls-2" x="203.17" y="224.55" width="10.69" height="10.7"/><rect class="cls-2" x="203.17" y="213.86" width="10.69" height="10.69"/><rect class="cls-2" x="203.17" y="203.17" width="10.69" height="10.69"/><rect class="cls-1" x="203.17" y="53.47" width="10.69" height="10.69"/><rect class="cls-1" x="203.17" y="42.77" width="10.69" height="10.7"/><rect class="cls-1" x="203.17" y="32.08" width="10.69" height="10.69"/><rect class="cls-1" x="203.17" y="21.39" width="10.69" height="10.69"/><rect class="cls-1" x="203.17" y="10.69" width="10.69" height="10.7"/><rect class="cls-1" x="203.17" width="10.69" height="10.69"/><rect class="cls-2" x="192.48" y="235.25" width="10.69" height="10.69"/><rect class="cls-2" x="192.48" y="224.55" width="10.69" height="10.7"/><rect class="cls-2" x="192.48" y="213.86" width="10.69" height="10.69"/><rect class="cls-2" x="192.48" y="203.17" width="10.69" height="10.69"/><rect class="cls-2" x="192.48" y="192.47" width="10.69" height="10.7"/><rect class="cls-3" x="192.48" y="181.78" width="10.69" height="10.69"/><rect class="cls-3" x="192.48" y="171.09" width="10.69" height="10.69"/><rect class="cls-3" x="192.48" y="160.4" width="10.69" height="10.69"/><rect class="cls-3" x="192.48" y="149.7" width="10.69" height="10.7"/><rect class="cls-3" x="192.48" y="139.01" width="10.69" height="10.69"/><rect class="cls-3" x="192.48" y="128.32" width="10.69" height="10.69"/><rect class="cls-3" x="192.48" y="117.62" width="10.69" height="10.7"/><rect class="cls-3" x="192.48" y="106.93" width="10.69" height="10.69"/><rect class="cls-3" x="192.48" y="96.24" width="10.69" height="10.69"/><rect class="cls-3" x="192.48" y="85.54" width="10.69" height="10.7"/><rect class="cls-3" x="192.48" y="74.85" width="10.69" height="10.69"/><rect class="cls-4" x="192.48" y="64.16" width="10.69" height="10.69"/><rect class="cls-1" x="192.48" y="53.47" width="10.69" height="10.69"/><rect class="cls-5" x="192.48" y="42.77" width="10.69" height="10.7"/><rect class="cls-5" x="192.48" y="32.08" width="10.69" height="10.69"/><rect class="cls-1" x="192.48" y="21.39" width="10.69" height="10.69"/><rect class="cls-5" x="192.48" y="10.69" width="10.69" height="10.7"/><rect class="cls-1" x="192.48" width="10.69" height="10.69"/><rect class="cls-2" x="181.78" y="235.25" width="10.7" height="10.69"/><rect class="cls-2" x="181.78" y="224.55" width="10.7" height="10.7"/><rect class="cls-2" x="181.78" y="213.86" width="10.7" height="10.69"/><rect class="cls-2" x="181.78" y="203.17" width="10.7" height="10.69"/><rect class="cls-2" x="181.78" y="192.47" width="10.7" height="10.7"/><rect class="cls-3" x="181.78" y="181.78" width="10.7" height="10.69"/><rect class="cls-6" x="181.78" y="171.09" width="10.7" height="10.69"/><rect class="cls-3" x="181.78" y="160.4" width="10.7" height="10.69"/><rect class="cls-7" x="181.78" y="149.7" width="10.7" height="10.7"/><rect class="cls-7" x="181.78" y="139.01" width="10.7" height="10.69"/><rect class="cls-7" x="181.78" y="128.32" width="10.7" height="10.69"/><rect class="cls-7" x="181.78" y="117.62" width="10.7" height="10.7"/><rect class="cls-3" x="181.78" y="106.93" width="10.7" height="10.69"/><rect class="cls-3" x="181.78" y="96.24" width="10.7" height="10.69"/><rect class="cls-3" x="181.78" y="85.54" width="10.7" height="10.7"/><rect class="cls-3" x="181.78" y="74.85" width="10.7" height="10.69"/><rect class="cls-4" x="181.78" y="64.16" width="10.7" height="10.69"/><rect class="cls-1" x="181.78" y="53.47" width="10.7" height="10.69"/><rect class="cls-5" x="181.78" y="42.77" width="10.7" height="10.7"/><rect class="cls-1" x="181.78" y="32.08" width="10.7" height="10.69"/><rect class="cls-5" x="181.78" y="21.39" width="10.7" height="10.69"/><rect class="cls-5" x="181.78" y="10.69" width="10.7" height="10.7"/><rect class="cls-1" x="181.78" width="10.7" height="10.69"/><rect class="cls-2" x="171.09" y="235.25" width="10.69" height="10.69"/><rect class="cls-2" x="171.09" y="224.55" width="10.69" height="10.7"/><rect class="cls-2" x="171.09" y="213.86" width="10.69" height="10.69"/><rect class="cls-2" x="171.09" y="203.17" width="10.69" height="10.69"/><rect class="cls-2" x="171.09" y="192.47" width="10.69" height="10.7"/><rect class="cls-3" x="171.09" y="181.78" width="10.69" height="10.69"/><rect class="cls-6" x="171.09" y="171.09" width="10.69" height="10.69"/><rect class="cls-3" x="171.09" y="160.4" width="10.69" height="10.69"/><rect class="cls-7" x="171.09" y="149.7" width="10.69" height="10.7"/><rect class="cls-3" x="171.09" y="139.01" width="10.69" height="10.69"/><rect class="cls-3" x="171.09" y="128.32" width="10.69" height="10.69"/><rect class="cls-7" x="171.09" y="117.62" width="10.69" height="10.7"/><rect class="cls-3" x="171.09" y="106.93" width="10.69" height="10.69"/><rect class="cls-3" x="171.09" y="96.24" width="10.69" height="10.69"/><rect class="cls-3" x="171.09" y="85.54" width="10.69" height="10.7"/><rect class="cls-1" x="171.09" y="74.85" width="10.69" height="10.69"/><rect class="cls-8" x="171.09" y="64.16" width="10.69" height="10.69"/><rect class="cls-1" x="171.09" y="53.47" width="10.69" height="10.69"/><rect class="cls-1" x="171.09" y="42.77" width="10.69" height="10.7"/><rect class="cls-1" x="171.09" y="32.08" width="10.69" height="10.69"/><rect class="cls-1" x="171.09" y="21.39" width="10.69" height="10.69"/><rect class="cls-1" x="171.09" y="10.69" width="10.69" height="10.7"/><rect class="cls-1" x="171.09" width="10.69" height="10.69"/><rect class="cls-2" x="160.4" y="235.25" width="10.69" height="10.69"/><rect class="cls-2" x="160.4" y="224.55" width="10.69" height="10.7"/><rect class="cls-2" x="160.4" y="213.86" width="10.69" height="10.69"/><rect class="cls-2" x="160.4" y="203.17" width="10.69" height="10.69"/><rect class="cls-2" x="160.4" y="192.47" width="10.69" height="10.7"/><rect class="cls-3" x="160.4" y="181.78" width="10.69" height="10.69"/><rect class="cls-6" x="160.4" y="171.09" width="10.69" height="10.69"/><rect class="cls-3" x="160.4" y="160.4" width="10.69" height="10.69"/><rect class="cls-7" x="160.4" y="149.7" width="10.69" height="10.7"/><rect class="cls-3" x="160.4" y="139.01" width="10.69" height="10.69"/><rect class="cls-9" x="160.4" y="128.32" width="10.69" height="10.69"/><rect class="cls-7" x="160.4" y="117.62" width="10.69" height="10.7"/><rect class="cls-3" x="160.4" y="106.93" width="10.69" height="10.69"/><rect class="cls-3" x="160.4" y="96.24" width="10.69" height="10.69"/><rect class="cls-1" x="160.4" y="85.54" width="10.69" height="10.7"/><rect class="cls-1" x="160.4" y="74.85" width="10.69" height="10.69"/><rect class="cls-1" x="160.4" y="64.16" width="10.69" height="10.69"/><rect class="cls-8" x="160.4" y="53.47" width="10.69" height="10.69"/><rect class="cls-1" x="160.4" y="42.77" width="10.69" height="10.7"/><rect class="cls-1" x="160.4" y="32.08" width="10.69" height="10.69"/><rect class="cls-1" x="160.4" y="21.39" width="10.69" height="10.69"/><rect class="cls-1" x="160.4" y="10.69" width="10.69" height="10.7"/><rect class="cls-2" x="149.71" y="235.25" width="10.69" height="10.69"/><rect class="cls-2" x="149.71" y="224.55" width="10.69" height="10.7"/><rect class="cls-2" x="149.71" y="213.86" width="10.69" height="10.69"/><rect class="cls-2" x="149.71" y="203.17" width="10.69" height="10.69"/><rect class="cls-2" x="149.71" y="192.47" width="10.69" height="10.7"/><rect class="cls-3" x="149.71" y="181.78" width="10.69" height="10.69"/><rect class="cls-6" x="149.71" y="171.09" width="10.69" height="10.69"/><rect class="cls-3" x="149.71" y="160.4" width="10.69" height="10.69"/><rect class="cls-7" x="149.71" y="149.7" width="10.69" height="10.7"/><rect class="cls-3" x="149.71" y="139.01" width="10.69" height="10.69"/><rect class="cls-9" x="149.71" y="128.32" width="10.69" height="10.69"/><rect class="cls-7" x="149.71" y="117.62" width="10.69" height="10.7"/><rect class="cls-3" x="149.71" y="106.93" width="10.69" height="10.69"/><rect class="cls-3" x="149.71" y="96.24" width="10.69" height="10.69"/><rect class="cls-1" x="149.71" y="85.54" width="10.69" height="10.7"/><rect class="cls-5" x="149.71" y="74.85" width="10.69" height="10.69"/><rect class="cls-5" x="149.71" y="64.16" width="10.69" height="10.69"/><rect class="cls-1" x="149.71" y="53.47" width="10.69" height="10.69"/><rect class="cls-5" x="149.71" y="42.77" width="10.69" height="10.7"/><rect class="cls-8" x="149.71" y="32.08" width="10.69" height="10.69"/><rect class="cls-4" x="149.71" y="21.39" width="10.69" height="10.69"/><rect class="cls-4" x="149.71" y="10.69" width="10.69" height="10.7"/><rect class="cls-2" x="139.01" y="235.25" width="10.7" height="10.69"/><rect class="cls-2" x="139.01" y="224.55" width="10.7" height="10.7"/><rect class="cls-2" x="139.01" y="213.86" width="10.7" height="10.69"/><rect class="cls-2" x="139.01" y="203.17" width="10.7" height="10.69"/><rect class="cls-2" x="139.01" y="192.47" width="10.7" height="10.7"/><rect class="cls-3" x="139.01" y="181.78" width="10.7" height="10.69"/><rect class="cls-3" x="139.01" y="171.09" width="10.7" height="10.69"/><rect class="cls-3" x="139.01" y="160.4" width="10.7" height="10.69"/><rect class="cls-7" x="139.01" y="149.7" width="10.7" height="10.7"/><rect class="cls-3" x="139.01" y="139.01" width="10.7" height="10.69"/><rect class="cls-3" x="139.01" y="128.32" width="10.7" height="10.69"/><rect class="cls-7" x="139.01" y="117.62" width="10.7" height="10.7"/><rect class="cls-3" x="139.01" y="106.93" width="10.7" height="10.69"/><rect class="cls-3" x="139.01" y="96.24" width="10.7" height="10.69"/><rect class="cls-1" x="139.01" y="85.54" width="10.7" height="10.7"/><rect class="cls-5" x="139.01" y="74.85" width="10.7" height="10.69"/><rect class="cls-1" x="139.01" y="64.16" width="10.7" height="10.69"/><rect class="cls-5" x="139.01" y="53.47" width="10.7" height="10.69"/><rect class="cls-5" x="139.01" y="42.77" width="10.7" height="10.7"/><rect class="cls-1" x="139.01" y="32.08" width="10.7" height="10.69"/><rect class="cls-3" x="139.01" y="21.39" width="10.7" height="10.69"/><rect class="cls-3" x="139.01" y="10.69" width="10.7" height="10.7"/><rect class="cls-2" x="128.32" y="235.25" width="10.69" height="10.69"/><rect class="cls-2" x="128.32" y="224.55" width="10.69" height="10.7"/><rect class="cls-2" x="128.32" y="213.86" width="10.69" height="10.69"/><rect class="cls-2" x="128.32" y="203.17" width="10.69" height="10.69"/><rect class="cls-2" x="128.32" y="192.47" width="10.69" height="10.7"/><rect class="cls-3" x="128.32" y="181.78" width="10.69" height="10.69"/><rect class="cls-3" x="128.32" y="171.09" width="10.69" height="10.69"/><rect class="cls-3" x="128.32" y="160.4" width="10.69" height="10.69"/><rect class="cls-7" x="128.32" y="149.7" width="10.69" height="10.7"/><rect class="cls-7" x="128.32" y="139.01" width="10.69" height="10.69"/><rect class="cls-7" x="128.32" y="128.32" width="10.69" height="10.69"/><rect class="cls-7" x="128.32" y="117.62" width="10.69" height="10.7"/><rect class="cls-3" x="128.32" y="106.93" width="10.69" height="10.69"/><rect class="cls-3" x="128.32" y="96.24" width="10.69" height="10.69"/><rect class="cls-1" x="128.32" y="85.54" width="10.69" height="10.7"/><rect class="cls-1" x="128.32" y="74.85" width="10.69" height="10.69"/><rect class="cls-1" x="128.32" y="64.16" width="10.69" height="10.69"/><rect class="cls-1" x="128.32" y="53.47" width="10.69" height="10.69"/><rect class="cls-1" x="128.32" y="42.77" width="10.69" height="10.7"/><rect class="cls-1" x="128.32" y="32.08" width="10.69" height="10.69"/><rect class="cls-3" x="128.32" y="21.39" width="10.69" height="10.69"/><rect class="cls-3" x="128.32" y="10.69" width="10.69" height="10.7"/><rect class="cls-2" x="117.63" y="235.25" width="10.69" height="10.69"/><rect class="cls-2" x="117.63" y="224.55" width="10.69" height="10.7"/><rect class="cls-2" x="117.63" y="213.86" width="10.69" height="10.69"/><rect class="cls-2" x="117.63" y="203.17" width="10.69" height="10.69"/><rect class="cls-2" x="117.63" y="192.47" width="10.69" height="10.7"/><rect class="cls-3" x="117.63" y="181.78" width="10.69" height="10.69"/><rect class="cls-3" x="117.63" y="171.09" width="10.69" height="10.69"/><rect class="cls-3" x="117.63" y="160.4" width="10.69" height="10.69"/><rect class="cls-7" x="117.63" y="149.7" width="10.69" height="10.7"/><rect class="cls-3" x="117.63" y="139.01" width="10.69" height="10.69"/><rect class="cls-3" x="117.63" y="128.32" width="10.69" height="10.69"/><rect class="cls-7" x="117.63" y="117.62" width="10.69" height="10.7"/><rect class="cls-3" x="117.63" y="106.93" width="10.69" height="10.69"/><rect class="cls-3" x="117.63" y="96.24" width="10.69" height="10.69"/><rect class="cls-3" x="117.63" y="85.54" width="10.69" height="10.7"/><rect class="cls-1" x="117.63" y="74.85" width="10.69" height="10.69"/><rect class="cls-1" x="117.63" y="64.16" width="10.69" height="10.69"/><rect class="cls-1" x="117.63" y="53.47" width="10.69" height="10.69"/><rect class="cls-1" x="117.63" y="42.77" width="10.69" height="10.7"/><rect class="cls-3" x="117.63" y="32.08" width="10.69" height="10.69"/><rect class="cls-3" x="117.63" y="21.39" width="10.69" height="10.69"/><rect class="cls-3" x="117.63" y="10.69" width="10.69" height="10.7"/><rect class="cls-2" x="106.93" y="235.25" width="10.7" height="10.69"/><rect class="cls-2" x="106.93" y="224.55" width="10.7" height="10.7"/><rect class="cls-2" x="106.93" y="213.86" width="10.7" height="10.69"/><rect class="cls-2" x="106.93" y="203.17" width="10.7" height="10.69"/><rect class="cls-2" x="106.93" y="192.47" width="10.7" height="10.7"/><rect class="cls-3" x="106.93" y="181.78" width="10.7" height="10.69"/><rect class="cls-3" x="106.93" y="171.09" width="10.7" height="10.69"/><rect class="cls-3" x="106.93" y="160.4" width="10.7" height="10.69"/><rect class="cls-7" x="106.93" y="149.7" width="10.7" height="10.7"/><rect class="cls-3" x="106.93" y="139.01" width="10.7" height="10.69"/><rect class="cls-9" x="106.93" y="128.32" width="10.7" height="10.69"/><rect class="cls-7" x="106.93" y="117.62" width="10.7" height="10.7"/><rect class="cls-3" x="106.93" y="106.93" width="10.7" height="10.69"/><rect class="cls-9" x="106.93" y="96.24" width="10.7" height="10.69"/><rect class="cls-3" x="106.93" y="85.54" width="10.7" height="10.7"/><rect class="cls-3" x="106.93" y="74.85" width="10.7" height="10.69"/><rect class="cls-3" x="106.93" y="64.16" width="10.7" height="10.69"/><rect class="cls-3" x="106.93" y="53.47" width="10.7" height="10.69"/><rect class="cls-3" x="106.93" y="42.77" width="10.7" height="10.7"/><rect class="cls-3" x="106.93" y="32.08" width="10.7" height="10.69"/><rect class="cls-9" x="106.93" y="21.39" width="10.7" height="10.69"/><rect class="cls-3" x="106.93" y="10.69" width="10.7" height="10.7"/><rect class="cls-2" x="96.24" y="235.25" width="10.69" height="10.69"/><rect class="cls-2" x="96.24" y="224.55" width="10.69" height="10.7"/><rect class="cls-2" x="96.24" y="213.86" width="10.69" height="10.69"/><rect class="cls-2" x="96.24" y="203.17" width="10.69" height="10.69"/><rect class="cls-2" x="96.24" y="192.47" width="10.69" height="10.7"/><rect class="cls-3" x="96.24" y="181.78" width="10.69" height="10.69"/><rect class="cls-10" x="96.24" y="171.09" width="10.69" height="10.69"/><rect class="cls-3" x="96.24" y="160.4" width="10.69" height="10.69"/><rect class="cls-7" x="96.24" y="149.7" width="10.69" height="10.7"/><rect class="cls-3" x="96.24" y="139.01" width="10.69" height="10.69"/><rect class="cls-9" x="96.24" y="128.32" width="10.69" height="10.69"/><rect class="cls-7" x="96.24" y="117.62" width="10.69" height="10.7"/><rect class="cls-3" x="96.24" y="106.93" width="10.69" height="10.69"/><rect class="cls-9" x="96.24" y="96.24" width="10.69" height="10.69"/><rect class="cls-3" x="96.24" y="85.54" width="10.69" height="10.7"/><rect class="cls-3" x="96.24" y="74.85" width="10.69" height="10.69"/><rect class="cls-3" x="96.24" y="64.16" width="10.69" height="10.69"/><rect class="cls-3" x="96.24" y="53.47" width="10.69" height="10.69"/><rect class="cls-3" x="96.24" y="42.77" width="10.69" height="10.7"/><rect class="cls-3" x="96.24" y="32.08" width="10.69" height="10.69"/><rect class="cls-9" x="96.24" y="21.39" width="10.69" height="10.69"/><rect class="cls-3" x="96.24" y="10.69" width="10.69" height="10.7"/><rect class="cls-2" x="85.55" y="235.25" width="10.69" height="10.69"/><rect class="cls-2" x="85.55" y="224.55" width="10.69" height="10.7"/><rect class="cls-2" x="85.55" y="213.86" width="10.69" height="10.69"/><rect class="cls-2" x="85.55" y="203.17" width="10.69" height="10.69"/><rect class="cls-2" x="85.55" y="192.47" width="10.69" height="10.7"/><rect class="cls-3" x="85.55" y="181.78" width="10.69" height="10.69"/><rect class="cls-10" x="85.55" y="171.09" width="10.69" height="10.69"/><rect class="cls-3" x="85.55" y="160.4" width="10.69" height="10.69"/><rect class="cls-7" x="85.55" y="149.7" width="10.69" height="10.7"/><rect class="cls-3" x="85.55" y="139.01" width="10.69" height="10.69"/><rect class="cls-9" x="85.55" y="128.32" width="10.69" height="10.69"/><rect class="cls-7" x="85.55" y="117.62" width="10.69" height="10.7"/><rect class="cls-3" x="85.55" y="106.93" width="10.69" height="10.69"/><rect class="cls-9" x="85.55" y="96.24" width="10.69" height="10.69"/><rect class="cls-3" x="85.55" y="85.54" width="10.69" height="10.7"/><rect class="cls-9" x="85.55" y="74.85" width="10.69" height="10.69"/><rect class="cls-3" x="85.55" y="64.16" width="10.69" height="10.69"/><rect class="cls-3" x="85.55" y="53.47" width="10.69" height="10.69"/><rect class="cls-9" x="85.55" y="42.77" width="10.69" height="10.7"/><rect class="cls-3" x="85.55" y="32.08" width="10.69" height="10.69"/><rect class="cls-9" x="85.55" y="21.39" width="10.69" height="10.69"/><rect class="cls-3" x="85.55" y="10.69" width="10.69" height="10.7"/><rect class="cls-2" x="74.85" y="235.25" width="10.7" height="10.69"/><rect class="cls-2" x="74.85" y="224.55" width="10.7" height="10.7"/><rect class="cls-2" x="74.85" y="213.86" width="10.7" height="10.69"/><rect class="cls-2" x="74.85" y="203.17" width="10.7" height="10.69"/><rect class="cls-2" x="74.85" y="192.47" width="10.7" height="10.7"/><rect class="cls-3" x="74.85" y="181.78" width="10.7" height="10.69"/><rect class="cls-10" x="74.85" y="171.09" width="10.7" height="10.69"/><rect class="cls-3" x="74.85" y="160.4" width="10.7" height="10.69"/><rect class="cls-7" x="74.85" y="149.7" width="10.7" height="10.7"/><rect class="cls-3" x="74.85" y="139.01" width="10.7" height="10.69"/><rect class="cls-9" x="74.85" y="128.32" width="10.7" height="10.69"/><rect class="cls-7" x="74.85" y="117.62" width="10.7" height="10.7"/><rect class="cls-3" x="74.85" y="106.93" width="10.7" height="10.69"/><rect class="cls-9" x="74.85" y="96.24" width="10.7" height="10.69"/><rect class="cls-3" x="74.85" y="85.54" width="10.7" height="10.7"/><rect class="cls-9" x="74.85" y="74.85" width="10.7" height="10.69"/><rect class="cls-3" x="74.85" y="64.16" width="10.7" height="10.69"/><rect class="cls-3" x="74.85" y="53.47" width="10.7" height="10.69"/><rect class="cls-9" x="74.85" y="42.77" width="10.7" height="10.7"/><rect class="cls-3" x="74.85" y="32.08" width="10.7" height="10.69"/><rect class="cls-9" x="74.85" y="21.39" width="10.7" height="10.69"/><rect class="cls-3" x="74.85" y="10.69" width="10.7" height="10.7"/><rect class="cls-2" x="64.16" y="235.25" width="10.69" height="10.69"/><rect class="cls-2" x="64.16" y="224.55" width="10.69" height="10.7"/><rect class="cls-2" x="64.16" y="213.86" width="10.69" height="10.69"/><rect class="cls-2" x="64.16" y="203.17" width="10.69" height="10.69"/><rect class="cls-2" x="64.16" y="192.47" width="10.69" height="10.7"/><rect class="cls-3" x="64.16" y="181.78" width="10.69" height="10.69"/><rect class="cls-10" x="64.16" y="171.09" width="10.69" height="10.69"/><rect class="cls-3" x="64.16" y="160.4" width="10.69" height="10.69"/><rect class="cls-7" x="64.16" y="149.7" width="10.69" height="10.7"/><rect class="cls-3" x="64.16" y="139.01" width="10.69" height="10.69"/><rect class="cls-9" x="64.16" y="128.32" width="10.69" height="10.69"/><rect class="cls-7" x="64.16" y="117.62" width="10.69" height="10.7"/><rect class="cls-3" x="64.16" y="106.93" width="10.69" height="10.69"/><rect class="cls-9" x="64.16" y="96.24" width="10.69" height="10.69"/><rect class="cls-3" x="64.16" y="85.54" width="10.69" height="10.7"/><rect class="cls-9" x="64.16" y="74.85" width="10.69" height="10.69"/><rect class="cls-3" x="64.16" y="64.16" width="10.69" height="10.69"/><rect class="cls-3" x="64.16" y="53.47" width="10.69" height="10.69"/><rect class="cls-3" x="64.16" y="42.77" width="10.69" height="10.7"/><rect class="cls-3" x="64.16" y="32.08" width="10.69" height="10.69"/><rect class="cls-3" x="64.16" y="21.39" width="10.69" height="10.69"/><rect class="cls-3" x="64.16" y="10.69" width="10.69" height="10.7"/><rect class="cls-2" x="53.47" y="235.25" width="10.69" height="10.69"/><rect class="cls-2" x="53.47" y="224.55" width="10.69" height="10.7"/><rect class="cls-2" x="53.47" y="213.86" width="10.69" height="10.69"/><rect class="cls-2" x="53.47" y="203.17" width="10.69" height="10.69"/><rect class="cls-2" x="53.47" y="192.47" width="10.69" height="10.7"/><rect class="cls-3" x="53.47" y="181.78" width="10.69" height="10.69"/><rect class="cls-3" x="53.47" y="171.09" width="10.69" height="10.69"/><rect class="cls-3" x="53.47" y="160.4" width="10.69" height="10.69"/><rect class="cls-7" x="53.47" y="149.7" width="10.69" height="10.7"/><rect class="cls-3" x="53.47" y="139.01" width="10.69" height="10.69"/><rect class="cls-9" x="53.47" y="128.32" width="10.69" height="10.69"/><rect class="cls-7" x="53.47" y="117.62" width="10.69" height="10.7"/><rect class="cls-3" x="53.47" y="106.93" width="10.69" height="10.69"/><rect class="cls-9" x="53.47" y="96.24" width="10.69" height="10.69"/><rect class="cls-3" x="53.47" y="85.54" width="10.69" height="10.7"/><rect class="cls-3" x="53.47" y="74.85" width="10.69" height="10.69"/><rect class="cls-3" x="53.47" y="64.16" width="10.69" height="10.69"/><rect class="cls-11" x="53.47" y="53.47" width="10.69" height="10.69"/><rect class="cls-11" x="53.47" y="42.77" width="10.69" height="10.7"/><rect class="cls-11" x="53.47" y="32.08" width="10.69" height="10.69"/><rect class="cls-11" x="53.47" y="21.39" width="10.69" height="10.69"/><rect class="cls-3" x="53.47" y="10.69" width="10.69" height="10.7"/><rect class="cls-12" x="42.78" y="235.25" width="10.69" height="10.69"/><rect class="cls-12" x="42.78" y="224.55" width="10.69" height="10.7"/><rect class="cls-12" x="42.78" y="213.86" width="10.69" height="10.69"/><rect class="cls-12" x="42.78" y="203.17" width="10.69" height="10.69"/><rect class="cls-2" x="42.78" y="192.47" width="10.69" height="10.7"/><rect class="cls-3" x="42.78" y="181.78" width="10.69" height="10.69"/><rect class="cls-13" x="42.78" y="171.09" width="10.69" height="10.69"/><rect class="cls-3" x="42.78" y="160.4" width="10.69" height="10.69"/><rect class="cls-7" x="42.78" y="149.7" width="10.69" height="10.7"/><rect class="cls-3" x="42.78" y="139.01" width="10.69" height="10.69"/><rect class="cls-3" x="42.78" y="128.32" width="10.69" height="10.69"/><rect class="cls-7" x="42.78" y="117.62" width="10.69" height="10.7"/><rect class="cls-3" x="42.78" y="106.93" width="10.69" height="10.69"/><rect class="cls-9" x="42.78" y="96.24" width="10.69" height="10.69"/><rect class="cls-3" x="42.78" y="85.54" width="10.69" height="10.7"/><rect class="cls-9" x="42.78" y="74.85" width="10.69" height="10.69"/><rect class="cls-3" x="42.78" y="64.16" width="10.69" height="10.69"/><rect class="cls-6" x="42.78" y="53.47" width="10.69" height="10.69"/><rect class="cls-6" x="42.78" y="42.77" width="10.69" height="10.7"/><rect class="cls-6" x="42.78" y="32.08" width="10.69" height="10.69"/><rect class="cls-11" x="42.78" y="21.39" width="10.69" height="10.69"/><rect class="cls-3" x="42.78" y="10.69" width="10.69" height="10.7"/><rect class="cls-12" x="32.08" y="235.25" width="10.7" height="10.69"/><rect class="cls-12" x="32.08" y="224.55" width="10.7" height="10.7"/><rect class="cls-3" x="32.08" y="213.86" width="10.7" height="10.69"/><rect class="cls-3" x="32.08" y="203.17" width="10.7" height="10.69"/><rect class="cls-12" x="32.08" y="192.47" width="10.7" height="10.7"/><rect class="cls-3" x="32.08" y="181.78" width="10.7" height="10.69"/><rect class="cls-13" x="32.08" y="171.09" width="10.7" height="10.69"/><rect class="cls-3" x="32.08" y="160.4" width="10.7" height="10.69"/><rect class="cls-7" x="32.08" y="149.7" width="10.7" height="10.7"/><rect class="cls-7" x="32.08" y="139.01" width="10.7" height="10.69"/><rect class="cls-7" x="32.08" y="128.32" width="10.7" height="10.69"/><rect class="cls-7" x="32.08" y="117.62" width="10.7" height="10.7"/><rect class="cls-3" x="32.08" y="106.93" width="10.7" height="10.69"/><rect class="cls-9" x="32.08" y="96.24" width="10.7" height="10.69"/><rect class="cls-3" x="32.08" y="85.54" width="10.7" height="10.7"/><rect class="cls-9" x="32.08" y="74.85" width="10.7" height="10.69"/><rect class="cls-3" x="32.08" y="64.16" width="10.7" height="10.69"/><rect class="cls-6" x="32.08" y="53.47" width="10.7" height="10.69"/><rect class="cls-6" x="32.08" y="42.77" width="10.7" height="10.7"/><rect class="cls-6" x="32.08" y="32.08" width="10.7" height="10.69"/><rect class="cls-11" x="32.08" y="21.39" width="10.7" height="10.69"/><rect class="cls-3" x="32.08" y="10.69" width="10.7" height="10.7"/><rect class="cls-12" x="21.39" y="235.25" width="10.69" height="10.69"/><rect class="cls-3" x="21.39" y="224.55" width="10.69" height="10.7"/><rect class="cls-12" x="21.39" y="213.86" width="10.69" height="10.69"/><rect class="cls-12" x="21.39" y="203.17" width="10.69" height="10.69"/><rect class="cls-3" x="21.39" y="192.47" width="10.69" height="10.7"/><rect class="cls-3" x="21.39" y="181.78" width="10.69" height="10.69"/><rect class="cls-3" x="21.39" y="171.09" width="10.69" height="10.69"/><rect class="cls-3" x="21.39" y="160.4" width="10.69" height="10.69"/><rect class="cls-3" x="21.39" y="149.7" width="10.69" height="10.7"/><rect class="cls-3" x="21.39" y="139.01" width="10.69" height="10.69"/><rect class="cls-3" x="21.39" y="128.32" width="10.69" height="10.69"/><rect class="cls-3" x="21.39" y="117.62" width="10.69" height="10.7"/><rect class="cls-3" x="21.39" y="106.93" width="10.69" height="10.69"/><rect class="cls-3" x="21.39" y="96.24" width="10.69" height="10.69"/><rect class="cls-3" x="21.39" y="85.54" width="10.69" height="10.7"/><rect class="cls-3" x="21.39" y="74.85" width="10.69" height="10.69"/><rect class="cls-3" x="21.39" y="64.16" width="10.69" height="10.69"/><rect class="cls-6" x="21.39" y="53.47" width="10.69" height="10.69"/><rect class="cls-6" x="21.39" y="42.77" width="10.69" height="10.7"/><rect class="cls-6" x="21.39" y="32.08" width="10.69" height="10.69"/><rect class="cls-11" x="21.39" y="21.39" width="10.69" height="10.69"/><rect class="cls-3" x="21.39" y="10.69" width="10.69" height="10.7"/><rect class="cls-12" x="10.7" y="235.25" width="10.69" height="10.69"/><rect class="cls-3" x="10.7" y="224.55" width="10.69" height="10.7"/><rect class="cls-3" x="10.7" y="213.86" width="10.69" height="10.69"/><rect class="cls-3" x="10.7" y="203.17" width="10.69" height="10.69"/><rect class="cls-3" x="10.7" y="192.47" width="10.69" height="10.7"/><rect class="cls-12" x="10.7" y="181.78" width="10.69" height="10.69"/><rect class="cls-12" x="10.7" y="171.09" width="10.69" height="10.69"/><rect class="cls-12" x="10.7" y="160.4" width="10.69" height="10.69"/><rect class="cls-12" x="10.7" y="149.7" width="10.69" height="10.7"/><rect class="cls-12" x="10.7" y="139.01" width="10.69" height="10.69"/><rect class="cls-12" x="10.7" y="128.32" width="10.69" height="10.69"/><rect class="cls-12" x="10.7" y="117.62" width="10.69" height="10.7"/><rect class="cls-12" x="10.7" y="106.93" width="10.69" height="10.69"/><rect class="cls-12" x="10.7" y="96.24" width="10.69" height="10.69"/><rect class="cls-12" x="10.7" y="85.54" width="10.69" height="10.7"/><rect class="cls-12" x="10.7" y="74.85" width="10.69" height="10.69"/><rect class="cls-3" x="10.7" y="64.16" width="10.69" height="10.69"/><rect class="cls-3" x="10.7" y="53.47" width="10.69" height="10.69"/><rect class="cls-3" x="10.7" y="42.77" width="10.69" height="10.7"/><rect class="cls-3" x="10.7" y="32.08" width="10.69" height="10.69"/><rect class="cls-3" x="10.7" y="21.39" width="10.69" height="10.69"/><rect class="cls-3" x="10.7" y="10.69" width="10.69" height="10.7"/><rect class="cls-12" y="224.55" width="10.7" height="10.7"/><rect class="cls-12" y="213.86" width="10.7" height="10.69"/><rect class="cls-12" y="203.17" width="10.7" height="10.69"/><rect class="cls-12" y="192.47" width="10.7" height="10.7"/><rect class="cls-12" y="64.16" width="10.7" height="10.69"/><rect class="cls-12" y="53.47" width="10.7" height="10.69"/><rect class="cls-12" y="42.77" width="10.7" height="10.7"/><rect class="cls-12" y="32.08" width="10.7" height="10.69"/><rect class="cls-12" y="21.39" width="10.7" height="10.69"/><rect class="cls-12" y="10.69" width="10.7" height="10.7"/></g></g></svg>