<svg xmlns="http://www.w3.org/2000/svg" viewBox="0 0 245.94 203.16"><defs><style>.cls-1{fill:#d92525;}.cls-2{fill:#d65959;}</style></defs><g id="Capa_2" data-name="Capa 2"><g id="logoMaker"><rect x="235.25" y="192.47" width="10.69" height="10.69"/><rect x="235.25" y="181.78" width="10.69" height="10.69"/><rect x="235.25" y="171.08" width="10.69" height="10.7"/><rect x="224.55" y="181.78" width="10.7" height="10.69"/><rect x="224.55" y="171.08" width="10.7" height="10.7"/><rect x="224.55" y="160.39" width="10.7" height="10.69"/><rect x="224.55" y="149.7" width="10.7" height="10.69"/><rect x="213.86" y="171.08" width="10.69" height="10.7"/><rect class="cls-1" x="213.86" y="160.39" width="10.69" height="10.69"/><rect class="cls-1" x="213.86" y="149.7" width="10.69" height="10.69"/><rect x="213.86" y="139.01" width="10.69" height="10.69"/><rect x="213.86" y="128.31" width="10.69" height="10.7"/><rect x="203.17" y="160.39" width="10.69" height="10.69"/><rect class="cls-1" x="203.17" y="149.7" width="10.69" height="10.69"/><rect class="cls-1" x="203.17" y="139.01" width="10.69" height="10.69"/><rect class="cls-1" x="203.17" y="128.31" width="10.69" height="10.7"/><rect x="203.17" y="117.62" width="10.69" height="10.69"/><rect x="192.47" y="149.7" width="10.7" height="10.69"/><rect class="cls-1" x="192.47" y="139.01" width="10.7" height="10.69"/><rect class="cls-1" x="192.47" y="128.31" width="10.7" height="10.7"/><rect class="cls-1" x="192.47" y="117.62" width="10.7" height="10.69"/><rect x="192.47" y="106.93" width="10.7" height="10.69"/><rect x="181.78" y="149.7" width="10.69" height="10.69"/><rect class="cls-1" x="181.78" y="139.01" width="10.69" height="10.69"/><rect class="cls-1" x="181.78" y="128.31" width="10.69" height="10.7"/><rect class="cls-1" x="181.78" y="117.62" width="10.69" height="10.69"/><rect class="cls-1" x="181.78" y="106.93" width="10.69" height="10.69"/><rect x="181.78" y="96.23" width="10.69" height="10.7"/><rect x="171.09" y="139.01" width="10.69" height="10.69"/><rect class="cls-1" x="171.09" y="128.31" width="10.69" height="10.7"/><rect class="cls-1" x="171.09" y="117.62" width="10.69" height="10.69"/><rect class="cls-1" x="171.09" y="106.93" width="10.69" height="10.69"/><rect class="cls-1" x="171.09" y="96.23" width="10.69" height="10.7"/><rect x="171.09" y="85.54" width="10.69" height="10.69"/><rect x="160.4" y="139.01" width="10.69" height="10.69"/><rect class="cls-1" x="160.4" y="128.31" width="10.69" height="10.7"/><rect class="cls-1" x="160.4" y="117.62" width="10.69" height="10.69"/><rect class="cls-1" x="160.4" y="106.93" width="10.69" height="10.69"/><rect class="cls-1" x="160.4" y="96.23" width="10.69" height="10.7"/><rect class="cls-1" x="160.4" y="85.54" width="10.69" height="10.69"/><rect x="160.4" y="74.85" width="10.69" height="10.69"/><rect x="149.7" y="139.01" width="10.7" height="10.69"/><rect class="cls-1" x="149.7" y="128.31" width="10.7" height="10.7"/><rect class="cls-1" x="149.7" y="117.62" width="10.7" height="10.69"/><rect class="cls-1" x="149.7" y="106.93" width="10.7" height="10.69"/><rect class="cls-1" x="149.7" y="96.23" width="10.7" height="10.7"/><rect class="cls-1" x="149.7" y="85.54" width="10.7" height="10.69"/><rect x="149.7" y="74.85" width="10.7" height="10.69"/><rect x="139.01" y="128.31" width="10.69" height="10.7"/><rect class="cls-1" x="139.01" y="117.62" width="10.69" height="10.69"/><rect class="cls-1" x="139.01" y="106.93" width="10.69" height="10.69"/><rect class="cls-1" x="139.01" y="96.23" width="10.69" height="10.7"/><rect class="cls-1" x="139.01" y="85.54" width="10.69" height="10.69"/><rect class="cls-1" x="139.01" y="74.85" width="10.69" height="10.69"/><rect x="139.01" y="64.15" width="10.69" height="10.7"/><rect x="128.32" y="128.31" width="10.69" height="10.7"/><rect class="cls-1" x="128.32" y="117.62" width="10.69" height="10.69"/><rect class="cls-1" x="128.32" y="106.93" width="10.69" height="10.69"/><rect class="cls-1" x="128.32" y="96.23" width="10.69" height="10.7"/><rect class="cls-1" x="128.32" y="85.54" width="10.69" height="10.69"/><rect class="cls-1" x="128.32" y="74.85" width="10.69" height="10.69"/><rect x="128.32" y="64.15" width="10.69" height="10.7"/><rect x="117.62" y="128.31" width="10.7" height="10.7"/><rect class="cls-1" x="117.62" y="117.62" width="10.7" height="10.69"/><rect class="cls-1" x="117.62" y="106.93" width="10.7" height="10.69"/><rect class="cls-1" x="117.62" y="96.23" width="10.7" height="10.7"/><rect class="cls-1" x="117.62" y="85.54" width="10.7" height="10.69"/><rect class="cls-1" x="117.62" y="74.85" width="10.7" height="10.69"/><rect class="cls-1" x="117.62" y="64.15" width="10.7" height="10.7"/><rect x="117.62" y="53.46" width="10.7" height="10.69"/><rect x="106.93" y="128.31" width="10.69" height="10.7"/><rect class="cls-1" x="106.93" y="117.62" width="10.69" height="10.69"/><rect class="cls-1" x="106.93" y="106.93" width="10.69" height="10.69"/><rect class="cls-1" x="106.93" y="96.23" width="10.69" height="10.7"/><rect class="cls-1" x="106.93" y="85.54" width="10.69" height="10.69"/><rect class="cls-1" x="106.93" y="74.85" width="10.69" height="10.69"/><rect class="cls-1" x="106.93" y="64.15" width="10.69" height="10.7"/><rect x="106.93" y="53.46" width="10.69" height="10.69"/><rect x="96.24" y="128.31" width="10.69" height="10.7"/><rect class="cls-1" x="96.24" y="117.62" width="10.69" height="10.69"/><rect class="cls-1" x="96.24" y="106.93" width="10.69" height="10.69"/><rect class="cls-1" x="96.24" y="96.23" width="10.69" height="10.7"/><rect class="cls-1" x="96.24" y="85.54" width="10.69" height="10.69"/><rect class="cls-1" x="96.24" y="74.85" width="10.69" height="10.69"/><rect class="cls-1" x="96.24" y="64.15" width="10.69" height="10.7"/><rect x="96.24" y="53.46" width="10.69" height="10.69"/><rect x="85.54" y="181.78" width="10.7" height="10.69"/><rect x="85.54" y="171.08" width="10.7" height="10.7"/><rect x="85.54" y="160.39" width="10.7" height="10.69"/><rect x="85.54" y="149.7" width="10.7" height="10.69"/><rect x="85.54" y="139.01" width="10.7" height="10.69"/><rect x="85.54" y="128.31" width="10.7" height="10.7"/><rect class="cls-1" x="85.54" y="117.62" width="10.7" height="10.69"/><rect class="cls-1" x="85.54" y="106.93" width="10.7" height="10.69"/><rect class="cls-1" x="85.54" y="96.23" width="10.7" height="10.7"/><rect class="cls-1" x="85.54" y="85.54" width="10.7" height="10.69"/><rect class="cls-1" x="85.54" y="74.85" width="10.7" height="10.69"/><rect class="cls-1" x="85.54" y="64.15" width="10.7" height="10.7"/><rect x="85.54" y="53.46" width="10.7" height="10.69"/><rect x="85.54" y="42.77" width="10.7" height="10.69"/><rect x="85.54" y="32.08" width="10.7" height="10.69"/><rect x="85.54" y="21.38" width="10.7" height="10.7"/><rect x="85.54" y="10.69" width="10.7" height="10.69"/><rect x="85.54" width="10.7" height="10.69"/><rect x="74.85" y="171.08" width="10.69" height="10.7"/><rect class="cls-1" x="74.85" y="160.39" width="10.69" height="10.69"/><rect class="cls-1" x="74.85" y="149.7" width="10.69" height="10.69"/><rect class="cls-1" x="74.85" y="139.01" width="10.69" height="10.69"/><rect class="cls-1" x="74.85" y="128.31" width="10.69" height="10.7"/><rect class="cls-1" x="74.85" y="117.62" width="10.69" height="10.69"/><rect class="cls-1" x="74.85" y="106.93" width="10.69" height="10.69"/><rect class="cls-1" x="74.85" y="96.23" width="10.69" height="10.7"/><rect class="cls-1" x="74.85" y="85.54" width="10.69" height="10.69"/><rect class="cls-1" x="74.85" y="74.85" width="10.69" height="10.69"/><rect class="cls-1" x="74.85" y="64.15" width="10.69" height="10.7"/><rect class="cls-2" x="74.85" y="53.46" width="10.69" height="10.69"/><rect class="cls-2" x="74.85" y="42.77" width="10.69" height="10.69"/><rect class="cls-2" x="74.85" y="32.08" width="10.69" height="10.69"/><rect class="cls-2" x="74.85" y="21.38" width="10.69" height="10.7"/><rect x="74.85" y="10.69" width="10.69" height="10.69"/><rect x="64.16" y="160.39" width="10.69" height="10.69"/><rect class="cls-1" x="64.16" y="149.7" width="10.69" height="10.69"/><rect class="cls-1" x="64.16" y="139.01" width="10.69" height="10.69"/><rect class="cls-1" x="64.16" y="128.31" width="10.69" height="10.7"/><rect class="cls-1" x="64.16" y="117.62" width="10.69" height="10.69"/><rect class="cls-1" x="64.16" y="106.93" width="10.69" height="10.69"/><rect class="cls-1" x="64.16" y="96.23" width="10.69" height="10.7"/><rect class="cls-1" x="64.16" y="85.54" width="10.69" height="10.69"/><rect class="cls-1" x="64.16" y="74.85" width="10.69" height="10.69"/><rect class="cls-1" x="64.16" y="64.15" width="10.69" height="10.7"/><rect class="cls-2" x="64.16" y="53.46" width="10.69" height="10.69"/><rect class="cls-2" x="64.16" y="42.77" width="10.69" height="10.69"/><rect class="cls-2" x="64.16" y="32.08" width="10.69" height="10.69"/><rect x="64.16" y="21.38" width="10.69" height="10.7"/><rect x="53.47" y="149.7" width="10.69" height="10.69"/><rect class="cls-1" x="53.47" y="139.01" width="10.69" height="10.69"/><rect class="cls-1" x="53.47" y="128.31" width="10.69" height="10.7"/><rect class="cls-1" x="53.47" y="117.62" width="10.69" height="10.69"/><rect class="cls-1" x="53.47" y="106.93" width="10.69" height="10.69"/><rect class="cls-1" x="53.47" y="96.23" width="10.69" height="10.7"/><rect class="cls-1" x="53.47" y="85.54" width="10.69" height="10.69"/><rect class="cls-1" x="53.47" y="74.85" width="10.69" height="10.69"/><rect class="cls-2" x="53.47" y="64.15" width="10.69" height="10.7"/><rect class="cls-2" x="53.47" y="53.46" width="10.69" height="10.69"/><rect class="cls-2" x="53.47" y="42.77" width="10.69" height="10.69"/><rect x="53.47" y="32.08" width="10.69" height="10.69"/><rect x="42.77" y="139.01" width="10.7" height="10.69"/><rect class="cls-1" x="42.77" y="128.31" width="10.7" height="10.7"/><rect class="cls-1" x="42.77" y="117.62" width="10.7" height="10.69"/><rect class="cls-1" x="42.77" y="106.93" width="10.7" height="10.69"/><rect class="cls-1" x="42.77" y="96.23" width="10.7" height="10.7"/><rect class="cls-1" x="42.77" y="85.54" width="10.7" height="10.69"/><rect class="cls-2" x="42.77" y="74.85" width="10.7" height="10.69"/><rect class="cls-2" x="42.77" y="64.15" width="10.7" height="10.7"/><rect class="cls-2" x="42.77" y="53.46" width="10.7" height="10.69"/><rect x="42.77" y="42.77" width="10.7" height="10.69"/><rect x="32.08" y="128.31" width="10.69" height="10.7"/><rect class="cls-1" x="32.08" y="117.62" width="10.69" height="10.69"/><rect class="cls-1" x="32.08" y="106.93" width="10.69" height="10.69"/><rect class="cls-1" x="32.08" y="96.23" width="10.69" height="10.7"/><rect class="cls-2" x="32.08" y="85.54" width="10.69" height="10.69"/><rect class="cls-2" x="32.08" y="74.85" width="10.69" height="10.69"/><rect class="cls-2" x="32.08" y="64.15" width="10.69" height="10.7"/><rect x="32.08" y="53.46" width="10.69" height="10.69"/><rect x="21.39" y="117.62" width="10.69" height="10.69"/><rect class="cls-1" x="21.39" y="106.93" width="10.69" height="10.69"/><rect class="cls-2" x="21.39" y="96.23" width="10.69" height="10.7"/><rect class="cls-2" x="21.39" y="85.54" width="10.69" height="10.69"/><rect class="cls-2" x="21.39" y="74.85" width="10.69" height="10.69"/><rect x="21.39" y="64.15" width="10.69" height="10.7"/><rect x="10.69" y="106.93" width="10.7" height="10.69"/><rect class="cls-2" x="10.69" y="96.23" width="10.7" height="10.7"/><rect class="cls-2" x="10.69" y="85.54" width="10.7" height="10.69"/><rect x="10.69" y="74.85" width="10.7" height="10.69"/><rect y="96.23" width="10.69" height="10.7"/><rect y="85.54" width="10.69" height="10.69"/></g></g></svg>