<svg xmlns="http://www.w3.org/2000/svg" viewBox="0 0 160.4 245.94"><defs><style>.cls-1{fill:#0d000a;}.cls-2{fill:#1974ce;}</style></defs><g id="Capa_2" data-name="Capa 2"><g id="PixelMaker"><rect class="cls-1" x="149.7" y="160.4" width="10.7" height="10.69"/><rect class="cls-1" x="149.7" y="149.7" width="10.7" height="10.7"/><rect class="cls-1" x="139.01" y="171.09" width="10.69" height="10.69"/><rect class="cls-1" x="139.01" y="160.4" width="10.69" height="10.69"/><rect class="cls-1" x="139.01" y="149.7" width="10.69" height="10.7"/><rect class="cls-1" x="128.32" y="181.78" width="10.69" height="10.69"/><rect class="cls-1" x="128.32" y="171.09" width="10.69" height="10.69"/><rect class="cls-2" x="128.32" y="160.4" width="10.69" height="10.69"/><rect class="cls-1" x="128.32" y="149.7" width="10.69" height="10.7"/><rect class="cls-1" x="117.63" y="192.47" width="10.69" height="10.7"/><rect class="cls-1" x="117.63" y="181.78" width="10.69" height="10.69"/><rect class="cls-2" x="117.63" y="171.09" width="10.69" height="10.69"/><rect class="cls-2" x="117.63" y="160.4" width="10.69" height="10.69"/><rect class="cls-1" x="117.63" y="149.7" width="10.69" height="10.7"/><rect class="cls-1" x="117.63" y="139.01" width="10.69" height="10.69"/><rect class="cls-1" x="117.63" y="128.32" width="10.69" height="10.69"/><rect class="cls-1" x="117.63" y="106.93" width="10.69" height="10.69"/><rect class="cls-1" x="117.63" y="96.24" width="10.69" height="10.69"/><rect class="cls-1" x="117.63" y="85.54" width="10.69" height="10.7"/><rect class="cls-1" x="117.63" y="64.16" width="10.69" height="10.69"/><rect class="cls-1" x="117.63" y="53.47" width="10.69" height="10.69"/><rect class="cls-1" x="117.63" y="42.77" width="10.69" height="10.7"/><rect class="cls-1" x="117.63" y="21.39" width="10.69" height="10.69"/><rect class="cls-1" x="117.63" y="10.69" width="10.69" height="10.7"/><rect class="cls-1" x="117.63" width="10.69" height="10.69"/><rect class="cls-1" x="106.93" y="203.17" width="10.7" height="10.69"/><rect class="cls-1" x="106.93" y="192.47" width="10.7" height="10.7"/><rect class="cls-2" x="106.93" y="181.78" width="10.7" height="10.69"/><rect class="cls-2" x="106.93" y="171.09" width="10.7" height="10.69"/><rect class="cls-2" x="106.93" y="160.4" width="10.7" height="10.69"/><rect class="cls-2" x="106.93" y="149.7" width="10.7" height="10.7"/><rect class="cls-2" x="106.93" y="139.01" width="10.7" height="10.69"/><rect class="cls-1" x="106.93" y="128.32" width="10.7" height="10.69"/><rect class="cls-1" x="106.93" y="106.93" width="10.7" height="10.69"/><rect class="cls-2" x="106.93" y="96.24" width="10.7" height="10.69"/><rect class="cls-1" x="106.93" y="85.54" width="10.7" height="10.7"/><rect class="cls-1" x="106.93" y="64.16" width="10.7" height="10.69"/><rect class="cls-2" x="106.93" y="53.47" width="10.7" height="10.69"/><rect class="cls-1" x="106.93" y="42.77" width="10.7" height="10.7"/><rect class="cls-1" x="106.93" y="21.39" width="10.7" height="10.69"/><rect class="cls-2" x="106.93" y="10.69" width="10.7" height="10.7"/><rect class="cls-1" x="106.93" width="10.7" height="10.69"/><rect class="cls-1" x="96.24" y="213.86" width="10.69" height="10.69"/><rect class="cls-1" x="96.24" y="203.17" width="10.69" height="10.69"/><rect class="cls-2" x="96.24" y="192.47" width="10.69" height="10.7"/><rect class="cls-2" x="96.24" y="181.78" width="10.69" height="10.69"/><rect class="cls-2" x="96.24" y="171.09" width="10.69" height="10.69"/><rect class="cls-2" x="96.24" y="160.4" width="10.69" height="10.69"/><rect class="cls-2" x="96.24" y="149.7" width="10.69" height="10.7"/><rect class="cls-2" x="96.24" y="139.01" width="10.69" height="10.69"/><rect class="cls-1" x="96.24" y="128.32" width="10.69" height="10.69"/><rect class="cls-1" x="96.24" y="106.93" width="10.69" height="10.69"/><rect class="cls-2" x="96.24" y="96.24" width="10.69" height="10.69"/><rect class="cls-1" x="96.24" y="85.54" width="10.69" height="10.7"/><rect class="cls-1" x="96.24" y="64.16" width="10.69" height="10.69"/><rect class="cls-2" x="96.24" y="53.47" width="10.69" height="10.69"/><rect class="cls-1" x="96.24" y="42.77" width="10.69" height="10.7"/><rect class="cls-1" x="96.24" y="21.39" width="10.69" height="10.69"/><rect class="cls-2" x="96.24" y="10.69" width="10.69" height="10.7"/><rect class="cls-1" x="96.24" width="10.69" height="10.69"/><rect class="cls-1" x="85.55" y="224.55" width="10.69" height="10.7"/><rect class="cls-1" x="85.55" y="213.86" width="10.69" height="10.69"/><rect class="cls-2" x="85.55" y="203.17" width="10.69" height="10.69"/><rect class="cls-2" x="85.55" y="192.47" width="10.69" height="10.7"/><rect class="cls-2" x="85.55" y="181.78" width="10.69" height="10.69"/><rect class="cls-2" x="85.55" y="171.09" width="10.69" height="10.69"/><rect class="cls-2" x="85.55" y="160.4" width="10.69" height="10.69"/><rect class="cls-2" x="85.55" y="149.7" width="10.69" height="10.7"/><rect class="cls-2" x="85.55" y="139.01" width="10.69" height="10.69"/><rect class="cls-1" x="85.55" y="128.32" width="10.69" height="10.69"/><rect class="cls-1" x="85.55" y="106.93" width="10.69" height="10.69"/><rect class="cls-2" x="85.55" y="96.24" width="10.69" height="10.69"/><rect class="cls-1" x="85.55" y="85.54" width="10.69" height="10.7"/><rect class="cls-1" x="85.55" y="64.16" width="10.69" height="10.69"/><rect class="cls-2" x="85.55" y="53.47" width="10.69" height="10.69"/><rect class="cls-1" x="85.55" y="42.77" width="10.69" height="10.7"/><rect class="cls-1" x="85.55" y="21.39" width="10.69" height="10.69"/><rect class="cls-2" x="85.55" y="10.69" width="10.69" height="10.7"/><rect class="cls-1" x="85.55" width="10.69" height="10.69"/><rect class="cls-1" x="74.85" y="235.25" width="10.7" height="10.69"/><rect class="cls-1" x="74.85" y="224.55" width="10.7" height="10.7"/><rect class="cls-2" x="74.85" y="213.86" width="10.7" height="10.69"/><rect class="cls-2" x="74.85" y="203.17" width="10.7" height="10.69"/><rect class="cls-2" x="74.85" y="192.47" width="10.7" height="10.7"/><rect class="cls-2" x="74.85" y="181.78" width="10.7" height="10.69"/><rect class="cls-2" x="74.85" y="171.09" width="10.7" height="10.69"/><rect class="cls-2" x="74.85" y="160.4" width="10.7" height="10.69"/><rect class="cls-2" x="74.85" y="149.7" width="10.7" height="10.7"/><rect class="cls-2" x="74.85" y="139.01" width="10.7" height="10.69"/><rect class="cls-1" x="74.85" y="128.32" width="10.7" height="10.69"/><rect class="cls-1" x="74.85" y="106.93" width="10.7" height="10.69"/><rect class="cls-2" x="74.85" y="96.24" width="10.7" height="10.69"/><rect class="cls-1" x="74.85" y="85.54" width="10.7" height="10.7"/><rect class="cls-1" x="74.85" y="64.16" width="10.7" height="10.69"/><rect class="cls-2" x="74.85" y="53.47" width="10.7" height="10.69"/><rect class="cls-1" x="74.85" y="42.77" width="10.7" height="10.7"/><rect class="cls-1" x="74.85" y="21.39" width="10.7" height="10.69"/><rect class="cls-2" x="74.85" y="10.69" width="10.7" height="10.7"/><rect class="cls-1" x="74.85" width="10.7" height="10.69"/><rect class="cls-1" x="64.16" y="224.55" width="10.69" height="10.7"/><rect class="cls-1" x="64.16" y="213.86" width="10.69" height="10.69"/><rect class="cls-2" x="64.16" y="203.17" width="10.69" height="10.69"/><rect class="cls-2" x="64.16" y="192.47" width="10.69" height="10.7"/><rect class="cls-2" x="64.16" y="181.78" width="10.69" height="10.69"/><rect class="cls-2" x="64.16" y="171.09" width="10.69" height="10.69"/><rect class="cls-2" x="64.16" y="160.4" width="10.69" height="10.69"/><rect class="cls-2" x="64.16" y="149.7" width="10.69" height="10.7"/><rect class="cls-2" x="64.16" y="139.01" width="10.69" height="10.69"/><rect class="cls-1" x="64.16" y="128.32" width="10.69" height="10.69"/><rect class="cls-1" x="64.16" y="106.93" width="10.69" height="10.69"/><rect class="cls-2" x="64.16" y="96.24" width="10.69" height="10.69"/><rect class="cls-1" x="64.16" y="85.54" width="10.69" height="10.7"/><rect class="cls-1" x="64.16" y="64.16" width="10.69" height="10.69"/><rect class="cls-2" x="64.16" y="53.47" width="10.69" height="10.69"/><rect class="cls-1" x="64.16" y="42.77" width="10.69" height="10.7"/><rect class="cls-1" x="64.16" y="21.39" width="10.69" height="10.69"/><rect class="cls-2" x="64.16" y="10.69" width="10.69" height="10.7"/><rect class="cls-1" x="64.16" width="10.69" height="10.69"/><rect class="cls-1" x="53.47" y="213.86" width="10.69" height="10.69"/><rect class="cls-1" x="53.47" y="203.17" width="10.69" height="10.69"/><rect class="cls-2" x="53.47" y="192.47" width="10.69" height="10.7"/><rect class="cls-2" x="53.47" y="181.78" width="10.69" height="10.69"/><rect class="cls-2" x="53.47" y="171.09" width="10.69" height="10.69"/><rect class="cls-2" x="53.47" y="160.4" width="10.69" height="10.69"/><rect class="cls-2" x="53.47" y="149.7" width="10.69" height="10.7"/><rect class="cls-2" x="53.47" y="139.01" width="10.69" height="10.69"/><rect class="cls-1" x="53.47" y="128.32" width="10.69" height="10.69"/><rect class="cls-1" x="53.47" y="106.93" width="10.69" height="10.69"/><rect class="cls-2" x="53.47" y="96.24" width="10.69" height="10.69"/><rect class="cls-1" x="53.47" y="85.54" width="10.69" height="10.7"/><rect class="cls-1" x="53.47" y="64.16" width="10.69" height="10.69"/><rect class="cls-2" x="53.47" y="53.47" width="10.69" height="10.69"/><rect class="cls-1" x="53.47" y="42.77" width="10.69" height="10.7"/><rect class="cls-1" x="53.47" y="21.39" width="10.69" height="10.69"/><rect class="cls-2" x="53.47" y="10.69" width="10.69" height="10.7"/><rect class="cls-1" x="53.47" width="10.69" height="10.69"/><rect class="cls-1" x="42.77" y="203.17" width="10.7" height="10.69"/><rect class="cls-1" x="42.77" y="192.47" width="10.7" height="10.7"/><rect class="cls-2" x="42.77" y="181.78" width="10.7" height="10.69"/><rect class="cls-2" x="42.77" y="171.09" width="10.7" height="10.69"/><rect class="cls-2" x="42.77" y="160.4" width="10.7" height="10.69"/><rect class="cls-2" x="42.77" y="149.7" width="10.7" height="10.7"/><rect class="cls-2" x="42.77" y="139.01" width="10.7" height="10.69"/><rect class="cls-1" x="42.77" y="128.32" width="10.7" height="10.69"/><rect class="cls-1" x="42.77" y="106.93" width="10.7" height="10.69"/><rect class="cls-2" x="42.77" y="96.24" width="10.7" height="10.69"/><rect class="cls-1" x="42.77" y="85.54" width="10.7" height="10.7"/><rect class="cls-1" x="42.77" y="64.16" width="10.7" height="10.69"/><rect class="cls-2" x="42.77" y="53.47" width="10.7" height="10.69"/><rect class="cls-1" x="42.77" y="42.77" width="10.7" height="10.7"/><rect class="cls-1" x="42.77" y="21.39" width="10.7" height="10.69"/><rect class="cls-2" x="42.77" y="10.69" width="10.7" height="10.7"/><rect class="cls-1" x="42.77" width="10.7" height="10.69"/><rect class="cls-1" x="32.08" y="192.47" width="10.69" height="10.7"/><rect class="cls-1" x="32.08" y="181.78" width="10.69" height="10.69"/><rect class="cls-2" x="32.08" y="171.09" width="10.69" height="10.69"/><rect class="cls-2" x="32.08" y="160.4" width="10.69" height="10.69"/><rect class="cls-1" x="32.08" y="149.7" width="10.69" height="10.7"/><rect class="cls-1" x="32.08" y="139.01" width="10.69" height="10.69"/><rect class="cls-1" x="32.08" y="128.32" width="10.69" height="10.69"/><rect class="cls-1" x="32.08" y="106.93" width="10.69" height="10.69"/><rect class="cls-1" x="32.08" y="96.24" width="10.69" height="10.69"/><rect class="cls-1" x="32.08" y="85.54" width="10.69" height="10.7"/><rect class="cls-1" x="32.08" y="64.16" width="10.69" height="10.69"/><rect class="cls-1" x="32.08" y="53.47" width="10.69" height="10.69"/><rect class="cls-1" x="32.08" y="42.77" width="10.69" height="10.7"/><rect class="cls-1" x="32.08" y="21.39" width="10.69" height="10.69"/><rect class="cls-1" x="32.08" y="10.69" width="10.69" height="10.7"/><rect class="cls-1" x="32.08" width="10.69" height="10.69"/><rect class="cls-1" x="21.39" y="181.78" width="10.69" height="10.69"/><rect class="cls-1" x="21.39" y="171.09" width="10.69" height="10.69"/><rect class="cls-2" x="21.39" y="160.4" width="10.69" height="10.69"/><rect class="cls-1" x="21.39" y="149.7" width="10.69" height="10.7"/><rect class="cls-1" x="10.7" y="171.09" width="10.69" height="10.69"/><rect class="cls-1" x="10.7" y="160.4" width="10.69" height="10.69"/><rect class="cls-1" x="10.7" y="149.7" width="10.69" height="10.7"/><rect class="cls-1" y="160.4" width="10.7" height="10.69"/><rect class="cls-1" y="149.7" width="10.7" height="10.7"/></g></g></svg>