<svg xmlns="http://www.w3.org/2000/svg" viewBox="0 0 245.94 235.25"><defs><style>.cls-1{fill:#4c5665;}.cls-2{fill:#face53;}.cls-3{fill:#ecf0f1;}.cls-4{fill:#203442;}</style></defs><g id="Capa_2" data-name="Capa 2"><g id="logos"><rect class="cls-1" x="235.25" y="64.16" width="10.69" height="10.69"/><rect class="cls-1" x="235.25" y="53.47" width="10.69" height="10.69"/><rect class="cls-2" x="224.55" y="203.17" width="10.7" height="10.69"/><rect class="cls-1" x="224.55" y="74.85" width="10.7" height="10.69"/><rect class="cls-1" x="224.55" y="64.16" width="10.7" height="10.69"/><rect class="cls-1" x="224.55" y="53.47" width="10.7" height="10.69"/><rect class="cls-1" x="224.55" y="42.77" width="10.7" height="10.7"/><rect class="cls-2" x="213.86" y="213.86" width="10.69" height="10.69"/><rect class="cls-2" x="213.86" y="203.17" width="10.69" height="10.69"/><rect class="cls-2" x="213.86" y="192.47" width="10.69" height="10.7"/><rect class="cls-1" x="213.86" y="85.54" width="10.69" height="10.7"/><rect class="cls-1" x="213.86" y="74.85" width="10.69" height="10.69"/><rect class="cls-1" x="213.86" y="64.16" width="10.69" height="10.69"/><rect class="cls-1" x="213.86" y="53.47" width="10.69" height="10.69"/><rect class="cls-1" x="213.86" y="42.77" width="10.69" height="10.7"/><rect class="cls-2" x="203.17" y="224.55" width="10.69" height="10.7"/><rect class="cls-2" x="203.17" y="213.86" width="10.69" height="10.69"/><rect class="cls-2" x="203.17" y="203.17" width="10.69" height="10.69"/><rect class="cls-2" x="203.17" y="192.47" width="10.69" height="10.7"/><rect class="cls-2" x="203.17" y="181.78" width="10.69" height="10.69"/><rect class="cls-3" x="203.17" y="171.09" width="10.69" height="10.69"/><rect class="cls-3" x="203.17" y="160.4" width="10.69" height="10.69"/><rect class="cls-3" x="203.17" y="149.7" width="10.69" height="10.7"/><rect class="cls-3" x="203.17" y="139.01" width="10.69" height="10.69"/><rect class="cls-3" x="203.17" y="128.32" width="10.69" height="10.69"/><rect class="cls-3" x="203.17" y="117.62" width="10.69" height="10.7"/><rect class="cls-3" x="203.17" y="106.93" width="10.69" height="10.69"/><rect class="cls-3" x="203.17" y="96.24" width="10.69" height="10.69"/><rect class="cls-3" x="203.17" y="85.54" width="10.69" height="10.7"/><rect class="cls-1" x="203.17" y="74.85" width="10.69" height="10.69"/><rect class="cls-1" x="203.17" y="64.16" width="10.69" height="10.69"/><rect class="cls-1" x="203.17" y="53.47" width="10.69" height="10.69"/><rect class="cls-1" x="203.17" y="42.77" width="10.69" height="10.7"/><rect class="cls-1" x="203.17" y="32.08" width="10.69" height="10.69"/><rect class="cls-2" x="192.47" y="213.86" width="10.7" height="10.69"/><rect class="cls-2" x="192.47" y="203.17" width="10.7" height="10.69"/><rect class="cls-2" x="192.47" y="192.47" width="10.7" height="10.7"/><rect class="cls-4" x="192.47" y="139.01" width="10.7" height="10.69"/><rect class="cls-4" x="192.47" y="128.32" width="10.7" height="10.69"/><rect class="cls-4" x="192.47" y="117.62" width="10.7" height="10.7"/><rect class="cls-4" x="192.47" y="106.93" width="10.7" height="10.69"/><rect class="cls-4" x="192.47" y="96.24" width="10.7" height="10.69"/><rect class="cls-3" x="192.47" y="85.54" width="10.7" height="10.7"/><rect class="cls-1" x="192.47" y="74.85" width="10.7" height="10.69"/><rect class="cls-1" x="192.47" y="64.16" width="10.7" height="10.69"/><rect class="cls-1" x="192.47" y="53.47" width="10.7" height="10.69"/><rect class="cls-1" x="192.47" y="42.77" width="10.7" height="10.7"/><rect class="cls-1" x="192.47" y="32.08" width="10.7" height="10.69"/><rect class="cls-2" x="181.78" y="203.17" width="10.69" height="10.69"/><rect class="cls-4" x="181.78" y="149.7" width="10.69" height="10.7"/><rect class="cls-4" x="181.78" y="139.01" width="10.69" height="10.69"/><rect class="cls-4" x="181.78" y="128.32" width="10.69" height="10.69"/><rect class="cls-4" x="181.78" y="117.62" width="10.69" height="10.7"/><rect class="cls-4" x="181.78" y="106.93" width="10.69" height="10.69"/><rect class="cls-1" x="181.78" y="96.24" width="10.69" height="10.69"/><rect class="cls-3" x="181.78" y="85.54" width="10.69" height="10.7"/><rect class="cls-3" x="181.78" y="74.85" width="10.69" height="10.69"/><rect class="cls-1" x="181.78" y="64.16" width="10.69" height="10.69"/><rect class="cls-1" x="181.78" y="53.47" width="10.69" height="10.69"/><rect class="cls-1" x="181.78" y="42.77" width="10.69" height="10.7"/><rect class="cls-1" x="181.78" y="32.08" width="10.69" height="10.69"/><rect class="cls-1" x="181.78" y="21.39" width="10.69" height="10.69"/><rect class="cls-4" x="171.09" y="149.7" width="10.69" height="10.7"/><rect class="cls-4" x="171.09" y="139.01" width="10.69" height="10.69"/><rect class="cls-4" x="171.09" y="128.32" width="10.69" height="10.69"/><rect class="cls-4" x="171.09" y="117.62" width="10.69" height="10.7"/><rect class="cls-4" x="171.09" y="106.93" width="10.69" height="10.69"/><rect class="cls-1" x="171.09" y="96.24" width="10.69" height="10.69"/><rect class="cls-1" x="171.09" y="85.54" width="10.69" height="10.7"/><rect class="cls-3" x="171.09" y="74.85" width="10.69" height="10.69"/><rect class="cls-1" x="171.09" y="64.16" width="10.69" height="10.69"/><rect class="cls-1" x="171.09" y="53.47" width="10.69" height="10.69"/><rect class="cls-1" x="171.09" y="42.77" width="10.69" height="10.7"/><rect class="cls-1" x="171.09" y="32.08" width="10.69" height="10.69"/><rect class="cls-1" x="171.09" y="21.39" width="10.69" height="10.69"/><rect class="cls-4" x="160.4" y="160.4" width="10.69" height="10.69"/><rect class="cls-4" x="160.4" y="149.7" width="10.69" height="10.7"/><rect class="cls-4" x="160.4" y="139.01" width="10.69" height="10.69"/><rect class="cls-4" x="160.4" y="128.32" width="10.69" height="10.69"/><rect class="cls-4" x="160.4" y="117.62" width="10.69" height="10.7"/><rect class="cls-1" x="160.4" y="106.93" width="10.69" height="10.69"/><rect class="cls-1" x="160.4" y="96.24" width="10.69" height="10.69"/><rect class="cls-1" x="160.4" y="85.54" width="10.69" height="10.7"/><rect class="cls-3" x="160.4" y="74.85" width="10.69" height="10.69"/><rect class="cls-3" x="160.4" y="64.16" width="10.69" height="10.69"/><rect class="cls-1" x="160.4" y="53.47" width="10.69" height="10.69"/><rect class="cls-1" x="160.4" y="42.77" width="10.69" height="10.7"/><rect class="cls-1" x="160.4" y="32.08" width="10.69" height="10.69"/><rect class="cls-1" x="160.4" y="21.39" width="10.69" height="10.69"/><rect class="cls-1" x="160.4" y="10.69" width="10.69" height="10.7"/><rect class="cls-4" x="149.7" y="160.4" width="10.7" height="10.69"/><rect class="cls-4" x="149.7" y="149.7" width="10.7" height="10.7"/><rect class="cls-4" x="149.7" y="139.01" width="10.7" height="10.69"/><rect class="cls-4" x="149.7" y="128.32" width="10.7" height="10.69"/><rect class="cls-4" x="149.7" y="117.62" width="10.7" height="10.7"/><rect class="cls-1" x="149.7" y="106.93" width="10.7" height="10.69"/><rect class="cls-1" x="149.7" y="96.24" width="10.7" height="10.69"/><rect class="cls-1" x="149.7" y="85.54" width="10.7" height="10.7"/><rect class="cls-1" x="149.7" y="74.85" width="10.7" height="10.69"/><rect class="cls-3" x="149.7" y="64.16" width="10.7" height="10.69"/><rect class="cls-1" x="149.7" y="53.47" width="10.7" height="10.69"/><rect class="cls-1" x="149.7" y="42.77" width="10.7" height="10.7"/><rect class="cls-1" x="149.7" y="32.08" width="10.7" height="10.69"/><rect class="cls-1" x="149.7" y="21.39" width="10.7" height="10.69"/><rect class="cls-1" x="149.7" y="10.69" width="10.7" height="10.7"/><rect class="cls-4" x="139.01" y="171.09" width="10.69" height="10.69"/><rect class="cls-4" x="139.01" y="160.4" width="10.69" height="10.69"/><rect class="cls-4" x="139.01" y="149.7" width="10.69" height="10.7"/><rect class="cls-4" x="139.01" y="139.01" width="10.69" height="10.69"/><rect class="cls-4" x="139.01" y="128.32" width="10.69" height="10.69"/><rect class="cls-1" x="139.01" y="117.62" width="10.69" height="10.7"/><rect class="cls-1" x="139.01" y="106.93" width="10.69" height="10.69"/><rect class="cls-1" x="139.01" y="96.24" width="10.69" height="10.69"/><rect class="cls-1" x="139.01" y="85.54" width="10.69" height="10.7"/><rect class="cls-1" x="139.01" y="74.85" width="10.69" height="10.69"/><rect class="cls-3" x="139.01" y="64.16" width="10.69" height="10.69"/><rect class="cls-4" x="139.01" y="53.47" width="10.69" height="10.69"/><rect class="cls-4" x="139.01" y="42.77" width="10.69" height="10.7"/><rect class="cls-1" x="139.01" y="32.08" width="10.69" height="10.69"/><rect class="cls-1" x="139.01" y="21.39" width="10.69" height="10.69"/><rect class="cls-1" x="139.01" y="10.69" width="10.69" height="10.7"/><rect class="cls-1" x="139.01" width="10.69" height="10.69"/><rect class="cls-4" x="128.32" y="171.09" width="10.69" height="10.69"/><rect class="cls-4" x="128.32" y="160.4" width="10.69" height="10.69"/><rect class="cls-4" x="128.32" y="149.7" width="10.69" height="10.7"/><rect class="cls-4" x="128.32" y="139.01" width="10.69" height="10.69"/><rect class="cls-4" x="128.32" y="128.32" width="10.69" height="10.69"/><rect class="cls-1" x="128.32" y="117.62" width="10.69" height="10.7"/><rect class="cls-1" x="128.32" y="106.93" width="10.69" height="10.69"/><rect class="cls-1" x="128.32" y="96.24" width="10.69" height="10.69"/><rect class="cls-1" x="128.32" y="85.54" width="10.69" height="10.7"/><rect class="cls-1" x="128.32" y="74.85" width="10.69" height="10.69"/><rect class="cls-4" x="128.32" y="64.16" width="10.69" height="10.69"/><rect class="cls-4" x="128.32" y="53.47" width="10.69" height="10.69"/><rect class="cls-4" x="128.32" y="42.77" width="10.69" height="10.7"/><rect class="cls-1" x="128.32" y="32.08" width="10.69" height="10.69"/><rect class="cls-1" x="128.32" y="21.39" width="10.69" height="10.69"/><rect class="cls-1" x="128.32" y="10.69" width="10.69" height="10.7"/><rect class="cls-1" x="128.32" width="10.69" height="10.69"/><rect class="cls-4" x="117.62" y="171.09" width="10.7" height="10.69"/><rect class="cls-4" x="117.62" y="160.4" width="10.7" height="10.69"/><rect class="cls-4" x="117.62" y="149.7" width="10.7" height="10.7"/><rect class="cls-4" x="117.62" y="139.01" width="10.7" height="10.69"/><rect class="cls-4" x="117.62" y="128.32" width="10.7" height="10.69"/><rect class="cls-1" x="117.62" y="117.62" width="10.7" height="10.7"/><rect class="cls-1" x="117.62" y="106.93" width="10.7" height="10.69"/><rect class="cls-1" x="117.62" y="96.24" width="10.7" height="10.69"/><rect class="cls-1" x="117.62" y="85.54" width="10.7" height="10.7"/><rect class="cls-1" x="117.62" y="74.85" width="10.7" height="10.69"/><rect class="cls-4" x="117.62" y="64.16" width="10.7" height="10.69"/><rect class="cls-4" x="117.62" y="53.47" width="10.7" height="10.69"/><rect class="cls-4" x="117.62" y="42.77" width="10.7" height="10.7"/><rect class="cls-1" x="117.62" y="32.08" width="10.7" height="10.69"/><rect class="cls-1" x="117.62" y="21.39" width="10.7" height="10.69"/><rect class="cls-1" x="117.62" y="10.69" width="10.7" height="10.7"/><rect class="cls-1" x="117.62" width="10.7" height="10.69"/><rect class="cls-4" x="106.93" y="171.09" width="10.69" height="10.69"/><rect class="cls-4" x="106.93" y="160.4" width="10.69" height="10.69"/><rect class="cls-4" x="106.93" y="149.7" width="10.69" height="10.7"/><rect class="cls-4" x="106.93" y="139.01" width="10.69" height="10.69"/><rect class="cls-4" x="106.93" y="128.32" width="10.69" height="10.69"/><rect class="cls-1" x="106.93" y="117.62" width="10.69" height="10.7"/><rect class="cls-1" x="106.93" y="106.93" width="10.69" height="10.69"/><rect class="cls-1" x="106.93" y="96.24" width="10.69" height="10.69"/><rect class="cls-1" x="106.93" y="85.54" width="10.69" height="10.7"/><rect class="cls-1" x="106.93" y="74.85" width="10.69" height="10.69"/><rect class="cls-4" x="106.93" y="64.16" width="10.69" height="10.69"/><rect class="cls-4" x="106.93" y="53.47" width="10.69" height="10.69"/><rect class="cls-4" x="106.93" y="42.77" width="10.69" height="10.7"/><rect class="cls-1" x="106.93" y="32.08" width="10.69" height="10.69"/><rect class="cls-1" x="106.93" y="21.39" width="10.69" height="10.69"/><rect class="cls-1" x="106.93" y="10.69" width="10.69" height="10.7"/><rect class="cls-1" x="106.93" width="10.69" height="10.69"/><rect class="cls-4" x="96.24" y="160.4" width="10.69" height="10.69"/><rect class="cls-4" x="96.24" y="149.7" width="10.69" height="10.7"/><rect class="cls-4" x="96.24" y="139.01" width="10.69" height="10.69"/><rect class="cls-4" x="96.24" y="128.32" width="10.69" height="10.69"/><rect class="cls-4" x="96.24" y="117.62" width="10.69" height="10.7"/><rect class="cls-1" x="96.24" y="106.93" width="10.69" height="10.69"/><rect class="cls-1" x="96.24" y="96.24" width="10.69" height="10.69"/><rect class="cls-1" x="96.24" y="85.54" width="10.69" height="10.7"/><rect class="cls-1" x="96.24" y="74.85" width="10.69" height="10.69"/><rect class="cls-1" x="96.24" y="64.16" width="10.69" height="10.69"/><rect class="cls-4" x="96.24" y="53.47" width="10.69" height="10.69"/><rect class="cls-1" x="96.24" y="42.77" width="10.69" height="10.7"/><rect class="cls-1" x="96.24" y="32.08" width="10.69" height="10.69"/><rect class="cls-1" x="96.24" y="21.39" width="10.69" height="10.69"/><rect class="cls-1" x="96.24" y="10.69" width="10.69" height="10.7"/><rect class="cls-1" x="96.24" width="10.69" height="10.69"/><rect class="cls-4" x="85.54" y="160.4" width="10.7" height="10.69"/><rect class="cls-4" x="85.54" y="149.7" width="10.7" height="10.7"/><rect class="cls-4" x="85.54" y="139.01" width="10.7" height="10.69"/><rect class="cls-4" x="85.54" y="128.32" width="10.7" height="10.69"/><rect class="cls-4" x="85.54" y="117.62" width="10.7" height="10.7"/><rect class="cls-1" x="85.54" y="106.93" width="10.7" height="10.69"/><rect class="cls-1" x="85.54" y="96.24" width="10.7" height="10.69"/><rect class="cls-1" x="85.54" y="85.54" width="10.7" height="10.7"/><rect class="cls-1" x="85.54" y="74.85" width="10.7" height="10.69"/><rect class="cls-1" x="85.54" y="64.16" width="10.7" height="10.69"/><rect class="cls-1" x="85.54" y="53.47" width="10.7" height="10.69"/><rect class="cls-1" x="85.54" y="42.77" width="10.7" height="10.7"/><rect class="cls-1" x="85.54" y="32.08" width="10.7" height="10.69"/><rect class="cls-1" x="85.54" y="21.39" width="10.7" height="10.69"/><rect class="cls-1" x="85.54" y="10.69" width="10.7" height="10.7"/><rect class="cls-4" x="74.85" y="160.4" width="10.69" height="10.69"/><rect class="cls-4" x="74.85" y="149.7" width="10.69" height="10.7"/><rect class="cls-4" x="74.85" y="139.01" width="10.69" height="10.69"/><rect class="cls-4" x="74.85" y="128.32" width="10.69" height="10.69"/><rect class="cls-4" x="74.85" y="117.62" width="10.69" height="10.7"/><rect class="cls-1" x="74.85" y="106.93" width="10.69" height="10.69"/><rect class="cls-1" x="74.85" y="96.24" width="10.69" height="10.69"/><rect class="cls-1" x="74.85" y="85.54" width="10.69" height="10.7"/><rect class="cls-1" x="74.85" y="74.85" width="10.69" height="10.69"/><rect class="cls-1" x="74.85" y="64.16" width="10.69" height="10.69"/><rect class="cls-1" x="74.85" y="53.47" width="10.69" height="10.69"/><rect class="cls-1" x="74.85" y="42.77" width="10.69" height="10.7"/><rect class="cls-1" x="74.85" y="32.08" width="10.69" height="10.69"/><rect class="cls-1" x="74.85" y="21.39" width="10.69" height="10.69"/><rect class="cls-1" x="74.85" y="10.69" width="10.69" height="10.7"/><rect class="cls-4" x="64.16" y="149.7" width="10.69" height="10.7"/><rect class="cls-4" x="64.16" y="139.01" width="10.69" height="10.69"/><rect class="cls-4" x="64.16" y="128.32" width="10.69" height="10.69"/><rect class="cls-4" x="64.16" y="117.62" width="10.69" height="10.7"/><rect class="cls-4" x="64.16" y="106.93" width="10.69" height="10.69"/><rect class="cls-1" x="64.16" y="96.24" width="10.69" height="10.69"/><rect class="cls-1" x="64.16" y="85.54" width="10.69" height="10.7"/><rect class="cls-1" x="64.16" y="74.85" width="10.69" height="10.69"/><rect class="cls-1" x="64.16" y="64.16" width="10.69" height="10.69"/><rect class="cls-1" x="64.16" y="53.47" width="10.69" height="10.69"/><rect class="cls-1" x="64.16" y="42.77" width="10.69" height="10.7"/><rect class="cls-1" x="64.16" y="32.08" width="10.69" height="10.69"/><rect class="cls-1" x="64.16" y="21.39" width="10.69" height="10.69"/><rect class="cls-4" x="53.47" y="149.7" width="10.69" height="10.7"/><rect class="cls-4" x="53.47" y="139.01" width="10.69" height="10.69"/><rect class="cls-4" x="53.47" y="128.32" width="10.69" height="10.69"/><rect class="cls-4" x="53.47" y="117.62" width="10.69" height="10.7"/><rect class="cls-4" x="53.47" y="106.93" width="10.69" height="10.69"/><rect class="cls-1" x="53.47" y="96.24" width="10.69" height="10.69"/><rect class="cls-1" x="53.47" y="85.54" width="10.69" height="10.7"/><rect class="cls-1" x="53.47" y="74.85" width="10.69" height="10.69"/><rect class="cls-1" x="53.47" y="64.16" width="10.69" height="10.69"/><rect class="cls-1" x="53.47" y="53.47" width="10.69" height="10.69"/><rect class="cls-1" x="53.47" y="42.77" width="10.69" height="10.7"/><rect class="cls-1" x="53.47" y="32.08" width="10.69" height="10.69"/><rect class="cls-1" x="53.47" y="21.39" width="10.69" height="10.69"/><rect class="cls-4" x="42.77" y="128.32" width="10.7" height="10.69"/><rect class="cls-4" x="42.77" y="117.62" width="10.7" height="10.7"/><rect class="cls-4" x="42.77" y="106.93" width="10.7" height="10.69"/><rect class="cls-4" x="42.77" y="96.24" width="10.7" height="10.69"/><rect class="cls-1" x="42.77" y="85.54" width="10.7" height="10.7"/><rect class="cls-1" x="42.77" y="74.85" width="10.7" height="10.69"/><rect class="cls-1" x="42.77" y="64.16" width="10.7" height="10.69"/><rect class="cls-1" x="42.77" y="53.47" width="10.7" height="10.69"/><rect class="cls-1" x="42.77" y="42.77" width="10.7" height="10.7"/><rect class="cls-1" x="42.77" y="32.08" width="10.7" height="10.69"/><rect class="cls-1" x="32.08" y="85.54" width="10.69" height="10.7"/><rect class="cls-1" x="32.08" y="74.85" width="10.69" height="10.69"/><rect class="cls-1" x="32.08" y="64.16" width="10.69" height="10.69"/><rect class="cls-1" x="32.08" y="53.47" width="10.69" height="10.69"/><rect class="cls-1" x="32.08" y="42.77" width="10.69" height="10.7"/><rect class="cls-1" x="32.08" y="32.08" width="10.69" height="10.69"/><rect class="cls-1" x="21.39" y="85.54" width="10.69" height="10.7"/><rect class="cls-1" x="21.39" y="74.85" width="10.69" height="10.69"/><rect class="cls-1" x="21.39" y="64.16" width="10.69" height="10.69"/><rect class="cls-1" x="21.39" y="53.47" width="10.69" height="10.69"/><rect class="cls-1" x="21.39" y="42.77" width="10.69" height="10.7"/><rect class="cls-1" x="10.69" y="74.85" width="10.7" height="10.69"/><rect class="cls-1" x="10.69" y="64.16" width="10.7" height="10.69"/><rect class="cls-1" x="10.69" y="53.47" width="10.7" height="10.69"/><rect class="cls-1" x="10.69" y="42.77" width="10.7" height="10.7"/><rect class="cls-1" y="74.85" width="10.69" height="10.69"/><rect class="cls-1" y="64.16" width="10.69" height="10.69"/><rect class="cls-1" y="53.47" width="10.69" height="10.69"/></g></g></svg>