<?xml version="1.0" encoding="utf-8"?>
<svg xmlns="http://www.w3.org/2000/svg" viewBox="-318.4123 -213.4955 224 112.0026" width="224px" height="112.0026px"><g transform="matrix(0.2187499850988388, 0, 0, 0.21875499188899994, -318.4122619628906, -269.49676513671875)" id="object-2"><path d="M 0 426.667 H 42.667 V 469.333 H 0 V 426.667 Z" style="fill: #1c3c3c;"/><path d="M 0 469.333 H 42.667 V 512 H 0 V 469.333 Z" style="fill: #1c3c3c;"/><path d="M 0 512 H 42.667 V 554.667 H 0 V 512 Z" style="fill: #1c3c3c;"/><path d="M 0 554.667 H 42.667 V 597.333 H 0 V 554.667 Z" style="fill: #1c3c3c;"/><path d="M 42.667 341.333 H 85.333 V 384 H 42.667 V 341.333 Z" style="fill: #1c3c3c;"/><path d="M 42.667 384 H 85.333 V 426.667 H 42.667 V 384 Z" style="fill: #1c3c3c;"/><path d="M 42.667 426.667 H 85.333 V 469.333 H 42.667 V 426.667 Z" style="fill: #1c3c3c;"/><path d="M 42.667 469.333 H 85.333 V 512 H 42.667 V 469.333 Z" style="fill: #1c3c3c;"/><path d="M 42.667 512 H 85.333 V 554.667 H 42.667 V 512 Z" style="fill: #1c3c3c;"/><path d="M 42.667 554.667 H 85.333 V 597.333 H 42.667 V 554.667 Z" style="fill: #1c3c3c;"/><path d="M 42.667 597.333 H 85.333 V 640 H 42.667 V 597.333 Z" style="fill: #1c3c3c;"/><path d="M 42.667 640 H 85.333 V 682.667 H 42.667 V 640 Z" style="fill: #1c3c3c;"/><path d="M 85.333 298.667 H 128 V 341.333 H 85.333 V 298.667 Z" style="fill: #1c3c3c;"/><path d="M 85.333 341.333 H 128 V 384 H 85.333 V 341.333 Z" style="fill: #1c3c3c;"/><path d="M 85.333 384 H 128 V 426.667 H 85.333 V 384 Z" style="fill: #1c3c3c;"/><path d="M 85.333 426.667 H 128 V 469.333 H 85.333 V 426.667 Z" style="fill: #1c3c3c;"/><path d="M 85.333 469.333 H 128 V 512 H 85.333 V 469.333 Z" style="fill: #1c3c3c;"/><path d="M 85.333 512 H 128 V 554.667 H 85.333 V 512 Z" style="fill: #1c3c3c;"/><path d="M 85.333 554.667 H 128 V 597.333 H 85.333 V 554.667 Z" style="fill: #1c3c3c;"/><path d="M 85.333 597.333 H 128 V 640 H 85.333 V 597.333 Z" style="fill: #1c3c3c;"/><path d="M 85.333 640 H 128 V 682.667 H 85.333 V 640 Z" style="fill: #1c3c3c;"/><path d="M 85.333 682.667 H 128 V 725.333 H 85.333 V 682.667 Z" style="fill: #1c3c3c;"/><path d="M 128 256 H 170.667 V 298.667 H 128 V 256 Z" style="fill: rgba(28,61,61,0.7);"/><path d="M 128 298.667 H 170.667 V 341.333 H 128 V 298.667 Z" style="fill: #1c3c3c;"/><path d="M 128 341.333 H 170.667 V 384 H 128 V 341.333 Z" style="fill: #1c3c3c;"/><path d="M 128 384 H 170.667 V 426.667 H 128 V 384 Z" style="fill: #1c3c3c;"/><path d="M 128 426.667 H 170.667 V 469.333 H 128 V 426.667 Z" style="fill: #1c3c3c;"/><path d="M 128 469.333 H 170.667 V 512 H 128 V 469.333 Z" style="fill: #1c3c3c;"/><path d="M 128 512 H 170.667 V 554.667 H 128 V 512 Z" style="fill: #1c3c3c;"/><path d="M 128 554.667 H 170.667 V 597.333 H 128 V 554.667 Z" style="fill: #1c3c3c;"/><path d="M 128 597.333 H 170.667 V 640 H 128 V 597.333 Z" style="fill: #1c3c3c;"/><path d="M 128 640 H 170.667 V 682.667 H 128 V 640 Z" style="fill: #1c3c3c;"/><path d="M 128 682.667 H 170.667 V 725.333 H 128 V 682.667 Z" style="fill: #1c3c3c;"/><path d="M 128 725.333 H 170.667 V 768 H 128 V 725.333 Z" style="fill: rgba(85,85,85,0.02);"/><path d="M 170.667 256 H 213.333 V 298.667 H 170.667 V 256 Z" style="fill: #1c3c3c;"/><path d="M 170.667 298.667 H 213.333 V 341.333 H 170.667 V 298.667 Z" style="fill: #1c3c3c;"/><path d="M 170.667 341.333 H 213.333 V 384 H 170.667 V 341.333 Z" style="fill: #1c3c3c;"/><path d="M 170.667 426.667 H 213.333 V 469.333 H 170.667 V 426.667 Z" style="fill: #1c3c3c;"/><path d="M 170.667 469.333 H 213.333 V 512 H 170.667 V 469.333 Z" style="fill: #1c3c3c;"/><path d="M 170.667 512 H 213.333 V 554.667 H 170.667 V 512 Z" style="fill: #1c3c3c;"/><path d="M 170.667 554.667 H 213.333 V 597.333 H 170.667 V 554.667 Z" style="fill: #1c3c3c;"/><path d="M 170.667 597.333 H 213.333 V 640 H 170.667 V 597.333 Z" style="fill: #1c3c3c;"/><path d="M 170.667 640 H 213.333 V 682.667 H 170.667 V 640 Z" style="fill: #1c3c3c;"/><path d="M 170.667 682.667 H 213.333 V 725.333 H 170.667 V 682.667 Z" style="fill: #1c3c3c;"/><path d="M 170.667 725.333 H 213.333 V 768 H 170.667 V 725.333 Z" style="fill: #1c3c3c;"/><path d="M 213.333 256 H 256 V 298.667 H 213.333 V 256 Z" style="fill: #1c3c3c;"/><path d="M 213.333 298.667 H 256 V 341.333 H 213.333 V 298.667 Z" style="fill: #1c3c3c;"/><path d="M 213.333 426.667 H 256 V 469.333 H 213.333 V 426.667 Z" style="fill: #1c3c3c;"/><path d="M 213.333 469.333 H 256 V 512 H 213.333 V 469.333 Z" style="fill: #1c3c3c;"/><path d="M 213.333 512 H 256 V 554.667 H 213.333 V 512 Z" style="fill: #1c3c3c;"/><path d="M 213.333 554.667 H 256 V 597.333 H 213.333 V 554.667 Z" style="fill: #1c3c3c;"/><path d="M 213.333 597.333 H 256 V 640 H 213.333 V 597.333 Z" style="fill: #1c3c3c;"/><path d="M 213.333 640 H 256 V 682.667 H 213.333 V 640 Z" style="fill: #1c3c3c;"/><path d="M 213.333 682.667 H 256 V 725.333 H 213.333 V 682.667 Z" style="fill: #1c3c3c;"/><path d="M 213.333 725.333 H 256 V 768 H 213.333 V 725.333 Z" style="fill: #1c3c3c;"/><path d="M 256 256 H 298.667 V 298.667 H 256 V 256 Z" style="fill: #1c3c3c;"/><path d="M 256 298.667 H 298.667 V 341.333 H 256 V 298.667 Z" style="fill: #1c3c3c;"/><path d="M 256 554.667 H 298.667 V 597.333 H 256 V 554.667 Z" style="fill: #1c3c3c;"/><path d="M 256 597.333 H 298.667 V 640 H 256 V 597.333 Z" style="fill: #1c3c3c;"/><path d="M 256 682.667 H 298.667 V 725.333 H 256 V 682.667 Z" style="fill: #1c3c3c;"/><path d="M 256 725.333 H 298.667 V 768 H 256 V 725.333 Z" style="fill: #1c3c3c;"/><path d="M 298.667 256 H 341.333 V 298.667 H 298.667 V 256 Z" style="fill: #1c3c3c;"/><path d="M 298.667 298.667 H 341.333 V 341.333 H 298.667 V 298.667 Z" style="fill: #1c3c3c;"/><path d="M 298.667 341.333 H 341.333 V 384 H 298.667 V 341.333 Z" style="fill: #1c3c3c;"/><path d="M 298.667 682.667 H 341.333 V 725.333 H 298.667 V 682.667 Z" style="fill: #1c3c3c;"/><path d="M 298.667 725.333 H 341.333 V 768 H 298.667 V 725.333 Z" style="fill: #1c3c3c;"/><path d="M 341.333 256 H 384 V 298.667 H 341.333 V 256 Z" style="fill: #1c3c3c;"/><path d="M 341.333 298.667 H 384 V 341.333 H 341.333 V 298.667 Z" style="fill: #1c3c3c;"/><path d="M 341.333 341.333 H 384 V 384 H 341.333 V 341.333 Z" style="fill: #1c3c3c;"/><path d="M 341.333 384 H 384 V 426.667 H 341.333 V 384 Z" style="fill: #1c3c3c;"/><path d="M 341.333 640 H 384 V 682.667 H 341.333 V 640 Z" style="fill: #1c3c3c;"/><path d="M 341.333 682.667 H 384 V 725.333 H 341.333 V 682.667 Z" style="fill: #1c3c3c;"/><path d="M 341.333 725.333 H 384 V 768 H 341.333 V 725.333 Z" style="fill: #1c3c3c;"/><path d="M 384 256 H 426.667 V 298.667 H 384 V 256 Z" style="fill: #1c3c3c;"/><path d="M 384 298.667 H 426.667 V 341.333 H 384 V 298.667 Z" style="fill: #1c3c3c;"/><path d="M 384 341.333 H 426.667 V 384 H 384 V 341.333 Z" style="fill: #1c3c3c;"/><path d="M 384 384 H 426.667 V 426.667 H 384 V 384 Z" style="fill: #1c3c3c;"/><path d="M 384 426.667 H 426.667 V 469.333 H 384 V 426.667 Z" style="fill: #1c3c3c;"/><path d="M 384 597.333 H 426.667 V 640 H 384 V 597.333 Z" style="fill: rgba(29,62,62,0.9);"/><path d="M 384 640 H 426.667 V 682.667 H 384 V 640 Z" style="fill: #1c3c3c;"/><path d="M 384 682.667 H 426.667 V 725.333 H 384 V 682.667 Z" style="fill: #1c3c3c;"/><path d="M 384 725.333 H 426.667 V 768 H 384 V 725.333 Z" style="fill: #1c3c3c;"/><path d="M 426.667 256 H 469.333 V 298.667 H 426.667 V 256 Z" style="fill: #1c3c3c;"/><path d="M 426.667 298.667 H 469.333 V 341.333 H 426.667 V 298.667 Z" style="fill: #1c3c3c;"/><path d="M 426.667 341.333 H 469.333 V 384 H 426.667 V 341.333 Z" style="fill: #1c3c3c;"/><path d="M 426.667 384 H 469.333 V 426.667 H 426.667 V 384 Z" style="fill: #1c3c3c;"/><path d="M 426.667 426.667 H 469.333 V 469.333 H 426.667 V 426.667 Z" style="fill: #1c3c3c;"/><path d="M 426.667 469.333 H 469.333 V 512 H 426.667 V 469.333 Z" style="fill: #1c3c3c;"/><path d="M 426.667 512 H 469.333 V 554.667 H 426.667 V 512 Z" style="fill: #1c3c3c;"/><path d="M 426.667 640 H 469.333 V 682.667 H 426.667 V 640 Z" style="fill: #1c3c3c;"/><path d="M 426.667 682.667 H 469.333 V 725.333 H 426.667 V 682.667 Z" style="fill: #1c3c3c;"/><path d="M 426.667 725.333 H 469.333 V 768 H 426.667 V 725.333 Z" style="fill: #1c3c3c;"/><path d="M 469.333 256 H 512 V 298.667 H 469.333 V 256 Z" style="fill: #1c3c3c;"/><path d="M 469.333 298.667 H 512 V 341.333 H 469.333 V 298.667 Z" style="fill: #1c3c3c;"/><path d="M 469.333 341.333 H 512 V 384 H 469.333 V 341.333 Z" style="fill: #1c3c3c;"/><path d="M 469.333 384 H 512 V 426.667 H 469.333 V 384 Z" style="fill: #1c3c3c;"/><path d="M 469.333 426.667 H 512 V 469.333 H 469.333 V 426.667 Z" style="fill: #1c3c3c;"/><path d="M 469.333 469.333 H 512 V 512 H 469.333 V 469.333 Z" style="fill: #1c3c3c;"/><path d="M 469.333 512 H 512 V 554.667 H 469.333 V 512 Z" style="fill: #1c3c3c;"/><path d="M 469.333 554.667 H 512 V 597.333 H 469.333 V 554.667 Z" style="fill: #1c3c3c;"/><path d="M 469.333 597.333 H 512 V 640 H 469.333 V 597.333 Z" style="fill: #1c3c3c;"/><path d="M 469.333 640 H 512 V 682.667 H 469.333 V 640 Z" style="fill: #1c3c3c;"/><path d="M 469.333 682.667 H 512 V 725.333 H 469.333 V 682.667 Z" style="fill: #1c3c3c;"/><path d="M 469.333 725.333 H 512 V 768 H 469.333 V 725.333 Z" style="fill: #1c3c3c;"/><path d="M 512 256 H 554.667 V 298.667 H 512 V 256 Z" style="fill: #1c3c3c;"/><path d="M 512 298.667 H 554.667 V 341.333 H 512 V 298.667 Z" style="fill: #1c3c3c;"/><path d="M 512 341.333 H 554.667 V 384 H 512 V 341.333 Z" style="fill: #1c3c3c;"/><path d="M 512 384 H 554.667 V 426.667 H 512 V 384 Z" style="fill: #1c3c3c;"/><path d="M 512 426.667 H 554.667 V 469.333 H 512 V 426.667 Z" style="fill: #1c3c3c;"/><path d="M 512 469.333 H 554.667 V 512 H 512 V 469.333 Z" style="fill: #1c3c3c;"/><path d="M 512 512 H 554.667 V 554.667 H 512 V 512 Z" style="fill: #1c3c3c;"/><path d="M 512 554.667 H 554.667 V 597.333 H 512 V 554.667 Z" style="fill: #1c3c3c;"/><path d="M 512 597.333 H 554.667 V 640 H 512 V 597.333 Z" style="fill: #1c3c3c;"/><path d="M 512 640 H 554.667 V 682.667 H 512 V 640 Z" style="fill: #1c3c3c;"/><path d="M 512 682.667 H 554.667 V 725.333 H 512 V 682.667 Z" style="fill: #1c3c3c;"/><path d="M 512 725.333 H 554.667 V 768 H 512 V 725.333 Z" style="fill: #1c3c3c;"/><path d="M 554.667 256 H 597.333 V 298.667 H 554.667 V 256 Z" style="fill: #1c3c3c;"/><path d="M 554.667 298.667 H 597.333 V 341.333 H 554.667 V 298.667 Z" style="fill: #1c3c3c;"/><path d="M 554.667 341.333 H 597.333 V 384 H 554.667 V 341.333 Z" style="fill: #1c3c3c;"/><path d="M 554.667 384 H 597.333 V 426.667 H 554.667 V 384 Z" style="fill: #1c3c3c;"/><path d="M 554.667 426.667 H 597.333 V 469.333 H 554.667 V 426.667 Z" style="fill: #1c3c3c;"/><path d="M 554.667 469.333 H 597.333 V 512 H 554.667 V 469.333 Z" style="fill: #1c3c3c;"/><path d="M 554.667 640 H 597.333 V 682.667 H 554.667 V 640 Z" style="fill: #1c3c3c;"/><path d="M 554.667 682.667 H 597.333 V 725.333 H 554.667 V 682.667 Z" style="fill: #1c3c3c;"/><path d="M 554.667 725.333 H 597.333 V 768 H 554.667 V 725.333 Z" style="fill: #1c3c3c;"/><path d="M 597.333 256 H 640 V 298.667 H 597.333 V 256 Z" style="fill: #1c3c3c;"/><path d="M 597.333 298.667 H 640 V 341.333 H 597.333 V 298.667 Z" style="fill: #1c3c3c;"/><path d="M 597.333 341.333 H 640 V 384 H 597.333 V 341.333 Z" style="fill: #1c3c3c;"/><path d="M 597.333 384 H 640 V 426.667 H 597.333 V 384 Z" style="fill: #1c3c3c;"/><path d="M 597.333 426.667 H 640 V 469.333 H 597.333 V 426.667 Z" style="fill: #1c3c3c;"/><path d="M 597.333 512 H 640 V 554.667 H 597.333 V 512 Z" style="fill: rgba(28,60,60,0.88);"/><path d="M 597.333 554.667 H 640 V 597.333 H 597.333 V 554.667 Z" style="fill: #1c3c3c;"/><path d="M 597.333 640 H 640 V 682.667 H 597.333 V 640 Z" style="fill: #1c3c3c;"/><path d="M 597.333 682.667 H 640 V 725.333 H 597.333 V 682.667 Z" style="fill: #1c3c3c;"/><path d="M 597.333 725.333 H 640 V 768 H 597.333 V 725.333 Z" style="fill: #1c3c3c;"/><path d="M 640 256 H 682.667 V 298.667 H 640 V 256 Z" style="fill: #1c3c3c;"/><path d="M 640 298.667 H 682.667 V 341.333 H 640 V 298.667 Z" style="fill: #1c3c3c;"/><path d="M 640 341.333 H 682.667 V 384 H 640 V 341.333 Z" style="fill: #1c3c3c;"/><path d="M 640 384 H 682.667 V 426.667 H 640 V 384 Z" style="fill: #1c3c3c;"/><path d="M 640 426.667 H 682.667 V 469.333 H 640 V 426.667 Z" style="fill: #1c3c3c;"/><path d="M 640 512 H 682.667 V 554.667 H 640 V 512 Z" style="fill: #1c3c3c;"/><path d="M 640 554.667 H 682.667 V 597.333 H 640 V 554.667 Z" style="fill: #1c3c3c;"/><path d="M 640 597.333 H 682.667 V 640 H 640 V 597.333 Z" style="fill: #1c3c3c;"/><path d="M 640 682.667 H 682.667 V 725.333 H 640 V 682.667 Z" style="fill: #1c3c3c;"/><path d="M 640 725.333 H 682.667 V 768 H 640 V 725.333 Z" style="fill: #1c3c3c;"/><path d="M 682.667 256 H 725.333 V 298.667 H 682.667 V 256 Z" style="fill: #1c3c3c;"/><path d="M 682.667 298.667 H 725.333 V 341.333 H 682.667 V 298.667 Z" style="fill: #1c3c3c;"/><path d="M 682.667 341.333 H 725.333 V 384 H 682.667 V 341.333 Z" style="fill: #1c3c3c;"/><path d="M 682.667 469.333 H 725.333 V 512 H 682.667 V 469.333 Z" style="fill: #1c3c3c;"/><path d="M 682.667 554.667 H 725.333 V 597.333 H 682.667 V 554.667 Z" style="fill: #1c3c3c;"/><path d="M 682.667 640 H 725.333 V 682.667 H 682.667 V 640 Z" style="fill: #1c3c3c;"/><path d="M 682.667 682.667 H 725.333 V 725.333 H 682.667 V 682.667 Z" style="fill: #1c3c3c;"/><path d="M 682.667 725.333 H 725.333 V 768 H 682.667 V 725.333 Z" style="fill: #1c3c3c;"/><path d="M 725.333 256 H 768 V 298.667 H 725.333 V 256 Z" style="fill: #1c3c3c;"/><path d="M 725.333 298.667 H 768 V 341.333 H 725.333 V 298.667 Z" style="fill: #1c3c3c;"/><path d="M 725.333 426.667 H 768 V 469.333 H 725.333 V 426.667 Z" style="fill: #1c3c3c;"/><path d="M 725.333 597.333 H 768 V 640 H 725.333 V 597.333 Z" style="fill: #1c3c3c;"/><path d="M 725.333 640 H 768 V 682.667 H 725.333 V 640 Z" style="fill: #1c3c3c;"/><path d="M 725.333 682.667 H 768 V 725.333 H 725.333 V 682.667 Z" style="fill: #1c3c3c;"/><path d="M 725.333 725.333 H 768 V 768 H 725.333 V 725.333 Z" style="fill: #1c3c3c;"/><path d="M 768 256 H 810.667 V 298.667 H 768 V 256 Z" style="fill: #1c3c3c;"/><path d="M 768 298.667 H 810.667 V 341.333 H 768 V 298.667 Z" style="fill: #1c3c3c;"/><path d="M 768 384 H 810.667 V 426.667 H 768 V 384 Z" style="fill: #1c3c3c;"/><path d="M 768 426.667 H 810.667 V 469.333 H 768 V 426.667 Z" style="fill: #1c3c3c;"/><path d="M 768 469.333 H 810.667 V 512 H 768 V 469.333 Z" style="fill: #1c3c3c;"/><path d="M 768 554.667 H 810.667 V 597.333 H 768 V 554.667 Z" style="fill: #1c3c3c;"/><path d="M 768 597.333 H 810.667 V 640 H 768 V 597.333 Z" style="fill: #1c3c3c;"/><path d="M 768 640 H 810.667 V 682.667 H 768 V 640 Z" style="fill: #1c3c3c;"/><path d="M 768 682.667 H 810.667 V 725.333 H 768 V 682.667 Z" style="fill: #1c3c3c;"/><path d="M 768 725.333 H 810.667 V 768 H 768 V 725.333 Z" style="fill: #1c3c3c;"/><path d="M 810.667 256 H 853.333 V 298.667 H 810.667 V 256 Z" style="fill: #1c3c3c;"/><path d="M 810.667 298.667 H 853.333 V 341.333 H 810.667 V 298.667 Z" style="fill: #1c3c3c;"/><path d="M 810.667 341.333 H 853.333 V 384 H 810.667 V 341.333 Z" style="fill: #1c3c3c;"/><path d="M 810.667 426.667 H 853.333 V 469.333 H 810.667 V 426.667 Z" style="fill: #1c3c3c;"/><path d="M 810.667 512 H 853.333 V 554.667 H 810.667 V 512 Z" style="fill: #1c3c3c;"/><path d="M 810.667 554.667 H 853.333 V 597.333 H 810.667 V 554.667 Z" style="fill: #1c3c3c;"/><path d="M 810.667 597.333 H 853.333 V 640 H 810.667 V 597.333 Z" style="fill: #1c3c3c;"/><path d="M 810.667 640 H 853.333 V 682.667 H 810.667 V 640 Z" style="fill: #1c3c3c;"/><path d="M 810.667 682.667 H 853.333 V 725.333 H 810.667 V 682.667 Z" style="fill: #1c3c3c;"/><path d="M 810.667 725.333 H 853.333 V 768 H 810.667 V 725.333 Z" style="fill: #1c3c3c;"/><path d="M 853.333 256 H 896 V 298.667 H 853.333 V 256 Z" style="fill: rgba(26,66,66,0.3);"/><path d="M 853.333 298.667 H 896 V 341.333 H 853.333 V 298.667 Z" style="fill: #1c3c3c;"/><path d="M 853.333 341.333 H 896 V 384 H 853.333 V 341.333 Z" style="fill: #1c3c3c;"/><path d="M 853.333 384 H 896 V 426.667 H 853.333 V 384 Z" style="fill: #1c3c3c;"/><path d="M 853.333 426.667 H 896 V 469.333 H 853.333 V 426.667 Z" style="fill: #1c3c3c;"/><path d="M 853.333 469.333 H 896 V 512 H 853.333 V 469.333 Z" style="fill: #1c3c3c;"/><path d="M 853.333 512 H 896 V 554.667 H 853.333 V 512 Z" style="fill: #1c3c3c;"/><path d="M 853.333 554.667 H 896 V 597.333 H 853.333 V 554.667 Z" style="fill: #1c3c3c;"/><path d="M 853.333 597.333 H 896 V 640 H 853.333 V 597.333 Z" style="fill: #1c3c3c;"/><path d="M 853.333 640 H 896 V 682.667 H 853.333 V 640 Z" style="fill: #1c3c3c;"/><path d="M 853.333 682.667 H 896 V 725.333 H 853.333 V 682.667 Z" style="fill: #1c3c3c;"/><path d="M 896 298.667 H 938.667 V 341.333 H 896 V 298.667 Z" style="fill: #1c3c3c;"/><path d="M 896 341.333 H 938.667 V 384 H 896 V 341.333 Z" style="fill: #1c3c3c;"/><path d="M 896 384 H 938.667 V 426.667 H 896 V 384 Z" style="fill: #1c3c3c;"/><path d="M 896 426.667 H 938.667 V 469.333 H 896 V 426.667 Z" style="fill: #1c3c3c;"/><path d="M 896 469.333 H 938.667 V 512 H 896 V 469.333 Z" style="fill: #1c3c3c;"/><path d="M 896 512 H 938.667 V 554.667 H 896 V 512 Z" style="fill: #1c3c3c;"/><path d="M 896 554.667 H 938.667 V 597.333 H 896 V 554.667 Z" style="fill: #1c3c3c;"/><path d="M 896 597.333 H 938.667 V 640 H 896 V 597.333 Z" style="fill: #1c3c3c;"/><path d="M 896 640 H 938.667 V 682.667 H 896 V 640 Z" style="fill: #1c3c3c;"/><path d="M 896 682.667 H 938.667 V 725.333 H 896 V 682.667 Z" style="fill: #1c3c3c;"/><path d="M 938.667 341.333 H 981.333 V 384 H 938.667 V 341.333 Z" style="fill: #1c3c3c;"/><path d="M 938.667 384 H 981.333 V 426.667 H 938.667 V 384 Z" style="fill: #1c3c3c;"/><path d="M 938.667 426.667 H 981.333 V 469.333 H 938.667 V 426.667 Z" style="fill: #1c3c3c;"/><path d="M 938.667 469.333 H 981.333 V 512 H 938.667 V 469.333 Z" style="fill: #1c3c3c;"/><path d="M 938.667 512 H 981.333 V 554.667 H 938.667 V 512 Z" style="fill: #1c3c3c;"/><path d="M 938.667 554.667 H 981.333 V 597.333 H 938.667 V 554.667 Z" style="fill: #1c3c3c;"/><path d="M 938.667 597.333 H 981.333 V 640 H 938.667 V 597.333 Z" style="fill: #1c3c3c;"/><path d="M 938.667 640 H 981.333 V 682.667 H 938.667 V 640 Z" style="fill: #1c3c3c;"/><path d="M 981.333 426.667 H 1024 V 469.333 H 981.333 V 426.667 Z" style="fill: #1c3c3c;"/><path d="M 981.333 469.333 H 1024 V 512 H 981.333 V 469.333 Z" style="fill: #1c3c3c;"/><path d="M 981.333 512 H 1024 V 554.667 H 981.333 V 512 Z" style="fill: #1c3c3c;"/><path d="M 981.333 554.667 H 1024 V 597.333 H 981.333 V 554.667 Z" style="fill: #1c3c3c;"/></g></svg>