<?xml version="1.0" encoding="utf-8"?>
<svg xmlns="http://www.w3.org/2000/svg" viewBox="-357.0093 108.239 224.0348 112.0174" width="224.0348px" height="112.0174px"><g transform="matrix(0.21878400444984436, 0, 0, 0.21878400444984436, -357.00927734375, 52.23028564453125)" id="object-1"><path d="M 0 426.667 H 42.667 V 469.333 H 0 V 426.667 Z" style="fill: #ea4b71;"/><path d="M 0 469.333 H 42.667 V 512 H 0 V 469.333 Z" style="fill: #ea4b71;"/><path d="M 0 512 H 42.667 V 554.667 H 0 V 512 Z" style="fill: #ea4b71;"/><path d="M 42.667 426.667 H 85.333 V 469.333 H 42.667 V 426.667 Z" style="fill: #ea4b71;"/><path d="M 42.667 554.667 H 85.333 V 597.333 H 42.667 V 554.667 Z" style="fill: #ea4b71;"/><path d="M 85.333 384 H 128 V 426.667 H 85.333 V 384 Z" style="fill: rgba(233,74,113,0.6);"/><path d="M 85.333 426.667 H 128 V 469.333 H 85.333 V 426.667 Z" style="fill: #ea4b71;"/><path d="M 85.333 554.667 H 128 V 597.333 H 85.333 V 554.667 Z" style="fill: #ea4b71;"/><path d="M 128 426.667 H 170.667 V 469.333 H 128 V 426.667 Z" style="fill: #ea4b71;"/><path d="M 128 554.667 H 170.667 V 597.333 H 128 V 554.667 Z" style="fill: #ea4b71;"/><path d="M 170.667 469.333 H 213.333 V 512 H 170.667 V 469.333 Z" style="fill: #ea4b71;"/><path d="M 170.667 512 H 213.333 V 554.667 H 170.667 V 512 Z" style="fill: #ea4b71;"/><path d="M 213.333 469.333 H 256 V 512 H 213.333 V 469.333 Z" style="fill: #ea4b71;"/><path d="M 213.333 512 H 256 V 554.667 H 213.333 V 512 Z" style="fill: #ea4b71;"/><path d="M 256 469.333 H 298.667 V 512 H 256 V 469.333 Z" style="fill: #ea4b71;"/><path d="M 256 512 H 298.667 V 554.667 H 256 V 512 Z" style="fill: #ea4b71;"/><path d="M 298.667 426.667 H 341.333 V 469.333 H 298.667 V 426.667 Z" style="fill: #ea4b71;"/><path d="M 298.667 512 H 341.333 V 554.667 H 298.667 V 512 Z" style="fill: #ea4b71;"/><path d="M 298.667 554.667 H 341.333 V 597.333 H 298.667 V 554.667 Z" style="fill: #ea4b71;"/><path d="M 341.333 384 H 384 V 426.667 H 341.333 V 384 Z" style="fill: rgba(233,74,113,0.6);"/><path d="M 341.333 426.667 H 384 V 469.333 H 341.333 V 426.667 Z" style="fill: #ea4b71;"/><path d="M 341.333 554.667 H 384 V 597.333 H 341.333 V 554.667 Z" style="fill: #ea4b71;"/><path d="M 384 426.667 H 426.667 V 469.333 H 384 V 426.667 Z" style="fill: #ea4b71;"/><path d="M 384 554.667 H 426.667 V 597.333 H 384 V 554.667 Z" style="fill: #ea4b71;"/><path d="M 426.667 426.667 H 469.333 V 469.333 H 426.667 V 426.667 Z" style="fill: #ea4b71;"/><path d="M 426.667 469.333 H 469.333 V 512 H 426.667 V 469.333 Z" style="fill: #ea4b71;"/><path d="M 426.667 512 H 469.333 V 554.667 H 426.667 V 512 Z" style="fill: #ea4b71;"/><path d="M 469.333 469.333 H 512 V 512 H 469.333 V 469.333 Z" style="fill: #ea4b71;"/><path d="M 469.333 512 H 512 V 554.667 H 469.333 V 512 Z" style="fill: #ea4b71;"/><path d="M 512 469.333 H 554.667 V 512 H 512 V 469.333 Z" style="fill: #ea4b71;"/><path d="M 512 512 H 554.667 V 554.667 H 512 V 512 Z" style="fill: #ea4b71;"/><path d="M 554.667 384 H 597.333 V 426.667 H 554.667 V 384 Z" style="fill: #ea4b71;"/><path d="M 554.667 426.667 H 597.333 V 469.333 H 554.667 V 426.667 Z" style="fill: #ea4b71;"/><path d="M 554.667 469.333 H 597.333 V 512 H 554.667 V 469.333 Z" style="fill: #ea4b71;"/><path d="M 554.667 512 H 597.333 V 554.667 H 554.667 V 512 Z" style="fill: #ea4b71;"/><path d="M 554.667 554.667 H 597.333 V 597.333 H 554.667 V 554.667 Z" style="fill: #ea4b71;"/><path d="M 554.667 597.333 H 597.333 V 640 H 554.667 V 597.333 Z" style="fill: #ea4b71;"/><path d="M 597.333 341.333 H 640 V 384 H 597.333 V 341.333 Z" style="fill: #ea4b71;"/><path d="M 597.333 384 H 640 V 426.667 H 597.333 V 384 Z" style="fill: #ea4b71;"/><path d="M 597.333 597.333 H 640 V 640 H 597.333 V 597.333 Z" style="fill: #ea4b71;"/><path d="M 597.333 640 H 640 V 682.667 H 597.333 V 640 Z" style="fill: #ea4b71;"/><path d="M 640 341.333 H 682.667 V 384 H 640 V 341.333 Z" style="fill: #ea4b71;"/><path d="M 640 640 H 682.667 V 682.667 H 640 V 640 Z" style="fill: #ea4b71;"/><path d="M 682.667 341.333 H 725.333 V 384 H 682.667 V 341.333 Z" style="fill: #ea4b71;"/><path d="M 682.667 640 H 725.333 V 682.667 H 682.667 V 640 Z" style="fill: #ea4b71;"/><path d="M 725.333 341.333 H 768 V 384 H 725.333 V 341.333 Z" style="fill: #ea4b71;"/><path d="M 725.333 597.333 H 768 V 640 H 725.333 V 597.333 Z" style="fill: #ea4b71;"/><path d="M 725.333 640 H 768 V 682.667 H 725.333 V 640 Z" style="fill: #ea4b71;"/><path d="M 725.333 682.667 H 768 V 725.333 H 725.333 V 682.667 Z" style="fill: #ea4b71;"/><path d="M 768 341.333 H 810.667 V 384 H 768 V 341.333 Z" style="fill: #ea4b71;"/><path d="M 768 554.667 H 810.667 V 597.333 H 768 V 554.667 Z" style="fill: #ea4b71;"/><path d="M 768 597.333 H 810.667 V 640 H 768 V 597.333 Z" style="fill: #ea4b71;"/><path d="M 768 725.333 H 810.667 V 768 H 768 V 725.333 Z" style="fill: #ea4b71;"/><path d="M 810.667 298.667 H 853.333 V 341.333 H 810.667 V 298.667 Z" style="fill: #ea4b71;"/><path d="M 810.667 341.333 H 853.333 V 384 H 810.667 V 341.333 Z" style="fill: #ea4b71;"/><path d="M 810.667 384 H 853.333 V 426.667 H 810.667 V 384 Z" style="fill: #ea4b71;"/><path d="M 810.667 554.667 H 853.333 V 597.333 H 810.667 V 554.667 Z" style="fill: #ea4b71;"/><path d="M 810.667 725.333 H 853.333 V 768 H 810.667 V 725.333 Z" style="fill: #ea4b71;"/><path d="M 853.333 256 H 896 V 298.667 H 853.333 V 256 Z" style="fill: #ea4b71;"/><path d="M 853.333 298.667 H 896 V 341.333 H 853.333 V 298.667 Z" style="fill: #ea4b71;"/><path d="M 853.333 384 H 896 V 426.667 H 853.333 V 384 Z" style="fill: #ea4b71;"/><path d="M 853.333 426.667 H 896 V 469.333 H 853.333 V 426.667 Z" style="fill: #ea4b71;"/><path d="M 853.333 597.333 H 896 V 640 H 853.333 V 597.333 Z" style="fill: #ea4b71;"/><path d="M 853.333 640 H 896 V 682.667 H 853.333 V 640 Z" style="fill: #ea4b71;"/><path d="M 853.333 682.667 H 896 V 725.333 H 853.333 V 682.667 Z" style="fill: #ea4b71;"/><path d="M 853.333 725.333 H 896 V 768 H 853.333 V 725.333 Z" style="fill: #ea4b71;"/><path d="M 896 256 H 938.667 V 298.667 H 896 V 256 Z" style="fill: #ea4b71;"/><path d="M 896 426.667 H 938.667 V 469.333 H 896 V 426.667 Z" style="fill: #ea4b71;"/><path d="M 896 640 H 938.667 V 682.667 H 896 V 640 Z" style="fill: #ea4b71;"/><path d="M 938.667 256 H 981.333 V 298.667 H 938.667 V 256 Z" style="fill: #ea4b71;"/><path d="M 938.667 298.667 H 981.333 V 341.333 H 938.667 V 298.667 Z" style="fill: #ea4b71;"/><path d="M 938.667 384 H 981.333 V 426.667 H 938.667 V 384 Z" style="fill: #ea4b71;"/><path d="M 938.667 426.667 H 981.333 V 469.333 H 938.667 V 426.667 Z" style="fill: #ea4b71;"/><path d="M 981.333 298.667 H 1024 V 341.333 H 981.333 V 298.667 Z" style="fill: #ea4b71;"/><path d="M 981.333 341.333 H 1024 V 384 H 981.333 V 341.333 Z" style="fill: #ea4b71;"/><path d="M 981.333 384 H 1024 V 426.667 H 981.333 V 384 Z" style="fill: #ea4b71;"/></g></svg>