<?xml version="1.0" encoding="utf-8"?>
<svg xmlns="http://www.w3.org/2000/svg" viewBox="216.1022 -301.0474 223.9996 226.9901" width="223.9996px" height="226.9901px"><g transform="matrix(0.11083599925041199, 0, 0, 0.110835000872612, 216.1021728515625, -301.0473937988281)" id="object-4"><path d="M 0 682.667 H 84.208 V 768 H 0 V 682.667 Z" style="fill: #000000;"/><path d="M 0 768 H 84.208 V 853.333 H 0 V 768 Z" style="fill: #000000;"/><path d="M 0 853.333 H 84.208 V 938.667 H 0 V 853.333 Z" style="fill: #000000;"/><path d="M 0 938.667 H 84.208 V 1024 H 0 V 938.667 Z" style="fill: #000000;"/><path d="M 0 1024 H 84.208 V 1109.333 H 0 V 1024 Z" style="fill: rgba(0,0,0,0.44);"/><path d="M 84.208 512 H 168.417 V 597.333 H 84.208 V 512 Z" style="fill: #000000;"/><path d="M 84.208 597.333 H 168.417 V 682.667 H 84.208 V 597.333 Z" style="fill: #000000;"/><path d="M 84.208 682.667 H 168.417 V 768 H 84.208 V 682.667 Z" style="fill: #000000;"/><path d="M 84.208 768 H 168.417 V 853.333 H 84.208 V 768 Z" style="fill: #000000;"/><path d="M 84.208 853.333 H 168.417 V 938.667 H 84.208 V 853.333 Z" style="fill: #000000;"/><path d="M 84.208 938.667 H 168.417 V 1024 H 84.208 V 938.667 Z" style="fill: #000000;"/><path d="M 84.208 1024 H 168.417 V 1109.333 H 84.208 V 1024 Z" style="fill: #000000;"/><path d="M 84.208 1109.333 H 168.417 V 1194.667 H 84.208 V 1109.333 Z" style="fill: #000000;"/><path d="M 84.208 1194.667 H 168.417 V 1280 H 84.208 V 1194.667 Z" style="fill: #000000;"/><path d="M 84.208 1280 H 168.417 V 1365.333 H 84.208 V 1280 Z" style="fill: #000000;"/><path d="M 84.208 1365.333 H 168.417 V 1450.667 H 84.208 V 1365.333 Z" style="fill: #000000;"/><path d="M 84.208 1450.667 H 168.417 V 1536 H 84.208 V 1450.667 Z" style="fill: #000000;"/><path d="M 168.417 426.667 H 252.625 V 512 H 168.417 V 426.667 Z" style="fill: #000000;"/><path d="M 168.417 512 H 252.625 V 597.333 H 168.417 V 512 Z" style="fill: #000000;"/><path d="M 168.417 1109.333 H 252.625 V 1194.667 H 168.417 V 1109.333 Z" style="fill: #000000;"/><path d="M 168.417 1194.667 H 252.625 V 1280 H 168.417 V 1194.667 Z" style="fill: #000000;"/><path d="M 168.417 1280 H 252.625 V 1365.333 H 168.417 V 1280 Z" style="fill: #000000;"/><path d="M 168.417 1365.333 H 252.625 V 1450.667 H 168.417 V 1365.333 Z" style="fill: #000000;"/><path d="M 168.417 1450.667 H 252.625 V 1536 H 168.417 V 1450.667 Z" style="fill: #000000;"/><path d="M 168.417 1536 H 252.625 V 1621.333 H 168.417 V 1536 Z" style="fill: #000000;"/><path d="M 168.417 1621.333 H 252.625 V 1706.667 H 168.417 V 1621.333 Z" style="fill: #000000;"/><path d="M 252.625 426.667 H 336.833 V 512 H 252.625 V 426.667 Z" style="fill: #000000;"/><path d="M 252.625 1194.667 H 336.833 V 1280 H 252.625 V 1194.667 Z" style="fill: #000000;"/><path d="M 252.625 1280 H 336.833 V 1365.333 H 252.625 V 1280 Z" style="fill: #000000;"/><path d="M 252.625 1536 H 336.833 V 1621.333 H 252.625 V 1536 Z" style="fill: #000000;"/><path d="M 252.625 1621.333 H 336.833 V 1706.667 H 252.625 V 1621.333 Z" style="fill: #000000;"/><path d="M 252.625 1706.667 H 336.833 V 1792 H 252.625 V 1706.667 Z" style="fill: #000000;"/><path d="M 336.833 341.333 H 421.042 V 426.667 H 336.833 V 341.333 Z" style="fill: #000000;"/><path d="M 336.833 426.667 H 421.042 V 512 H 336.833 V 426.667 Z" style="fill: #000000;"/><path d="M 336.833 1194.667 H 421.042 V 1280 H 336.833 V 1194.667 Z" style="fill: #000000;"/><path d="M 336.833 1280 H 421.042 V 1365.333 H 336.833 V 1280 Z" style="fill: #000000;"/><path d="M 336.833 1621.333 H 421.042 V 1706.667 H 336.833 V 1621.333 Z" style="fill: rgba(0,0,0,0.88);"/><path d="M 336.833 1706.667 H 421.042 V 1792 H 336.833 V 1706.667 Z" style="fill: #000000;"/><path d="M 421.042 256 H 505.25 V 341.333 H 421.042 V 256 Z" style="fill: #000000;"/><path d="M 421.042 341.333 H 505.25 V 426.667 H 421.042 V 341.333 Z" style="fill: #000000;"/><path d="M 421.042 426.667 H 505.25 V 512 H 421.042 V 426.667 Z" style="fill: #000000;"/><path d="M 421.042 512 H 505.25 V 597.333 H 421.042 V 512 Z" style="fill: #000000;"/><path d="M 421.042 597.333 H 505.25 V 682.667 H 421.042 V 597.333 Z" style="fill: #000000;"/><path d="M 421.042 682.667 H 505.25 V 768 H 421.042 V 682.667 Z" style="fill: #000000;"/><path d="M 421.042 768 H 505.25 V 853.333 H 421.042 V 768 Z" style="fill: #000000;"/><path d="M 421.042 853.333 H 505.25 V 938.667 H 421.042 V 853.333 Z" style="fill: #000000;"/><path d="M 421.042 938.667 H 505.25 V 1024 H 421.042 V 938.667 Z" style="fill: #000000;"/><path d="M 421.042 1024 H 505.25 V 1109.333 H 421.042 V 1024 Z" style="fill: #000000;"/><path d="M 421.042 1280 H 505.25 V 1365.333 H 421.042 V 1280 Z" style="fill: #000000;"/><path d="M 421.042 1365.333 H 505.25 V 1450.667 H 421.042 V 1365.333 Z" style="fill: #000000;"/><path d="M 421.042 1706.667 H 505.25 V 1792 H 421.042 V 1706.667 Z" style="fill: #000000;"/><path d="M 421.042 1792 H 505.25 V 1877.333 H 421.042 V 1792 Z" style="fill: #000000;"/><path d="M 505.25 170.667 H 589.458 V 256 H 505.25 V 170.667 Z" style="fill: #000000;"/><path d="M 505.25 256 H 589.458 V 341.333 H 505.25 V 256 Z" style="fill: #000000;"/><path d="M 505.25 1024 H 589.458 V 1109.333 H 505.25 V 1024 Z" style="fill: #000000;"/><path d="M 505.25 1280 H 589.458 V 1365.333 H 505.25 V 1280 Z" style="fill: rgba(0,0,0,0.78);"/><path d="M 505.25 1365.333 H 589.458 V 1450.667 H 505.25 V 1365.333 Z" style="fill: #000000;"/><path d="M 505.25 1706.667 H 589.458 V 1792 H 505.25 V 1706.667 Z" style="fill: #000000;"/><path d="M 505.25 1792 H 589.458 V 1877.333 H 505.25 V 1792 Z" style="fill: #000000;"/><path d="M 589.458 85.333 H 673.667 V 170.667 H 589.458 V 85.333 Z" style="fill: #000000;"/><path d="M 589.458 170.667 H 673.667 V 256 H 589.458 V 170.667 Z" style="fill: #000000;"/><path d="M 589.458 1024 H 673.667 V 1109.333 H 589.458 V 1024 Z" style="fill: #000000;"/><path d="M 589.458 1109.333 H 673.667 V 1194.667 H 589.458 V 1109.333 Z" style="fill: #000000;"/><path d="M 589.458 1365.333 H 673.667 V 1450.667 H 589.458 V 1365.333 Z" style="fill: #000000;"/><path d="M 589.458 1450.667 H 673.667 V 1536 H 589.458 V 1450.667 Z" style="fill: #000000;"/><path d="M 589.458 1792 H 673.667 V 1877.333 H 589.458 V 1792 Z" style="fill: #000000;"/><path d="M 673.667 0 H 757.875 V 85.333 H 673.667 V 0 Z" style="fill: #000000;"/><path d="M 673.667 85.333 H 757.875 V 170.667 H 673.667 V 85.333 Z" style="fill: #000000;"/><path d="M 673.667 512 H 757.875 V 597.333 H 673.667 V 512 Z" style="fill: #000000;"/><path d="M 673.667 597.333 H 757.875 V 682.667 H 673.667 V 597.333 Z" style="fill: #000000;"/><path d="M 673.667 682.667 H 757.875 V 768 H 673.667 V 682.667 Z" style="fill: #000000;"/><path d="M 673.667 768 H 757.875 V 853.333 H 673.667 V 768 Z" style="fill: #000000;"/><path d="M 673.667 853.333 H 757.875 V 938.667 H 673.667 V 853.333 Z" style="fill: #000000;"/><path d="M 673.667 938.667 H 757.875 V 1024 H 673.667 V 938.667 Z" style="fill: #000000;"/><path d="M 673.667 1024 H 757.875 V 1109.333 H 673.667 V 1024 Z" style="fill: #000000;"/><path d="M 673.667 1109.333 H 757.875 V 1194.667 H 673.667 V 1109.333 Z" style="fill: #000000;"/><path d="M 673.667 1450.667 H 757.875 V 1536 H 673.667 V 1450.667 Z" style="fill: #000000;"/><path d="M 673.667 1706.667 H 757.875 V 1792 H 673.667 V 1706.667 Z" style="fill: #000000;"/><path d="M 673.667 1792 H 757.875 V 1877.333 H 673.667 V 1792 Z" style="fill: #000000;"/><path d="M 757.875 0 H 842.083 V 85.333 H 757.875 V 0 Z" style="fill: #000000;"/><path d="M 757.875 85.333 H 842.083 V 170.667 H 757.875 V 85.333 Z" style="fill: #000000;"/><path d="M 757.875 426.667 H 842.083 V 512 H 757.875 V 426.667 Z" style="fill: #000000;"/><path d="M 757.875 512 H 842.083 V 597.333 H 757.875 V 512 Z" style="fill: #000000;"/><path d="M 757.875 768 H 842.083 V 853.333 H 757.875 V 768 Z" style="fill: #000000;"/><path d="M 757.875 1194.667 H 842.083 V 1280 H 757.875 V 1194.667 Z" style="fill: #000000;"/><path d="M 757.875 1365.333 H 842.083 V 1450.667 H 757.875 V 1365.333 Z" style="fill: #000000;"/><path d="M 757.875 1450.667 H 842.083 V 1536 H 757.875 V 1450.667 Z" style="fill: #000000;"/><path d="M 757.875 1706.667 H 842.083 V 1792 H 757.875 V 1706.667 Z" style="fill: #000000;"/><path d="M 757.875 1792 H 842.083 V 1877.333 H 757.875 V 1792 Z" style="fill: #000000;"/><path d="M 757.875 1877.333 H 842.083 V 1962.667 H 757.875 V 1877.333 Z" style="fill: #000000;"/><path d="M 842.083 0 H 926.292 V 85.333 H 842.083 V 0 Z" style="fill: #000000;"/><path d="M 842.083 85.333 H 926.292 V 170.667 H 842.083 V 85.333 Z" style="fill: #000000;"/><path d="M 842.083 341.333 H 926.292 V 426.667 H 842.083 V 341.333 Z" style="fill: #000000;"/><path d="M 842.083 426.667 H 926.292 V 512 H 842.083 V 426.667 Z" style="fill: #000000;"/><path d="M 842.083 768 H 926.292 V 853.333 H 842.083 V 768 Z" style="fill: #000000;"/><path d="M 842.083 1194.667 H 926.292 V 1280 H 842.083 V 1194.667 Z" style="fill: #000000;"/><path d="M 842.083 1365.333 H 926.292 V 1450.667 H 842.083 V 1365.333 Z" style="fill: #000000;"/><path d="M 842.083 1621.333 H 926.292 V 1706.667 H 842.083 V 1621.333 Z" style="fill: rgba(0,0,0,0.88);"/><path d="M 842.083 1706.667 H 926.292 V 1792 H 842.083 V 1706.667 Z" style="fill: #000000;"/><path d="M 842.083 1792 H 926.292 V 1877.333 H 842.083 V 1792 Z" style="fill: rgba(0,0,0,0.88);"/><path d="M 842.083 1877.333 H 926.292 V 1962.667 H 842.083 V 1877.333 Z" style="fill: #000000;"/><path d="M 926.292 0 H 1010.5 V 85.333 H 926.292 V 0 Z" style="fill: #000000;"/><path d="M 926.292 85.333 H 1010.5 V 170.667 H 926.292 V 85.333 Z" style="fill: #000000;"/><path d="M 926.292 341.333 H 1010.5 V 426.667 H 926.292 V 341.333 Z" style="fill: #000000;"/><path d="M 926.292 426.667 H 1010.5 V 512 H 926.292 V 426.667 Z" style="fill: #000000;"/><path d="M 926.292 682.667 H 1010.5 V 768 H 926.292 V 682.667 Z" style="fill: #000000;"/><path d="M 926.292 1280 H 1010.5 V 1365.333 H 926.292 V 1280 Z" style="fill: #000000;"/><path d="M 926.292 1365.333 H 1010.5 V 1450.667 H 926.292 V 1365.333 Z" style="fill: #000000;"/><path d="M 926.292 1621.333 H 1010.5 V 1706.667 H 926.292 V 1621.333 Z" style="fill: #000000;"/><path d="M 926.292 1706.667 H 1010.5 V 1792 H 926.292 V 1706.667 Z" style="fill: #000000;"/><path d="M 926.292 1877.333 H 1010.5 V 1962.667 H 926.292 V 1877.333 Z" style="fill: #000000;"/><path d="M 926.292 1962.667 H 1010.5 V 2048 H 926.292 V 1962.667 Z" style="fill: #000000;"/><path d="M 1010.5 0 H 1094.708 V 85.333 H 1010.5 V 0 Z" style="fill: #000000;"/><path d="M 1010.5 85.333 H 1094.708 V 170.667 H 1010.5 V 85.333 Z" style="fill: #000000;"/><path d="M 1010.5 256 H 1094.708 V 341.333 H 1010.5 V 256 Z" style="fill: #000000;"/><path d="M 1010.5 341.333 H 1094.708 V 426.667 H 1010.5 V 341.333 Z" style="fill: #000000;"/><path d="M 1010.5 597.333 H 1094.708 V 682.667 H 1010.5 V 597.333 Z" style="fill: #000000;"/><path d="M 1010.5 682.667 H 1094.708 V 768 H 1010.5 V 682.667 Z" style="fill: #000000;"/><path d="M 1010.5 1280 H 1094.708 V 1365.333 H 1010.5 V 1280 Z" style="fill: #000000;"/><path d="M 1010.5 1536 H 1094.708 V 1621.333 H 1010.5 V 1536 Z" style="fill: #000000;"/><path d="M 1010.5 1621.333 H 1094.708 V 1706.667 H 1010.5 V 1621.333 Z" style="fill: #000000;"/><path d="M 1010.5 1877.333 H 1094.708 V 1962.667 H 1010.5 V 1877.333 Z" style="fill: #000000;"/><path d="M 1010.5 1962.667 H 1094.708 V 2048 H 1010.5 V 1962.667 Z" style="fill: #000000;"/><path d="M 1094.708 85.333 H 1178.917 V 170.667 H 1094.708 V 85.333 Z" style="fill: #000000;"/><path d="M 1094.708 170.667 H 1178.917 V 256 H 1094.708 V 170.667 Z" style="fill: #000000;"/><path d="M 1094.708 256 H 1178.917 V 341.333 H 1094.708 V 256 Z" style="fill: #000000;"/><path d="M 1094.708 341.333 H 1178.917 V 426.667 H 1094.708 V 341.333 Z" style="fill: rgba(0,0,0,0.08);"/><path d="M 1094.708 597.333 H 1178.917 V 682.667 H 1094.708 V 597.333 Z" style="fill: #000000;"/><path d="M 1094.708 768 H 1178.917 V 853.333 H 1094.708 V 768 Z" style="fill: #000000;"/><path d="M 1094.708 1194.667 H 1178.917 V 1280 H 1094.708 V 1194.667 Z" style="fill: #000000;"/><path d="M 1094.708 1536 H 1178.917 V 1621.333 H 1094.708 V 1536 Z" style="fill: #000000;"/><path d="M 1094.708 1621.333 H 1178.917 V 1706.667 H 1094.708 V 1621.333 Z" style="fill: #000000;"/><path d="M 1094.708 1877.333 H 1178.917 V 1962.667 H 1094.708 V 1877.333 Z" style="fill: #000000;"/><path d="M 1094.708 1962.667 H 1178.917 V 2048 H 1094.708 V 1962.667 Z" style="fill: #000000;"/><path d="M 1178.917 85.333 H 1263.125 V 170.667 H 1178.917 V 85.333 Z" style="fill: #000000;"/><path d="M 1178.917 170.667 H 1263.125 V 256 H 1178.917 V 170.667 Z" style="fill: #000000;"/><path d="M 1178.917 256 H 1263.125 V 341.333 H 1178.917 V 256 Z" style="fill: #000000;"/><path d="M 1178.917 512 H 1263.125 V 597.333 H 1178.917 V 512 Z" style="fill: #000000;"/><path d="M 1178.917 597.333 H 1263.125 V 682.667 H 1178.917 V 597.333 Z" style="fill: #000000;"/><path d="M 1178.917 768 H 1263.125 V 853.333 H 1178.917 V 768 Z" style="fill: #000000;"/><path d="M 1178.917 1194.667 H 1263.125 V 1280 H 1178.917 V 1194.667 Z" style="fill: #000000;"/><path d="M 1178.917 1450.667 H 1263.125 V 1536 H 1178.917 V 1450.667 Z" style="fill: #000000;"/><path d="M 1178.917 1536 H 1263.125 V 1621.333 H 1178.917 V 1536 Z" style="fill: #000000;"/><path d="M 1178.917 1877.333 H 1263.125 V 1962.667 H 1178.917 V 1877.333 Z" style="fill: #000000;"/><path d="M 1178.917 1962.667 H 1263.125 V 2048 H 1178.917 V 1962.667 Z" style="fill: #000000;"/><path d="M 1263.125 170.667 H 1347.333 V 256 H 1263.125 V 170.667 Z" style="fill: #000000;"/><path d="M 1263.125 256 H 1347.333 V 341.333 H 1263.125 V 256 Z" style="fill: #000000;"/><path d="M 1263.125 512 H 1347.333 V 597.333 H 1263.125 V 512 Z" style="fill: #000000;"/><path d="M 1263.125 853.333 H 1347.333 V 938.667 H 1263.125 V 853.333 Z" style="fill: #000000;"/><path d="M 1263.125 938.667 H 1347.333 V 1024 H 1263.125 V 938.667 Z" style="fill: #000000;"/><path d="M 1263.125 1024 H 1347.333 V 1109.333 H 1263.125 V 1024 Z" style="fill: #000000;"/><path d="M 1263.125 1109.333 H 1347.333 V 1194.667 H 1263.125 V 1109.333 Z" style="fill: #000000;"/><path d="M 1263.125 1194.667 H 1347.333 V 1280 H 1263.125 V 1194.667 Z" style="fill: #000000;"/><path d="M 1263.125 1280 H 1347.333 V 1365.333 H 1263.125 V 1280 Z" style="fill: #000000;"/><path d="M 1263.125 1365.333 H 1347.333 V 1450.667 H 1263.125 V 1365.333 Z" style="fill: #000000;"/><path d="M 1263.125 1450.667 H 1347.333 V 1536 H 1263.125 V 1450.667 Z" style="fill: #000000;"/><path d="M 1263.125 1877.333 H 1347.333 V 1962.667 H 1263.125 V 1877.333 Z" style="fill: #000000;"/><path d="M 1263.125 1962.667 H 1347.333 V 2048 H 1263.125 V 1962.667 Z" style="fill: #000000;"/><path d="M 1347.333 170.667 H 1431.542 V 256 H 1347.333 V 170.667 Z" style="fill: #000000;"/><path d="M 1347.333 512 H 1431.542 V 597.333 H 1347.333 V 512 Z" style="fill: #000000;"/><path d="M 1347.333 597.333 H 1431.542 V 682.667 H 1347.333 V 597.333 Z" style="fill: #000000;"/><path d="M 1347.333 853.333 H 1431.542 V 938.667 H 1347.333 V 853.333 Z" style="fill: #000000;"/><path d="M 1347.333 938.667 H 1431.542 V 1024 H 1347.333 V 938.667 Z" style="fill: #000000;"/><path d="M 1347.333 1792 H 1431.542 V 1877.333 H 1347.333 V 1792 Z" style="fill: #000000;"/><path d="M 1347.333 1877.333 H 1431.542 V 1962.667 H 1347.333 V 1877.333 Z" style="fill: #000000;"/><path d="M 1431.542 170.667 H 1515.75 V 256 H 1431.542 V 170.667 Z" style="fill: #000000;"/><path d="M 1431.542 256 H 1515.75 V 341.333 H 1431.542 V 256 Z" style="fill: #000000;"/><path d="M 1431.542 597.333 H 1515.75 V 682.667 H 1431.542 V 597.333 Z" style="fill: #000000;"/><path d="M 1431.542 682.667 H 1515.75 V 768 H 1431.542 V 682.667 Z" style="fill: rgba(0,0,0,0.32);"/><path d="M 1431.542 938.667 H 1515.75 V 1024 H 1431.542 V 938.667 Z" style="fill: #000000;"/><path d="M 1431.542 1706.667 H 1515.75 V 1792 H 1431.542 V 1706.667 Z" style="fill: #000000;"/><path d="M 1431.542 1792 H 1515.75 V 1877.333 H 1431.542 V 1792 Z" style="fill: #000000;"/><path d="M 1515.75 170.667 H 1599.958 V 256 H 1515.75 V 170.667 Z" style="fill: #000000;"/><path d="M 1515.75 256 H 1599.958 V 341.333 H 1515.75 V 256 Z" style="fill: #000000;"/><path d="M 1515.75 597.333 H 1599.958 V 682.667 H 1515.75 V 597.333 Z" style="fill: #000000;"/><path d="M 1515.75 682.667 H 1599.958 V 768 H 1515.75 V 682.667 Z" style="fill: #000000;"/><path d="M 1515.75 938.667 H 1599.958 V 1024 H 1515.75 V 938.667 Z" style="fill: #000000;"/><path d="M 1515.75 1024 H 1599.958 V 1109.333 H 1515.75 V 1024 Z" style="fill: #000000;"/><path d="M 1515.75 1109.333 H 1599.958 V 1194.667 H 1515.75 V 1109.333 Z" style="fill: #000000;"/><path d="M 1515.75 1194.667 H 1599.958 V 1280 H 1515.75 V 1194.667 Z" style="fill: #000000;"/><path d="M 1515.75 1280 H 1599.958 V 1365.333 H 1515.75 V 1280 Z" style="fill: #000000;"/><path d="M 1515.75 1365.333 H 1599.958 V 1450.667 H 1515.75 V 1365.333 Z" style="fill: #000000;"/><path d="M 1515.75 1450.667 H 1599.958 V 1536 H 1515.75 V 1450.667 Z" style="fill: #000000;"/><path d="M 1515.75 1536 H 1599.958 V 1621.333 H 1515.75 V 1536 Z" style="fill: #000000;"/><path d="M 1515.75 1621.333 H 1599.958 V 1706.667 H 1515.75 V 1621.333 Z" style="fill: #000000;"/><path d="M 1515.75 1706.667 H 1599.958 V 1792 H 1515.75 V 1706.667 Z" style="fill: #000000;"/><path d="M 1599.958 256 H 1684.167 V 341.333 H 1599.958 V 256 Z" style="fill: #000000;"/><path d="M 1599.958 341.333 H 1684.167 V 426.667 H 1599.958 V 341.333 Z" style="fill: rgba(0,0,0,0.44);"/><path d="M 1599.958 682.667 H 1684.167 V 768 H 1599.958 V 682.667 Z" style="fill: #000000;"/><path d="M 1599.958 768 H 1684.167 V 853.333 H 1599.958 V 768 Z" style="fill: #000000;"/><path d="M 1599.958 1536 H 1684.167 V 1621.333 H 1599.958 V 1536 Z" style="fill: #000000;"/><path d="M 1599.958 1621.333 H 1684.167 V 1706.667 H 1599.958 V 1621.333 Z" style="fill: #000000;"/><path d="M 1684.167 256 H 1768.375 V 341.333 H 1684.167 V 256 Z" style="fill: #000000;"/><path d="M 1684.167 341.333 H 1768.375 V 426.667 H 1684.167 V 341.333 Z" style="fill: #000000;"/><path d="M 1684.167 426.667 H 1768.375 V 512 H 1684.167 V 426.667 Z" style="fill: #000000;"/><path d="M 1684.167 682.667 H 1768.375 V 768 H 1684.167 V 682.667 Z" style="fill: #000000;"/><path d="M 1684.167 768 H 1768.375 V 853.333 H 1684.167 V 768 Z" style="fill: #000000;"/><path d="M 1684.167 1536 H 1768.375 V 1621.333 H 1684.167 V 1536 Z" style="fill: #000000;"/><path d="M 1768.375 341.333 H 1852.583 V 426.667 H 1768.375 V 341.333 Z" style="fill: #000000;"/><path d="M 1768.375 426.667 H 1852.583 V 512 H 1768.375 V 426.667 Z" style="fill: #000000;"/><path d="M 1768.375 512 H 1852.583 V 597.333 H 1768.375 V 512 Z" style="fill: #000000;"/><path d="M 1768.375 597.333 H 1852.583 V 682.667 H 1768.375 V 597.333 Z" style="fill: #000000;"/><path d="M 1768.375 682.667 H 1852.583 V 768 H 1768.375 V 682.667 Z" style="fill: #000000;"/><path d="M 1768.375 768 H 1852.583 V 853.333 H 1768.375 V 768 Z" style="fill: #000000;"/><path d="M 1768.375 853.333 H 1852.583 V 938.667 H 1768.375 V 853.333 Z" style="fill: #000000;"/><path d="M 1768.375 1450.667 H 1852.583 V 1536 H 1768.375 V 1450.667 Z" style="fill: #000000;"/><path d="M 1768.375 1536 H 1852.583 V 1621.333 H 1768.375 V 1536 Z" style="fill: #000000;"/><path d="M 1852.583 512 H 1936.792 V 597.333 H 1852.583 V 512 Z" style="fill: #000000;"/><path d="M 1852.583 597.333 H 1936.792 V 682.667 H 1852.583 V 597.333 Z" style="fill: #000000;"/><path d="M 1852.583 682.667 H 1936.792 V 768 H 1852.583 V 682.667 Z" style="fill: #000000;"/><path d="M 1852.583 768 H 1936.792 V 853.333 H 1852.583 V 768 Z" style="fill: rgba(0,0,0,0.65);"/><path d="M 1852.583 853.333 H 1936.792 V 938.667 H 1852.583 V 853.333 Z" style="fill: #000000;"/><path d="M 1852.583 938.667 H 1936.792 V 1024 H 1852.583 V 938.667 Z" style="fill: #000000;"/><path d="M 1852.583 1024 H 1936.792 V 1109.333 H 1852.583 V 1024 Z" style="fill: #000000;"/><path d="M 1852.583 1109.333 H 1936.792 V 1194.667 H 1852.583 V 1109.333 Z" style="fill: #000000;"/><path d="M 1852.583 1194.667 H 1936.792 V 1280 H 1852.583 V 1194.667 Z" style="fill: #000000;"/><path d="M 1852.583 1280 H 1936.792 V 1365.333 H 1852.583 V 1280 Z" style="fill: #000000;"/><path d="M 1852.583 1365.333 H 1936.792 V 1450.667 H 1852.583 V 1365.333 Z" style="fill: #000000;"/><path d="M 1852.583 1450.667 H 1936.792 V 1536 H 1852.583 V 1450.667 Z" style="fill: #000000;"/><path d="M 1936.792 938.667 H 2021 V 1024 H 1936.792 V 938.667 Z" style="fill: rgba(0,0,0,0.23);"/><path d="M 1936.792 1024 H 2021 V 1109.333 H 1936.792 V 1024 Z" style="fill: #000000;"/><path d="M 1936.792 1109.333 H 2021 V 1194.667 H 1936.792 V 1109.333 Z" style="fill: #000000;"/><path d="M 1936.792 1194.667 H 2021 V 1280 H 1936.792 V 1194.667 Z" style="fill: #000000;"/><path d="M 1936.792 1280 H 2021 V 1365.333 H 1936.792 V 1280 Z" style="fill: #000000;"/></g></svg>