<?xml version="1.0" encoding="utf-8"?>
<svg xmlns="http://www.w3.org/2000/svg" viewBox="-658.2869 113.1421 224.0004 224.0004" width="224.0004px" height="224.0004px"><g transform="matrix(0.18666701018810272, 0, 0, 0.18666701018810272, -658.2869262695312, 113.14212799072266)" id="object-3"><path d="M 0 450 H 50 V 500 H 0 V 450 Z" style="fill: #357ab1;"/><path d="M 0 500 H 50 V 550 H 0 V 500 Z" style="fill: #3479b0;"/><path d="M 0 550 H 50 V 600 H 0 V 550 Z" style="fill: #3478ad;"/><path d="M 0 600 H 50 V 650 H 0 V 600 Z" style="fill: #3477ad;"/><path d="M 0 650 H 50 V 700 H 0 V 650 Z" style="fill: #3477aa;"/><path d="M 0 700 H 50 V 750 H 0 V 700 Z" style="fill: #3476a9;"/><path d="M 50 350 H 100 V 400 H 50 V 350 Z" style="fill: #357bb2;"/><path d="M 50 400 H 100 V 450 H 50 V 400 Z" style="fill: #357ab1;"/><path d="M 50 450 H 100 V 500 H 50 V 450 Z" style="fill: #3479b0;"/><path d="M 50 500 H 100 V 550 H 50 V 500 Z" style="fill: #3478ad;"/><path d="M 50 550 H 100 V 600 H 50 V 550 Z" style="fill: #3477ad;"/><path d="M 50 600 H 100 V 650 H 50 V 600 Z" style="fill: #3477aa;"/><path d="M 50 650 H 100 V 700 H 50 V 650 Z" style="fill: #3476a9;"/><path d="M 50 700 H 100 V 750 H 50 V 700 Z" style="fill: #3475a7;"/><path d="M 50 750 H 100 V 800 H 50 V 750 Z" style="fill: #3474a6;"/><path d="M 50 800 H 100 V 850 H 50 V 800 Z" style="fill: #3473a4;"/><path d="M 100 300 H 150 V 350 H 100 V 300 Z" style="fill: #357bb2;"/><path d="M 100 350 H 150 V 400 H 100 V 350 Z" style="fill: #357ab1;"/><path d="M 100 400 H 150 V 450 H 100 V 400 Z" style="fill: #3479b0;"/><path d="M 100 450 H 150 V 500 H 100 V 450 Z" style="fill: #3478ad;"/><path d="M 100 500 H 150 V 550 H 100 V 500 Z" style="fill: #3477ad;"/><path d="M 100 550 H 150 V 600 H 100 V 550 Z" style="fill: #3477aa;"/><path d="M 100 600 H 150 V 650 H 100 V 600 Z" style="fill: #3476a9;"/><path d="M 100 650 H 150 V 700 H 100 V 650 Z" style="fill: #3475a7;"/><path d="M 100 700 H 150 V 750 H 100 V 700 Z" style="fill: #3474a6;"/><path d="M 100 750 H 150 V 800 H 100 V 750 Z" style="fill: #3473a4;"/><path d="M 100 800 H 150 V 850 H 100 V 800 Z" style="fill: #3472a3;"/><path d="M 100 850 H 150 V 900 H 100 V 850 Z" style="fill: #3471a1;"/><path d="M 150 300 H 200 V 350 H 150 V 300 Z" style="fill: #357ab1;"/><path d="M 150 350 H 200 V 400 H 150 V 350 Z" style="fill: #3479b0;"/><path d="M 150 400 H 200 V 450 H 150 V 400 Z" style="fill: #3478ad;"/><path d="M 150 450 H 200 V 500 H 150 V 450 Z" style="fill: #3477ad;"/><path d="M 150 500 H 200 V 550 H 150 V 500 Z" style="fill: #3477aa;"/><path d="M 150 550 H 200 V 600 H 150 V 550 Z" style="fill: #3476a9;"/><path d="M 150 600 H 200 V 650 H 150 V 600 Z" style="fill: #3475a7;"/><path d="M 150 650 H 200 V 700 H 150 V 650 Z" style="fill: #3474a6;"/><path d="M 150 700 H 200 V 750 H 150 V 700 Z" style="fill: #3473a4;"/><path d="M 150 750 H 200 V 800 H 150 V 750 Z" style="fill: #3472a3;"/><path d="M 150 800 H 200 V 850 H 150 V 800 Z" style="fill: #3471a1;"/><path d="M 150 850 H 200 V 900 H 150 V 850 Z" style="fill: #3470a0;"/><path d="M 200 300 H 250 V 350 H 200 V 300 Z" style="fill: #3479b0;"/><path d="M 200 350 H 250 V 400 H 200 V 350 Z" style="fill: #3478ae;"/><path d="M 200 400 H 250 V 450 H 200 V 400 Z" style="fill: #3477ad;"/><path d="M 200 450 H 250 V 500 H 200 V 450 Z" style="fill: #3477aa;"/><path d="M 200 500 H 250 V 550 H 200 V 500 Z" style="fill: #3476a9;"/><path d="M 200 550 H 250 V 600 H 200 V 550 Z" style="fill: #3475a7;"/><path d="M 200 600 H 250 V 650 H 200 V 600 Z" style="fill: #3474a6;"/><path d="M 200 650 H 250 V 700 H 200 V 650 Z" style="fill: #3473a4;"/><path d="M 200 700 H 250 V 750 H 200 V 700 Z" style="fill: #3472a3;"/><path d="M 200 750 H 250 V 800 H 200 V 750 Z" style="fill: #3471a1;"/><path d="M 200 800 H 250 V 850 H 200 V 800 Z" style="fill: #3470a0;"/><path d="M 200 850 H 250 V 900 H 200 V 850 Z" style="fill: #346e9e;"/><path d="M 250 300 H 300 V 350 H 250 V 300 Z" style="fill: #3478ae;"/><path d="M 250 350 H 300 V 400 H 250 V 350 Z" style="fill: #3477ad;"/><path d="M 250 400 H 300 V 450 H 250 V 400 Z" style="fill: #3477aa;"/><path d="M 250 450 H 300 V 500 H 250 V 450 Z" style="fill: #3476a9;"/><path d="M 250 500 H 300 V 550 H 250 V 500 Z" style="fill: #3475a7;"/><path d="M 250 550 H 300 V 600 H 250 V 550 Z" style="fill: #3474a6;"/><path d="M 250 600 H 300 V 650 H 250 V 600 Z" style="fill: #3473a4;"/><path d="M 250 650 H 300 V 700 H 250 V 650 Z" style="fill: #3472a3;"/><path d="M 300 100 H 350 V 150 H 300 V 100 Z" style="fill: #357bb2;"/><path d="M 300 150 H 350 V 200 H 300 V 150 Z" style="fill: #357ab1;"/><path d="M 300 200 H 350 V 250 H 300 V 200 Z" style="fill: #3479b0;"/><path d="M 300 300 H 350 V 350 H 300 V 300 Z" style="fill: #3477ad;"/><path d="M 300 350 H 350 V 400 H 300 V 350 Z" style="fill: #3477aa;"/><path d="M 300 400 H 350 V 450 H 300 V 400 Z" style="fill: #3476a9;"/><path d="M 300 450 H 350 V 500 H 300 V 450 Z" style="fill: #3475a7;"/><path d="M 300 500 H 350 V 550 H 300 V 500 Z" style="fill: #3474a6;"/><path d="M 300 550 H 350 V 600 H 300 V 550 Z" style="fill: #3473a4;"/><path d="M 300 700 H 350 V 750 H 300 V 700 Z" style="fill: #ffdf4f;"/><path d="M 300 750 H 350 V 800 H 300 V 750 Z" style="fill: #ffde4e;"/><path d="M 300 800 H 350 V 850 H 300 V 800 Z" style="fill: #ffdd4c;"/><path d="M 300 850 H 350 V 900 H 300 V 850 Z" style="fill: #ffdc4b;"/><path d="M 300 900 H 350 V 950 H 300 V 900 Z" style="fill: #ffdb4a;"/><path d="M 300 950 H 350 V 1000 H 300 V 950 Z" style="fill: #ffda47;"/><path d="M 300 1000 H 350 V 1050 H 300 V 1000 Z" style="fill: #ffd846;"/><path d="M 300 1050 H 350 V 1100 H 300 V 1050 Z" style="fill: #ffd745;"/><path d="M 350 50 H 400 V 100 H 350 V 50 Z" style="fill: #357bb2;"/><path d="M 350 100 H 400 V 150 H 350 V 100 Z" style="fill: #357ab1;"/><path d="M 350 150 H 400 V 200 H 350 V 150 Z" style="fill: #3479b0;"/><path d="M 350 200 H 400 V 250 H 350 V 200 Z" style="fill: #3478ae;"/><path d="M 350 300 H 400 V 350 H 350 V 300 Z" style="fill: #3477ab;"/><path d="M 350 350 H 400 V 400 H 350 V 350 Z" style="fill: #3476a9;"/><path d="M 350 400 H 400 V 450 H 350 V 400 Z" style="fill: #3475a7;"/><path d="M 350 450 H 400 V 500 H 350 V 450 Z" style="fill: #3474a6;"/><path d="M 350 500 H 400 V 550 H 350 V 500 Z" style="fill: #3473a4;"/><path d="M 350 550 H 400 V 600 H 350 V 550 Z" style="fill: #3472a3;"/><path d="M 350 650 H 400 V 700 H 350 V 650 Z" style="fill: #ffdf4f;"/><path d="M 350 700 H 400 V 750 H 350 V 700 Z" style="fill: #ffde4e;"/><path d="M 350 750 H 400 V 800 H 350 V 750 Z" style="fill: #ffdd4c;"/><path d="M 350 800 H 400 V 850 H 350 V 800 Z" style="fill: #ffdc4b;"/><path d="M 350 850 H 400 V 900 H 350 V 850 Z" style="fill: #ffdb4a;"/><path d="M 350 900 H 400 V 950 H 350 V 900 Z" style="fill: #ffd947;"/><path d="M 350 950 H 400 V 1000 H 350 V 950 Z" style="fill: #ffd846;"/><path d="M 350 1000 H 400 V 1050 H 350 V 1000 Z" style="fill: #ffd745;"/><path d="M 350 1050 H 400 V 1100 H 350 V 1050 Z" style="fill: #ffd644;"/><path d="M 350 1100 H 400 V 1150 H 350 V 1100 Z" style="fill: #ffd542;"/><path d="M 400 0 H 450 V 50 H 400 V 0 Z" style="fill: #357bb2;"/><path d="M 400 50 H 450 V 100 H 400 V 50 Z" style="fill: #357ab1;"/><path d="M 400 200 H 450 V 250 H 400 V 200 Z" style="fill: #3477ad;"/><path d="M 400 300 H 450 V 350 H 400 V 300 Z" style="fill: #3476a9;"/><path d="M 400 350 H 450 V 400 H 400 V 350 Z" style="fill: #3475a7;"/><path d="M 400 400 H 450 V 450 H 400 V 400 Z" style="fill: #3474a6;"/><path d="M 400 450 H 450 V 500 H 400 V 450 Z" style="fill: #3473a4;"/><path d="M 400 500 H 450 V 550 H 400 V 500 Z" style="fill: #3472a3;"/><path d="M 400 550 H 450 V 600 H 400 V 550 Z" style="fill: #3471a1;"/><path d="M 400 600 H 450 V 650 H 400 V 600 Z" style="fill: #ffdf4f;"/><path d="M 400 650 H 450 V 700 H 400 V 650 Z" style="fill: #ffde4e;"/><path d="M 400 700 H 450 V 750 H 400 V 700 Z" style="fill: #ffdd4c;"/><path d="M 400 750 H 450 V 800 H 400 V 750 Z" style="fill: #ffdc4b;"/><path d="M 400 800 H 450 V 850 H 400 V 800 Z" style="fill: #ffdb4a;"/><path d="M 400 850 H 450 V 900 H 400 V 850 Z" style="fill: #ffd947;"/><path d="M 400 900 H 450 V 950 H 400 V 900 Z" style="fill: #ffd846;"/><path d="M 400 950 H 450 V 1000 H 400 V 950 Z" style="fill: #ffd745;"/><path d="M 400 1000 H 450 V 1050 H 400 V 1000 Z" style="fill: #ffd644;"/><path d="M 400 1050 H 450 V 1100 H 400 V 1050 Z" style="fill: #ffd542;"/><path d="M 400 1100 H 450 V 1150 H 400 V 1100 Z" style="fill: #ffd441;"/><path d="M 400 1150 H 450 V 1200 H 400 V 1150 Z" style="fill: #ffd340;"/><path d="M 450 0 H 500 V 50 H 450 V 0 Z" style="fill: #357ab1;"/><path d="M 450 50 H 500 V 100 H 450 V 50 Z" style="fill: #3479b0;"/><path d="M 450 200 H 500 V 250 H 450 V 200 Z" style="fill: #3477ab;"/><path d="M 450 300 H 500 V 350 H 450 V 300 Z" style="fill: #3475a7;"/><path d="M 450 350 H 500 V 400 H 450 V 350 Z" style="fill: #3474a6;"/><path d="M 450 400 H 500 V 450 H 450 V 400 Z" style="fill: #3473a4;"/><path d="M 450 450 H 500 V 500 H 450 V 450 Z" style="fill: #3472a3;"/><path d="M 450 500 H 500 V 550 H 450 V 500 Z" style="fill: #3471a1;"/><path d="M 450 550 H 500 V 600 H 450 V 550 Z" style="fill: #3470a0;"/><path d="M 450 600 H 500 V 650 H 450 V 600 Z" style="fill: #ffde4d;"/><path d="M 450 650 H 500 V 700 H 450 V 650 Z" style="fill: #ffdd4c;"/><path d="M 450 700 H 500 V 750 H 450 V 700 Z" style="fill: #ffdc4b;"/><path d="M 450 750 H 500 V 800 H 450 V 750 Z" style="fill: #ffdb4a;"/><path d="M 450 800 H 500 V 850 H 450 V 800 Z" style="fill: #ffd947;"/><path d="M 450 850 H 500 V 900 H 450 V 850 Z" style="fill: #ffd846;"/><path d="M 450 900 H 500 V 950 H 450 V 900 Z" style="fill: #ffd745;"/><path d="M 450 950 H 500 V 1000 H 450 V 950 Z" style="fill: #ffd643;"/><path d="M 450 1000 H 500 V 1050 H 450 V 1000 Z" style="fill: #ffd542;"/><path d="M 450 1050 H 500 V 1100 H 450 V 1050 Z" style="fill: #ffd441;"/><path d="M 450 1100 H 500 V 1150 H 450 V 1100 Z" style="fill: #ffd340;"/><path d="M 450 1150 H 500 V 1200 H 450 V 1150 Z" style="fill: #ffd13e;"/><path d="M 500 0 H 550 V 50 H 500 V 0 Z" style="fill: #3479b0;"/><path d="M 500 50 H 550 V 100 H 500 V 50 Z" style="fill: #3478ae;"/><path d="M 500 100 H 550 V 150 H 500 V 100 Z" style="fill: #3477ad;"/><path d="M 500 150 H 550 V 200 H 500 V 150 Z" style="fill: #3477ab;"/><path d="M 500 200 H 550 V 250 H 500 V 200 Z" style="fill: #3476a9;"/><path d="M 500 300 H 550 V 350 H 500 V 300 Z" style="fill: #3474a6;"/><path d="M 500 350 H 550 V 400 H 500 V 350 Z" style="fill: #3473a4;"/><path d="M 500 400 H 550 V 450 H 500 V 400 Z" style="fill: #3472a3;"/><path d="M 500 450 H 550 V 500 H 500 V 450 Z" style="fill: #3471a1;"/><path d="M 500 500 H 550 V 550 H 500 V 500 Z" style="fill: #3470a0;"/><path d="M 500 550 H 550 V 600 H 500 V 550 Z" style="fill: #34709e;"/><path d="M 500 600 H 550 V 650 H 500 V 600 Z" style="fill: #ffdd4c;"/><path d="M 500 650 H 550 V 700 H 500 V 650 Z" style="fill: #ffdc4b;"/><path d="M 500 700 H 550 V 750 H 500 V 700 Z" style="fill: #ffda4a;"/><path d="M 500 750 H 550 V 800 H 500 V 750 Z" style="fill: #ffd947;"/><path d="M 500 800 H 550 V 850 H 500 V 800 Z" style="fill: #ffd846;"/><path d="M 500 850 H 550 V 900 H 500 V 850 Z" style="fill: #ffd745;"/><path d="M 500 900 H 550 V 950 H 500 V 900 Z" style="fill: #ffd643;"/><path d="M 500 950 H 550 V 1000 H 500 V 950 Z" style="fill: #ffd542;"/><path d="M 500 1000 H 550 V 1050 H 500 V 1000 Z" style="fill: #ffd441;"/><path d="M 500 1050 H 550 V 1100 H 500 V 1050 Z" style="fill: #ffd340;"/><path d="M 500 1100 H 550 V 1150 H 500 V 1100 Z" style="fill: #ffd13e;"/><path d="M 500 1150 H 550 V 1200 H 500 V 1150 Z" style="fill: #ffd03d;"/><path d="M 550 0 H 600 V 50 H 550 V 0 Z" style="fill: #3478ae;"/><path d="M 550 50 H 600 V 100 H 550 V 50 Z" style="fill: #3477ad;"/><path d="M 550 100 H 600 V 150 H 550 V 100 Z" style="fill: #3477ab;"/><path d="M 550 150 H 600 V 200 H 550 V 150 Z" style="fill: #3476a9;"/><path d="M 550 200 H 600 V 250 H 550 V 200 Z" style="fill: #3475a8;"/><path d="M 550 300 H 600 V 350 H 550 V 300 Z" style="fill: #3473a4;"/><path d="M 550 350 H 600 V 400 H 550 V 350 Z" style="fill: #3472a3;"/><path d="M 550 400 H 600 V 450 H 550 V 400 Z" style="fill: #3471a1;"/><path d="M 550 450 H 600 V 500 H 550 V 450 Z" style="fill: #3470a0;"/><path d="M 550 500 H 600 V 550 H 550 V 500 Z" style="fill: #34709e;"/><path d="M 550 550 H 600 V 600 H 550 V 550 Z" style="fill: #336e9d;"/><path d="M 550 600 H 600 V 650 H 550 V 600 Z" style="fill: #ffdc4b;"/><path d="M 550 650 H 600 V 700 H 550 V 650 Z" style="fill: #ffda4a;"/><path d="M 550 700 H 600 V 750 H 550 V 700 Z" style="fill: #ffd947;"/><path d="M 550 750 H 600 V 800 H 550 V 750 Z" style="fill: #ffd846;"/><path d="M 550 800 H 600 V 850 H 550 V 800 Z" style="fill: #ffd745;"/><path d="M 550 850 H 600 V 900 H 550 V 850 Z" style="fill: #ffd643;"/><path d="M 550 900 H 600 V 950 H 550 V 900 Z" style="fill: #ffd542;"/><path d="M 550 950 H 600 V 1000 H 550 V 950 Z" style="fill: #ffd441;"/><path d="M 550 1000 H 600 V 1050 H 550 V 1000 Z" style="fill: #ffd23f;"/><path d="M 550 1050 H 600 V 1100 H 550 V 1050 Z" style="fill: #ffd13e;"/><path d="M 550 1100 H 600 V 1150 H 550 V 1100 Z" style="fill: #ffd03d;"/><path d="M 550 1150 H 600 V 1200 H 550 V 1150 Z" style="fill: #ffcf3c;"/><path d="M 600 0 H 650 V 50 H 600 V 0 Z" style="fill: #3477ad;"/><path d="M 600 50 H 650 V 100 H 600 V 50 Z" style="fill: #3477ab;"/><path d="M 600 100 H 650 V 150 H 600 V 100 Z" style="fill: #3476a9;"/><path d="M 600 150 H 650 V 200 H 600 V 150 Z" style="fill: #3475a8;"/><path d="M 600 200 H 650 V 250 H 600 V 200 Z" style="fill: #3474a6;"/><path d="M 600 250 H 650 V 300 H 600 V 250 Z" style="fill: #3473a4;"/><path d="M 600 300 H 650 V 350 H 600 V 300 Z" style="fill: #3472a3;"/><path d="M 600 350 H 650 V 400 H 600 V 350 Z" style="fill: #3471a1;"/><path d="M 600 400 H 650 V 450 H 600 V 400 Z" style="fill: #3470a0;"/><path d="M 600 450 H 650 V 500 H 600 V 450 Z" style="fill: #34709e;"/><path d="M 600 500 H 650 V 550 H 600 V 500 Z" style="fill: #336e9d;"/><path d="M 600 550 H 650 V 600 H 600 V 550 Z" style="fill: #336d9b;"/><path d="M 600 600 H 650 V 650 H 600 V 600 Z" style="fill: #ffda49;"/><path d="M 600 650 H 650 V 700 H 600 V 650 Z" style="fill: #ffd947;"/><path d="M 600 700 H 650 V 750 H 600 V 700 Z" style="fill: #ffd846;"/><path d="M 600 750 H 650 V 800 H 600 V 750 Z" style="fill: #ffd745;"/><path d="M 600 800 H 650 V 850 H 600 V 800 Z" style="fill: #ffd643;"/><path d="M 600 850 H 650 V 900 H 600 V 850 Z" style="fill: #ffd542;"/><path d="M 600 950 H 650 V 1000 H 600 V 950 Z" style="fill: #ffd23f;"/><path d="M 600 1000 H 650 V 1050 H 600 V 1000 Z" style="fill: #ffd13e;"/><path d="M 600 1050 H 650 V 1100 H 600 V 1050 Z" style="fill: #ffd03d;"/><path d="M 600 1100 H 650 V 1150 H 600 V 1100 Z" style="fill: #ffcf3c;"/><path d="M 600 1150 H 650 V 1200 H 600 V 1150 Z" style="fill: #ffce39;"/><path d="M 650 0 H 700 V 50 H 650 V 0 Z" style="fill: #3477ab;"/><path d="M 650 50 H 700 V 100 H 650 V 50 Z" style="fill: #3476a9;"/><path d="M 650 100 H 700 V 150 H 650 V 100 Z" style="fill: #3475a8;"/><path d="M 650 150 H 700 V 200 H 650 V 150 Z" style="fill: #3474a6;"/><path d="M 650 200 H 700 V 250 H 650 V 200 Z" style="fill: #3473a4;"/><path d="M 650 250 H 700 V 300 H 650 V 250 Z" style="fill: #3472a3;"/><path d="M 650 300 H 700 V 350 H 650 V 300 Z" style="fill: #3471a1;"/><path d="M 650 350 H 700 V 400 H 650 V 350 Z" style="fill: #3470a0;"/><path d="M 650 400 H 700 V 450 H 650 V 400 Z" style="fill: #34709e;"/><path d="M 650 450 H 700 V 500 H 650 V 450 Z" style="fill: #336e9d;"/><path d="M 650 500 H 700 V 550 H 650 V 500 Z" style="fill: #336d9b;"/><path d="M 650 550 H 700 V 600 H 650 V 550 Z" style="fill: #336c9a;"/><path d="M 650 600 H 700 V 650 H 650 V 600 Z" style="fill: #ffd947;"/><path d="M 650 650 H 700 V 700 H 650 V 650 Z" style="fill: #ffd846;"/><path d="M 650 700 H 700 V 750 H 650 V 700 Z" style="fill: #ffd745;"/><path d="M 650 750 H 700 V 800 H 650 V 750 Z" style="fill: #ffd643;"/><path d="M 650 800 H 700 V 850 H 650 V 800 Z" style="fill: #ffd542;"/><path d="M 650 850 H 700 V 900 H 650 V 850 Z" style="fill: #ffd441;"/><path d="M 650 950 H 700 V 1000 H 650 V 950 Z" style="fill: #ffd13e;"/><path d="M 650 1000 H 700 V 1050 H 650 V 1000 Z" style="fill: #ffd03d;"/><path d="M 650 1050 H 700 V 1100 H 650 V 1050 Z" style="fill: #ffcf3c;"/><path d="M 650 1100 H 700 V 1150 H 650 V 1100 Z" style="fill: #ffce39;"/><path d="M 650 1150 H 700 V 1200 H 650 V 1150 Z" style="fill: #ffcd38;"/><path d="M 700 0 H 750 V 50 H 700 V 0 Z" style="fill: #3476a9;"/><path d="M 700 50 H 750 V 100 H 700 V 50 Z" style="fill: #3475a8;"/><path d="M 700 100 H 750 V 150 H 700 V 100 Z" style="fill: #3474a6;"/><path d="M 700 150 H 750 V 200 H 700 V 150 Z" style="fill: #3473a5;"/><path d="M 700 200 H 750 V 250 H 700 V 200 Z" style="fill: #3472a3;"/><path d="M 700 250 H 750 V 300 H 700 V 250 Z" style="fill: #3471a1;"/><path d="M 700 300 H 750 V 350 H 700 V 300 Z" style="fill: #3470a0;"/><path d="M 700 350 H 750 V 400 H 700 V 350 Z" style="fill: #34709e;"/><path d="M 700 400 H 750 V 450 H 700 V 400 Z" style="fill: #336e9d;"/><path d="M 700 450 H 750 V 500 H 700 V 450 Z" style="fill: #336d9b;"/><path d="M 700 500 H 750 V 550 H 700 V 500 Z" style="fill: #336c9a;"/><path d="M 700 550 H 750 V 600 H 700 V 550 Z" style="fill: #336b98;"/><path d="M 700 600 H 750 V 650 H 700 V 600 Z" style="fill: #ffd846;"/><path d="M 700 650 H 750 V 700 H 700 V 650 Z" style="fill: #ffd744;"/><path d="M 700 700 H 750 V 750 H 700 V 700 Z" style="fill: #ffd643;"/><path d="M 700 750 H 750 V 800 H 700 V 750 Z" style="fill: #ffd542;"/><path d="M 700 800 H 750 V 850 H 700 V 800 Z" style="fill: #ffd341;"/><path d="M 700 850 H 750 V 900 H 700 V 850 Z" style="fill: #ffd23f;"/><path d="M 700 950 H 750 V 1000 H 700 V 950 Z" style="fill: #ffd03d;"/><path d="M 700 1100 H 750 V 1150 H 700 V 1100 Z" style="fill: #ffcd38;"/><path d="M 700 1150 H 750 V 1200 H 700 V 1150 Z" style="fill: #ffcc37;"/><path d="M 750 0 H 800 V 50 H 750 V 0 Z" style="fill: #3475a8;"/><path d="M 750 50 H 800 V 100 H 750 V 50 Z" style="fill: #3474a6;"/><path d="M 750 100 H 800 V 150 H 750 V 100 Z" style="fill: #3473a5;"/><path d="M 750 150 H 800 V 200 H 750 V 150 Z" style="fill: #3472a3;"/><path d="M 750 200 H 800 V 250 H 750 V 200 Z" style="fill: #3471a1;"/><path d="M 750 250 H 800 V 300 H 750 V 250 Z" style="fill: #3470a0;"/><path d="M 750 300 H 800 V 350 H 750 V 300 Z" style="fill: #34709e;"/><path d="M 750 350 H 800 V 400 H 750 V 350 Z" style="fill: #336e9d;"/><path d="M 750 400 H 800 V 450 H 750 V 400 Z" style="fill: #336d9b;"/><path d="M 750 450 H 800 V 500 H 750 V 450 Z" style="fill: #336c9a;"/><path d="M 750 500 H 800 V 550 H 750 V 500 Z" style="fill: #336b98;"/><path d="M 750 550 H 800 V 600 H 750 V 550 Z" style="fill: rgba(53,106,151,0.73);"/><path d="M 750 600 H 800 V 650 H 750 V 600 Z" style="fill: #ffd744;"/><path d="M 750 650 H 800 V 700 H 750 V 650 Z" style="fill: #ffd643;"/><path d="M 750 700 H 800 V 750 H 750 V 700 Z" style="fill: #ffd542;"/><path d="M 750 750 H 800 V 800 H 750 V 750 Z" style="fill: #ffd341;"/><path d="M 750 800 H 800 V 850 H 750 V 800 Z" style="fill: #ffd23f;"/><path d="M 750 850 H 800 V 900 H 750 V 850 Z" style="fill: #ffd13e;"/><path d="M 750 950 H 800 V 1000 H 750 V 950 Z" style="fill: #ffcf3a;"/><path d="M 750 1100 H 800 V 1150 H 750 V 1100 Z" style="fill: #ffcb37;"/><path d="M 750 1150 H 800 V 1200 H 750 V 1150 Z" style="fill: #ffca35;"/><path d="M 800 50 H 850 V 100 H 800 V 50 Z" style="fill: #3473a5;"/><path d="M 800 100 H 850 V 150 H 800 V 100 Z" style="fill: #3472a3;"/><path d="M 800 150 H 850 V 200 H 800 V 150 Z" style="fill: #3471a1;"/><path d="M 800 200 H 850 V 250 H 800 V 200 Z" style="fill: #3470a0;"/><path d="M 800 250 H 850 V 300 H 800 V 250 Z" style="fill: #34709e;"/><path d="M 800 300 H 850 V 350 H 800 V 300 Z" style="fill: #336e9d;"/><path d="M 800 350 H 850 V 400 H 800 V 350 Z" style="fill: #336d9b;"/><path d="M 800 400 H 850 V 450 H 800 V 400 Z" style="fill: #336c9a;"/><path d="M 800 450 H 850 V 500 H 800 V 450 Z" style="fill: #336b98;"/><path d="M 800 500 H 850 V 550 H 800 V 500 Z" style="fill: #336a97;"/><path d="M 800 600 H 850 V 650 H 800 V 600 Z" style="fill: #ffd643;"/><path d="M 800 650 H 850 V 700 H 800 V 650 Z" style="fill: #ffd442;"/><path d="M 800 700 H 850 V 750 H 800 V 700 Z" style="fill: #ffd340;"/><path d="M 800 750 H 850 V 800 H 800 V 750 Z" style="fill: #ffd23f;"/><path d="M 800 800 H 850 V 850 H 800 V 800 Z" style="fill: #ffd13e;"/><path d="M 800 850 H 850 V 900 H 800 V 850 Z" style="fill: #ffd03d;"/><path d="M 800 950 H 850 V 1000 H 800 V 950 Z" style="fill: #ffce39;"/><path d="M 800 1000 H 850 V 1050 H 800 V 1000 Z" style="fill: #ffcd38;"/><path d="M 800 1050 H 850 V 1100 H 800 V 1050 Z" style="fill: #ffcb36;"/><path d="M 800 1100 H 850 V 1150 H 800 V 1100 Z" style="fill: #ffca35;"/><path d="M 850 100 H 900 V 150 H 850 V 100 Z" style="fill: #3471a1;"/><path d="M 850 150 H 900 V 200 H 850 V 150 Z" style="fill: #3470a0;"/><path d="M 850 200 H 900 V 250 H 850 V 200 Z" style="fill: #34709e;"/><path d="M 850 250 H 900 V 300 H 850 V 250 Z" style="fill: #336e9d;"/><path d="M 850 300 H 900 V 350 H 850 V 300 Z" style="fill: #336d9b;"/><path d="M 850 350 H 900 V 400 H 850 V 350 Z" style="fill: #336c9a;"/><path d="M 850 400 H 900 V 450 H 850 V 400 Z" style="fill: #336b98;"/><path d="M 850 450 H 900 V 500 H 850 V 450 Z" style="fill: #336a97;"/><path d="M 850 600 H 900 V 650 H 850 V 600 Z" style="fill: #ffd442;"/><path d="M 850 650 H 900 V 700 H 850 V 650 Z" style="fill: #ffd340;"/><path d="M 850 700 H 900 V 750 H 850 V 700 Z" style="fill: #ffd23f;"/><path d="M 850 750 H 900 V 800 H 850 V 750 Z" style="fill: #ffd13e;"/><path d="M 850 800 H 900 V 850 H 850 V 800 Z" style="fill: #ffd03d;"/><path d="M 850 850 H 900 V 900 H 850 V 850 Z" style="fill: #ffcf3a;"/><path d="M 850 950 H 900 V 1000 H 850 V 950 Z" style="fill: #ffcd38;"/><path d="M 850 1000 H 900 V 1050 H 850 V 1000 Z" style="fill: #ffcb36;"/><path d="M 850 1050 H 900 V 1100 H 850 V 1050 Z" style="fill: #ffca35;"/><path d="M 900 450 H 950 V 500 H 900 V 450 Z" style="fill: rgba(254,215,69,0.65);"/><path d="M 900 500 H 950 V 550 H 900 V 500 Z" style="fill: #ffd643;"/><path d="M 900 550 H 950 V 600 H 900 V 550 Z" style="fill: #ffd442;"/><path d="M 900 600 H 950 V 650 H 900 V 600 Z" style="fill: #ffd340;"/><path d="M 900 650 H 950 V 700 H 900 V 650 Z" style="fill: #ffd23f;"/><path d="M 900 700 H 950 V 750 H 900 V 700 Z" style="fill: #ffd13e;"/><path d="M 900 750 H 950 V 800 H 900 V 750 Z" style="fill: #ffd03d;"/><path d="M 900 800 H 950 V 850 H 900 V 800 Z" style="fill: #ffcf3a;"/><path d="M 900 850 H 950 V 900 H 900 V 850 Z" style="fill: #ffce39;"/><path d="M 950 300 H 1000 V 350 H 950 V 300 Z" style="fill: #ffd947;"/><path d="M 950 350 H 1000 V 400 H 950 V 350 Z" style="fill: #ffd845;"/><path d="M 950 400 H 1000 V 450 H 950 V 400 Z" style="fill: #ffd744;"/><path d="M 950 450 H 1000 V 500 H 950 V 450 Z" style="fill: #ffd543;"/><path d="M 950 500 H 1000 V 550 H 950 V 500 Z" style="fill: #ffd442;"/><path d="M 950 550 H 1000 V 600 H 950 V 550 Z" style="fill: #ffd340;"/><path d="M 950 600 H 1000 V 650 H 950 V 600 Z" style="fill: #ffd23f;"/><path d="M 950 650 H 1000 V 700 H 950 V 650 Z" style="fill: #ffd13e;"/><path d="M 950 700 H 1000 V 750 H 950 V 700 Z" style="fill: #ffd03c;"/><path d="M 950 750 H 1000 V 800 H 950 V 750 Z" style="fill: #ffcf3a;"/><path d="M 950 800 H 1000 V 850 H 950 V 800 Z" style="fill: #ffce39;"/><path d="M 950 850 H 1000 V 900 H 950 V 850 Z" style="fill: #ffcc38;"/><path d="M 1000 300 H 1050 V 350 H 1000 V 300 Z" style="fill: #ffd845;"/><path d="M 1000 350 H 1050 V 400 H 1000 V 350 Z" style="fill: #ffd744;"/><path d="M 1000 400 H 1050 V 450 H 1000 V 400 Z" style="fill: #ffd543;"/><path d="M 1000 450 H 1050 V 500 H 1000 V 450 Z" style="fill: #ffd442;"/><path d="M 1000 500 H 1050 V 550 H 1000 V 500 Z" style="fill: #ffd340;"/><path d="M 1000 550 H 1050 V 600 H 1000 V 550 Z" style="fill: #ffd23f;"/><path d="M 1000 600 H 1050 V 650 H 1000 V 600 Z" style="fill: #ffd13e;"/><path d="M 1000 650 H 1050 V 700 H 1000 V 650 Z" style="fill: #ffd03c;"/><path d="M 1000 700 H 1050 V 750 H 1000 V 700 Z" style="fill: #ffcf3a;"/><path d="M 1000 750 H 1050 V 800 H 1000 V 750 Z" style="fill: #ffce39;"/><path d="M 1000 800 H 1050 V 850 H 1000 V 800 Z" style="fill: #ffcc38;"/><path d="M 1000 850 H 1050 V 900 H 1000 V 850 Z" style="fill: #ffcb36;"/><path d="M 1050 300 H 1100 V 350 H 1050 V 300 Z" style="fill: #ffd744;"/><path d="M 1050 350 H 1100 V 400 H 1050 V 350 Z" style="fill: #ffd543;"/><path d="M 1050 400 H 1100 V 450 H 1050 V 400 Z" style="fill: #ffd441;"/><path d="M 1050 450 H 1100 V 500 H 1050 V 450 Z" style="fill: #ffd340;"/><path d="M 1050 500 H 1100 V 550 H 1050 V 500 Z" style="fill: #ffd23f;"/><path d="M 1050 550 H 1100 V 600 H 1050 V 550 Z" style="fill: #ffd13e;"/><path d="M 1050 600 H 1100 V 650 H 1050 V 600 Z" style="fill: #ffd03c;"/><path d="M 1050 650 H 1100 V 700 H 1050 V 650 Z" style="fill: #ffcf3a;"/><path d="M 1050 700 H 1100 V 750 H 1050 V 700 Z" style="fill: #ffcd39;"/><path d="M 1050 750 H 1100 V 800 H 1050 V 750 Z" style="fill: #ffcc37;"/><path d="M 1050 800 H 1100 V 850 H 1050 V 800 Z" style="fill: #ffcb36;"/><path d="M 1050 850 H 1100 V 900 H 1050 V 850 Z" style="fill: rgba(254,222,74,0.12);"/><path d="M 1100 350 H 1150 V 400 H 1100 V 350 Z" style="fill: #ffd441;"/><path d="M 1100 400 H 1150 V 450 H 1100 V 400 Z" style="fill: #ffd340;"/><path d="M 1100 450 H 1150 V 500 H 1100 V 450 Z" style="fill: #ffd23f;"/><path d="M 1100 500 H 1150 V 550 H 1100 V 500 Z" style="fill: #ffd13e;"/><path d="M 1100 550 H 1150 V 600 H 1100 V 550 Z" style="fill: #ffd03c;"/><path d="M 1100 600 H 1150 V 650 H 1100 V 600 Z" style="fill: #ffcf3a;"/><path d="M 1100 650 H 1150 V 700 H 1100 V 650 Z" style="fill: #ffcd39;"/><path d="M 1100 700 H 1150 V 750 H 1100 V 700 Z" style="fill: #ffcc37;"/><path d="M 1100 750 H 1150 V 800 H 1100 V 750 Z" style="fill: #ffcb36;"/><path d="M 1100 800 H 1150 V 850 H 1100 V 800 Z" style="fill: #ffca35;"/><path d="M 1150 450 H 1200 V 500 H 1150 V 450 Z" style="fill: #ffd13e;"/><path d="M 1150 500 H 1200 V 550 H 1150 V 500 Z" style="fill: #ffd03c;"/><path d="M 1150 550 H 1200 V 600 H 1150 V 550 Z" style="fill: #ffce3a;"/><path d="M 1150 600 H 1200 V 650 H 1150 V 600 Z" style="fill: #ffcd39;"/><path d="M 1150 650 H 1200 V 700 H 1150 V 650 Z" style="fill: #ffcc37;"/><path d="M 1150 700 H 1200 V 750 H 1150 V 700 Z" style="fill: #ffcb36;"/></g></svg>