<?xml version="1.0" encoding="utf-8"?>
<svg xmlns="http://www.w3.org/2000/svg" viewBox="-2921.9128 -493.2123 223.9998 230.6854" width="223.9998px" height="230.6854px"><g transform="matrix(0.5137609839439392, 0, 0, 0.5137760043144226, -2921.912841796875, -493.21234130859375)" id="object-3"><path d="M 0 224.5 H 18.167 V 243.208 H 0 V 224.5 Z" style="fill: #3ecf8e;"/><path d="M 0 243.208 H 18.167 V 261.917 H 0 V 243.208 Z" style="fill: #3ecf8e;"/><path d="M 0 261.917 H 18.167 V 280.625 H 0 V 261.917 Z" style="fill: #3ecf8e;"/><path d="M 18.167 205.792 H 36.333 V 224.5 H 18.167 V 205.792 Z" style="fill: #3ecf8e;"/><path d="M 18.167 224.5 H 36.333 V 243.208 H 18.167 V 224.5 Z" style="fill: #3ecf8e;"/><path d="M 18.167 243.208 H 36.333 V 261.917 H 18.167 V 243.208 Z" style="fill: #3ecf8e;"/><path d="M 18.167 261.917 H 36.333 V 280.625 H 18.167 V 261.917 Z" style="fill: #3ecf8e;"/><path d="M 36.333 168.375 H 54.5 V 187.083 H 36.333 V 168.375 Z" style="fill: rgba(111,207,143,0.06);"/><path d="M 36.333 187.083 H 54.5 V 205.792 H 36.333 V 187.083 Z" style="fill: #3ecf8e;"/><path d="M 36.333 205.792 H 54.5 V 224.5 H 36.333 V 205.792 Z" style="fill: #3ecf8e;"/><path d="M 36.333 224.5 H 54.5 V 243.208 H 36.333 V 224.5 Z" style="fill: #3ecf8e;"/><path d="M 36.333 243.208 H 54.5 V 261.917 H 36.333 V 243.208 Z" style="fill: #3ecf8e;"/><path d="M 36.333 261.917 H 54.5 V 280.625 H 36.333 V 261.917 Z" style="fill: #3ecf8e;"/><path d="M 54.5 149.667 H 72.667 V 168.375 H 54.5 V 149.667 Z" style="fill: #3ecf8e;"/><path d="M 54.5 168.375 H 72.667 V 187.083 H 54.5 V 168.375 Z" style="fill: #3ecf8e;"/><path d="M 54.5 187.083 H 72.667 V 205.792 H 54.5 V 187.083 Z" style="fill: #3ecf8e;"/><path d="M 54.5 205.792 H 72.667 V 224.5 H 54.5 V 205.792 Z" style="fill: #3ecf8e;"/><path d="M 54.5 224.5 H 72.667 V 243.208 H 54.5 V 224.5 Z" style="fill: #3ecf8e;"/><path d="M 54.5 243.208 H 72.667 V 261.917 H 54.5 V 243.208 Z" style="fill: #3ecf8e;"/><path d="M 54.5 261.917 H 72.667 V 280.625 H 54.5 V 261.917 Z" style="fill: #3ecf8e;"/><path d="M 72.667 130.958 H 90.833 V 149.667 H 72.667 V 130.958 Z" style="fill: #3ecf8e;"/><path d="M 72.667 149.667 H 90.833 V 168.375 H 72.667 V 149.667 Z" style="fill: #3ecf8e;"/><path d="M 72.667 168.375 H 90.833 V 187.083 H 72.667 V 168.375 Z" style="fill: #3ecf8e;"/><path d="M 72.667 187.083 H 90.833 V 205.792 H 72.667 V 187.083 Z" style="fill: #3ecf8e;"/><path d="M 72.667 205.792 H 90.833 V 224.5 H 72.667 V 205.792 Z" style="fill: #3ecf8e;"/><path d="M 72.667 224.5 H 90.833 V 243.208 H 72.667 V 224.5 Z" style="fill: #3ecf8e;"/><path d="M 72.667 243.208 H 90.833 V 261.917 H 72.667 V 243.208 Z" style="fill: #3ecf8e;"/><path d="M 72.667 261.917 H 90.833 V 280.625 H 72.667 V 261.917 Z" style="fill: #3ecf8e;"/><path d="M 90.833 112.25 H 109 V 130.958 H 90.833 V 112.25 Z" style="fill: #3ecf8e;"/><path d="M 90.833 130.958 H 109 V 149.667 H 90.833 V 130.958 Z" style="fill: #3ecf8e;"/><path d="M 90.833 149.667 H 109 V 168.375 H 90.833 V 149.667 Z" style="fill: #3ecf8e;"/><path d="M 90.833 168.375 H 109 V 187.083 H 90.833 V 168.375 Z" style="fill: #3ecf8e;"/><path d="M 90.833 187.083 H 109 V 205.792 H 90.833 V 187.083 Z" style="fill: #3ecf8e;"/><path d="M 90.833 205.792 H 109 V 224.5 H 90.833 V 205.792 Z" style="fill: #3ecf8e;"/><path d="M 90.833 224.5 H 109 V 243.208 H 90.833 V 224.5 Z" style="fill: #3ecf8e;"/><path d="M 90.833 243.208 H 109 V 261.917 H 90.833 V 243.208 Z" style="fill: #3ecf8e;"/><path d="M 90.833 261.917 H 109 V 280.625 H 90.833 V 261.917 Z" style="fill: #3ecf8e;"/><path d="M 109 93.542 H 127.167 V 112.25 H 109 V 93.542 Z" style="fill: #3ecf8e;"/><path d="M 109 112.25 H 127.167 V 130.958 H 109 V 112.25 Z" style="fill: #3ecf8e;"/><path d="M 109 130.958 H 127.167 V 149.667 H 109 V 130.958 Z" style="fill: #3ecf8e;"/><path d="M 109 149.667 H 127.167 V 168.375 H 109 V 149.667 Z" style="fill: #3ecf8e;"/><path d="M 109 168.375 H 127.167 V 187.083 H 109 V 168.375 Z" style="fill: #3ecf8e;"/><path d="M 109 187.083 H 127.167 V 205.792 H 109 V 187.083 Z" style="fill: #3ecf8e;"/><path d="M 109 205.792 H 127.167 V 224.5 H 109 V 205.792 Z" style="fill: #3ecf8e;"/><path d="M 109 224.5 H 127.167 V 243.208 H 109 V 224.5 Z" style="fill: #3ecf8e;"/><path d="M 109 243.208 H 127.167 V 261.917 H 109 V 243.208 Z" style="fill: #3ecf8e;"/><path d="M 109 261.917 H 127.167 V 280.625 H 109 V 261.917 Z" style="fill: #3ecf8e;"/><path d="M 127.167 56.125 H 145.333 V 74.833 H 127.167 V 56.125 Z" style="fill: #3ecf8e;"/><path d="M 127.167 74.833 H 145.333 V 93.542 H 127.167 V 74.833 Z" style="fill: #3ecf8e;"/><path d="M 127.167 93.542 H 145.333 V 112.25 H 127.167 V 93.542 Z" style="fill: #3ecf8e;"/><path d="M 127.167 112.25 H 145.333 V 130.958 H 127.167 V 112.25 Z" style="fill: #3ecf8e;"/><path d="M 127.167 130.958 H 145.333 V 149.667 H 127.167 V 130.958 Z" style="fill: #3ecf8e;"/><path d="M 127.167 149.667 H 145.333 V 168.375 H 127.167 V 149.667 Z" style="fill: #3ecf8e;"/><path d="M 127.167 168.375 H 145.333 V 187.083 H 127.167 V 168.375 Z" style="fill: #3ecf8e;"/><path d="M 127.167 187.083 H 145.333 V 205.792 H 127.167 V 187.083 Z" style="fill: #3ecf8e;"/><path d="M 127.167 205.792 H 145.333 V 224.5 H 127.167 V 205.792 Z" style="fill: #3ecf8e;"/><path d="M 127.167 224.5 H 145.333 V 243.208 H 127.167 V 224.5 Z" style="fill: #3ecf8e;"/><path d="M 127.167 243.208 H 145.333 V 261.917 H 127.167 V 243.208 Z" style="fill: #3ecf8e;"/><path d="M 127.167 261.917 H 145.333 V 280.625 H 127.167 V 261.917 Z" style="fill: #3ecf8e;"/><path d="M 145.333 37.417 H 163.5 V 56.125 H 145.333 V 37.417 Z" style="fill: #3ecf8e;"/><path d="M 145.333 56.125 H 163.5 V 74.833 H 145.333 V 56.125 Z" style="fill: #3ecf8e;"/><path d="M 145.333 74.833 H 163.5 V 93.542 H 145.333 V 74.833 Z" style="fill: #3ecf8e;"/><path d="M 145.333 93.542 H 163.5 V 112.25 H 145.333 V 93.542 Z" style="fill: #3ecf8e;"/><path d="M 145.333 112.25 H 163.5 V 130.958 H 145.333 V 112.25 Z" style="fill: #3ecf8e;"/><path d="M 145.333 130.958 H 163.5 V 149.667 H 145.333 V 130.958 Z" style="fill: #3ecf8e;"/><path d="M 145.333 149.667 H 163.5 V 168.375 H 145.333 V 149.667 Z" style="fill: #3ecf8e;"/><path d="M 145.333 168.375 H 163.5 V 187.083 H 145.333 V 168.375 Z" style="fill: #3ecf8e;"/><path d="M 145.333 187.083 H 163.5 V 205.792 H 145.333 V 187.083 Z" style="fill: #3ecf8e;"/><path d="M 145.333 205.792 H 163.5 V 224.5 H 145.333 V 205.792 Z" style="fill: #3ecf8e;"/><path d="M 145.333 224.5 H 163.5 V 243.208 H 145.333 V 224.5 Z" style="fill: #3ecf8e;"/><path d="M 145.333 243.208 H 163.5 V 261.917 H 145.333 V 243.208 Z" style="fill: #3ecf8e;"/><path d="M 145.333 261.917 H 163.5 V 280.625 H 145.333 V 261.917 Z" style="fill: #3ecf8e;"/><path d="M 163.5 18.708 H 181.667 V 37.417 H 163.5 V 18.708 Z" style="fill: #3ecf8e;"/><path d="M 163.5 37.417 H 181.667 V 56.125 H 163.5 V 37.417 Z" style="fill: #3ecf8e;"/><path d="M 163.5 56.125 H 181.667 V 74.833 H 163.5 V 56.125 Z" style="fill: #3ecf8e;"/><path d="M 163.5 74.833 H 181.667 V 93.542 H 163.5 V 74.833 Z" style="fill: #3ecf8e;"/><path d="M 163.5 93.542 H 181.667 V 112.25 H 163.5 V 93.542 Z" style="fill: #3ecf8e;"/><path d="M 163.5 112.25 H 181.667 V 130.958 H 163.5 V 112.25 Z" style="fill: #3ecf8e;"/><path d="M 163.5 130.958 H 181.667 V 149.667 H 163.5 V 130.958 Z" style="fill: #3ecf8e;"/><path d="M 163.5 149.667 H 181.667 V 168.375 H 163.5 V 149.667 Z" style="fill: #3ecf8e;"/><path d="M 163.5 168.375 H 181.667 V 187.083 H 163.5 V 168.375 Z" style="fill: #3ecf8e;"/><path d="M 163.5 187.083 H 181.667 V 205.792 H 163.5 V 187.083 Z" style="fill: #3ecf8e;"/><path d="M 163.5 205.792 H 181.667 V 224.5 H 163.5 V 205.792 Z" style="fill: #3ecf8e;"/><path d="M 163.5 224.5 H 181.667 V 243.208 H 163.5 V 224.5 Z" style="fill: #3ecf8e;"/><path d="M 163.5 243.208 H 181.667 V 261.917 H 163.5 V 243.208 Z" style="fill: #3ecf8e;"/><path d="M 163.5 261.917 H 181.667 V 280.625 H 163.5 V 261.917 Z" style="fill: #3ecf8e;"/><path d="M 181.667 0 H 199.833 V 18.708 H 181.667 V 0 Z" style="fill: #3ecf8e;"/><path d="M 181.667 18.708 H 199.833 V 37.417 H 181.667 V 18.708 Z" style="fill: #3ecf8e;"/><path d="M 181.667 37.417 H 199.833 V 56.125 H 181.667 V 37.417 Z" style="fill: #3ecf8e;"/><path d="M 181.667 56.125 H 199.833 V 74.833 H 181.667 V 56.125 Z" style="fill: #3ecf8e;"/><path d="M 181.667 74.833 H 199.833 V 93.542 H 181.667 V 74.833 Z" style="fill: #3ecf8e;"/><path d="M 181.667 93.542 H 199.833 V 112.25 H 181.667 V 93.542 Z" style="fill: #3ecf8e;"/><path d="M 181.667 112.25 H 199.833 V 130.958 H 181.667 V 112.25 Z" style="fill: #3ecf8e;"/><path d="M 181.667 130.958 H 199.833 V 149.667 H 181.667 V 130.958 Z" style="fill: #3ecf8e;"/><path d="M 181.667 149.667 H 199.833 V 168.375 H 181.667 V 149.667 Z" style="fill: #3ecf8e;"/><path d="M 181.667 168.375 H 199.833 V 187.083 H 181.667 V 168.375 Z" style="fill: #3ecf8e;"/><path d="M 181.667 187.083 H 199.833 V 205.792 H 181.667 V 187.083 Z" style="fill: #3ecf8e;"/><path d="M 181.667 205.792 H 199.833 V 224.5 H 181.667 V 205.792 Z" style="fill: #3ecf8e;"/><path d="M 181.667 224.5 H 199.833 V 243.208 H 181.667 V 224.5 Z" style="fill: #3ecf8e;"/><path d="M 181.667 243.208 H 199.833 V 261.917 H 181.667 V 243.208 Z" style="fill: #3ecf8e;"/><path d="M 181.667 261.917 H 199.833 V 280.625 H 181.667 V 261.917 Z" style="fill: #3ecf8e;"/><path d="M 199.833 0 H 218 V 18.708 H 199.833 V 0 Z" style="fill: #3ecf8e;"/><path d="M 199.833 18.708 H 218 V 37.417 H 199.833 V 18.708 Z" style="fill: #3ecf8e;"/><path d="M 199.833 37.417 H 218 V 56.125 H 199.833 V 37.417 Z" style="fill: #3ecf8e;"/><path d="M 199.833 56.125 H 218 V 74.833 H 199.833 V 56.125 Z" style="fill: #3ecf8e;"/><path d="M 199.833 74.833 H 218 V 93.542 H 199.833 V 74.833 Z" style="fill: #3ecf8e;"/><path d="M 199.833 93.542 H 218 V 112.25 H 199.833 V 93.542 Z" style="fill: #3ecf8e;"/><path d="M 199.833 112.25 H 218 V 130.958 H 199.833 V 112.25 Z" style="fill: #3ecf8e;"/><path d="M 199.833 130.958 H 218 V 149.667 H 199.833 V 130.958 Z" style="fill: #3ecf8e;"/><path d="M 199.833 149.667 H 218 V 168.375 H 199.833 V 149.667 Z" style="fill: #3ecf8e;"/><path d="M 199.833 168.375 H 218 V 187.083 H 199.833 V 168.375 Z" style="fill: #3ecf8e;"/><path d="M 199.833 187.083 H 218 V 205.792 H 199.833 V 187.083 Z" style="fill: #3ecf8e;"/><path d="M 199.833 205.792 H 218 V 224.5 H 199.833 V 205.792 Z" style="fill: #3ecf8e;"/><path d="M 199.833 224.5 H 218 V 243.208 H 199.833 V 224.5 Z" style="fill: #3ecf8e;"/><path d="M 199.833 243.208 H 218 V 261.917 H 199.833 V 243.208 Z" style="fill: #3ecf8e;"/><path d="M 199.833 261.917 H 218 V 280.625 H 199.833 V 261.917 Z" style="fill: #3ecf8e;"/><path d="M 218 168.375 H 236.167 V 187.083 H 218 V 168.375 Z" style="fill: #228759;"/><path d="M 218 187.083 H 236.167 V 205.792 H 218 V 187.083 Z" style="fill: #228a5b;"/><path d="M 218 205.792 H 236.167 V 224.5 H 218 V 205.792 Z" style="fill: #24905f;"/><path d="M 218 224.5 H 236.167 V 243.208 H 218 V 224.5 Z" style="fill: #269563;"/><path d="M 218 243.208 H 236.167 V 261.917 H 218 V 243.208 Z" style="fill: #279b67;"/><path d="M 218 261.917 H 236.167 V 280.625 H 218 V 261.917 Z" style="fill: #289d69;"/><path d="M 218 280.625 H 236.167 V 299.333 H 218 V 280.625 Z" style="fill: rgba(42,163,107,1);"/><path d="M 218 299.333 H 236.167 V 318.042 H 218 V 299.333 Z" style="fill: #2ba36d;"/><path d="M 218 318.042 H 236.167 V 336.75 H 218 V 318.042 Z" style="fill: #2ca56e;"/><path d="M 218 336.75 H 236.167 V 355.458 H 218 V 336.75 Z" style="fill: #2da770;"/><path d="M 218 355.458 H 236.167 V 374.167 H 218 V 355.458 Z" style="fill: #2eaa72;"/><path d="M 218 374.167 H 236.167 V 392.875 H 218 V 374.167 Z" style="fill: #2fad74;"/><path d="M 218 392.875 H 236.167 V 411.583 H 218 V 392.875 Z" style="fill: rgba(48,177,117,1);"/><path d="M 218 411.583 H 236.167 V 430.292 H 218 V 411.583 Z" style="fill: #31b278;"/><path d="M 218 430.292 H 236.167 V 449 H 218 V 430.292 Z" style="fill: #33b57a;"/><path d="M 236.167 168.375 H 254.333 V 187.083 H 236.167 V 168.375 Z" style="fill: #238c5d;"/><path d="M 236.167 187.083 H 254.333 V 205.792 H 236.167 V 187.083 Z" style="fill: #259160;"/><path d="M 236.167 205.792 H 254.333 V 224.5 H 236.167 V 205.792 Z" style="fill: #279664;"/><path d="M 236.167 224.5 H 254.333 V 243.208 H 236.167 V 224.5 Z" style="fill: #2a9d69;"/><path d="M 236.167 243.208 H 254.333 V 261.917 H 236.167 V 243.208 Z" style="fill: #2aa16c;"/><path d="M 236.167 261.917 H 254.333 V 280.625 H 236.167 V 261.917 Z" style="fill: #2ba36d;"/><path d="M 236.167 280.625 H 254.333 V 299.333 H 236.167 V 280.625 Z" style="fill: #2ca56f;"/><path d="M 236.167 299.333 H 254.333 V 318.042 H 236.167 V 299.333 Z" style="fill: #2da871;"/><path d="M 236.167 318.042 H 254.333 V 336.75 H 236.167 V 318.042 Z" style="fill: rgba(46,173,114,1);"/><path d="M 236.167 336.75 H 254.333 V 355.458 H 236.167 V 336.75 Z" style="fill: #2fad75;"/><path d="M 236.167 355.458 H 254.333 V 374.167 H 236.167 V 355.458 Z" style="fill: #31b077;"/><path d="M 236.167 374.167 H 254.333 V 392.875 H 236.167 V 374.167 Z" style="fill: #32b278;"/><path d="M 236.167 392.875 H 254.333 V 411.583 H 236.167 V 392.875 Z" style="fill: rgba(50,183,122,1);"/><path d="M 236.167 411.583 H 254.333 V 430.292 H 236.167 V 411.583 Z" style="fill: #34b77c;"/><path d="M 236.167 430.292 H 254.333 V 449 H 236.167 V 430.292 Z" style="fill: rgba(52,188,125,1);"/><path d="M 254.333 168.375 H 272.5 V 187.083 H 254.333 V 168.375 Z" style="fill: #269362;"/><path d="M 254.333 187.083 H 272.5 V 205.792 H 254.333 V 187.083 Z" style="fill: #279865;"/><path d="M 254.333 205.792 H 272.5 V 224.5 H 254.333 V 205.792 Z" style="fill: #299e69;"/><path d="M 254.333 224.5 H 272.5 V 243.208 H 254.333 V 224.5 Z" style="fill: #2da46f;"/><path d="M 254.333 243.208 H 272.5 V 261.917 H 254.333 V 243.208 Z" style="fill: #2ca66f;"/><path d="M 254.333 261.917 H 272.5 V 280.625 H 254.333 V 261.917 Z" style="fill: #2da971;"/><path d="M 254.333 280.625 H 272.5 V 299.333 H 254.333 V 280.625 Z" style="fill: #2eab73;"/><path d="M 254.333 299.333 H 272.5 V 318.042 H 254.333 V 299.333 Z" style="fill: #30ae76;"/><path d="M 254.333 318.042 H 272.5 V 336.75 H 254.333 V 318.042 Z" style="fill: #31b177;"/><path d="M 254.333 336.75 H 272.5 V 355.458 H 254.333 V 336.75 Z" style="fill: #32b379;"/><path d="M 254.333 355.458 H 272.5 V 374.167 H 254.333 V 355.458 Z" style="fill: #33b57b;"/><path d="M 254.333 374.167 H 272.5 V 392.875 H 254.333 V 374.167 Z" style="fill: rgba(52,187,124,1);"/><path d="M 254.333 392.875 H 272.5 V 411.583 H 254.333 V 392.875 Z" style="fill: rgba(53,189,126,1);"/><path d="M 254.333 411.583 H 272.5 V 430.292 H 254.333 V 411.583 Z" style="fill: #36bd81;"/><path d="M 272.5 168.375 H 290.667 V 187.083 H 272.5 V 168.375 Z" style="fill: #299a67;"/><path d="M 272.5 187.083 H 290.667 V 205.792 H 272.5 V 187.083 Z" style="fill: #2aa06b;"/><path d="M 272.5 205.792 H 290.667 V 224.5 H 272.5 V 205.792 Z" style="fill: #2ca56f;"/><path d="M 272.5 224.5 H 290.667 V 243.208 H 272.5 V 224.5 Z" style="fill: rgba(45,172,114,1);"/><path d="M 272.5 243.208 H 290.667 V 261.917 H 272.5 V 243.208 Z" style="fill: rgba(46,175,116,1);"/><path d="M 272.5 261.917 H 290.667 V 280.625 H 272.5 V 261.917 Z" style="fill: #30af76;"/><path d="M 272.5 280.625 H 290.667 V 299.333 H 272.5 V 280.625 Z" style="fill: #31b178;"/><path d="M 272.5 299.333 H 290.667 V 318.042 H 272.5 V 299.333 Z" style="fill: #32b47a;"/><path d="M 272.5 318.042 H 290.667 V 336.75 H 272.5 V 318.042 Z" style="fill: #33b67b;"/><path d="M 272.5 336.75 H 290.667 V 355.458 H 272.5 V 336.75 Z" style="fill: rgba(52,187,125,1);"/><path d="M 272.5 355.458 H 290.667 V 374.167 H 272.5 V 355.458 Z" style="fill: #35bb80;"/><path d="M 272.5 374.167 H 290.667 V 392.875 H 272.5 V 374.167 Z" style="fill: #36be81;"/><path d="M 272.5 392.875 H 290.667 V 411.583 H 272.5 V 392.875 Z" style="fill: rgba(55,195,134,1);"/><path d="M 290.667 168.375 H 308.833 V 187.083 H 290.667 V 168.375 Z" style="fill: #2ca16c;"/><path d="M 290.667 187.083 H 308.833 V 205.792 H 290.667 V 187.083 Z" style="fill: #2da770;"/><path d="M 290.667 205.792 H 308.833 V 224.5 H 290.667 V 205.792 Z" style="fill: #30ad76;"/><path d="M 290.667 224.5 H 308.833 V 243.208 H 290.667 V 224.5 Z" style="fill: #30af76;"/><path d="M 290.667 243.208 H 308.833 V 261.917 H 290.667 V 243.208 Z" style="fill: #31b278;"/><path d="M 290.667 261.917 H 308.833 V 280.625 H 290.667 V 261.917 Z" style="fill: #33b57a;"/><path d="M 290.667 280.625 H 308.833 V 299.333 H 290.667 V 280.625 Z" style="fill: #33b77c;"/><path d="M 290.667 299.333 H 308.833 V 318.042 H 290.667 V 299.333 Z" style="fill: #35ba7e;"/><path d="M 290.667 318.042 H 308.833 V 336.75 H 290.667 V 318.042 Z" style="fill: rgba(53,190,130,1);"/><path d="M 290.667 336.75 H 308.833 V 355.458 H 290.667 V 336.75 Z" style="fill: #37bf82;"/><path d="M 290.667 355.458 H 308.833 V 374.167 H 290.667 V 355.458 Z" style="fill: #39c284;"/><path d="M 308.833 168.375 H 327 V 187.083 H 308.833 V 168.375 Z" style="fill: #2ea972;"/><path d="M 308.833 187.083 H 327 V 205.792 H 308.833 V 187.083 Z" style="fill: #30af76;"/><path d="M 308.833 205.792 H 327 V 224.5 H 308.833 V 205.792 Z" style="fill: #32b47a;"/><path d="M 308.833 224.5 H 327 V 243.208 H 308.833 V 224.5 Z" style="fill: rgba(51,184,123,1);"/><path d="M 308.833 243.208 H 327 V 261.917 H 308.833 V 243.208 Z" style="fill: rgba(51,186,124,1);"/><path d="M 308.833 261.917 H 327 V 280.625 H 308.833 V 261.917 Z" style="fill: #35ba7f;"/><path d="M 308.833 280.625 H 327 V 299.333 H 308.833 V 280.625 Z" style="fill: #36bd80;"/><path d="M 308.833 299.333 H 327 V 318.042 H 308.833 V 299.333 Z" style="fill: #37bf82;"/><path d="M 308.833 318.042 H 327 V 336.75 H 308.833 V 318.042 Z" style="fill: rgba(56,196,134,1);"/><path d="M 308.833 336.75 H 327 V 355.458 H 308.833 V 336.75 Z" style="fill: rgba(57,199,136,1);"/><path d="M 327 168.375 H 345.167 V 187.083 H 327 V 168.375 Z" style="fill: #31af77;"/><path d="M 327 187.083 H 345.167 V 205.792 H 327 V 187.083 Z" style="fill: #33b57b;"/><path d="M 327 205.792 H 345.167 V 224.5 H 327 V 205.792 Z" style="fill: #34b87d;"/><path d="M 327 224.5 H 345.167 V 243.208 H 327 V 224.5 Z" style="fill: #35bb7f;"/><path d="M 327 243.208 H 345.167 V 261.917 H 327 V 243.208 Z" style="fill: #37be81;"/><path d="M 327 261.917 H 345.167 V 280.625 H 327 V 261.917 Z" style="fill: #38c083;"/><path d="M 327 280.625 H 345.167 V 299.333 H 327 V 280.625 Z" style="fill: rgba(56,197,135,1);"/><path d="M 327 299.333 H 345.167 V 318.042 H 327 V 299.333 Z" style="fill: #3ac587;"/><path d="M 327 318.042 H 345.167 V 336.75 H 327 V 318.042 Z" style="fill: #3bc889;"/><path d="M 345.167 168.375 H 363.333 V 187.083 H 345.167 V 168.375 Z" style="fill: #34b87e;"/><path d="M 345.167 187.083 H 363.333 V 205.792 H 345.167 V 187.083 Z" style="fill: #36bc80;"/><path d="M 345.167 205.792 H 363.333 V 224.5 H 345.167 V 205.792 Z" style="fill: #37bf82;"/><path d="M 345.167 224.5 H 363.333 V 243.208 H 345.167 V 224.5 Z" style="fill: rgba(55,195,134,1);"/><path d="M 345.167 243.208 H 363.333 V 261.917 H 345.167 V 243.208 Z" style="fill: #39c385;"/><path d="M 345.167 261.917 H 363.333 V 280.625 H 345.167 V 261.917 Z" style="fill: rgba(58,201,138,1);"/><path d="M 345.167 280.625 H 363.333 V 299.333 H 345.167 V 280.625 Z" style="fill: rgba(59,203,140,1);"/><path d="M 345.167 299.333 H 363.333 V 318.042 H 345.167 V 299.333 Z" style="fill: #3ccb8b;"/><path d="M 363.333 168.375 H 381.5 V 187.083 H 363.333 V 168.375 Z" style="fill: #37bf82;"/><path d="M 363.333 187.083 H 381.5 V 205.792 H 363.333 V 187.083 Z" style="fill: #39c284;"/><path d="M 363.333 205.792 H 381.5 V 224.5 H 363.333 V 205.792 Z" style="fill: #39c486;"/><path d="M 363.333 224.5 H 381.5 V 243.208 H 363.333 V 224.5 Z" style="fill: #3bc788;"/><path d="M 363.333 243.208 H 381.5 V 261.917 H 363.333 V 243.208 Z" style="fill: #3cca8a;"/><path d="M 363.333 261.917 H 381.5 V 280.625 H 363.333 V 261.917 Z" style="fill: #3ccb8b;"/><path d="M 363.333 280.625 H 381.5 V 299.333 H 363.333 V 280.625 Z" style="fill: #3ece8e;"/><path d="M 381.5 168.375 H 399.667 V 187.083 H 381.5 V 168.375 Z" style="fill: #3ac587;"/><path d="M 381.5 187.083 H 399.667 V 205.792 H 381.5 V 187.083 Z" style="fill: #3bc889;"/><path d="M 381.5 205.792 H 399.667 V 224.5 H 381.5 V 205.792 Z" style="fill: rgba(59,205,141,1);"/><path d="M 381.5 224.5 H 399.667 V 243.208 H 381.5 V 224.5 Z" style="fill: #3dcd8c;"/><path d="M 381.5 243.208 H 399.667 V 261.917 H 381.5 V 243.208 Z" style="fill: #3ecf8e;"/><path d="M 399.667 168.375 H 417.833 V 187.083 H 399.667 V 168.375 Z" style="fill: #3ccb8b;"/><path d="M 399.667 187.083 H 417.833 V 205.792 H 399.667 V 187.083 Z" style="fill: rgba(61,208,144,1);"/><path d="M 399.667 205.792 H 417.833 V 224.5 H 399.667 V 205.792 Z" style="fill: rgba(61,209,144,1);"/><path d="M 399.667 224.5 H 417.833 V 243.208 H 399.667 V 224.5 Z" style="fill: #3ecf8e;"/><path d="M 417.833 168.375 H 436 V 187.083 H 417.833 V 168.375 Z" style="fill: #3ecf8e;"/><path d="M 417.833 187.083 H 436 V 205.792 H 417.833 V 187.083 Z" style="fill: #3ecf8e;"/><path d="M 417.833 205.792 H 436 V 224.5 H 417.833 V 205.792 Z" style="fill: #3ecf8e;"/></g></svg>