<?xml version="1.0" encoding="utf-8"?>
<svg xmlns="http://www.w3.org/2000/svg" viewBox="-486.3056 -926.6246 224 224" width="224px" height="224px"><g transform="matrix(0.4000000059604645, 0, 0, 0.4000000059604645, -486.3056335449219, -926.6246337890625)" id="object-1"><path d="M 0 46.667 H 23.333 V 70 H 0 V 46.667 Z" style="fill: #94db77;"/><path d="M 0 70 H 23.333 V 93.333 H 0 V 70 Z" style="fill: #94db77;"/><path d="M 0 93.333 H 23.333 V 116.667 H 0 V 93.333 Z" style="fill: #94db77;"/><path d="M 0 116.667 H 23.333 V 140 H 0 V 116.667 Z" style="fill: #94db77;"/><path d="M 0 140 H 23.333 V 163.333 H 0 V 140 Z" style="fill: #94db77;"/><path d="M 0 163.333 H 23.333 V 186.667 H 0 V 163.333 Z" style="fill: #94db77;"/><path d="M 0 186.667 H 23.333 V 210 H 0 V 186.667 Z" style="fill: #94db77;"/><path d="M 0 210 H 23.333 V 233.333 H 0 V 210 Z" style="fill: #94db77;"/><path d="M 0 233.333 H 23.333 V 256.667 H 0 V 233.333 Z" style="fill: #94db77;"/><path d="M 0 256.667 H 23.333 V 280 H 0 V 256.667 Z" style="fill: #94db77;"/><path d="M 0 280 H 23.333 V 303.333 H 0 V 280 Z" style="fill: #94db77;"/><path d="M 0 303.333 H 23.333 V 326.667 H 0 V 303.333 Z" style="fill: #94db77;"/><path d="M 0 326.667 H 23.333 V 350 H 0 V 326.667 Z" style="fill: #94db77;"/><path d="M 0 350 H 23.333 V 373.333 H 0 V 350 Z" style="fill: #4aad20;"/><path d="M 0 373.333 H 23.333 V 396.667 H 0 V 373.333 Z" style="fill: #4aad20;"/><path d="M 0 396.667 H 23.333 V 420 H 0 V 396.667 Z" style="fill: #94db77;"/><path d="M 0 420 H 23.333 V 443.333 H 0 V 420 Z" style="fill: #94db77;"/><path d="M 0 443.333 H 23.333 V 466.667 H 0 V 443.333 Z" style="fill: #94db77;"/><path d="M 0 466.667 H 23.333 V 490 H 0 V 466.667 Z" style="fill: #94db77;"/><path d="M 0 490 H 23.333 V 513.333 H 0 V 490 Z" style="fill: #94db77;"/><path d="M 23.333 23.333 H 46.667 V 46.667 H 23.333 V 23.333 Z" style="fill: #94db77;"/><path d="M 23.333 46.667 H 46.667 V 70 H 23.333 V 46.667 Z" style="fill: #94db77;"/><path d="M 23.333 70 H 46.667 V 93.333 H 23.333 V 70 Z" style="fill: #94db77;"/><path d="M 23.333 93.333 H 46.667 V 116.667 H 23.333 V 93.333 Z" style="fill: #94db77;"/><path d="M 23.333 116.667 H 46.667 V 140 H 23.333 V 116.667 Z" style="fill: #94db77;"/><path d="M 23.333 140 H 46.667 V 163.333 H 23.333 V 140 Z" style="fill: #94db77;"/><path d="M 23.333 163.333 H 46.667 V 186.667 H 23.333 V 163.333 Z" style="fill: #94db77;"/><path d="M 23.333 186.667 H 46.667 V 210 H 23.333 V 186.667 Z" style="fill: #94db77;"/><path d="M 23.333 210 H 46.667 V 233.333 H 23.333 V 210 Z" style="fill: #94db77;"/><path d="M 23.333 233.333 H 46.667 V 256.667 H 23.333 V 233.333 Z" style="fill: #94db77;"/><path d="M 23.333 256.667 H 46.667 V 280 H 23.333 V 256.667 Z" style="fill: #94db77;"/><path d="M 23.333 280 H 46.667 V 303.333 H 23.333 V 280 Z" style="fill: #94db77;"/><path d="M 23.333 303.333 H 46.667 V 326.667 H 23.333 V 303.333 Z" style="fill: #94db77;"/><path d="M 23.333 326.667 H 46.667 V 350 H 23.333 V 326.667 Z" style="fill: #94db77;"/><path d="M 23.333 350 H 46.667 V 373.333 H 23.333 V 350 Z" style="fill: #4aad20;"/><path d="M 23.333 373.333 H 46.667 V 396.667 H 23.333 V 373.333 Z" style="fill: #4aad20;"/><path d="M 23.333 396.667 H 46.667 V 420 H 23.333 V 396.667 Z" style="fill: #5db937;"/><path d="M 23.333 420 H 46.667 V 443.333 H 23.333 V 420 Z" style="fill: #94db77;"/><path d="M 23.333 443.333 H 46.667 V 466.667 H 23.333 V 443.333 Z" style="fill: #94db77;"/><path d="M 23.333 466.667 H 46.667 V 490 H 23.333 V 466.667 Z" style="fill: #94db77;"/><path d="M 23.333 490 H 46.667 V 513.333 H 23.333 V 490 Z" style="fill: #94db77;"/><path d="M 23.333 513.333 H 46.667 V 536.667 H 23.333 V 513.333 Z" style="fill: #94db77;"/><path d="M 46.667 0 H 70 V 23.333 H 46.667 V 0 Z" style="fill: #94db77;"/><path d="M 46.667 23.333 H 70 V 46.667 H 46.667 V 23.333 Z" style="fill: #94db77;"/><path d="M 46.667 46.667 H 70 V 70 H 46.667 V 46.667 Z" style="fill: #94db77;"/><path d="M 46.667 70 H 70 V 93.333 H 46.667 V 70 Z" style="fill: #94db77;"/><path d="M 46.667 93.333 H 70 V 116.667 H 46.667 V 93.333 Z" style="fill: #94db77;"/><path d="M 46.667 116.667 H 70 V 140 H 46.667 V 116.667 Z" style="fill: #94db77;"/><path d="M 46.667 140 H 70 V 163.333 H 46.667 V 140 Z" style="fill: #94db77;"/><path d="M 46.667 163.333 H 70 V 186.667 H 46.667 V 163.333 Z" style="fill: #94db77;"/><path d="M 46.667 186.667 H 70 V 210 H 46.667 V 186.667 Z" style="fill: #94db77;"/><path d="M 46.667 210 H 70 V 233.333 H 46.667 V 210 Z" style="fill: #94db77;"/><path d="M 46.667 233.333 H 70 V 256.667 H 46.667 V 233.333 Z" style="fill: #94db77;"/><path d="M 46.667 256.667 H 70 V 280 H 46.667 V 256.667 Z" style="fill: #94db77;"/><path d="M 46.667 280 H 70 V 303.333 H 46.667 V 280 Z" style="fill: #4aad20;"/><path d="M 46.667 303.333 H 70 V 326.667 H 46.667 V 303.333 Z" style="fill: #4aad20;"/><path d="M 46.667 326.667 H 70 V 350 H 46.667 V 326.667 Z" style="fill: #4aad20;"/><path d="M 46.667 350 H 70 V 373.333 H 46.667 V 350 Z" style="fill: #4aad20;"/><path d="M 46.667 373.333 H 70 V 396.667 H 46.667 V 373.333 Z" style="fill: #4aad20;"/><path d="M 46.667 396.667 H 70 V 420 H 46.667 V 396.667 Z" style="fill: #4aad20;"/><path d="M 46.667 420 H 70 V 443.333 H 46.667 V 420 Z" style="fill: #4aad20;"/><path d="M 46.667 443.333 H 70 V 466.667 H 46.667 V 443.333 Z" style="fill: #4aad20;"/><path d="M 46.667 466.667 H 70 V 490 H 46.667 V 466.667 Z" style="fill: #4aad20;"/><path d="M 46.667 490 H 70 V 513.333 H 46.667 V 490 Z" style="fill: #94db77;"/><path d="M 46.667 513.333 H 70 V 536.667 H 46.667 V 513.333 Z" style="fill: #94db77;"/><path d="M 46.667 536.667 H 70 V 560 H 46.667 V 536.667 Z" style="fill: #94db77;"/><path d="M 70 0 H 93.333 V 23.333 H 70 V 0 Z" style="fill: #94db77;"/><path d="M 70 23.333 H 93.333 V 46.667 H 70 V 23.333 Z" style="fill: #94db77;"/><path d="M 70 46.667 H 93.333 V 70 H 70 V 46.667 Z" style="fill: #94db77;"/><path d="M 70 70 H 93.333 V 93.333 H 70 V 70 Z" style="fill: #94db77;"/><path d="M 70 93.333 H 93.333 V 116.667 H 70 V 93.333 Z" style="fill: #94db77;"/><path d="M 70 116.667 H 93.333 V 140 H 70 V 116.667 Z" style="fill: #94db77;"/><path d="M 70 140 H 93.333 V 163.333 H 70 V 140 Z" style="fill: #94db77;"/><path d="M 70 163.333 H 93.333 V 186.667 H 70 V 163.333 Z" style="fill: #94db77;"/><path d="M 70 186.667 H 93.333 V 210 H 70 V 186.667 Z" style="fill: #94db77;"/><path d="M 70 210 H 93.333 V 233.333 H 70 V 210 Z" style="fill: #94db77;"/><path d="M 70 233.333 H 93.333 V 256.667 H 70 V 233.333 Z" style="fill: #94db77;"/><path d="M 70 256.667 H 93.333 V 280 H 70 V 256.667 Z" style="fill: #4aad20;"/><path d="M 70 280 H 93.333 V 303.333 H 70 V 280 Z" style="fill: #4aad20;"/><path d="M 70 303.333 H 93.333 V 326.667 H 70 V 303.333 Z" style="fill: #4aad20;"/><path d="M 70 326.667 H 93.333 V 350 H 70 V 326.667 Z" style="fill: #4aad20;"/><path d="M 70 350 H 93.333 V 373.333 H 70 V 350 Z" style="fill: #4aad20;"/><path d="M 70 373.333 H 93.333 V 396.667 H 70 V 373.333 Z" style="fill: #4aad20;"/><path d="M 70 396.667 H 93.333 V 420 H 70 V 396.667 Z" style="fill: #4aad20;"/><path d="M 70 420 H 93.333 V 443.333 H 70 V 420 Z" style="fill: #4aad20;"/><path d="M 70 443.333 H 93.333 V 466.667 H 70 V 443.333 Z" style="fill: #4aad20;"/><path d="M 70 466.667 H 93.333 V 490 H 70 V 466.667 Z" style="fill: #4aad20;"/><path d="M 70 490 H 93.333 V 513.333 H 70 V 490 Z" style="fill: #94db77;"/><path d="M 70 513.333 H 93.333 V 536.667 H 70 V 513.333 Z" style="fill: #94db77;"/><path d="M 70 536.667 H 93.333 V 560 H 70 V 536.667 Z" style="fill: #94db77;"/><path d="M 93.333 0 H 116.667 V 23.333 H 93.333 V 0 Z" style="fill: #94db77;"/><path d="M 93.333 23.333 H 116.667 V 46.667 H 93.333 V 23.333 Z" style="fill: #94db77;"/><path d="M 93.333 46.667 H 116.667 V 70 H 93.333 V 46.667 Z" style="fill: #94db77;"/><path d="M 93.333 70 H 116.667 V 93.333 H 93.333 V 70 Z" style="fill: #94db77;"/><path d="M 93.333 93.333 H 116.667 V 116.667 H 93.333 V 93.333 Z" style="fill: #94db77;"/><path d="M 93.333 116.667 H 116.667 V 140 H 93.333 V 116.667 Z" style="fill: #94db77;"/><path d="M 93.333 140 H 116.667 V 163.333 H 93.333 V 140 Z" style="fill: #94db77;"/><path d="M 93.333 163.333 H 116.667 V 186.667 H 93.333 V 163.333 Z" style="fill: #94db77;"/><path d="M 93.333 186.667 H 116.667 V 210 H 93.333 V 186.667 Z" style="fill: #94db77;"/><path d="M 93.333 210 H 116.667 V 233.333 H 93.333 V 210 Z" style="fill: #94db77;"/><path d="M 93.333 233.333 H 116.667 V 256.667 H 93.333 V 233.333 Z" style="fill: #94db77;"/><path d="M 93.333 256.667 H 116.667 V 280 H 93.333 V 256.667 Z" style="fill: #4aad20;"/><path d="M 93.333 280 H 116.667 V 303.333 H 93.333 V 280 Z" style="fill: #4aad20;"/><path d="M 93.333 303.333 H 116.667 V 326.667 H 93.333 V 303.333 Z" style="fill: #4aad20;"/><path d="M 93.333 326.667 H 116.667 V 350 H 93.333 V 326.667 Z" style="fill: #388716;"/><path d="M 93.333 350 H 116.667 V 373.333 H 93.333 V 350 Z" style="fill: #388716;"/><path d="M 93.333 373.333 H 116.667 V 396.667 H 93.333 V 373.333 Z" style="fill: #4aad20;"/><path d="M 93.333 396.667 H 116.667 V 420 H 93.333 V 396.667 Z" style="fill: #4aad20;"/><path d="M 93.333 420 H 116.667 V 443.333 H 93.333 V 420 Z" style="fill: #4aad20;"/><path d="M 93.333 443.333 H 116.667 V 466.667 H 93.333 V 443.333 Z" style="fill: #4aad20;"/><path d="M 93.333 466.667 H 116.667 V 490 H 93.333 V 466.667 Z" style="fill: #4aad20;"/><path d="M 93.333 490 H 116.667 V 513.333 H 93.333 V 490 Z" style="fill: #94db77;"/><path d="M 93.333 513.333 H 116.667 V 536.667 H 93.333 V 513.333 Z" style="fill: #94db77;"/><path d="M 93.333 536.667 H 116.667 V 560 H 93.333 V 536.667 Z" style="fill: #94db77;"/><path d="M 116.667 0 H 140 V 23.333 H 116.667 V 0 Z" style="fill: #94db77;"/><path d="M 116.667 23.333 H 140 V 46.667 H 116.667 V 23.333 Z" style="fill: #94db77;"/><path d="M 116.667 46.667 H 140 V 70 H 116.667 V 46.667 Z" style="fill: #94db77;"/><path d="M 116.667 70 H 140 V 93.333 H 116.667 V 70 Z" style="fill: #94db77;"/><path d="M 116.667 93.333 H 140 V 116.667 H 116.667 V 93.333 Z" style="fill: #94db77;"/><path d="M 116.667 116.667 H 140 V 140 H 116.667 V 116.667 Z" style="fill: #94db77;"/><path d="M 116.667 140 H 140 V 163.333 H 116.667 V 140 Z" style="fill: #94db77;"/><path d="M 116.667 163.333 H 140 V 186.667 H 116.667 V 163.333 Z" style="fill: #94db77;"/><path d="M 116.667 186.667 H 140 V 210 H 116.667 V 186.667 Z" style="fill: #94db77;"/><path d="M 116.667 210 H 140 V 233.333 H 116.667 V 210 Z" style="fill: #94db77;"/><path d="M 116.667 233.333 H 140 V 256.667 H 116.667 V 233.333 Z" style="fill: #94db77;"/><path d="M 116.667 256.667 H 140 V 280 H 116.667 V 256.667 Z" style="fill: #4aad20;"/><path d="M 116.667 280 H 140 V 303.333 H 116.667 V 280 Z" style="fill: #4aad20;"/><path d="M 116.667 303.333 H 140 V 326.667 H 116.667 V 303.333 Z" style="fill: #4aad20;"/><path d="M 116.667 326.667 H 140 V 350 H 116.667 V 326.667 Z" style="fill: #388716;"/><path d="M 116.667 350 H 140 V 373.333 H 116.667 V 350 Z" style="fill: #4aad20;"/><path d="M 116.667 373.333 H 140 V 396.667 H 116.667 V 373.333 Z" style="fill: #4aad20;"/><path d="M 116.667 396.667 H 140 V 420 H 116.667 V 396.667 Z" style="fill: #388616;"/><path d="M 116.667 420 H 140 V 443.333 H 116.667 V 420 Z" style="fill: #388616;"/><path d="M 116.667 443.333 H 140 V 466.667 H 116.667 V 443.333 Z" style="fill: #4aad20;"/><path d="M 116.667 466.667 H 140 V 490 H 116.667 V 466.667 Z" style="fill: #4aad20;"/><path d="M 116.667 490 H 140 V 513.333 H 116.667 V 490 Z" style="fill: #94db77;"/><path d="M 116.667 513.333 H 140 V 536.667 H 116.667 V 513.333 Z" style="fill: #94db77;"/><path d="M 116.667 536.667 H 140 V 560 H 116.667 V 536.667 Z" style="fill: #94db77;"/><path d="M 140 0 H 163.333 V 23.333 H 140 V 0 Z" style="fill: #94db77;"/><path d="M 140 23.333 H 163.333 V 46.667 H 140 V 23.333 Z" style="fill: #94db77;"/><path d="M 140 46.667 H 163.333 V 70 H 140 V 46.667 Z" style="fill: #94db77;"/><path d="M 140 70 H 163.333 V 93.333 H 140 V 70 Z" style="fill: #94db77;"/><path d="M 140 93.333 H 163.333 V 116.667 H 140 V 93.333 Z" style="fill: #94db77;"/><path d="M 140 116.667 H 163.333 V 140 H 140 V 116.667 Z" style="fill: #94db77;"/><path d="M 140 140 H 163.333 V 163.333 H 140 V 140 Z" style="fill: #94db77;"/><path d="M 140 163.333 H 163.333 V 186.667 H 140 V 163.333 Z" style="fill: #4aad20;"/><path d="M 140 186.667 H 163.333 V 210 H 140 V 186.667 Z" style="fill: #4aad20;"/><path d="M 140 210 H 163.333 V 233.333 H 140 V 210 Z" style="fill: #4aad20;"/><path d="M 140 233.333 H 163.333 V 256.667 H 140 V 233.333 Z" style="fill: #4aad20;"/><path d="M 140 256.667 H 163.333 V 280 H 140 V 256.667 Z" style="fill: #4aad20;"/><path d="M 140 280 H 163.333 V 303.333 H 140 V 280 Z" style="fill: #4aad20;"/><path d="M 140 303.333 H 163.333 V 326.667 H 140 V 303.333 Z" style="fill: #4aad20;"/><path d="M 140 326.667 H 163.333 V 350 H 140 V 326.667 Z" style="fill: #4aad20;"/><path d="M 140 350 H 163.333 V 373.333 H 140 V 350 Z" style="fill: #4aad20;"/><path d="M 140 373.333 H 163.333 V 396.667 H 140 V 373.333 Z" style="fill: #4aad20;"/><path d="M 140 396.667 H 163.333 V 420 H 140 V 396.667 Z" style="fill: #388616;"/><path d="M 140 420 H 163.333 V 443.333 H 140 V 420 Z" style="fill: #388616;"/><path d="M 140 443.333 H 163.333 V 466.667 H 140 V 443.333 Z" style="fill: #388616;"/><path d="M 140 466.667 H 163.333 V 490 H 140 V 466.667 Z" style="fill: #4aad20;"/><path d="M 140 490 H 163.333 V 513.333 H 140 V 490 Z" style="fill: #94db77;"/><path d="M 140 513.333 H 163.333 V 536.667 H 140 V 513.333 Z" style="fill: #94db77;"/><path d="M 140 536.667 H 163.333 V 560 H 140 V 536.667 Z" style="fill: #94db77;"/><path d="M 163.333 0 H 186.667 V 23.333 H 163.333 V 0 Z" style="fill: #94db77;"/><path d="M 163.333 23.333 H 186.667 V 46.667 H 163.333 V 23.333 Z" style="fill: #94db77;"/><path d="M 163.333 46.667 H 186.667 V 70 H 163.333 V 46.667 Z" style="fill: #94db77;"/><path d="M 163.333 70 H 186.667 V 93.333 H 163.333 V 70 Z" style="fill: #94db77;"/><path d="M 163.333 93.333 H 186.667 V 116.667 H 163.333 V 93.333 Z" style="fill: #94db77;"/><path d="M 163.333 116.667 H 186.667 V 140 H 163.333 V 116.667 Z" style="fill: #94db77;"/><path d="M 163.333 140 H 186.667 V 163.333 H 163.333 V 140 Z" style="fill: #94db77;"/><path d="M 163.333 163.333 H 186.667 V 186.667 H 163.333 V 163.333 Z" style="fill: #4aad20;"/><path d="M 163.333 186.667 H 186.667 V 210 H 163.333 V 186.667 Z" style="fill: #53b32b;"/><path d="M 163.333 210 H 186.667 V 233.333 H 163.333 V 210 Z" style="fill: #94db77;"/><path d="M 163.333 233.333 H 186.667 V 256.667 H 163.333 V 233.333 Z" style="fill: #94db77;"/><path d="M 163.333 256.667 H 186.667 V 280 H 163.333 V 256.667 Z" style="fill: #4aad20;"/><path d="M 163.333 280 H 186.667 V 303.333 H 163.333 V 280 Z" style="fill: #4aad20;"/><path d="M 163.333 303.333 H 186.667 V 326.667 H 163.333 V 303.333 Z" style="fill: #4aad20;"/><path d="M 163.333 326.667 H 186.667 V 350 H 163.333 V 326.667 Z" style="fill: #4aad20;"/><path d="M 163.333 350 H 186.667 V 373.333 H 163.333 V 350 Z" style="fill: #4aad20;"/><path d="M 163.333 373.333 H 186.667 V 396.667 H 163.333 V 373.333 Z" style="fill: #4aad20;"/><path d="M 163.333 396.667 H 186.667 V 420 H 163.333 V 396.667 Z" style="fill: #388616;"/><path d="M 163.333 420 H 186.667 V 443.333 H 163.333 V 420 Z" style="fill: #388616;"/><path d="M 163.333 443.333 H 186.667 V 466.667 H 163.333 V 443.333 Z" style="fill: #419a1a;"/><path d="M 163.333 466.667 H 186.667 V 490 H 163.333 V 466.667 Z" style="fill: #4aad20;"/><path d="M 163.333 490 H 186.667 V 513.333 H 163.333 V 490 Z" style="fill: #94db77;"/><path d="M 163.333 513.333 H 186.667 V 536.667 H 163.333 V 513.333 Z" style="fill: #94db77;"/><path d="M 163.333 536.667 H 186.667 V 560 H 163.333 V 536.667 Z" style="fill: #94db77;"/><path d="M 186.667 0 H 210 V 23.333 H 186.667 V 0 Z" style="fill: #94db77;"/><path d="M 186.667 23.333 H 210 V 46.667 H 186.667 V 23.333 Z" style="fill: #94db77;"/><path d="M 186.667 46.667 H 210 V 70 H 186.667 V 46.667 Z" style="fill: #94db77;"/><path d="M 186.667 70 H 210 V 93.333 H 186.667 V 70 Z" style="fill: #94db77;"/><path d="M 186.667 93.333 H 210 V 116.667 H 186.667 V 93.333 Z" style="fill: #94db77;"/><path d="M 186.667 116.667 H 210 V 140 H 186.667 V 116.667 Z" style="fill: #94db77;"/><path d="M 186.667 140 H 210 V 163.333 H 186.667 V 140 Z" style="fill: #94db77;"/><path d="M 186.667 163.333 H 210 V 186.667 H 186.667 V 163.333 Z" style="fill: #94db77;"/><path d="M 186.667 186.667 H 210 V 210 H 186.667 V 186.667 Z" style="fill: #94db77;"/><path d="M 186.667 210 H 210 V 233.333 H 186.667 V 210 Z" style="fill: #94db77;"/><path d="M 186.667 233.333 H 210 V 256.667 H 186.667 V 233.333 Z" style="fill: #94db77;"/><path d="M 186.667 256.667 H 210 V 280 H 186.667 V 256.667 Z" style="fill: #4aad20;"/><path d="M 186.667 280 H 210 V 303.333 H 186.667 V 280 Z" style="fill: #4aad20;"/><path d="M 186.667 303.333 H 210 V 326.667 H 186.667 V 303.333 Z" style="fill: #4aad20;"/><path d="M 186.667 326.667 H 210 V 350 H 186.667 V 326.667 Z" style="fill: #388716;"/><path d="M 186.667 350 H 210 V 373.333 H 186.667 V 350 Z" style="fill: #388716;"/><path d="M 186.667 373.333 H 210 V 396.667 H 186.667 V 373.333 Z" style="fill: #4aad20;"/><path d="M 186.667 396.667 H 210 V 420 H 186.667 V 396.667 Z" style="fill: #388616;"/><path d="M 186.667 420 H 210 V 443.333 H 186.667 V 420 Z" style="fill: #388616;"/><path d="M 186.667 443.333 H 210 V 466.667 H 186.667 V 443.333 Z" style="fill: #4aad20;"/><path d="M 186.667 466.667 H 210 V 490 H 186.667 V 466.667 Z" style="fill: #4aad20;"/><path d="M 186.667 490 H 210 V 513.333 H 186.667 V 490 Z" style="fill: #94db77;"/><path d="M 186.667 513.333 H 210 V 536.667 H 186.667 V 513.333 Z" style="fill: #94db77;"/><path d="M 186.667 536.667 H 210 V 560 H 186.667 V 536.667 Z" style="fill: #94db77;"/><path d="M 210 0 H 233.333 V 23.333 H 210 V 0 Z" style="fill: #94db77;"/><path d="M 210 23.333 H 233.333 V 46.667 H 210 V 23.333 Z" style="fill: #94db77;"/><path d="M 210 46.667 H 233.333 V 70 H 210 V 46.667 Z" style="fill: #94db77;"/><path d="M 210 70 H 233.333 V 93.333 H 210 V 70 Z" style="fill: #94db77;"/><path d="M 210 93.333 H 233.333 V 116.667 H 210 V 93.333 Z" style="fill: #94db77;"/><path d="M 210 116.667 H 233.333 V 140 H 210 V 116.667 Z" style="fill: #94db77;"/><path d="M 210 140 H 233.333 V 163.333 H 210 V 140 Z" style="fill: #94db77;"/><path d="M 210 163.333 H 233.333 V 186.667 H 210 V 163.333 Z" style="fill: #94db77;"/><path d="M 210 186.667 H 233.333 V 210 H 210 V 186.667 Z" style="fill: #94db77;"/><path d="M 210 210 H 233.333 V 233.333 H 210 V 210 Z" style="fill: #94db77;"/><path d="M 210 233.333 H 233.333 V 256.667 H 210 V 233.333 Z" style="fill: #94db77;"/><path d="M 210 256.667 H 233.333 V 280 H 210 V 256.667 Z" style="fill: #4aad20;"/><path d="M 210 280 H 233.333 V 303.333 H 210 V 280 Z" style="fill: #4aad20;"/><path d="M 210 303.333 H 233.333 V 326.667 H 210 V 303.333 Z" style="fill: #4aad20;"/><path d="M 210 326.667 H 233.333 V 350 H 210 V 326.667 Z" style="fill: #388716;"/><path d="M 210 350 H 233.333 V 373.333 H 210 V 350 Z" style="fill: #4aad20;"/><path d="M 210 373.333 H 233.333 V 396.667 H 210 V 373.333 Z" style="fill: #4aad20;"/><path d="M 210 396.667 H 233.333 V 420 H 210 V 396.667 Z" style="fill: #4aad20;"/><path d="M 210 420 H 233.333 V 443.333 H 210 V 420 Z" style="fill: #4aad20;"/><path d="M 210 443.333 H 233.333 V 466.667 H 210 V 443.333 Z" style="fill: #4aad20;"/><path d="M 210 466.667 H 233.333 V 490 H 210 V 466.667 Z" style="fill: #4aad20;"/><path d="M 210 490 H 233.333 V 513.333 H 210 V 490 Z" style="fill: #94db77;"/><path d="M 210 513.333 H 233.333 V 536.667 H 210 V 513.333 Z" style="fill: #94db77;"/><path d="M 210 536.667 H 233.333 V 560 H 210 V 536.667 Z" style="fill: #94db77;"/><path d="M 233.333 0 H 256.667 V 23.333 H 233.333 V 0 Z" style="fill: #94db77;"/><path d="M 233.333 23.333 H 256.667 V 46.667 H 233.333 V 23.333 Z" style="fill: #94db77;"/><path d="M 233.333 46.667 H 256.667 V 70 H 233.333 V 46.667 Z" style="fill: #94db77;"/><path d="M 233.333 70 H 256.667 V 93.333 H 233.333 V 70 Z" style="fill: #94db77;"/><path d="M 233.333 93.333 H 256.667 V 116.667 H 233.333 V 93.333 Z" style="fill: #94db77;"/><path d="M 233.333 116.667 H 256.667 V 140 H 233.333 V 116.667 Z" style="fill: #94db77;"/><path d="M 233.333 140 H 256.667 V 163.333 H 233.333 V 140 Z" style="fill: #94db77;"/><path d="M 233.333 163.333 H 256.667 V 186.667 H 233.333 V 163.333 Z" style="fill: #94db77;"/><path d="M 233.333 186.667 H 256.667 V 210 H 233.333 V 186.667 Z" style="fill: #94db77;"/><path d="M 233.333 210 H 256.667 V 233.333 H 233.333 V 210 Z" style="fill: #94db77;"/><path d="M 233.333 233.333 H 256.667 V 256.667 H 233.333 V 233.333 Z" style="fill: #94db77;"/><path d="M 233.333 256.667 H 256.667 V 280 H 233.333 V 256.667 Z" style="fill: #4aad20;"/><path d="M 233.333 280 H 256.667 V 303.333 H 233.333 V 280 Z" style="fill: #4aad20;"/><path d="M 233.333 303.333 H 256.667 V 326.667 H 233.333 V 303.333 Z" style="fill: #4aad20;"/><path d="M 233.333 326.667 H 256.667 V 350 H 233.333 V 326.667 Z" style="fill: #4aad20;"/><path d="M 233.333 350 H 256.667 V 373.333 H 233.333 V 350 Z" style="fill: #4aad20;"/><path d="M 233.333 373.333 H 256.667 V 396.667 H 233.333 V 373.333 Z" style="fill: #4aad20;"/><path d="M 233.333 396.667 H 256.667 V 420 H 233.333 V 396.667 Z" style="fill: #4aad20;"/><path d="M 233.333 420 H 256.667 V 443.333 H 233.333 V 420 Z" style="fill: #4aad20;"/><path d="M 233.333 443.333 H 256.667 V 466.667 H 233.333 V 443.333 Z" style="fill: #4aad20;"/><path d="M 233.333 466.667 H 256.667 V 490 H 233.333 V 466.667 Z" style="fill: #4aad20;"/><path d="M 233.333 490 H 256.667 V 513.333 H 233.333 V 490 Z" style="fill: #94db77;"/><path d="M 233.333 513.333 H 256.667 V 536.667 H 233.333 V 513.333 Z" style="fill: #94db77;"/><path d="M 233.333 536.667 H 256.667 V 560 H 233.333 V 536.667 Z" style="fill: #94db77;"/><path d="M 256.667 0 H 280 V 23.333 H 256.667 V 0 Z" style="fill: #94db77;"/><path d="M 256.667 23.333 H 280 V 46.667 H 256.667 V 23.333 Z" style="fill: #94db77;"/><path d="M 256.667 46.667 H 280 V 70 H 256.667 V 46.667 Z" style="fill: #94db77;"/><path d="M 256.667 70 H 280 V 93.333 H 256.667 V 70 Z" style="fill: #94db77;"/><path d="M 256.667 93.333 H 280 V 116.667 H 256.667 V 93.333 Z" style="fill: #94db77;"/><path d="M 256.667 116.667 H 280 V 140 H 256.667 V 116.667 Z" style="fill: #94db77;"/><path d="M 256.667 140 H 280 V 163.333 H 256.667 V 140 Z" style="fill: #94db77;"/><path d="M 256.667 163.333 H 280 V 186.667 H 256.667 V 163.333 Z" style="fill: #94db77;"/><path d="M 256.667 186.667 H 280 V 210 H 256.667 V 186.667 Z" style="fill: #94db77;"/><path d="M 256.667 210 H 280 V 233.333 H 256.667 V 210 Z" style="fill: #94db77;"/><path d="M 256.667 233.333 H 280 V 256.667 H 256.667 V 233.333 Z" style="fill: #94db77;"/><path d="M 256.667 256.667 H 280 V 280 H 256.667 V 256.667 Z" style="fill: #94db77;"/><path d="M 256.667 280 H 280 V 303.333 H 256.667 V 280 Z" style="fill: #4aad20;"/><path d="M 256.667 303.333 H 280 V 326.667 H 256.667 V 303.333 Z" style="fill: #4aad20;"/><path d="M 256.667 326.667 H 280 V 350 H 256.667 V 326.667 Z" style="fill: #4aad20;"/><path d="M 256.667 350 H 280 V 373.333 H 256.667 V 350 Z" style="fill: #4aad20;"/><path d="M 256.667 373.333 H 280 V 396.667 H 256.667 V 373.333 Z" style="fill: #4aad20;"/><path d="M 256.667 396.667 H 280 V 420 H 256.667 V 396.667 Z" style="fill: #4aad20;"/><path d="M 256.667 420 H 280 V 443.333 H 256.667 V 420 Z" style="fill: #4aad20;"/><path d="M 256.667 443.333 H 280 V 466.667 H 256.667 V 443.333 Z" style="fill: #4aad20;"/><path d="M 256.667 466.667 H 280 V 490 H 256.667 V 466.667 Z" style="fill: #94db77;"/><path d="M 256.667 490 H 280 V 513.333 H 256.667 V 490 Z" style="fill: #94db77;"/><path d="M 256.667 513.333 H 280 V 536.667 H 256.667 V 513.333 Z" style="fill: #94db77;"/><path d="M 256.667 536.667 H 280 V 560 H 256.667 V 536.667 Z" style="fill: #94db77;"/><path d="M 280 0 H 303.333 V 23.333 H 280 V 0 Z" style="fill: #94db77;"/><path d="M 280 23.333 H 303.333 V 46.667 H 280 V 23.333 Z" style="fill: #94db77;"/><path d="M 280 46.667 H 303.333 V 70 H 280 V 46.667 Z" style="fill: #94db77;"/><path d="M 280 70 H 303.333 V 93.333 H 280 V 70 Z" style="fill: #94db77;"/><path d="M 280 93.333 H 303.333 V 116.667 H 280 V 93.333 Z" style="fill: #94db77;"/><path d="M 280 116.667 H 303.333 V 140 H 280 V 116.667 Z" style="fill: #94db77;"/><path d="M 280 140 H 303.333 V 163.333 H 280 V 140 Z" style="fill: #4aad20;"/><path d="M 280 163.333 H 303.333 V 186.667 H 280 V 163.333 Z" style="fill: #4aad20;"/><path d="M 280 186.667 H 303.333 V 210 H 280 V 186.667 Z" style="fill: #4aad20;"/><path d="M 280 210 H 303.333 V 233.333 H 280 V 210 Z" style="fill: #4aad20;"/><path d="M 280 233.333 H 303.333 V 256.667 H 280 V 233.333 Z" style="fill: #4aad20;"/><path d="M 280 256.667 H 303.333 V 280 H 280 V 256.667 Z" style="fill: #94db77;"/><path d="M 280 280 H 303.333 V 303.333 H 280 V 280 Z" style="fill: #94db77;"/><path d="M 280 303.333 H 303.333 V 326.667 H 280 V 303.333 Z" style="fill: #94db77;"/><path d="M 280 326.667 H 303.333 V 350 H 280 V 326.667 Z" style="fill: #94db77;"/><path d="M 280 350 H 303.333 V 373.333 H 280 V 350 Z" style="fill: #4aad20;"/><path d="M 280 373.333 H 303.333 V 396.667 H 280 V 373.333 Z" style="fill: #4aad20;"/><path d="M 280 396.667 H 303.333 V 420 H 280 V 396.667 Z" style="fill: #62bc3c;"/><path d="M 280 420 H 303.333 V 443.333 H 280 V 420 Z" style="fill: #94db77;"/><path d="M 280 443.333 H 303.333 V 466.667 H 280 V 443.333 Z" style="fill: #94db77;"/><path d="M 280 466.667 H 303.333 V 490 H 280 V 466.667 Z" style="fill: #94db77;"/><path d="M 280 490 H 303.333 V 513.333 H 280 V 490 Z" style="fill: #94db77;"/><path d="M 280 513.333 H 303.333 V 536.667 H 280 V 513.333 Z" style="fill: #94db77;"/><path d="M 280 536.667 H 303.333 V 560 H 280 V 536.667 Z" style="fill: #94db77;"/><path d="M 303.333 0 H 326.667 V 23.333 H 303.333 V 0 Z" style="fill: #94db77;"/><path d="M 303.333 23.333 H 326.667 V 46.667 H 303.333 V 23.333 Z" style="fill: #94db77;"/><path d="M 303.333 46.667 H 326.667 V 70 H 303.333 V 46.667 Z" style="fill: #94db77;"/><path d="M 303.333 70 H 326.667 V 93.333 H 303.333 V 70 Z" style="fill: #94db77;"/><path d="M 303.333 93.333 H 326.667 V 116.667 H 303.333 V 93.333 Z" style="fill: #94db77;"/><path d="M 303.333 116.667 H 326.667 V 140 H 303.333 V 116.667 Z" style="fill: #4aad20;"/><path d="M 303.333 140 H 326.667 V 163.333 H 303.333 V 140 Z" style="fill: #4aad20;"/><path d="M 303.333 163.333 H 326.667 V 186.667 H 303.333 V 163.333 Z" style="fill: #4aad20;"/><path d="M 303.333 186.667 H 326.667 V 210 H 303.333 V 186.667 Z" style="fill: #4aad20;"/><path d="M 303.333 210 H 326.667 V 233.333 H 303.333 V 210 Z" style="fill: #4aad20;"/><path d="M 303.333 233.333 H 326.667 V 256.667 H 303.333 V 233.333 Z" style="fill: #4aad20;"/><path d="M 303.333 256.667 H 326.667 V 280 H 303.333 V 256.667 Z" style="fill: #4aad20;"/><path d="M 303.333 280 H 326.667 V 303.333 H 303.333 V 280 Z" style="fill: #94db77;"/><path d="M 303.333 303.333 H 326.667 V 326.667 H 303.333 V 303.333 Z" style="fill: #94db77;"/><path d="M 303.333 326.667 H 326.667 V 350 H 303.333 V 326.667 Z" style="fill: #94db77;"/><path d="M 303.333 350 H 326.667 V 373.333 H 303.333 V 350 Z" style="fill: #94db77;"/><path d="M 303.333 373.333 H 326.667 V 396.667 H 303.333 V 373.333 Z" style="fill: #94db77;"/><path d="M 303.333 396.667 H 326.667 V 420 H 303.333 V 396.667 Z" style="fill: #94db77;"/><path d="M 303.333 420 H 326.667 V 443.333 H 303.333 V 420 Z" style="fill: #94db77;"/><path d="M 303.333 443.333 H 326.667 V 466.667 H 303.333 V 443.333 Z" style="fill: #94db77;"/><path d="M 303.333 466.667 H 326.667 V 490 H 303.333 V 466.667 Z" style="fill: #94db77;"/><path d="M 303.333 490 H 326.667 V 513.333 H 303.333 V 490 Z" style="fill: #94db77;"/><path d="M 303.333 513.333 H 326.667 V 536.667 H 303.333 V 513.333 Z" style="fill: #94db77;"/><path d="M 303.333 536.667 H 326.667 V 560 H 303.333 V 536.667 Z" style="fill: #94db77;"/><path d="M 326.667 0 H 350 V 23.333 H 326.667 V 0 Z" style="fill: #94db77;"/><path d="M 326.667 23.333 H 350 V 46.667 H 326.667 V 23.333 Z" style="fill: #94db77;"/><path d="M 326.667 46.667 H 350 V 70 H 326.667 V 46.667 Z" style="fill: #94db77;"/><path d="M 326.667 70 H 350 V 93.333 H 326.667 V 70 Z" style="fill: #94db77;"/><path d="M 326.667 93.333 H 350 V 116.667 H 326.667 V 93.333 Z" style="fill: #4aad20;"/><path d="M 326.667 116.667 H 350 V 140 H 326.667 V 116.667 Z" style="fill: #4aad20;"/><path d="M 326.667 140 H 350 V 163.333 H 326.667 V 140 Z" style="fill: #4aad20;"/><path d="M 326.667 163.333 H 350 V 186.667 H 326.667 V 163.333 Z" style="fill: #4aad20;"/><path d="M 326.667 186.667 H 350 V 210 H 326.667 V 186.667 Z" style="fill: #e9f3e4;"/><path d="M 326.667 210 H 350 V 233.333 H 326.667 V 210 Z" style="fill: #4aad20;"/><path d="M 326.667 233.333 H 350 V 256.667 H 326.667 V 233.333 Z" style="fill: #4aad20;"/><path d="M 326.667 256.667 H 350 V 280 H 326.667 V 256.667 Z" style="fill: #4aad20;"/><path d="M 326.667 280 H 350 V 303.333 H 326.667 V 280 Z" style="fill: #4aad20;"/><path d="M 326.667 303.333 H 350 V 326.667 H 326.667 V 303.333 Z" style="fill: #94db77;"/><path d="M 326.667 326.667 H 350 V 350 H 326.667 V 326.667 Z" style="fill: #94db77;"/><path d="M 326.667 350 H 350 V 373.333 H 326.667 V 350 Z" style="fill: #94db77;"/><path d="M 326.667 373.333 H 350 V 396.667 H 326.667 V 373.333 Z" style="fill: #94db77;"/><path d="M 326.667 396.667 H 350 V 420 H 326.667 V 396.667 Z" style="fill: #94db77;"/><path d="M 326.667 420 H 350 V 443.333 H 326.667 V 420 Z" style="fill: #94db77;"/><path d="M 326.667 443.333 H 350 V 466.667 H 326.667 V 443.333 Z" style="fill: #94db77;"/><path d="M 326.667 466.667 H 350 V 490 H 326.667 V 466.667 Z" style="fill: #94db77;"/><path d="M 326.667 490 H 350 V 513.333 H 326.667 V 490 Z" style="fill: #94db77;"/><path d="M 326.667 513.333 H 350 V 536.667 H 326.667 V 513.333 Z" style="fill: #94db77;"/><path d="M 326.667 536.667 H 350 V 560 H 326.667 V 536.667 Z" style="fill: #94db77;"/><path d="M 350 0 H 373.333 V 23.333 H 350 V 0 Z" style="fill: #94db77;"/><path d="M 350 23.333 H 373.333 V 46.667 H 350 V 23.333 Z" style="fill: #94db77;"/><path d="M 350 46.667 H 373.333 V 70 H 350 V 46.667 Z" style="fill: #94db77;"/><path d="M 350 70 H 373.333 V 93.333 H 350 V 70 Z" style="fill: #4aad20;"/><path d="M 350 93.333 H 373.333 V 116.667 H 350 V 93.333 Z" style="fill: #4aad20;"/><path d="M 350 116.667 H 373.333 V 140 H 350 V 116.667 Z" style="fill: #4aad20;"/><path d="M 350 140 H 373.333 V 163.333 H 350 V 140 Z" style="fill: #e9f3e4;"/><path d="M 350 163.333 H 373.333 V 186.667 H 350 V 163.333 Z" style="fill: #4aad20;"/><path d="M 350 186.667 H 373.333 V 210 H 350 V 186.667 Z" style="fill: #4aad20;"/><path d="M 350 210 H 373.333 V 233.333 H 350 V 210 Z" style="fill: #4aad20;"/><path d="M 350 233.333 H 373.333 V 256.667 H 350 V 233.333 Z" style="fill: #4aad20;"/><path d="M 350 256.667 H 373.333 V 280 H 350 V 256.667 Z" style="fill: #e9f3e4;"/><path d="M 350 280 H 373.333 V 303.333 H 350 V 280 Z" style="fill: #4aad20;"/><path d="M 350 303.333 H 373.333 V 326.667 H 350 V 303.333 Z" style="fill: #4aad20;"/><path d="M 350 326.667 H 373.333 V 350 H 350 V 326.667 Z" style="fill: #94db77;"/><path d="M 350 350 H 373.333 V 373.333 H 350 V 350 Z" style="fill: #94db77;"/><path d="M 350 373.333 H 373.333 V 396.667 H 350 V 373.333 Z" style="fill: #94db77;"/><path d="M 350 396.667 H 373.333 V 420 H 350 V 396.667 Z" style="fill: #94db77;"/><path d="M 350 420 H 373.333 V 443.333 H 350 V 420 Z" style="fill: #94db77;"/><path d="M 350 443.333 H 373.333 V 466.667 H 350 V 443.333 Z" style="fill: #94db77;"/><path d="M 350 466.667 H 373.333 V 490 H 350 V 466.667 Z" style="fill: #94db77;"/><path d="M 350 490 H 373.333 V 513.333 H 350 V 490 Z" style="fill: #94db77;"/><path d="M 350 513.333 H 373.333 V 536.667 H 350 V 513.333 Z" style="fill: #94db77;"/><path d="M 350 536.667 H 373.333 V 560 H 350 V 536.667 Z" style="fill: #94db77;"/><path d="M 373.333 0 H 396.667 V 23.333 H 373.333 V 0 Z" style="fill: #94db77;"/><path d="M 373.333 23.333 H 396.667 V 46.667 H 373.333 V 23.333 Z" style="fill: #94db77;"/><path d="M 373.333 46.667 H 396.667 V 70 H 373.333 V 46.667 Z" style="fill: #94db77;"/><path d="M 373.333 70 H 396.667 V 93.333 H 373.333 V 70 Z" style="fill: #4aad20;"/><path d="M 373.333 93.333 H 396.667 V 116.667 H 373.333 V 93.333 Z" style="fill: #4aad20;"/><path d="M 373.333 116.667 H 396.667 V 140 H 373.333 V 116.667 Z" style="fill: #e9f3e4;"/><path d="M 373.333 140 H 396.667 V 163.333 H 373.333 V 140 Z" style="fill: #4aad20;"/><path d="M 373.333 163.333 H 396.667 V 186.667 H 373.333 V 163.333 Z" style="fill: #e9f3e4;"/><path d="M 373.333 186.667 H 396.667 V 210 H 373.333 V 186.667 Z" style="fill: #e9f3e4;"/><path d="M 373.333 210 H 396.667 V 233.333 H 373.333 V 210 Z" style="fill: #4aad20;"/><path d="M 373.333 233.333 H 396.667 V 256.667 H 373.333 V 233.333 Z" style="fill: #4aad20;"/><path d="M 373.333 256.667 H 396.667 V 280 H 373.333 V 256.667 Z" style="fill: #e9f3e4;"/><path d="M 373.333 280 H 396.667 V 303.333 H 373.333 V 280 Z" style="fill: #4aad20;"/><path d="M 373.333 303.333 H 396.667 V 326.667 H 373.333 V 303.333 Z" style="fill: #4aad20;"/><path d="M 373.333 326.667 H 396.667 V 350 H 373.333 V 326.667 Z" style="fill: #94db77;"/><path d="M 373.333 350 H 396.667 V 373.333 H 373.333 V 350 Z" style="fill: #94db77;"/><path d="M 373.333 373.333 H 396.667 V 396.667 H 373.333 V 373.333 Z" style="fill: #94db77;"/><path d="M 373.333 396.667 H 396.667 V 420 H 373.333 V 396.667 Z" style="fill: #94db77;"/><path d="M 373.333 420 H 396.667 V 443.333 H 373.333 V 420 Z" style="fill: #94db77;"/><path d="M 373.333 443.333 H 396.667 V 466.667 H 373.333 V 443.333 Z" style="fill: #94db77;"/><path d="M 373.333 466.667 H 396.667 V 490 H 373.333 V 466.667 Z" style="fill: #94db77;"/><path d="M 373.333 490 H 396.667 V 513.333 H 373.333 V 490 Z" style="fill: #94db77;"/><path d="M 373.333 513.333 H 396.667 V 536.667 H 373.333 V 513.333 Z" style="fill: #94db77;"/><path d="M 373.333 536.667 H 396.667 V 560 H 373.333 V 536.667 Z" style="fill: #94db77;"/><path d="M 396.667 0 H 420 V 23.333 H 396.667 V 0 Z" style="fill: #94db77;"/><path d="M 396.667 23.333 H 420 V 46.667 H 396.667 V 23.333 Z" style="fill: #94db77;"/><path d="M 396.667 46.667 H 420 V 70 H 396.667 V 46.667 Z" style="fill: #94db77;"/><path d="M 396.667 70 H 420 V 93.333 H 396.667 V 70 Z" style="fill: #4aad20;"/><path d="M 396.667 93.333 H 420 V 116.667 H 396.667 V 93.333 Z" style="fill: #4aad20;"/><path d="M 396.667 116.667 H 420 V 140 H 396.667 V 116.667 Z" style="fill: #e9f3e4;"/><path d="M 396.667 140 H 420 V 163.333 H 396.667 V 140 Z" style="fill: #4aad20;"/><path d="M 396.667 163.333 H 420 V 186.667 H 396.667 V 163.333 Z" style="fill: #4aad20;"/><path d="M 396.667 186.667 H 420 V 210 H 396.667 V 186.667 Z" style="fill: #4aad20;"/><path d="M 396.667 210 H 420 V 233.333 H 396.667 V 210 Z" style="fill: #e9f3e4;"/><path d="M 396.667 233.333 H 420 V 256.667 H 396.667 V 233.333 Z" style="fill: #4aad20;"/><path d="M 396.667 256.667 H 420 V 280 H 396.667 V 256.667 Z" style="fill: #e9f3e4;"/><path d="M 396.667 280 H 420 V 303.333 H 396.667 V 280 Z" style="fill: #4aad20;"/><path d="M 396.667 303.333 H 420 V 326.667 H 396.667 V 303.333 Z" style="fill: #4aad20;"/><path d="M 396.667 326.667 H 420 V 350 H 396.667 V 326.667 Z" style="fill: #94db77;"/><path d="M 396.667 350 H 420 V 373.333 H 396.667 V 350 Z" style="fill: #94db77;"/><path d="M 396.667 373.333 H 420 V 396.667 H 396.667 V 373.333 Z" style="fill: #94db77;"/><path d="M 396.667 396.667 H 420 V 420 H 396.667 V 396.667 Z" style="fill: #94db77;"/><path d="M 396.667 420 H 420 V 443.333 H 396.667 V 420 Z" style="fill: #94db77;"/><path d="M 396.667 443.333 H 420 V 466.667 H 396.667 V 443.333 Z" style="fill: #94db77;"/><path d="M 396.667 466.667 H 420 V 490 H 396.667 V 466.667 Z" style="fill: #94db77;"/><path d="M 396.667 490 H 420 V 513.333 H 396.667 V 490 Z" style="fill: #94db77;"/><path d="M 396.667 513.333 H 420 V 536.667 H 396.667 V 513.333 Z" style="fill: #94db77;"/><path d="M 396.667 536.667 H 420 V 560 H 396.667 V 536.667 Z" style="fill: #94db77;"/><path d="M 420 0 H 443.333 V 23.333 H 420 V 0 Z" style="fill: #94db77;"/><path d="M 420 23.333 H 443.333 V 46.667 H 420 V 23.333 Z" style="fill: #94db77;"/><path d="M 420 46.667 H 443.333 V 70 H 420 V 46.667 Z" style="fill: #94db77;"/><path d="M 420 70 H 443.333 V 93.333 H 420 V 70 Z" style="fill: #4aad20;"/><path d="M 420 93.333 H 443.333 V 116.667 H 420 V 93.333 Z" style="fill: #4aad20;"/><path d="M 420 116.667 H 443.333 V 140 H 420 V 116.667 Z" style="fill: #e9f3e4;"/><path d="M 420 140 H 443.333 V 163.333 H 420 V 140 Z" style="fill: #4aad20;"/><path d="M 420 163.333 H 443.333 V 186.667 H 420 V 163.333 Z" style="fill: #4aad20;"/><path d="M 420 186.667 H 443.333 V 210 H 420 V 186.667 Z" style="fill: #4aad20;"/><path d="M 420 210 H 443.333 V 233.333 H 420 V 210 Z" style="fill: #e9f3e4;"/><path d="M 420 233.333 H 443.333 V 256.667 H 420 V 233.333 Z" style="fill: #4aad20;"/><path d="M 420 256.667 H 443.333 V 280 H 420 V 256.667 Z" style="fill: #e9f3e4;"/><path d="M 420 280 H 443.333 V 303.333 H 420 V 280 Z" style="fill: #4aad20;"/><path d="M 420 303.333 H 443.333 V 326.667 H 420 V 303.333 Z" style="fill: #4aad20;"/><path d="M 420 326.667 H 443.333 V 350 H 420 V 326.667 Z" style="fill: #94db77;"/><path d="M 420 350 H 443.333 V 373.333 H 420 V 350 Z" style="fill: #94db77;"/><path d="M 420 373.333 H 443.333 V 396.667 H 420 V 373.333 Z" style="fill: #94db77;"/><path d="M 420 396.667 H 443.333 V 420 H 420 V 396.667 Z" style="fill: #94db77;"/><path d="M 420 420 H 443.333 V 443.333 H 420 V 420 Z" style="fill: #94db77;"/><path d="M 420 443.333 H 443.333 V 466.667 H 420 V 443.333 Z" style="fill: #94db77;"/><path d="M 420 466.667 H 443.333 V 490 H 420 V 466.667 Z" style="fill: #94db77;"/><path d="M 420 490 H 443.333 V 513.333 H 420 V 490 Z" style="fill: #94db77;"/><path d="M 420 513.333 H 443.333 V 536.667 H 420 V 513.333 Z" style="fill: #94db77;"/><path d="M 420 536.667 H 443.333 V 560 H 420 V 536.667 Z" style="fill: #94db77;"/><path d="M 443.333 0 H 466.667 V 23.333 H 443.333 V 0 Z" style="fill: #94db77;"/><path d="M 443.333 23.333 H 466.667 V 46.667 H 443.333 V 23.333 Z" style="fill: #94db77;"/><path d="M 443.333 46.667 H 466.667 V 70 H 443.333 V 46.667 Z" style="fill: #94db77;"/><path d="M 443.333 70 H 466.667 V 93.333 H 443.333 V 70 Z" style="fill: #4aad20;"/><path d="M 443.333 93.333 H 466.667 V 116.667 H 443.333 V 93.333 Z" style="fill: #4aad20;"/><path d="M 443.333 116.667 H 466.667 V 140 H 443.333 V 116.667 Z" style="fill: #e9f3e4;"/><path d="M 443.333 140 H 466.667 V 163.333 H 443.333 V 140 Z" style="fill: #4aad20;"/><path d="M 443.333 163.333 H 466.667 V 186.667 H 443.333 V 163.333 Z" style="fill: #4aad20;"/><path d="M 443.333 186.667 H 466.667 V 210 H 443.333 V 186.667 Z" style="fill: #4aad20;"/><path d="M 443.333 210 H 466.667 V 233.333 H 443.333 V 210 Z" style="fill: #e9f3e4;"/><path d="M 443.333 233.333 H 466.667 V 256.667 H 443.333 V 233.333 Z" style="fill: #4aad20;"/><path d="M 443.333 256.667 H 466.667 V 280 H 443.333 V 256.667 Z" style="fill: #e9f3e4;"/><path d="M 443.333 280 H 466.667 V 303.333 H 443.333 V 280 Z" style="fill: #4aad20;"/><path d="M 443.333 303.333 H 466.667 V 326.667 H 443.333 V 303.333 Z" style="fill: #4aad20;"/><path d="M 443.333 326.667 H 466.667 V 350 H 443.333 V 326.667 Z" style="fill: #94db77;"/><path d="M 443.333 350 H 466.667 V 373.333 H 443.333 V 350 Z" style="fill: #94db77;"/><path d="M 443.333 373.333 H 466.667 V 396.667 H 443.333 V 373.333 Z" style="fill: #94db77;"/><path d="M 443.333 396.667 H 466.667 V 420 H 443.333 V 396.667 Z" style="fill: #94db77;"/><path d="M 443.333 420 H 466.667 V 443.333 H 443.333 V 420 Z" style="fill: #94db77;"/><path d="M 443.333 443.333 H 466.667 V 466.667 H 443.333 V 443.333 Z" style="fill: #94db77;"/><path d="M 443.333 466.667 H 466.667 V 490 H 443.333 V 466.667 Z" style="fill: #94db77;"/><path d="M 443.333 490 H 466.667 V 513.333 H 443.333 V 490 Z" style="fill: #94db77;"/><path d="M 443.333 513.333 H 466.667 V 536.667 H 443.333 V 513.333 Z" style="fill: #94db77;"/><path d="M 443.333 536.667 H 466.667 V 560 H 443.333 V 536.667 Z" style="fill: #94db77;"/><path d="M 466.667 0 H 490 V 23.333 H 466.667 V 0 Z" style="fill: #94db77;"/><path d="M 466.667 23.333 H 490 V 46.667 H 466.667 V 23.333 Z" style="fill: #94db77;"/><path d="M 466.667 46.667 H 490 V 70 H 466.667 V 46.667 Z" style="fill: #94db77;"/><path d="M 466.667 70 H 490 V 93.333 H 466.667 V 70 Z" style="fill: #4aad20;"/><path d="M 466.667 93.333 H 490 V 116.667 H 466.667 V 93.333 Z" style="fill: #4aad20;"/><path d="M 466.667 116.667 H 490 V 140 H 466.667 V 116.667 Z" style="fill: #4aad20;"/><path d="M 466.667 140 H 490 V 163.333 H 466.667 V 140 Z" style="fill: #e9f3e4;"/><path d="M 466.667 163.333 H 490 V 186.667 H 466.667 V 163.333 Z" style="fill: #4aad20;"/><path d="M 466.667 186.667 H 490 V 210 H 466.667 V 186.667 Z" style="fill: #4aad20;"/><path d="M 466.667 210 H 490 V 233.333 H 466.667 V 210 Z" style="fill: #4aad20;"/><path d="M 466.667 233.333 H 490 V 256.667 H 466.667 V 233.333 Z" style="fill: #e9f3e4;"/><path d="M 466.667 256.667 H 490 V 280 H 466.667 V 256.667 Z" style="fill: #4aad20;"/><path d="M 466.667 280 H 490 V 303.333 H 466.667 V 280 Z" style="fill: #4aad20;"/><path d="M 466.667 303.333 H 490 V 326.667 H 466.667 V 303.333 Z" style="fill: #4aad20;"/><path d="M 466.667 326.667 H 490 V 350 H 466.667 V 326.667 Z" style="fill: #94db77;"/><path d="M 466.667 350 H 490 V 373.333 H 466.667 V 350 Z" style="fill: #94db77;"/><path d="M 466.667 373.333 H 490 V 396.667 H 466.667 V 373.333 Z" style="fill: #94db77;"/><path d="M 466.667 396.667 H 490 V 420 H 466.667 V 396.667 Z" style="fill: #94db77;"/><path d="M 466.667 420 H 490 V 443.333 H 466.667 V 420 Z" style="fill: #94db77;"/><path d="M 466.667 443.333 H 490 V 466.667 H 466.667 V 443.333 Z" style="fill: #94db77;"/><path d="M 466.667 466.667 H 490 V 490 H 466.667 V 466.667 Z" style="fill: #94db77;"/><path d="M 466.667 490 H 490 V 513.333 H 466.667 V 490 Z" style="fill: #94db77;"/><path d="M 466.667 513.333 H 490 V 536.667 H 466.667 V 513.333 Z" style="fill: #94db77;"/><path d="M 466.667 536.667 H 490 V 560 H 466.667 V 536.667 Z" style="fill: #94db77;"/><path d="M 490 0 H 513.333 V 23.333 H 490 V 0 Z" style="fill: #94db77;"/><path d="M 490 23.333 H 513.333 V 46.667 H 490 V 23.333 Z" style="fill: #94db77;"/><path d="M 490 46.667 H 513.333 V 70 H 490 V 46.667 Z" style="fill: #94db77;"/><path d="M 490 70 H 513.333 V 93.333 H 490 V 70 Z" style="fill: #94db77;"/><path d="M 490 93.333 H 513.333 V 116.667 H 490 V 93.333 Z" style="fill: #4aad20;"/><path d="M 490 116.667 H 513.333 V 140 H 490 V 116.667 Z" style="fill: #4aad20;"/><path d="M 490 140 H 513.333 V 163.333 H 490 V 140 Z" style="fill: #4aad20;"/><path d="M 490 163.333 H 513.333 V 186.667 H 490 V 163.333 Z" style="fill: #4aad20;"/><path d="M 490 186.667 H 513.333 V 210 H 490 V 186.667 Z" style="fill: #4aad20;"/><path d="M 490 210 H 513.333 V 233.333 H 490 V 210 Z" style="fill: #4aad20;"/><path d="M 490 233.333 H 513.333 V 256.667 H 490 V 233.333 Z" style="fill: #4aad20;"/><path d="M 490 256.667 H 513.333 V 280 H 490 V 256.667 Z" style="fill: #4aad20;"/><path d="M 490 280 H 513.333 V 303.333 H 490 V 280 Z" style="fill: #4aad20;"/><path d="M 490 303.333 H 513.333 V 326.667 H 490 V 303.333 Z" style="fill: #94db77;"/><path d="M 490 326.667 H 513.333 V 350 H 490 V 326.667 Z" style="fill: #94db77;"/><path d="M 490 350 H 513.333 V 373.333 H 490 V 350 Z" style="fill: #94db77;"/><path d="M 490 373.333 H 513.333 V 396.667 H 490 V 373.333 Z" style="fill: #94db77;"/><path d="M 490 396.667 H 513.333 V 420 H 490 V 396.667 Z" style="fill: #94db77;"/><path d="M 490 420 H 513.333 V 443.333 H 490 V 420 Z" style="fill: #94db77;"/><path d="M 490 443.333 H 513.333 V 466.667 H 490 V 443.333 Z" style="fill: #94db77;"/><path d="M 490 466.667 H 513.333 V 490 H 490 V 466.667 Z" style="fill: #94db77;"/><path d="M 490 490 H 513.333 V 513.333 H 490 V 490 Z" style="fill: #94db77;"/><path d="M 490 513.333 H 513.333 V 536.667 H 490 V 513.333 Z" style="fill: #94db77;"/><path d="M 490 536.667 H 513.333 V 560 H 490 V 536.667 Z" style="fill: #94db77;"/><path d="M 513.333 23.333 H 536.667 V 46.667 H 513.333 V 23.333 Z" style="fill: #94db77;"/><path d="M 513.333 46.667 H 536.667 V 70 H 513.333 V 46.667 Z" style="fill: #94db77;"/><path d="M 513.333 70 H 536.667 V 93.333 H 513.333 V 70 Z" style="fill: #94db77;"/><path d="M 513.333 93.333 H 536.667 V 116.667 H 513.333 V 93.333 Z" style="fill: #94db77;"/><path d="M 513.333 116.667 H 536.667 V 140 H 513.333 V 116.667 Z" style="fill: #4aad20;"/><path d="M 513.333 140 H 536.667 V 163.333 H 513.333 V 140 Z" style="fill: #4aad20;"/><path d="M 513.333 163.333 H 536.667 V 186.667 H 513.333 V 163.333 Z" style="fill: #4aad20;"/><path d="M 513.333 186.667 H 536.667 V 210 H 513.333 V 186.667 Z" style="fill: #4aad20;"/><path d="M 513.333 210 H 536.667 V 233.333 H 513.333 V 210 Z" style="fill: #4aad20;"/><path d="M 513.333 233.333 H 536.667 V 256.667 H 513.333 V 233.333 Z" style="fill: #4aad20;"/><path d="M 513.333 256.667 H 536.667 V 280 H 513.333 V 256.667 Z" style="fill: #4aad20;"/><path d="M 513.333 280 H 536.667 V 303.333 H 513.333 V 280 Z" style="fill: #94db77;"/><path d="M 513.333 303.333 H 536.667 V 326.667 H 513.333 V 303.333 Z" style="fill: #94db77;"/><path d="M 513.333 326.667 H 536.667 V 350 H 513.333 V 326.667 Z" style="fill: #94db77;"/><path d="M 513.333 350 H 536.667 V 373.333 H 513.333 V 350 Z" style="fill: #94db77;"/><path d="M 513.333 373.333 H 536.667 V 396.667 H 513.333 V 373.333 Z" style="fill: #94db77;"/><path d="M 513.333 396.667 H 536.667 V 420 H 513.333 V 396.667 Z" style="fill: #94db77;"/><path d="M 513.333 420 H 536.667 V 443.333 H 513.333 V 420 Z" style="fill: #94db77;"/><path d="M 513.333 443.333 H 536.667 V 466.667 H 513.333 V 443.333 Z" style="fill: #94db77;"/><path d="M 513.333 466.667 H 536.667 V 490 H 513.333 V 466.667 Z" style="fill: #94db77;"/><path d="M 513.333 490 H 536.667 V 513.333 H 513.333 V 490 Z" style="fill: #94db77;"/><path d="M 513.333 513.333 H 536.667 V 536.667 H 513.333 V 513.333 Z" style="fill: #94db77;"/><path d="M 536.667 46.667 H 560 V 70 H 536.667 V 46.667 Z" style="fill: #94db77;"/><path d="M 536.667 70 H 560 V 93.333 H 536.667 V 70 Z" style="fill: #94db77;"/><path d="M 536.667 93.333 H 560 V 116.667 H 536.667 V 93.333 Z" style="fill: #94db77;"/><path d="M 536.667 116.667 H 560 V 140 H 536.667 V 116.667 Z" style="fill: #94db77;"/><path d="M 536.667 140 H 560 V 163.333 H 536.667 V 140 Z" style="fill: #91d973;"/><path d="M 536.667 163.333 H 560 V 186.667 H 536.667 V 163.333 Z" style="fill: #4aad20;"/><path d="M 536.667 186.667 H 560 V 210 H 536.667 V 186.667 Z" style="fill: #4aad20;"/><path d="M 536.667 210 H 560 V 233.333 H 536.667 V 210 Z" style="fill: #4aad20;"/><path d="M 536.667 233.333 H 560 V 256.667 H 536.667 V 233.333 Z" style="fill: #8ed770;"/><path d="M 536.667 256.667 H 560 V 280 H 536.667 V 256.667 Z" style="fill: #94db77;"/><path d="M 536.667 280 H 560 V 303.333 H 536.667 V 280 Z" style="fill: #94db77;"/><path d="M 536.667 303.333 H 560 V 326.667 H 536.667 V 303.333 Z" style="fill: #94db77;"/><path d="M 536.667 326.667 H 560 V 350 H 536.667 V 326.667 Z" style="fill: #94db77;"/><path d="M 536.667 350 H 560 V 373.333 H 536.667 V 350 Z" style="fill: #94db77;"/><path d="M 536.667 373.333 H 560 V 396.667 H 536.667 V 373.333 Z" style="fill: #94db77;"/><path d="M 536.667 396.667 H 560 V 420 H 536.667 V 396.667 Z" style="fill: #94db77;"/><path d="M 536.667 420 H 560 V 443.333 H 536.667 V 420 Z" style="fill: #94db77;"/><path d="M 536.667 443.333 H 560 V 466.667 H 536.667 V 443.333 Z" style="fill: #94db77;"/><path d="M 536.667 466.667 H 560 V 490 H 536.667 V 466.667 Z" style="fill: #94db77;"/><path d="M 536.667 490 H 560 V 513.333 H 536.667 V 490 Z" style="fill: #94db77;"/></g></svg>