<svg xmlns="http://www.w3.org/2000/svg" viewBox="0 0 245.94 224.56"><defs><style>.cls-1{fill:#59bd4d;}.cls-2{fill:#fecc00;}.cls-3{fill:#f90;}.cls-4{fill:#37a7e7;}.cls-5{fill:#fa6632;}</style></defs><g id="Capa_2" data-name="Capa 2"><g id="logos"><rect class="cls-1" x="235.25" y="203.17" width="10.69" height="10.69"/><rect class="cls-1" x="224.55" y="203.17" width="10.7" height="10.69"/><rect class="cls-1" x="213.86" y="203.17" width="10.69" height="10.69"/><rect class="cls-1" x="203.17" y="192.48" width="10.69" height="10.69"/><rect class="cls-1" x="192.47" y="192.48" width="10.7" height="10.69"/><rect class="cls-2" x="181.78" y="213.86" width="10.69" height="10.7"/><rect class="cls-1" x="181.78" y="192.48" width="10.69" height="10.69"/><rect class="cls-1" x="181.78" y="181.78" width="10.69" height="10.7"/><rect class="cls-2" x="171.09" y="213.86" width="10.69" height="10.7"/><rect class="cls-2" x="171.09" y="203.17" width="10.69" height="10.69"/><rect class="cls-1" x="171.09" y="181.78" width="10.69" height="10.7"/><rect class="cls-2" x="160.4" y="203.17" width="10.69" height="10.69"/><rect class="cls-1" x="160.4" y="181.78" width="10.69" height="10.7"/><rect class="cls-1" x="160.4" y="171.09" width="10.69" height="10.69"/><rect class="cls-2" x="149.7" y="203.17" width="10.7" height="10.69"/><rect class="cls-2" x="149.7" y="192.48" width="10.7" height="10.69"/><rect class="cls-1" x="149.7" y="171.09" width="10.7" height="10.69"/><rect class="cls-2" x="139.01" y="192.48" width="10.69" height="10.69"/><rect class="cls-2" x="139.01" y="181.78" width="10.69" height="10.7"/><rect class="cls-1" x="139.01" y="171.09" width="10.69" height="10.69"/><rect class="cls-3" x="128.32" y="213.86" width="10.69" height="10.7"/><rect class="cls-2" x="128.32" y="181.78" width="10.69" height="10.7"/><rect class="cls-2" x="128.32" y="171.09" width="10.69" height="10.69"/><rect class="cls-1" x="128.32" y="160.4" width="10.69" height="10.69"/><rect class="cls-3" x="117.62" y="213.86" width="10.7" height="10.7"/><rect class="cls-3" x="117.62" y="203.17" width="10.7" height="10.69"/><rect class="cls-3" x="117.62" y="192.48" width="10.7" height="10.69"/><rect class="cls-2" x="117.62" y="171.09" width="10.7" height="10.69"/><rect class="cls-2" x="117.62" y="160.4" width="10.7" height="10.69"/><rect class="cls-3" x="106.93" y="213.86" width="10.69" height="10.7"/><rect class="cls-3" x="106.93" y="203.17" width="10.69" height="10.69"/><rect class="cls-3" x="106.93" y="192.48" width="10.69" height="10.69"/><rect class="cls-3" x="106.93" y="181.78" width="10.69" height="10.7"/><rect class="cls-3" x="106.93" y="171.09" width="10.69" height="10.69"/><rect class="cls-2" x="106.93" y="160.4" width="10.69" height="10.69"/><rect class="cls-2" x="106.93" y="149.71" width="10.69" height="10.69"/><rect class="cls-2" x="106.93" y="139.01" width="10.69" height="10.7"/><rect class="cls-4" x="106.93" width="10.69" height="10.7"/><rect class="cls-3" x="96.24" y="203.17" width="10.69" height="10.69"/><rect class="cls-3" x="96.24" y="192.48" width="10.69" height="10.69"/><rect class="cls-3" x="96.24" y="181.78" width="10.69" height="10.7"/><rect class="cls-3" x="96.24" y="171.09" width="10.69" height="10.69"/><rect class="cls-3" x="96.24" y="160.4" width="10.69" height="10.69"/><rect class="cls-3" x="96.24" y="149.71" width="10.69" height="10.69"/><rect class="cls-2" x="96.24" y="139.01" width="10.69" height="10.7"/><rect class="cls-2" x="96.24" y="128.32" width="10.69" height="10.69"/><rect class="cls-4" x="96.24" y="21.39" width="10.69" height="10.69"/><rect class="cls-4" x="96.24" y="10.7" width="10.69" height="10.69"/><rect class="cls-3" x="85.54" y="181.78" width="10.7" height="10.7"/><rect class="cls-3" x="85.54" y="171.09" width="10.7" height="10.69"/><rect class="cls-3" x="85.54" y="160.4" width="10.7" height="10.69"/><rect class="cls-3" x="85.54" y="149.71" width="10.7" height="10.69"/><rect class="cls-3" x="85.54" y="139.01" width="10.7" height="10.7"/><rect class="cls-3" x="85.54" y="128.32" width="10.7" height="10.69"/><rect class="cls-3" x="85.54" y="117.63" width="10.7" height="10.69"/><rect class="cls-3" x="85.54" y="106.93" width="10.7" height="10.7"/><rect class="cls-5" x="85.54" y="64.16" width="10.7" height="10.69"/><rect class="cls-4" x="85.54" y="42.78" width="10.7" height="10.69"/><rect class="cls-4" x="85.54" y="32.08" width="10.7" height="10.7"/><rect class="cls-4" x="85.54" y="21.39" width="10.7" height="10.69"/><rect class="cls-5" x="74.85" y="213.86" width="10.69" height="10.7"/><rect class="cls-5" x="74.85" y="203.17" width="10.69" height="10.69"/><rect class="cls-5" x="74.85" y="192.48" width="10.69" height="10.69"/><rect class="cls-5" x="74.85" y="181.78" width="10.69" height="10.7"/><rect class="cls-5" x="74.85" y="171.09" width="10.69" height="10.69"/><rect class="cls-5" x="74.85" y="160.4" width="10.69" height="10.69"/><rect class="cls-5" x="74.85" y="149.71" width="10.69" height="10.69"/><rect class="cls-5" x="74.85" y="139.01" width="10.69" height="10.7"/><rect class="cls-5" x="74.85" y="128.32" width="10.69" height="10.69"/><rect class="cls-5" x="74.85" y="117.63" width="10.69" height="10.69"/><rect class="cls-5" x="74.85" y="106.93" width="10.69" height="10.7"/><rect class="cls-5" x="74.85" y="96.24" width="10.69" height="10.69"/><rect class="cls-5" x="74.85" y="85.55" width="10.69" height="10.69"/><rect class="cls-5" x="74.85" y="74.85" width="10.69" height="10.7"/><rect class="cls-4" x="74.85" y="64.16" width="10.69" height="10.69"/><rect class="cls-4" x="74.85" y="53.47" width="10.69" height="10.69"/><rect class="cls-4" x="74.85" y="42.78" width="10.69" height="10.69"/><rect class="cls-5" x="64.16" y="213.86" width="10.69" height="10.7"/><rect class="cls-5" x="64.16" y="203.17" width="10.69" height="10.69"/><rect class="cls-5" x="64.16" y="192.48" width="10.69" height="10.69"/><rect class="cls-5" x="64.16" y="181.78" width="10.69" height="10.7"/><rect class="cls-5" x="64.16" y="171.09" width="10.69" height="10.69"/><rect class="cls-5" x="64.16" y="160.4" width="10.69" height="10.69"/><rect class="cls-5" x="64.16" y="149.71" width="10.69" height="10.69"/><rect class="cls-5" x="64.16" y="139.01" width="10.69" height="10.7"/><rect class="cls-5" x="64.16" y="128.32" width="10.69" height="10.69"/><rect class="cls-5" x="64.16" y="117.63" width="10.69" height="10.69"/><rect class="cls-4" x="64.16" y="96.24" width="10.69" height="10.69"/><rect class="cls-4" x="64.16" y="85.55" width="10.69" height="10.69"/><rect class="cls-4" x="64.16" y="74.85" width="10.69" height="10.7"/><rect class="cls-4" x="64.16" y="64.16" width="10.69" height="10.69"/><rect class="cls-4" x="64.16" y="53.47" width="10.69" height="10.69"/><rect class="cls-5" x="53.47" y="203.17" width="10.69" height="10.69"/><rect class="cls-5" x="53.47" y="192.48" width="10.69" height="10.69"/><rect class="cls-5" x="53.47" y="181.78" width="10.69" height="10.7"/><rect class="cls-5" x="53.47" y="171.09" width="10.69" height="10.69"/><rect class="cls-5" x="53.47" y="160.4" width="10.69" height="10.69"/><rect class="cls-4" x="53.47" y="139.01" width="10.69" height="10.7"/><rect class="cls-4" x="53.47" y="128.32" width="10.69" height="10.69"/><rect class="cls-4" x="53.47" y="117.63" width="10.69" height="10.69"/><rect class="cls-4" x="53.47" y="106.93" width="10.69" height="10.7"/><rect class="cls-4" x="53.47" y="96.24" width="10.69" height="10.69"/><rect class="cls-4" x="53.47" y="85.55" width="10.69" height="10.69"/><rect class="cls-4" x="53.47" y="74.85" width="10.69" height="10.7"/><rect class="cls-4" x="42.77" y="171.09" width="10.7" height="10.69"/><rect class="cls-4" x="42.77" y="160.4" width="10.7" height="10.69"/><rect class="cls-4" x="42.77" y="149.71" width="10.7" height="10.69"/><rect class="cls-4" x="42.77" y="139.01" width="10.7" height="10.7"/><rect class="cls-4" x="42.77" y="128.32" width="10.7" height="10.69"/><rect class="cls-4" x="42.77" y="117.63" width="10.7" height="10.69"/><rect class="cls-4" x="42.77" y="106.93" width="10.7" height="10.7"/><rect class="cls-4" x="42.77" y="96.24" width="10.7" height="10.69"/><rect class="cls-4" x="32.08" y="203.17" width="10.69" height="10.69"/><rect class="cls-4" x="32.08" y="192.48" width="10.69" height="10.69"/><rect class="cls-4" x="32.08" y="181.78" width="10.69" height="10.7"/><rect class="cls-4" x="32.08" y="171.09" width="10.69" height="10.69"/><rect class="cls-4" x="32.08" y="160.4" width="10.69" height="10.69"/><rect class="cls-4" x="32.08" y="149.71" width="10.69" height="10.69"/><rect class="cls-4" x="32.08" y="139.01" width="10.69" height="10.7"/><rect class="cls-4" x="32.08" y="128.32" width="10.69" height="10.69"/><rect class="cls-4" x="32.08" y="117.63" width="10.69" height="10.69"/><rect class="cls-4" x="21.39" y="203.17" width="10.69" height="10.69"/><rect class="cls-4" x="21.39" y="192.48" width="10.69" height="10.69"/><rect class="cls-4" x="21.39" y="181.78" width="10.69" height="10.7"/><rect class="cls-4" x="21.39" y="171.09" width="10.69" height="10.69"/><rect class="cls-4" x="21.39" y="160.4" width="10.69" height="10.69"/><rect class="cls-4" x="21.39" y="149.71" width="10.69" height="10.69"/><rect class="cls-4" x="21.39" y="139.01" width="10.69" height="10.7"/><rect class="cls-4" x="10.69" y="203.17" width="10.7" height="10.69"/><rect class="cls-4" x="10.69" y="192.48" width="10.7" height="10.69"/><rect class="cls-4" x="10.69" y="181.78" width="10.7" height="10.7"/><rect class="cls-4" x="10.69" y="171.09" width="10.7" height="10.69"/><rect class="cls-4" x="10.69" y="160.4" width="10.7" height="10.69"/><rect class="cls-4" y="192.48" width="10.69" height="10.69"/><rect class="cls-4" y="181.78" width="10.69" height="10.7"/></g></g></svg>