<svg xmlns="http://www.w3.org/2000/svg" viewBox="0 0 245 201.03"><defs><style>.cls-1{fill:#a1206a;}.cls-2{fill:#512d6d;}</style></defs><g id="Capa_2" data-name="Capa 2"><g id="logos"><rect class="cls-1" x="238.72" y="119.36" width="6.28" height="6.29"/><rect class="cls-1" x="238.72" y="113.08" width="6.28" height="6.28"/><rect class="cls-1" x="238.72" y="106.8" width="6.28" height="6.28"/><rect class="cls-1" x="232.44" y="119.36" width="6.28" height="6.29"/><rect class="cls-1" x="232.44" y="113.08" width="6.28" height="6.28"/><rect class="cls-1" x="232.44" y="106.8" width="6.28" height="6.28"/><rect class="cls-1" x="226.16" y="119.36" width="6.28" height="6.29"/><rect class="cls-1" x="226.16" y="113.08" width="6.28" height="6.28"/><rect class="cls-1" x="226.16" y="106.8" width="6.28" height="6.28"/><rect class="cls-1" x="219.87" y="194.75" width="6.29" height="6.28"/><rect class="cls-1" x="219.87" y="188.47" width="6.29" height="6.28"/><rect class="cls-1" x="219.87" y="182.18" width="6.29" height="6.29"/><rect class="cls-1" x="219.87" y="100.52" width="6.29" height="6.29"/><rect class="cls-1" x="213.59" y="194.75" width="6.28" height="6.28"/><rect class="cls-1" x="213.59" y="188.47" width="6.28" height="6.28"/><rect class="cls-1" x="213.59" y="182.18" width="6.28" height="6.29"/><rect class="cls-1" x="213.59" y="175.9" width="6.28" height="6.28"/><rect class="cls-1" x="213.59" y="100.52" width="6.28" height="6.29"/><rect class="cls-1" x="207.31" y="194.75" width="6.28" height="6.28"/><rect class="cls-1" x="207.31" y="188.47" width="6.28" height="6.28"/><rect class="cls-1" x="207.31" y="182.18" width="6.28" height="6.29"/><rect class="cls-1" x="207.31" y="169.62" width="6.28" height="6.28"/><rect class="cls-1" x="207.31" y="163.34" width="6.28" height="6.29"/><rect class="cls-1" x="207.31" y="157.06" width="6.28" height="6.28"/><rect class="cls-1" x="207.31" y="94.24" width="6.28" height="6.28"/><rect class="cls-1" x="201.03" y="150.78" width="6.29" height="6.28"/><rect class="cls-1" x="201.03" y="144.49" width="6.29" height="6.29"/><rect class="cls-1" x="201.03" y="138.21" width="6.29" height="6.28"/><rect class="cls-1" x="201.03" y="87.95" width="6.29" height="6.28"/><rect class="cls-1" x="201.03" y="37.69" width="6.29" height="6.29"/><rect class="cls-1" x="194.75" y="131.93" width="6.28" height="6.28"/><rect class="cls-1" x="194.75" y="125.65" width="6.28" height="6.28"/><rect class="cls-1" x="194.75" y="87.95" width="6.28" height="6.28"/><rect class="cls-1" x="194.75" y="37.69" width="6.28" height="6.29"/><rect class="cls-1" x="188.46" y="119.36" width="6.28" height="6.29"/><rect class="cls-1" x="188.46" y="113.08" width="6.28" height="6.28"/><rect class="cls-1" x="188.46" y="81.67" width="6.28" height="6.29"/><rect class="cls-1" x="188.46" y="37.69" width="6.28" height="6.29"/><rect class="cls-1" x="182.18" y="106.8" width="6.29" height="6.28"/><rect class="cls-1" x="182.18" y="100.52" width="6.29" height="6.29"/><rect class="cls-1" x="182.18" y="81.67" width="6.29" height="6.29"/><rect class="cls-1" x="182.18" y="37.69" width="6.29" height="6.29"/><rect class="cls-1" x="175.9" y="94.24" width="6.28" height="6.28"/><rect class="cls-1" x="175.9" y="75.39" width="6.28" height="6.28"/><rect class="cls-1" x="175.9" y="37.69" width="6.28" height="6.29"/><rect class="cls-1" x="169.62" y="87.95" width="6.28" height="6.28"/><rect class="cls-1" x="169.62" y="81.67" width="6.28" height="6.29"/><rect class="cls-1" x="169.62" y="69.11" width="6.28" height="6.28"/><rect class="cls-1" x="169.62" y="37.69" width="6.28" height="6.29"/><rect class="cls-1" x="163.33" y="75.39" width="6.29" height="6.28"/><rect class="cls-1" x="163.33" y="69.11" width="6.29" height="6.28"/><rect class="cls-1" x="163.33" y="43.98" width="6.29" height="6.28"/><rect class="cls-1" x="157.05" y="69.11" width="6.28" height="6.28"/><rect class="cls-1" x="157.05" y="62.83" width="6.28" height="6.28"/><rect class="cls-1" x="157.05" y="43.98" width="6.28" height="6.28"/><rect class="cls-1" x="150.77" y="62.83" width="6.28" height="6.28"/><rect class="cls-1" x="150.77" y="56.54" width="6.28" height="6.29"/><rect class="cls-1" x="150.77" y="43.98" width="6.28" height="6.28"/><rect class="cls-1" x="144.49" y="62.83" width="6.28" height="6.28"/><rect class="cls-1" x="144.49" y="56.54" width="6.28" height="6.29"/><rect class="cls-1" x="144.49" y="50.26" width="6.28" height="6.28"/><rect class="cls-1" x="144.49" y="43.98" width="6.28" height="6.28"/><rect class="cls-1" x="138.2" y="62.83" width="6.29" height="6.28"/><rect class="cls-1" x="138.2" y="50.26" width="6.29" height="6.28"/><rect class="cls-1" x="138.2" y="43.98" width="6.29" height="6.28"/><rect class="cls-1" x="131.92" y="62.83" width="6.28" height="6.28"/><rect class="cls-1" x="131.92" y="43.98" width="6.28" height="6.28"/><rect class="cls-1" x="131.92" y="37.69" width="6.28" height="6.29"/><rect class="cls-1" x="125.64" y="56.54" width="6.28" height="6.29"/><rect class="cls-1" x="125.64" y="43.98" width="6.28" height="6.28"/><rect class="cls-1" x="125.64" y="37.69" width="6.28" height="6.29"/><rect class="cls-1" x="125.64" y="31.41" width="6.28" height="6.28"/><rect class="cls-2" x="125.64" width="6.28" height="6.29"/><rect class="cls-1" x="119.36" y="56.54" width="6.29" height="6.29"/><rect class="cls-1" x="119.36" y="43.98" width="6.29" height="6.28"/><rect class="cls-1" x="119.36" y="31.41" width="6.29" height="6.28"/><rect class="cls-1" x="119.36" y="25.13" width="6.29" height="6.28"/><rect class="cls-2" x="119.36" y="6.29" width="6.29" height="6.28"/><rect class="cls-1" x="113.08" y="50.26" width="6.28" height="6.28"/><rect class="cls-1" x="113.08" y="25.13" width="6.28" height="6.28"/><rect class="cls-1" x="113.08" y="18.85" width="6.28" height="6.29"/><rect class="cls-2" x="113.08" y="12.57" width="6.28" height="6.28"/><rect class="cls-1" x="106.8" y="56.54" width="6.28" height="6.29"/><rect class="cls-1" x="106.8" y="50.26" width="6.28" height="6.28"/><rect class="cls-1" x="106.8" y="18.85" width="6.28" height="6.29"/><rect class="cls-1" x="106.8" y="12.57" width="6.28" height="6.28"/><rect class="cls-1" x="100.51" y="56.54" width="6.29" height="6.29"/><rect class="cls-1" x="100.51" y="50.26" width="6.29" height="6.28"/><rect class="cls-2" x="100.51" y="37.69" width="6.29" height="6.29"/><rect class="cls-2" x="100.51" y="31.41" width="6.29" height="6.28"/><rect class="cls-2" x="100.51" y="25.13" width="6.29" height="6.28"/><rect class="cls-1" x="100.51" y="18.85" width="6.29" height="6.29"/><rect class="cls-1" x="100.51" y="12.57" width="6.29" height="6.28"/><rect class="cls-1" x="94.23" y="62.83" width="6.28" height="6.28"/><rect class="cls-1" x="94.23" y="50.26" width="6.28" height="6.28"/><rect class="cls-2" x="94.23" y="37.69" width="6.28" height="6.29"/><rect class="cls-2" x="94.23" y="31.41" width="6.28" height="6.28"/><rect class="cls-2" x="94.23" y="25.13" width="6.28" height="6.28"/><rect class="cls-1" x="94.23" y="12.57" width="6.28" height="6.28"/><rect class="cls-1" x="87.95" y="62.83" width="6.28" height="6.28"/><rect class="cls-1" x="87.95" y="50.26" width="6.28" height="6.28"/><rect class="cls-2" x="87.95" y="37.69" width="6.28" height="6.29"/><rect class="cls-2" x="87.95" y="31.41" width="6.28" height="6.28"/><rect class="cls-2" x="87.95" y="25.13" width="6.28" height="6.28"/><rect class="cls-1" x="81.67" y="69.11" width="6.28" height="6.28"/><rect class="cls-1" x="81.67" y="62.83" width="6.28" height="6.28"/><rect class="cls-1" x="81.67" y="50.26" width="6.28" height="6.28"/><rect class="cls-2" x="81.67" y="43.98" width="6.28" height="6.28"/><rect class="cls-1" x="75.38" y="69.11" width="6.29" height="6.28"/><rect class="cls-2" x="75.38" y="56.54" width="6.29" height="6.29"/><rect class="cls-1" x="75.38" y="50.26" width="6.29" height="6.28"/><rect class="cls-1" x="69.1" y="69.11" width="6.28" height="6.28"/><rect class="cls-2" x="69.1" y="62.83" width="6.28" height="6.28"/><rect class="cls-1" x="69.1" y="50.26" width="6.28" height="6.28"/><rect class="cls-1" x="69.1" y="43.98" width="6.28" height="6.28"/><rect class="cls-2" x="62.82" y="75.39" width="6.28" height="6.28"/><rect class="cls-2" x="62.82" y="69.11" width="6.28" height="6.28"/><rect class="cls-1" x="62.82" y="50.26" width="6.28" height="6.28"/><rect class="cls-1" x="62.82" y="43.98" width="6.28" height="6.28"/><rect class="cls-2" x="56.54" y="87.95" width="6.29" height="6.28"/><rect class="cls-2" x="56.54" y="81.67" width="6.29" height="6.29"/><rect class="cls-1" x="56.54" y="75.39" width="6.29" height="6.28"/><rect class="cls-1" x="56.54" y="50.26" width="6.29" height="6.28"/><rect class="cls-1" x="56.54" y="43.98" width="6.29" height="6.28"/><rect class="cls-2" x="50.25" y="119.36" width="6.28" height="6.29"/><rect class="cls-2" x="50.25" y="113.08" width="6.28" height="6.28"/><rect class="cls-2" x="50.25" y="100.52" width="6.28" height="6.29"/><rect class="cls-2" x="50.25" y="94.24" width="6.28" height="6.28"/><rect class="cls-1" x="50.25" y="81.67" width="6.28" height="6.29"/><rect class="cls-1" x="50.25" y="50.26" width="6.28" height="6.28"/><rect class="cls-1" x="50.25" y="43.98" width="6.28" height="6.28"/><rect class="cls-1" x="50.25" y="25.13" width="6.28" height="6.28"/><rect class="cls-1" x="50.25" y="18.85" width="6.28" height="6.29"/><rect class="cls-1" x="50.25" y="12.57" width="6.28" height="6.28"/><rect class="cls-2" x="43.97" y="125.65" width="6.28" height="6.28"/><rect class="cls-2" x="43.97" y="119.36" width="6.28" height="6.29"/><rect class="cls-2" x="43.97" y="113.08" width="6.28" height="6.28"/><rect class="cls-2" x="43.97" y="106.8" width="6.28" height="6.28"/><rect class="cls-1" x="43.97" y="87.95" width="6.28" height="6.28"/><rect class="cls-1" x="43.97" y="81.67" width="6.28" height="6.29"/><rect class="cls-1" x="43.97" y="50.26" width="6.28" height="6.28"/><rect class="cls-1" x="43.97" y="43.98" width="6.28" height="6.28"/><rect class="cls-1" x="43.97" y="25.13" width="6.28" height="6.28"/><rect class="cls-1" x="43.97" y="18.85" width="6.28" height="6.29"/><rect class="cls-1" x="43.97" y="12.57" width="6.28" height="6.28"/><rect class="cls-2" x="37.69" y="138.21" width="6.29" height="6.28"/><rect class="cls-2" x="37.69" y="131.93" width="6.29" height="6.28"/><rect class="cls-2" x="37.69" y="125.65" width="6.29" height="6.28"/><rect class="cls-2" x="37.69" y="119.36" width="6.29" height="6.29"/><rect class="cls-2" x="37.69" y="113.08" width="6.29" height="6.28"/><rect class="cls-1" x="37.69" y="94.24" width="6.29" height="6.28"/><rect class="cls-1" x="37.69" y="87.95" width="6.29" height="6.28"/><rect class="cls-1" x="37.69" y="50.26" width="6.29" height="6.28"/><rect class="cls-1" x="37.69" y="43.98" width="6.29" height="6.28"/><rect class="cls-1" x="37.69" y="25.13" width="6.29" height="6.28"/><rect class="cls-1" x="37.69" y="18.85" width="6.29" height="6.29"/><rect class="cls-1" x="37.69" y="12.57" width="6.29" height="6.28"/><rect class="cls-2" x="31.41" y="194.75" width="6.28" height="6.28"/><rect class="cls-2" x="31.41" y="188.47" width="6.28" height="6.28"/><rect class="cls-2" x="31.41" y="182.18" width="6.28" height="6.29"/><rect class="cls-2" x="31.41" y="175.9" width="6.28" height="6.28"/><rect class="cls-2" x="31.41" y="169.62" width="6.28" height="6.28"/><rect class="cls-2" x="31.41" y="163.34" width="6.28" height="6.29"/><rect class="cls-2" x="31.41" y="157.06" width="6.28" height="6.28"/><rect class="cls-2" x="31.41" y="150.78" width="6.28" height="6.28"/><rect class="cls-2" x="31.41" y="144.49" width="6.28" height="6.29"/><rect class="cls-2" x="31.41" y="125.65" width="6.28" height="6.28"/><rect class="cls-2" x="31.41" y="119.36" width="6.28" height="6.29"/><rect class="cls-1" x="31.41" y="94.24" width="6.28" height="6.28"/><rect class="cls-1" x="31.41" y="50.26" width="6.28" height="6.28"/><rect class="cls-1" x="31.41" y="43.98" width="6.28" height="6.28"/><rect class="cls-2" x="25.13" y="194.75" width="6.28" height="6.28"/><rect class="cls-2" x="25.13" y="188.47" width="6.28" height="6.28"/><rect class="cls-2" x="25.13" y="182.18" width="6.28" height="6.29"/><rect class="cls-2" x="25.13" y="175.9" width="6.28" height="6.28"/><rect class="cls-2" x="25.13" y="169.62" width="6.28" height="6.28"/><rect class="cls-2" x="25.13" y="163.34" width="6.28" height="6.29"/><rect class="cls-1" x="25.13" y="100.52" width="6.28" height="6.29"/><rect class="cls-1" x="25.13" y="94.24" width="6.28" height="6.28"/><rect class="cls-1" x="25.13" y="50.26" width="6.28" height="6.28"/><rect class="cls-1" x="25.13" y="43.98" width="6.28" height="6.28"/><rect class="cls-1" x="18.84" y="106.8" width="6.29" height="6.28"/><rect class="cls-1" x="18.84" y="100.52" width="6.29" height="6.29"/><rect class="cls-1" x="18.84" y="50.26" width="6.29" height="6.28"/><rect class="cls-2" x="12.56" y="182.18" width="6.28" height="6.29"/><rect class="cls-2" x="12.56" y="175.9" width="6.28" height="6.28"/><rect class="cls-2" x="12.56" y="169.62" width="6.28" height="6.28"/><rect class="cls-1" x="12.56" y="113.08" width="6.28" height="6.28"/><rect class="cls-1" x="12.56" y="106.8" width="6.28" height="6.28"/><rect class="cls-2" x="6.28" y="182.18" width="6.28" height="6.29"/><rect class="cls-2" x="6.28" y="175.9" width="6.28" height="6.28"/><rect class="cls-2" x="6.28" y="169.62" width="6.28" height="6.28"/><rect class="cls-1" x="6.28" y="119.36" width="6.28" height="6.29"/><rect class="cls-1" x="6.28" y="113.08" width="6.28" height="6.28"/><rect class="cls-2" y="182.18" width="6.28" height="6.29"/><rect class="cls-2" y="175.9" width="6.28" height="6.28"/><rect class="cls-2" y="169.62" width="6.28" height="6.28"/><rect class="cls-1" y="119.36" width="6.28" height="6.29"/></g></g></svg>