<svg xmlns="http://www.w3.org/2000/svg" viewBox="0 0 224.56 245.94"><defs><style>.cls-1{fill:#9e9ccd;}.cls-2{fill:#9394c4;}.cls-3{fill:#7d81c1;}.cls-4{fill:#968fbb;}.cls-5{fill:#8184bb;}.cls-6{fill:#9799c2;}.cls-7{fill:#9b96d0;}.cls-8{fill:#aca8cd;}.cls-9{fill:#9191c3;}.cls-10{fill:#8687bd;}.cls-11{fill:#686cab;}.cls-12{fill:#7279bf;}.cls-13{fill:#8387c6;}.cls-14{fill:#9897c3;}.cls-15{fill:#8a8ac0;}.cls-16{fill:#9999cd;}.cls-17{fill:#a3a2ca;}.cls-18{fill:#b2acda;}.cls-19{fill:#201a1c;}.cls-20{fill:#22231d;}.cls-21{fill:#1c1819;}.cls-22{fill:#06050b;}.cls-23{fill:#6c74b2;}.cls-24{fill:#971e2d;}.cls-25{fill:#6372ad;}.cls-26{fill:#636cad;}.cls-27{fill:#7b80ba;}.cls-28{fill:#9693c2;}.cls-29{fill:#0e3d8b;}.cls-30{fill:#8987c8;}.cls-31{fill:#6d71b8;}.cls-32{fill:#101529;}.cls-33{fill:#9291bb;}.cls-34{fill:#9a97c2;}.cls-35{fill:#7c78b3;}.cls-36{fill:#a3a1d2;}.cls-37{fill:#c5c5c5;}.cls-38{fill:#6974b2;}.cls-39{fill:#a4a3cd;}.cls-40{fill:#c7c9c8;}.cls-41{fill:#fff;}.cls-42{fill:#f9fafc;}.cls-43{fill:#b7b2da;}.cls-44{fill:#d9d9db;}.cls-45{fill:#c9b9ba;}.cls-46{fill:#7581b1;}.cls-47{fill:#b4aed0;}.cls-48{fill:#d6d8d5;}.cls-49{fill:#eefaf8;}.cls-50{fill:#7478bf;}.cls-51{fill:#bdb7d9;}.cls-52{fill:#e3dfe0;}.cls-53{fill:#d1d3c8;}.cls-54{fill:#d0c7cc;}.cls-55{fill:#c5c1d8;}.cls-56{fill:#dcdddf;}.cls-57{fill:#dcd8d5;}.cls-58{fill:#d0cccd;}.cls-59{fill:#c0bbd9;}.cls-60{fill:#1b3f95;}.cls-61{fill:#8989bf;}.cls-62{fill:#7a7bb1;}.cls-63{fill:#bcb8cf;}.cls-64{fill:#c6c2e5;}.cls-65{fill:#9192c2;}.cls-66{fill:#8187b9;}.cls-67{fill:#b7b5dc;}.cls-68{fill:#8c8cc0;}.cls-69{fill:#8b8cc5;}.cls-70{fill:#bebbda;}.cls-71{fill:#bcb6dc;}.cls-72{fill:#9697c3;}.cls-73{fill:#9092c3;}.cls-74{fill:#bbb7d8;}.cls-75{fill:#9c98ca;}.cls-76{fill:#adaecd;}</style></defs><g id="Capa_2" data-name="Capa 2"><g id="logos"><rect class="cls-1" x="139.01" y="160.4" width="10.7" height="10.69"/><rect class="cls-1" x="139.01" y="149.7" width="10.7" height="10.7"/><rect class="cls-1" x="139.01" y="139.01" width="10.7" height="10.69"/><rect class="cls-2" x="53.47" y="149.7" width="10.69" height="10.7"/><rect class="cls-2" x="53.47" y="139.01" width="10.69" height="10.69"/><rect class="cls-3" x="53.47" y="128.32" width="10.69" height="10.69"/><rect class="cls-4" x="128.32" y="149.7" width="10.69" height="10.7"/><rect class="cls-4" x="139.01" y="117.62" width="10.7" height="10.7"/><rect class="cls-4" x="139.01" y="106.93" width="10.7" height="10.69"/><rect class="cls-4" x="139.01" y="96.24" width="10.7" height="10.69"/><rect class="cls-4" x="139.01" y="128.32" width="10.7" height="10.69"/><rect class="cls-4" x="128.32" y="128.32" width="10.69" height="10.69"/><rect class="cls-4" x="117.63" y="96.24" width="10.69" height="10.69"/><rect class="cls-4" x="117.63" y="117.62" width="10.69" height="10.7"/><rect class="cls-4" x="117.63" y="106.93" width="10.69" height="10.69"/><rect class="cls-5" x="96.24" y="117.62" width="10.69" height="10.7"/><rect class="cls-5" x="85.55" y="128.32" width="10.69" height="10.69"/><rect class="cls-5" x="85.55" y="117.62" width="10.69" height="10.7"/><rect class="cls-5" x="74.85" y="128.32" width="10.7" height="10.69"/><rect class="cls-5" x="74.85" y="117.62" width="10.7" height="10.7"/><rect class="cls-3" x="64.16" y="117.62" width="10.69" height="10.7"/><rect class="cls-3" x="64.16" y="106.93" width="10.69" height="10.69"/><rect class="cls-3" x="53.47" y="106.93" width="10.69" height="10.69"/><rect class="cls-3" x="53.47" y="117.62" width="10.69" height="10.7"/><rect class="cls-3" x="42.78" y="117.62" width="10.69" height="10.7"/><rect class="cls-2" x="64.16" y="128.32" width="10.69" height="10.69"/><rect class="cls-2" x="64.16" y="139.01" width="10.69" height="10.69"/><rect class="cls-2" x="64.16" y="160.4" width="10.69" height="10.69"/><rect class="cls-2" x="64.16" y="149.7" width="10.69" height="10.7"/><rect class="cls-6" x="85.55" y="160.4" width="10.69" height="10.69"/><rect class="cls-6" x="85.55" y="149.7" width="10.69" height="10.7"/><rect class="cls-6" x="74.85" y="149.7" width="10.7" height="10.7"/><rect class="cls-6" x="74.85" y="160.4" width="10.7" height="10.69"/><rect class="cls-7" x="106.93" y="149.7" width="10.7" height="10.7"/><rect class="cls-7" x="106.93" y="139.01" width="10.7" height="10.69"/><rect class="cls-7" x="96.24" y="149.7" width="10.69" height="10.7"/><rect class="cls-6" x="74.85" y="171.09" width="10.7" height="10.69"/><rect class="cls-8" x="64.16" y="181.78" width="10.69" height="10.69"/><rect class="cls-8" x="64.16" y="171.09" width="10.69" height="10.69"/><rect class="cls-9" x="53.47" y="160.4" width="10.69" height="10.69"/><rect class="cls-9" x="53.47" y="171.09" width="10.69" height="10.69"/><rect class="cls-10" x="42.78" y="139.01" width="10.69" height="10.69"/><rect class="cls-10" x="42.78" y="128.32" width="10.69" height="10.69"/><rect class="cls-10" x="42.78" y="149.7" width="10.69" height="10.7"/><rect class="cls-11" x="32.08" y="106.93" width="10.7" height="10.69"/><rect class="cls-11" x="32.08" y="117.62" width="10.7" height="10.7"/><rect class="cls-11" x="32.08" y="96.24" width="10.7" height="10.69"/><rect class="cls-11" x="32.08" y="85.54" width="10.7" height="10.7"/><rect class="cls-11" x="32.08" y="74.85" width="10.7" height="10.69"/><rect class="cls-11" x="21.39" y="74.85" width="10.69" height="10.69"/><rect class="cls-12" x="96.24" y="74.85" width="10.69" height="10.69"/><rect class="cls-12" x="96.24" y="85.54" width="10.69" height="10.7"/><rect class="cls-12" x="85.55" y="74.85" width="10.69" height="10.69"/><rect class="cls-12" x="85.55" y="96.24" width="10.69" height="10.69"/><rect class="cls-12" x="74.85" y="85.54" width="10.7" height="10.7"/><rect class="cls-12" x="74.85" y="96.24" width="10.7" height="10.69"/><rect class="cls-12" x="74.85" y="74.85" width="10.7" height="10.69"/><rect class="cls-13" x="139.01" y="74.85" width="10.7" height="10.69"/><rect class="cls-13" x="128.32" y="85.54" width="10.69" height="10.7"/><rect class="cls-13" x="128.32" y="74.85" width="10.69" height="10.69"/><rect class="cls-1" x="149.71" y="171.09" width="10.69" height="10.69"/><rect class="cls-1" x="149.71" y="117.62" width="10.69" height="10.7"/><rect class="cls-1" x="149.71" y="149.7" width="10.69" height="10.7"/><rect class="cls-1" x="149.71" y="128.32" width="10.69" height="10.69"/><rect class="cls-1" x="149.71" y="160.4" width="10.69" height="10.69"/><rect class="cls-1" x="149.71" y="139.01" width="10.69" height="10.69"/><rect class="cls-1" x="171.09" y="117.62" width="10.69" height="10.7"/><rect class="cls-1" x="160.4" y="139.01" width="10.69" height="10.69"/><rect class="cls-1" x="160.4" y="128.32" width="10.69" height="10.69"/><rect class="cls-1" x="160.4" y="149.7" width="10.69" height="10.7"/><rect class="cls-1" x="160.4" y="171.09" width="10.69" height="10.69"/><rect class="cls-1" x="160.4" y="117.62" width="10.69" height="10.7"/><rect class="cls-1" x="160.4" y="160.4" width="10.69" height="10.69"/><rect class="cls-14" x="160.4" y="106.93" width="10.69" height="10.69"/><rect class="cls-15" x="160.4" y="85.54" width="10.69" height="10.7"/><rect class="cls-16" x="171.09" y="96.24" width="10.69" height="10.69"/><rect class="cls-17" x="181.78" y="85.54" width="10.7" height="10.7"/><rect class="cls-17" x="181.78" y="117.62" width="10.7" height="10.7"/><rect class="cls-17" x="181.78" y="106.93" width="10.7" height="10.69"/><rect class="cls-17" x="181.78" y="96.24" width="10.7" height="10.69"/><rect class="cls-17" x="181.78" y="74.85" width="10.7" height="10.69"/><rect class="cls-18" x="171.09" y="139.01" width="10.69" height="10.69"/><rect class="cls-18" x="171.09" y="149.7" width="10.69" height="10.7"/><rect class="cls-18" x="171.09" y="128.32" width="10.69" height="10.69"/><rect class="cls-19" x="117.63" y="139.01" width="10.69" height="10.69"/><rect class="cls-19" x="128.32" y="139.01" width="10.69" height="10.69"/><rect class="cls-19" x="117.63" y="149.7" width="10.69" height="10.7"/><rect class="cls-19" x="74.85" y="139.01" width="10.7" height="10.69"/><rect class="cls-19" x="85.55" y="139.01" width="10.69" height="10.69"/><rect class="cls-19" x="96.24" y="139.01" width="10.69" height="10.69"/><rect class="cls-19" x="96.24" y="128.32" width="10.69" height="10.69"/><rect class="cls-19" x="106.93" y="128.32" width="10.7" height="10.69"/><rect class="cls-19" x="139.01" y="85.54" width="10.7" height="10.7"/><rect class="cls-19" x="128.32" y="96.24" width="10.69" height="10.69"/><rect class="cls-19" x="128.32" y="106.93" width="10.69" height="10.69"/><rect class="cls-19" x="128.32" y="117.62" width="10.69" height="10.7"/><rect class="cls-19" x="117.63" y="128.32" width="10.69" height="10.69"/><rect class="cls-19" x="106.93" y="117.62" width="10.7" height="10.7"/><rect class="cls-19" x="106.93" y="106.93" width="10.7" height="10.69"/><rect class="cls-19" x="96.24" y="106.93" width="10.69" height="10.69"/><rect class="cls-19" x="74.85" y="106.93" width="10.7" height="10.69"/><rect class="cls-19" x="85.55" y="106.93" width="10.69" height="10.69"/><rect class="cls-19" x="85.55" y="85.54" width="10.69" height="10.7"/><rect class="cls-19" x="96.24" y="96.24" width="10.69" height="10.69"/><rect class="cls-19" x="106.93" y="96.24" width="10.7" height="10.69"/><rect class="cls-19" x="106.93" y="85.54" width="10.7" height="10.7"/><rect class="cls-19" x="117.63" y="85.54" width="10.69" height="10.7"/><rect class="cls-19" x="117.63" y="74.85" width="10.69" height="10.69"/><rect class="cls-19" x="106.93" y="74.85" width="10.7" height="10.69"/><rect class="cls-20" x="171.09" y="106.93" width="10.69" height="10.69"/><rect class="cls-20" x="149.71" y="106.93" width="10.69" height="10.69"/><rect class="cls-20" x="149.71" y="96.24" width="10.69" height="10.69"/><rect class="cls-20" x="160.4" y="96.24" width="10.69" height="10.69"/><rect class="cls-20" x="149.71" y="85.54" width="10.69" height="10.7"/><rect class="cls-20" x="171.09" y="85.54" width="10.69" height="10.7"/><rect class="cls-20" x="171.09" y="74.85" width="10.69" height="10.69"/><rect class="cls-20" x="160.4" y="74.85" width="10.69" height="10.69"/><rect class="cls-20" x="149.71" y="74.85" width="10.69" height="10.69"/><rect class="cls-20" x="64.16" y="74.85" width="10.69" height="10.69"/><rect class="cls-20" x="64.16" y="96.24" width="10.69" height="10.69"/><rect class="cls-12" x="64.16" y="85.54" width="10.69" height="10.7"/><rect class="cls-21" x="53.47" y="96.24" width="10.69" height="10.69"/><rect class="cls-21" x="42.78" y="74.85" width="10.69" height="10.69"/><rect class="cls-21" x="53.47" y="74.85" width="10.69" height="10.69"/><rect class="cls-22" x="213.86" y="74.85" width="10.7" height="10.69"/><rect class="cls-22" x="213.86" y="64.16" width="10.7" height="10.69"/><rect class="cls-22" x="213.86" y="53.47" width="10.7" height="10.69"/><rect class="cls-22" x="213.86" y="42.77" width="10.7" height="10.7"/><rect class="cls-22" x="213.86" y="32.08" width="10.7" height="10.69"/><rect class="cls-22" x="213.86" y="21.39" width="10.7" height="10.69"/><rect class="cls-22" x="213.86" y="10.69" width="10.7" height="10.7"/><rect class="cls-22" x="203.17" y="117.62" width="10.69" height="10.7"/><rect class="cls-22" x="203.17" y="106.93" width="10.69" height="10.69"/><rect class="cls-22" x="203.17" y="96.24" width="10.69" height="10.69"/><rect class="cls-22" x="203.17" y="85.54" width="10.69" height="10.7"/><rect class="cls-23" x="203.17" y="74.85" width="10.69" height="10.69"/><rect class="cls-24" x="203.17" y="64.16" width="10.69" height="10.69"/><rect class="cls-25" x="203.17" y="53.47" width="10.69" height="10.69"/><rect class="cls-26" x="203.17" y="42.77" width="10.69" height="10.7"/><rect class="cls-26" x="203.17" y="32.08" width="10.69" height="10.69"/><rect class="cls-26" x="203.17" y="21.39" width="10.69" height="10.69"/><rect class="cls-26" x="203.17" y="10.69" width="10.69" height="10.7"/><rect class="cls-22" x="203.17" width="10.69" height="10.69"/><rect class="cls-22" x="192.48" y="149.7" width="10.69" height="10.7"/><rect class="cls-22" x="192.48" y="139.01" width="10.69" height="10.69"/><rect class="cls-22" x="192.48" y="128.32" width="10.69" height="10.69"/><rect class="cls-27" x="192.48" y="117.62" width="10.69" height="10.7"/><rect class="cls-27" x="192.48" y="106.93" width="10.69" height="10.69"/><rect class="cls-27" x="192.48" y="96.24" width="10.69" height="10.69"/><rect class="cls-27" x="192.48" y="85.54" width="10.69" height="10.7"/><rect class="cls-28" x="192.48" y="74.85" width="10.69" height="10.69"/><rect class="cls-24" x="192.48" y="64.16" width="10.69" height="10.69"/><rect class="cls-29" x="192.48" y="53.47" width="10.69" height="10.69"/><rect class="cls-26" x="192.48" y="42.77" width="10.69" height="10.7"/><rect class="cls-26" x="192.48" y="32.08" width="10.69" height="10.69"/><rect class="cls-26" x="192.48" y="21.39" width="10.69" height="10.69"/><rect class="cls-26" x="192.48" y="10.69" width="10.69" height="10.7"/><rect class="cls-22" x="192.48" width="10.69" height="10.69"/><rect class="cls-22" x="181.78" y="171.09" width="10.7" height="10.69"/><rect class="cls-22" x="181.78" y="160.4" width="10.7" height="10.69"/><rect class="cls-30" x="181.78" y="149.7" width="10.7" height="10.7"/><rect class="cls-30" x="181.78" y="139.01" width="10.7" height="10.69"/><rect class="cls-30" x="181.78" y="128.32" width="10.7" height="10.69"/><rect class="cls-24" x="181.78" y="64.16" width="10.7" height="10.69"/><rect class="cls-29" x="181.78" y="53.47" width="10.7" height="10.69"/><rect class="cls-31" x="181.78" y="42.77" width="10.7" height="10.7"/><rect class="cls-32" x="181.78" y="32.08" width="10.7" height="10.69"/><rect class="cls-26" x="181.78" y="21.39" width="10.7" height="10.69"/><rect class="cls-26" x="181.78" y="10.69" width="10.7" height="10.7"/><rect class="cls-22" x="181.78" width="10.7" height="10.69"/><rect class="cls-22" x="171.09" y="181.78" width="10.69" height="10.69"/><rect class="cls-33" x="171.09" y="171.09" width="10.69" height="10.69"/><rect class="cls-33" x="171.09" y="160.4" width="10.69" height="10.69"/><rect class="cls-24" x="171.09" y="64.16" width="10.69" height="10.69"/><rect class="cls-29" x="171.09" y="53.47" width="10.69" height="10.69"/><rect class="cls-29" x="171.09" y="42.77" width="10.69" height="10.7"/><rect class="cls-32" x="171.09" y="32.08" width="10.69" height="10.69"/><rect class="cls-32" x="171.09" y="21.39" width="10.69" height="10.69"/><rect class="cls-32" x="171.09" y="10.69" width="10.69" height="10.7"/><rect class="cls-22" x="171.09" width="10.69" height="10.69"/><rect class="cls-22" x="160.4" y="192.47" width="10.69" height="10.7"/><rect class="cls-34" x="160.4" y="181.78" width="10.69" height="10.69"/><rect class="cls-24" x="160.4" y="64.16" width="10.69" height="10.69"/><rect class="cls-35" x="160.4" y="53.47" width="10.69" height="10.69"/><rect class="cls-29" x="160.4" y="42.77" width="10.69" height="10.7"/><rect class="cls-32" x="160.4" y="32.08" width="10.69" height="10.69"/><rect class="cls-32" x="160.4" y="21.39" width="10.69" height="10.69"/><rect class="cls-32" x="160.4" y="10.69" width="10.69" height="10.7"/><rect class="cls-22" x="160.4" width="10.69" height="10.69"/><rect class="cls-22" x="149.71" y="203.17" width="10.69" height="10.69"/><rect class="cls-36" x="149.71" y="192.47" width="10.69" height="10.7"/><rect class="cls-37" x="149.71" y="181.78" width="10.69" height="10.69"/><rect class="cls-24" x="149.71" y="64.16" width="10.69" height="10.69"/><rect class="cls-35" x="149.71" y="53.47" width="10.69" height="10.69"/><rect class="cls-29" x="149.71" y="42.77" width="10.69" height="10.7"/><rect class="cls-32" x="149.71" y="32.08" width="10.69" height="10.69"/><rect class="cls-38" x="149.71" y="21.39" width="10.69" height="10.69"/><rect class="cls-32" x="149.71" y="10.69" width="10.69" height="10.7"/><rect class="cls-22" x="149.71" width="10.69" height="10.69"/><rect class="cls-22" x="139.01" y="213.86" width="10.7" height="10.69"/><rect class="cls-39" x="139.01" y="203.17" width="10.7" height="10.69"/><rect class="cls-40" x="139.01" y="192.47" width="10.7" height="10.7"/><rect class="cls-37" x="139.01" y="181.78" width="10.7" height="10.69"/><rect class="cls-41" x="139.01" y="171.09" width="10.7" height="10.69"/><rect class="cls-42" x="139.01" y="64.16" width="10.7" height="10.69"/><rect class="cls-29" x="139.01" y="53.47" width="10.7" height="10.69"/><rect class="cls-29" x="139.01" y="42.77" width="10.7" height="10.7"/><rect class="cls-32" x="139.01" y="32.08" width="10.7" height="10.69"/><rect class="cls-32" x="139.01" y="21.39" width="10.7" height="10.69"/><rect class="cls-32" x="139.01" y="10.69" width="10.7" height="10.7"/><rect class="cls-22" x="139.01" width="10.7" height="10.69"/><rect class="cls-22" x="128.32" y="224.55" width="10.69" height="10.7"/><rect class="cls-43" x="128.32" y="213.86" width="10.69" height="10.69"/><rect class="cls-44" x="128.32" y="203.17" width="10.69" height="10.69"/><rect class="cls-45" x="128.32" y="192.47" width="10.69" height="10.7"/><rect class="cls-45" x="128.32" y="181.78" width="10.69" height="10.69"/><rect class="cls-41" x="128.32" y="171.09" width="10.69" height="10.69"/><rect class="cls-42" x="128.32" y="64.16" width="10.69" height="10.69"/><rect class="cls-29" x="128.32" y="53.47" width="10.69" height="10.69"/><rect class="cls-46" x="128.32" y="42.77" width="10.69" height="10.7"/><rect class="cls-32" x="128.32" y="32.08" width="10.69" height="10.69"/><rect class="cls-32" x="128.32" y="21.39" width="10.69" height="10.69"/><rect class="cls-32" x="128.32" y="10.69" width="10.69" height="10.7"/><rect class="cls-22" x="128.32" width="10.69" height="10.69"/><rect class="cls-22" x="117.63" y="235.25" width="10.69" height="10.69"/><rect class="cls-47" x="117.63" y="224.55" width="10.69" height="10.7"/><rect class="cls-48" x="117.63" y="213.86" width="10.69" height="10.69"/><rect class="cls-44" x="117.63" y="203.17" width="10.69" height="10.69"/><rect class="cls-45" x="117.63" y="192.47" width="10.69" height="10.7"/><rect class="cls-45" x="117.63" y="181.78" width="10.69" height="10.69"/><rect class="cls-40" x="117.63" y="171.09" width="10.69" height="10.69"/><rect class="cls-41" x="117.63" y="160.4" width="10.69" height="10.69"/><rect class="cls-42" x="117.63" y="64.16" width="10.69" height="10.69"/><rect class="cls-49" x="117.63" y="53.47" width="10.69" height="10.69"/><rect class="cls-46" x="117.63" y="42.77" width="10.69" height="10.7"/><rect class="cls-32" x="117.63" y="32.08" width="10.69" height="10.69"/><rect class="cls-50" x="117.63" y="21.39" width="10.69" height="10.69"/><rect class="cls-32" x="117.63" y="10.69" width="10.69" height="10.7"/><rect class="cls-22" x="117.63" width="10.69" height="10.69"/><rect class="cls-22" x="106.93" y="235.25" width="10.7" height="10.69"/><rect class="cls-51" x="106.93" y="224.55" width="10.7" height="10.7"/><rect class="cls-52" x="106.93" y="213.86" width="10.7" height="10.69"/><rect class="cls-44" x="106.93" y="203.17" width="10.7" height="10.69"/><rect class="cls-53" x="106.93" y="192.47" width="10.7" height="10.7"/><rect class="cls-54" x="106.93" y="181.78" width="10.7" height="10.69"/><rect class="cls-41" x="106.93" y="171.09" width="10.7" height="10.69"/><rect class="cls-41" x="106.93" y="160.4" width="10.7" height="10.69"/><rect class="cls-42" x="106.93" y="64.16" width="10.7" height="10.69"/><rect class="cls-49" x="106.93" y="53.47" width="10.7" height="10.69"/><rect class="cls-49" x="106.93" y="42.77" width="10.7" height="10.7"/><rect class="cls-32" x="106.93" y="32.08" width="10.7" height="10.69"/><rect class="cls-32" x="106.93" y="21.39" width="10.7" height="10.69"/><rect class="cls-32" x="106.93" y="10.69" width="10.7" height="10.7"/><rect class="cls-22" x="106.93" width="10.7" height="10.69"/><rect class="cls-22" x="96.24" y="235.25" width="10.69" height="10.69"/><rect class="cls-55" x="96.24" y="224.55" width="10.69" height="10.7"/><rect class="cls-56" x="96.24" y="213.86" width="10.69" height="10.69"/><rect class="cls-56" x="96.24" y="203.17" width="10.69" height="10.69"/><rect class="cls-57" x="96.24" y="192.47" width="10.69" height="10.7"/><rect class="cls-58" x="96.24" y="181.78" width="10.69" height="10.69"/><rect class="cls-40" x="96.24" y="171.09" width="10.69" height="10.69"/><rect class="cls-41" x="96.24" y="160.4" width="10.69" height="10.69"/><rect class="cls-42" x="96.24" y="64.16" width="10.69" height="10.69"/><rect class="cls-49" x="96.24" y="53.47" width="10.69" height="10.69"/><rect class="cls-46" x="96.24" y="42.77" width="10.69" height="10.7"/><rect class="cls-32" x="96.24" y="32.08" width="10.69" height="10.69"/><rect class="cls-32" x="96.24" y="21.39" width="10.69" height="10.69"/><rect class="cls-32" x="96.24" y="10.69" width="10.69" height="10.7"/><rect class="cls-22" x="96.24" width="10.69" height="10.69"/><rect class="cls-22" x="85.55" y="224.55" width="10.69" height="10.7"/><rect class="cls-59" x="85.55" y="213.86" width="10.69" height="10.69"/><rect class="cls-56" x="85.55" y="203.17" width="10.69" height="10.69"/><rect class="cls-58" x="85.55" y="192.47" width="10.69" height="10.7"/><rect class="cls-58" x="85.55" y="181.78" width="10.69" height="10.69"/><rect class="cls-41" x="85.55" y="171.09" width="10.69" height="10.69"/><rect class="cls-42" x="85.55" y="64.16" width="10.69" height="10.69"/><rect class="cls-60" x="85.55" y="53.47" width="10.69" height="10.69"/><rect class="cls-46" x="85.55" y="42.77" width="10.69" height="10.7"/><rect class="cls-61" x="85.55" y="32.08" width="10.69" height="10.69"/><rect class="cls-32" x="85.55" y="21.39" width="10.69" height="10.69"/><rect class="cls-62" x="85.55" y="10.69" width="10.69" height="10.7"/><rect class="cls-22" x="85.55" width="10.69" height="10.69"/><rect class="cls-22" x="74.85" y="213.86" width="10.7" height="10.69"/><rect class="cls-63" x="74.85" y="203.17" width="10.7" height="10.69"/><rect class="cls-58" x="74.85" y="192.47" width="10.7" height="10.7"/><rect class="cls-58" x="74.85" y="181.78" width="10.7" height="10.69"/><rect class="cls-42" x="74.85" y="64.16" width="10.7" height="10.69"/><rect class="cls-29" x="74.85" y="53.47" width="10.7" height="10.69"/><rect class="cls-60" x="74.85" y="42.77" width="10.7" height="10.7"/><rect class="cls-32" x="74.85" y="32.08" width="10.7" height="10.69"/><rect class="cls-32" x="74.85" y="21.39" width="10.7" height="10.69"/><rect class="cls-32" x="74.85" y="10.69" width="10.7" height="10.7"/><rect class="cls-22" x="74.85" width="10.7" height="10.69"/><rect class="cls-22" x="64.16" y="203.17" width="10.69" height="10.69"/><rect class="cls-64" x="64.16" y="192.47" width="10.69" height="10.7"/><rect class="cls-24" x="64.16" y="64.16" width="10.69" height="10.69"/><rect class="cls-65" x="64.16" y="53.47" width="10.69" height="10.69"/><rect class="cls-60" x="64.16" y="42.77" width="10.69" height="10.7"/><rect class="cls-32" x="64.16" y="32.08" width="10.69" height="10.69"/><rect class="cls-66" x="64.16" y="21.39" width="10.69" height="10.69"/><rect class="cls-32" x="64.16" y="10.69" width="10.69" height="10.7"/><rect class="cls-22" x="64.16" width="10.69" height="10.69"/><rect class="cls-22" x="53.47" y="192.47" width="10.69" height="10.7"/><rect class="cls-67" x="53.47" y="181.78" width="10.69" height="10.69"/><rect class="cls-12" x="53.47" y="85.54" width="10.69" height="10.7"/><rect class="cls-24" x="53.47" y="64.16" width="10.69" height="10.69"/><rect class="cls-65" x="53.47" y="53.47" width="10.69" height="10.69"/><rect class="cls-60" x="53.47" y="42.77" width="10.69" height="10.7"/><rect class="cls-68" x="53.47" y="32.08" width="10.69" height="10.69"/><rect class="cls-32" x="53.47" y="21.39" width="10.69" height="10.69"/><rect class="cls-69" x="53.47" y="10.69" width="10.69" height="10.7"/><rect class="cls-22" x="53.47" width="10.69" height="10.69"/><rect class="cls-22" x="42.78" y="181.78" width="10.69" height="10.69"/><rect class="cls-70" x="42.78" y="171.09" width="10.69" height="10.69"/><rect class="cls-70" x="42.78" y="160.4" width="10.69" height="10.69"/><rect class="cls-21" x="42.78" y="106.93" width="10.69" height="10.69"/><rect class="cls-21" x="42.78" y="96.24" width="10.69" height="10.69"/><rect class="cls-21" x="42.78" y="85.54" width="10.69" height="10.7"/><rect class="cls-24" x="42.78" y="64.16" width="10.69" height="10.69"/><rect class="cls-60" x="42.78" y="53.47" width="10.69" height="10.69"/><rect class="cls-60" x="42.78" y="42.77" width="10.69" height="10.7"/><rect class="cls-32" x="42.78" y="32.08" width="10.69" height="10.69"/><rect class="cls-32" x="42.78" y="21.39" width="10.69" height="10.69"/><rect class="cls-32" x="42.78" y="10.69" width="10.69" height="10.7"/><rect class="cls-22" x="42.78" width="10.69" height="10.69"/><rect class="cls-22" x="32.08" y="171.09" width="10.7" height="10.69"/><rect class="cls-22" x="32.08" y="160.4" width="10.7" height="10.69"/><rect class="cls-71" x="32.08" y="149.7" width="10.7" height="10.7"/><rect class="cls-71" x="32.08" y="139.01" width="10.7" height="10.69"/><rect class="cls-71" x="32.08" y="128.32" width="10.7" height="10.69"/><rect class="cls-24" x="32.08" y="64.16" width="10.7" height="10.69"/><rect class="cls-60" x="32.08" y="53.47" width="10.7" height="10.69"/><rect class="cls-72" x="32.08" y="42.77" width="10.7" height="10.7"/><rect class="cls-32" x="32.08" y="32.08" width="10.7" height="10.69"/><rect class="cls-73" x="32.08" y="21.39" width="10.7" height="10.69"/><rect class="cls-32" x="32.08" y="10.69" width="10.7" height="10.7"/><rect class="cls-22" x="32.08" width="10.7" height="10.69"/><rect class="cls-22" x="21.39" y="149.7" width="10.69" height="10.7"/><rect class="cls-22" x="21.39" y="139.01" width="10.69" height="10.69"/><rect class="cls-22" x="21.39" y="128.32" width="10.69" height="10.69"/><rect class="cls-74" x="21.39" y="117.62" width="10.69" height="10.7"/><rect class="cls-74" x="21.39" y="106.93" width="10.69" height="10.69"/><rect class="cls-74" x="21.39" y="96.24" width="10.69" height="10.69"/><rect class="cls-74" x="21.39" y="85.54" width="10.69" height="10.7"/><rect class="cls-24" x="21.39" y="64.16" width="10.69" height="10.69"/><rect class="cls-60" x="21.39" y="53.47" width="10.69" height="10.69"/><rect class="cls-75" x="21.39" y="42.77" width="10.69" height="10.7"/><rect class="cls-73" x="21.39" y="32.08" width="10.69" height="10.69"/><rect class="cls-73" x="21.39" y="21.39" width="10.69" height="10.69"/><rect class="cls-73" x="21.39" y="10.69" width="10.69" height="10.7"/><rect class="cls-22" x="21.39" width="10.69" height="10.69"/><rect class="cls-22" x="10.7" y="117.62" width="10.69" height="10.7"/><rect class="cls-22" x="10.7" y="106.93" width="10.69" height="10.69"/><rect class="cls-22" x="10.7" y="96.24" width="10.69" height="10.69"/><rect class="cls-22" x="10.7" y="85.54" width="10.69" height="10.7"/><rect class="cls-76" x="10.7" y="74.85" width="10.69" height="10.69"/><rect class="cls-24" x="10.7" y="64.16" width="10.69" height="10.69"/><rect class="cls-75" x="10.7" y="53.47" width="10.69" height="10.69"/><rect class="cls-75" x="10.7" y="42.77" width="10.69" height="10.7"/><rect class="cls-75" x="10.7" y="32.08" width="10.69" height="10.69"/><rect class="cls-73" x="10.7" y="21.39" width="10.69" height="10.69"/><rect class="cls-73" x="10.7" y="10.69" width="10.69" height="10.7"/><rect class="cls-22" x="10.7" width="10.69" height="10.69"/><rect class="cls-22" y="74.85" width="10.7" height="10.69"/><rect class="cls-22" y="64.16" width="10.7" height="10.69"/><rect class="cls-22" y="53.47" width="10.7" height="10.69"/><rect class="cls-22" y="42.77" width="10.7" height="10.7"/><rect class="cls-22" y="32.08" width="10.7" height="10.69"/><rect class="cls-22" y="21.39" width="10.7" height="10.69"/><rect class="cls-22" y="10.69" width="10.7" height="10.7"/></g></g></svg>