<svg xmlns="http://www.w3.org/2000/svg" viewBox="0 0 246 130.68"><defs><style>.cls-1{fill:#6385c2;}.cls-2{fill:#6485c1;}</style></defs><g id="Capa_2" data-name="Capa 2"><g id="logoMaker"><rect class="cls-1" x="182.22" y="10.05" width="9.11" height="10.05"/><rect class="cls-1" x="182.22" y="50.26" width="9.11" height="10.05"/><rect class="cls-1" x="182.22" y="40.21" width="9.11" height="10.05"/><rect class="cls-1" x="182.22" y="30.15" width="9.11" height="10.06"/><rect class="cls-1" x="182.22" y="20.1" width="9.11" height="10.05"/><rect class="cls-1" x="164" width="9.11" height="10.05"/><rect class="cls-1" x="136.66" width="9.12" height="10.05"/><rect class="cls-1" x="118.45" y="30.15" width="9.11" height="10.06"/><rect class="cls-1" x="118.45" y="10.05" width="9.11" height="10.05"/><rect class="cls-1" x="118.45" y="50.26" width="9.11" height="10.05"/><rect class="cls-1" x="118.45" y="40.21" width="9.11" height="10.05"/><rect class="cls-1" x="118.45" y="20.1" width="9.11" height="10.05"/><rect class="cls-1" x="100.22" width="9.11" height="10.05"/><rect class="cls-1" x="72.89" y="40.21" width="9.11" height="10.05"/><rect class="cls-1" x="36.44" y="10.05" width="9.11" height="10.05"/><rect class="cls-1" x="45.55" width="9.12" height="10.05"/><rect class="cls-1" x="63.78" y="50.26" width="9.11" height="10.05"/><rect class="cls-1" x="36.44" width="9.11" height="10.05"/><rect class="cls-1" x="45.55" y="10.05" width="9.12" height="10.05"/><rect class="cls-1" x="45.55" y="20.1" width="9.12" height="10.05"/><rect class="cls-1" x="54.67" y="30.15" width="9.11" height="10.06"/><rect class="cls-1" x="54.67" y="20.1" width="9.11" height="10.05"/><rect class="cls-1" x="72.89" y="50.26" width="9.11" height="10.05"/><rect class="cls-1" x="63.78" y="40.21" width="9.11" height="10.05"/><rect class="cls-1" x="63.78" y="30.15" width="9.11" height="10.06"/><rect class="cls-1" x="81.99" y="10.05" width="9.12" height="10.05"/><rect class="cls-1" x="81.99" width="9.12" height="10.05"/><rect class="cls-1" x="81.99" y="50.26" width="9.12" height="10.05"/><rect class="cls-1" x="81.99" y="40.21" width="9.12" height="10.05"/><rect class="cls-1" x="81.99" y="30.15" width="9.12" height="10.06"/><rect class="cls-1" x="81.99" y="20.1" width="9.12" height="10.05"/><rect class="cls-1" x="27.33" y="10.05" width="9.11" height="10.05"/><rect class="cls-1" x="27.33" y="20.1" width="9.11" height="10.05"/><rect class="cls-1" x="27.33" y="50.26" width="9.11" height="10.05"/><rect class="cls-1" x="27.33" y="40.21" width="9.11" height="10.05"/><rect class="cls-1" x="27.33" width="9.11" height="10.05"/><rect class="cls-1" x="27.33" y="30.15" width="9.11" height="10.06"/><rect class="cls-1" y="110.58" width="9.11" height="10.05"/><rect class="cls-1" y="120.63" width="9.11" height="10.05"/><rect class="cls-1" y="100.53" width="9.11" height="10.05"/><rect class="cls-1" y="80.42" width="9.11" height="10.05"/><rect class="cls-1" y="70.37" width="9.11" height="10.05"/><rect class="cls-1" y="90.47" width="9.11" height="10.06"/><rect class="cls-2" x="236.89" y="120.63" width="9.11" height="10.05"/><rect class="cls-2" x="236.89" y="110.58" width="9.11" height="10.05"/><rect class="cls-2" x="236.89" y="100.53" width="9.11" height="10.05"/><rect class="cls-2" x="236.89" y="90.47" width="9.11" height="10.06"/><rect class="cls-2" x="236.89" y="80.42" width="9.11" height="10.05"/><rect class="cls-2" x="236.89" y="70.37" width="9.11" height="10.05"/><rect class="cls-2" x="227.77" y="120.63" width="9.12" height="10.05"/><rect class="cls-2" x="227.77" y="90.47" width="9.12" height="10.06"/><rect class="cls-2" x="227.77" y="70.37" width="9.12" height="10.05"/><rect class="cls-2" x="218.67" y="120.63" width="9.11" height="10.05"/><rect class="cls-2" x="218.67" y="90.47" width="9.11" height="10.06"/><rect class="cls-2" x="218.67" y="70.37" width="9.11" height="10.05"/><rect class="cls-2" x="209.56" y="120.63" width="9.11" height="10.05"/><rect class="cls-2" x="209.56" y="90.47" width="9.11" height="10.06"/><rect class="cls-2" x="209.56" y="70.37" width="9.11" height="10.05"/><rect class="cls-1" x="209.56" width="9.11" height="10.05"/><rect class="cls-2" x="200.44" y="120.63" width="9.12" height="10.05"/><rect class="cls-2" x="200.44" y="90.47" width="9.12" height="10.06"/><rect class="cls-2" x="200.44" y="70.37" width="9.12" height="10.05"/><rect class="cls-1" x="200.44" width="9.12" height="10.05"/><rect class="cls-2" x="191.33" y="110.58" width="9.11" height="10.05"/><rect class="cls-2" x="191.33" y="100.53" width="9.11" height="10.05"/><rect class="cls-1" x="191.33" y="50.26" width="9.11" height="10.05"/><rect class="cls-1" x="191.33" y="40.21" width="9.11" height="10.05"/><rect class="cls-1" x="191.33" y="30.15" width="9.11" height="10.06"/><rect class="cls-1" x="191.33" y="20.1" width="9.11" height="10.05"/><rect class="cls-1" x="191.33" y="10.05" width="9.11" height="10.05"/><rect class="cls-1" x="191.33" width="9.11" height="10.05"/><rect class="cls-1" x="182.22" width="9.11" height="10.05"/><rect class="cls-2" x="173.11" y="70.37" width="9.12" height="10.05"/><rect class="cls-1" x="173.11" width="9.12" height="10.05"/><rect class="cls-2" x="164" y="70.37" width="9.11" height="10.05"/><rect class="cls-2" x="154.89" y="120.63" width="9.11" height="10.05"/><rect class="cls-2" x="154.89" y="110.58" width="9.11" height="10.05"/><rect class="cls-2" x="154.89" y="100.53" width="9.11" height="10.05"/><rect class="cls-2" x="154.89" y="90.47" width="9.11" height="10.06"/><rect class="cls-2" x="154.89" y="80.42" width="9.11" height="10.05"/><rect class="cls-2" x="154.89" y="70.37" width="9.11" height="10.05"/><rect class="cls-2" x="145.78" y="120.63" width="9.11" height="10.05"/><rect class="cls-2" x="145.78" y="110.58" width="9.11" height="10.05"/><rect class="cls-2" x="145.78" y="100.53" width="9.11" height="10.05"/><rect class="cls-2" x="145.78" y="90.47" width="9.11" height="10.06"/><rect class="cls-2" x="145.78" y="80.42" width="9.11" height="10.05"/><rect class="cls-2" x="145.78" y="70.37" width="9.11" height="10.05"/><rect class="cls-1" x="145.78" width="9.11" height="10.05"/><rect class="cls-2" x="136.66" y="70.37" width="9.12" height="10.05"/><rect class="cls-2" x="127.55" y="70.37" width="9.11" height="10.05"/><rect class="cls-1" x="127.55" y="50.26" width="9.11" height="10.05"/><rect class="cls-1" x="127.55" y="40.21" width="9.11" height="10.05"/><rect class="cls-1" x="127.55" y="30.15" width="9.11" height="10.06"/><rect class="cls-1" x="127.55" y="20.1" width="9.11" height="10.05"/><rect class="cls-1" x="127.55" y="10.05" width="9.11" height="10.05"/><rect class="cls-1" x="127.55" width="9.11" height="10.05"/><rect class="cls-1" x="118.45" width="9.11" height="10.05"/><rect class="cls-2" x="109.33" y="120.63" width="9.12" height="10.05"/><rect class="cls-2" x="109.33" y="110.58" width="9.12" height="10.05"/><rect class="cls-2" x="109.33" y="100.53" width="9.12" height="10.05"/><rect class="cls-2" x="109.33" y="90.47" width="9.12" height="10.06"/><rect class="cls-2" x="109.33" y="80.42" width="9.12" height="10.05"/><rect class="cls-2" x="109.33" y="70.37" width="9.12" height="10.05"/><rect class="cls-1" x="109.33" width="9.12" height="10.05"/><rect class="cls-2" x="100.22" y="120.63" width="9.11" height="10.05"/><rect class="cls-2" x="100.22" y="90.47" width="9.11" height="10.06"/><rect class="cls-2" x="100.22" y="70.37" width="9.11" height="10.05"/><rect class="cls-2" x="91.11" y="120.63" width="9.11" height="10.05"/><rect class="cls-2" x="91.11" y="90.47" width="9.11" height="10.06"/><rect class="cls-2" x="91.11" y="70.37" width="9.11" height="10.05"/><rect class="cls-2" x="81.99" y="120.63" width="9.12" height="10.05"/><rect class="cls-2" x="81.99" y="90.47" width="9.12" height="10.06"/><rect class="cls-2" x="81.99" y="70.37" width="9.12" height="10.05"/><rect class="cls-2" x="72.89" y="120.63" width="9.11" height="10.05"/><rect class="cls-2" x="72.89" y="90.47" width="9.11" height="10.06"/><rect class="cls-2" x="72.89" y="70.37" width="9.11" height="10.05"/><rect class="cls-2" x="63.78" y="110.58" width="9.11" height="10.05"/><rect class="cls-2" x="63.78" y="100.53" width="9.11" height="10.05"/><rect class="cls-2" x="45.55" y="110.58" width="9.12" height="10.05"/><rect class="cls-2" x="45.55" y="100.53" width="9.12" height="10.05"/><rect class="cls-2" x="45.55" y="90.47" width="9.12" height="10.06"/><rect class="cls-2" x="45.55" y="80.42" width="9.12" height="10.05"/><rect class="cls-2" x="36.44" y="120.63" width="9.11" height="10.05"/><rect class="cls-2" x="36.44" y="110.58" width="9.11" height="10.05"/><rect class="cls-2" x="36.44" y="80.42" width="9.11" height="10.05"/><rect class="cls-2" x="36.44" y="70.37" width="9.11" height="10.05"/><rect class="cls-2" x="27.33" y="120.63" width="9.11" height="10.05"/><rect class="cls-2" x="27.33" y="70.37" width="9.11" height="10.05"/><rect class="cls-2" x="18.22" y="120.63" width="9.12" height="10.05"/><rect class="cls-2" x="18.22" y="70.37" width="9.12" height="10.05"/><rect class="cls-2" x="9.11" y="120.63" width="9.11" height="10.05"/><rect class="cls-2" x="9.11" y="70.37" width="9.11" height="10.05"/></g></g></svg>