<svg xmlns="http://www.w3.org/2000/svg" viewBox="0 0 245.94 245.94"><defs><style>.cls-1{fill:#ff2648;}.cls-2{fill:#fff;}.cls-3{fill:#e5e5e5;}.cls-4{fill:#c4c4c4;}.cls-5{fill:#b5b5b5;}.cls-6{fill:#afafaf;}.cls-7{fill:#a3a3a3;}.cls-8{fill:#b9b9b9;}.cls-9{fill:#cdcdcd;}.cls-10{fill:#e7e7e7;}</style></defs><g id="Capa_2" data-name="Capa 2"><g id="logos"><rect class="cls-1" x="235.25" y="213.86" width="10.69" height="10.69"/><rect class="cls-1" x="235.25" y="203.17" width="10.69" height="10.69"/><rect class="cls-1" x="235.25" y="192.47" width="10.69" height="10.7"/><rect class="cls-1" x="235.25" y="181.78" width="10.69" height="10.69"/><rect class="cls-1" x="235.25" y="171.09" width="10.69" height="10.69"/><rect class="cls-1" x="235.25" y="160.4" width="10.69" height="10.69"/><rect class="cls-1" x="235.25" y="149.7" width="10.69" height="10.7"/><rect class="cls-1" x="235.25" y="139.01" width="10.69" height="10.69"/><rect class="cls-1" x="235.25" y="128.32" width="10.69" height="10.69"/><rect class="cls-1" x="235.25" y="117.62" width="10.69" height="10.7"/><rect class="cls-1" x="235.25" y="106.93" width="10.69" height="10.69"/><rect class="cls-1" x="235.25" y="96.24" width="10.69" height="10.69"/><rect class="cls-1" x="235.25" y="85.54" width="10.69" height="10.7"/><rect class="cls-1" x="235.25" y="74.85" width="10.69" height="10.69"/><rect class="cls-1" x="235.25" y="64.16" width="10.69" height="10.69"/><rect class="cls-1" x="235.25" y="53.47" width="10.69" height="10.69"/><rect class="cls-1" x="235.25" y="42.77" width="10.69" height="10.7"/><rect class="cls-1" x="235.25" y="32.08" width="10.69" height="10.69"/><rect class="cls-1" x="235.25" y="21.39" width="10.69" height="10.69"/><rect class="cls-1" x="224.55" y="224.55" width="10.7" height="10.7"/><rect class="cls-1" x="224.55" y="213.86" width="10.7" height="10.69"/><rect class="cls-1" x="224.55" y="203.17" width="10.7" height="10.69"/><rect class="cls-1" x="224.55" y="192.47" width="10.7" height="10.7"/><rect class="cls-1" x="224.55" y="181.78" width="10.7" height="10.69"/><rect class="cls-1" x="224.55" y="171.09" width="10.7" height="10.69"/><rect class="cls-1" x="224.55" y="160.4" width="10.7" height="10.69"/><rect class="cls-1" x="224.55" y="149.7" width="10.7" height="10.7"/><rect class="cls-1" x="224.55" y="139.01" width="10.7" height="10.69"/><rect class="cls-1" x="224.55" y="128.32" width="10.7" height="10.69"/><rect class="cls-2" x="224.55" y="117.62" width="10.7" height="10.7"/><rect class="cls-2" x="224.55" y="106.93" width="10.7" height="10.69"/><rect class="cls-2" x="224.55" y="96.24" width="10.7" height="10.69"/><rect class="cls-2" x="224.55" y="85.54" width="10.7" height="10.7"/><rect class="cls-2" x="224.55" y="74.85" width="10.7" height="10.69"/><rect class="cls-2" x="224.55" y="64.16" width="10.7" height="10.69"/><rect class="cls-2" x="224.55" y="53.47" width="10.7" height="10.69"/><rect class="cls-1" x="224.55" y="42.77" width="10.7" height="10.7"/><rect class="cls-1" x="224.55" y="32.08" width="10.7" height="10.69"/><rect class="cls-1" x="224.55" y="21.39" width="10.7" height="10.69"/><rect class="cls-1" x="224.55" y="10.69" width="10.7" height="10.7"/><rect class="cls-1" x="213.86" y="235.25" width="10.69" height="10.69"/><rect class="cls-1" x="213.86" y="224.55" width="10.69" height="10.7"/><rect class="cls-1" x="213.86" y="213.86" width="10.69" height="10.69"/><rect class="cls-1" x="213.86" y="203.17" width="10.69" height="10.69"/><rect class="cls-1" x="213.86" y="192.47" width="10.69" height="10.7"/><rect class="cls-1" x="213.86" y="181.78" width="10.69" height="10.69"/><rect class="cls-1" x="213.86" y="171.09" width="10.69" height="10.69"/><rect class="cls-1" x="213.86" y="160.4" width="10.69" height="10.69"/><rect class="cls-1" x="213.86" y="149.7" width="10.69" height="10.7"/><rect class="cls-1" x="213.86" y="139.01" width="10.69" height="10.69"/><rect class="cls-2" x="213.86" y="128.32" width="10.69" height="10.69"/><polygon class="cls-2" points="224.55 117.62 224.55 128.32 213.86 128.32 213.86 139.01 203.17 139.01 203.17 149.7 192.47 149.7 181.78 149.7 181.78 139.01 181.78 128.32 192.47 128.32 192.47 117.62 203.17 117.62 203.17 106.93 213.86 106.93 213.86 96.24 213.86 85.54 203.17 85.54 203.17 74.85 203.17 64.16 192.47 64.16 192.47 53.47 181.78 53.47 181.78 42.77 171.09 42.77 160.4 42.77 149.7 42.77 139.01 42.77 139.01 53.47 128.32 53.47 128.32 64.16 117.62 64.16 117.62 74.85 117.62 85.54 117.62 96.24 128.32 96.24 128.32 106.93 128.32 117.62 139.01 117.62 139.01 128.32 139.01 139.01 139.01 149.7 149.7 149.7 149.7 160.4 149.7 171.09 139.01 171.09 139.01 181.78 139.01 192.47 128.32 192.47 128.32 203.17 117.62 203.17 117.62 213.86 106.93 213.86 96.24 213.86 96.24 224.55 85.54 224.55 74.85 224.55 64.16 224.55 64.16 213.86 53.47 213.86 42.77 213.86 42.77 203.17 32.08 203.17 32.08 192.47 21.39 192.47 21.39 181.78 21.39 171.09 21.39 160.4 21.39 149.7 21.39 139.01 21.39 128.32 21.39 117.62 32.08 117.62 32.08 106.93 42.77 106.93 42.77 96.24 53.47 96.24 64.16 96.24 64.16 106.93 64.16 117.62 53.47 117.62 42.77 117.62 42.77 128.32 32.08 128.32 32.08 139.01 32.08 149.7 32.08 160.4 42.77 160.4 42.77 171.09 42.77 181.78 53.47 181.78 53.47 192.47 64.16 192.47 64.16 203.17 74.85 203.17 85.54 203.17 96.24 203.17 106.93 203.17 106.93 192.47 117.62 192.47 117.62 181.78 128.32 181.78 128.32 171.09 128.32 160.4 128.32 149.7 128.32 139.01 117.62 139.01 117.62 128.32 106.93 128.32 106.93 117.62 106.93 106.93 106.93 96.24 96.24 96.24 96.24 85.54 96.24 74.85 96.24 64.16 106.93 64.16 106.93 53.47 106.93 42.77 117.62 42.77 117.62 32.08 128.32 32.08 139.01 32.08 149.7 32.08 149.7 21.39 160.4 21.39 171.09 21.39 181.78 21.39 181.78 32.08 192.47 32.08 203.17 32.08 203.17 42.77 213.86 42.77 213.86 53.47 224.55 53.47 224.55 64.16 224.55 74.85 224.55 85.54 224.55 96.24 224.55 106.93 224.55 117.62"/><rect class="cls-2" x="213.86" y="42.77" width="10.69" height="10.7"/><rect class="cls-1" x="213.86" y="32.08" width="10.69" height="10.69"/><rect class="cls-1" x="213.86" y="21.39" width="10.69" height="10.69"/><rect class="cls-1" x="213.86" y="10.69" width="10.69" height="10.7"/><rect class="cls-1" x="213.86" width="10.69" height="10.69"/><rect class="cls-1" x="203.17" y="235.25" width="10.69" height="10.69"/><rect class="cls-1" x="203.17" y="224.55" width="10.69" height="10.7"/><rect class="cls-1" x="203.17" y="213.86" width="10.69" height="10.69"/><rect class="cls-1" x="203.17" y="203.17" width="10.69" height="10.69"/><rect class="cls-1" x="203.17" y="192.47" width="10.69" height="10.7"/><rect class="cls-1" x="203.17" y="181.78" width="10.69" height="10.69"/><rect class="cls-1" x="203.17" y="171.09" width="10.69" height="10.69"/><rect class="cls-1" x="203.17" y="160.4" width="10.69" height="10.69"/><rect class="cls-1" x="203.17" y="149.7" width="10.69" height="10.7"/><rect class="cls-2" x="203.17" y="139.01" width="10.69" height="10.69"/><rect class="cls-2" x="203.17" y="96.24" width="10.69" height="10.69"/><rect class="cls-2" x="203.17" y="85.54" width="10.69" height="10.7"/><rect class="cls-2" x="203.17" y="32.08" width="10.69" height="10.69"/><rect class="cls-1" x="203.17" y="21.39" width="10.69" height="10.69"/><rect class="cls-1" x="203.17" y="10.69" width="10.69" height="10.7"/><rect class="cls-1" x="203.17" width="10.69" height="10.69"/><rect class="cls-1" x="192.47" y="235.25" width="10.7" height="10.69"/><rect class="cls-1" x="192.47" y="224.55" width="10.7" height="10.7"/><rect class="cls-1" x="192.47" y="213.86" width="10.7" height="10.69"/><rect class="cls-1" x="192.47" y="203.17" width="10.7" height="10.69"/><rect class="cls-1" x="192.47" y="192.47" width="10.7" height="10.7"/><rect class="cls-1" x="192.47" y="181.78" width="10.7" height="10.69"/><rect class="cls-1" x="192.47" y="171.09" width="10.7" height="10.69"/><rect class="cls-1" x="192.47" y="160.4" width="10.7" height="10.69"/><rect class="cls-2" x="192.47" y="149.7" width="10.7" height="10.7"/><rect class="cls-2" x="192.47" y="106.93" width="10.7" height="10.69"/><rect class="cls-1" x="192.47" y="96.24" width="10.7" height="10.69"/><rect class="cls-1" x="192.47" y="85.54" width="10.7" height="10.7"/><rect class="cls-2" x="192.47" y="74.85" width="10.7" height="10.69"/><rect class="cls-2" x="192.47" y="64.16" width="10.7" height="10.69"/><rect class="cls-2" x="192.47" y="21.39" width="10.7" height="10.69"/><rect class="cls-1" x="192.47" y="10.69" width="10.7" height="10.7"/><rect class="cls-1" x="192.47" width="10.7" height="10.69"/><rect class="cls-1" x="181.78" y="235.25" width="10.69" height="10.69"/><rect class="cls-1" x="181.78" y="224.55" width="10.69" height="10.7"/><rect class="cls-1" x="181.78" y="213.86" width="10.69" height="10.69"/><rect class="cls-1" x="181.78" y="203.17" width="10.69" height="10.69"/><rect class="cls-1" x="181.78" y="192.47" width="10.69" height="10.7"/><rect class="cls-1" x="181.78" y="181.78" width="10.69" height="10.69"/><rect class="cls-1" x="181.78" y="171.09" width="10.69" height="10.69"/><rect class="cls-1" x="181.78" y="160.4" width="10.69" height="10.69"/><rect class="cls-2" x="181.78" y="149.7" width="10.69" height="10.7"/><rect class="cls-2" x="181.78" y="117.62" width="10.69" height="10.7"/><rect class="cls-1" x="181.78" y="106.93" width="10.69" height="10.69"/><rect class="cls-1" x="181.78" y="96.24" width="10.69" height="10.69"/><rect class="cls-1" x="181.78" y="85.54" width="10.69" height="10.7"/><rect class="cls-1" x="181.78" y="74.85" width="10.69" height="10.69"/><rect class="cls-1" x="181.78" y="64.16" width="10.69" height="10.69"/><rect class="cls-2" x="181.78" y="53.47" width="10.69" height="10.69"/><rect class="cls-2" x="181.78" y="21.39" width="10.69" height="10.69"/><rect class="cls-1" x="181.78" y="10.69" width="10.69" height="10.7"/><rect class="cls-1" x="181.78" width="10.69" height="10.69"/><rect class="cls-1" x="171.09" y="235.25" width="10.69" height="10.69"/><rect class="cls-1" x="171.09" y="224.55" width="10.69" height="10.7"/><rect class="cls-1" x="171.09" y="213.86" width="10.69" height="10.69"/><rect class="cls-1" x="171.09" y="203.17" width="10.69" height="10.69"/><rect class="cls-1" x="171.09" y="192.47" width="10.69" height="10.7"/><rect class="cls-1" x="171.09" y="181.78" width="10.69" height="10.69"/><rect class="cls-1" x="171.09" y="171.09" width="10.69" height="10.69"/><rect class="cls-1" x="171.09" y="160.4" width="10.69" height="10.69"/><rect class="cls-3" x="171.09" y="149.7" width="10.69" height="10.7"/><rect class="cls-3" x="171.09" y="139.01" width="10.69" height="10.69"/><rect class="cls-3" x="171.09" y="128.32" width="10.69" height="10.69"/><rect class="cls-1" x="171.09" y="117.62" width="10.69" height="10.7"/><rect class="cls-1" x="171.09" y="106.93" width="10.69" height="10.69"/><rect class="cls-1" x="171.09" y="96.24" width="10.69" height="10.69"/><rect class="cls-1" x="171.09" y="85.54" width="10.69" height="10.7"/><rect class="cls-1" x="171.09" y="74.85" width="10.69" height="10.69"/><rect class="cls-1" x="171.09" y="64.16" width="10.69" height="10.69"/><rect class="cls-1" x="171.09" y="53.47" width="10.69" height="10.69"/><rect class="cls-2" x="171.09" y="42.77" width="10.69" height="10.7"/><rect class="cls-2" x="171.09" y="10.69" width="10.69" height="10.7"/><rect class="cls-1" x="171.09" width="10.69" height="10.69"/><rect class="cls-1" x="160.4" y="235.25" width="10.69" height="10.69"/><rect class="cls-1" x="160.4" y="224.55" width="10.69" height="10.7"/><rect class="cls-1" x="160.4" y="213.86" width="10.69" height="10.69"/><rect class="cls-1" x="160.4" y="203.17" width="10.69" height="10.69"/><rect class="cls-1" x="160.4" y="192.47" width="10.69" height="10.7"/><rect class="cls-1" x="160.4" y="181.78" width="10.69" height="10.69"/><rect class="cls-1" x="160.4" y="171.09" width="10.69" height="10.69"/><rect class="cls-1" x="160.4" y="160.4" width="10.69" height="10.69"/><rect class="cls-4" x="160.4" y="149.7" width="10.69" height="10.7"/><rect class="cls-4" x="160.4" y="139.01" width="10.69" height="10.69"/><rect class="cls-4" x="160.4" y="128.32" width="10.69" height="10.69"/><rect class="cls-1" x="160.4" y="117.62" width="10.69" height="10.7"/><rect class="cls-1" x="160.4" y="106.93" width="10.69" height="10.69"/><rect class="cls-1" x="160.4" y="96.24" width="10.69" height="10.69"/><rect class="cls-1" x="160.4" y="85.54" width="10.69" height="10.7"/><rect class="cls-1" x="160.4" y="74.85" width="10.69" height="10.69"/><rect class="cls-1" x="160.4" y="64.16" width="10.69" height="10.69"/><rect class="cls-1" x="160.4" y="53.47" width="10.69" height="10.69"/><rect class="cls-2" x="160.4" y="42.77" width="10.69" height="10.7"/><rect class="cls-2" x="160.4" y="10.69" width="10.69" height="10.7"/><rect class="cls-1" x="160.4" width="10.69" height="10.69"/><rect class="cls-1" x="149.7" y="235.25" width="10.7" height="10.69"/><rect class="cls-1" x="149.7" y="224.55" width="10.7" height="10.7"/><rect class="cls-1" x="149.7" y="213.86" width="10.7" height="10.69"/><rect class="cls-1" x="149.7" y="203.17" width="10.7" height="10.69"/><rect class="cls-1" x="149.7" y="192.47" width="10.7" height="10.7"/><rect class="cls-1" x="149.7" y="181.78" width="10.7" height="10.69"/><rect class="cls-1" x="149.7" y="171.09" width="10.7" height="10.69"/><rect class="cls-2" x="149.7" y="160.4" width="10.7" height="10.69"/><rect class="cls-2" x="149.7" y="149.7" width="10.7" height="10.7"/><rect class="cls-5" x="149.7" y="139.01" width="10.7" height="10.69"/><rect class="cls-6" x="149.7" y="128.32" width="10.7" height="10.69"/><rect class="cls-6" x="149.7" y="117.62" width="10.7" height="10.7"/><rect class="cls-1" x="149.7" y="106.93" width="10.7" height="10.69"/><rect class="cls-1" x="149.7" y="96.24" width="10.7" height="10.69"/><rect class="cls-1" x="149.7" y="85.54" width="10.7" height="10.7"/><rect class="cls-1" x="149.7" y="74.85" width="10.7" height="10.69"/><rect class="cls-1" x="149.7" y="64.16" width="10.7" height="10.69"/><rect class="cls-1" x="149.7" y="53.47" width="10.7" height="10.69"/><rect class="cls-2" x="149.7" y="42.77" width="10.7" height="10.7"/><rect class="cls-2" x="149.7" y="10.69" width="10.7" height="10.7"/><rect class="cls-1" x="149.7" width="10.7" height="10.69"/><rect class="cls-1" x="139.01" y="235.25" width="10.69" height="10.69"/><rect class="cls-1" x="139.01" y="224.55" width="10.69" height="10.7"/><rect class="cls-1" x="139.01" y="213.86" width="10.69" height="10.69"/><rect class="cls-1" x="139.01" y="203.17" width="10.69" height="10.69"/><rect class="cls-2" x="139.01" y="192.47" width="10.69" height="10.7"/><rect class="cls-2" x="139.01" y="181.78" width="10.69" height="10.69"/><rect class="cls-2" x="139.01" y="171.09" width="10.69" height="10.69"/><rect class="cls-2" x="139.01" y="139.01" width="10.69" height="10.69"/><rect class="cls-2" x="139.01" y="128.32" width="10.69" height="10.69"/><rect class="cls-2" x="139.01" y="117.62" width="10.69" height="10.7"/><rect class="cls-1" x="139.01" y="106.93" width="10.69" height="10.69"/><rect class="cls-1" x="139.01" y="96.24" width="10.69" height="10.69"/><rect class="cls-1" x="139.01" y="85.54" width="10.69" height="10.7"/><rect class="cls-1" x="139.01" y="74.85" width="10.69" height="10.69"/><rect class="cls-1" x="139.01" y="64.16" width="10.69" height="10.69"/><rect class="cls-1" x="139.01" y="53.47" width="10.69" height="10.69"/><rect class="cls-2" x="139.01" y="42.77" width="10.69" height="10.7"/><rect class="cls-2" x="139.01" y="21.39" width="10.69" height="10.69"/><rect class="cls-2" x="139.01" y="10.69" width="10.69" height="10.7"/><rect class="cls-1" x="139.01" width="10.69" height="10.69"/><rect class="cls-1" x="128.32" y="235.25" width="10.69" height="10.69"/><rect class="cls-1" x="128.32" y="224.55" width="10.69" height="10.7"/><rect class="cls-1" x="128.32" y="213.86" width="10.69" height="10.69"/><rect class="cls-2" x="128.32" y="203.17" width="10.69" height="10.69"/><rect class="cls-2" x="128.32" y="192.47" width="10.69" height="10.7"/><rect class="cls-2" x="128.32" y="106.93" width="10.69" height="10.69"/><rect class="cls-2" x="128.32" y="96.24" width="10.69" height="10.69"/><rect class="cls-1" x="128.32" y="85.54" width="10.69" height="10.7"/><rect class="cls-1" x="128.32" y="74.85" width="10.69" height="10.69"/><rect class="cls-1" x="128.32" y="64.16" width="10.69" height="10.69"/><rect class="cls-2" x="128.32" y="53.47" width="10.69" height="10.69"/><rect class="cls-2" x="128.32" y="21.39" width="10.69" height="10.69"/><rect class="cls-1" x="128.32" y="10.69" width="10.69" height="10.7"/><rect class="cls-1" x="128.32" width="10.69" height="10.69"/><rect class="cls-1" x="117.62" y="235.25" width="10.7" height="10.69"/><rect class="cls-1" x="117.62" y="224.55" width="10.7" height="10.7"/><rect class="cls-1" x="117.62" y="213.86" width="10.7" height="10.69"/><rect class="cls-2" x="117.62" y="203.17" width="10.7" height="10.69"/><rect class="cls-2" x="117.62" y="171.09" width="10.7" height="10.69"/><rect class="cls-2" x="117.62" y="160.4" width="10.7" height="10.69"/><rect class="cls-2" x="117.62" y="149.7" width="10.7" height="10.7"/><rect class="cls-2" x="117.62" y="139.01" width="10.7" height="10.69"/><rect class="cls-2" x="117.62" y="85.54" width="10.7" height="10.7"/><rect class="cls-2" x="117.62" y="74.85" width="10.7" height="10.69"/><rect class="cls-2" x="117.62" y="64.16" width="10.7" height="10.69"/><rect class="cls-2" x="117.62" y="21.39" width="10.7" height="10.69"/><rect class="cls-1" x="117.62" y="10.69" width="10.7" height="10.7"/><rect class="cls-1" x="117.62" width="10.7" height="10.69"/><rect class="cls-1" x="106.93" y="235.25" width="10.69" height="10.69"/><rect class="cls-1" x="106.93" y="224.55" width="10.69" height="10.7"/><rect class="cls-2" x="106.93" y="213.86" width="10.69" height="10.69"/><rect class="cls-2" x="106.93" y="181.78" width="10.69" height="10.69"/><rect class="cls-1" x="106.93" y="171.09" width="10.69" height="10.69"/><rect class="cls-1" x="106.93" y="160.4" width="10.69" height="10.69"/><rect class="cls-1" x="106.93" y="149.7" width="10.69" height="10.7"/><rect class="cls-1" x="106.93" y="139.01" width="10.69" height="10.69"/><rect class="cls-2" x="106.93" y="128.32" width="10.69" height="10.69"/><rect class="cls-2" x="106.93" y="32.08" width="10.69" height="10.69"/><rect class="cls-1" x="106.93" y="21.39" width="10.69" height="10.69"/><rect class="cls-1" x="106.93" y="10.69" width="10.69" height="10.7"/><rect class="cls-1" x="106.93" width="10.69" height="10.69"/><rect class="cls-1" x="96.24" y="235.25" width="10.69" height="10.69"/><rect class="cls-1" x="96.24" y="224.55" width="10.69" height="10.7"/><rect class="cls-2" x="96.24" y="213.86" width="10.69" height="10.69"/><rect class="cls-2" x="96.24" y="192.47" width="10.69" height="10.7"/><rect class="cls-1" x="96.24" y="181.78" width="10.69" height="10.69"/><rect class="cls-1" x="96.24" y="171.09" width="10.69" height="10.69"/><rect class="cls-1" x="96.24" y="160.4" width="10.69" height="10.69"/><rect class="cls-1" x="96.24" y="149.7" width="10.69" height="10.7"/><rect class="cls-1" x="96.24" y="139.01" width="10.69" height="10.69"/><rect class="cls-1" x="96.24" y="128.32" width="10.69" height="10.69"/><rect class="cls-7" x="96.24" y="117.62" width="10.69" height="10.7"/><rect class="cls-2" x="96.24" y="106.93" width="10.69" height="10.69"/><rect class="cls-2" x="96.24" y="96.24" width="10.69" height="10.69"/><rect class="cls-2" x="96.24" y="53.47" width="10.69" height="10.69"/><rect class="cls-2" x="96.24" y="42.77" width="10.69" height="10.7"/><rect class="cls-1" x="96.24" y="32.08" width="10.69" height="10.69"/><rect class="cls-1" x="96.24" y="21.39" width="10.69" height="10.69"/><rect class="cls-1" x="96.24" y="10.69" width="10.69" height="10.7"/><rect class="cls-1" x="96.24" width="10.69" height="10.69"/><rect class="cls-1" x="85.54" y="235.25" width="10.7" height="10.69"/><rect class="cls-2" x="85.54" y="224.55" width="10.7" height="10.7"/><rect class="cls-2" x="85.54" y="192.47" width="10.7" height="10.7"/><rect class="cls-1" x="85.54" y="181.78" width="10.7" height="10.69"/><rect class="cls-1" x="85.54" y="171.09" width="10.7" height="10.69"/><rect class="cls-1" x="85.54" y="160.4" width="10.7" height="10.69"/><rect class="cls-1" x="85.54" y="149.7" width="10.7" height="10.7"/><rect class="cls-1" x="85.54" y="139.01" width="10.7" height="10.69"/><rect class="cls-1" x="85.54" y="128.32" width="10.7" height="10.69"/><rect class="cls-8" x="85.54" y="117.62" width="10.7" height="10.7"/><rect class="cls-8" x="85.54" y="106.93" width="10.7" height="10.69"/><rect class="cls-8" x="85.54" y="96.24" width="10.7" height="10.69"/><rect class="cls-2" x="85.54" y="85.54" width="10.7" height="10.7"/><rect class="cls-2" x="85.54" y="74.85" width="10.7" height="10.69"/><rect class="cls-2" x="85.54" y="64.16" width="10.7" height="10.69"/><rect class="cls-1" x="85.54" y="53.47" width="10.7" height="10.69"/><rect class="cls-1" x="85.54" y="42.77" width="10.7" height="10.7"/><rect class="cls-1" x="85.54" y="32.08" width="10.7" height="10.69"/><rect class="cls-1" x="85.54" y="21.39" width="10.7" height="10.69"/><rect class="cls-1" x="85.54" y="10.69" width="10.7" height="10.7"/><rect class="cls-1" x="85.54" width="10.7" height="10.69"/><rect class="cls-1" x="74.85" y="235.25" width="10.69" height="10.69"/><rect class="cls-2" x="74.85" y="224.55" width="10.69" height="10.7"/><rect class="cls-2" x="74.85" y="192.47" width="10.69" height="10.7"/><rect class="cls-1" x="74.85" y="181.78" width="10.69" height="10.69"/><rect class="cls-1" x="74.85" y="171.09" width="10.69" height="10.69"/><rect class="cls-1" x="74.85" y="160.4" width="10.69" height="10.69"/><rect class="cls-1" x="74.85" y="149.7" width="10.69" height="10.7"/><rect class="cls-1" x="74.85" y="139.01" width="10.69" height="10.69"/><rect class="cls-1" x="74.85" y="128.32" width="10.69" height="10.69"/><rect class="cls-1" x="74.85" y="117.62" width="10.69" height="10.7"/><rect class="cls-9" x="74.85" y="106.93" width="10.69" height="10.69"/><rect class="cls-9" x="74.85" y="96.24" width="10.69" height="10.69"/><rect class="cls-9" x="74.85" y="85.54" width="10.69" height="10.7"/><rect class="cls-1" x="74.85" y="74.85" width="10.69" height="10.69"/><rect class="cls-1" x="74.85" y="64.16" width="10.69" height="10.69"/><rect class="cls-1" x="74.85" y="53.47" width="10.69" height="10.69"/><rect class="cls-1" x="74.85" y="42.77" width="10.69" height="10.7"/><rect class="cls-1" x="74.85" y="32.08" width="10.69" height="10.69"/><rect class="cls-1" x="74.85" y="21.39" width="10.69" height="10.69"/><rect class="cls-1" x="74.85" y="10.69" width="10.69" height="10.7"/><rect class="cls-1" x="74.85" width="10.69" height="10.69"/><rect class="cls-1" x="64.16" y="235.25" width="10.69" height="10.69"/><rect class="cls-2" x="64.16" y="224.55" width="10.69" height="10.7"/><rect class="cls-2" x="64.16" y="192.47" width="10.69" height="10.7"/><rect class="cls-1" x="64.16" y="181.78" width="10.69" height="10.69"/><rect class="cls-1" x="64.16" y="171.09" width="10.69" height="10.69"/><rect class="cls-1" x="64.16" y="160.4" width="10.69" height="10.69"/><rect class="cls-1" x="64.16" y="149.7" width="10.69" height="10.7"/><rect class="cls-1" x="64.16" y="139.01" width="10.69" height="10.69"/><rect class="cls-1" x="64.16" y="128.32" width="10.69" height="10.69"/><rect class="cls-1" x="64.16" y="117.62" width="10.69" height="10.7"/><rect class="cls-10" x="64.16" y="106.93" width="10.69" height="10.69"/><rect class="cls-10" x="64.16" y="96.24" width="10.69" height="10.69"/><rect class="cls-10" x="64.16" y="85.54" width="10.69" height="10.7"/><rect class="cls-1" x="64.16" y="74.85" width="10.69" height="10.69"/><rect class="cls-1" x="64.16" y="64.16" width="10.69" height="10.69"/><rect class="cls-1" x="64.16" y="53.47" width="10.69" height="10.69"/><rect class="cls-1" x="64.16" y="42.77" width="10.69" height="10.7"/><rect class="cls-1" x="64.16" y="32.08" width="10.69" height="10.69"/><rect class="cls-1" x="64.16" y="21.39" width="10.69" height="10.69"/><rect class="cls-1" x="64.16" y="10.69" width="10.69" height="10.7"/><rect class="cls-1" x="64.16" width="10.69" height="10.69"/><rect class="cls-1" x="53.47" y="235.25" width="10.69" height="10.69"/><rect class="cls-1" x="53.47" y="224.55" width="10.69" height="10.7"/><rect class="cls-2" x="53.47" y="213.86" width="10.69" height="10.69"/><rect class="cls-2" x="53.47" y="181.78" width="10.69" height="10.69"/><rect class="cls-1" x="53.47" y="171.09" width="10.69" height="10.69"/><rect class="cls-1" x="53.47" y="160.4" width="10.69" height="10.69"/><rect class="cls-1" x="53.47" y="149.7" width="10.69" height="10.7"/><rect class="cls-1" x="53.47" y="139.01" width="10.69" height="10.69"/><rect class="cls-1" x="53.47" y="128.32" width="10.69" height="10.69"/><rect class="cls-2" x="53.47" y="117.62" width="10.69" height="10.7"/><rect class="cls-2" x="53.47" y="85.54" width="10.69" height="10.7"/><rect class="cls-1" x="53.47" y="74.85" width="10.69" height="10.69"/><rect class="cls-1" x="53.47" y="64.16" width="10.69" height="10.69"/><rect class="cls-1" x="53.47" y="53.47" width="10.69" height="10.69"/><rect class="cls-1" x="53.47" y="42.77" width="10.69" height="10.7"/><rect class="cls-1" x="53.47" y="32.08" width="10.69" height="10.69"/><rect class="cls-1" x="53.47" y="21.39" width="10.69" height="10.69"/><rect class="cls-1" x="53.47" y="10.69" width="10.69" height="10.7"/><rect class="cls-1" x="53.47" width="10.69" height="10.69"/><rect class="cls-1" x="42.77" y="235.25" width="10.7" height="10.69"/><rect class="cls-1" x="42.77" y="224.55" width="10.7" height="10.7"/><rect class="cls-2" x="42.77" y="213.86" width="10.7" height="10.69"/><rect class="cls-2" x="42.77" y="171.09" width="10.7" height="10.69"/><rect class="cls-2" x="42.77" y="160.4" width="10.7" height="10.69"/><rect class="cls-1" x="42.77" y="149.7" width="10.7" height="10.7"/><rect class="cls-1" x="42.77" y="139.01" width="10.7" height="10.69"/><rect class="cls-2" x="42.77" y="128.32" width="10.7" height="10.69"/><rect class="cls-2" x="42.77" y="117.62" width="10.7" height="10.7"/><rect class="cls-2" x="42.77" y="85.54" width="10.7" height="10.7"/><rect class="cls-1" x="42.77" y="74.85" width="10.7" height="10.69"/><rect class="cls-1" x="42.77" y="64.16" width="10.7" height="10.69"/><rect class="cls-1" x="42.77" y="53.47" width="10.7" height="10.69"/><rect class="cls-1" x="42.77" y="42.77" width="10.7" height="10.7"/><rect class="cls-1" x="42.77" y="32.08" width="10.7" height="10.69"/><rect class="cls-1" x="42.77" y="21.39" width="10.7" height="10.69"/><rect class="cls-1" x="42.77" y="10.69" width="10.7" height="10.7"/><rect class="cls-1" x="42.77" width="10.7" height="10.69"/><rect class="cls-1" x="32.08" y="235.25" width="10.69" height="10.69"/><rect class="cls-1" x="32.08" y="224.55" width="10.69" height="10.7"/><rect class="cls-1" x="32.08" y="213.86" width="10.69" height="10.69"/><rect class="cls-2" x="32.08" y="203.17" width="10.69" height="10.69"/><rect class="cls-2" x="32.08" y="149.7" width="10.69" height="10.7"/><rect class="cls-2" x="32.08" y="139.01" width="10.69" height="10.69"/><rect class="cls-2" x="32.08" y="128.32" width="10.69" height="10.69"/><rect class="cls-2" x="32.08" y="96.24" width="10.69" height="10.69"/><rect class="cls-1" x="32.08" y="85.54" width="10.69" height="10.7"/><rect class="cls-1" x="32.08" y="74.85" width="10.69" height="10.69"/><rect class="cls-1" x="32.08" y="64.16" width="10.69" height="10.69"/><rect class="cls-1" x="32.08" y="53.47" width="10.69" height="10.69"/><rect class="cls-1" x="32.08" y="42.77" width="10.69" height="10.7"/><rect class="cls-1" x="32.08" y="32.08" width="10.69" height="10.69"/><rect class="cls-1" x="32.08" y="21.39" width="10.69" height="10.69"/><rect class="cls-1" x="32.08" y="10.69" width="10.69" height="10.7"/><rect class="cls-1" x="32.08" width="10.69" height="10.69"/><rect class="cls-1" x="21.39" y="235.25" width="10.69" height="10.69"/><rect class="cls-1" x="21.39" y="224.55" width="10.69" height="10.7"/><rect class="cls-1" x="21.39" y="213.86" width="10.69" height="10.69"/><rect class="cls-1" x="21.39" y="203.17" width="10.69" height="10.69"/><rect class="cls-2" x="21.39" y="192.47" width="10.69" height="10.7"/><rect class="cls-2" x="21.39" y="106.93" width="10.69" height="10.69"/><rect class="cls-1" x="21.39" y="96.24" width="10.69" height="10.69"/><rect class="cls-1" x="21.39" y="85.54" width="10.69" height="10.7"/><rect class="cls-1" x="21.39" y="74.85" width="10.69" height="10.69"/><rect class="cls-1" x="21.39" y="64.16" width="10.69" height="10.69"/><rect class="cls-1" x="21.39" y="53.47" width="10.69" height="10.69"/><rect class="cls-1" x="21.39" y="42.77" width="10.69" height="10.7"/><rect class="cls-1" x="21.39" y="32.08" width="10.69" height="10.69"/><rect class="cls-1" x="21.39" y="21.39" width="10.69" height="10.69"/><rect class="cls-1" x="21.39" y="10.69" width="10.69" height="10.7"/><rect class="cls-1" x="21.39" width="10.69" height="10.69"/><rect class="cls-1" x="10.69" y="224.55" width="10.7" height="10.7"/><rect class="cls-1" x="10.69" y="213.86" width="10.7" height="10.69"/><rect class="cls-1" x="10.69" y="203.17" width="10.7" height="10.69"/><rect class="cls-1" x="10.69" y="192.47" width="10.7" height="10.7"/><rect class="cls-2" x="10.69" y="181.78" width="10.7" height="10.69"/><rect class="cls-2" x="10.69" y="171.09" width="10.7" height="10.69"/><rect class="cls-2" x="10.69" y="160.4" width="10.7" height="10.69"/><rect class="cls-2" x="10.69" y="149.7" width="10.7" height="10.7"/><rect class="cls-2" x="10.69" y="139.01" width="10.7" height="10.69"/><rect class="cls-2" x="10.69" y="128.32" width="10.7" height="10.69"/><rect class="cls-2" x="10.69" y="117.62" width="10.7" height="10.7"/><rect class="cls-1" x="10.69" y="106.93" width="10.7" height="10.69"/><rect class="cls-1" x="10.69" y="96.24" width="10.7" height="10.69"/><rect class="cls-1" x="10.69" y="85.54" width="10.7" height="10.7"/><rect class="cls-1" x="10.69" y="74.85" width="10.7" height="10.69"/><rect class="cls-1" x="10.69" y="64.16" width="10.7" height="10.69"/><rect class="cls-1" x="10.69" y="53.47" width="10.7" height="10.69"/><rect class="cls-1" x="10.69" y="42.77" width="10.7" height="10.7"/><rect class="cls-1" x="10.69" y="32.08" width="10.7" height="10.69"/><rect class="cls-1" x="10.69" y="21.39" width="10.7" height="10.69"/><rect class="cls-1" x="10.69" y="10.69" width="10.7" height="10.7"/><rect class="cls-1" y="213.86" width="10.69" height="10.69"/><rect class="cls-1" y="203.17" width="10.69" height="10.69"/><rect class="cls-1" y="192.47" width="10.69" height="10.7"/><rect class="cls-1" y="181.78" width="10.69" height="10.69"/><rect class="cls-1" y="171.09" width="10.69" height="10.69"/><rect class="cls-1" y="160.4" width="10.69" height="10.69"/><rect class="cls-1" y="149.7" width="10.69" height="10.7"/><rect class="cls-1" y="139.01" width="10.69" height="10.69"/><rect class="cls-1" y="128.32" width="10.69" height="10.69"/><rect class="cls-1" y="117.62" width="10.69" height="10.7"/><rect class="cls-1" y="106.93" width="10.69" height="10.69"/><rect class="cls-1" y="96.24" width="10.69" height="10.69"/><rect class="cls-1" y="85.54" width="10.69" height="10.7"/><rect class="cls-1" y="74.85" width="10.69" height="10.69"/><rect class="cls-1" y="64.16" width="10.69" height="10.69"/><rect class="cls-1" y="53.47" width="10.69" height="10.69"/><rect class="cls-1" y="42.77" width="10.69" height="10.7"/><rect class="cls-1" y="32.08" width="10.69" height="10.69"/><rect class="cls-1" y="21.39" width="10.69" height="10.69"/></g></g></svg>