<svg xmlns="http://www.w3.org/2000/svg" viewBox="0 0 245.94 96.24"><defs><style>.cls-1{fill:#700056;}</style></defs><g id="Capa_2" data-name="Capa 2"><g id="logos"><rect class="cls-1" x="235.25" y="42.77" width="10.69" height="10.7"/><rect class="cls-1" x="235.25" y="32.08" width="10.69" height="10.69"/><rect class="cls-1" x="224.55" y="64.16" width="10.7" height="10.69"/><rect class="cls-1" x="224.55" y="42.77" width="10.7" height="10.7"/><rect class="cls-1" x="224.55" y="21.39" width="10.7" height="10.69"/><rect class="cls-1" x="213.86" y="64.16" width="10.69" height="10.69"/><rect class="cls-1" x="213.86" y="42.77" width="10.69" height="10.7"/><rect class="cls-1" x="213.86" y="21.39" width="10.69" height="10.69"/><rect class="cls-1" x="203.17" y="53.47" width="10.69" height="10.69"/><rect class="cls-1" x="203.17" y="42.77" width="10.69" height="10.7"/><rect class="cls-1" x="203.17" y="32.08" width="10.69" height="10.69"/><rect class="cls-1" x="192.47" y="53.47" width="10.7" height="10.69"/><rect class="cls-1" x="192.47" y="42.77" width="10.7" height="10.7"/><rect class="cls-1" x="192.47" width="10.7" height="10.69"/><rect class="cls-1" x="181.78" y="21.39" width="10.69" height="10.69"/><rect class="cls-1" x="181.78" width="10.69" height="10.69"/><rect class="cls-1" x="171.09" y="74.85" width="10.69" height="10.7"/><rect class="cls-1" x="171.09" y="64.16" width="10.69" height="10.69"/><rect class="cls-1" x="171.09" y="53.47" width="10.69" height="10.69"/><rect class="cls-1" x="171.09" y="42.77" width="10.69" height="10.7"/><rect class="cls-1" x="171.09" y="32.08" width="10.69" height="10.69"/><rect class="cls-1" x="171.09" y="21.39" width="10.69" height="10.69"/><rect class="cls-1" x="171.09" y="10.69" width="10.69" height="10.7"/><rect class="cls-1" x="160.4" y="85.55" width="10.69" height="10.69"/><rect class="cls-1" x="160.4" y="74.85" width="10.69" height="10.7"/><rect class="cls-1" x="160.4" y="64.16" width="10.69" height="10.69"/><rect class="cls-1" x="160.4" y="53.47" width="10.69" height="10.69"/><rect class="cls-1" x="149.7" y="85.55" width="10.7" height="10.69"/><rect class="cls-1" x="149.7" y="42.77" width="10.7" height="10.7"/><rect class="cls-1" x="149.7" y="32.08" width="10.7" height="10.69"/><rect class="cls-1" x="139.01" y="85.55" width="10.69" height="10.69"/><rect class="cls-1" x="139.01" y="53.47" width="10.69" height="10.69"/><rect class="cls-1" x="139.01" y="42.77" width="10.69" height="10.7"/><rect class="cls-1" x="139.01" y="32.08" width="10.69" height="10.69"/><rect class="cls-1" x="128.32" y="21.39" width="10.69" height="10.69"/><rect class="cls-1" x="117.62" y="21.39" width="10.7" height="10.69"/><rect class="cls-1" x="106.93" y="53.47" width="10.69" height="10.69"/><rect class="cls-1" x="106.93" y="42.77" width="10.69" height="10.7"/><rect class="cls-1" x="106.93" y="32.08" width="10.69" height="10.69"/><rect class="cls-1" x="96.24" y="53.47" width="10.69" height="10.69"/><rect class="cls-1" x="85.54" y="42.77" width="10.7" height="10.7"/><rect class="cls-1" x="85.54" y="32.08" width="10.7" height="10.69"/><rect class="cls-1" x="74.85" y="64.16" width="10.69" height="10.69"/><rect class="cls-1" x="74.85" y="42.77" width="10.69" height="10.7"/><rect class="cls-1" x="74.85" y="21.39" width="10.69" height="10.69"/><rect class="cls-1" x="64.16" y="64.16" width="10.69" height="10.69"/><rect class="cls-1" x="64.16" y="42.77" width="10.69" height="10.7"/><rect class="cls-1" x="64.16" y="21.39" width="10.69" height="10.69"/><rect class="cls-1" x="53.47" y="53.47" width="10.69" height="10.69"/><rect class="cls-1" x="53.47" y="42.77" width="10.69" height="10.7"/><rect class="cls-1" x="53.47" y="32.08" width="10.69" height="10.69"/><rect class="cls-1" x="42.77" y="53.47" width="10.7" height="10.69"/><rect class="cls-1" x="42.77" y="42.77" width="10.7" height="10.7"/><rect class="cls-1" x="32.08" y="21.39" width="10.69" height="10.69"/><rect class="cls-1" x="21.39" y="21.39" width="10.69" height="10.69"/><rect class="cls-1" x="10.69" y="53.47" width="10.7" height="10.69"/><rect class="cls-1" x="10.69" y="42.77" width="10.7" height="10.7"/><rect class="cls-1" x="10.69" y="32.08" width="10.7" height="10.69"/><rect class="cls-1" y="53.47" width="10.69" height="10.69"/><rect class="cls-1" y="42.77" width="10.69" height="10.7"/></g></g></svg>