<svg id="tecnologias" xmlns="http://www.w3.org/2000/svg" viewBox="0 0 224 224"><defs><style>.cls-1{fill:#8abc4d;}.cls-2{fill:#eef1e6;}.cls-3{fill:#84b451;}.cls-4{fill:#76a44a;}.cls-5{fill:#d1d1d1;}.cls-6{fill:#84b54a;}.cls-7{fill:#706f6d;}.cls-8{fill:#85ba52;}.cls-9{fill:#83b051;}.cls-10{fill:#75a148;}.cls-11{fill:#eef0ef;}.cls-12{fill:#f0efeb;}.cls-13{fill:#8eb856;}.cls-14{fill:#95ca56;}.cls-15{fill:#88b852;}</style></defs><rect class="cls-1" x="149.34" y="181.33" width="10.66" height="10.67"/><rect class="cls-1" x="170.66" y="170.66" width="10.66" height="10.66"/><rect class="cls-2" x="85.34" y="170.66" width="10.66" height="10.66"/><rect class="cls-3" x="74.66" y="170.66" width="10.67" height="10.66"/><rect class="cls-4" x="138.66" y="106.66" width="10.67" height="10.67"/><rect class="cls-4" x="149.34" y="117.34" width="10.66" height="10.66"/><rect class="cls-4" x="149.34" y="128" width="10.66" height="10.66"/><rect class="cls-4" x="149.34" y="106.66" width="10.66" height="10.67"/><rect class="cls-2" x="128" y="160" width="10.66" height="10.66"/><rect class="cls-2" x="128" y="170.66" width="10.66" height="10.66"/><rect class="cls-2" x="117.34" y="160" width="10.66" height="10.66"/><rect class="cls-2" x="106.66" y="160" width="10.67" height="10.66"/><rect class="cls-2" x="138.66" y="149.34" width="10.67" height="10.66"/><rect class="cls-2" x="149.34" y="138.66" width="10.66" height="10.67"/><rect class="cls-2" x="149.34" y="149.34" width="10.66" height="10.66"/><rect class="cls-5" x="170.66" y="192" width="10.66" height="10.66"/><rect class="cls-5" x="170.66" y="181.33" width="10.66" height="10.67"/><rect class="cls-5" x="170.66" y="202.66" width="10.66" height="10.66"/><rect class="cls-5" x="160" y="181.33" width="10.66" height="10.67"/><rect class="cls-5" x="160" y="170.66" width="10.66" height="10.66"/><rect class="cls-5" x="160" y="160" width="10.66" height="10.66"/><rect class="cls-5" x="160" y="192" width="10.66" height="10.66"/><rect class="cls-5" x="149.34" y="170.66" width="10.66" height="10.66"/><rect class="cls-5" x="181.33" y="192" width="10.67" height="10.66"/><rect class="cls-5" x="181.33" y="202.66" width="10.67" height="10.66"/><rect class="cls-5" x="181.33" y="213.33" width="10.67" height="10.67"/><rect class="cls-5" x="149.34" y="160" width="10.66" height="10.66"/><rect class="cls-5" x="138.66" y="138.66" width="10.67" height="10.67"/><rect class="cls-5" x="128" y="138.66" width="10.66" height="10.67"/><rect class="cls-5" x="138.66" y="128" width="10.67" height="10.66"/><rect class="cls-5" x="128" y="128" width="10.66" height="10.66"/><rect class="cls-5" x="138.66" y="117.34" width="10.67" height="10.66"/><rect class="cls-5" x="128" y="117.34" width="10.66" height="10.66"/><rect class="cls-2" x="138.66" y="160" width="10.67" height="10.66"/><rect class="cls-2" x="160" y="149.34" width="10.66" height="10.66"/><rect class="cls-2" x="170.66" y="106.66" width="10.66" height="10.67"/><rect class="cls-2" x="170.66" y="128" width="10.66" height="10.66"/><rect class="cls-2" x="170.66" y="117.34" width="10.66" height="10.66"/><rect class="cls-2" x="160" y="106.66" width="10.66" height="10.67"/><rect class="cls-2" x="160" y="128" width="10.66" height="10.66"/><rect class="cls-2" x="160" y="117.34" width="10.66" height="10.66"/><rect class="cls-2" x="160" y="138.66" width="10.66" height="10.67"/><rect class="cls-1" x="202.66" y="117.34" width="10.66" height="10.66"/><rect class="cls-1" x="202.66" y="106.66" width="10.66" height="10.67"/><rect class="cls-6" x="202.66" y="96" width="10.66" height="10.66"/><rect class="cls-6" x="202.66" y="85.34" width="10.66" height="10.66"/><rect class="cls-6" x="202.66" y="74.66" width="10.66" height="10.67"/><rect class="cls-1" x="192" y="138.66" width="10.66" height="10.67"/><rect class="cls-1" x="192" y="128" width="10.66" height="10.66"/><rect class="cls-1" x="192" y="117.34" width="10.66" height="10.66"/><rect class="cls-1" x="192" y="106.66" width="10.66" height="10.67"/><rect class="cls-6" x="192" y="96" width="10.66" height="10.66"/><rect class="cls-6" x="192" y="85.34" width="10.66" height="10.66"/><rect class="cls-6" x="192" y="74.66" width="10.66" height="10.67"/><rect class="cls-6" x="192" y="64" width="10.66" height="10.66"/><rect class="cls-6" x="192" y="53.34" width="10.66" height="10.66"/><rect class="cls-1" x="181.33" y="160" width="10.67" height="10.66"/><rect class="cls-1" x="181.33" y="149.34" width="10.67" height="10.66"/><rect class="cls-1" x="181.33" y="138.66" width="10.67" height="10.67"/><rect class="cls-1" x="181.33" y="128" width="10.67" height="10.66"/><rect class="cls-1" x="181.33" y="117.34" width="10.67" height="10.66"/><rect class="cls-1" x="181.33" y="106.66" width="10.67" height="10.67"/><rect class="cls-6" x="181.33" y="96" width="10.67" height="10.66"/><rect class="cls-6" x="181.33" y="85.34" width="10.67" height="10.66"/><rect class="cls-6" x="181.33" y="74.66" width="10.67" height="10.67"/><rect class="cls-6" x="181.33" y="64" width="10.67" height="10.66"/><rect class="cls-6" x="181.33" y="53.34" width="10.67" height="10.66"/><rect class="cls-6" x="181.33" y="42.67" width="10.67" height="10.66"/><rect class="cls-1" x="170.66" y="160" width="10.66" height="10.66"/><rect class="cls-1" x="170.66" y="149.34" width="10.66" height="10.66"/><rect class="cls-1" x="170.66" y="138.66" width="10.66" height="10.67"/><rect class="cls-4" x="170.66" y="96" width="10.66" height="10.66"/><rect class="cls-6" x="170.66" y="85.34" width="10.66" height="10.66"/><rect class="cls-6" x="170.66" y="74.66" width="10.66" height="10.67"/><rect class="cls-6" x="170.66" y="64" width="10.66" height="10.66"/><rect class="cls-6" x="170.66" y="53.34" width="10.66" height="10.66"/><rect class="cls-6" x="170.66" y="42.67" width="10.66" height="10.66"/><rect class="cls-6" x="170.66" y="32" width="10.66" height="10.67"/><rect class="cls-4" x="160" y="96" width="10.66" height="10.66"/><rect class="cls-4" x="160" y="85.34" width="10.66" height="10.66"/><rect class="cls-6" x="160" y="74.66" width="10.66" height="10.67"/><rect class="cls-6" x="160" y="64" width="10.66" height="10.66"/><rect class="cls-6" x="160" y="53.34" width="10.66" height="10.66"/><rect class="cls-6" x="160" y="42.67" width="10.66" height="10.66"/><rect class="cls-6" x="160" y="32" width="10.66" height="10.67"/><rect class="cls-6" x="160" y="21.34" width="10.66" height="10.66"/><rect class="cls-4" x="149.34" y="96" width="10.66" height="10.66"/><rect class="cls-4" x="149.34" y="85.34" width="10.66" height="10.66"/><rect class="cls-4" x="149.34" y="74.66" width="10.66" height="10.67"/><rect class="cls-6" x="149.34" y="64" width="10.66" height="10.66"/><rect class="cls-6" x="149.34" y="53.34" width="10.66" height="10.66"/><rect class="cls-6" x="149.34" y="42.67" width="10.66" height="10.66"/><rect class="cls-6" x="149.34" y="32" width="10.66" height="10.67"/><rect class="cls-6" x="149.34" y="21.34" width="10.66" height="10.66"/><rect class="cls-6" x="149.34" y="10.67" width="10.66" height="10.66"/><rect class="cls-3" x="138.66" y="181.33" width="10.67" height="10.67"/><rect class="cls-3" x="138.66" y="170.66" width="10.67" height="10.66"/><rect class="cls-7" x="138.66" y="96" width="10.67" height="10.66"/><rect class="cls-7" x="138.66" y="85.34" width="10.67" height="10.66"/><rect class="cls-7" x="138.66" y="74.66" width="10.67" height="10.67"/><rect class="cls-7" x="138.66" y="64" width="10.67" height="10.66"/><rect class="cls-6" x="138.66" y="53.34" width="10.67" height="10.66"/><rect class="cls-6" x="138.66" y="42.67" width="10.67" height="10.66"/><rect class="cls-6" x="138.66" y="32" width="10.67" height="10.67"/><rect class="cls-6" x="138.66" y="21.34" width="10.67" height="10.66"/><rect class="cls-6" x="138.66" y="10.67" width="10.67" height="10.66"/><rect class="cls-3" x="128" y="192" width="10.66" height="10.66"/><rect class="cls-3" x="128" y="181.33" width="10.66" height="10.67"/><rect class="cls-2" x="128" y="149.34" width="10.66" height="10.66"/><rect class="cls-7" x="128" y="106.66" width="10.66" height="10.67"/><rect class="cls-7" x="128" y="96" width="10.66" height="10.66"/><rect class="cls-7" x="128" y="85.34" width="10.66" height="10.66"/><rect class="cls-7" x="128" y="74.66" width="10.66" height="10.67"/><rect class="cls-7" x="128" y="64" width="10.66" height="10.66"/><rect class="cls-7" x="128" y="53.34" width="10.66" height="10.66"/><rect class="cls-6" x="128" y="42.67" width="10.66" height="10.66"/><rect class="cls-6" x="128" y="32" width="10.66" height="10.67"/><rect class="cls-6" x="128" y="21.34" width="10.66" height="10.66"/><rect class="cls-6" x="128" y="10.67" width="10.66" height="10.66"/><rect class="cls-8" x="128" width="10.66" height="10.67"/><rect class="cls-3" x="117.34" y="192" width="10.66" height="10.66"/><rect class="cls-3" x="117.34" y="181.33" width="10.66" height="10.67"/><rect class="cls-2" x="117.34" y="170.66" width="10.66" height="10.66"/><rect class="cls-2" x="117.34" y="149.34" width="10.66" height="10.66"/><rect class="cls-9" x="117.34" y="138.66" width="10.66" height="10.67"/><rect class="cls-9" x="117.34" y="128" width="10.66" height="10.66"/><rect class="cls-7" x="117.34" y="117.34" width="10.66" height="10.66"/><rect class="cls-7" x="117.34" y="106.66" width="10.66" height="10.67"/><rect class="cls-7" x="117.34" y="96" width="10.66" height="10.66"/><rect class="cls-10" x="117.34" y="85.34" width="10.66" height="10.66"/><rect class="cls-7" x="117.34" y="74.66" width="10.66" height="10.67"/><rect class="cls-7" x="117.34" y="64" width="10.66" height="10.66"/><rect class="cls-7" x="117.34" y="53.34" width="10.66" height="10.66"/><rect class="cls-6" x="117.34" y="42.67" width="10.66" height="10.66"/><rect class="cls-6" x="117.34" y="32" width="10.66" height="10.67"/><rect class="cls-6" x="117.34" y="21.34" width="10.66" height="10.66"/><rect class="cls-6" x="117.34" y="10.67" width="10.66" height="10.66"/><rect class="cls-6" x="117.34" width="10.66" height="10.67"/><rect class="cls-3" x="106.66" y="192" width="10.67" height="10.66"/><rect class="cls-3" x="106.66" y="181.33" width="10.67" height="10.67"/><rect class="cls-2" x="106.66" y="170.66" width="10.67" height="10.66"/><rect class="cls-9" x="106.66" y="149.34" width="10.67" height="10.66"/><rect class="cls-9" x="106.66" y="138.66" width="10.67" height="10.67"/><rect class="cls-9" x="106.66" y="128" width="10.67" height="10.66"/><rect class="cls-7" x="106.66" y="117.34" width="10.67" height="10.66"/><rect class="cls-7" x="106.66" y="106.66" width="10.67" height="10.67"/><rect class="cls-10" x="106.66" y="96" width="10.67" height="10.66"/><rect class="cls-10" x="106.66" y="85.34" width="10.67" height="10.66"/><rect class="cls-10" x="106.66" y="74.66" width="10.67" height="10.67"/><rect class="cls-7" x="106.66" y="64" width="10.67" height="10.66"/><rect class="cls-7" x="106.66" y="53.34" width="10.67" height="10.66"/><rect class="cls-7" x="106.66" y="42.67" width="10.67" height="10.66"/><rect class="cls-6" x="106.66" y="32" width="10.67" height="10.67"/><rect class="cls-6" x="106.66" y="21.34" width="10.67" height="10.66"/><rect class="cls-6" x="106.66" y="10.67" width="10.67" height="10.66"/><rect class="cls-6" x="106.66" width="10.67" height="10.67"/><rect class="cls-3" x="96" y="192" width="10.66" height="10.66"/><rect class="cls-3" x="96" y="181.33" width="10.66" height="10.67"/><rect class="cls-2" x="96" y="170.66" width="10.66" height="10.66"/><rect class="cls-2" x="96" y="160" width="10.66" height="10.66"/><rect class="cls-2" x="96" y="149.34" width="10.66" height="10.66"/><rect class="cls-9" x="96" y="138.66" width="10.66" height="10.67"/><rect class="cls-9" x="96" y="128" width="10.66" height="10.66"/><rect class="cls-7" x="96" y="117.34" width="10.66" height="10.66"/><rect class="cls-7" x="96" y="106.66" width="10.66" height="10.67"/><rect class="cls-7" x="96" y="96" width="10.66" height="10.66"/><rect class="cls-10" x="96" y="85.34" width="10.66" height="10.66"/><rect class="cls-7" x="96" y="74.66" width="10.66" height="10.67"/><rect class="cls-7" x="96" y="64" width="10.66" height="10.66"/><rect class="cls-7" x="96" y="53.34" width="10.66" height="10.66"/><rect class="cls-8" x="96" y="42.67" width="10.66" height="10.66"/><rect class="cls-8" x="96" y="32" width="10.66" height="10.67"/><rect class="cls-8" x="96" y="21.34" width="10.66" height="10.66"/><rect class="cls-8" x="96" y="10.67" width="10.66" height="10.66"/><rect class="cls-8" x="96" width="10.66" height="10.67"/><rect class="cls-3" x="85.34" y="192" width="10.66" height="10.66"/><rect class="cls-3" x="85.34" y="181.33" width="10.66" height="10.67"/><rect class="cls-11" x="85.34" y="160" width="10.66" height="10.66"/><rect class="cls-11" x="85.34" y="149.34" width="10.66" height="10.66"/><rect class="cls-12" x="85.34" y="138.66" width="10.66" height="10.67"/><rect class="cls-12" x="85.34" y="128" width="10.66" height="10.66"/><rect class="cls-12" x="85.34" y="117.34" width="10.66" height="10.66"/><rect class="cls-7" x="85.34" y="106.66" width="10.66" height="10.67"/><rect class="cls-7" x="85.34" y="96" width="10.66" height="10.66"/><rect class="cls-7" x="85.34" y="85.34" width="10.66" height="10.66"/><rect class="cls-7" x="85.34" y="74.66" width="10.66" height="10.67"/><rect class="cls-7" x="85.34" y="64" width="10.66" height="10.66"/><rect class="cls-7" x="85.34" y="53.34" width="10.66" height="10.66"/><rect class="cls-13" x="85.34" y="42.67" width="10.66" height="10.66"/><rect class="cls-13" x="85.34" y="32" width="10.66" height="10.67"/><rect class="cls-8" x="85.34" y="21.34" width="10.66" height="10.66"/><rect class="cls-8" x="85.34" y="10.67" width="10.66" height="10.66"/><rect class="cls-8" x="85.34" width="10.66" height="10.67"/><rect class="cls-3" x="74.66" y="181.33" width="10.67" height="10.67"/><rect class="cls-11" x="74.66" y="160" width="10.67" height="10.66"/><rect class="cls-11" x="74.66" y="149.34" width="10.67" height="10.66"/><rect class="cls-12" x="74.66" y="138.66" width="10.67" height="10.67"/><rect class="cls-12" x="74.66" y="128" width="10.67" height="10.66"/><rect class="cls-12" x="74.66" y="117.34" width="10.67" height="10.66"/><rect class="cls-14" x="74.66" y="106.66" width="10.67" height="10.67"/><rect class="cls-7" x="74.66" y="96" width="10.67" height="10.66"/><rect class="cls-7" x="74.66" y="85.34" width="10.67" height="10.66"/><rect class="cls-7" x="74.66" y="74.66" width="10.67" height="10.67"/><rect class="cls-7" x="74.66" y="64" width="10.67" height="10.66"/><rect class="cls-13" x="74.66" y="53.34" width="10.67" height="10.66"/><rect class="cls-13" x="74.66" y="42.67" width="10.67" height="10.66"/><rect class="cls-13" x="74.66" y="32" width="10.67" height="10.67"/><rect class="cls-8" x="74.66" y="21.34" width="10.67" height="10.66"/><rect class="cls-8" x="74.66" y="10.67" width="10.67" height="10.66"/><rect class="cls-11" x="64" y="181.33" width="10.66" height="10.67"/><rect class="cls-11" x="64" y="170.66" width="10.66" height="10.66"/><rect class="cls-11" x="64" y="160" width="10.66" height="10.66"/><rect class="cls-12" x="64" y="149.34" width="10.66" height="10.66"/><rect class="cls-12" x="64" y="138.66" width="10.66" height="10.67"/><rect class="cls-14" x="64" y="128" width="10.66" height="10.66"/><rect class="cls-14" x="64" y="117.34" width="10.66" height="10.66"/><rect class="cls-14" x="64" y="106.66" width="10.66" height="10.67"/><rect class="cls-15" x="64" y="96" width="10.66" height="10.66"/><rect class="cls-15" x="64" y="85.34" width="10.66" height="10.66"/><rect class="cls-15" x="64" y="74.66" width="10.66" height="10.67"/><rect class="cls-15" x="64" y="64" width="10.66" height="10.66"/><rect class="cls-13" x="64" y="53.34" width="10.66" height="10.66"/><rect class="cls-13" x="64" y="42.67" width="10.66" height="10.66"/><rect class="cls-13" x="64" y="32" width="10.66" height="10.67"/><rect class="cls-8" x="64" y="21.34" width="10.66" height="10.66"/><rect class="cls-8" x="64" y="10.67" width="10.66" height="10.66"/><rect class="cls-11" x="53.34" y="192" width="10.66" height="10.66"/><rect class="cls-11" x="53.34" y="181.33" width="10.66" height="10.67"/><rect class="cls-11" x="53.34" y="170.66" width="10.66" height="10.66"/><rect class="cls-11" x="53.34" y="160" width="10.66" height="10.66"/><rect class="cls-14" x="53.34" y="149.34" width="10.66" height="10.66"/><rect class="cls-14" x="53.34" y="138.66" width="10.66" height="10.67"/><rect class="cls-14" x="53.34" y="128" width="10.66" height="10.66"/><rect class="cls-14" x="53.34" y="117.34" width="10.66" height="10.66"/><rect class="cls-14" x="53.34" y="106.66" width="10.66" height="10.67"/><rect class="cls-15" x="53.34" y="96" width="10.66" height="10.66"/><rect class="cls-15" x="53.34" y="85.34" width="10.66" height="10.66"/><rect class="cls-15" x="53.34" y="74.66" width="10.66" height="10.67"/><rect class="cls-15" x="53.34" y="64" width="10.66" height="10.66"/><rect class="cls-13" x="53.34" y="53.34" width="10.66" height="10.66"/><rect class="cls-13" x="53.34" y="42.67" width="10.66" height="10.66"/><rect class="cls-13" x="53.34" y="32" width="10.66" height="10.67"/><rect class="cls-8" x="53.34" y="21.34" width="10.66" height="10.66"/><rect class="cls-11" x="42.67" y="202.66" width="10.66" height="10.66"/><rect class="cls-11" x="42.67" y="192" width="10.66" height="10.66"/><rect class="cls-11" x="42.67" y="181.33" width="10.66" height="10.67"/><rect class="cls-14" x="42.67" y="170.66" width="10.66" height="10.66"/><rect class="cls-14" x="42.67" y="160" width="10.66" height="10.66"/><rect class="cls-14" x="42.67" y="149.34" width="10.66" height="10.66"/><rect class="cls-14" x="42.67" y="138.66" width="10.66" height="10.67"/><rect class="cls-14" x="42.67" y="128" width="10.66" height="10.66"/><rect class="cls-14" x="42.67" y="117.34" width="10.66" height="10.66"/><rect class="cls-14" x="42.67" y="106.66" width="10.66" height="10.67"/><rect class="cls-15" x="42.67" y="96" width="10.66" height="10.66"/><rect class="cls-15" x="42.67" y="85.34" width="10.66" height="10.66"/><rect class="cls-15" x="42.67" y="74.66" width="10.66" height="10.67"/><rect class="cls-15" x="42.67" y="64" width="10.66" height="10.66"/><rect class="cls-13" x="42.67" y="53.34" width="10.66" height="10.66"/><rect class="cls-13" x="42.67" y="42.67" width="10.66" height="10.66"/><rect class="cls-13" x="42.67" y="32" width="10.66" height="10.67"/><rect class="cls-11" x="32" y="213.33" width="10.67" height="10.67"/><rect class="cls-11" x="32" y="202.66" width="10.67" height="10.66"/><rect class="cls-14" x="32" y="160" width="10.67" height="10.66"/><rect class="cls-14" x="32" y="149.34" width="10.67" height="10.66"/><rect class="cls-14" x="32" y="138.66" width="10.67" height="10.67"/><rect class="cls-14" x="32" y="128" width="10.67" height="10.66"/><rect class="cls-14" x="32" y="117.34" width="10.67" height="10.66"/><rect class="cls-14" x="32" y="106.66" width="10.67" height="10.67"/><rect class="cls-15" x="32" y="96" width="10.67" height="10.66"/><rect class="cls-15" x="32" y="85.34" width="10.67" height="10.66"/><rect class="cls-15" x="32" y="74.66" width="10.67" height="10.67"/><rect class="cls-15" x="32" y="64" width="10.67" height="10.66"/><rect class="cls-13" x="32" y="53.34" width="10.67" height="10.66"/><rect class="cls-13" x="32" y="42.67" width="10.67" height="10.66"/><rect class="cls-14" x="21.34" y="149.34" width="10.66" height="10.66"/><rect class="cls-14" x="21.34" y="138.66" width="10.66" height="10.67"/><rect class="cls-14" x="21.34" y="128" width="10.66" height="10.66"/><rect class="cls-14" x="21.34" y="117.34" width="10.66" height="10.66"/><rect class="cls-14" x="21.34" y="106.66" width="10.66" height="10.67"/><rect class="cls-15" x="21.34" y="96" width="10.66" height="10.66"/><rect class="cls-15" x="21.34" y="85.34" width="10.66" height="10.66"/><rect class="cls-15" x="21.34" y="74.66" width="10.66" height="10.67"/><rect class="cls-15" x="21.34" y="64" width="10.66" height="10.66"/><rect class="cls-13" x="21.34" y="53.34" width="10.66" height="10.66"/><rect class="cls-14" x="10.67" y="117.34" width="10.66" height="10.66"/><rect class="cls-14" x="10.67" y="106.66" width="10.66" height="10.67"/><rect class="cls-15" x="10.67" y="96" width="10.66" height="10.66"/><rect class="cls-15" x="10.67" y="85.34" width="10.66" height="10.66"/><rect class="cls-15" x="10.67" y="74.66" width="10.66" height="10.67"/></svg>