<svg id="tecnologias" xmlns="http://www.w3.org/2000/svg" viewBox="0 0 224 224"><defs><style>.cls-1{fill:#006bb4;}.cls-2{fill:#007ec7;}.cls-3{fill:#0073bb;}.cls-4{fill:#0063b0;}.cls-5{fill:#0059a2;}.cls-6{fill:#0083cc;}.cls-7{fill:#007a9d;}.cls-8{fill:#00699a;}.cls-9{fill:#0078c1;}.cls-10{fill:#0072b4;}.cls-11{fill:#007bb9;}.cls-12{fill:#0064ab;}.cls-13{fill:#006bbc;}.cls-14{fill:#00539d;}.cls-15{fill:#005466;}.cls-16{fill:#005679;}.cls-17{fill:#0089d2;}.cls-18{fill:#00a2e9;}.cls-19{fill:#0085ba;}.cls-20{fill:#009de2;}.cls-21{fill:#008dd7;}.cls-22{fill:#005e85;}.cls-23{fill:#00637c;}.cls-24{fill:#0098dc;}.cls-25{fill:#0099da;}.cls-26{fill:#002d3c;}.cls-27{fill:#01c9f3;}.cls-28{fill:#00b9ed;}.cls-29{fill:#00b1eb;}.cls-30{fill:#00b0f0;}.cls-31{fill:#00a4e4;}.cls-32{fill:#00aae9;}.cls-33{fill:#00adde;}.cls-34{fill:#009ac5;}.cls-35{fill:#028db5;}.cls-36{fill:#00708d;}.cls-37{fill:#005ea7;}.cls-38{fill:#0090ca;}.cls-39{fill:#006792;}.cls-40{fill:#004460;}.cls-41{fill:#004056;}.cls-42{fill:#003248;}</style></defs><rect class="cls-1" x="32" y="106.66" width="10.67" height="10.67"/><rect class="cls-2" x="53.34" y="74.66" width="10.66" height="10.67"/><rect class="cls-3" x="96" y="85.34" width="10.66" height="10.66"/><rect class="cls-2" x="96" y="96" width="10.66" height="10.66"/><rect class="cls-1" x="106.66" y="117.34" width="10.67" height="10.66"/><rect class="cls-4" x="106.66" y="128" width="10.67" height="10.66"/><rect class="cls-5" x="117.34" y="138.66" width="10.66" height="10.67"/><rect class="cls-6" x="160" y="106.66" width="10.66" height="10.67"/><rect class="cls-7" x="192" y="106.66" width="10.66" height="10.67"/><rect class="cls-6" x="170.66" y="106.66" width="10.66" height="10.67"/><rect class="cls-8" x="181.33" y="106.66" width="10.67" height="10.67"/><rect class="cls-8" x="181.33" y="117.34" width="10.67" height="10.66"/><rect class="cls-2" x="170.66" y="117.34" width="10.66" height="10.66"/><rect class="cls-9" x="160" y="117.34" width="10.66" height="10.66"/><rect class="cls-10" x="170.66" y="138.66" width="10.66" height="10.67"/><rect class="cls-11" x="170.66" y="128" width="10.66" height="10.66"/><rect class="cls-12" x="160" y="128" width="10.66" height="10.66"/><rect class="cls-13" x="160" y="149.34" width="10.66" height="10.66"/><rect class="cls-5" x="160" y="138.66" width="10.66" height="10.67"/><rect class="cls-13" x="138.66" y="149.34" width="10.67" height="10.66"/><rect class="cls-14" x="149.34" y="149.34" width="10.66" height="10.66"/><rect class="cls-5" x="149.34" y="138.66" width="10.66" height="10.67"/><rect class="cls-12" x="149.34" y="128" width="10.66" height="10.66"/><rect class="cls-15" x="149.34" y="117.34" width="10.66" height="10.66"/><rect class="cls-16" x="149.34" y="106.66" width="10.66" height="10.67"/><rect class="cls-17" x="170.66" y="96" width="10.66" height="10.66"/><rect class="cls-18" x="160" y="96" width="10.66" height="10.66"/><rect class="cls-7" x="149.34" y="96" width="10.66" height="10.66"/><rect class="cls-19" x="160" y="85.34" width="10.66" height="10.66"/><rect class="cls-20" x="170.66" y="85.34" width="10.66" height="10.66"/><rect class="cls-21" x="181.33" y="85.34" width="10.67" height="10.66"/><rect class="cls-17" x="181.33" y="96" width="10.67" height="10.66"/><rect class="cls-22" x="192" y="96" width="10.66" height="10.66"/><rect class="cls-16" x="192" y="85.34" width="10.66" height="10.66"/><rect class="cls-23" x="202.66" y="85.34" width="10.66" height="10.66"/><rect class="cls-15" x="202.66" y="74.66" width="10.66" height="10.67"/><rect class="cls-17" x="192" y="74.66" width="10.66" height="10.67"/><rect class="cls-17" x="181.33" y="74.66" width="10.67" height="10.67"/><rect class="cls-24" x="170.66" y="74.66" width="10.66" height="10.67"/><rect class="cls-25" x="160" y="74.66" width="10.66" height="10.67"/><rect class="cls-18" x="170.66" y="64" width="10.66" height="10.66"/><rect class="cls-21" x="181.33" y="64" width="10.67" height="10.66"/><rect class="cls-21" x="192" y="64" width="10.66" height="10.66"/><rect class="cls-26" x="202.66" y="64" width="10.66" height="10.66"/><rect class="cls-26" x="213.33" y="64" width="10.67" height="10.66"/><rect class="cls-12" x="96" y="74.66" width="10.66" height="10.67"/><rect class="cls-2" x="106.66" y="106.66" width="10.67" height="10.67"/><rect class="cls-6" x="106.66" y="96" width="10.67" height="10.66"/><rect class="cls-9" x="106.66" y="85.34" width="10.67" height="10.66"/><rect class="cls-27" x="74.66" y="96" width="10.67" height="10.66"/><rect class="cls-28" x="74.66" y="85.34" width="10.67" height="10.66"/><rect class="cls-3" x="85.34" y="85.34" width="10.66" height="10.66"/><rect class="cls-29" x="85.34" y="96" width="10.66" height="10.66"/><rect class="cls-2" x="96" y="106.66" width="10.66" height="10.67"/><rect class="cls-27" x="85.34" y="106.66" width="10.66" height="10.67"/><rect class="cls-30" x="96" y="117.34" width="10.66" height="10.66"/><rect class="cls-29" x="85.34" y="117.34" width="10.66" height="10.66"/><rect class="cls-31" x="85.34" y="128" width="10.66" height="10.66"/><rect class="cls-30" x="96" y="128" width="10.66" height="10.66"/><rect class="cls-17" x="96" y="149.34" width="10.66" height="10.66"/><rect class="cls-17" x="96" y="138.66" width="10.66" height="10.67"/><rect class="cls-17" x="106.66" y="149.34" width="10.67" height="10.66"/><rect class="cls-30" x="106.66" y="138.66" width="10.67" height="10.67"/><rect class="cls-30" x="117.34" y="149.34" width="10.66" height="10.66"/><rect class="cls-13" x="128" y="149.34" width="10.66" height="10.66"/><rect class="cls-4" x="138.66" y="138.66" width="10.67" height="10.67"/><rect class="cls-5" x="128" y="138.66" width="10.66" height="10.67"/><rect class="cls-20" x="138.66" y="128" width="10.67" height="10.66"/><rect class="cls-12" x="117.34" y="128" width="10.66" height="10.66"/><rect class="cls-31" x="128" y="128" width="10.66" height="10.66"/><rect class="cls-31" x="128" y="117.34" width="10.66" height="10.66"/><rect class="cls-3" x="117.34" y="117.34" width="10.66" height="10.66"/><rect class="cls-27" x="128" y="106.66" width="10.66" height="10.67"/><rect class="cls-32" x="117.34" y="106.66" width="10.66" height="10.67"/><rect class="cls-29" x="117.34" y="96" width="10.66" height="10.66"/><rect class="cls-33" x="128" y="96" width="10.66" height="10.66"/><rect class="cls-34" x="128" y="85.34" width="10.66" height="10.66"/><rect class="cls-35" x="117.34" y="85.34" width="10.66" height="10.66"/><rect class="cls-36" x="117.34" y="74.66" width="10.66" height="10.67"/><rect class="cls-23" x="106.66" y="64" width="10.67" height="10.66"/><rect class="cls-17" x="106.66" y="74.66" width="10.67" height="10.67"/><rect class="cls-14" x="96" y="64" width="10.66" height="10.66"/><rect class="cls-5" x="85.34" y="64" width="10.66" height="10.66"/><rect class="cls-5" x="85.34" y="74.66" width="10.66" height="10.67"/><rect class="cls-37" x="74.66" y="74.66" width="10.67" height="10.67"/><rect class="cls-27" x="74.66" y="64" width="10.67" height="10.66"/><rect class="cls-6" x="64" y="64" width="10.66" height="10.66"/><rect class="cls-6" x="53.34" y="64" width="10.66" height="10.66"/><rect class="cls-2" x="64" y="74.66" width="10.66" height="10.67"/><rect class="cls-19" x="64" y="96" width="10.66" height="10.66"/><rect class="cls-38" x="64" y="85.34" width="10.66" height="10.66"/><rect class="cls-9" x="53.34" y="85.34" width="10.66" height="10.66"/><rect class="cls-9" x="42.67" y="85.34" width="10.66" height="10.66"/><rect class="cls-2" x="42.67" y="74.66" width="10.66" height="10.67"/><rect class="cls-39" x="32" y="85.34" width="10.67" height="10.66"/><rect class="cls-13" x="42.67" y="96" width="10.66" height="10.66"/><rect class="cls-28" x="53.34" y="96" width="10.66" height="10.66"/><rect class="cls-1" x="42.67" y="106.66" width="10.66" height="10.67"/><rect class="cls-32" x="53.34" y="106.66" width="10.66" height="10.67"/><rect class="cls-38" x="53.34" y="117.34" width="10.66" height="10.66"/><rect class="cls-38" x="42.67" y="128" width="10.66" height="10.66"/><rect class="cls-18" x="42.67" y="117.34" width="10.66" height="10.66"/><rect class="cls-4" x="32" y="117.34" width="10.67" height="10.66"/><rect class="cls-4" x="21.34" y="117.34" width="10.66" height="10.66"/><rect class="cls-3" x="32" y="96" width="10.67" height="10.66"/><rect class="cls-16" x="21.34" y="96" width="10.66" height="10.66"/><rect class="cls-24" x="21.34" y="106.66" width="10.66" height="10.67"/><rect class="cls-40" x="10.67" y="117.34" width="10.66" height="10.66"/><rect class="cls-41" x="10.67" y="128" width="10.66" height="10.66"/><rect class="cls-42" y="138.66" width="10.67" height="10.67"/><rect class="cls-42" y="149.34" width="10.67" height="10.66"/><rect class="cls-18" x="32" y="149.34" width="10.67" height="10.66"/><rect class="cls-20" x="42.67" y="138.66" width="10.66" height="10.67"/><rect class="cls-13" x="32" y="138.66" width="10.67" height="10.67"/><rect class="cls-17" x="32" y="128" width="10.67" height="10.66"/><rect class="cls-37" x="21.34" y="128" width="10.66" height="10.66"/><rect class="cls-14" x="21.34" y="149.34" width="10.66" height="10.66"/><rect class="cls-14" x="21.34" y="138.66" width="10.66" height="10.67"/><rect class="cls-14" x="10.67" y="149.34" width="10.66" height="10.66"/><rect class="cls-14" x="10.67" y="138.66" width="10.66" height="10.67"/></svg>