<?xml version="1.0" encoding="utf-8"?>
<svg xmlns="http://www.w3.org/2000/svg" viewBox="-737.4875 -358.173 224 201.9802" width="224px" height="201.9802px"><g transform="matrix(0.7111110091209412, 0, 0, 0.7111979722976685, -737.487548828125, -358.17303466796875)" id="object-0"><path d="M 0 0 H 13.125 V 13.524 H 0 V 0 Z" style="fill: #2684ff;"/><path d="M 0 13.524 H 13.125 V 27.048 H 0 V 13.524 Z" style="fill: #2684ff;"/><path d="M 0 27.048 H 13.125 V 40.571 H 0 V 27.048 Z" style="fill: #2684ff;"/><path d="M 0 40.571 H 13.125 V 54.095 H 0 V 40.571 Z" style="fill: #2684ff;"/><path d="M 0 54.095 H 13.125 V 67.619 H 0 V 54.095 Z" style="fill: rgba(84,169,254,0.07);"/><path d="M 13.125 0 H 26.25 V 13.524 H 13.125 V 0 Z" style="fill: #2684ff;"/><path d="M 13.125 13.524 H 26.25 V 27.048 H 13.125 V 13.524 Z" style="fill: #2684ff;"/><path d="M 13.125 27.048 H 26.25 V 40.571 H 13.125 V 27.048 Z" style="fill: #2684ff;"/><path d="M 13.125 40.571 H 26.25 V 54.095 H 13.125 V 40.571 Z" style="fill: #2684ff;"/><path d="M 13.125 54.095 H 26.25 V 67.619 H 13.125 V 54.095 Z" style="fill: #2684ff;"/><path d="M 13.125 67.619 H 26.25 V 81.143 H 13.125 V 67.619 Z" style="fill: #2684ff;"/><path d="M 13.125 81.143 H 26.25 V 94.667 H 13.125 V 81.143 Z" style="fill: #2684ff;"/><path d="M 13.125 94.667 H 26.25 V 108.19 H 13.125 V 94.667 Z" style="fill: #2684ff;"/><path d="M 13.125 108.19 H 26.25 V 121.714 H 13.125 V 108.19 Z" style="fill: #2684ff;"/><path d="M 13.125 121.714 H 26.25 V 135.238 H 13.125 V 121.714 Z" style="fill: #2684ff;"/><path d="M 26.25 0 H 39.375 V 13.524 H 26.25 V 0 Z" style="fill: #2684ff;"/><path d="M 26.25 13.524 H 39.375 V 27.048 H 26.25 V 13.524 Z" style="fill: #2684ff;"/><path d="M 26.25 27.048 H 39.375 V 40.571 H 26.25 V 27.048 Z" style="fill: #2684ff;"/><path d="M 26.25 40.571 H 39.375 V 54.095 H 26.25 V 40.571 Z" style="fill: #2684ff;"/><path d="M 26.25 54.095 H 39.375 V 67.619 H 26.25 V 54.095 Z" style="fill: #2684ff;"/><path d="M 26.25 67.619 H 39.375 V 81.143 H 26.25 V 67.619 Z" style="fill: #2684ff;"/><path d="M 26.25 81.143 H 39.375 V 94.667 H 26.25 V 81.143 Z" style="fill: #2684ff;"/><path d="M 26.25 94.667 H 39.375 V 108.19 H 26.25 V 94.667 Z" style="fill: #2684ff;"/><path d="M 26.25 108.19 H 39.375 V 121.714 H 26.25 V 108.19 Z" style="fill: #2684ff;"/><path d="M 26.25 121.714 H 39.375 V 135.238 H 26.25 V 121.714 Z" style="fill: #2684ff;"/><path d="M 26.25 135.238 H 39.375 V 148.762 H 26.25 V 135.238 Z" style="fill: #2684ff;"/><path d="M 26.25 148.762 H 39.375 V 162.286 H 26.25 V 148.762 Z" style="fill: #2684ff;"/><path d="M 26.25 162.286 H 39.375 V 175.81 H 26.25 V 162.286 Z" style="fill: #2684ff;"/><path d="M 26.25 175.81 H 39.375 V 189.333 H 26.25 V 175.81 Z" style="fill: #2684ff;"/><path d="M 26.25 189.333 H 39.375 V 202.857 H 26.25 V 189.333 Z" style="fill: #2684ff;"/><path d="M 26.25 202.857 H 39.375 V 216.381 H 26.25 V 202.857 Z" style="fill: rgba(38,132,255,0.95);"/><path d="M 39.375 0 H 52.5 V 13.524 H 39.375 V 0 Z" style="fill: #2684ff;"/><path d="M 39.375 13.524 H 52.5 V 27.048 H 39.375 V 13.524 Z" style="fill: #2684ff;"/><path d="M 39.375 27.048 H 52.5 V 40.571 H 39.375 V 27.048 Z" style="fill: #2684ff;"/><path d="M 39.375 40.571 H 52.5 V 54.095 H 39.375 V 40.571 Z" style="fill: #2684ff;"/><path d="M 39.375 54.095 H 52.5 V 67.619 H 39.375 V 54.095 Z" style="fill: #2684ff;"/><path d="M 39.375 67.619 H 52.5 V 81.143 H 39.375 V 67.619 Z" style="fill: #2684ff;"/><path d="M 39.375 81.143 H 52.5 V 94.667 H 39.375 V 81.143 Z" style="fill: #2684ff;"/><path d="M 39.375 94.667 H 52.5 V 108.19 H 39.375 V 94.667 Z" style="fill: #2684ff;"/><path d="M 39.375 108.19 H 52.5 V 121.714 H 39.375 V 108.19 Z" style="fill: #2684ff;"/><path d="M 39.375 121.714 H 52.5 V 135.238 H 39.375 V 121.714 Z" style="fill: #2684ff;"/><path d="M 39.375 135.238 H 52.5 V 148.762 H 39.375 V 135.238 Z" style="fill: #2684ff;"/><path d="M 39.375 148.762 H 52.5 V 162.286 H 39.375 V 148.762 Z" style="fill: #2684ff;"/><path d="M 39.375 162.286 H 52.5 V 175.81 H 39.375 V 162.286 Z" style="fill: #2684ff;"/><path d="M 39.375 175.81 H 52.5 V 189.333 H 39.375 V 175.81 Z" style="fill: #2684ff;"/><path d="M 39.375 189.333 H 52.5 V 202.857 H 39.375 V 189.333 Z" style="fill: #2684ff;"/><path d="M 39.375 202.857 H 52.5 V 216.381 H 39.375 V 202.857 Z" style="fill: #2684ff;"/><path d="M 39.375 216.381 H 52.5 V 229.905 H 39.375 V 216.381 Z" style="fill: #2684ff;"/><path d="M 39.375 229.905 H 52.5 V 243.429 H 39.375 V 229.905 Z" style="fill: #2684ff;"/><path d="M 39.375 243.429 H 52.5 V 256.952 H 39.375 V 243.429 Z" style="fill: #2684ff;"/><path d="M 39.375 256.952 H 52.5 V 270.476 H 39.375 V 256.952 Z" style="fill: #2684ff;"/><path d="M 39.375 270.476 H 52.5 V 284 H 39.375 V 270.476 Z" style="fill: rgba(38,135,254,0.99);"/><path d="M 52.5 0 H 65.625 V 13.524 H 52.5 V 0 Z" style="fill: #2684ff;"/><path d="M 52.5 13.524 H 65.625 V 27.048 H 52.5 V 13.524 Z" style="fill: #2684ff;"/><path d="M 52.5 27.048 H 65.625 V 40.571 H 52.5 V 27.048 Z" style="fill: #2684ff;"/><path d="M 52.5 40.571 H 65.625 V 54.095 H 52.5 V 40.571 Z" style="fill: #2684ff;"/><path d="M 52.5 54.095 H 65.625 V 67.619 H 52.5 V 54.095 Z" style="fill: #2684ff;"/><path d="M 52.5 67.619 H 65.625 V 81.143 H 52.5 V 67.619 Z" style="fill: #2684ff;"/><path d="M 52.5 81.143 H 65.625 V 94.667 H 52.5 V 81.143 Z" style="fill: #2684ff;"/><path d="M 52.5 94.667 H 65.625 V 108.19 H 52.5 V 94.667 Z" style="fill: #2684ff;"/><path d="M 52.5 108.19 H 65.625 V 121.714 H 52.5 V 108.19 Z" style="fill: #2684ff;"/><path d="M 52.5 121.714 H 65.625 V 135.238 H 52.5 V 121.714 Z" style="fill: #2684ff;"/><path d="M 52.5 135.238 H 65.625 V 148.762 H 52.5 V 135.238 Z" style="fill: #2684ff;"/><path d="M 52.5 148.762 H 65.625 V 162.286 H 52.5 V 148.762 Z" style="fill: #2684ff;"/><path d="M 52.5 162.286 H 65.625 V 175.81 H 52.5 V 162.286 Z" style="fill: #2684ff;"/><path d="M 52.5 175.81 H 65.625 V 189.333 H 52.5 V 175.81 Z" style="fill: #2684ff;"/><path d="M 52.5 189.333 H 65.625 V 202.857 H 52.5 V 189.333 Z" style="fill: #2684ff;"/><path d="M 52.5 202.857 H 65.625 V 216.381 H 52.5 V 202.857 Z" style="fill: #2684ff;"/><path d="M 52.5 216.381 H 65.625 V 229.905 H 52.5 V 216.381 Z" style="fill: #2684ff;"/><path d="M 52.5 229.905 H 65.625 V 243.429 H 52.5 V 229.905 Z" style="fill: #2684ff;"/><path d="M 52.5 243.429 H 65.625 V 256.952 H 52.5 V 243.429 Z" style="fill: #2684ff;"/><path d="M 52.5 256.952 H 65.625 V 270.476 H 52.5 V 256.952 Z" style="fill: #2684ff;"/><path d="M 52.5 270.476 H 65.625 V 284 H 52.5 V 270.476 Z" style="fill: #2684ff;"/><path d="M 65.625 0 H 78.75 V 13.524 H 65.625 V 0 Z" style="fill: #2684ff;"/><path d="M 65.625 13.524 H 78.75 V 27.048 H 65.625 V 13.524 Z" style="fill: #2684ff;"/><path d="M 65.625 27.048 H 78.75 V 40.571 H 65.625 V 27.048 Z" style="fill: #2684ff;"/><path d="M 65.625 40.571 H 78.75 V 54.095 H 65.625 V 40.571 Z" style="fill: #2684ff;"/><path d="M 65.625 54.095 H 78.75 V 67.619 H 65.625 V 54.095 Z" style="fill: #2684ff;"/><path d="M 65.625 67.619 H 78.75 V 81.143 H 65.625 V 67.619 Z" style="fill: #2684ff;"/><path d="M 65.625 81.143 H 78.75 V 94.667 H 65.625 V 81.143 Z" style="fill: #2684ff;"/><path d="M 65.625 94.667 H 78.75 V 108.19 H 65.625 V 94.667 Z" style="fill: #2684ff;"/><path d="M 65.625 108.19 H 78.75 V 121.714 H 65.625 V 108.19 Z" style="fill: #2684ff;"/><path d="M 65.625 121.714 H 78.75 V 135.238 H 65.625 V 121.714 Z" style="fill: #2684ff;"/><path d="M 65.625 135.238 H 78.75 V 148.762 H 65.625 V 135.238 Z" style="fill: #2684ff;"/><path d="M 65.625 148.762 H 78.75 V 162.286 H 65.625 V 148.762 Z" style="fill: #2684ff;"/><path d="M 65.625 162.286 H 78.75 V 175.81 H 65.625 V 162.286 Z" style="fill: #2684ff;"/><path d="M 65.625 175.81 H 78.75 V 189.333 H 65.625 V 175.81 Z" style="fill: #2684ff;"/><path d="M 65.625 189.333 H 78.75 V 202.857 H 65.625 V 189.333 Z" style="fill: #2684ff;"/><path d="M 65.625 202.857 H 78.75 V 216.381 H 65.625 V 202.857 Z" style="fill: #2684ff;"/><path d="M 65.625 216.381 H 78.75 V 229.905 H 65.625 V 216.381 Z" style="fill: #2684ff;"/><path d="M 65.625 229.905 H 78.75 V 243.429 H 65.625 V 229.905 Z" style="fill: #2684ff;"/><path d="M 65.625 243.429 H 78.75 V 256.952 H 65.625 V 243.429 Z" style="fill: #2684ff;"/><path d="M 65.625 256.952 H 78.75 V 270.476 H 65.625 V 256.952 Z" style="fill: #2684ff;"/><path d="M 65.625 270.476 H 78.75 V 284 H 65.625 V 270.476 Z" style="fill: #2684ff;"/><path d="M 78.75 0 H 91.875 V 13.524 H 78.75 V 0 Z" style="fill: #2684ff;"/><path d="M 78.75 13.524 H 91.875 V 27.048 H 78.75 V 13.524 Z" style="fill: #2684ff;"/><path d="M 78.75 27.048 H 91.875 V 40.571 H 78.75 V 27.048 Z" style="fill: #2684ff;"/><path d="M 78.75 40.571 H 91.875 V 54.095 H 78.75 V 40.571 Z" style="fill: #2684ff;"/><path d="M 78.75 54.095 H 91.875 V 67.619 H 78.75 V 54.095 Z" style="fill: #2684ff;"/><path d="M 78.75 67.619 H 91.875 V 81.143 H 78.75 V 67.619 Z" style="fill: #2684ff;"/><path d="M 78.75 81.143 H 91.875 V 94.667 H 78.75 V 81.143 Z" style="fill: #2684ff;"/><path d="M 78.75 94.667 H 91.875 V 108.19 H 78.75 V 94.667 Z" style="fill: #2684ff;"/><path d="M 78.75 108.19 H 91.875 V 121.714 H 78.75 V 108.19 Z" style="fill: #2684ff;"/><path d="M 78.75 121.714 H 91.875 V 135.238 H 78.75 V 121.714 Z" style="fill: #2684ff;"/><path d="M 78.75 135.238 H 91.875 V 148.762 H 78.75 V 135.238 Z" style="fill: #2684ff;"/><path d="M 78.75 148.762 H 91.875 V 162.286 H 78.75 V 148.762 Z" style="fill: #2684ff;"/><path d="M 78.75 162.286 H 91.875 V 175.81 H 78.75 V 162.286 Z" style="fill: #2684ff;"/><path d="M 78.75 175.81 H 91.875 V 189.333 H 78.75 V 175.81 Z" style="fill: #2684ff;"/><path d="M 78.75 189.333 H 91.875 V 202.857 H 78.75 V 189.333 Z" style="fill: #2684ff;"/><path d="M 78.75 202.857 H 91.875 V 216.381 H 78.75 V 202.857 Z" style="fill: #2684ff;"/><path d="M 78.75 216.381 H 91.875 V 229.905 H 78.75 V 216.381 Z" style="fill: #2684ff;"/><path d="M 78.75 229.905 H 91.875 V 243.429 H 78.75 V 229.905 Z" style="fill: #2684ff;"/><path d="M 78.75 243.429 H 91.875 V 256.952 H 78.75 V 243.429 Z" style="fill: #2684ff;"/><path d="M 78.75 256.952 H 91.875 V 270.476 H 78.75 V 256.952 Z" style="fill: #2684ff;"/><path d="M 78.75 270.476 H 91.875 V 284 H 78.75 V 270.476 Z" style="fill: #2484ff;"/><path d="M 91.875 0 H 105 V 13.524 H 91.875 V 0 Z" style="fill: #2684ff;"/><path d="M 91.875 13.524 H 105 V 27.048 H 91.875 V 13.524 Z" style="fill: #2684ff;"/><path d="M 91.875 27.048 H 105 V 40.571 H 91.875 V 27.048 Z" style="fill: #2684ff;"/><path d="M 91.875 40.571 H 105 V 54.095 H 91.875 V 40.571 Z" style="fill: #2684ff;"/><path d="M 91.875 54.095 H 105 V 67.619 H 91.875 V 54.095 Z" style="fill: #2684ff;"/><path d="M 91.875 67.619 H 105 V 81.143 H 91.875 V 67.619 Z" style="fill: #2684ff;"/><path d="M 91.875 81.143 H 105 V 94.667 H 91.875 V 81.143 Z" style="fill: #2684ff;"/><path d="M 91.875 94.667 H 105 V 108.19 H 91.875 V 94.667 Z" style="fill: #2684ff;"/><path d="M 91.875 108.19 H 105 V 121.714 H 91.875 V 108.19 Z" style="fill: #2684ff;"/><path d="M 91.875 121.714 H 105 V 135.238 H 91.875 V 121.714 Z" style="fill: #2684ff;"/><path d="M 91.875 135.238 H 105 V 148.762 H 91.875 V 135.238 Z" style="fill: #2684ff;"/><path d="M 91.875 148.762 H 105 V 162.286 H 91.875 V 148.762 Z" style="fill: #2684ff;"/><path d="M 91.875 162.286 H 105 V 175.81 H 91.875 V 162.286 Z" style="fill: #2684ff;"/><path d="M 91.875 175.81 H 105 V 189.333 H 91.875 V 175.81 Z" style="fill: #2684ff;"/><path d="M 91.875 189.333 H 105 V 202.857 H 91.875 V 189.333 Z" style="fill: #2684ff;"/><path d="M 91.875 202.857 H 105 V 216.381 H 91.875 V 202.857 Z" style="fill: #2684ff;"/><path d="M 91.875 216.381 H 105 V 229.905 H 91.875 V 216.381 Z" style="fill: #2684ff;"/><path d="M 91.875 229.905 H 105 V 243.429 H 91.875 V 229.905 Z" style="fill: #2684ff;"/><path d="M 91.875 243.429 H 105 V 256.952 H 91.875 V 243.429 Z" style="fill: #2684ff;"/><path d="M 91.875 256.952 H 105 V 270.476 H 91.875 V 256.952 Z" style="fill: #2684ff;"/><path d="M 91.875 270.476 H 105 V 284 H 91.875 V 270.476 Z" style="fill: #2684ff;"/><path d="M 105 0 H 118.125 V 13.524 H 105 V 0 Z" style="fill: #2684ff;"/><path d="M 105 13.524 H 118.125 V 27.048 H 105 V 13.524 Z" style="fill: #2684ff;"/><path d="M 105 27.048 H 118.125 V 40.571 H 105 V 27.048 Z" style="fill: #2684ff;"/><path d="M 105 40.571 H 118.125 V 54.095 H 105 V 40.571 Z" style="fill: #2684ff;"/><path d="M 105 54.095 H 118.125 V 67.619 H 105 V 54.095 Z" style="fill: #2684ff;"/><path d="M 105 67.619 H 118.125 V 81.143 H 105 V 67.619 Z" style="fill: #2684ff;"/><path d="M 105 81.143 H 118.125 V 94.667 H 105 V 81.143 Z" style="fill: #2684ff;"/><path d="M 105 121.714 H 118.125 V 135.238 H 105 V 121.714 Z" style="fill: rgba(38,132,255,0.99);"/><path d="M 105 135.238 H 118.125 V 148.762 H 105 V 135.238 Z" style="fill: #2684ff;"/><path d="M 105 148.762 H 118.125 V 162.286 H 105 V 148.762 Z" style="fill: #2684ff;"/><path d="M 105 162.286 H 118.125 V 175.81 H 105 V 162.286 Z" style="fill: #2684ff;"/><path d="M 105 175.81 H 118.125 V 189.333 H 105 V 175.81 Z" style="fill: #2684ff;"/><path d="M 105 189.333 H 118.125 V 202.857 H 105 V 189.333 Z" style="fill: #2684ff;"/><path d="M 105 202.857 H 118.125 V 216.381 H 105 V 202.857 Z" style="fill: #2684ff;"/><path d="M 105 216.381 H 118.125 V 229.905 H 105 V 216.381 Z" style="fill: #2684ff;"/><path d="M 105 229.905 H 118.125 V 243.429 H 105 V 229.905 Z" style="fill: #2684ff;"/><path d="M 105 243.429 H 118.125 V 256.952 H 105 V 243.429 Z" style="fill: #2684ff;"/><path d="M 105 256.952 H 118.125 V 270.476 H 105 V 256.952 Z" style="fill: #2684ff;"/><path d="M 105 270.476 H 118.125 V 284 H 105 V 270.476 Z" style="fill: #2684ff;"/><path d="M 118.125 0 H 131.25 V 13.524 H 118.125 V 0 Z" style="fill: #2684ff;"/><path d="M 118.125 13.524 H 131.25 V 27.048 H 118.125 V 13.524 Z" style="fill: #2684ff;"/><path d="M 118.125 27.048 H 131.25 V 40.571 H 118.125 V 27.048 Z" style="fill: #2684ff;"/><path d="M 118.125 40.571 H 131.25 V 54.095 H 118.125 V 40.571 Z" style="fill: #2684ff;"/><path d="M 118.125 54.095 H 131.25 V 67.619 H 118.125 V 54.095 Z" style="fill: #2684ff;"/><path d="M 118.125 67.619 H 131.25 V 81.143 H 118.125 V 67.619 Z" style="fill: #2684ff;"/><path d="M 118.125 81.143 H 131.25 V 94.667 H 118.125 V 81.143 Z" style="fill: #2684ff;"/><path d="M 118.125 189.333 H 131.25 V 202.857 H 118.125 V 189.333 Z" style="fill: #2684ff;"/><path d="M 118.125 202.857 H 131.25 V 216.381 H 118.125 V 202.857 Z" style="fill: #2684ff;"/><path d="M 118.125 216.381 H 131.25 V 229.905 H 118.125 V 216.381 Z" style="fill: #2684ff;"/><path d="M 118.125 229.905 H 131.25 V 243.429 H 118.125 V 229.905 Z" style="fill: #2684ff;"/><path d="M 118.125 243.429 H 131.25 V 256.952 H 118.125 V 243.429 Z" style="fill: #2684ff;"/><path d="M 118.125 256.952 H 131.25 V 270.476 H 118.125 V 256.952 Z" style="fill: #2684ff;"/><path d="M 118.125 270.476 H 131.25 V 284 H 118.125 V 270.476 Z" style="fill: #2684ff;"/><path d="M 131.25 0 H 144.375 V 13.524 H 131.25 V 0 Z" style="fill: #2684ff;"/><path d="M 131.25 13.524 H 144.375 V 27.048 H 131.25 V 13.524 Z" style="fill: #2684ff;"/><path d="M 131.25 27.048 H 144.375 V 40.571 H 131.25 V 27.048 Z" style="fill: #2684ff;"/><path d="M 131.25 40.571 H 144.375 V 54.095 H 131.25 V 40.571 Z" style="fill: #2684ff;"/><path d="M 131.25 54.095 H 144.375 V 67.619 H 131.25 V 54.095 Z" style="fill: #2684ff;"/><path d="M 131.25 67.619 H 144.375 V 81.143 H 131.25 V 67.619 Z" style="fill: #2684ff;"/><path d="M 131.25 81.143 H 144.375 V 94.667 H 131.25 V 81.143 Z" style="fill: #2684ff;"/><path d="M 131.25 189.333 H 144.375 V 202.857 H 131.25 V 189.333 Z" style="fill: #2482fd;"/><path d="M 131.25 202.857 H 144.375 V 216.381 H 131.25 V 202.857 Z" style="fill: #2684ff;"/><path d="M 131.25 216.381 H 144.375 V 229.905 H 131.25 V 216.381 Z" style="fill: #2684ff;"/><path d="M 131.25 229.905 H 144.375 V 243.429 H 131.25 V 229.905 Z" style="fill: #2684ff;"/><path d="M 131.25 243.429 H 144.375 V 256.952 H 131.25 V 243.429 Z" style="fill: #2684ff;"/><path d="M 131.25 256.952 H 144.375 V 270.476 H 131.25 V 256.952 Z" style="fill: #2684ff;"/><path d="M 131.25 270.476 H 144.375 V 284 H 131.25 V 270.476 Z" style="fill: #2684ff;"/><path d="M 144.375 0 H 157.5 V 13.524 H 144.375 V 0 Z" style="fill: #2684ff;"/><path d="M 144.375 13.524 H 157.5 V 27.048 H 144.375 V 13.524 Z" style="fill: #2684ff;"/><path d="M 144.375 27.048 H 157.5 V 40.571 H 144.375 V 27.048 Z" style="fill: #2684ff;"/><path d="M 144.375 40.571 H 157.5 V 54.095 H 144.375 V 40.571 Z" style="fill: #2684ff;"/><path d="M 144.375 54.095 H 157.5 V 67.619 H 144.375 V 54.095 Z" style="fill: #2684ff;"/><path d="M 144.375 67.619 H 157.5 V 81.143 H 144.375 V 67.619 Z" style="fill: #2684ff;"/><path d="M 144.375 81.143 H 157.5 V 94.667 H 144.375 V 81.143 Z" style="fill: #2684ff;"/><path d="M 144.375 189.333 H 157.5 V 202.857 H 144.375 V 189.333 Z" style="fill: #227ffa;"/><path d="M 144.375 202.857 H 157.5 V 216.381 H 144.375 V 202.857 Z" style="fill: #2481fc;"/><path d="M 144.375 216.381 H 157.5 V 229.905 H 144.375 V 216.381 Z" style="fill: #2684ff;"/><path d="M 144.375 229.905 H 157.5 V 243.429 H 144.375 V 229.905 Z" style="fill: #2484ff;"/><path d="M 144.375 243.429 H 157.5 V 256.952 H 144.375 V 243.429 Z" style="fill: #2684ff;"/><path d="M 144.375 256.952 H 157.5 V 270.476 H 144.375 V 256.952 Z" style="fill: #2684ff;"/><path d="M 144.375 270.476 H 157.5 V 284 H 144.375 V 270.476 Z" style="fill: #2684ff;"/><path d="M 157.5 0 H 170.625 V 13.524 H 157.5 V 0 Z" style="fill: #2684ff;"/><path d="M 157.5 13.524 H 170.625 V 27.048 H 157.5 V 13.524 Z" style="fill: #2684ff;"/><path d="M 157.5 27.048 H 170.625 V 40.571 H 157.5 V 27.048 Z" style="fill: #2684ff;"/><path d="M 157.5 40.571 H 170.625 V 54.095 H 157.5 V 40.571 Z" style="fill: #2684ff;"/><path d="M 157.5 54.095 H 170.625 V 67.619 H 157.5 V 54.095 Z" style="fill: #2684ff;"/><path d="M 157.5 67.619 H 170.625 V 81.143 H 157.5 V 67.619 Z" style="fill: #2684ff;"/><path d="M 157.5 81.143 H 170.625 V 94.667 H 157.5 V 81.143 Z" style="fill: #2684ff;"/><path d="M 157.5 189.333 H 170.625 V 202.857 H 157.5 V 189.333 Z" style="fill: #207cf6;"/><path d="M 157.5 202.857 H 170.625 V 216.381 H 157.5 V 202.857 Z" style="fill: #227ef9;"/><path d="M 157.5 216.381 H 170.625 V 229.905 H 157.5 V 216.381 Z" style="fill: #2381fc;"/><path d="M 157.5 229.905 H 170.625 V 243.429 H 157.5 V 229.905 Z" style="fill: #2583fe;"/><path d="M 157.5 243.429 H 170.625 V 256.952 H 157.5 V 243.429 Z" style="fill: #2684ff;"/><path d="M 157.5 256.952 H 170.625 V 270.476 H 157.5 V 256.952 Z" style="fill: #2684ff;"/><path d="M 157.5 270.476 H 170.625 V 284 H 157.5 V 270.476 Z" style="fill: #2684ff;"/><path d="M 170.625 0 H 183.75 V 13.524 H 170.625 V 0 Z" style="fill: #2684ff;"/><path d="M 170.625 13.524 H 183.75 V 27.048 H 170.625 V 13.524 Z" style="fill: #2684ff;"/><path d="M 170.625 27.048 H 183.75 V 40.571 H 170.625 V 27.048 Z" style="fill: #2684ff;"/><path d="M 170.625 40.571 H 183.75 V 54.095 H 170.625 V 40.571 Z" style="fill: #2684ff;"/><path d="M 170.625 54.095 H 183.75 V 67.619 H 170.625 V 54.095 Z" style="fill: #2684ff;"/><path d="M 170.625 67.619 H 183.75 V 81.143 H 170.625 V 67.619 Z" style="fill: #2684ff;"/><path d="M 170.625 81.143 H 183.75 V 94.667 H 170.625 V 81.143 Z" style="fill: #2684ff;"/><path d="M 170.625 189.333 H 183.75 V 202.857 H 170.625 V 189.333 Z" style="fill: #1d78f2;"/><path d="M 170.625 202.857 H 183.75 V 216.381 H 170.625 V 202.857 Z" style="fill: #1f7bf6;"/><path d="M 170.625 216.381 H 183.75 V 229.905 H 170.625 V 216.381 Z" style="fill: #217ef8;"/><path d="M 170.625 229.905 H 183.75 V 243.429 H 170.625 V 229.905 Z" style="fill: #2380fb;"/><path d="M 170.625 243.429 H 183.75 V 256.952 H 170.625 V 243.429 Z" style="fill: #2583fe;"/><path d="M 170.625 256.952 H 183.75 V 270.476 H 170.625 V 256.952 Z" style="fill: #2684ff;"/><path d="M 170.625 270.476 H 183.75 V 284 H 170.625 V 270.476 Z" style="fill: #2684ff;"/><path d="M 183.75 0 H 196.875 V 13.524 H 183.75 V 0 Z" style="fill: #2684ff;"/><path d="M 183.75 13.524 H 196.875 V 27.048 H 183.75 V 13.524 Z" style="fill: #2684ff;"/><path d="M 183.75 27.048 H 196.875 V 40.571 H 183.75 V 27.048 Z" style="fill: #2684ff;"/><path d="M 183.75 40.571 H 196.875 V 54.095 H 183.75 V 40.571 Z" style="fill: #2684ff;"/><path d="M 183.75 54.095 H 196.875 V 67.619 H 183.75 V 54.095 Z" style="fill: #2684ff;"/><path d="M 183.75 67.619 H 196.875 V 81.143 H 183.75 V 67.619 Z" style="fill: #2684fe;"/><path d="M 183.75 81.143 H 196.875 V 94.667 H 183.75 V 81.143 Z" style="fill: #2684ff;"/><path d="M 183.75 175.81 H 196.875 V 189.333 H 183.75 V 175.81 Z" style="fill: rgba(29,131,240,0.14);"/><path d="M 183.75 189.333 H 196.875 V 202.857 H 183.75 V 189.333 Z" style="fill: #1b75f0;"/><path d="M 183.75 202.857 H 196.875 V 216.381 H 183.75 V 202.857 Z" style="fill: #1d78f3;"/><path d="M 183.75 216.381 H 196.875 V 229.905 H 183.75 V 216.381 Z" style="fill: #1f7af5;"/><path d="M 183.75 229.905 H 196.875 V 243.429 H 183.75 V 229.905 Z" style="fill: #217df8;"/><path d="M 183.75 243.429 H 196.875 V 256.952 H 183.75 V 243.429 Z" style="fill: #2380fa;"/><path d="M 183.75 256.952 H 196.875 V 270.476 H 183.75 V 256.952 Z" style="fill: #2582fd;"/><path d="M 183.75 270.476 H 196.875 V 284 H 183.75 V 270.476 Z" style="fill: #2684ff;"/><path d="M 196.875 0 H 210 V 13.524 H 196.875 V 0 Z" style="fill: #2684ff;"/><path d="M 196.875 13.524 H 210 V 27.048 H 196.875 V 13.524 Z" style="fill: #2684ff;"/><path d="M 196.875 27.048 H 210 V 40.571 H 196.875 V 27.048 Z" style="fill: #2684ff;"/><path d="M 196.875 40.571 H 210 V 54.095 H 196.875 V 40.571 Z" style="fill: #2684ff;"/><path d="M 196.875 54.095 H 210 V 67.619 H 196.875 V 54.095 Z" style="fill: #2684ff;"/><path d="M 196.875 67.619 H 210 V 81.143 H 196.875 V 67.619 Z" style="fill: #2684ff;"/><path d="M 196.875 81.143 H 210 V 94.667 H 196.875 V 81.143 Z" style="fill: #2684ff;"/><path d="M 196.875 108.19 H 210 V 121.714 H 196.875 V 108.19 Z" style="fill: #0d63dd;"/><path d="M 196.875 121.714 H 210 V 135.238 H 196.875 V 121.714 Z" style="fill: #0f65e0;"/><path d="M 196.875 135.238 H 210 V 148.762 H 196.875 V 135.238 Z" style="fill: #1168e2;"/><path d="M 196.875 148.762 H 210 V 162.286 H 196.875 V 148.762 Z" style="fill: #136be5;"/><path d="M 196.875 162.286 H 210 V 175.81 H 196.875 V 162.286 Z" style="fill: #146de7;"/><path d="M 196.875 175.81 H 210 V 189.333 H 196.875 V 175.81 Z" style="fill: #1770ea;"/><path d="M 196.875 189.333 H 210 V 202.857 H 196.875 V 189.333 Z" style="fill: #1872ed;"/><path d="M 196.875 202.857 H 210 V 216.381 H 196.875 V 202.857 Z" style="fill: #1a75ef;"/><path d="M 196.875 216.381 H 210 V 229.905 H 196.875 V 216.381 Z" style="fill: #1c77f2;"/><path d="M 196.875 229.905 H 210 V 243.429 H 196.875 V 229.905 Z" style="fill: #1e7af5;"/><path d="M 196.875 243.429 H 210 V 256.952 H 196.875 V 243.429 Z" style="fill: #207cf7;"/><path d="M 196.875 256.952 H 210 V 270.476 H 196.875 V 256.952 Z" style="fill: #227ffa;"/><path d="M 196.875 270.476 H 210 V 284 H 196.875 V 270.476 Z" style="fill: #2482fc;"/><path d="M 210 0 H 223.125 V 13.524 H 210 V 0 Z" style="fill: #2684ff;"/><path d="M 210 13.524 H 223.125 V 27.048 H 210 V 13.524 Z" style="fill: #2684ff;"/><path d="M 210 27.048 H 223.125 V 40.571 H 210 V 27.048 Z" style="fill: #2684ff;"/><path d="M 210 40.571 H 223.125 V 54.095 H 210 V 40.571 Z" style="fill: #2684ff;"/><path d="M 210 54.095 H 223.125 V 67.619 H 210 V 54.095 Z" style="fill: #2684ff;"/><path d="M 210 67.619 H 223.125 V 81.143 H 210 V 67.619 Z" style="fill: #2684ff;"/><path d="M 210 81.143 H 223.125 V 94.667 H 210 V 81.143 Z" style="fill: #2684ff;"/><path d="M 210 94.667 H 223.125 V 108.19 H 210 V 94.667 Z" style="fill: #085dd7;"/><path d="M 210 108.19 H 223.125 V 121.714 H 210 V 108.19 Z" style="fill: #0a5fda;"/><path d="M 210 121.714 H 223.125 V 135.238 H 210 V 121.714 Z" style="fill: #0c62dc;"/><path d="M 210 135.238 H 223.125 V 148.762 H 210 V 135.238 Z" style="fill: #0e65df;"/><path d="M 210 148.762 H 223.125 V 162.286 H 210 V 148.762 Z" style="fill: #1067e2;"/><path d="M 210 162.286 H 223.125 V 175.81 H 210 V 162.286 Z" style="fill: #126ae4;"/><path d="M 210 175.81 H 223.125 V 189.333 H 210 V 175.81 Z" style="fill: #146ce7;"/><path d="M 210 189.333 H 223.125 V 202.857 H 210 V 189.333 Z" style="fill: #166fe9;"/><path d="M 210 202.857 H 223.125 V 216.381 H 210 V 202.857 Z" style="fill: #1871ec;"/><path d="M 210 216.381 H 223.125 V 229.905 H 210 V 216.381 Z" style="fill: #1a74ef;"/><path d="M 210 229.905 H 223.125 V 243.429 H 210 V 229.905 Z" style="fill: #1c77f1;"/><path d="M 210 243.429 H 223.125 V 256.952 H 210 V 243.429 Z" style="fill: #1e79f6;"/><path d="M 210 256.952 H 223.125 V 270.476 H 210 V 256.952 Z" style="fill: #207cf6;"/><path d="M 210 270.476 H 223.125 V 284 H 210 V 270.476 Z" style="fill: #227ef9;"/><path d="M 223.125 0 H 236.25 V 13.524 H 223.125 V 0 Z" style="fill: #2684ff;"/><path d="M 223.125 13.524 H 236.25 V 27.048 H 223.125 V 13.524 Z" style="fill: #2684ff;"/><path d="M 223.125 27.048 H 236.25 V 40.571 H 223.125 V 27.048 Z" style="fill: #2684ff;"/><path d="M 223.125 40.571 H 236.25 V 54.095 H 223.125 V 40.571 Z" style="fill: #2684ff;"/><path d="M 223.125 54.095 H 236.25 V 67.619 H 223.125 V 54.095 Z" style="fill: #2684ff;"/><path d="M 223.125 67.619 H 236.25 V 81.143 H 223.125 V 67.619 Z" style="fill: #2684ff;"/><path d="M 223.125 81.143 H 236.25 V 94.667 H 223.125 V 81.143 Z" style="fill: #2684ff;"/><path d="M 223.125 94.667 H 236.25 V 108.19 H 223.125 V 94.667 Z" style="fill: #065ad4;"/><path d="M 223.125 108.19 H 236.25 V 121.714 H 223.125 V 108.19 Z" style="fill: #085cd6;"/><path d="M 223.125 121.714 H 236.25 V 135.238 H 223.125 V 121.714 Z" style="fill: #0a5fd9;"/><path d="M 223.125 135.238 H 236.25 V 148.762 H 223.125 V 135.238 Z" style="fill: #0c61dc;"/><path d="M 223.125 148.762 H 236.25 V 162.286 H 223.125 V 148.762 Z" style="fill: #0e64de;"/><path d="M 223.125 162.286 H 236.25 V 175.81 H 223.125 V 162.286 Z" style="fill: #1066e1;"/><path d="M 223.125 175.81 H 236.25 V 189.333 H 223.125 V 175.81 Z" style="fill: #1269e4;"/><path d="M 223.125 189.333 H 236.25 V 202.857 H 223.125 V 189.333 Z" style="fill: #136ce6;"/><path d="M 223.125 202.857 H 236.25 V 216.381 H 223.125 V 202.857 Z" style="fill: #156ee9;"/><path d="M 223.125 216.381 H 236.25 V 229.905 H 223.125 V 216.381 Z" style="fill: #1771eb;"/><path d="M 223.125 229.905 H 236.25 V 243.429 H 223.125 V 229.905 Z" style="fill: #1973ee;"/><path d="M 223.125 243.429 H 236.25 V 256.952 H 223.125 V 243.429 Z" style="fill: #1b76f1;"/><path d="M 223.125 256.952 H 236.25 V 270.476 H 223.125 V 256.952 Z" style="fill: #1d79f3;"/><path d="M 223.125 270.476 H 236.25 V 284 H 223.125 V 270.476 Z" style="fill: #1f7bf6;"/><path d="M 236.25 0 H 249.375 V 13.524 H 236.25 V 0 Z" style="fill: #2684ff;"/><path d="M 236.25 13.524 H 249.375 V 27.048 H 236.25 V 13.524 Z" style="fill: #2684ff;"/><path d="M 236.25 27.048 H 249.375 V 40.571 H 236.25 V 27.048 Z" style="fill: #2684ff;"/><path d="M 236.25 40.571 H 249.375 V 54.095 H 236.25 V 40.571 Z" style="fill: #2684ff;"/><path d="M 236.25 54.095 H 249.375 V 67.619 H 236.25 V 54.095 Z" style="fill: #2684ff;"/><path d="M 236.25 67.619 H 249.375 V 81.143 H 236.25 V 67.619 Z" style="fill: #2684ff;"/><path d="M 236.25 81.143 H 249.375 V 94.667 H 236.25 V 81.143 Z" style="fill: #2684ff;"/><path d="M 236.25 94.667 H 249.375 V 108.19 H 236.25 V 94.667 Z" style="fill: #0356d1;"/><path d="M 236.25 108.19 H 249.375 V 121.714 H 236.25 V 108.19 Z" style="fill: #0559d3;"/><path d="M 236.25 121.714 H 249.375 V 135.238 H 236.25 V 121.714 Z" style="fill: #075cd6;"/><path d="M 236.25 135.238 H 249.375 V 148.762 H 236.25 V 135.238 Z" style="fill: #095ed8;"/><path d="M 236.25 148.762 H 249.375 V 162.286 H 236.25 V 148.762 Z" style="fill: #0b61db;"/><path d="M 236.25 162.286 H 249.375 V 175.81 H 236.25 V 162.286 Z" style="fill: #0d63de;"/><path d="M 236.25 175.81 H 249.375 V 189.333 H 236.25 V 175.81 Z" style="fill: #0f66e0;"/><path d="M 236.25 189.333 H 249.375 V 202.857 H 236.25 V 189.333 Z" style="fill: #1168e3;"/><path d="M 236.25 202.857 H 249.375 V 216.381 H 236.25 V 202.857 Z" style="fill: #136be6;"/><path d="M 236.25 216.381 H 249.375 V 229.905 H 236.25 V 216.381 Z" style="fill: #156ee8;"/><path d="M 236.25 229.905 H 249.375 V 243.429 H 236.25 V 229.905 Z" style="fill: #1770eb;"/><path d="M 236.25 243.429 H 249.375 V 256.952 H 236.25 V 243.429 Z" style="fill: #1973ed;"/><path d="M 236.25 256.952 H 249.375 V 270.476 H 236.25 V 256.952 Z" style="fill: #1b75f0;"/><path d="M 236.25 270.476 H 249.375 V 284 H 236.25 V 270.476 Z" style="fill: #1d78f3;"/><path d="M 249.375 0 H 262.5 V 13.524 H 249.375 V 0 Z" style="fill: #2684ff;"/><path d="M 249.375 13.524 H 262.5 V 27.048 H 249.375 V 13.524 Z" style="fill: #2684ff;"/><path d="M 249.375 27.048 H 262.5 V 40.571 H 249.375 V 27.048 Z" style="fill: #2684ff;"/><path d="M 249.375 40.571 H 262.5 V 54.095 H 249.375 V 40.571 Z" style="fill: #2684ff;"/><path d="M 249.375 54.095 H 262.5 V 67.619 H 249.375 V 54.095 Z" style="fill: #2684ff;"/><path d="M 249.375 67.619 H 262.5 V 81.143 H 249.375 V 67.619 Z" style="fill: #2684ff;"/><path d="M 249.375 81.143 H 262.5 V 94.667 H 249.375 V 81.143 Z" style="fill: #2684ff;"/><path d="M 249.375 94.667 H 262.5 V 108.19 H 249.375 V 94.667 Z" style="fill: #0153cd;"/><path d="M 249.375 108.19 H 262.5 V 121.714 H 249.375 V 108.19 Z" style="fill: #0356d0;"/><path d="M 249.375 121.714 H 262.5 V 135.238 H 249.375 V 121.714 Z" style="fill: #0558d2;"/><path d="M 249.375 135.238 H 262.5 V 148.762 H 249.375 V 135.238 Z" style="fill: #075bd5;"/><path d="M 249.375 148.762 H 262.5 V 162.286 H 249.375 V 148.762 Z" style="fill: #095ed8;"/><path d="M 249.375 162.286 H 262.5 V 175.81 H 249.375 V 162.286 Z" style="fill: #0b60da;"/><path d="M 249.375 175.81 H 262.5 V 189.333 H 249.375 V 175.81 Z" style="fill: #0d63dd;"/><path d="M 249.375 189.333 H 262.5 V 202.857 H 249.375 V 189.333 Z" style="fill: #0f65e0;"/><path d="M 249.375 202.857 H 262.5 V 216.381 H 249.375 V 202.857 Z" style="fill: #1168e2;"/><path d="M 249.375 216.381 H 262.5 V 229.905 H 249.375 V 216.381 Z" style="fill: #126ae5;"/><path d="M 249.375 229.905 H 262.5 V 243.429 H 249.375 V 229.905 Z" style="fill: #156de8;"/><path d="M 249.375 243.429 H 262.5 V 256.952 H 249.375 V 243.429 Z" style="fill: #1670ea;"/><path d="M 249.375 256.952 H 262.5 V 270.476 H 249.375 V 256.952 Z" style="fill: #1872ed;"/><path d="M 249.375 270.476 H 262.5 V 284 H 249.375 V 270.476 Z" style="fill: #1a75ef;"/><path d="M 262.5 0 H 275.625 V 13.524 H 262.5 V 0 Z" style="fill: #2684ff;"/><path d="M 262.5 13.524 H 275.625 V 27.048 H 262.5 V 13.524 Z" style="fill: #2684ff;"/><path d="M 262.5 27.048 H 275.625 V 40.571 H 262.5 V 27.048 Z" style="fill: #2684ff;"/><path d="M 262.5 40.571 H 275.625 V 54.095 H 262.5 V 40.571 Z" style="fill: #2686ff;"/><path d="M 262.5 54.095 H 275.625 V 67.619 H 262.5 V 54.095 Z" style="fill: #2684ff;"/><path d="M 262.5 67.619 H 275.625 V 81.143 H 262.5 V 67.619 Z" style="fill: #2684ff;"/><path d="M 262.5 81.143 H 275.625 V 94.667 H 262.5 V 81.143 Z" style="fill: #2684ff;"/><path d="M 262.5 94.667 H 275.625 V 108.19 H 262.5 V 94.667 Z" style="fill: #0052cc;"/><path d="M 262.5 108.19 H 275.625 V 121.714 H 262.5 V 108.19 Z" style="fill: #0153cd;"/><path d="M 262.5 121.714 H 275.625 V 135.238 H 262.5 V 121.714 Z" style="fill: #0255cf;"/><path d="M 262.5 135.238 H 275.625 V 148.762 H 262.5 V 135.238 Z" style="fill: #0558d2;"/><path d="M 262.5 148.762 H 275.625 V 162.286 H 262.5 V 148.762 Z" style="fill: #075bd5;"/><path d="M 262.5 162.286 H 275.625 V 175.81 H 262.5 V 162.286 Z" style="fill: #085dd7;"/><path d="M 262.5 175.81 H 275.625 V 189.333 H 262.5 V 175.81 Z" style="fill: #0a60da;"/><path d="M 262.5 189.333 H 275.625 V 202.857 H 262.5 V 189.333 Z" style="fill: #0c62dc;"/><path d="M 262.5 202.857 H 275.625 V 216.381 H 262.5 V 202.857 Z" style="fill: #0e65df;"/><path d="M 262.5 216.381 H 275.625 V 229.905 H 262.5 V 216.381 Z" style="fill: #1067e2;"/><path d="M 262.5 229.905 H 275.625 V 243.429 H 262.5 V 229.905 Z" style="fill: #126ae4;"/><path d="M 262.5 243.429 H 275.625 V 256.952 H 262.5 V 243.429 Z" style="fill: #146ce7;"/><path d="M 262.5 256.952 H 275.625 V 270.476 H 262.5 V 256.952 Z" style="fill: #166fea;"/><path d="M 262.5 270.476 H 275.625 V 284 H 262.5 V 270.476 Z" style="fill: #1872ec;"/><path d="M 275.625 0 H 288.75 V 13.524 H 275.625 V 0 Z" style="fill: #2684ff;"/><path d="M 275.625 13.524 H 288.75 V 27.048 H 275.625 V 13.524 Z" style="fill: #2684ff;"/><path d="M 275.625 27.048 H 288.75 V 40.571 H 275.625 V 27.048 Z" style="fill: #2684ff;"/><path d="M 275.625 40.571 H 288.75 V 54.095 H 275.625 V 40.571 Z" style="fill: #2684ff;"/><path d="M 275.625 54.095 H 288.75 V 67.619 H 275.625 V 54.095 Z" style="fill: #2684ff;"/><path d="M 275.625 67.619 H 288.75 V 81.143 H 275.625 V 67.619 Z" style="fill: #2684ff;"/><path d="M 275.625 81.143 H 288.75 V 94.667 H 275.625 V 81.143 Z" style="fill: #2684ff;"/><path d="M 275.625 94.667 H 288.75 V 108.19 H 275.625 V 94.667 Z" style="fill: #0052cc;"/><path d="M 275.625 108.19 H 288.75 V 121.714 H 275.625 V 108.19 Z" style="fill: #0052cc;"/><path d="M 275.625 121.714 H 288.75 V 135.238 H 275.625 V 121.714 Z" style="fill: #0052cc;"/><path d="M 275.625 135.238 H 288.75 V 148.762 H 275.625 V 135.238 Z" style="fill: #0255cf;"/><path d="M 275.625 148.762 H 288.75 V 162.286 H 275.625 V 148.762 Z" style="fill: #0457d1;"/><path d="M 275.625 162.286 H 288.75 V 175.81 H 275.625 V 162.286 Z" style="fill: #065ad4;"/><path d="M 275.625 175.81 H 288.75 V 189.333 H 275.625 V 175.81 Z" style="fill: #085cd7;"/><path d="M 275.625 189.333 H 288.75 V 202.857 H 275.625 V 189.333 Z" style="fill: #0a5fd9;"/><path d="M 275.625 202.857 H 288.75 V 216.381 H 275.625 V 202.857 Z" style="fill: rgba(39,127,223,0.13);"/><path d="M 288.75 0 H 301.875 V 13.524 H 288.75 V 0 Z" style="fill: #2684ff;"/><path d="M 288.75 13.524 H 301.875 V 27.048 H 288.75 V 13.524 Z" style="fill: #2684ff;"/><path d="M 288.75 27.048 H 301.875 V 40.571 H 288.75 V 27.048 Z" style="fill: #2684ff;"/><path d="M 288.75 40.571 H 301.875 V 54.095 H 288.75 V 40.571 Z" style="fill: #2684ff;"/><path d="M 288.75 54.095 H 301.875 V 67.619 H 288.75 V 54.095 Z" style="fill: #2684ff;"/><path d="M 288.75 67.619 H 301.875 V 81.143 H 288.75 V 67.619 Z" style="fill: #2684ff;"/><path d="M 288.75 81.143 H 301.875 V 94.667 H 288.75 V 81.143 Z" style="fill: #2684ff;"/><path d="M 288.75 94.667 H 301.875 V 108.19 H 288.75 V 94.667 Z" style="fill: #0052cc;"/><path d="M 288.75 108.19 H 301.875 V 121.714 H 288.75 V 108.19 Z" style="fill: #0052cc;"/><path d="M 288.75 121.714 H 301.875 V 135.238 H 288.75 V 121.714 Z" style="fill: rgba(0,83,208,0.41);"/><path d="M 301.875 0 H 315 V 13.524 H 301.875 V 0 Z" style="fill: #2684ff;"/><path d="M 301.875 13.524 H 315 V 27.048 H 301.875 V 13.524 Z" style="fill: #2684ff;"/><path d="M 301.875 27.048 H 315 V 40.571 H 301.875 V 27.048 Z" style="fill: #2684ff;"/><path d="M 301.875 40.571 H 315 V 54.095 H 301.875 V 40.571 Z" style="fill: rgba(40,132,254,0.62);"/></g></svg>