<svg id="tecnologias" xmlns="http://www.w3.org/2000/svg" viewBox="0 0 224 224"><defs><style>.cls-1{fill:#803788;}.cls-2{fill:#efefef;}.cls-3{fill:#9b4f97;}.cls-4{fill:#67217a;}</style></defs><rect class="cls-1" x="213.33" y="149.34" width="10.67" height="10.66"/><rect class="cls-1" x="213.33" y="138.66" width="10.67" height="10.67"/><rect class="cls-1" x="213.33" y="128" width="10.67" height="10.66"/><rect class="cls-1" x="213.33" y="117.34" width="10.67" height="10.66"/><rect class="cls-1" x="213.33" y="106.66" width="10.67" height="10.67"/><rect class="cls-1" x="213.33" y="96" width="10.67" height="10.66"/><rect class="cls-1" x="213.33" y="85.34" width="10.67" height="10.66"/><rect class="cls-1" x="213.33" y="74.66" width="10.67" height="10.67"/><rect class="cls-1" x="213.33" y="64" width="10.67" height="10.66"/><rect class="cls-1" x="202.66" y="160" width="10.66" height="10.66"/><rect class="cls-1" x="202.66" y="149.34" width="10.66" height="10.66"/><rect class="cls-1" x="202.66" y="138.66" width="10.66" height="10.67"/><path class="cls-2" d="M213.33,128v10.66H202.66v10.68H192V138.66H181.33v10.68H170.66V138.66H160V128h10.66V117.34H160V106.66h10.66V96h10.67v10.66H192V96h10.66v10.66h10.67v10.68H202.66V128ZM192,128V117.34H181.33V128Z"/><rect class="cls-1" x="202.66" y="117.34" width="10.66" height="10.66"/><rect class="cls-1" x="202.66" y="96" width="10.66" height="10.66"/><rect class="cls-1" x="202.66" y="85.34" width="10.66" height="10.66"/><rect class="cls-1" x="202.66" y="74.66" width="10.66" height="10.67"/><rect class="cls-1" x="202.66" y="64" width="10.66" height="10.66"/><rect class="cls-3" x="202.66" y="53.34" width="10.66" height="10.66"/><rect class="cls-4" x="192" y="170.66" width="10.66" height="10.66"/><rect class="cls-1" x="192" y="160" width="10.66" height="10.66"/><rect class="cls-1" x="192" y="149.34" width="10.66" height="10.66"/><rect class="cls-1" x="192" y="85.34" width="10.66" height="10.66"/><rect class="cls-1" x="192" y="74.66" width="10.66" height="10.67"/><rect class="cls-1" x="192" y="64" width="10.66" height="10.66"/><rect class="cls-3" x="192" y="53.34" width="10.66" height="10.66"/><rect class="cls-4" x="181.33" y="170.66" width="10.67" height="10.66"/><rect class="cls-4" x="181.33" y="160" width="10.67" height="10.66"/><rect class="cls-1" x="181.33" y="149.34" width="10.67" height="10.66"/><rect class="cls-1" x="181.33" y="138.66" width="10.67" height="10.67"/><rect class="cls-1" x="181.33" y="117.34" width="10.67" height="10.66"/><rect class="cls-1" x="181.33" y="96" width="10.67" height="10.66"/><rect class="cls-1" x="181.33" y="85.34" width="10.67" height="10.66"/><rect class="cls-1" x="181.33" y="74.66" width="10.67" height="10.67"/><rect class="cls-3" x="181.33" y="64" width="10.67" height="10.66"/><rect class="cls-3" x="181.33" y="53.34" width="10.67" height="10.66"/><rect class="cls-3" x="181.33" y="42.67" width="10.67" height="10.66"/><rect class="cls-4" x="170.66" y="181.33" width="10.66" height="10.67"/><rect class="cls-4" x="170.66" y="170.66" width="10.66" height="10.66"/><rect class="cls-4" x="170.66" y="160" width="10.66" height="10.66"/><rect class="cls-1" x="170.66" y="149.34" width="10.66" height="10.66"/><rect class="cls-1" x="170.66" y="85.34" width="10.66" height="10.66"/><rect class="cls-1" x="170.66" y="74.66" width="10.66" height="10.67"/><rect class="cls-3" x="170.66" y="64" width="10.66" height="10.66"/><rect class="cls-3" x="170.66" y="53.34" width="10.66" height="10.66"/><rect class="cls-3" x="170.66" y="42.67" width="10.66" height="10.66"/><rect class="cls-4" x="160" y="181.33" width="10.66" height="10.67"/><rect class="cls-4" x="160" y="170.66" width="10.66" height="10.66"/><rect class="cls-4" x="160" y="160" width="10.66" height="10.66"/><rect class="cls-4" x="160" y="149.34" width="10.66" height="10.66"/><rect class="cls-1" x="160" y="138.66" width="10.66" height="10.67"/><rect class="cls-1" x="160" y="117.34" width="10.66" height="10.66"/><rect class="cls-1" x="160" y="96" width="10.66" height="10.66"/><rect class="cls-1" x="160" y="85.34" width="10.66" height="10.66"/><polygon class="cls-2" points="170.66 74.66 170.66 85.34 160 85.34 160 96 149.34 96 138.66 96 138.66 85.34 128 85.34 128 74.66 117.34 74.66 106.66 74.66 96 74.66 96 85.34 85.34 85.34 85.34 96 85.34 106.66 85.34 117.34 85.34 128 85.34 138.66 96 138.66 96 149.34 106.66 149.34 117.34 149.34 128 149.34 128 138.66 138.66 138.66 149.34 138.66 160 138.66 160 149.34 160 160 149.34 160 138.66 160 138.66 170.66 128 170.66 117.34 170.66 106.66 170.66 96 170.66 85.34 170.66 85.34 160 74.66 160 74.66 149.34 64 149.34 64 138.66 53.34 138.66 53.34 128 53.34 117.34 53.34 106.66 53.34 96 53.34 85.34 64 85.34 64 74.66 74.66 74.66 74.66 64 85.34 64 85.34 53.34 96 53.34 106.66 53.34 117.34 53.34 128 53.34 138.66 53.34 138.66 64 149.34 64 160 64 160 74.66 170.66 74.66"/><rect class="cls-3" x="160" y="64" width="10.66" height="10.66"/><rect class="cls-3" x="160" y="53.34" width="10.66" height="10.66"/><rect class="cls-3" x="160" y="42.67" width="10.66" height="10.66"/><rect class="cls-3" x="160" y="32" width="10.66" height="10.67"/><rect class="cls-4" x="149.34" y="192" width="10.66" height="10.66"/><rect class="cls-4" x="149.34" y="181.33" width="10.66" height="10.67"/><rect class="cls-4" x="149.34" y="170.66" width="10.66" height="10.66"/><rect class="cls-4" x="149.34" y="160" width="10.66" height="10.66"/><rect class="cls-1" x="149.34" y="128" width="10.66" height="10.66"/><rect class="cls-1" x="149.34" y="117.34" width="10.66" height="10.66"/><rect class="cls-1" x="149.34" y="106.66" width="10.66" height="10.67"/><rect class="cls-1" x="149.34" y="96" width="10.66" height="10.66"/><rect class="cls-3" x="149.34" y="53.34" width="10.66" height="10.66"/><rect class="cls-3" x="149.34" y="42.67" width="10.66" height="10.66"/><rect class="cls-3" x="149.34" y="32" width="10.66" height="10.67"/><rect class="cls-3" x="149.34" y="21.34" width="10.66" height="10.66"/><rect class="cls-4" x="138.66" y="192" width="10.67" height="10.66"/><rect class="cls-4" x="138.66" y="181.33" width="10.67" height="10.67"/><rect class="cls-4" x="138.66" y="170.66" width="10.67" height="10.66"/><rect class="cls-4" x="138.66" y="160" width="10.67" height="10.66"/><rect class="cls-1" x="138.66" y="128" width="10.67" height="10.66"/><rect class="cls-1" x="138.66" y="117.34" width="10.67" height="10.66"/><rect class="cls-1" x="138.66" y="106.66" width="10.67" height="10.67"/><rect class="cls-1" x="138.66" y="96" width="10.67" height="10.66"/><rect class="cls-3" x="138.66" y="53.34" width="10.67" height="10.66"/><rect class="cls-3" x="138.66" y="42.67" width="10.67" height="10.66"/><rect class="cls-3" x="138.66" y="32" width="10.67" height="10.67"/><rect class="cls-3" x="138.66" y="21.34" width="10.67" height="10.66"/><rect class="cls-4" x="128" y="202.66" width="10.66" height="10.66"/><rect class="cls-4" x="128" y="192" width="10.66" height="10.66"/><rect class="cls-4" x="128" y="181.33" width="10.66" height="10.67"/><rect class="cls-4" x="128" y="170.66" width="10.66" height="10.66"/><rect class="cls-4" x="128" y="128" width="10.66" height="10.66"/><rect class="cls-1" x="128" y="117.34" width="10.66" height="10.66"/><rect class="cls-1" x="128" y="106.66" width="10.66" height="10.67"/><rect class="cls-3" x="128" y="96" width="10.66" height="10.66"/><rect class="cls-3" x="128" y="85.34" width="10.66" height="10.66"/><rect class="cls-3" x="128" y="42.67" width="10.66" height="10.66"/><rect class="cls-3" x="128" y="32" width="10.66" height="10.67"/><rect class="cls-3" x="128" y="21.34" width="10.66" height="10.66"/><rect class="cls-3" x="128" y="10.67" width="10.66" height="10.66"/><rect class="cls-4" x="117.34" y="213.33" width="10.66" height="10.67"/><rect class="cls-4" x="117.34" y="202.66" width="10.66" height="10.66"/><rect class="cls-4" x="117.34" y="192" width="10.66" height="10.66"/><rect class="cls-4" x="117.34" y="181.33" width="10.66" height="10.67"/><rect class="cls-4" x="117.34" y="170.66" width="10.66" height="10.66"/><rect class="cls-4" x="117.34" y="138.66" width="10.66" height="10.67"/><rect class="cls-4" x="117.34" y="128" width="10.66" height="10.66"/><rect class="cls-4" x="117.34" y="117.34" width="10.66" height="10.66"/><rect class="cls-1" x="117.34" y="106.66" width="10.66" height="10.67"/><rect class="cls-3" x="117.34" y="96" width="10.66" height="10.66"/><rect class="cls-3" x="117.34" y="85.34" width="10.66" height="10.66"/><rect class="cls-3" x="117.34" y="74.66" width="10.66" height="10.67"/><rect class="cls-3" x="117.34" y="42.67" width="10.66" height="10.66"/><rect class="cls-3" x="117.34" y="32" width="10.66" height="10.67"/><rect class="cls-3" x="117.34" y="21.34" width="10.66" height="10.66"/><rect class="cls-3" x="117.34" y="10.67" width="10.66" height="10.66"/><rect class="cls-3" x="117.34" width="10.66" height="10.67"/><rect class="cls-4" x="106.66" y="213.33" width="10.67" height="10.67"/><rect class="cls-4" x="106.66" y="202.66" width="10.67" height="10.66"/><rect class="cls-4" x="106.66" y="192" width="10.67" height="10.66"/><rect class="cls-4" x="106.66" y="181.33" width="10.67" height="10.67"/><rect class="cls-4" x="106.66" y="170.66" width="10.67" height="10.66"/><rect class="cls-4" x="106.66" y="138.66" width="10.67" height="10.67"/><rect class="cls-4" x="106.66" y="128" width="10.67" height="10.66"/><rect class="cls-4" x="106.66" y="117.34" width="10.67" height="10.66"/><rect class="cls-3" x="106.66" y="106.66" width="10.67" height="10.67"/><rect class="cls-3" x="106.66" y="96" width="10.67" height="10.66"/><rect class="cls-3" x="106.66" y="85.34" width="10.67" height="10.66"/><rect class="cls-3" x="106.66" y="74.66" width="10.67" height="10.67"/><rect class="cls-3" x="106.66" y="42.67" width="10.67" height="10.66"/><rect class="cls-3" x="106.66" y="32" width="10.67" height="10.67"/><rect class="cls-3" x="106.66" y="21.34" width="10.67" height="10.66"/><rect class="cls-3" x="106.66" y="10.67" width="10.67" height="10.66"/><rect class="cls-3" x="106.66" width="10.67" height="10.67"/><rect class="cls-4" x="96" y="213.33" width="10.66" height="10.67"/><rect class="cls-4" x="96" y="202.66" width="10.66" height="10.66"/><rect class="cls-4" x="96" y="192" width="10.66" height="10.66"/><rect class="cls-4" x="96" y="181.33" width="10.66" height="10.67"/><rect class="cls-4" x="96" y="170.66" width="10.66" height="10.66"/><rect class="cls-4" x="96" y="138.66" width="10.66" height="10.67"/><rect class="cls-4" x="96" y="128" width="10.66" height="10.66"/><rect class="cls-3" x="96" y="117.34" width="10.66" height="10.66"/><rect class="cls-3" x="96" y="106.66" width="10.66" height="10.67"/><rect class="cls-3" x="96" y="96" width="10.66" height="10.66"/><rect class="cls-3" x="96" y="85.34" width="10.66" height="10.66"/><rect class="cls-3" x="96" y="74.66" width="10.66" height="10.67"/><rect class="cls-3" x="96" y="42.67" width="10.66" height="10.66"/><rect class="cls-3" x="96" y="32" width="10.66" height="10.67"/><rect class="cls-3" x="96" y="21.34" width="10.66" height="10.66"/><rect class="cls-3" x="96" y="10.67" width="10.66" height="10.66"/><rect class="cls-3" x="96" width="10.66" height="10.67"/><rect class="cls-4" x="85.34" y="202.66" width="10.66" height="10.66"/><rect class="cls-4" x="85.34" y="192" width="10.66" height="10.66"/><rect class="cls-4" x="85.34" y="181.33" width="10.66" height="10.67"/><rect class="cls-4" x="85.34" y="170.66" width="10.66" height="10.66"/><rect class="cls-4" x="85.34" y="128" width="10.66" height="10.66"/><rect class="cls-3" x="85.34" y="117.34" width="10.66" height="10.66"/><rect class="cls-3" x="85.34" y="106.66" width="10.66" height="10.67"/><rect class="cls-3" x="85.34" y="96" width="10.66" height="10.66"/><rect class="cls-3" x="85.34" y="85.34" width="10.66" height="10.66"/><rect class="cls-3" x="85.34" y="42.67" width="10.66" height="10.66"/><rect class="cls-3" x="85.34" y="32" width="10.66" height="10.67"/><rect class="cls-3" x="85.34" y="21.34" width="10.66" height="10.66"/><rect class="cls-3" x="85.34" y="10.67" width="10.66" height="10.66"/><rect class="cls-4" x="74.66" y="192" width="10.67" height="10.66"/><rect class="cls-4" x="74.66" y="181.33" width="10.67" height="10.67"/><rect class="cls-4" x="74.66" y="170.66" width="10.67" height="10.66"/><rect class="cls-4" x="74.66" y="160" width="10.67" height="10.66"/><rect class="cls-3" x="74.66" y="53.34" width="10.67" height="10.66"/><rect class="cls-3" x="74.66" y="42.67" width="10.67" height="10.66"/><rect class="cls-3" x="74.66" y="32" width="10.67" height="10.67"/><rect class="cls-3" x="74.66" y="21.34" width="10.67" height="10.66"/><rect class="cls-4" x="64" y="192" width="10.66" height="10.66"/><rect class="cls-4" x="64" y="181.33" width="10.66" height="10.67"/><rect class="cls-4" x="64" y="170.66" width="10.66" height="10.66"/><rect class="cls-4" x="64" y="160" width="10.66" height="10.66"/><rect class="cls-4" x="64" y="149.34" width="10.66" height="10.66"/><rect class="cls-3" x="64" y="64" width="10.66" height="10.66"/><rect class="cls-3" x="64" y="53.34" width="10.66" height="10.66"/><rect class="cls-3" x="64" y="42.67" width="10.66" height="10.66"/><rect class="cls-3" x="64" y="32" width="10.66" height="10.67"/><rect class="cls-3" x="64" y="21.34" width="10.66" height="10.66"/><rect class="cls-4" x="53.34" y="181.33" width="10.66" height="10.67"/><rect class="cls-4" x="53.34" y="170.66" width="10.66" height="10.66"/><rect class="cls-4" x="53.34" y="160" width="10.66" height="10.66"/><rect class="cls-4" x="53.34" y="149.34" width="10.66" height="10.66"/><rect class="cls-3" x="53.34" y="138.66" width="10.66" height="10.67"/><rect class="cls-3" x="53.34" y="74.66" width="10.66" height="10.67"/><rect class="cls-3" x="53.34" y="64" width="10.66" height="10.66"/><rect class="cls-3" x="53.34" y="53.34" width="10.66" height="10.66"/><rect class="cls-3" x="53.34" y="42.67" width="10.66" height="10.66"/><rect class="cls-3" x="53.34" y="32" width="10.66" height="10.67"/><rect class="cls-4" x="42.67" y="181.33" width="10.66" height="10.67"/><rect class="cls-4" x="42.67" y="170.66" width="10.66" height="10.66"/><rect class="cls-4" x="42.67" y="160" width="10.66" height="10.66"/><rect class="cls-4" x="42.67" y="149.34" width="10.66" height="10.66"/><rect class="cls-3" x="42.67" y="138.66" width="10.66" height="10.67"/><rect class="cls-3" x="42.67" y="128" width="10.66" height="10.66"/><rect class="cls-3" x="42.67" y="117.34" width="10.66" height="10.66"/><rect class="cls-3" x="42.67" y="106.66" width="10.66" height="10.67"/><rect class="cls-3" x="42.67" y="96" width="10.66" height="10.66"/><rect class="cls-3" x="42.67" y="85.34" width="10.66" height="10.66"/><rect class="cls-3" x="42.67" y="74.66" width="10.66" height="10.67"/><rect class="cls-3" x="42.67" y="64" width="10.66" height="10.66"/><rect class="cls-3" x="42.67" y="53.34" width="10.66" height="10.66"/><rect class="cls-3" x="42.67" y="42.67" width="10.66" height="10.66"/><rect class="cls-3" x="42.67" y="32" width="10.66" height="10.67"/><rect class="cls-4" x="32" y="170.66" width="10.67" height="10.66"/><rect class="cls-4" x="32" y="160" width="10.67" height="10.66"/><rect class="cls-3" x="32" y="149.34" width="10.67" height="10.66"/><rect class="cls-3" x="32" y="138.66" width="10.67" height="10.67"/><rect class="cls-3" x="32" y="128" width="10.67" height="10.66"/><rect class="cls-3" x="32" y="117.34" width="10.67" height="10.66"/><rect class="cls-3" x="32" y="106.66" width="10.67" height="10.67"/><rect class="cls-3" x="32" y="96" width="10.67" height="10.66"/><rect class="cls-3" x="32" y="85.34" width="10.67" height="10.66"/><rect class="cls-3" x="32" y="74.66" width="10.67" height="10.67"/><rect class="cls-3" x="32" y="64" width="10.67" height="10.66"/><rect class="cls-3" x="32" y="53.34" width="10.67" height="10.66"/><rect class="cls-3" x="32" y="42.67" width="10.67" height="10.66"/><rect class="cls-4" x="21.34" y="170.66" width="10.66" height="10.66"/><rect class="cls-3" x="21.34" y="160" width="10.66" height="10.66"/><rect class="cls-3" x="21.34" y="149.34" width="10.66" height="10.66"/><rect class="cls-3" x="21.34" y="138.66" width="10.66" height="10.67"/><rect class="cls-3" x="21.34" y="128" width="10.66" height="10.66"/><rect class="cls-3" x="21.34" y="117.34" width="10.66" height="10.66"/><rect class="cls-3" x="21.34" y="106.66" width="10.66" height="10.67"/><rect class="cls-3" x="21.34" y="96" width="10.66" height="10.66"/><rect class="cls-3" x="21.34" y="85.34" width="10.66" height="10.66"/><rect class="cls-3" x="21.34" y="74.66" width="10.66" height="10.67"/><rect class="cls-3" x="21.34" y="64" width="10.66" height="10.66"/><rect class="cls-3" x="21.34" y="53.34" width="10.66" height="10.66"/><rect class="cls-3" x="10.67" y="160" width="10.66" height="10.66"/><rect class="cls-3" x="10.67" y="149.34" width="10.66" height="10.66"/><rect class="cls-3" x="10.67" y="138.66" width="10.66" height="10.67"/><rect class="cls-3" x="10.67" y="128" width="10.66" height="10.66"/><rect class="cls-3" x="10.67" y="117.34" width="10.66" height="10.66"/><rect class="cls-3" x="10.67" y="106.66" width="10.66" height="10.67"/><rect class="cls-3" x="10.67" y="96" width="10.66" height="10.66"/><rect class="cls-3" x="10.67" y="85.34" width="10.66" height="10.66"/><rect class="cls-3" x="10.67" y="74.66" width="10.66" height="10.67"/><rect class="cls-3" x="10.67" y="64" width="10.66" height="10.66"/><rect class="cls-3" x="10.67" y="53.34" width="10.66" height="10.66"/><rect class="cls-3" y="149.34" width="10.67" height="10.66"/><rect class="cls-3" y="138.66" width="10.67" height="10.67"/><rect class="cls-3" y="128" width="10.67" height="10.66"/><rect class="cls-3" y="117.34" width="10.67" height="10.66"/><rect class="cls-3" y="106.66" width="10.67" height="10.67"/><rect class="cls-3" y="96" width="10.67" height="10.66"/><rect class="cls-3" y="85.34" width="10.67" height="10.66"/><rect class="cls-3" y="74.66" width="10.67" height="10.67"/><rect class="cls-3" y="64" width="10.67" height="10.66"/></svg>