<svg id="tecnologias" xmlns="http://www.w3.org/2000/svg" viewBox="0 0 224 224"><defs><style>.cls-1{fill:#0b6fc5;}.cls-2{fill:#00ace4;}.cls-3{fill:#fff;}.cls-4{fill:#fffeff;}.cls-5{fill:#ebebeb;}</style></defs><rect class="cls-1" x="202.89" y="95.96" width="10.69" height="10.69"/><rect class="cls-1" x="202.89" y="85.27" width="10.69" height="10.69"/><rect class="cls-1" x="202.89" y="74.57" width="10.69" height="10.7"/><rect class="cls-1" x="202.89" y="63.88" width="10.69" height="10.69"/><rect class="cls-1" x="202.89" y="53.19" width="10.69" height="10.69"/><rect class="cls-1" x="202.89" y="42.5" width="10.69" height="10.69"/><rect class="cls-1" x="202.89" y="31.8" width="10.69" height="10.7"/><rect class="cls-1" x="202.89" y="21.11" width="10.69" height="10.69"/><rect class="cls-1" x="202.89" y="10.42" width="10.69" height="10.69"/><rect class="cls-1" x="202.89" y="-0.28" width="10.69" height="10.7"/><rect class="cls-1" x="192.2" y="181.5" width="10.69" height="10.7"/><rect class="cls-1" x="192.2" y="170.81" width="10.69" height="10.69"/><rect class="cls-1" x="192.2" y="160.12" width="10.69" height="10.69"/><rect class="cls-1" x="192.2" y="149.43" width="10.69" height="10.69"/><rect class="cls-1" x="192.2" y="138.73" width="10.69" height="10.7"/><rect class="cls-1" x="192.2" y="128.04" width="10.69" height="10.69"/><rect class="cls-1" x="192.2" y="117.35" width="10.69" height="10.69"/><rect class="cls-1" x="192.2" y="106.65" width="10.69" height="10.7"/><rect class="cls-1" x="192.2" y="95.96" width="10.69" height="10.69"/><rect class="cls-1" x="192.2" y="85.27" width="10.69" height="10.69"/><rect class="cls-1" x="192.2" y="74.57" width="10.69" height="10.7"/><rect class="cls-1" x="192.2" y="63.88" width="10.69" height="10.69"/><rect class="cls-1" x="192.2" y="53.19" width="10.69" height="10.69"/><rect class="cls-1" x="192.2" y="42.5" width="10.69" height="10.69"/><rect class="cls-1" x="192.2" y="31.8" width="10.69" height="10.7"/><rect class="cls-1" x="192.2" y="21.11" width="10.69" height="10.69"/><rect class="cls-1" x="192.2" y="10.42" width="10.69" height="10.69"/><rect class="cls-1" x="192.2" y="-0.28" width="10.69" height="10.7"/><rect class="cls-1" x="181.5" y="192.2" width="10.7" height="10.69"/><rect class="cls-1" x="181.5" y="181.5" width="10.7" height="10.7"/><rect class="cls-1" x="181.5" y="170.81" width="10.7" height="10.69"/><rect class="cls-1" x="181.5" y="160.12" width="10.7" height="10.69"/><rect class="cls-1" x="181.5" y="149.43" width="10.7" height="10.69"/><rect class="cls-1" x="181.5" y="138.73" width="10.7" height="10.7"/><rect class="cls-1" x="181.5" y="128.04" width="10.7" height="10.69"/><rect class="cls-1" x="181.5" y="117.35" width="10.7" height="10.69"/><rect class="cls-1" x="181.5" y="106.65" width="10.7" height="10.7"/><rect class="cls-2" x="181.5" y="95.96" width="10.7" height="10.69"/><rect class="cls-2" x="181.5" y="85.27" width="10.7" height="10.69"/><rect class="cls-2" x="181.5" y="74.57" width="10.7" height="10.7"/><rect class="cls-2" x="181.5" y="63.88" width="10.7" height="10.69"/><rect class="cls-2" x="181.5" y="53.19" width="10.7" height="10.69"/><rect class="cls-2" x="181.5" y="42.5" width="10.7" height="10.69"/><rect class="cls-2" x="181.5" y="31.8" width="10.7" height="10.7"/><rect class="cls-2" x="181.5" y="21.11" width="10.7" height="10.69"/><rect class="cls-1" x="181.5" y="10.42" width="10.7" height="10.69"/><rect class="cls-1" x="181.5" y="-0.28" width="10.7" height="10.7"/><rect class="cls-1" x="170.81" y="202.89" width="10.69" height="10.69"/><rect class="cls-1" x="170.81" y="192.2" width="10.69" height="10.69"/><rect class="cls-1" x="170.81" y="181.5" width="10.69" height="10.7"/><rect class="cls-2" x="170.81" y="170.81" width="10.69" height="10.69"/><rect class="cls-2" x="170.81" y="160.12" width="10.69" height="10.69"/><rect class="cls-2" x="170.81" y="149.43" width="10.69" height="10.69"/><rect class="cls-2" x="170.81" y="138.73" width="10.69" height="10.7"/><rect class="cls-2" x="170.81" y="128.04" width="10.69" height="10.69"/><rect class="cls-2" x="170.81" y="117.35" width="10.69" height="10.69"/><rect class="cls-2" x="170.81" y="106.65" width="10.69" height="10.7"/><rect class="cls-2" x="170.81" y="95.96" width="10.69" height="10.69"/><rect class="cls-2" x="170.81" y="85.27" width="10.69" height="10.69"/><rect class="cls-2" x="170.81" y="74.57" width="10.69" height="10.7"/><rect class="cls-2" x="170.81" y="63.88" width="10.69" height="10.69"/><rect class="cls-3" x="170.81" y="53.19" width="10.69" height="10.69"/><rect class="cls-3" x="170.81" y="42.5" width="10.69" height="10.69"/><rect class="cls-2" x="170.81" y="31.8" width="10.69" height="10.7"/><rect class="cls-2" x="170.81" y="21.11" width="10.69" height="10.69"/><rect class="cls-1" x="170.81" y="10.42" width="10.69" height="10.69"/><rect class="cls-1" x="170.81" y="-0.28" width="10.69" height="10.7"/><rect class="cls-1" x="160.12" y="202.89" width="10.69" height="10.69"/><rect class="cls-1" x="160.12" y="192.2" width="10.69" height="10.69"/><rect class="cls-2" x="160.12" y="181.5" width="10.69" height="10.7"/><rect class="cls-2" x="160.12" y="170.81" width="10.69" height="10.69"/><rect class="cls-3" x="160.12" y="160.12" width="10.69" height="10.69"/><rect class="cls-3" x="160.12" y="149.43" width="10.69" height="10.69"/><rect class="cls-4" x="160.12" y="138.73" width="10.69" height="10.7"/><rect class="cls-3" x="160.12" y="128.04" width="10.69" height="10.69"/><rect class="cls-3" x="160.12" y="117.35" width="10.69" height="10.69"/><rect class="cls-3" x="160.12" y="106.65" width="10.69" height="10.7"/><rect class="cls-3" x="160.12" y="95.96" width="10.69" height="10.69"/><rect class="cls-2" x="160.12" y="85.27" width="10.69" height="10.69"/><rect class="cls-2" x="160.12" y="74.57" width="10.69" height="10.7"/><rect class="cls-3" x="160.12" y="63.88" width="10.69" height="10.69"/><rect class="cls-3" x="160.12" y="53.19" width="10.69" height="10.69"/><rect class="cls-3" x="160.12" y="42.5" width="10.69" height="10.69"/><rect class="cls-2" x="160.12" y="31.8" width="10.69" height="10.7"/><rect class="cls-2" x="160.12" y="21.11" width="10.69" height="10.69"/><rect class="cls-1" x="160.12" y="10.42" width="10.69" height="10.69"/><rect class="cls-1" x="160.12" y="-0.28" width="10.69" height="10.7"/><rect class="cls-1" x="149.43" y="202.89" width="10.69" height="10.69"/><rect class="cls-1" x="149.43" y="192.2" width="10.69" height="10.69"/><rect class="cls-2" x="149.43" y="181.5" width="10.69" height="10.7"/><rect class="cls-2" x="149.43" y="170.81" width="10.69" height="10.69"/><rect class="cls-3" x="149.43" y="160.12" width="10.69" height="10.69"/><rect class="cls-3" x="149.43" y="149.43" width="10.69" height="10.69"/><rect class="cls-3" x="149.43" y="138.73" width="10.69" height="10.7"/><rect class="cls-3" x="149.43" y="128.04" width="10.69" height="10.69"/><rect class="cls-3" x="149.43" y="117.35" width="10.69" height="10.69"/><rect class="cls-3" x="149.43" y="106.65" width="10.69" height="10.7"/><rect class="cls-3" x="149.43" y="95.96" width="10.69" height="10.69"/><rect class="cls-2" x="149.43" y="85.27" width="10.69" height="10.69"/><rect class="cls-2" x="149.43" y="74.57" width="10.69" height="10.7"/><rect class="cls-3" x="149.43" y="63.88" width="10.69" height="10.69"/><rect class="cls-3" x="149.43" y="53.19" width="10.69" height="10.69"/><rect class="cls-3" x="149.43" y="42.5" width="10.69" height="10.69"/><rect class="cls-2" x="149.43" y="31.8" width="10.69" height="10.7"/><rect class="cls-2" x="149.43" y="21.11" width="10.69" height="10.69"/><rect class="cls-1" x="149.43" y="10.42" width="10.69" height="10.69"/><rect class="cls-1" x="149.43" y="-0.28" width="10.69" height="10.7"/><rect class="cls-1" x="138.73" y="202.89" width="10.7" height="10.69"/><rect class="cls-1" x="138.73" y="192.2" width="10.7" height="10.69"/><rect class="cls-2" x="138.73" y="181.5" width="10.7" height="10.7"/><rect class="cls-2" x="138.73" y="170.81" width="10.7" height="10.69"/><rect class="cls-3" x="138.73" y="160.12" width="10.7" height="10.69"/><rect class="cls-3" x="138.73" y="149.43" width="10.7" height="10.69"/><rect class="cls-2" x="138.73" y="138.73" width="10.7" height="10.7"/><rect class="cls-2" x="138.73" y="128.04" width="10.7" height="10.69"/><rect class="cls-2" x="138.73" y="117.35" width="10.7" height="10.69"/><rect class="cls-3" x="138.73" y="106.65" width="10.7" height="10.7"/><rect class="cls-3" x="138.73" y="95.96" width="10.7" height="10.69"/><rect class="cls-2" x="138.73" y="85.27" width="10.7" height="10.69"/><rect class="cls-3" x="138.73" y="74.57" width="10.7" height="10.7"/><rect class="cls-3" x="138.73" y="63.88" width="10.7" height="10.69"/><rect class="cls-3" x="138.73" y="53.19" width="10.7" height="10.69"/><rect class="cls-3" x="138.73" y="42.5" width="10.7" height="10.69"/><rect class="cls-2" x="138.73" y="31.8" width="10.7" height="10.7"/><rect class="cls-2" x="138.73" y="21.11" width="10.7" height="10.69"/><rect class="cls-1" x="138.73" y="10.42" width="10.7" height="10.69"/><rect class="cls-1" x="138.73" y="-0.28" width="10.7" height="10.7"/><rect class="cls-1" x="128.04" y="213.58" width="10.69" height="10.7"/><rect class="cls-1" x="128.04" y="202.89" width="10.69" height="10.69"/><rect class="cls-2" x="128.04" y="192.2" width="10.69" height="10.69"/><rect class="cls-2" x="128.04" y="181.5" width="10.69" height="10.7"/><rect class="cls-3" x="128.04" y="170.81" width="10.69" height="10.69"/><rect class="cls-3" x="128.04" y="160.12" width="10.69" height="10.69"/><rect class="cls-3" x="128.04" y="149.43" width="10.69" height="10.69"/><rect class="cls-2" x="128.04" y="138.73" width="10.69" height="10.7"/><rect class="cls-2" x="128.04" y="128.04" width="10.69" height="10.69"/><rect class="cls-2" x="128.04" y="117.35" width="10.69" height="10.69"/><rect class="cls-3" x="128.04" y="106.65" width="10.69" height="10.7"/><rect class="cls-3" x="128.04" y="95.96" width="10.69" height="10.69"/><rect class="cls-2" x="128.04" y="85.27" width="10.69" height="10.69"/><rect class="cls-3" x="128.04" y="74.57" width="10.69" height="10.7"/><rect class="cls-3" x="128.04" y="63.88" width="10.69" height="10.69"/><rect class="cls-3" x="128.04" y="53.19" width="10.69" height="10.69"/><rect class="cls-3" x="128.04" y="42.5" width="10.69" height="10.69"/><rect class="cls-2" x="128.04" y="31.8" width="10.69" height="10.7"/><rect class="cls-2" x="128.04" y="21.11" width="10.69" height="10.69"/><rect class="cls-1" x="128.04" y="10.42" width="10.69" height="10.69"/><rect class="cls-1" x="128.04" y="-0.28" width="10.69" height="10.7"/><rect class="cls-1" x="117.35" y="213.58" width="10.69" height="10.7"/><rect class="cls-1" x="117.35" y="202.89" width="10.69" height="10.69"/><rect class="cls-2" x="117.35" y="192.2" width="10.69" height="10.69"/><rect class="cls-2" x="117.35" y="181.5" width="10.69" height="10.7"/><rect class="cls-3" x="117.35" y="170.81" width="10.69" height="10.69"/><rect class="cls-3" x="117.35" y="160.12" width="10.69" height="10.69"/><rect class="cls-2" x="117.35" y="149.43" width="10.69" height="10.69"/><rect class="cls-2" x="117.35" y="138.73" width="10.69" height="10.7"/><rect class="cls-2" x="117.35" y="128.04" width="10.69" height="10.69"/><rect class="cls-2" x="117.35" y="117.35" width="10.69" height="10.69"/><rect class="cls-3" x="117.35" y="106.65" width="10.69" height="10.7"/><rect class="cls-3" x="117.35" y="95.96" width="10.69" height="10.69"/><rect class="cls-3" x="117.35" y="85.27" width="10.69" height="10.69"/><rect class="cls-3" x="117.35" y="74.57" width="10.69" height="10.7"/><rect class="cls-3" x="117.35" y="63.88" width="10.69" height="10.69"/><rect class="cls-3" x="117.35" y="53.19" width="10.69" height="10.69"/><rect class="cls-3" x="117.35" y="42.5" width="10.69" height="10.69"/><rect class="cls-2" x="117.35" y="31.8" width="10.69" height="10.7"/><rect class="cls-2" x="117.35" y="21.11" width="10.69" height="10.69"/><rect class="cls-1" x="117.35" y="10.42" width="10.69" height="10.69"/><rect class="cls-1" x="117.35" y="-0.28" width="10.69" height="10.7"/><rect class="cls-1" x="106.65" y="213.58" width="10.7" height="10.7"/><rect class="cls-1" x="106.65" y="202.89" width="10.7" height="10.69"/><rect class="cls-2" x="106.65" y="192.2" width="10.7" height="10.69"/><rect class="cls-1" x="106.65" y="181.5" width="10.7" height="10.7"/><rect class="cls-3" x="106.65" y="170.81" width="10.7" height="10.69"/><rect class="cls-5" x="106.65" y="160.12" width="10.7" height="10.69"/><rect class="cls-2" x="106.65" y="149.43" width="10.7" height="10.69"/><rect class="cls-1" x="106.65" y="138.73" width="10.7" height="10.7"/><rect class="cls-2" x="106.65" y="128.04" width="10.7" height="10.69"/><rect class="cls-1" x="106.65" y="117.35" width="10.7" height="10.69"/><rect class="cls-3" x="106.65" y="106.65" width="10.7" height="10.7"/><rect class="cls-5" x="106.65" y="95.96" width="10.7" height="10.69"/><rect class="cls-3" x="106.65" y="85.27" width="10.7" height="10.69"/><rect class="cls-5" x="106.65" y="74.57" width="10.7" height="10.7"/><rect class="cls-3" x="106.65" y="63.88" width="10.7" height="10.69"/><rect class="cls-5" x="106.65" y="53.19" width="10.7" height="10.69"/><rect class="cls-3" x="106.65" y="42.5" width="10.7" height="10.69"/><rect class="cls-1" x="106.65" y="31.8" width="10.7" height="10.7"/><rect class="cls-2" x="106.65" y="21.11" width="10.7" height="10.69"/><rect class="cls-1" x="106.65" y="10.42" width="10.7" height="10.69"/><rect class="cls-1" x="106.65" y="-0.28" width="10.7" height="10.7"/><rect class="cls-1" x="95.96" y="213.58" width="10.69" height="10.7"/><rect class="cls-1" x="95.96" y="202.89" width="10.69" height="10.69"/><rect class="cls-1" x="95.96" y="192.2" width="10.69" height="10.69"/><rect class="cls-1" x="95.96" y="181.5" width="10.69" height="10.7"/><rect class="cls-5" x="95.96" y="170.81" width="10.69" height="10.69"/><rect class="cls-5" x="95.96" y="160.12" width="10.69" height="10.69"/><rect class="cls-1" x="95.96" y="149.43" width="10.69" height="10.69"/><rect class="cls-1" x="95.96" y="138.73" width="10.69" height="10.7"/><rect class="cls-1" x="95.96" y="128.04" width="10.69" height="10.69"/><rect class="cls-1" x="95.96" y="117.35" width="10.69" height="10.69"/><rect class="cls-5" x="95.96" y="106.65" width="10.69" height="10.7"/><rect class="cls-5" x="95.96" y="95.96" width="10.69" height="10.69"/><rect class="cls-5" x="95.96" y="85.27" width="10.69" height="10.69"/><rect class="cls-5" x="95.96" y="74.57" width="10.69" height="10.7"/><rect class="cls-5" x="95.96" y="63.88" width="10.69" height="10.69"/><rect class="cls-5" x="95.96" y="53.19" width="10.69" height="10.69"/><rect class="cls-5" x="95.96" y="42.5" width="10.69" height="10.69"/><rect class="cls-1" x="95.96" y="31.8" width="10.69" height="10.7"/><rect class="cls-1" x="95.96" y="21.11" width="10.69" height="10.69"/><rect class="cls-1" x="95.96" y="10.42" width="10.69" height="10.69"/><rect class="cls-1" x="95.96" y="-0.28" width="10.69" height="10.7"/><rect class="cls-1" x="85.27" y="213.58" width="10.69" height="10.7"/><rect class="cls-1" x="85.27" y="202.89" width="10.69" height="10.69"/><rect class="cls-1" x="85.27" y="192.2" width="10.69" height="10.69"/><rect class="cls-1" x="85.27" y="181.5" width="10.69" height="10.7"/><rect class="cls-5" x="85.27" y="170.81" width="10.69" height="10.69"/><rect class="cls-5" x="85.27" y="160.12" width="10.69" height="10.69"/><rect class="cls-5" x="85.27" y="149.43" width="10.69" height="10.69"/><rect class="cls-1" x="85.27" y="138.73" width="10.69" height="10.7"/><rect class="cls-1" x="85.27" y="128.04" width="10.69" height="10.69"/><rect class="cls-1" x="85.27" y="117.35" width="10.69" height="10.69"/><rect class="cls-5" x="85.27" y="106.65" width="10.69" height="10.7"/><rect class="cls-5" x="85.27" y="95.96" width="10.69" height="10.69"/><rect class="cls-5" x="85.27" y="85.27" width="10.69" height="10.69"/><rect class="cls-5" x="85.27" y="74.57" width="10.69" height="10.7"/><rect class="cls-1" x="85.27" y="63.88" width="10.69" height="10.69"/><rect class="cls-5" x="85.27" y="53.19" width="10.69" height="10.69"/><rect class="cls-5" x="85.27" y="42.5" width="10.69" height="10.69"/><rect class="cls-1" x="85.27" y="31.8" width="10.69" height="10.7"/><rect class="cls-1" x="85.27" y="21.11" width="10.69" height="10.69"/><rect class="cls-1" x="85.27" y="10.42" width="10.69" height="10.69"/><rect class="cls-1" x="85.27" y="-0.28" width="10.69" height="10.7"/><rect class="cls-1" x="74.57" y="202.89" width="10.7" height="10.69"/><rect class="cls-1" x="74.57" y="192.2" width="10.7" height="10.69"/><rect class="cls-1" x="74.57" y="181.5" width="10.7" height="10.7"/><rect class="cls-1" x="74.57" y="170.81" width="10.7" height="10.69"/><rect class="cls-5" x="74.57" y="160.12" width="10.7" height="10.69"/><rect class="cls-5" x="74.57" y="149.43" width="10.7" height="10.69"/><rect class="cls-1" x="74.57" y="138.73" width="10.7" height="10.7"/><rect class="cls-1" x="74.57" y="128.04" width="10.7" height="10.69"/><rect class="cls-1" x="74.57" y="117.35" width="10.7" height="10.69"/><rect class="cls-5" x="74.57" y="106.65" width="10.7" height="10.7"/><rect class="cls-5" x="74.57" y="95.96" width="10.7" height="10.69"/><rect class="cls-5" x="74.57" y="85.27" width="10.7" height="10.69"/><rect class="cls-5" x="74.57" y="74.57" width="10.7" height="10.7"/><rect class="cls-1" x="74.57" y="63.88" width="10.7" height="10.69"/><rect class="cls-5" x="74.57" y="53.19" width="10.7" height="10.69"/><rect class="cls-5" x="74.57" y="42.5" width="10.7" height="10.69"/><rect class="cls-1" x="74.57" y="31.8" width="10.7" height="10.7"/><rect class="cls-1" x="74.57" y="21.11" width="10.7" height="10.69"/><rect class="cls-1" x="74.57" y="10.42" width="10.7" height="10.69"/><rect class="cls-1" x="74.57" y="-0.28" width="10.7" height="10.7"/><rect class="cls-1" x="63.88" y="202.89" width="10.69" height="10.69"/><rect class="cls-1" x="63.88" y="192.2" width="10.69" height="10.69"/><rect class="cls-1" x="63.88" y="181.5" width="10.69" height="10.7"/><rect class="cls-1" x="63.88" y="170.81" width="10.69" height="10.69"/><rect class="cls-5" x="63.88" y="160.12" width="10.69" height="10.69"/><rect class="cls-5" x="63.88" y="149.43" width="10.69" height="10.69"/><rect class="cls-5" x="63.88" y="138.73" width="10.69" height="10.7"/><rect class="cls-5" x="63.88" y="128.04" width="10.69" height="10.69"/><rect class="cls-1" x="63.88" y="117.35" width="10.69" height="10.69"/><rect class="cls-5" x="63.88" y="106.65" width="10.69" height="10.7"/><rect class="cls-5" x="63.88" y="95.96" width="10.69" height="10.69"/><rect class="cls-5" x="63.88" y="85.27" width="10.69" height="10.69"/><rect class="cls-1" x="63.88" y="74.57" width="10.69" height="10.7"/><rect class="cls-1" x="63.88" y="63.88" width="10.69" height="10.69"/><rect class="cls-5" x="63.88" y="53.19" width="10.69" height="10.69"/><rect class="cls-5" x="63.88" y="42.5" width="10.69" height="10.69"/><rect class="cls-1" x="63.88" y="31.8" width="10.69" height="10.7"/><rect class="cls-1" x="63.88" y="21.11" width="10.69" height="10.69"/><rect class="cls-1" x="63.88" y="10.42" width="10.69" height="10.69"/><rect class="cls-1" x="63.88" y="-0.28" width="10.69" height="10.7"/><rect class="cls-1" x="53.19" y="202.89" width="10.69" height="10.69"/><rect class="cls-1" x="53.19" y="192.2" width="10.69" height="10.69"/><rect class="cls-1" x="53.19" y="181.5" width="10.69" height="10.7"/><rect class="cls-1" x="53.19" y="170.81" width="10.69" height="10.69"/><rect class="cls-5" x="53.19" y="160.12" width="10.69" height="10.69"/><rect class="cls-5" x="53.19" y="149.43" width="10.69" height="10.69"/><rect class="cls-5" x="53.19" y="138.73" width="10.69" height="10.7"/><rect class="cls-5" x="53.19" y="128.04" width="10.69" height="10.69"/><rect class="cls-1" x="53.19" y="117.35" width="10.69" height="10.69"/><rect class="cls-5" x="53.19" y="106.65" width="10.69" height="10.7"/><rect class="cls-5" x="53.19" y="95.96" width="10.69" height="10.69"/><rect class="cls-5" x="53.19" y="85.27" width="10.69" height="10.69"/><rect class="cls-1" x="53.19" y="74.57" width="10.69" height="10.7"/><rect class="cls-1" x="53.19" y="63.88" width="10.69" height="10.69"/><rect class="cls-5" x="53.19" y="53.19" width="10.69" height="10.69"/><rect class="cls-5" x="53.19" y="42.5" width="10.69" height="10.69"/><rect class="cls-1" x="53.19" y="31.8" width="10.69" height="10.7"/><rect class="cls-1" x="53.19" y="21.11" width="10.69" height="10.69"/><rect class="cls-1" x="53.19" y="10.42" width="10.69" height="10.69"/><rect class="cls-1" x="53.19" y="-0.28" width="10.69" height="10.7"/><rect class="cls-1" x="42.5" y="202.89" width="10.69" height="10.69"/><rect class="cls-1" x="42.5" y="192.2" width="10.69" height="10.69"/><rect class="cls-1" x="42.5" y="181.5" width="10.69" height="10.7"/><rect class="cls-1" x="42.5" y="170.81" width="10.69" height="10.69"/><rect class="cls-1" x="42.5" y="160.12" width="10.69" height="10.69"/><rect class="cls-1" x="42.5" y="149.43" width="10.69" height="10.69"/><rect class="cls-1" x="42.5" y="138.73" width="10.69" height="10.7"/><rect class="cls-1" x="42.5" y="128.04" width="10.69" height="10.69"/><rect class="cls-1" x="42.5" y="117.35" width="10.69" height="10.69"/><rect class="cls-1" x="42.5" y="106.65" width="10.69" height="10.7"/><rect class="cls-1" x="42.5" y="95.96" width="10.69" height="10.69"/><rect class="cls-1" x="42.5" y="85.27" width="10.69" height="10.69"/><rect class="cls-1" x="42.5" y="74.57" width="10.69" height="10.7"/><rect class="cls-1" x="42.5" y="63.88" width="10.69" height="10.69"/><rect class="cls-5" x="42.5" y="53.19" width="10.69" height="10.69"/><rect class="cls-5" x="42.5" y="42.5" width="10.69" height="10.69"/><rect class="cls-1" x="42.5" y="31.8" width="10.69" height="10.7"/><rect class="cls-1" x="42.5" y="21.11" width="10.69" height="10.69"/><rect class="cls-1" x="42.5" y="10.42" width="10.69" height="10.69"/><rect class="cls-1" x="42.5" y="-0.28" width="10.69" height="10.7"/><rect class="cls-1" x="31.8" y="192.2" width="10.7" height="10.69"/><rect class="cls-1" x="31.8" y="181.5" width="10.7" height="10.7"/><rect class="cls-1" x="31.8" y="170.81" width="10.7" height="10.69"/><rect class="cls-1" x="31.8" y="160.12" width="10.7" height="10.69"/><rect class="cls-1" x="31.8" y="149.43" width="10.7" height="10.69"/><rect class="cls-1" x="31.8" y="138.73" width="10.7" height="10.7"/><rect class="cls-1" x="31.8" y="128.04" width="10.7" height="10.69"/><rect class="cls-1" x="31.8" y="117.35" width="10.7" height="10.69"/><rect class="cls-1" x="31.8" y="106.65" width="10.7" height="10.7"/><rect class="cls-1" x="31.8" y="95.96" width="10.7" height="10.69"/><rect class="cls-1" x="31.8" y="85.27" width="10.7" height="10.69"/><rect class="cls-1" x="31.8" y="74.57" width="10.7" height="10.7"/><rect class="cls-1" x="31.8" y="63.88" width="10.7" height="10.69"/><rect class="cls-1" x="31.8" y="53.19" width="10.7" height="10.69"/><rect class="cls-1" x="31.8" y="42.5" width="10.7" height="10.69"/><rect class="cls-1" x="31.8" y="31.8" width="10.7" height="10.7"/><rect class="cls-1" x="31.8" y="21.11" width="10.7" height="10.69"/><rect class="cls-1" x="31.8" y="10.42" width="10.7" height="10.69"/><rect class="cls-1" x="31.8" y="-0.28" width="10.7" height="10.7"/><rect class="cls-1" x="21.11" y="181.5" width="10.69" height="10.7"/><rect class="cls-1" x="21.11" y="170.81" width="10.69" height="10.69"/><rect class="cls-1" x="21.11" y="160.12" width="10.69" height="10.69"/><rect class="cls-1" x="21.11" y="149.43" width="10.69" height="10.69"/><rect class="cls-1" x="21.11" y="138.73" width="10.69" height="10.7"/><rect class="cls-1" x="21.11" y="128.04" width="10.69" height="10.69"/><rect class="cls-1" x="21.11" y="117.35" width="10.69" height="10.69"/><rect class="cls-1" x="21.11" y="106.65" width="10.69" height="10.7"/><rect class="cls-1" x="21.11" y="95.96" width="10.69" height="10.69"/><rect class="cls-1" x="21.11" y="85.27" width="10.69" height="10.69"/><rect class="cls-1" x="21.11" y="74.57" width="10.69" height="10.7"/><rect class="cls-1" x="21.11" y="63.88" width="10.69" height="10.69"/><rect class="cls-1" x="21.11" y="53.19" width="10.69" height="10.69"/><rect class="cls-1" x="21.11" y="42.5" width="10.69" height="10.69"/><rect class="cls-1" x="21.11" y="31.8" width="10.69" height="10.7"/><rect class="cls-1" x="21.11" y="21.11" width="10.69" height="10.69"/><rect class="cls-1" x="21.11" y="10.42" width="10.69" height="10.69"/><rect class="cls-1" x="21.11" y="-0.28" width="10.69" height="10.7"/><rect class="cls-1" x="10.42" y="95.96" width="10.69" height="10.69"/><rect class="cls-1" x="10.42" y="85.27" width="10.69" height="10.69"/><rect class="cls-1" x="10.42" y="74.57" width="10.69" height="10.7"/><rect class="cls-1" x="10.42" y="63.88" width="10.69" height="10.69"/><rect class="cls-1" x="10.42" y="53.19" width="10.69" height="10.69"/><rect class="cls-1" x="10.42" y="42.5" width="10.69" height="10.69"/><rect class="cls-1" x="10.42" y="31.8" width="10.69" height="10.7"/><rect class="cls-1" x="10.42" y="21.11" width="10.69" height="10.69"/><rect class="cls-1" x="10.42" y="10.42" width="10.69" height="10.69"/><rect class="cls-1" x="10.42" y="-0.28" width="10.69" height="10.7"/></svg>