<svg id="tecnologias" xmlns="http://www.w3.org/2000/svg" viewBox="0 0 224 224"><defs><style>.cls-1{fill:#2497ed;}</style></defs><rect class="cls-1" x="74.67" y="181.33" width="10.66" height="10.66"/><rect class="cls-1" x="64" y="181.33" width="10.66" height="10.66"/><rect class="cls-1" x="96" y="181.33" width="10.66" height="10.66"/><rect class="cls-1" x="85.33" y="181.33" width="10.67" height="10.66"/><rect class="cls-1" x="213.34" y="85.33" width="10.66" height="10.66"/><rect class="cls-1" x="213.34" y="74.67" width="10.66" height="10.66"/><rect class="cls-1" x="202.67" y="95.99" width="10.66" height="10.67"/><rect class="cls-1" x="202.67" y="85.33" width="10.66" height="10.66"/><rect class="cls-1" x="202.67" y="74.67" width="10.66" height="10.66"/><rect class="cls-1" x="192" y="95.99" width="10.67" height="10.67"/><rect class="cls-1" x="192" y="85.33" width="10.67" height="10.66"/><rect class="cls-1" x="192" y="74.67" width="10.67" height="10.66"/><rect class="cls-1" x="192" y="63.99" width="10.67" height="10.67"/><rect class="cls-1" x="181.33" y="117.33" width="10.66" height="10.66"/><rect class="cls-1" x="181.33" y="106.67" width="10.66" height="10.66"/><rect class="cls-1" x="181.33" y="95.99" width="10.66" height="10.67"/><rect class="cls-1" x="181.33" y="85.33" width="10.66" height="10.66"/><rect class="cls-1" x="181.33" y="74.67" width="10.66" height="10.66"/><rect class="cls-1" x="181.33" y="63.99" width="10.66" height="10.67"/><rect class="cls-1" x="181.33" y="53.33" width="10.66" height="10.66"/><rect class="cls-1" x="170.67" y="128" width="10.66" height="10.67"/><rect class="cls-1" x="170.67" y="117.33" width="10.66" height="10.66"/><rect class="cls-1" x="170.67" y="106.67" width="10.66" height="10.66"/><rect class="cls-1" x="170.67" y="95.99" width="10.66" height="10.67"/><rect class="cls-1" x="170.67" y="74.67" width="10.66" height="10.66"/><rect class="cls-1" x="170.67" y="63.99" width="10.66" height="10.67"/><rect class="cls-1" x="160.01" y="138.67" width="10.66" height="10.66"/><rect class="cls-1" x="160.01" y="128" width="10.66" height="10.67"/><rect class="cls-1" x="160.01" y="117.33" width="10.66" height="10.66"/><rect class="cls-1" x="160.01" y="106.67" width="10.66" height="10.66"/><rect class="cls-1" x="160.01" y="95.99" width="10.66" height="10.67"/><rect class="cls-1" x="149.33" y="149.33" width="10.67" height="10.66"/><rect class="cls-1" x="149.33" y="138.67" width="10.67" height="10.66"/><rect class="cls-1" x="149.33" y="128" width="10.67" height="10.67"/><rect class="cls-1" x="149.33" y="117.33" width="10.67" height="10.66"/><rect class="cls-1" x="149.33" y="106.67" width="10.67" height="10.66"/><rect class="cls-1" x="149.33" y="95.99" width="10.67" height="10.67"/><rect class="cls-1" x="149.33" y="74.67" width="10.67" height="10.66"/><rect class="cls-1" x="138.67" y="160" width="10.66" height="10.66"/><rect class="cls-1" x="138.67" y="149.33" width="10.66" height="10.66"/><rect class="cls-1" x="138.67" y="138.67" width="10.66" height="10.66"/><rect class="cls-1" x="138.67" y="128" width="10.66" height="10.67"/><rect class="cls-1" x="138.67" y="117.33" width="10.66" height="10.66"/><rect class="cls-1" x="138.67" y="106.67" width="10.66" height="10.66"/><rect class="cls-1" x="138.67" y="95.99" width="10.66" height="10.67"/><rect class="cls-1" x="138.67" y="74.67" width="10.66" height="10.66"/><rect class="cls-1" x="128.01" y="160" width="10.66" height="10.66"/><rect class="cls-1" x="128.01" y="149.33" width="10.66" height="10.66"/><rect class="cls-1" x="128.01" y="138.67" width="10.66" height="10.66"/><rect class="cls-1" x="128.01" y="128" width="10.66" height="10.67"/><rect class="cls-1" x="128.01" y="117.33" width="10.66" height="10.66"/><rect class="cls-1" x="128.01" y="106.67" width="10.66" height="10.66"/><rect class="cls-1" x="128.01" y="95.99" width="10.66" height="10.67"/><rect class="cls-1" x="117.33" y="170.66" width="10.67" height="10.67"/><rect class="cls-1" x="117.33" y="160" width="10.67" height="10.66"/><rect class="cls-1" x="117.33" y="149.33" width="10.67" height="10.66"/><rect class="cls-1" x="117.33" y="138.67" width="10.67" height="10.66"/><rect class="cls-1" x="117.33" y="128" width="10.67" height="10.67"/><rect class="cls-1" x="117.33" y="117.33" width="10.67" height="10.66"/><rect class="cls-1" x="117.33" y="106.67" width="10.67" height="10.66"/><rect class="cls-1" x="117.33" y="95.99" width="10.67" height="10.67"/><rect class="cls-1" x="117.33" y="74.67" width="10.67" height="10.66"/><rect class="cls-1" x="117.33" y="53.33" width="10.67" height="10.66"/><rect class="cls-1" x="117.33" y="32" width="10.67" height="10.66"/><rect class="cls-1" x="106.67" y="170.66" width="10.66" height="10.67"/><rect class="cls-1" x="106.67" y="160" width="10.66" height="10.66"/><rect class="cls-1" x="106.67" y="149.33" width="10.66" height="10.66"/><rect class="cls-1" x="106.67" y="138.67" width="10.66" height="10.66"/><rect class="cls-1" x="106.67" y="128" width="10.66" height="10.67"/><rect class="cls-1" x="106.67" y="117.33" width="10.66" height="10.66"/><rect class="cls-1" x="106.67" y="106.67" width="10.66" height="10.66"/><rect class="cls-1" x="106.67" y="95.99" width="10.66" height="10.67"/><rect class="cls-1" x="106.67" y="74.67" width="10.66" height="10.66"/><rect class="cls-1" x="106.67" y="53.33" width="10.66" height="10.66"/><rect class="cls-1" x="106.67" y="32" width="10.66" height="10.66"/><rect class="cls-1" x="96" y="170.66" width="10.66" height="10.67"/><rect class="cls-1" x="96" y="160" width="10.66" height="10.66"/><rect class="cls-1" x="96" y="149.33" width="10.66" height="10.66"/><rect class="cls-1" x="96" y="138.67" width="10.66" height="10.66"/><rect class="cls-1" x="96" y="128" width="10.66" height="10.67"/><rect class="cls-1" x="96" y="117.33" width="10.66" height="10.66"/><rect class="cls-1" x="96" y="106.67" width="10.66" height="10.66"/><rect class="cls-1" x="96" y="95.99" width="10.66" height="10.67"/><rect class="cls-1" x="85.33" y="170.66" width="10.67" height="10.67"/><rect class="cls-1" x="85.33" y="160" width="10.67" height="10.66"/><rect class="cls-1" x="85.33" y="149.33" width="10.67" height="10.66"/><rect class="cls-1" x="85.33" y="138.67" width="10.67" height="10.66"/><rect class="cls-1" x="85.33" y="128" width="10.67" height="10.67"/><rect class="cls-1" x="85.33" y="117.33" width="10.67" height="10.66"/><rect class="cls-1" x="85.33" y="106.67" width="10.67" height="10.66"/><rect class="cls-1" x="85.33" y="95.99" width="10.67" height="10.67"/><rect class="cls-1" x="85.33" y="74.67" width="10.67" height="10.66"/><rect class="cls-1" x="85.33" y="53.33" width="10.67" height="10.66"/><rect class="cls-1" x="74.67" y="170.66" width="10.66" height="10.67"/><rect class="cls-1" x="74.67" y="160" width="10.66" height="10.66"/><rect class="cls-1" x="74.67" y="149.33" width="10.66" height="10.66"/><rect class="cls-1" x="74.67" y="138.67" width="10.66" height="10.66"/><rect class="cls-1" x="74.67" y="128" width="10.66" height="10.67"/><rect class="cls-1" x="74.67" y="117.33" width="10.66" height="10.66"/><rect class="cls-1" x="74.67" y="106.67" width="10.66" height="10.66"/><rect class="cls-1" x="74.67" y="95.99" width="10.66" height="10.67"/><rect class="cls-1" x="74.67" y="74.67" width="10.66" height="10.66"/><rect class="cls-1" x="74.67" y="53.33" width="10.66" height="10.66"/><rect class="cls-1" x="64" y="170.66" width="10.66" height="10.67"/><rect class="cls-1" x="64" y="160" width="10.66" height="10.66"/><rect class="cls-1" x="64" y="149.33" width="10.66" height="10.66"/><rect class="cls-1" x="64" y="138.67" width="10.66" height="10.66"/><rect class="cls-1" x="64" y="128" width="10.66" height="10.67"/><rect class="cls-1" x="64" y="117.33" width="10.66" height="10.66"/><rect class="cls-1" x="64" y="106.67" width="10.66" height="10.66"/><rect class="cls-1" x="64" y="95.99" width="10.66" height="10.67"/><rect class="cls-1" x="53.34" y="170.66" width="10.66" height="10.67"/><rect class="cls-1" x="53.34" y="160" width="10.66" height="10.66"/><rect class="cls-1" x="53.34" y="149.33" width="10.66" height="10.66"/><rect class="cls-1" x="53.34" y="138.67" width="10.66" height="10.66"/><rect class="cls-1" x="53.34" y="128" width="10.66" height="10.67"/><rect class="cls-1" x="53.34" y="117.33" width="10.66" height="10.66"/><rect class="cls-1" x="53.34" y="106.67" width="10.66" height="10.66"/><rect class="cls-1" x="53.34" y="95.99" width="10.66" height="10.67"/><rect class="cls-1" x="53.34" y="74.67" width="10.66" height="10.66"/><rect class="cls-1" x="53.34" y="53.33" width="10.66" height="10.66"/><rect class="cls-1" x="42.67" y="170.66" width="10.67" height="10.67"/><rect class="cls-1" x="42.67" y="160" width="10.67" height="10.66"/><rect class="cls-1" x="42.67" y="149.33" width="10.67" height="10.66"/><rect class="cls-1" x="42.67" y="138.67" width="10.67" height="10.66"/><rect class="cls-1" x="42.67" y="128" width="10.67" height="10.67"/><rect class="cls-1" x="42.67" y="117.33" width="10.67" height="10.66"/><rect class="cls-1" x="42.67" y="106.67" width="10.67" height="10.66"/><rect class="cls-1" x="42.67" y="95.99" width="10.67" height="10.67"/><rect class="cls-1" x="42.67" y="74.67" width="10.67" height="10.66"/><rect class="cls-1" x="42.67" y="53.33" width="10.67" height="10.66"/><rect class="cls-1" x="32" y="160" width="10.66" height="10.66"/><rect class="cls-1" x="32" y="149.33" width="10.66" height="10.66"/><rect class="cls-1" x="32" y="138.67" width="10.66" height="10.66"/><rect class="cls-1" x="32" y="128" width="10.66" height="10.67"/><rect class="cls-1" x="32" y="117.33" width="10.66" height="10.66"/><rect class="cls-1" x="32" y="106.67" width="10.66" height="10.66"/><rect class="cls-1" x="32" y="95.99" width="10.66" height="10.67"/><rect class="cls-1" x="21.34" y="160" width="10.66" height="10.66"/><rect class="cls-1" x="21.34" y="149.33" width="10.66" height="10.66"/><rect class="cls-1" x="21.34" y="138.67" width="10.66" height="10.66"/><rect class="cls-1" x="21.34" y="128" width="10.66" height="10.67"/><rect class="cls-1" x="21.34" y="117.33" width="10.66" height="10.66"/><rect class="cls-1" x="21.34" y="106.67" width="10.66" height="10.66"/><rect class="cls-1" x="21.34" y="95.99" width="10.66" height="10.67"/><rect class="cls-1" x="21.34" y="74.67" width="10.66" height="10.66"/><rect class="cls-1" x="10.66" y="138.67" width="10.67" height="10.66"/><rect class="cls-1" x="10.66" y="128" width="10.67" height="10.67"/><rect class="cls-1" x="10.66" y="117.33" width="10.67" height="10.66"/><rect class="cls-1" x="10.66" y="106.67" width="10.67" height="10.66"/><rect class="cls-1" x="10.66" y="95.99" width="10.67" height="10.67"/><rect class="cls-1" x="10.66" y="74.67" width="10.67" height="10.66"/><rect class="cls-1" y="117.33" width="10.66" height="10.66"/><rect class="cls-1" y="106.67" width="10.66" height="10.66"/><rect class="cls-1" y="95.99" width="10.66" height="10.67"/></svg>