<?xml version="1.0" encoding="utf-8"?>
<svg xmlns="http://www.w3.org/2000/svg" viewBox="-1871.9445 -688.6885 224 223.9998" width="224px" height="223.9998px"><g transform="matrix(1, 0, 0, 0.9999989867210388, -1871.9444580078125, -688.6885375976562)" id="object-2"><path d="M 0 18.667 H 9.333 V 28 H 0 V 18.667 Z" style="fill: #ffffff;"/><path d="M 0 28 H 9.333 V 37.333 H 0 V 28 Z" style="fill: #ffffff;"/><path d="M 0 37.333 H 9.333 V 46.667 H 0 V 37.333 Z" style="fill: #ffffff;"/><path d="M 0 46.667 H 9.333 V 56 H 0 V 46.667 Z" style="fill: #fffeff;"/><path d="M 0 56 H 9.333 V 65.333 H 0 V 56 Z" style="fill: #ffffff;"/><path d="M 0 65.333 H 9.333 V 74.667 H 0 V 65.333 Z" style="fill: #ffffff;"/><path d="M 0 74.667 H 9.333 V 84 H 0 V 74.667 Z" style="fill: #ffffff;"/><path d="M 0 84 H 9.333 V 93.333 H 0 V 84 Z" style="fill: #ffffff;"/><path d="M 0 93.333 H 9.333 V 102.667 H 0 V 93.333 Z" style="fill: #ffffff;"/><path d="M 0 102.667 H 9.333 V 112 H 0 V 102.667 Z" style="fill: #ffffff;"/><path d="M 0 112 H 9.333 V 121.333 H 0 V 112 Z" style="fill: #ffffff;"/><path d="M 0 121.333 H 9.333 V 130.667 H 0 V 121.333 Z" style="fill: #ffffff;"/><path d="M 0 130.667 H 9.333 V 140 H 0 V 130.667 Z" style="fill: #ffffff;"/><path d="M 0 140 H 9.333 V 149.333 H 0 V 140 Z" style="fill: #ffffff;"/><path d="M 0 149.333 H 9.333 V 158.667 H 0 V 149.333 Z" style="fill: #ffffff;"/><path d="M 0 158.667 H 9.333 V 168 H 0 V 158.667 Z" style="fill: #ffffff;"/><path d="M 0 168 H 9.333 V 177.333 H 0 V 168 Z" style="fill: #ffffff;"/><path d="M 0 177.333 H 9.333 V 186.667 H 0 V 177.333 Z" style="fill: #ffffff;"/><path d="M 0 186.667 H 9.333 V 196 H 0 V 186.667 Z" style="fill: #ffffff;"/><path d="M 0 196 H 9.333 V 205.333 H 0 V 196 Z" style="fill: #ffffff;"/><path d="M 9.333 9.333 H 18.667 V 18.667 H 9.333 V 9.333 Z" style="fill: #ffffff;"/><path d="M 9.333 18.667 H 18.667 V 28 H 9.333 V 18.667 Z" style="fill: #ffffff;"/><path d="M 9.333 28 H 18.667 V 37.333 H 9.333 V 28 Z" style="fill: #ffffff;"/><path d="M 9.333 37.333 H 18.667 V 46.667 H 9.333 V 37.333 Z" style="fill: #ffffff;"/><path d="M 9.333 46.667 H 18.667 V 56 H 9.333 V 46.667 Z" style="fill: #fffffd;"/><path d="M 9.333 56 H 18.667 V 65.333 H 9.333 V 56 Z" style="fill: #ffffff;"/><path d="M 9.333 65.333 H 18.667 V 74.667 H 9.333 V 65.333 Z" style="fill: #ffffff;"/><path d="M 9.333 74.667 H 18.667 V 84 H 9.333 V 74.667 Z" style="fill: #ffffff;"/><path d="M 9.333 84 H 18.667 V 93.333 H 9.333 V 84 Z" style="fill: #ffffff;"/><path d="M 9.333 93.333 H 18.667 V 102.667 H 9.333 V 93.333 Z" style="fill: #ffffff;"/><path d="M 9.333 102.667 H 18.667 V 112 H 9.333 V 102.667 Z" style="fill: #ffffff;"/><path d="M 9.333 112 H 18.667 V 121.333 H 9.333 V 112 Z" style="fill: #ffffff;"/><path d="M 9.333 121.333 H 18.667 V 130.667 H 9.333 V 121.333 Z" style="fill: #ffffff;"/><path d="M 9.333 130.667 H 18.667 V 140 H 9.333 V 130.667 Z" style="fill: #ffffff;"/><path d="M 9.333 140 H 18.667 V 149.333 H 9.333 V 140 Z" style="fill: #ffffff;"/><path d="M 9.333 149.333 H 18.667 V 158.667 H 9.333 V 149.333 Z" style="fill: #ffffff;"/><path d="M 9.333 158.667 H 18.667 V 168 H 9.333 V 158.667 Z" style="fill: #ffffff;"/><path d="M 9.333 168 H 18.667 V 177.333 H 9.333 V 168 Z" style="fill: #ffffff;"/><path d="M 9.333 177.333 H 18.667 V 186.667 H 9.333 V 177.333 Z" style="fill: #ffffff;"/><path d="M 9.333 186.667 H 18.667 V 196 H 9.333 V 186.667 Z" style="fill: #ffffff;"/><path d="M 9.333 196 H 18.667 V 205.333 H 9.333 V 196 Z" style="fill: #ffffff;"/><path d="M 9.333 205.333 H 18.667 V 214.667 H 9.333 V 205.333 Z" style="fill: #ffffff;"/><path d="M 18.667 0 H 28 V 9.333 H 18.667 V 0 Z" style="fill: #ffffff;"/><path d="M 18.667 9.333 H 28 V 18.667 H 18.667 V 9.333 Z" style="fill: #ffffff;"/><path d="M 18.667 18.667 H 28 V 28 H 18.667 V 18.667 Z" style="fill: #ffffff;"/><path d="M 18.667 28 H 28 V 37.333 H 18.667 V 28 Z" style="fill: #ffffff;"/><path d="M 18.667 37.333 H 28 V 46.667 H 18.667 V 37.333 Z" style="fill: #ffffff;"/><path d="M 18.667 46.667 H 28 V 56 H 18.667 V 46.667 Z" style="fill: #ffffff;"/><path d="M 18.667 56 H 28 V 65.333 H 18.667 V 56 Z" style="fill: #ffffff;"/><path d="M 18.667 65.333 H 28 V 74.667 H 18.667 V 65.333 Z" style="fill: #ffffff;"/><path d="M 18.667 74.667 H 28 V 84 H 18.667 V 74.667 Z" style="fill: #ffffff;"/><path d="M 18.667 84 H 28 V 93.333 H 18.667 V 84 Z" style="fill: #ffffff;"/><path d="M 18.667 93.333 H 28 V 102.667 H 18.667 V 93.333 Z" style="fill: #ffffff;"/><path d="M 18.667 102.667 H 28 V 112 H 18.667 V 102.667 Z" style="fill: #ffffff;"/><path d="M 18.667 112 H 28 V 121.333 H 18.667 V 112 Z" style="fill: #ffffff;"/><path d="M 18.667 121.333 H 28 V 130.667 H 18.667 V 121.333 Z" style="fill: #ffffff;"/><path d="M 18.667 130.667 H 28 V 140 H 18.667 V 130.667 Z" style="fill: #ffffff;"/><path d="M 18.667 140 H 28 V 149.333 H 18.667 V 140 Z" style="fill: #ffffff;"/><path d="M 18.667 149.333 H 28 V 158.667 H 18.667 V 149.333 Z" style="fill: #ffffff;"/><path d="M 18.667 158.667 H 28 V 168 H 18.667 V 158.667 Z" style="fill: #ffffff;"/><path d="M 18.667 168 H 28 V 177.333 H 18.667 V 168 Z" style="fill: #ffffff;"/><path d="M 18.667 177.333 H 28 V 186.667 H 18.667 V 177.333 Z" style="fill: #ffffff;"/><path d="M 18.667 186.667 H 28 V 196 H 18.667 V 186.667 Z" style="fill: #ffffff;"/><path d="M 18.667 196 H 28 V 205.333 H 18.667 V 196 Z" style="fill: #ffffff;"/><path d="M 18.667 205.333 H 28 V 214.667 H 18.667 V 205.333 Z" style="fill: #ffffff;"/><path d="M 18.667 214.667 H 28 V 224 H 18.667 V 214.667 Z" style="fill: #e5e5e5;"/><path d="M 28 0 H 37.333 V 9.333 H 28 V 0 Z" style="fill: #ffffff;"/><path d="M 28 9.333 H 37.333 V 18.667 H 28 V 9.333 Z" style="fill: #ffffff;"/><path d="M 28 18.667 H 37.333 V 28 H 28 V 18.667 Z" style="fill: #ffffff;"/><path d="M 28 28 H 37.333 V 37.333 H 28 V 28 Z" style="fill: #ffffff;"/><path d="M 28 37.333 H 37.333 V 46.667 H 28 V 37.333 Z" style="fill: #ffffff;"/><path d="M 28 46.667 H 37.333 V 56 H 28 V 46.667 Z" style="fill: #ffffff;"/><path d="M 28 56 H 37.333 V 65.333 H 28 V 56 Z" style="fill: #ffffff;"/><path d="M 28 65.333 H 37.333 V 74.667 H 28 V 65.333 Z" style="fill: #ffffff;"/><path d="M 28 74.667 H 37.333 V 84 H 28 V 74.667 Z" style="fill: #ffffff;"/><path d="M 28 84 H 37.333 V 93.333 H 28 V 84 Z" style="fill: #ffffff;"/><path d="M 28 93.333 H 37.333 V 102.667 H 28 V 93.333 Z" style="fill: #ffffff;"/><path d="M 28 102.667 H 37.333 V 112 H 28 V 102.667 Z" style="fill: #ffffff;"/><path d="M 28 112 H 37.333 V 121.333 H 28 V 112 Z" style="fill: #ffffff;"/><path d="M 28 121.333 H 37.333 V 130.667 H 28 V 121.333 Z" style="fill: #ffffff;"/><path d="M 28 130.667 H 37.333 V 140 H 28 V 130.667 Z" style="fill: #ffffff;"/><path d="M 28 140 H 37.333 V 149.333 H 28 V 140 Z" style="fill: #ffffff;"/><path d="M 28 149.333 H 37.333 V 158.667 H 28 V 149.333 Z" style="fill: #ffffff;"/><path d="M 28 158.667 H 37.333 V 168 H 28 V 158.667 Z" style="fill: #ffffff;"/><path d="M 28 168 H 37.333 V 177.333 H 28 V 168 Z" style="fill: #ffffff;"/><path d="M 28 177.333 H 37.333 V 186.667 H 28 V 177.333 Z" style="fill: #ffffff;"/><path d="M 28 186.667 H 37.333 V 196 H 28 V 186.667 Z" style="fill: #ffffff;"/><path d="M 28 196 H 37.333 V 205.333 H 28 V 196 Z" style="fill: #ffffff;"/><path d="M 28 205.333 H 37.333 V 214.667 H 28 V 205.333 Z" style="fill: #ffffff;"/><path d="M 28 214.667 H 37.333 V 224 H 28 V 214.667 Z" style="fill: #ffffff;"/><path d="M 37.333 0 H 46.667 V 9.333 H 37.333 V 0 Z" style="fill: #ffffff;"/><path d="M 37.333 9.333 H 46.667 V 18.667 H 37.333 V 9.333 Z" style="fill: #ffffff;"/><path d="M 37.333 18.667 H 46.667 V 28 H 37.333 V 18.667 Z" style="fill: #000000;"/><path d="M 37.333 28 H 46.667 V 37.333 H 37.333 V 28 Z" style="fill: #000000;"/><path d="M 37.333 37.333 H 46.667 V 46.667 H 37.333 V 37.333 Z" style="fill: #000000;"/><path d="M 37.333 46.667 H 46.667 V 56 H 37.333 V 46.667 Z" style="fill: #262626;"/><path d="M 37.333 56 H 46.667 V 65.333 H 37.333 V 56 Z" style="fill: #000000;"/><path d="M 37.333 65.333 H 46.667 V 74.667 H 37.333 V 65.333 Z" style="fill: #393939;"/><path d="M 37.333 74.667 H 46.667 V 84 H 37.333 V 74.667 Z" style="fill: #000000;"/><path d="M 37.333 84 H 46.667 V 93.333 H 37.333 V 84 Z" style="fill: #000000;"/><path d="M 37.333 93.333 H 46.667 V 102.667 H 37.333 V 93.333 Z" style="fill: #000000;"/><path d="M 37.333 102.667 H 46.667 V 112 H 37.333 V 102.667 Z" style="fill: #000000;"/><path d="M 37.333 112 H 46.667 V 121.333 H 37.333 V 112 Z" style="fill: #000000;"/><path d="M 37.333 121.333 H 46.667 V 130.667 H 37.333 V 121.333 Z" style="fill: #000000;"/><path d="M 37.333 130.667 H 46.667 V 140 H 37.333 V 130.667 Z" style="fill: #000000;"/><path d="M 37.333 140 H 46.667 V 149.333 H 37.333 V 140 Z" style="fill: #000000;"/><path d="M 37.333 149.333 H 46.667 V 158.667 H 37.333 V 149.333 Z" style="fill: #000000;"/><path d="M 37.333 158.667 H 46.667 V 168 H 37.333 V 158.667 Z" style="fill: #131313;"/><path d="M 37.333 168 H 46.667 V 177.333 H 37.333 V 168 Z" style="fill: #000000;"/><path d="M 37.333 177.333 H 46.667 V 186.667 H 37.333 V 177.333 Z" style="fill: #3f3f3f;"/><path d="M 37.333 186.667 H 46.667 V 196 H 37.333 V 186.667 Z" style="fill: #000000;"/><path d="M 37.333 196 H 46.667 V 205.333 H 37.333 V 196 Z" style="fill: #000000;"/><path d="M 37.333 205.333 H 46.667 V 214.667 H 37.333 V 205.333 Z" style="fill: #ffffff;"/><path d="M 37.333 214.667 H 46.667 V 224 H 37.333 V 214.667 Z" style="fill: #ffffff;"/><path d="M 46.667 0 H 56 V 9.333 H 46.667 V 0 Z" style="fill: #ffffff;"/><path d="M 46.667 9.333 H 56 V 18.667 H 46.667 V 9.333 Z" style="fill: #ffffff;"/><path d="M 46.667 18.667 H 56 V 28 H 46.667 V 18.667 Z" style="fill: #000000;"/><path d="M 46.667 28 H 56 V 37.333 H 46.667 V 28 Z" style="fill: #000000;"/><path d="M 46.667 37.333 H 56 V 46.667 H 46.667 V 37.333 Z" style="fill: #000000;"/><path d="M 46.667 46.667 H 56 V 56 H 46.667 V 46.667 Z" style="fill: #262626;"/><path d="M 46.667 56 H 56 V 65.333 H 46.667 V 56 Z" style="fill: #000000;"/><path d="M 46.667 65.333 H 56 V 74.667 H 46.667 V 65.333 Z" style="fill: #393939;"/><path d="M 46.667 74.667 H 56 V 84 H 46.667 V 74.667 Z" style="fill: #000000;"/><path d="M 46.667 84 H 56 V 93.333 H 46.667 V 84 Z" style="fill: #000000;"/><path d="M 46.667 93.333 H 56 V 102.667 H 46.667 V 93.333 Z" style="fill: #000000;"/><path d="M 46.667 102.667 H 56 V 112 H 46.667 V 102.667 Z" style="fill: #000000;"/><path d="M 46.667 112 H 56 V 121.333 H 46.667 V 112 Z" style="fill: #000000;"/><path d="M 46.667 121.333 H 56 V 130.667 H 46.667 V 121.333 Z" style="fill: #000000;"/><path d="M 46.667 130.667 H 56 V 140 H 46.667 V 130.667 Z" style="fill: #000000;"/><path d="M 46.667 140 H 56 V 149.333 H 46.667 V 140 Z" style="fill: #000000;"/><path d="M 46.667 149.333 H 56 V 158.667 H 46.667 V 149.333 Z" style="fill: #000000;"/><path d="M 46.667 158.667 H 56 V 168 H 46.667 V 158.667 Z" style="fill: #131313;"/><path d="M 46.667 168 H 56 V 177.333 H 46.667 V 168 Z" style="fill: #000000;"/><path d="M 46.667 177.333 H 56 V 186.667 H 46.667 V 177.333 Z" style="fill: #3f3f3f;"/><path d="M 46.667 186.667 H 56 V 196 H 46.667 V 186.667 Z" style="fill: #000000;"/><path d="M 46.667 196 H 56 V 205.333 H 46.667 V 196 Z" style="fill: #000000;"/><path d="M 46.667 205.333 H 56 V 214.667 H 46.667 V 205.333 Z" style="fill: #ffffff;"/><path d="M 46.667 214.667 H 56 V 224 H 46.667 V 214.667 Z" style="fill: #ffffff;"/><path d="M 56 0 H 65.333 V 9.333 H 56 V 0 Z" style="fill: #ffffff;"/><path d="M 56 9.333 H 65.333 V 18.667 H 56 V 9.333 Z" style="fill: #ffffff;"/><path d="M 56 18.667 H 65.333 V 28 H 56 V 18.667 Z" style="fill: #ffffff;"/><path d="M 56 28 H 65.333 V 37.333 H 56 V 28 Z" style="fill: #ffffff;"/><path d="M 56 37.333 H 65.333 V 46.667 H 56 V 37.333 Z" style="fill: #ffffff;"/><path d="M 56 46.667 H 65.333 V 56 H 56 V 46.667 Z" style="fill: #ffffff;"/><path d="M 56 56 H 65.333 V 65.333 H 56 V 56 Z" style="fill: #ffffff;"/><path d="M 56 65.333 H 65.333 V 74.667 H 56 V 65.333 Z" style="fill: #ffffff;"/><path d="M 56 74.667 H 65.333 V 84 H 56 V 74.667 Z" style="fill: #ffffff;"/><path d="M 56 84 H 65.333 V 93.333 H 56 V 84 Z" style="fill: #ffffff;"/><path d="M 56 93.333 H 65.333 V 102.667 H 56 V 93.333 Z" style="fill: #ffffff;"/><path d="M 56 102.667 H 65.333 V 112 H 56 V 102.667 Z" style="fill: #ffffff;"/><path d="M 56 112 H 65.333 V 121.333 H 56 V 112 Z" style="fill: #ffffff;"/><path d="M 56 121.333 H 65.333 V 130.667 H 56 V 121.333 Z" style="fill: #ffffff;"/><path d="M 56 130.667 H 65.333 V 140 H 56 V 130.667 Z" style="fill: #ffffff;"/><path d="M 56 140 H 65.333 V 149.333 H 56 V 140 Z" style="fill: #ffffff;"/><path d="M 56 149.333 H 65.333 V 158.667 H 56 V 149.333 Z" style="fill: #ffffff;"/><path d="M 56 158.667 H 65.333 V 168 H 56 V 158.667 Z" style="fill: #ffffff;"/><path d="M 56 168 H 65.333 V 177.333 H 56 V 168 Z" style="fill: #ffffff;"/><path d="M 56 177.333 H 65.333 V 186.667 H 56 V 177.333 Z" style="fill: #ffffff;"/><path d="M 56 186.667 H 65.333 V 196 H 56 V 186.667 Z" style="fill: #ffffff;"/><path d="M 56 196 H 65.333 V 205.333 H 56 V 196 Z" style="fill: #ffffff;"/><path d="M 56 205.333 H 65.333 V 214.667 H 56 V 205.333 Z" style="fill: #ffffff;"/><path d="M 56 214.667 H 65.333 V 224 H 56 V 214.667 Z" style="fill: #ffffff;"/><path d="M 65.333 0 H 74.667 V 9.333 H 65.333 V 0 Z" style="fill: #ffffff;"/><path d="M 65.333 9.333 H 74.667 V 18.667 H 65.333 V 9.333 Z" style="fill: #ffffff;"/><path d="M 65.333 18.667 H 74.667 V 28 H 65.333 V 18.667 Z" style="fill: #ffffff;"/><path d="M 65.333 28 H 74.667 V 37.333 H 65.333 V 28 Z" style="fill: #ffffff;"/><path d="M 65.333 37.333 H 74.667 V 46.667 H 65.333 V 37.333 Z" style="fill: #ffffff;"/><path d="M 65.333 46.667 H 74.667 V 56 H 65.333 V 46.667 Z" style="fill: #ffffff;"/><path d="M 65.333 56 H 74.667 V 65.333 H 65.333 V 56 Z" style="fill: #ffffff;"/><path d="M 65.333 65.333 H 74.667 V 74.667 H 65.333 V 65.333 Z" style="fill: #ffffff;"/><path d="M 65.333 74.667 H 74.667 V 84 H 65.333 V 74.667 Z" style="fill: #ffffff;"/><path d="M 65.333 84 H 74.667 V 93.333 H 65.333 V 84 Z" style="fill: #ffffff;"/><path d="M 65.333 93.333 H 74.667 V 102.667 H 65.333 V 93.333 Z" style="fill: #ffffff;"/><path d="M 65.333 102.667 H 74.667 V 112 H 65.333 V 102.667 Z" style="fill: #ffffff;"/><path d="M 65.333 112 H 74.667 V 121.333 H 65.333 V 112 Z" style="fill: #ffffff;"/><path d="M 65.333 121.333 H 74.667 V 130.667 H 65.333 V 121.333 Z" style="fill: #ffffff;"/><path d="M 65.333 130.667 H 74.667 V 140 H 65.333 V 130.667 Z" style="fill: #ffffff;"/><path d="M 65.333 140 H 74.667 V 149.333 H 65.333 V 140 Z" style="fill: #ffffff;"/><path d="M 65.333 149.333 H 74.667 V 158.667 H 65.333 V 149.333 Z" style="fill: #ffffff;"/><path d="M 65.333 158.667 H 74.667 V 168 H 65.333 V 158.667 Z" style="fill: #ffffff;"/><path d="M 65.333 168 H 74.667 V 177.333 H 65.333 V 168 Z" style="fill: #ffffff;"/><path d="M 65.333 177.333 H 74.667 V 186.667 H 65.333 V 177.333 Z" style="fill: #ffffff;"/><path d="M 65.333 186.667 H 74.667 V 196 H 65.333 V 186.667 Z" style="fill: #ffffff;"/><path d="M 65.333 196 H 74.667 V 205.333 H 65.333 V 196 Z" style="fill: #ffffff;"/><path d="M 65.333 205.333 H 74.667 V 214.667 H 65.333 V 205.333 Z" style="fill: #ffffff;"/><path d="M 65.333 214.667 H 74.667 V 224 H 65.333 V 214.667 Z" style="fill: #ffffff;"/><path d="M 74.667 0 H 84 V 9.333 H 74.667 V 0 Z" style="fill: #ffffff;"/><path d="M 74.667 9.333 H 84 V 18.667 H 74.667 V 9.333 Z" style="fill: #ffffff;"/><path d="M 74.667 18.667 H 84 V 28 H 74.667 V 18.667 Z" style="fill: #000000;"/><path d="M 74.667 28 H 84 V 37.333 H 74.667 V 28 Z" style="fill: #000000;"/><path d="M 74.667 37.333 H 84 V 46.667 H 74.667 V 37.333 Z" style="fill: #000000;"/><path d="M 74.667 46.667 H 84 V 56 H 74.667 V 46.667 Z" style="fill: #262626;"/><path d="M 74.667 56 H 84 V 65.333 H 74.667 V 56 Z" style="fill: #000000;"/><path d="M 74.667 65.333 H 84 V 74.667 H 74.667 V 65.333 Z" style="fill: #393939;"/><path d="M 74.667 74.667 H 84 V 84 H 74.667 V 74.667 Z" style="fill: #000000;"/><path d="M 74.667 84 H 84 V 93.333 H 74.667 V 84 Z" style="fill: #000000;"/><path d="M 74.667 93.333 H 84 V 102.667 H 74.667 V 93.333 Z" style="fill: #000000;"/><path d="M 74.667 102.667 H 84 V 112 H 74.667 V 102.667 Z" style="fill: #000000;"/><path d="M 74.667 112 H 84 V 121.333 H 74.667 V 112 Z" style="fill: #000000;"/><path d="M 74.667 121.333 H 84 V 130.667 H 74.667 V 121.333 Z" style="fill: #000000;"/><path d="M 74.667 130.667 H 84 V 140 H 74.667 V 130.667 Z" style="fill: #000000;"/><path d="M 74.667 140 H 84 V 149.333 H 74.667 V 140 Z" style="fill: #000000;"/><path d="M 74.667 149.333 H 84 V 158.667 H 74.667 V 149.333 Z" style="fill: #000000;"/><path d="M 74.667 158.667 H 84 V 168 H 74.667 V 158.667 Z" style="fill: #131313;"/><path d="M 74.667 168 H 84 V 177.333 H 74.667 V 168 Z" style="fill: #000000;"/><path d="M 74.667 177.333 H 84 V 186.667 H 74.667 V 177.333 Z" style="fill: #3f3f3f;"/><path d="M 74.667 186.667 H 84 V 196 H 74.667 V 186.667 Z" style="fill: #000000;"/><path d="M 74.667 196 H 84 V 205.333 H 74.667 V 196 Z" style="fill: #000000;"/><path d="M 74.667 205.333 H 84 V 214.667 H 74.667 V 205.333 Z" style="fill: #ffffff;"/><path d="M 74.667 214.667 H 84 V 224 H 74.667 V 214.667 Z" style="fill: #ffffff;"/><path d="M 84 0 H 93.333 V 9.333 H 84 V 0 Z" style="fill: #ffffff;"/><path d="M 84 9.333 H 93.333 V 18.667 H 84 V 9.333 Z" style="fill: #ffffff;"/><path d="M 84 18.667 H 93.333 V 28 H 84 V 18.667 Z" style="fill: #000000;"/><path d="M 84 28 H 93.333 V 37.333 H 84 V 28 Z" style="fill: #000000;"/><path d="M 84 37.333 H 93.333 V 46.667 H 84 V 37.333 Z" style="fill: #000000;"/><path d="M 84 46.667 H 93.333 V 56 H 84 V 46.667 Z" style="fill: #262626;"/><path d="M 84 56 H 93.333 V 65.333 H 84 V 56 Z" style="fill: #000000;"/><path d="M 84 65.333 H 93.333 V 74.667 H 84 V 65.333 Z" style="fill: #393939;"/><path d="M 84 74.667 H 93.333 V 84 H 84 V 74.667 Z" style="fill: #000000;"/><path d="M 84 84 H 93.333 V 93.333 H 84 V 84 Z" style="fill: #000000;"/><path d="M 84 93.333 H 93.333 V 102.667 H 84 V 93.333 Z" style="fill: #000000;"/><path d="M 84 102.667 H 93.333 V 112 H 84 V 102.667 Z" style="fill: #000000;"/><path d="M 84 112 H 93.333 V 121.333 H 84 V 112 Z" style="fill: #000000;"/><path d="M 84 121.333 H 93.333 V 130.667 H 84 V 121.333 Z" style="fill: #000000;"/><path d="M 84 130.667 H 93.333 V 140 H 84 V 130.667 Z" style="fill: #000000;"/><path d="M 84 140 H 93.333 V 149.333 H 84 V 140 Z" style="fill: #000000;"/><path d="M 84 149.333 H 93.333 V 158.667 H 84 V 149.333 Z" style="fill: #000000;"/><path d="M 84 158.667 H 93.333 V 168 H 84 V 158.667 Z" style="fill: #131313;"/><path d="M 84 168 H 93.333 V 177.333 H 84 V 168 Z" style="fill: #000000;"/><path d="M 84 177.333 H 93.333 V 186.667 H 84 V 177.333 Z" style="fill: #3f3f3f;"/><path d="M 84 186.667 H 93.333 V 196 H 84 V 186.667 Z" style="fill: #000000;"/><path d="M 84 196 H 93.333 V 205.333 H 84 V 196 Z" style="fill: #000000;"/><path d="M 84 205.333 H 93.333 V 214.667 H 84 V 205.333 Z" style="fill: #ffffff;"/><path d="M 84 214.667 H 93.333 V 224 H 84 V 214.667 Z" style="fill: #ffffff;"/><path d="M 93.333 0 H 102.667 V 9.333 H 93.333 V 0 Z" style="fill: #ffffff;"/><path d="M 93.333 9.333 H 102.667 V 18.667 H 93.333 V 9.333 Z" style="fill: #ffffff;"/><path d="M 93.333 18.667 H 102.667 V 28 H 93.333 V 18.667 Z" style="fill: #ffffff;"/><path d="M 93.333 28 H 102.667 V 37.333 H 93.333 V 28 Z" style="fill: #ffffff;"/><path d="M 93.333 37.333 H 102.667 V 46.667 H 93.333 V 37.333 Z" style="fill: #ffffff;"/><path d="M 93.333 46.667 H 102.667 V 56 H 93.333 V 46.667 Z" style="fill: #ffffff;"/><path d="M 93.333 56 H 102.667 V 65.333 H 93.333 V 56 Z" style="fill: #ffffff;"/><path d="M 93.333 65.333 H 102.667 V 74.667 H 93.333 V 65.333 Z" style="fill: #ffffff;"/><path d="M 93.333 74.667 H 102.667 V 84 H 93.333 V 74.667 Z" style="fill: #ffffff;"/><path d="M 93.333 84 H 102.667 V 93.333 H 93.333 V 84 Z" style="fill: #ffffff;"/><path d="M 93.333 93.333 H 102.667 V 102.667 H 93.333 V 93.333 Z" style="fill: #ffffff;"/><path d="M 93.333 102.667 H 102.667 V 112 H 93.333 V 102.667 Z" style="fill: #ffffff;"/><path d="M 93.333 112 H 102.667 V 121.333 H 93.333 V 112 Z" style="fill: #ffffff;"/><path d="M 93.333 121.333 H 102.667 V 130.667 H 93.333 V 121.333 Z" style="fill: #ffffff;"/><path d="M 93.333 130.667 H 102.667 V 140 H 93.333 V 130.667 Z" style="fill: #ffffff;"/><path d="M 93.333 140 H 102.667 V 149.333 H 93.333 V 140 Z" style="fill: #ffffff;"/><path d="M 93.333 149.333 H 102.667 V 158.667 H 93.333 V 149.333 Z" style="fill: #ffffff;"/><path d="M 93.333 158.667 H 102.667 V 168 H 93.333 V 158.667 Z" style="fill: #ffffff;"/><path d="M 93.333 168 H 102.667 V 177.333 H 93.333 V 168 Z" style="fill: #ffffff;"/><path d="M 93.333 177.333 H 102.667 V 186.667 H 93.333 V 177.333 Z" style="fill: #ffffff;"/><path d="M 93.333 186.667 H 102.667 V 196 H 93.333 V 186.667 Z" style="fill: #ffffff;"/><path d="M 93.333 196 H 102.667 V 205.333 H 93.333 V 196 Z" style="fill: #ffffff;"/><path d="M 93.333 205.333 H 102.667 V 214.667 H 93.333 V 205.333 Z" style="fill: #ffffff;"/><path d="M 93.333 214.667 H 102.667 V 224 H 93.333 V 214.667 Z" style="fill: #ffffff;"/><path d="M 102.667 0 H 112 V 9.333 H 102.667 V 0 Z" style="fill: #ffffff;"/><path d="M 102.667 9.333 H 112 V 18.667 H 102.667 V 9.333 Z" style="fill: #ffffff;"/><path d="M 102.667 18.667 H 112 V 28 H 102.667 V 18.667 Z" style="fill: #ffffff;"/><path d="M 102.667 28 H 112 V 37.333 H 102.667 V 28 Z" style="fill: #ffffff;"/><path d="M 102.667 37.333 H 112 V 46.667 H 102.667 V 37.333 Z" style="fill: #ffffff;"/><path d="M 102.667 46.667 H 112 V 56 H 102.667 V 46.667 Z" style="fill: #ffffff;"/><path d="M 102.667 56 H 112 V 65.333 H 102.667 V 56 Z" style="fill: #ffffff;"/><path d="M 102.667 65.333 H 112 V 74.667 H 102.667 V 65.333 Z" style="fill: #ffffff;"/><path d="M 102.667 74.667 H 112 V 84 H 102.667 V 74.667 Z" style="fill: #ffffff;"/><path d="M 102.667 84 H 112 V 93.333 H 102.667 V 84 Z" style="fill: #ffffff;"/><path d="M 102.667 93.333 H 112 V 102.667 H 102.667 V 93.333 Z" style="fill: #ffffff;"/><path d="M 102.667 102.667 H 112 V 112 H 102.667 V 102.667 Z" style="fill: #ffffff;"/><path d="M 102.667 112 H 112 V 121.333 H 102.667 V 112 Z" style="fill: #ffffff;"/><path d="M 102.667 121.333 H 112 V 130.667 H 102.667 V 121.333 Z" style="fill: #ffffff;"/><path d="M 102.667 130.667 H 112 V 140 H 102.667 V 130.667 Z" style="fill: #ffffff;"/><path d="M 102.667 140 H 112 V 149.333 H 102.667 V 140 Z" style="fill: #ffffff;"/><path d="M 102.667 149.333 H 112 V 158.667 H 102.667 V 149.333 Z" style="fill: #ffffff;"/><path d="M 102.667 158.667 H 112 V 168 H 102.667 V 158.667 Z" style="fill: #ffffff;"/><path d="M 102.667 168 H 112 V 177.333 H 102.667 V 168 Z" style="fill: #ffffff;"/><path d="M 102.667 177.333 H 112 V 186.667 H 102.667 V 177.333 Z" style="fill: #ffffff;"/><path d="M 102.667 186.667 H 112 V 196 H 102.667 V 186.667 Z" style="fill: #ffffff;"/><path d="M 102.667 196 H 112 V 205.333 H 102.667 V 196 Z" style="fill: #ffffff;"/><path d="M 102.667 205.333 H 112 V 214.667 H 102.667 V 205.333 Z" style="fill: #ffffff;"/><path d="M 102.667 214.667 H 112 V 224 H 102.667 V 214.667 Z" style="fill: #ffffff;"/><path d="M 112 0 H 121.333 V 9.333 H 112 V 0 Z" style="fill: #ffffff;"/><path d="M 112 9.333 H 121.333 V 18.667 H 112 V 9.333 Z" style="fill: #ffffff;"/><path d="M 112 18.667 H 121.333 V 28 H 112 V 18.667 Z" style="fill: #222222;"/><path d="M 112 28 H 121.333 V 37.333 H 112 V 28 Z" style="fill: #222222;"/><path d="M 112 37.333 H 121.333 V 46.667 H 112 V 37.333 Z" style="fill: #222222;"/><path d="M 112 46.667 H 121.333 V 56 H 112 V 46.667 Z" style="fill: #3a3a3a;"/><path d="M 112 56 H 121.333 V 65.333 H 112 V 56 Z" style="fill: #222222;"/><path d="M 112 65.333 H 121.333 V 74.667 H 112 V 65.333 Z" style="fill: #454545;"/><path d="M 112 74.667 H 121.333 V 84 H 112 V 74.667 Z" style="fill: #222222;"/><path d="M 112 84 H 121.333 V 93.333 H 112 V 84 Z" style="fill: #222222;"/><path d="M 112 93.333 H 121.333 V 102.667 H 112 V 93.333 Z" style="fill: #222222;"/><path d="M 112 102.667 H 121.333 V 112 H 112 V 102.667 Z" style="fill: #ffffff;"/><path d="M 112 112 H 121.333 V 121.333 H 112 V 112 Z" style="fill: #ffffff;"/><path d="M 112 121.333 H 121.333 V 130.667 H 112 V 121.333 Z" style="fill: #222222;"/><path d="M 112 130.667 H 121.333 V 140 H 112 V 130.667 Z" style="fill: #222222;"/><path d="M 112 140 H 121.333 V 149.333 H 112 V 140 Z" style="fill: #222222;"/><path d="M 112 149.333 H 121.333 V 158.667 H 112 V 149.333 Z" style="fill: #222222;"/><path d="M 112 158.667 H 121.333 V 168 H 112 V 158.667 Z" style="fill: #2e2e2e;"/><path d="M 112 168 H 121.333 V 177.333 H 112 V 168 Z" style="fill: #222222;"/><path d="M 112 177.333 H 121.333 V 186.667 H 112 V 177.333 Z" style="fill: #494949;"/><path d="M 112 186.667 H 121.333 V 196 H 112 V 186.667 Z" style="fill: #222222;"/><path d="M 112 196 H 121.333 V 205.333 H 112 V 196 Z" style="fill: #222222;"/><path d="M 112 205.333 H 121.333 V 214.667 H 112 V 205.333 Z" style="fill: #ffffff;"/><path d="M 112 214.667 H 121.333 V 224 H 112 V 214.667 Z" style="fill: #ffffff;"/><path d="M 121.333 0 H 130.667 V 9.333 H 121.333 V 0 Z" style="fill: #ffffff;"/><path d="M 121.333 9.333 H 130.667 V 18.667 H 121.333 V 9.333 Z" style="fill: #ffffff;"/><path d="M 121.333 18.667 H 130.667 V 28 H 121.333 V 18.667 Z" style="fill: #000000;"/><path d="M 121.333 28 H 130.667 V 37.333 H 121.333 V 28 Z" style="fill: #000000;"/><path d="M 121.333 37.333 H 130.667 V 46.667 H 121.333 V 37.333 Z" style="fill: #000000;"/><path d="M 121.333 46.667 H 130.667 V 56 H 121.333 V 46.667 Z" style="fill: #262626;"/><path d="M 121.333 56 H 130.667 V 65.333 H 121.333 V 56 Z" style="fill: #000000;"/><path d="M 121.333 65.333 H 130.667 V 74.667 H 121.333 V 65.333 Z" style="fill: #393939;"/><path d="M 121.333 74.667 H 130.667 V 84 H 121.333 V 74.667 Z" style="fill: #000000;"/><path d="M 121.333 84 H 130.667 V 93.333 H 121.333 V 84 Z" style="fill: #000000;"/><path d="M 121.333 93.333 H 130.667 V 102.667 H 121.333 V 93.333 Z" style="fill: #000000;"/><path d="M 121.333 102.667 H 130.667 V 112 H 121.333 V 102.667 Z" style="fill: #ffffff;"/><path d="M 121.333 112 H 130.667 V 121.333 H 121.333 V 112 Z" style="fill: #ffffff;"/><path d="M 121.333 121.333 H 130.667 V 130.667 H 121.333 V 121.333 Z" style="fill: #000000;"/><path d="M 121.333 130.667 H 130.667 V 140 H 121.333 V 130.667 Z" style="fill: #000000;"/><path d="M 121.333 140 H 130.667 V 149.333 H 121.333 V 140 Z" style="fill: #000000;"/><path d="M 121.333 149.333 H 130.667 V 158.667 H 121.333 V 149.333 Z" style="fill: #000000;"/><path d="M 121.333 158.667 H 130.667 V 168 H 121.333 V 158.667 Z" style="fill: #131313;"/><path d="M 121.333 168 H 130.667 V 177.333 H 121.333 V 168 Z" style="fill: #000000;"/><path d="M 121.333 177.333 H 130.667 V 186.667 H 121.333 V 177.333 Z" style="fill: #3f3f3f;"/><path d="M 121.333 186.667 H 130.667 V 196 H 121.333 V 186.667 Z" style="fill: #000000;"/><path d="M 121.333 196 H 130.667 V 205.333 H 121.333 V 196 Z" style="fill: #000000;"/><path d="M 121.333 205.333 H 130.667 V 214.667 H 121.333 V 205.333 Z" style="fill: #ffffff;"/><path d="M 121.333 214.667 H 130.667 V 224 H 121.333 V 214.667 Z" style="fill: #ffffff;"/><path d="M 130.667 0 H 140 V 9.333 H 130.667 V 0 Z" style="fill: #ffffff;"/><path d="M 130.667 9.333 H 140 V 18.667 H 130.667 V 9.333 Z" style="fill: #ffffff;"/><path d="M 130.667 18.667 H 140 V 28 H 130.667 V 18.667 Z" style="fill: #383838;"/><path d="M 130.667 28 H 140 V 37.333 H 130.667 V 28 Z" style="fill: #383838;"/><path d="M 130.667 37.333 H 140 V 46.667 H 130.667 V 37.333 Z" style="fill: #afafaf;"/><path d="M 130.667 46.667 H 140 V 56 H 130.667 V 46.667 Z" style="fill: #505050;"/><path d="M 130.667 56 H 140 V 65.333 H 130.667 V 56 Z" style="fill: #383838;"/><path d="M 130.667 65.333 H 140 V 74.667 H 130.667 V 65.333 Z" style="fill: #b4b4b4;"/><path d="M 130.667 74.667 H 140 V 84 H 130.667 V 74.667 Z" style="fill: #afafaf;"/><path d="M 130.667 84 H 140 V 93.333 H 130.667 V 84 Z" style="fill: #383838;"/><path d="M 130.667 93.333 H 140 V 102.667 H 130.667 V 93.333 Z" style="fill: #383838;"/><path d="M 130.667 102.667 H 140 V 112 H 130.667 V 102.667 Z" style="fill: #ffffff;"/><path d="M 130.667 112 H 140 V 121.333 H 130.667 V 112 Z" style="fill: #ffffff;"/><path d="M 130.667 121.333 H 140 V 130.667 H 130.667 V 121.333 Z" style="fill: #afafaf;"/><path d="M 130.667 130.667 H 140 V 140 H 130.667 V 130.667 Z" style="fill: #afafaf;"/><path d="M 130.667 140 H 140 V 149.333 H 130.667 V 140 Z" style="fill: #afafaf;"/><path d="M 130.667 149.333 H 140 V 158.667 H 130.667 V 149.333 Z" style="fill: #afafaf;"/><path d="M 130.667 158.667 H 140 V 168 H 130.667 V 158.667 Z" style="fill: #b1b1b1;"/><path d="M 130.667 168 H 140 V 177.333 H 130.667 V 168 Z" style="fill: #afafaf;"/><path d="M 130.667 177.333 H 140 V 186.667 H 130.667 V 177.333 Z" style="fill: #b5b5b5;"/><path d="M 130.667 186.667 H 140 V 196 H 130.667 V 186.667 Z" style="fill: #383838;"/><path d="M 130.667 196 H 140 V 205.333 H 130.667 V 196 Z" style="fill: #383838;"/><path d="M 130.667 205.333 H 140 V 214.667 H 130.667 V 205.333 Z" style="fill: #ffffff;"/><path d="M 130.667 214.667 H 140 V 224 H 130.667 V 214.667 Z" style="fill: #ffffff;"/><path d="M 140 0 H 149.333 V 9.333 H 140 V 0 Z" style="fill: #ffffff;"/><path d="M 140 9.333 H 149.333 V 18.667 H 140 V 9.333 Z" style="fill: #ffffff;"/><path d="M 140 18.667 H 149.333 V 28 H 140 V 18.667 Z" style="fill: #000000;"/><path d="M 140 28 H 149.333 V 37.333 H 140 V 28 Z" style="fill: #000000;"/><path d="M 140 37.333 H 149.333 V 46.667 H 140 V 37.333 Z" style="fill: #ffffff;"/><path d="M 140 46.667 H 149.333 V 56 H 140 V 46.667 Z" style="fill: #2f2f2f;"/><path d="M 140 56 H 149.333 V 65.333 H 140 V 56 Z" style="fill: #000000;"/><path d="M 140 65.333 H 149.333 V 74.667 H 140 V 65.333 Z" style="fill: #ffffff;"/><path d="M 140 74.667 H 149.333 V 84 H 140 V 74.667 Z" style="fill: #ffffff;"/><path d="M 140 84 H 149.333 V 93.333 H 140 V 84 Z" style="fill: #000000;"/><path d="M 140 93.333 H 149.333 V 102.667 H 140 V 93.333 Z" style="fill: #000000;"/><path d="M 140 102.667 H 149.333 V 112 H 140 V 102.667 Z" style="fill: #ffffff;"/><path d="M 140 112 H 149.333 V 121.333 H 140 V 112 Z" style="fill: #ffffff;"/><path d="M 140 121.333 H 149.333 V 130.667 H 140 V 121.333 Z" style="fill: #ffffff;"/><path d="M 140 130.667 H 149.333 V 140 H 140 V 130.667 Z" style="fill: #ffffff;"/><path d="M 140 140 H 149.333 V 149.333 H 140 V 140 Z" style="fill: #ffffff;"/><path d="M 140 149.333 H 149.333 V 158.667 H 140 V 149.333 Z" style="fill: #ffffff;"/><path d="M 140 158.667 H 149.333 V 168 H 140 V 158.667 Z" style="fill: #ffffff;"/><path d="M 140 168 H 149.333 V 177.333 H 140 V 168 Z" style="fill: #ffffff;"/><path d="M 140 177.333 H 149.333 V 186.667 H 140 V 177.333 Z" style="fill: #ffffff;"/><path d="M 140 186.667 H 149.333 V 196 H 140 V 186.667 Z" style="fill: #020000;"/><path d="M 140 196 H 149.333 V 205.333 H 140 V 196 Z" style="fill: #000000;"/><path d="M 140 205.333 H 149.333 V 214.667 H 140 V 205.333 Z" style="fill: #ffffff;"/><path d="M 140 214.667 H 149.333 V 224 H 140 V 214.667 Z" style="fill: #ffffff;"/><path d="M 149.333 0 H 158.667 V 9.333 H 149.333 V 0 Z" style="fill: #ffffff;"/><path d="M 149.333 9.333 H 158.667 V 18.667 H 149.333 V 9.333 Z" style="fill: #ffffff;"/><path d="M 149.333 18.667 H 158.667 V 28 H 149.333 V 18.667 Z" style="fill: #000000;"/><path d="M 149.333 28 H 158.667 V 37.333 H 149.333 V 28 Z" style="fill: #000000;"/><path d="M 149.333 37.333 H 158.667 V 46.667 H 149.333 V 37.333 Z" style="fill: #ffffff;"/><path d="M 149.333 46.667 H 158.667 V 56 H 149.333 V 46.667 Z" style="fill: #2f2f2f;"/><path d="M 149.333 56 H 158.667 V 65.333 H 149.333 V 56 Z" style="fill: #020000;"/><path d="M 149.333 65.333 H 158.667 V 74.667 H 149.333 V 65.333 Z" style="fill: #ffffff;"/><path d="M 149.333 74.667 H 158.667 V 84 H 149.333 V 74.667 Z" style="fill: #ffffff;"/><path d="M 149.333 84 H 158.667 V 93.333 H 149.333 V 84 Z" style="fill: #000000;"/><path d="M 149.333 93.333 H 158.667 V 102.667 H 149.333 V 93.333 Z" style="fill: #000000;"/><path d="M 149.333 102.667 H 158.667 V 112 H 149.333 V 102.667 Z" style="fill: #ffffff;"/><path d="M 149.333 112 H 158.667 V 121.333 H 149.333 V 112 Z" style="fill: #ffffff;"/><path d="M 149.333 121.333 H 158.667 V 130.667 H 149.333 V 121.333 Z" style="fill: #ffffff;"/><path d="M 149.333 130.667 H 158.667 V 140 H 149.333 V 130.667 Z" style="fill: #ffffff;"/><path d="M 149.333 140 H 158.667 V 149.333 H 149.333 V 140 Z" style="fill: #ffffff;"/><path d="M 149.333 149.333 H 158.667 V 158.667 H 149.333 V 149.333 Z" style="fill: #ffffff;"/><path d="M 149.333 158.667 H 158.667 V 168 H 149.333 V 158.667 Z" style="fill: #ffffff;"/><path d="M 149.333 168 H 158.667 V 177.333 H 149.333 V 168 Z" style="fill: #ffffff;"/><path d="M 149.333 177.333 H 158.667 V 186.667 H 149.333 V 177.333 Z" style="fill: #ffffff;"/><path d="M 149.333 186.667 H 158.667 V 196 H 149.333 V 186.667 Z" style="fill: #000000;"/><path d="M 149.333 196 H 158.667 V 205.333 H 149.333 V 196 Z" style="fill: #000000;"/><path d="M 149.333 205.333 H 158.667 V 214.667 H 149.333 V 205.333 Z" style="fill: #ffffff;"/><path d="M 149.333 214.667 H 158.667 V 224 H 149.333 V 214.667 Z" style="fill: #ffffff;"/><path d="M 158.667 0 H 168 V 9.333 H 158.667 V 0 Z" style="fill: #ffffff;"/><path d="M 158.667 9.333 H 168 V 18.667 H 158.667 V 9.333 Z" style="fill: #ffffff;"/><path d="M 158.667 18.667 H 168 V 28 H 158.667 V 18.667 Z" style="fill: #000000;"/><path d="M 158.667 28 H 168 V 37.333 H 158.667 V 28 Z" style="fill: #000000;"/><path d="M 158.667 37.333 H 168 V 46.667 H 158.667 V 37.333 Z" style="fill: #ffffff;"/><path d="M 158.667 46.667 H 168 V 56 H 158.667 V 46.667 Z" style="fill: #2f2f2f;"/><path d="M 158.667 56 H 168 V 65.333 H 158.667 V 56 Z" style="fill: #000000;"/><path d="M 158.667 65.333 H 168 V 74.667 H 158.667 V 65.333 Z" style="fill: #ffffff;"/><path d="M 158.667 74.667 H 168 V 84 H 158.667 V 74.667 Z" style="fill: #ffffff;"/><path d="M 158.667 84 H 168 V 93.333 H 158.667 V 84 Z" style="fill: #000000;"/><path d="M 158.667 93.333 H 168 V 102.667 H 158.667 V 93.333 Z" style="fill: #000000;"/><path d="M 158.667 102.667 H 168 V 112 H 158.667 V 102.667 Z" style="fill: #ffffff;"/><path d="M 158.667 112 H 168 V 121.333 H 158.667 V 112 Z" style="fill: #ffffff;"/><path d="M 158.667 121.333 H 168 V 130.667 H 158.667 V 121.333 Z" style="fill: #ffffff;"/><path d="M 158.667 130.667 H 168 V 140 H 158.667 V 130.667 Z" style="fill: #ffffff;"/><path d="M 158.667 140 H 168 V 149.333 H 158.667 V 140 Z" style="fill: #ffffff;"/><path d="M 158.667 149.333 H 168 V 158.667 H 158.667 V 149.333 Z" style="fill: #ffffff;"/><path d="M 158.667 158.667 H 168 V 168 H 158.667 V 158.667 Z" style="fill: #ffffff;"/><path d="M 158.667 168 H 168 V 177.333 H 158.667 V 168 Z" style="fill: #ffffff;"/><path d="M 158.667 177.333 H 168 V 186.667 H 158.667 V 177.333 Z" style="fill: #ffffff;"/><path d="M 158.667 186.667 H 168 V 196 H 158.667 V 186.667 Z" style="fill: #000000;"/><path d="M 158.667 196 H 168 V 205.333 H 158.667 V 196 Z" style="fill: #000000;"/><path d="M 158.667 205.333 H 168 V 214.667 H 158.667 V 205.333 Z" style="fill: #ffffff;"/><path d="M 158.667 214.667 H 168 V 224 H 158.667 V 214.667 Z" style="fill: #ffffff;"/><path d="M 168 0 H 177.333 V 9.333 H 168 V 0 Z" style="fill: #ffffff;"/><path d="M 168 9.333 H 177.333 V 18.667 H 168 V 9.333 Z" style="fill: #ffffff;"/><path d="M 168 18.667 H 177.333 V 28 H 168 V 18.667 Z" style="fill: #000000;"/><path d="M 168 28 H 177.333 V 37.333 H 168 V 28 Z" style="fill: #000000;"/><path d="M 168 37.333 H 177.333 V 46.667 H 168 V 37.333 Z" style="fill: #ffffff;"/><path d="M 168 46.667 H 177.333 V 56 H 168 V 46.667 Z" style="fill: #ffffff;"/><path d="M 168 56 H 177.333 V 65.333 H 168 V 56 Z" style="fill: #ffffff;"/><path d="M 168 65.333 H 177.333 V 74.667 H 168 V 65.333 Z" style="fill: #ffffff;"/><path d="M 168 74.667 H 177.333 V 84 H 168 V 74.667 Z" style="fill: #ffffff;"/><path d="M 168 84 H 177.333 V 93.333 H 168 V 84 Z" style="fill: #000000;"/><path d="M 168 93.333 H 177.333 V 102.667 H 168 V 93.333 Z" style="fill: #000000;"/><path d="M 168 102.667 H 177.333 V 112 H 168 V 102.667 Z" style="fill: #ffffff;"/><path d="M 168 112 H 177.333 V 121.333 H 168 V 112 Z" style="fill: #ffffff;"/><path d="M 168 121.333 H 177.333 V 130.667 H 168 V 121.333 Z" style="fill: #ffffff;"/><path d="M 168 130.667 H 177.333 V 140 H 168 V 130.667 Z" style="fill: #ffffff;"/><path d="M 168 140 H 177.333 V 149.333 H 168 V 140 Z" style="fill: #ffffff;"/><path d="M 168 149.333 H 177.333 V 158.667 H 168 V 149.333 Z" style="fill: #ffffff;"/><path d="M 168 158.667 H 177.333 V 168 H 168 V 158.667 Z" style="fill: #ffffff;"/><path d="M 168 168 H 177.333 V 177.333 H 168 V 168 Z" style="fill: #ffffff;"/><path d="M 168 177.333 H 177.333 V 186.667 H 168 V 177.333 Z" style="fill: #ffffff;"/><path d="M 168 186.667 H 177.333 V 196 H 168 V 186.667 Z" style="fill: #ffffff;"/><path d="M 168 196 H 177.333 V 205.333 H 168 V 196 Z" style="fill: #ffffff;"/><path d="M 168 205.333 H 177.333 V 214.667 H 168 V 205.333 Z" style="fill: #ffffff;"/><path d="M 168 214.667 H 177.333 V 224 H 168 V 214.667 Z" style="fill: #ffffff;"/><path d="M 177.333 0 H 186.667 V 9.333 H 177.333 V 0 Z" style="fill: #ffffff;"/><path d="M 177.333 9.333 H 186.667 V 18.667 H 177.333 V 9.333 Z" style="fill: #ffffff;"/><path d="M 177.333 18.667 H 186.667 V 28 H 177.333 V 18.667 Z" style="fill: #ffffff;"/><path d="M 177.333 28 H 186.667 V 37.333 H 177.333 V 28 Z" style="fill: #ffffff;"/><path d="M 177.333 37.333 H 186.667 V 46.667 H 177.333 V 37.333 Z" style="fill: #ffffff;"/><path d="M 177.333 46.667 H 186.667 V 56 H 177.333 V 46.667 Z" style="fill: #ffffff;"/><path d="M 177.333 56 H 186.667 V 65.333 H 177.333 V 56 Z" style="fill: #ffffff;"/><path d="M 177.333 65.333 H 186.667 V 74.667 H 177.333 V 65.333 Z" style="fill: #ffffff;"/><path d="M 177.333 74.667 H 186.667 V 84 H 177.333 V 74.667 Z" style="fill: #ffffff;"/><path d="M 177.333 84 H 186.667 V 93.333 H 177.333 V 84 Z" style="fill: #ffffff;"/><path d="M 177.333 93.333 H 186.667 V 102.667 H 177.333 V 93.333 Z" style="fill: #ffffff;"/><path d="M 177.333 102.667 H 186.667 V 112 H 177.333 V 102.667 Z" style="fill: #ffffff;"/><path d="M 177.333 112 H 186.667 V 121.333 H 177.333 V 112 Z" style="fill: #ffffff;"/><path d="M 177.333 121.333 H 186.667 V 130.667 H 177.333 V 121.333 Z" style="fill: #ffffff;"/><path d="M 177.333 130.667 H 186.667 V 140 H 177.333 V 130.667 Z" style="fill: #ffffff;"/><path d="M 177.333 140 H 186.667 V 149.333 H 177.333 V 140 Z" style="fill: #ffffff;"/><path d="M 177.333 149.333 H 186.667 V 158.667 H 177.333 V 149.333 Z" style="fill: #ffffff;"/><path d="M 177.333 158.667 H 186.667 V 168 H 177.333 V 158.667 Z" style="fill: #ffffff;"/><path d="M 177.333 168 H 186.667 V 177.333 H 177.333 V 168 Z" style="fill: #ffffff;"/><path d="M 177.333 177.333 H 186.667 V 186.667 H 177.333 V 177.333 Z" style="fill: #ffffff;"/><path d="M 177.333 186.667 H 186.667 V 196 H 177.333 V 186.667 Z" style="fill: #ffffff;"/><path d="M 177.333 196 H 186.667 V 205.333 H 177.333 V 196 Z" style="fill: #ffffff;"/><path d="M 177.333 205.333 H 186.667 V 214.667 H 177.333 V 205.333 Z" style="fill: #ffffff;"/><path d="M 177.333 214.667 H 186.667 V 224 H 177.333 V 214.667 Z" style="fill: #ffffff;"/><path d="M 186.667 0 H 196 V 9.333 H 186.667 V 0 Z" style="fill: #ffffff;"/><path d="M 186.667 9.333 H 196 V 18.667 H 186.667 V 9.333 Z" style="fill: #ffffff;"/><path d="M 186.667 18.667 H 196 V 28 H 186.667 V 18.667 Z" style="fill: #ffffff;"/><path d="M 186.667 28 H 196 V 37.333 H 186.667 V 28 Z" style="fill: #ffffff;"/><path d="M 186.667 37.333 H 196 V 46.667 H 186.667 V 37.333 Z" style="fill: #ffffff;"/><path d="M 186.667 46.667 H 196 V 56 H 186.667 V 46.667 Z" style="fill: #ffffff;"/><path d="M 186.667 56 H 196 V 65.333 H 186.667 V 56 Z" style="fill: #ffffff;"/><path d="M 186.667 65.333 H 196 V 74.667 H 186.667 V 65.333 Z" style="fill: #ffffff;"/><path d="M 186.667 74.667 H 196 V 84 H 186.667 V 74.667 Z" style="fill: #ffffff;"/><path d="M 186.667 84 H 196 V 93.333 H 186.667 V 84 Z" style="fill: #ffffff;"/><path d="M 186.667 93.333 H 196 V 102.667 H 186.667 V 93.333 Z" style="fill: #ffffff;"/><path d="M 186.667 102.667 H 196 V 112 H 186.667 V 102.667 Z" style="fill: #ffffff;"/><path d="M 186.667 112 H 196 V 121.333 H 186.667 V 112 Z" style="fill: #ffffff;"/><path d="M 186.667 121.333 H 196 V 130.667 H 186.667 V 121.333 Z" style="fill: #ffffff;"/><path d="M 186.667 130.667 H 196 V 140 H 186.667 V 130.667 Z" style="fill: #ffffff;"/><path d="M 186.667 140 H 196 V 149.333 H 186.667 V 140 Z" style="fill: #ffffff;"/><path d="M 186.667 149.333 H 196 V 158.667 H 186.667 V 149.333 Z" style="fill: #ffffff;"/><path d="M 186.667 158.667 H 196 V 168 H 186.667 V 158.667 Z" style="fill: #ffffff;"/><path d="M 186.667 168 H 196 V 177.333 H 186.667 V 168 Z" style="fill: #ffffff;"/><path d="M 186.667 177.333 H 196 V 186.667 H 186.667 V 177.333 Z" style="fill: #ffffff;"/><path d="M 186.667 186.667 H 196 V 196 H 186.667 V 186.667 Z" style="fill: #ffffff;"/><path d="M 186.667 196 H 196 V 205.333 H 186.667 V 196 Z" style="fill: #ffffff;"/><path d="M 186.667 205.333 H 196 V 214.667 H 186.667 V 205.333 Z" style="fill: #ffffff;"/><path d="M 186.667 214.667 H 196 V 224 H 186.667 V 214.667 Z" style="fill: #ffffff;"/><path d="M 196 0 H 205.333 V 9.333 H 196 V 0 Z" style="fill: #ffffff;"/><path d="M 196 9.333 H 205.333 V 18.667 H 196 V 9.333 Z" style="fill: #ffffff;"/><path d="M 196 18.667 H 205.333 V 28 H 196 V 18.667 Z" style="fill: #ffffff;"/><path d="M 196 28 H 205.333 V 37.333 H 196 V 28 Z" style="fill: #ffffff;"/><path d="M 196 37.333 H 205.333 V 46.667 H 196 V 37.333 Z" style="fill: #ffffff;"/><path d="M 196 46.667 H 205.333 V 56 H 196 V 46.667 Z" style="fill: #ffffff;"/><path d="M 196 56 H 205.333 V 65.333 H 196 V 56 Z" style="fill: #ffffff;"/><path d="M 196 65.333 H 205.333 V 74.667 H 196 V 65.333 Z" style="fill: #ffffff;"/><path d="M 196 74.667 H 205.333 V 84 H 196 V 74.667 Z" style="fill: #ffffff;"/><path d="M 196 84 H 205.333 V 93.333 H 196 V 84 Z" style="fill: #ffffff;"/><path d="M 196 93.333 H 205.333 V 102.667 H 196 V 93.333 Z" style="fill: #ffffff;"/><path d="M 196 102.667 H 205.333 V 112 H 196 V 102.667 Z" style="fill: #ffffff;"/><path d="M 196 112 H 205.333 V 121.333 H 196 V 112 Z" style="fill: #ffffff;"/><path d="M 196 121.333 H 205.333 V 130.667 H 196 V 121.333 Z" style="fill: #ffffff;"/><path d="M 196 130.667 H 205.333 V 140 H 196 V 130.667 Z" style="fill: #ffffff;"/><path d="M 196 140 H 205.333 V 149.333 H 196 V 140 Z" style="fill: #ffffff;"/><path d="M 196 149.333 H 205.333 V 158.667 H 196 V 149.333 Z" style="fill: #ffffff;"/><path d="M 196 158.667 H 205.333 V 168 H 196 V 158.667 Z" style="fill: #ffffff;"/><path d="M 196 168 H 205.333 V 177.333 H 196 V 168 Z" style="fill: #ffffff;"/><path d="M 196 177.333 H 205.333 V 186.667 H 196 V 177.333 Z" style="fill: #ffffff;"/><path d="M 196 186.667 H 205.333 V 196 H 196 V 186.667 Z" style="fill: #ffffff;"/><path d="M 196 196 H 205.333 V 205.333 H 196 V 196 Z" style="fill: #ffffff;"/><path d="M 196 205.333 H 205.333 V 214.667 H 196 V 205.333 Z" style="fill: #ffffff;"/><path d="M 196 214.667 H 205.333 V 224 H 196 V 214.667 Z" style="fill: rgba(97,97,97,0.96);"/><path d="M 205.333 9.333 H 214.667 V 18.667 H 205.333 V 9.333 Z" style="fill: #ffffff;"/><path d="M 205.333 18.667 H 214.667 V 28 H 205.333 V 18.667 Z" style="fill: #ffffff;"/><path d="M 205.333 28 H 214.667 V 37.333 H 205.333 V 28 Z" style="fill: #ffffff;"/><path d="M 205.333 37.333 H 214.667 V 46.667 H 205.333 V 37.333 Z" style="fill: #ffffff;"/><path d="M 205.333 46.667 H 214.667 V 56 H 205.333 V 46.667 Z" style="fill: #ffffff;"/><path d="M 205.333 56 H 214.667 V 65.333 H 205.333 V 56 Z" style="fill: #ffffff;"/><path d="M 205.333 65.333 H 214.667 V 74.667 H 205.333 V 65.333 Z" style="fill: #ffffff;"/><path d="M 205.333 74.667 H 214.667 V 84 H 205.333 V 74.667 Z" style="fill: #ffffff;"/><path d="M 205.333 84 H 214.667 V 93.333 H 205.333 V 84 Z" style="fill: #ffffff;"/><path d="M 205.333 93.333 H 214.667 V 102.667 H 205.333 V 93.333 Z" style="fill: #ffffff;"/><path d="M 205.333 102.667 H 214.667 V 112 H 205.333 V 102.667 Z" style="fill: #ffffff;"/><path d="M 205.333 112 H 214.667 V 121.333 H 205.333 V 112 Z" style="fill: #ffffff;"/><path d="M 205.333 121.333 H 214.667 V 130.667 H 205.333 V 121.333 Z" style="fill: #ffffff;"/><path d="M 205.333 130.667 H 214.667 V 140 H 205.333 V 130.667 Z" style="fill: #ffffff;"/><path d="M 205.333 140 H 214.667 V 149.333 H 205.333 V 140 Z" style="fill: #ffffff;"/><path d="M 205.333 149.333 H 214.667 V 158.667 H 205.333 V 149.333 Z" style="fill: #ffffff;"/><path d="M 205.333 158.667 H 214.667 V 168 H 205.333 V 158.667 Z" style="fill: #ffffff;"/><path d="M 205.333 168 H 214.667 V 177.333 H 205.333 V 168 Z" style="fill: #ffffff;"/><path d="M 205.333 177.333 H 214.667 V 186.667 H 205.333 V 177.333 Z" style="fill: #ffffff;"/><path d="M 205.333 186.667 H 214.667 V 196 H 205.333 V 186.667 Z" style="fill: #ffffff;"/><path d="M 205.333 196 H 214.667 V 205.333 H 205.333 V 196 Z" style="fill: #ffffff;"/><path d="M 205.333 205.333 H 214.667 V 214.667 H 205.333 V 205.333 Z" style="fill: #ffffff;"/><path d="M 214.667 18.667 H 224 V 28 H 214.667 V 18.667 Z" style="fill: #e5e5e5;"/><path d="M 214.667 28 H 224 V 37.333 H 214.667 V 28 Z" style="fill: #ffffff;"/><path d="M 214.667 37.333 H 224 V 46.667 H 214.667 V 37.333 Z" style="fill: #ffffff;"/><path d="M 214.667 46.667 H 224 V 56 H 214.667 V 46.667 Z" style="fill: #ffffff;"/><path d="M 214.667 56 H 224 V 65.333 H 214.667 V 56 Z" style="fill: #ffffff;"/><path d="M 214.667 65.333 H 224 V 74.667 H 214.667 V 65.333 Z" style="fill: #ffffff;"/><path d="M 214.667 74.667 H 224 V 84 H 214.667 V 74.667 Z" style="fill: #ffffff;"/><path d="M 214.667 84 H 224 V 93.333 H 214.667 V 84 Z" style="fill: #ffffff;"/><path d="M 214.667 93.333 H 224 V 102.667 H 214.667 V 93.333 Z" style="fill: #ffffff;"/><path d="M 214.667 102.667 H 224 V 112 H 214.667 V 102.667 Z" style="fill: #ffffff;"/><path d="M 214.667 112 H 224 V 121.333 H 214.667 V 112 Z" style="fill: #ffffff;"/><path d="M 214.667 121.333 H 224 V 130.667 H 214.667 V 121.333 Z" style="fill: #ffffff;"/><path d="M 214.667 130.667 H 224 V 140 H 214.667 V 130.667 Z" style="fill: #ffffff;"/><path d="M 214.667 140 H 224 V 149.333 H 214.667 V 140 Z" style="fill: #ffffff;"/><path d="M 214.667 149.333 H 224 V 158.667 H 214.667 V 149.333 Z" style="fill: #ffffff;"/><path d="M 214.667 158.667 H 224 V 168 H 214.667 V 158.667 Z" style="fill: #ffffff;"/><path d="M 214.667 168 H 224 V 177.333 H 214.667 V 168 Z" style="fill: #ffffff;"/><path d="M 214.667 177.333 H 224 V 186.667 H 214.667 V 177.333 Z" style="fill: #ffffff;"/><path d="M 214.667 186.667 H 224 V 196 H 214.667 V 186.667 Z" style="fill: #ffffff;"/><path d="M 214.667 196 H 224 V 205.333 H 214.667 V 196 Z" style="fill: rgba(94,94,94,0.94);"/></g></svg>