<?xml version="1.0" encoding="utf-8"?>
<svg xmlns="http://www.w3.org/2000/svg" viewBox="390.2281 -917.0802 213.3726 224" width="213.3726px" height="224px"><g transform="matrix(0.4838379919528961, 0, 0, 0.48388901352882385, 369.9068603515625, -927.26220703125)" id="object-2"><path d="M 42 147.292 H 63 V 168.333 H 42 V 147.292 Z" style="fill: rgba(19,174,114,0.93);"/><path d="M 42 168.333 H 63 V 189.375 H 42 V 168.333 Z" style="fill: #13ae72;"/><path d="M 42 189.375 H 63 V 210.417 H 42 V 189.375 Z" style="fill: #13ae72;"/><path d="M 42 210.417 H 63 V 231.458 H 42 V 210.417 Z" style="fill: #13ae72;"/><path d="M 42 231.458 H 63 V 252.5 H 42 V 231.458 Z" style="fill: #13ae72;"/><path d="M 42 252.5 H 63 V 273.542 H 42 V 252.5 Z" style="fill: #13ae72;"/><path d="M 42 273.542 H 63 V 294.583 H 42 V 273.542 Z" style="fill: #13ae72;"/><path d="M 42 294.583 H 63 V 315.625 H 42 V 294.583 Z" style="fill: #13ae72;"/><path d="M 42 315.625 H 63 V 336.667 H 42 V 315.625 Z" style="fill: #13ae72;"/><path d="M 42 336.667 H 63 V 357.708 H 42 V 336.667 Z" style="fill: #13ae72;"/><path d="M 42 357.708 H 63 V 378.75 H 42 V 357.708 Z" style="fill: #13ae72;"/><path d="M 42 378.75 H 63 V 399.792 H 42 V 378.75 Z" style="fill: #13ae72;"/><path d="M 42 399.792 H 63 V 420.833 H 42 V 399.792 Z" style="fill: #13ae72;"/><path d="M 42 420.833 H 63 V 441.875 H 42 V 420.833 Z" style="fill: #13ae72;"/><path d="M 42 441.875 H 63 V 462.917 H 42 V 441.875 Z" style="fill: #13ae72;"/><path d="M 42 462.917 H 63 V 483.958 H 42 V 462.917 Z" style="fill: #13ae72;"/><path d="M 63 126.25 H 84 V 147.292 H 63 V 126.25 Z" style="fill: #13ae72;"/><path d="M 63 147.292 H 84 V 168.333 H 63 V 147.292 Z" style="fill: #13ae72;"/><path d="M 63 168.333 H 84 V 189.375 H 63 V 168.333 Z" style="fill: #13ae72;"/><path d="M 63 189.375 H 84 V 210.417 H 63 V 189.375 Z" style="fill: #13ae72;"/><path d="M 63 210.417 H 84 V 231.458 H 63 V 210.417 Z" style="fill: #13ae72;"/><path d="M 63 231.458 H 84 V 252.5 H 63 V 231.458 Z" style="fill: #13ae72;"/><path d="M 63 252.5 H 84 V 273.542 H 63 V 252.5 Z" style="fill: #13ae72;"/><path d="M 63 273.542 H 84 V 294.583 H 63 V 273.542 Z" style="fill: #13ae72;"/><path d="M 63 294.583 H 84 V 315.625 H 63 V 294.583 Z" style="fill: #13ae72;"/><path d="M 63 315.625 H 84 V 336.667 H 63 V 315.625 Z" style="fill: #13ae72;"/><path d="M 63 336.667 H 84 V 357.708 H 63 V 336.667 Z" style="fill: #13ae72;"/><path d="M 63 357.708 H 84 V 378.75 H 63 V 357.708 Z" style="fill: #13ae72;"/><path d="M 63 378.75 H 84 V 399.792 H 63 V 378.75 Z" style="fill: #13ae72;"/><path d="M 63 399.792 H 84 V 420.833 H 63 V 399.792 Z" style="fill: #13ae72;"/><path d="M 63 420.833 H 84 V 441.875 H 63 V 420.833 Z" style="fill: #13ae72;"/><path d="M 63 441.875 H 84 V 462.917 H 63 V 441.875 Z" style="fill: #13ae72;"/><path d="M 63 462.917 H 84 V 483.958 H 63 V 462.917 Z" style="fill: rgba(19,176,114,0.42);"/><path d="M 84 84.167 H 105 V 105.208 H 84 V 84.167 Z" style="fill: rgba(20,177,116,0.9);"/><path d="M 84 105.208 H 105 V 126.25 H 84 V 105.208 Z" style="fill: #13ae72;"/><path d="M 84 126.25 H 105 V 147.292 H 84 V 126.25 Z" style="fill: #13ae72;"/><path d="M 84 147.292 H 105 V 168.333 H 84 V 147.292 Z" style="fill: #13ae72;"/><path d="M 84 168.333 H 105 V 189.375 H 84 V 168.333 Z" style="fill: #13ae72;"/><path d="M 84 189.375 H 105 V 210.417 H 84 V 189.375 Z" style="fill: #13ae72;"/><path d="M 84 210.417 H 105 V 231.458 H 84 V 210.417 Z" style="fill: #13ae72;"/><path d="M 84 231.458 H 105 V 252.5 H 84 V 231.458 Z" style="fill: #13ae72;"/><path d="M 84 252.5 H 105 V 273.542 H 84 V 252.5 Z" style="fill: #13ae72;"/><path d="M 84 273.542 H 105 V 294.583 H 84 V 273.542 Z" style="fill: #13ae72;"/><path d="M 84 294.583 H 105 V 315.625 H 84 V 294.583 Z" style="fill: #13ae72;"/><path d="M 84 315.625 H 105 V 336.667 H 84 V 315.625 Z" style="fill: #13ae72;"/><path d="M 84 336.667 H 105 V 357.708 H 84 V 336.667 Z" style="fill: #13ae72;"/><path d="M 84 357.708 H 105 V 378.75 H 84 V 357.708 Z" style="fill: #13ae72;"/><path d="M 84 378.75 H 105 V 399.792 H 84 V 378.75 Z" style="fill: #13ae72;"/><path d="M 84 399.792 H 105 V 420.833 H 84 V 399.792 Z" style="fill: #13ae72;"/><path d="M 84 420.833 H 105 V 441.875 H 84 V 420.833 Z" style="fill: #13ae72;"/><path d="M 84 441.875 H 105 V 462.917 H 84 V 441.875 Z" style="fill: #13ae72;"/><path d="M 105 63.125 H 126 V 84.167 H 105 V 63.125 Z" style="fill: rgba(21,176,114,0.96);"/><path d="M 105 84.167 H 126 V 105.208 H 105 V 84.167 Z" style="fill: #13ae72;"/><path d="M 105 105.208 H 126 V 126.25 H 105 V 105.208 Z" style="fill: #13ae72;"/><path d="M 105 126.25 H 126 V 147.292 H 105 V 126.25 Z" style="fill: #13ae72;"/><path d="M 105 147.292 H 126 V 168.333 H 105 V 147.292 Z" style="fill: #13ae72;"/><path d="M 105 168.333 H 126 V 189.375 H 105 V 168.333 Z" style="fill: #13ae72;"/><path d="M 105 189.375 H 126 V 210.417 H 105 V 189.375 Z" style="fill: #13ae72;"/><path d="M 105 273.542 H 126 V 294.583 H 105 V 273.542 Z" style="fill: rgba(20,177,116,0.95);"/><path d="M 105 294.583 H 126 V 315.625 H 105 V 294.583 Z" style="fill: #13ae72;"/><path d="M 105 315.625 H 126 V 336.667 H 105 V 315.625 Z" style="fill: #13ae72;"/><path d="M 105 336.667 H 126 V 357.708 H 105 V 336.667 Z" style="fill: #13ae72;"/><path d="M 105 357.708 H 126 V 378.75 H 105 V 357.708 Z" style="fill: #13ae72;"/><path d="M 105 378.75 H 126 V 399.792 H 105 V 378.75 Z" style="fill: #13ae72;"/><path d="M 105 399.792 H 126 V 420.833 H 105 V 399.792 Z" style="fill: #13ae72;"/><path d="M 105 420.833 H 126 V 441.875 H 105 V 420.833 Z" style="fill: #13ae72;"/><path d="M 126 63.125 H 147 V 84.167 H 126 V 63.125 Z" style="fill: #13ae72;"/><path d="M 126 84.167 H 147 V 105.208 H 126 V 84.167 Z" style="fill: #13ae72;"/><path d="M 126 105.208 H 147 V 126.25 H 126 V 105.208 Z" style="fill: #13ae72;"/><path d="M 126 126.25 H 147 V 147.292 H 126 V 126.25 Z" style="fill: #13ae72;"/><path d="M 126 147.292 H 147 V 168.333 H 126 V 147.292 Z" style="fill: #13ae72;"/><path d="M 126 315.625 H 147 V 336.667 H 126 V 315.625 Z" style="fill: rgba(21,176,118,0.38);"/><path d="M 126 336.667 H 147 V 357.708 H 126 V 336.667 Z" style="fill: #13ae72;"/><path d="M 126 357.708 H 147 V 378.75 H 126 V 357.708 Z" style="fill: #13ae72;"/><path d="M 126 378.75 H 147 V 399.792 H 126 V 378.75 Z" style="fill: #13ae72;"/><path d="M 126 399.792 H 147 V 420.833 H 126 V 399.792 Z" style="fill: #13ae72;"/><path d="M 126 420.833 H 147 V 441.875 H 126 V 420.833 Z" style="fill: #13ae72;"/><path d="M 147 42.083 H 168 V 63.125 H 147 V 42.083 Z" style="fill: #13ae72;"/><path d="M 147 63.125 H 168 V 84.167 H 147 V 63.125 Z" style="fill: #13ae72;"/><path d="M 147 84.167 H 168 V 105.208 H 147 V 84.167 Z" style="fill: #13ae72;"/><path d="M 147 105.208 H 168 V 126.25 H 147 V 105.208 Z" style="fill: #13ae72;"/><path d="M 147 126.25 H 168 V 147.292 H 147 V 126.25 Z" style="fill: #13ae72;"/><path d="M 147 357.708 H 168 V 378.75 H 147 V 357.708 Z" style="fill: #13ae72;"/><path d="M 147 378.75 H 168 V 399.792 H 147 V 378.75 Z" style="fill: #13ae72;"/><path d="M 147 399.792 H 168 V 420.833 H 147 V 399.792 Z" style="fill: #13ae72;"/><path d="M 147 420.833 H 168 V 441.875 H 147 V 420.833 Z" style="fill: #13ae72;"/><path d="M 168 42.083 H 189 V 63.125 H 168 V 42.083 Z" style="fill: #13ae72;"/><path d="M 168 63.125 H 189 V 84.167 H 168 V 63.125 Z" style="fill: #13ae72;"/><path d="M 168 84.167 H 189 V 105.208 H 168 V 84.167 Z" style="fill: #13ae72;"/><path d="M 168 105.208 H 189 V 126.25 H 168 V 105.208 Z" style="fill: #13ae72;"/><path d="M 168 357.708 H 189 V 378.75 H 168 V 357.708 Z" style="fill: rgba(23,176,118,0.43);"/><path d="M 168 378.75 H 189 V 399.792 H 168 V 378.75 Z" style="fill: #13ae72;"/><path d="M 168 399.792 H 189 V 420.833 H 168 V 399.792 Z" style="fill: #13ae72;"/><path d="M 168 420.833 H 189 V 441.875 H 168 V 420.833 Z" style="fill: #13ae72;"/><path d="M 168 441.875 H 189 V 462.917 H 168 V 441.875 Z" style="fill: #13ae72;"/><path d="M 189 21.042 H 210 V 42.083 H 189 V 21.042 Z" style="fill: #13ae72;"/><path d="M 189 42.083 H 210 V 63.125 H 189 V 42.083 Z" style="fill: #13ae72;"/><path d="M 189 63.125 H 210 V 84.167 H 189 V 63.125 Z" style="fill: #13ae72;"/><path d="M 189 84.167 H 210 V 105.208 H 189 V 84.167 Z" style="fill: #13ae72;"/><path d="M 189 378.75 H 210 V 399.792 H 189 V 378.75 Z" style="fill: #13ae72;"/><path d="M 189 399.792 H 210 V 420.833 H 189 V 399.792 Z" style="fill: #13ae72;"/><path d="M 189 420.833 H 210 V 441.875 H 189 V 420.833 Z" style="fill: #13ae72;"/><path d="M 189 441.875 H 210 V 462.917 H 189 V 441.875 Z" style="fill: #13ae72;"/><path d="M 210 21.042 H 231 V 42.083 H 210 V 21.042 Z" style="fill: #13ae72;"/><path d="M 210 42.083 H 231 V 63.125 H 210 V 42.083 Z" style="fill: #13ae72;"/><path d="M 210 63.125 H 231 V 84.167 H 210 V 63.125 Z" style="fill: #13ae72;"/><path d="M 210 84.167 H 231 V 105.208 H 210 V 84.167 Z" style="fill: #13ae72;"/><path d="M 210 378.75 H 231 V 399.792 H 210 V 378.75 Z" style="fill: #13ae72;"/><path d="M 210 399.792 H 231 V 420.833 H 210 V 399.792 Z" style="fill: #13ae72;"/><path d="M 210 420.833 H 231 V 441.875 H 210 V 420.833 Z" style="fill: #13ae72;"/><path d="M 210 441.875 H 231 V 462.917 H 210 V 441.875 Z" style="fill: #13ae72;"/><path d="M 231 21.042 H 252 V 42.083 H 231 V 21.042 Z" style="fill: #13ae72;"/><path d="M 231 42.083 H 252 V 63.125 H 231 V 42.083 Z" style="fill: #13ae72;"/><path d="M 231 63.125 H 252 V 84.167 H 231 V 63.125 Z" style="fill: #13ae72;"/><path d="M 231 84.167 H 252 V 105.208 H 231 V 84.167 Z" style="fill: #13ae72;"/><path d="M 231 378.75 H 252 V 399.792 H 231 V 378.75 Z" style="fill: rgba(26,180,121,0.34);"/><path d="M 231 399.792 H 252 V 420.833 H 231 V 399.792 Z" style="fill: #13ae72;"/><path d="M 231 420.833 H 252 V 441.875 H 231 V 420.833 Z" style="fill: #13ae72;"/><path d="M 231 441.875 H 252 V 462.917 H 231 V 441.875 Z" style="fill: #13ae72;"/><path d="M 252 21.042 H 273 V 42.083 H 252 V 21.042 Z" style="fill: #13ae72;"/><path d="M 252 42.083 H 273 V 63.125 H 252 V 42.083 Z" style="fill: #13ae72;"/><path d="M 252 63.125 H 273 V 84.167 H 252 V 63.125 Z" style="fill: #13ae72;"/><path d="M 252 84.167 H 273 V 105.208 H 252 V 84.167 Z" style="fill: #13ae72;"/><path d="M 252 399.792 H 273 V 420.833 H 252 V 399.792 Z" style="fill: #13ae72;"/><path d="M 252 420.833 H 273 V 441.875 H 252 V 420.833 Z" style="fill: #13ae72;"/><path d="M 252 441.875 H 273 V 462.917 H 252 V 441.875 Z" style="fill: #13ae72;"/><path d="M 273 21.042 H 294 V 42.083 H 273 V 21.042 Z" style="fill: #13ae72;"/><path d="M 273 42.083 H 294 V 63.125 H 273 V 42.083 Z" style="fill: #13ae72;"/><path d="M 273 63.125 H 294 V 84.167 H 273 V 63.125 Z" style="fill: #13ae72;"/><path d="M 273 84.167 H 294 V 105.208 H 273 V 84.167 Z" style="fill: #13ae72;"/><path d="M 273 378.75 H 294 V 399.792 H 273 V 378.75 Z" style="fill: rgba(19,176,116,0.93);"/><path d="M 273 399.792 H 294 V 420.833 H 273 V 399.792 Z" style="fill: #13ae72;"/><path d="M 273 420.833 H 294 V 441.875 H 273 V 420.833 Z" style="fill: #13ae72;"/><path d="M 273 441.875 H 294 V 462.917 H 273 V 441.875 Z" style="fill: #13ae72;"/><path d="M 294 21.042 H 315 V 42.083 H 294 V 21.042 Z" style="fill: #13ae72;"/><path d="M 294 42.083 H 315 V 63.125 H 294 V 42.083 Z" style="fill: #13ae72;"/><path d="M 294 63.125 H 315 V 84.167 H 294 V 63.125 Z" style="fill: #13ae72;"/><path d="M 294 84.167 H 315 V 105.208 H 294 V 84.167 Z" style="fill: #13ae72;"/><path d="M 294 378.75 H 315 V 399.792 H 294 V 378.75 Z" style="fill: #13ae72;"/><path d="M 294 399.792 H 315 V 420.833 H 294 V 399.792 Z" style="fill: #13ae72;"/><path d="M 294 420.833 H 315 V 441.875 H 294 V 420.833 Z" style="fill: #13ae72;"/><path d="M 294 441.875 H 315 V 462.917 H 294 V 441.875 Z" style="fill: #13ae72;"/><path d="M 315 21.042 H 336 V 42.083 H 315 V 21.042 Z" style="fill: rgba(23,185,139,0.04);"/><path d="M 315 42.083 H 336 V 63.125 H 315 V 42.083 Z" style="fill: #13ae72;"/><path d="M 315 63.125 H 336 V 84.167 H 315 V 63.125 Z" style="fill: #13ae72;"/><path d="M 315 84.167 H 336 V 105.208 H 315 V 84.167 Z" style="fill: #13ae72;"/><path d="M 315 105.208 H 336 V 126.25 H 315 V 105.208 Z" style="fill: #13ae72;"/><path d="M 315 378.75 H 336 V 399.792 H 315 V 378.75 Z" style="fill: #13ae72;"/><path d="M 315 399.792 H 336 V 420.833 H 315 V 399.792 Z" style="fill: #13ae72;"/><path d="M 315 420.833 H 336 V 441.875 H 315 V 420.833 Z" style="fill: #13ae72;"/><path d="M 315 441.875 H 336 V 462.917 H 315 V 441.875 Z" style="fill: #13ae72;"/><path d="M 336 42.083 H 357 V 63.125 H 336 V 42.083 Z" style="fill: #13ae72;"/><path d="M 336 63.125 H 357 V 84.167 H 336 V 63.125 Z" style="fill: #13ae72;"/><path d="M 336 84.167 H 357 V 105.208 H 336 V 84.167 Z" style="fill: #13ae72;"/><path d="M 336 105.208 H 357 V 126.25 H 336 V 105.208 Z" style="fill: #13ae72;"/><path d="M 336 378.75 H 357 V 399.792 H 336 V 378.75 Z" style="fill: #13ae72;"/><path d="M 336 399.792 H 357 V 420.833 H 336 V 399.792 Z" style="fill: #13ae72;"/><path d="M 336 420.833 H 357 V 441.875 H 336 V 420.833 Z" style="fill: #13ae72;"/><path d="M 336 441.875 H 357 V 462.917 H 336 V 441.875 Z" style="fill: rgba(255,255,255,0);"/><path d="M 357 42.083 H 378 V 63.125 H 357 V 42.083 Z" style="fill: rgba(19,174,114,0.98);"/><path d="M 357 63.125 H 378 V 84.167 H 357 V 63.125 Z" style="fill: #13ae72;"/><path d="M 357 84.167 H 378 V 105.208 H 357 V 84.167 Z" style="fill: #13ae72;"/><path d="M 357 105.208 H 378 V 126.25 H 357 V 105.208 Z" style="fill: #13ae72;"/><path d="M 357 126.25 H 378 V 147.292 H 357 V 126.25 Z" style="fill: #13ae72;"/><path d="M 357 378.75 H 378 V 399.792 H 357 V 378.75 Z" style="fill: #13ae72;"/><path d="M 357 399.792 H 378 V 420.833 H 357 V 399.792 Z" style="fill: #13ae72;"/><path d="M 357 420.833 H 378 V 441.875 H 357 V 420.833 Z" style="fill: #13ae72;"/><path d="M 378 63.125 H 399 V 84.167 H 378 V 63.125 Z" style="fill: #13ae72;"/><path d="M 378 84.167 H 399 V 105.208 H 378 V 84.167 Z" style="fill: #13ae72;"/><path d="M 378 105.208 H 399 V 126.25 H 378 V 105.208 Z" style="fill: #13ae72;"/><path d="M 378 126.25 H 399 V 147.292 H 378 V 126.25 Z" style="fill: #13ae72;"/><path d="M 378 147.292 H 399 V 168.333 H 378 V 147.292 Z" style="fill: #13ae72;"/><path d="M 378 168.333 H 399 V 189.375 H 378 V 168.333 Z" style="fill: #13ae72;"/><path d="M 378 294.583 H 399 V 315.625 H 378 V 294.583 Z" style="fill: rgba(24,179,117,0.29);"/><path d="M 378 315.625 H 399 V 336.667 H 378 V 315.625 Z" style="fill: #13ae72;"/><path d="M 378 336.667 H 399 V 357.708 H 378 V 336.667 Z" style="fill: #13ae72;"/><path d="M 378 357.708 H 399 V 378.75 H 378 V 357.708 Z" style="fill: #13ae72;"/><path d="M 378 378.75 H 399 V 399.792 H 378 V 378.75 Z" style="fill: #13ae72;"/><path d="M 378 399.792 H 399 V 420.833 H 378 V 399.792 Z" style="fill: #13ae72;"/><path d="M 399 84.167 H 420 V 105.208 H 399 V 84.167 Z" style="fill: #13ae72;"/><path d="M 399 105.208 H 420 V 126.25 H 399 V 105.208 Z" style="fill: #13ae72;"/><path d="M 399 126.25 H 420 V 147.292 H 399 V 126.25 Z" style="fill: #13ae72;"/><path d="M 399 147.292 H 420 V 168.333 H 399 V 147.292 Z" style="fill: #13ae72;"/><path d="M 399 168.333 H 420 V 189.375 H 399 V 168.333 Z" style="fill: #13ae72;"/><path d="M 399 189.375 H 420 V 210.417 H 399 V 189.375 Z" style="fill: #13ae72;"/><path d="M 399 210.417 H 420 V 231.458 H 399 V 210.417 Z" style="fill: #13ae72;"/><path d="M 399 231.458 H 420 V 252.5 H 399 V 231.458 Z" style="fill: #13ae72;"/><path d="M 399 252.5 H 420 V 273.542 H 399 V 252.5 Z" style="fill: #13ae72;"/><path d="M 399 273.542 H 420 V 294.583 H 399 V 273.542 Z" style="fill: #13ae72;"/><path d="M 399 294.583 H 420 V 315.625 H 399 V 294.583 Z" style="fill: #13ae72;"/><path d="M 399 315.625 H 420 V 336.667 H 399 V 315.625 Z" style="fill: #13ae72;"/><path d="M 399 336.667 H 420 V 357.708 H 399 V 336.667 Z" style="fill: #13ae72;"/><path d="M 399 357.708 H 420 V 378.75 H 399 V 357.708 Z" style="fill: #13ae72;"/><path d="M 399 378.75 H 420 V 399.792 H 399 V 378.75 Z" style="fill: #13ae72;"/><path d="M 420 105.208 H 441 V 126.25 H 420 V 105.208 Z" style="fill: #13ae72;"/><path d="M 420 126.25 H 441 V 147.292 H 420 V 126.25 Z" style="fill: #13ae72;"/><path d="M 420 147.292 H 441 V 168.333 H 420 V 147.292 Z" style="fill: #13ae72;"/><path d="M 420 168.333 H 441 V 189.375 H 420 V 168.333 Z" style="fill: #13ae72;"/><path d="M 420 189.375 H 441 V 210.417 H 420 V 189.375 Z" style="fill: #13ae72;"/><path d="M 420 210.417 H 441 V 231.458 H 420 V 210.417 Z" style="fill: #13ae72;"/><path d="M 420 231.458 H 441 V 252.5 H 420 V 231.458 Z" style="fill: #13ae72;"/><path d="M 420 252.5 H 441 V 273.542 H 420 V 252.5 Z" style="fill: #13ae72;"/><path d="M 420 273.542 H 441 V 294.583 H 420 V 273.542 Z" style="fill: #13ae72;"/><path d="M 420 294.583 H 441 V 315.625 H 420 V 294.583 Z" style="fill: #13ae72;"/><path d="M 420 315.625 H 441 V 336.667 H 420 V 315.625 Z" style="fill: #13ae72;"/><path d="M 420 336.667 H 441 V 357.708 H 420 V 336.667 Z" style="fill: #13ae72;"/><path d="M 420 357.708 H 441 V 378.75 H 420 V 357.708 Z" style="fill: #13ae72;"/><path d="M 441 126.25 H 462 V 147.292 H 441 V 126.25 Z" style="fill: rgba(20,174,117,0.55);"/><path d="M 441 147.292 H 462 V 168.333 H 441 V 147.292 Z" style="fill: #13ae72;"/><path d="M 441 168.333 H 462 V 189.375 H 441 V 168.333 Z" style="fill: #13ae72;"/><path d="M 441 189.375 H 462 V 210.417 H 441 V 189.375 Z" style="fill: #13ae72;"/><path d="M 441 210.417 H 462 V 231.458 H 441 V 210.417 Z" style="fill: #13ae72;"/><path d="M 441 231.458 H 462 V 252.5 H 441 V 231.458 Z" style="fill: #13ae72;"/><path d="M 441 252.5 H 462 V 273.542 H 441 V 252.5 Z" style="fill: #13ae72;"/><path d="M 441 273.542 H 462 V 294.583 H 441 V 273.542 Z" style="fill: #13ae72;"/><path d="M 441 294.583 H 462 V 315.625 H 441 V 294.583 Z" style="fill: #13ae72;"/><path d="M 441 315.625 H 462 V 336.667 H 441 V 315.625 Z" style="fill: #13ae72;"/><path d="M 441 336.667 H 462 V 357.708 H 441 V 336.667 Z" style="fill: #13ae72;"/><path d="M 462 189.375 H 483 V 210.417 H 462 V 189.375 Z" style="fill: #13ae72;"/><path d="M 462 210.417 H 483 V 231.458 H 462 V 210.417 Z" style="fill: #13ae72;"/><path d="M 462 231.458 H 483 V 252.5 H 462 V 231.458 Z" style="fill: #13ae72;"/><path d="M 462 252.5 H 483 V 273.542 H 462 V 252.5 Z" style="fill: #13ae72;"/><path d="M 462 273.542 H 483 V 294.583 H 462 V 273.542 Z" style="fill: #13ae72;"/><path d="M 462 294.583 H 483 V 315.625 H 462 V 294.583 Z" style="fill: rgba(30,180,120,0.07);"/></g></svg>