<?xml version="1.0" encoding="utf-8"?>
<svg xmlns="http://www.w3.org/2000/svg" viewBox="-298.5573 324.692 223.9998 223.9998" width="223.9998px" height="223.9998px"><g transform="matrix(0.11931800842285156, 0, 0, 0.11931800842285156, -308.739013671875, 314.5102844238281)" id="object-0"><path d="M 85.333 853.333 H 170.667 V 938.667 H 85.333 V 853.333 Z" style="fill: rgba(242,82,48,0.98);"/><path d="M 85.333 938.667 H 170.667 V 1024 H 85.333 V 938.667 Z" style="fill: #f05030;"/><path d="M 85.333 1024 H 170.667 V 1109.333 H 85.333 V 1024 Z" style="fill: #f05030;"/><path d="M 170.667 768 H 256 V 853.333 H 170.667 V 768 Z" style="fill: rgba(242,80,48,0.97);"/><path d="M 170.667 853.333 H 256 V 938.667 H 170.667 V 853.333 Z" style="fill: #f05030;"/><path d="M 170.667 938.667 H 256 V 1024 H 170.667 V 938.667 Z" style="fill: #f05030;"/><path d="M 170.667 1024 H 256 V 1109.333 H 170.667 V 1024 Z" style="fill: #f05030;"/><path d="M 170.667 1109.333 H 256 V 1194.667 H 170.667 V 1109.333 Z" style="fill: #f05030;"/><path d="M 256 682.667 H 341.333 V 768 H 256 V 682.667 Z" style="fill: rgba(242,82,50,0.97);"/><path d="M 256 768 H 341.333 V 853.333 H 256 V 768 Z" style="fill: #f05030;"/><path d="M 256 853.333 H 341.333 V 938.667 H 256 V 853.333 Z" style="fill: #f05030;"/><path d="M 256 938.667 H 341.333 V 1024 H 256 V 938.667 Z" style="fill: #f05030;"/><path d="M 256 1024 H 341.333 V 1109.333 H 256 V 1024 Z" style="fill: #f05030;"/><path d="M 256 1109.333 H 341.333 V 1194.667 H 256 V 1109.333 Z" style="fill: #f05030;"/><path d="M 256 1194.667 H 341.333 V 1280 H 256 V 1194.667 Z" style="fill: #f05030;"/><path d="M 341.333 597.333 H 426.667 V 682.667 H 341.333 V 597.333 Z" style="fill: rgba(242,82,50,0.97);"/><path d="M 341.333 682.667 H 426.667 V 768 H 341.333 V 682.667 Z" style="fill: #f05030;"/><path d="M 341.333 768 H 426.667 V 853.333 H 341.333 V 768 Z" style="fill: #f05030;"/><path d="M 341.333 853.333 H 426.667 V 938.667 H 341.333 V 853.333 Z" style="fill: #f05030;"/><path d="M 341.333 938.667 H 426.667 V 1024 H 341.333 V 938.667 Z" style="fill: #f05030;"/><path d="M 341.333 1024 H 426.667 V 1109.333 H 341.333 V 1024 Z" style="fill: #f05030;"/><path d="M 341.333 1109.333 H 426.667 V 1194.667 H 341.333 V 1109.333 Z" style="fill: #f05030;"/><path d="M 341.333 1194.667 H 426.667 V 1280 H 341.333 V 1194.667 Z" style="fill: #f05030;"/><path d="M 341.333 1280 H 426.667 V 1365.333 H 341.333 V 1280 Z" style="fill: #f05030;"/><path d="M 426.667 512 H 512 V 597.333 H 426.667 V 512 Z" style="fill: rgba(242,82,50,0.97);"/><path d="M 426.667 597.333 H 512 V 682.667 H 426.667 V 597.333 Z" style="fill: #f05030;"/><path d="M 426.667 682.667 H 512 V 768 H 426.667 V 682.667 Z" style="fill: #f05030;"/><path d="M 426.667 768 H 512 V 853.333 H 426.667 V 768 Z" style="fill: #f05030;"/><path d="M 426.667 853.333 H 512 V 938.667 H 426.667 V 853.333 Z" style="fill: #f05030;"/><path d="M 426.667 938.667 H 512 V 1024 H 426.667 V 938.667 Z" style="fill: #f05030;"/><path d="M 426.667 1024 H 512 V 1109.333 H 426.667 V 1024 Z" style="fill: #f05030;"/><path d="M 426.667 1109.333 H 512 V 1194.667 H 426.667 V 1109.333 Z" style="fill: #f05030;"/><path d="M 426.667 1194.667 H 512 V 1280 H 426.667 V 1194.667 Z" style="fill: #f05030;"/><path d="M 426.667 1280 H 512 V 1365.333 H 426.667 V 1280 Z" style="fill: #f05030;"/><path d="M 426.667 1365.333 H 512 V 1450.667 H 426.667 V 1365.333 Z" style="fill: #f05030;"/><path d="M 512 426.667 H 597.333 V 512 H 512 V 426.667 Z" style="fill: rgba(240,82,50,0.96);"/><path d="M 512 512 H 597.333 V 597.333 H 512 V 512 Z" style="fill: #f05030;"/><path d="M 512 597.333 H 597.333 V 682.667 H 512 V 597.333 Z" style="fill: #f05030;"/><path d="M 512 682.667 H 597.333 V 768 H 512 V 682.667 Z" style="fill: #f05030;"/><path d="M 512 768 H 597.333 V 853.333 H 512 V 768 Z" style="fill: #f05030;"/><path d="M 512 853.333 H 597.333 V 938.667 H 512 V 853.333 Z" style="fill: #f05030;"/><path d="M 512 938.667 H 597.333 V 1024 H 512 V 938.667 Z" style="fill: #f05030;"/><path d="M 512 1024 H 597.333 V 1109.333 H 512 V 1024 Z" style="fill: #f05030;"/><path d="M 512 1109.333 H 597.333 V 1194.667 H 512 V 1109.333 Z" style="fill: #f05030;"/><path d="M 512 1194.667 H 597.333 V 1280 H 512 V 1194.667 Z" style="fill: #f05030;"/><path d="M 512 1280 H 597.333 V 1365.333 H 512 V 1280 Z" style="fill: #f05030;"/><path d="M 512 1365.333 H 597.333 V 1450.667 H 512 V 1365.333 Z" style="fill: #f05030;"/><path d="M 512 1450.667 H 597.333 V 1536 H 512 V 1450.667 Z" style="fill: #f05030;"/><path d="M 597.333 341.333 H 682.667 V 426.667 H 597.333 V 341.333 Z" style="fill: rgba(240,83,48,0.96);"/><path d="M 597.333 426.667 H 682.667 V 512 H 597.333 V 426.667 Z" style="fill: #f05030;"/><path d="M 597.333 512 H 682.667 V 597.333 H 597.333 V 512 Z" style="fill: #f05030;"/><path d="M 597.333 597.333 H 682.667 V 682.667 H 597.333 V 597.333 Z" style="fill: #f05030;"/><path d="M 597.333 682.667 H 682.667 V 768 H 597.333 V 682.667 Z" style="fill: #f05030;"/><path d="M 597.333 768 H 682.667 V 853.333 H 597.333 V 768 Z" style="fill: #f05030;"/><path d="M 597.333 853.333 H 682.667 V 938.667 H 597.333 V 853.333 Z" style="fill: #f05030;"/><path d="M 597.333 938.667 H 682.667 V 1024 H 597.333 V 938.667 Z" style="fill: #f05030;"/><path d="M 597.333 1024 H 682.667 V 1109.333 H 597.333 V 1024 Z" style="fill: #f05030;"/><path d="M 597.333 1109.333 H 682.667 V 1194.667 H 597.333 V 1109.333 Z" style="fill: #f05030;"/><path d="M 597.333 1194.667 H 682.667 V 1280 H 597.333 V 1194.667 Z" style="fill: #f05030;"/><path d="M 597.333 1280 H 682.667 V 1365.333 H 597.333 V 1280 Z" style="fill: #f05030;"/><path d="M 597.333 1365.333 H 682.667 V 1450.667 H 597.333 V 1365.333 Z" style="fill: #f05030;"/><path d="M 597.333 1450.667 H 682.667 V 1536 H 597.333 V 1450.667 Z" style="fill: #f05030;"/><path d="M 597.333 1536 H 682.667 V 1621.333 H 597.333 V 1536 Z" style="fill: #f05030;"/><path d="M 682.667 426.667 H 768 V 512 H 682.667 V 426.667 Z" style="fill: #f05030;"/><path d="M 682.667 512 H 768 V 597.333 H 682.667 V 512 Z" style="fill: #f05030;"/><path d="M 682.667 597.333 H 768 V 682.667 H 682.667 V 597.333 Z" style="fill: #f05030;"/><path d="M 682.667 682.667 H 768 V 768 H 682.667 V 682.667 Z" style="fill: #f05030;"/><path d="M 682.667 768 H 768 V 853.333 H 682.667 V 768 Z" style="fill: #f05030;"/><path d="M 682.667 853.333 H 768 V 938.667 H 682.667 V 853.333 Z" style="fill: #f05030;"/><path d="M 682.667 938.667 H 768 V 1024 H 682.667 V 938.667 Z" style="fill: #f05030;"/><path d="M 682.667 1024 H 768 V 1109.333 H 682.667 V 1024 Z" style="fill: #f05030;"/><path d="M 682.667 1109.333 H 768 V 1194.667 H 682.667 V 1109.333 Z" style="fill: #f05030;"/><path d="M 682.667 1194.667 H 768 V 1280 H 682.667 V 1194.667 Z" style="fill: #f05030;"/><path d="M 682.667 1280 H 768 V 1365.333 H 682.667 V 1280 Z" style="fill: #f05030;"/><path d="M 682.667 1365.333 H 768 V 1450.667 H 682.667 V 1365.333 Z" style="fill: #f05030;"/><path d="M 682.667 1450.667 H 768 V 1536 H 682.667 V 1450.667 Z" style="fill: #f05030;"/><path d="M 682.667 1536 H 768 V 1621.333 H 682.667 V 1536 Z" style="fill: #f05030;"/><path d="M 682.667 1621.333 H 768 V 1706.667 H 682.667 V 1621.333 Z" style="fill: #f05030;"/><path d="M 768 170.667 H 853.333 V 256 H 768 V 170.667 Z" style="fill: rgba(240,80,48,0.95);"/><path d="M 768 256 H 853.333 V 341.333 H 768 V 256 Z" style="fill: #f05030;"/><path d="M 768 512 H 853.333 V 597.333 H 768 V 512 Z" style="fill: #f05030;"/><path d="M 768 597.333 H 853.333 V 682.667 H 768 V 597.333 Z" style="fill: #f05030;"/><path d="M 768 682.667 H 853.333 V 768 H 768 V 682.667 Z" style="fill: #f05030;"/><path d="M 768 768 H 853.333 V 853.333 H 768 V 768 Z" style="fill: #f05030;"/><path d="M 768 853.333 H 853.333 V 938.667 H 768 V 853.333 Z" style="fill: #f05030;"/><path d="M 768 938.667 H 853.333 V 1024 H 768 V 938.667 Z" style="fill: #f05030;"/><path d="M 768 1024 H 853.333 V 1109.333 H 768 V 1024 Z" style="fill: #f05030;"/><path d="M 768 1109.333 H 853.333 V 1194.667 H 768 V 1109.333 Z" style="fill: #f05030;"/><path d="M 768 1194.667 H 853.333 V 1280 H 768 V 1194.667 Z" style="fill: #f05030;"/><path d="M 768 1280 H 853.333 V 1365.333 H 768 V 1280 Z" style="fill: #f05030;"/><path d="M 768 1365.333 H 853.333 V 1450.667 H 768 V 1365.333 Z" style="fill: #f05030;"/><path d="M 768 1450.667 H 853.333 V 1536 H 768 V 1450.667 Z" style="fill: #f05030;"/><path d="M 768 1536 H 853.333 V 1621.333 H 768 V 1536 Z" style="fill: #f05030;"/><path d="M 768 1621.333 H 853.333 V 1706.667 H 768 V 1621.333 Z" style="fill: #f05030;"/><path d="M 768 1706.667 H 853.333 V 1792 H 768 V 1706.667 Z" style="fill: #f05030;"/><path d="M 853.333 85.333 H 938.667 V 170.667 H 853.333 V 85.333 Z" style="fill: rgba(240,82,48,0.95);"/><path d="M 853.333 170.667 H 938.667 V 256 H 853.333 V 170.667 Z" style="fill: #f05030;"/><path d="M 853.333 256 H 938.667 V 341.333 H 853.333 V 256 Z" style="fill: #f05030;"/><path d="M 853.333 341.333 H 938.667 V 426.667 H 853.333 V 341.333 Z" style="fill: #f05030;"/><path d="M 853.333 682.667 H 938.667 V 768 H 853.333 V 682.667 Z" style="fill: #f05030;"/><path d="M 853.333 768 H 938.667 V 853.333 H 853.333 V 768 Z" style="fill: #f05030;"/><path d="M 853.333 853.333 H 938.667 V 938.667 H 853.333 V 853.333 Z" style="fill: #f05030;"/><path d="M 853.333 938.667 H 938.667 V 1024 H 853.333 V 938.667 Z" style="fill: #f05030;"/><path d="M 853.333 1024 H 938.667 V 1109.333 H 853.333 V 1024 Z" style="fill: #f05030;"/><path d="M 853.333 1109.333 H 938.667 V 1194.667 H 853.333 V 1109.333 Z" style="fill: #f05030;"/><path d="M 853.333 1194.667 H 938.667 V 1280 H 853.333 V 1194.667 Z" style="fill: #f05030;"/><path d="M 853.333 1280 H 938.667 V 1365.333 H 853.333 V 1280 Z" style="fill: #f05030;"/><path d="M 853.333 1536 H 938.667 V 1621.333 H 853.333 V 1536 Z" style="fill: #f05030;"/><path d="M 853.333 1621.333 H 938.667 V 1706.667 H 853.333 V 1621.333 Z" style="fill: #f05030;"/><path d="M 853.333 1706.667 H 938.667 V 1792 H 853.333 V 1706.667 Z" style="fill: #f05030;"/><path d="M 853.333 1792 H 938.667 V 1877.333 H 853.333 V 1792 Z" style="fill: #f05030;"/><path d="M 938.667 85.333 H 1024 V 170.667 H 938.667 V 85.333 Z" style="fill: #f05030;"/><path d="M 938.667 170.667 H 1024 V 256 H 938.667 V 170.667 Z" style="fill: #f05030;"/><path d="M 938.667 256 H 1024 V 341.333 H 938.667 V 256 Z" style="fill: #f05030;"/><path d="M 938.667 341.333 H 1024 V 426.667 H 938.667 V 341.333 Z" style="fill: #f05030;"/><path d="M 938.667 426.667 H 1024 V 512 H 938.667 V 426.667 Z" style="fill: #f05030;"/><path d="M 938.667 1536 H 1024 V 1621.333 H 938.667 V 1536 Z" style="fill: rgba(239,80,49,0.84);"/><path d="M 938.667 1621.333 H 1024 V 1706.667 H 938.667 V 1621.333 Z" style="fill: #f05030;"/><path d="M 938.667 1706.667 H 1024 V 1792 H 938.667 V 1706.667 Z" style="fill: #f05030;"/><path d="M 938.667 1792 H 1024 V 1877.333 H 938.667 V 1792 Z" style="fill: #f05030;"/><path d="M 938.667 1877.333 H 1024 V 1962.667 H 938.667 V 1877.333 Z" style="fill: #f05030;"/><path d="M 1024 85.333 H 1109.333 V 170.667 H 1024 V 85.333 Z" style="fill: #f05030;"/><path d="M 1024 170.667 H 1109.333 V 256 H 1024 V 170.667 Z" style="fill: #f05030;"/><path d="M 1024 256 H 1109.333 V 341.333 H 1024 V 256 Z" style="fill: #f05030;"/><path d="M 1024 341.333 H 1109.333 V 426.667 H 1024 V 341.333 Z" style="fill: #f05030;"/><path d="M 1024 426.667 H 1109.333 V 512 H 1024 V 426.667 Z" style="fill: #f05030;"/><path d="M 1024 1621.333 H 1109.333 V 1706.667 H 1024 V 1621.333 Z" style="fill: #f05030;"/><path d="M 1024 1706.667 H 1109.333 V 1792 H 1024 V 1706.667 Z" style="fill: #f05030;"/><path d="M 1024 1792 H 1109.333 V 1877.333 H 1024 V 1792 Z" style="fill: #f05030;"/><path d="M 1024 1877.333 H 1109.333 V 1962.667 H 1024 V 1877.333 Z" style="fill: #f05030;"/><path d="M 1109.333 170.667 H 1194.667 V 256 H 1109.333 V 170.667 Z" style="fill: #f05030;"/><path d="M 1109.333 256 H 1194.667 V 341.333 H 1109.333 V 256 Z" style="fill: #f05030;"/><path d="M 1109.333 341.333 H 1194.667 V 426.667 H 1109.333 V 341.333 Z" style="fill: #f05030;"/><path d="M 1109.333 426.667 H 1194.667 V 512 H 1109.333 V 426.667 Z" style="fill: #f05030;"/><path d="M 1109.333 853.333 H 1194.667 V 938.667 H 1109.333 V 853.333 Z" style="fill: #f05030;"/><path d="M 1109.333 938.667 H 1194.667 V 1024 H 1109.333 V 938.667 Z" style="fill: #f05030;"/><path d="M 1109.333 1024 H 1194.667 V 1109.333 H 1109.333 V 1024 Z" style="fill: #f05030;"/><path d="M 1109.333 1109.333 H 1194.667 V 1194.667 H 1109.333 V 1109.333 Z" style="fill: #f05030;"/><path d="M 1109.333 1194.667 H 1194.667 V 1280 H 1109.333 V 1194.667 Z" style="fill: #f05030;"/><path d="M 1109.333 1280 H 1194.667 V 1365.333 H 1109.333 V 1280 Z" style="fill: #f05030;"/><path d="M 1109.333 1536 H 1194.667 V 1621.333 H 1109.333 V 1536 Z" style="fill: #f05030;"/><path d="M 1109.333 1621.333 H 1194.667 V 1706.667 H 1109.333 V 1621.333 Z" style="fill: #f05030;"/><path d="M 1109.333 1706.667 H 1194.667 V 1792 H 1109.333 V 1706.667 Z" style="fill: #f05030;"/><path d="M 1109.333 1792 H 1194.667 V 1877.333 H 1109.333 V 1792 Z" style="fill: #f05030;"/><path d="M 1194.667 256 H 1280 V 341.333 H 1194.667 V 256 Z" style="fill: #f05030;"/><path d="M 1194.667 341.333 H 1280 V 426.667 H 1194.667 V 341.333 Z" style="fill: #f05030;"/><path d="M 1194.667 426.667 H 1280 V 512 H 1194.667 V 426.667 Z" style="fill: #f05030;"/><path d="M 1194.667 512 H 1280 V 597.333 H 1194.667 V 512 Z" style="fill: #f05030;"/><path d="M 1194.667 597.333 H 1280 V 682.667 H 1194.667 V 597.333 Z" style="fill: #f05030;"/><path d="M 1194.667 682.667 H 1280 V 768 H 1194.667 V 682.667 Z" style="fill: #f05030;"/><path d="M 1194.667 938.667 H 1280 V 1024 H 1194.667 V 938.667 Z" style="fill: #f05030;"/><path d="M 1194.667 1024 H 1280 V 1109.333 H 1194.667 V 1024 Z" style="fill: #f05030;"/><path d="M 1194.667 1109.333 H 1280 V 1194.667 H 1194.667 V 1109.333 Z" style="fill: #f05030;"/><path d="M 1194.667 1194.667 H 1280 V 1280 H 1194.667 V 1194.667 Z" style="fill: #f05030;"/><path d="M 1194.667 1280 H 1280 V 1365.333 H 1194.667 V 1280 Z" style="fill: #f05030;"/><path d="M 1194.667 1365.333 H 1280 V 1450.667 H 1194.667 V 1365.333 Z" style="fill: #f05030;"/><path d="M 1194.667 1450.667 H 1280 V 1536 H 1194.667 V 1450.667 Z" style="fill: #f05030;"/><path d="M 1194.667 1536 H 1280 V 1621.333 H 1194.667 V 1536 Z" style="fill: #f05030;"/><path d="M 1194.667 1621.333 H 1280 V 1706.667 H 1194.667 V 1621.333 Z" style="fill: #f05030;"/><path d="M 1194.667 1706.667 H 1280 V 1792 H 1194.667 V 1706.667 Z" style="fill: #f05030;"/><path d="M 1280 341.333 H 1365.333 V 426.667 H 1280 V 341.333 Z" style="fill: #f05030;"/><path d="M 1280 426.667 H 1365.333 V 512 H 1280 V 426.667 Z" style="fill: #f05030;"/><path d="M 1280 512 H 1365.333 V 597.333 H 1280 V 512 Z" style="fill: #f05030;"/><path d="M 1280 597.333 H 1365.333 V 682.667 H 1280 V 597.333 Z" style="fill: #f05030;"/><path d="M 1280 682.667 H 1365.333 V 768 H 1280 V 682.667 Z" style="fill: #f05030;"/><path d="M 1280 768 H 1365.333 V 853.333 H 1280 V 768 Z" style="fill: #f05030;"/><path d="M 1280 1109.333 H 1365.333 V 1194.667 H 1280 V 1109.333 Z" style="fill: #f05030;"/><path d="M 1280 1194.667 H 1365.333 V 1280 H 1280 V 1194.667 Z" style="fill: #f05030;"/><path d="M 1280 1280 H 1365.333 V 1365.333 H 1280 V 1280 Z" style="fill: #f05030;"/><path d="M 1280 1365.333 H 1365.333 V 1450.667 H 1280 V 1365.333 Z" style="fill: #f05030;"/><path d="M 1280 1450.667 H 1365.333 V 1536 H 1280 V 1450.667 Z" style="fill: #f05030;"/><path d="M 1280 1536 H 1365.333 V 1621.333 H 1280 V 1536 Z" style="fill: #f05030;"/><path d="M 1280 1621.333 H 1365.333 V 1706.667 H 1280 V 1621.333 Z" style="fill: #f05030;"/><path d="M 1365.333 426.667 H 1450.667 V 512 H 1365.333 V 426.667 Z" style="fill: #f05030;"/><path d="M 1365.333 512 H 1450.667 V 597.333 H 1365.333 V 512 Z" style="fill: #f05030;"/><path d="M 1365.333 597.333 H 1450.667 V 682.667 H 1365.333 V 597.333 Z" style="fill: #f05030;"/><path d="M 1365.333 682.667 H 1450.667 V 768 H 1365.333 V 682.667 Z" style="fill: #f05030;"/><path d="M 1365.333 768 H 1450.667 V 853.333 H 1365.333 V 768 Z" style="fill: #f05030;"/><path d="M 1365.333 1194.667 H 1450.667 V 1280 H 1365.333 V 1194.667 Z" style="fill: #f05030;"/><path d="M 1365.333 1280 H 1450.667 V 1365.333 H 1365.333 V 1280 Z" style="fill: #f05030;"/><path d="M 1365.333 1365.333 H 1450.667 V 1450.667 H 1365.333 V 1365.333 Z" style="fill: #f05030;"/><path d="M 1365.333 1450.667 H 1450.667 V 1536 H 1365.333 V 1450.667 Z" style="fill: #f05030;"/><path d="M 1365.333 1536 H 1450.667 V 1621.333 H 1365.333 V 1536 Z" style="fill: #f05030;"/><path d="M 1450.667 512 H 1536 V 597.333 H 1450.667 V 512 Z" style="fill: #f05030;"/><path d="M 1450.667 597.333 H 1536 V 682.667 H 1450.667 V 597.333 Z" style="fill: #f05030;"/><path d="M 1450.667 682.667 H 1536 V 768 H 1450.667 V 682.667 Z" style="fill: #f05030;"/><path d="M 1450.667 768 H 1536 V 853.333 H 1450.667 V 768 Z" style="fill: #f05030;"/><path d="M 1450.667 853.333 H 1536 V 938.667 H 1450.667 V 853.333 Z" style="fill: #f05030;"/><path d="M 1450.667 1194.667 H 1536 V 1280 H 1450.667 V 1194.667 Z" style="fill: #f05030;"/><path d="M 1450.667 1280 H 1536 V 1365.333 H 1450.667 V 1280 Z" style="fill: #f05030;"/><path d="M 1450.667 1365.333 H 1536 V 1450.667 H 1450.667 V 1365.333 Z" style="fill: #f05030;"/><path d="M 1450.667 1450.667 H 1536 V 1536 H 1450.667 V 1450.667 Z" style="fill: #f05030;"/><path d="M 1536 597.333 H 1621.333 V 682.667 H 1536 V 597.333 Z" style="fill: #f05030;"/><path d="M 1536 682.667 H 1621.333 V 768 H 1536 V 682.667 Z" style="fill: #f05030;"/><path d="M 1536 768 H 1621.333 V 853.333 H 1536 V 768 Z" style="fill: #f05030;"/><path d="M 1536 853.333 H 1621.333 V 938.667 H 1536 V 853.333 Z" style="fill: #f05030;"/><path d="M 1536 938.667 H 1621.333 V 1024 H 1536 V 938.667 Z" style="fill: #f05030;"/><path d="M 1536 1024 H 1621.333 V 1109.333 H 1536 V 1024 Z" style="fill: #f05030;"/><path d="M 1536 1109.333 H 1621.333 V 1194.667 H 1536 V 1109.333 Z" style="fill: #f05030;"/><path d="M 1536 1194.667 H 1621.333 V 1280 H 1536 V 1194.667 Z" style="fill: #f05030;"/><path d="M 1536 1280 H 1621.333 V 1365.333 H 1536 V 1280 Z" style="fill: #f05030;"/><path d="M 1536 1365.333 H 1621.333 V 1450.667 H 1536 V 1365.333 Z" style="fill: #f05030;"/><path d="M 1621.333 682.667 H 1706.667 V 768 H 1621.333 V 682.667 Z" style="fill: #f05030;"/><path d="M 1621.333 768 H 1706.667 V 853.333 H 1621.333 V 768 Z" style="fill: #f05030;"/><path d="M 1621.333 853.333 H 1706.667 V 938.667 H 1621.333 V 853.333 Z" style="fill: #f05030;"/><path d="M 1621.333 938.667 H 1706.667 V 1024 H 1621.333 V 938.667 Z" style="fill: #f05030;"/><path d="M 1621.333 1024 H 1706.667 V 1109.333 H 1621.333 V 1024 Z" style="fill: #f05030;"/><path d="M 1621.333 1109.333 H 1706.667 V 1194.667 H 1621.333 V 1109.333 Z" style="fill: #f05030;"/><path d="M 1621.333 1194.667 H 1706.667 V 1280 H 1621.333 V 1194.667 Z" style="fill: #f05030;"/><path d="M 1621.333 1280 H 1706.667 V 1365.333 H 1621.333 V 1280 Z" style="fill: #f05030;"/><path d="M 1706.667 768 H 1792 V 853.333 H 1706.667 V 768 Z" style="fill: #f05030;"/><path d="M 1706.667 853.333 H 1792 V 938.667 H 1706.667 V 853.333 Z" style="fill: #f05030;"/><path d="M 1706.667 938.667 H 1792 V 1024 H 1706.667 V 938.667 Z" style="fill: #f05030;"/><path d="M 1706.667 1024 H 1792 V 1109.333 H 1706.667 V 1024 Z" style="fill: #f05030;"/><path d="M 1706.667 1109.333 H 1792 V 1194.667 H 1706.667 V 1109.333 Z" style="fill: #f05030;"/><path d="M 1706.667 1194.667 H 1792 V 1280 H 1706.667 V 1194.667 Z" style="fill: #f05030;"/><path d="M 1792 853.333 H 1877.333 V 938.667 H 1792 V 853.333 Z" style="fill: #f05030;"/><path d="M 1792 938.667 H 1877.333 V 1024 H 1792 V 938.667 Z" style="fill: #f05030;"/><path d="M 1792 1024 H 1877.333 V 1109.333 H 1792 V 1024 Z" style="fill: #f05030;"/><path d="M 1792 1109.333 H 1877.333 V 1194.667 H 1792 V 1109.333 Z" style="fill: #f05030;"/><path d="M 1877.333 938.667 H 1962.667 V 1024 H 1877.333 V 938.667 Z" style="fill: #f05030;"/><path d="M 1877.333 1024 H 1962.667 V 1109.333 H 1877.333 V 1024 Z" style="fill: #f05030;"/></g></svg>