<svg id="tecnologias" xmlns="http://www.w3.org/2000/svg" viewBox="0 0 224 224"><defs><style>.cls-1{fill:#2684ff;}.cls-2{fill:#197cfb;}.cls-3{fill:#146fe1;}.cls-4{fill:#0665cf;}.cls-5{fill:#0053d8;}.cls-6{fill:#2783ff;}.cls-7{fill:#2782ff;}.cls-8{fill:#1283ff;}.cls-9{fill:#298cff;}.cls-10{fill:#2086ff;}</style></defs><rect class="cls-1" x="213.33" y="106.66" width="10.67" height="10.67"/><rect class="cls-1" x="213.33" y="96" width="10.67" height="10.66"/><rect class="cls-1" x="213.33" y="85.34" width="10.67" height="10.66"/><rect class="cls-1" x="213.33" y="74.66" width="10.67" height="10.67"/><rect class="cls-1" x="213.33" y="64" width="10.67" height="10.66"/><rect class="cls-1" x="213.33" y="53.34" width="10.67" height="10.66"/><rect class="cls-1" x="213.33" y="42.67" width="10.67" height="10.66"/><rect class="cls-1" x="213.33" y="32" width="10.67" height="10.67"/><rect class="cls-1" x="213.33" y="21.34" width="10.67" height="10.66"/><rect class="cls-1" x="213.33" y="10.67" width="10.67" height="10.66"/><rect class="cls-1" x="213.33" width="10.67" height="10.67"/><rect class="cls-1" x="202.66" y="106.66" width="10.66" height="10.67"/><rect class="cls-1" x="202.66" y="96" width="10.66" height="10.66"/><rect class="cls-1" x="202.66" y="85.34" width="10.66" height="10.66"/><rect class="cls-1" x="202.66" y="74.66" width="10.66" height="10.67"/><rect class="cls-1" x="202.66" y="64" width="10.66" height="10.66"/><rect class="cls-1" x="202.66" y="53.34" width="10.66" height="10.66"/><rect class="cls-1" x="202.66" y="42.67" width="10.66" height="10.66"/><rect class="cls-1" x="202.66" y="32" width="10.66" height="10.67"/><rect class="cls-1" x="202.66" y="21.34" width="10.66" height="10.66"/><rect class="cls-1" x="202.66" y="10.67" width="10.66" height="10.66"/><rect class="cls-1" x="202.66" width="10.66" height="10.67"/><rect class="cls-1" x="192" y="96" width="10.66" height="10.66"/><rect class="cls-1" x="192" y="85.34" width="10.66" height="10.66"/><rect class="cls-1" x="192" y="74.66" width="10.66" height="10.67"/><rect class="cls-1" x="192" y="64" width="10.66" height="10.66"/><rect class="cls-1" x="192" y="53.34" width="10.66" height="10.66"/><rect class="cls-1" x="192" y="42.67" width="10.66" height="10.66"/><rect class="cls-1" x="192" y="32" width="10.66" height="10.67"/><rect class="cls-1" x="192" y="21.34" width="10.66" height="10.66"/><rect class="cls-1" x="192" y="10.67" width="10.66" height="10.66"/><rect class="cls-1" x="192" width="10.66" height="10.67"/><rect class="cls-1" x="181.33" y="85.34" width="10.67" height="10.66"/><rect class="cls-1" x="181.33" y="74.66" width="10.67" height="10.67"/><rect class="cls-1" x="181.33" y="64" width="10.67" height="10.66"/><rect class="cls-1" x="181.33" y="53.34" width="10.67" height="10.66"/><rect class="cls-1" x="181.33" y="42.67" width="10.67" height="10.66"/><rect class="cls-1" x="181.33" y="32" width="10.67" height="10.67"/><rect class="cls-1" x="181.33" y="21.34" width="10.67" height="10.66"/><rect class="cls-1" x="181.33" y="10.67" width="10.67" height="10.66"/><rect class="cls-1" x="181.33" width="10.67" height="10.67"/><rect class="cls-1" x="170.66" y="32" width="10.66" height="10.67"/><rect class="cls-1" x="170.66" y="21.34" width="10.66" height="10.66"/><rect class="cls-1" x="170.66" y="10.67" width="10.66" height="10.66"/><rect class="cls-1" x="170.66" width="10.66" height="10.67"/><rect class="cls-2" x="160" y="160" width="10.66" height="10.66"/><rect class="cls-2" x="160" y="149.34" width="10.66" height="10.66"/><rect class="cls-2" x="160" y="138.66" width="10.66" height="10.67"/><rect class="cls-2" x="160" y="128" width="10.66" height="10.66"/><rect class="cls-2" x="160" y="117.34" width="10.66" height="10.66"/><rect class="cls-3" x="160" y="106.66" width="10.66" height="10.67"/><rect class="cls-3" x="160" y="96" width="10.66" height="10.66"/><rect class="cls-4" x="160" y="85.34" width="10.66" height="10.66"/><rect class="cls-4" x="160" y="74.66" width="10.66" height="10.67"/><rect class="cls-5" x="160" y="64" width="10.66" height="10.66"/><rect class="cls-5" x="160" y="53.34" width="10.66" height="10.66"/><rect class="cls-1" x="160" y="32" width="10.66" height="10.67"/><rect class="cls-1" x="160" y="21.34" width="10.66" height="10.66"/><rect class="cls-1" x="160" y="10.67" width="10.66" height="10.66"/><rect class="cls-1" x="160" width="10.66" height="10.67"/><rect class="cls-2" x="149.34" y="160" width="10.66" height="10.66"/><rect class="cls-2" x="149.34" y="149.34" width="10.66" height="10.66"/><rect class="cls-2" x="149.34" y="138.66" width="10.66" height="10.67"/><rect class="cls-2" x="149.34" y="128" width="10.66" height="10.66"/><rect class="cls-2" x="149.34" y="117.34" width="10.66" height="10.66"/><rect class="cls-2" x="149.34" y="106.66" width="10.66" height="10.67"/><rect class="cls-2" x="149.34" y="96" width="10.66" height="10.66"/><rect class="cls-4" x="149.34" y="85.34" width="10.66" height="10.66"/><rect class="cls-4" x="149.34" y="74.66" width="10.66" height="10.67"/><rect class="cls-5" x="149.34" y="64" width="10.66" height="10.66"/><rect class="cls-5" x="149.34" y="53.34" width="10.66" height="10.66"/><rect class="cls-1" x="149.34" y="32" width="10.66" height="10.67"/><rect class="cls-1" x="149.34" y="21.34" width="10.66" height="10.66"/><rect class="cls-1" x="149.34" y="10.67" width="10.66" height="10.66"/><rect class="cls-1" x="149.34" width="10.66" height="10.67"/><rect class="cls-2" x="138.66" y="149.34" width="10.67" height="10.66"/><rect class="cls-2" x="138.66" y="138.66" width="10.67" height="10.67"/><rect class="cls-2" x="138.66" y="128" width="10.67" height="10.66"/><rect class="cls-2" x="138.66" y="117.34" width="10.67" height="10.66"/><rect class="cls-2" x="138.66" y="106.66" width="10.67" height="10.67"/><rect class="cls-2" x="138.66" y="96" width="10.67" height="10.66"/><rect class="cls-4" x="138.66" y="85.34" width="10.67" height="10.66"/><rect class="cls-4" x="138.66" y="74.66" width="10.67" height="10.67"/><rect class="cls-4" x="138.66" y="64" width="10.67" height="10.66"/><rect class="cls-4" x="138.66" y="53.34" width="10.67" height="10.66"/><rect class="cls-1" x="138.66" y="32" width="10.67" height="10.67"/><rect class="cls-1" x="138.66" y="21.34" width="10.67" height="10.66"/><rect class="cls-1" x="138.66" y="10.67" width="10.67" height="10.66"/><rect class="cls-1" x="138.66" width="10.67" height="10.67"/><rect class="cls-6" x="128" y="138.66" width="10.66" height="10.67"/><rect class="cls-6" x="128" y="128" width="10.66" height="10.66"/><rect class="cls-6" x="128" y="117.34" width="10.66" height="10.66"/><rect class="cls-6" x="128" y="106.66" width="10.66" height="10.67"/><rect class="cls-6" x="128" y="96" width="10.66" height="10.66"/><rect class="cls-2" x="128" y="85.34" width="10.66" height="10.66"/><rect class="cls-3" x="128" y="74.66" width="10.66" height="10.67"/><rect class="cls-3" x="128" y="64" width="10.66" height="10.66"/><rect class="cls-3" x="128" y="53.34" width="10.66" height="10.66"/><rect class="cls-1" x="128" y="32" width="10.66" height="10.67"/><rect class="cls-1" x="128" y="21.34" width="10.66" height="10.66"/><rect class="cls-1" x="128" y="10.67" width="10.66" height="10.66"/><rect class="cls-1" x="128" width="10.66" height="10.67"/><rect class="cls-2" x="117.34" y="85.34" width="10.66" height="10.66"/><rect class="cls-2" x="117.34" y="74.66" width="10.66" height="10.67"/><rect class="cls-2" x="117.34" y="64" width="10.66" height="10.66"/><rect class="cls-3" x="117.34" y="53.34" width="10.66" height="10.66"/><rect class="cls-1" x="117.34" y="21.34" width="10.66" height="10.66"/><rect class="cls-1" x="117.34" y="10.67" width="10.66" height="10.66"/><rect class="cls-1" x="117.34" width="10.66" height="10.67"/><rect class="cls-7" x="106.66" y="213.33" width="10.67" height="10.67"/><rect class="cls-7" x="106.66" y="202.66" width="10.67" height="10.66"/><rect class="cls-7" x="106.66" y="192" width="10.67" height="10.66"/><rect class="cls-7" x="106.66" y="181.33" width="10.67" height="10.67"/><rect class="cls-7" x="106.66" y="170.66" width="10.67" height="10.66"/><rect class="cls-3" x="106.66" y="160" width="10.67" height="10.66"/><rect class="cls-3" x="106.66" y="149.34" width="10.67" height="10.66"/><rect class="cls-4" x="106.66" y="138.66" width="10.67" height="10.67"/><rect class="cls-4" x="106.66" y="128" width="10.67" height="10.66"/><rect class="cls-5" x="106.66" y="117.34" width="10.67" height="10.66"/><rect class="cls-5" x="106.66" y="106.66" width="10.67" height="10.67"/><rect class="cls-2" x="106.66" y="85.34" width="10.67" height="10.66"/><rect class="cls-2" x="106.66" y="74.66" width="10.67" height="10.67"/><rect class="cls-2" x="106.66" y="64" width="10.67" height="10.66"/><rect class="cls-3" x="106.66" y="53.34" width="10.67" height="10.66"/><rect class="cls-1" x="106.66" y="10.67" width="10.67" height="10.66"/><rect class="cls-1" x="106.66" width="10.67" height="10.67"/><rect class="cls-8" x="96" y="213.33" width="10.66" height="10.67"/><rect class="cls-9" x="96" y="202.66" width="10.66" height="10.66"/><rect class="cls-10" x="96" y="192" width="10.66" height="10.66"/><rect class="cls-10" x="96" y="181.33" width="10.66" height="10.67"/><rect class="cls-10" x="96" y="170.66" width="10.66" height="10.66"/><rect class="cls-7" x="96" y="160" width="10.66" height="10.66"/><rect class="cls-3" x="96" y="149.34" width="10.66" height="10.66"/><rect class="cls-4" x="96" y="138.66" width="10.66" height="10.67"/><rect class="cls-4" x="96" y="128" width="10.66" height="10.66"/><rect class="cls-5" x="96" y="117.34" width="10.66" height="10.66"/><rect class="cls-5" x="96" y="106.66" width="10.66" height="10.67"/><rect class="cls-2" x="96" y="85.34" width="10.66" height="10.66"/><rect class="cls-2" x="96" y="74.66" width="10.66" height="10.67"/><rect class="cls-2" x="96" y="64" width="10.66" height="10.66"/><rect class="cls-2" x="96" y="53.34" width="10.66" height="10.66"/><rect class="cls-9" x="85.34" y="202.66" width="10.66" height="10.66"/><rect class="cls-10" x="85.34" y="192" width="10.66" height="10.66"/><rect class="cls-10" x="85.34" y="181.33" width="10.66" height="10.67"/><rect class="cls-10" x="85.34" y="170.66" width="10.66" height="10.66"/><rect class="cls-10" x="85.34" y="160" width="10.66" height="10.66"/><rect class="cls-7" x="85.34" y="149.34" width="10.66" height="10.66"/><rect class="cls-3" x="85.34" y="138.66" width="10.66" height="10.67"/><rect class="cls-4" x="85.34" y="128" width="10.66" height="10.66"/><rect class="cls-4" x="85.34" y="117.34" width="10.66" height="10.66"/><rect class="cls-4" x="85.34" y="106.66" width="10.66" height="10.67"/><rect class="cls-2" x="85.34" y="85.34" width="10.66" height="10.66"/><rect class="cls-2" x="85.34" y="74.66" width="10.66" height="10.67"/><rect class="cls-2" x="85.34" y="64" width="10.66" height="10.66"/><rect class="cls-2" x="85.34" y="53.34" width="10.66" height="10.66"/><rect class="cls-10" x="74.66" y="192" width="10.67" height="10.66"/><rect class="cls-6" x="74.66" y="181.33" width="10.67" height="10.67"/><rect class="cls-6" x="74.66" y="170.66" width="10.67" height="10.66"/><rect class="cls-6" x="74.66" y="160" width="10.67" height="10.66"/><rect class="cls-6" x="74.66" y="149.34" width="10.67" height="10.66"/><rect class="cls-2" x="74.66" y="138.66" width="10.67" height="10.67"/><rect class="cls-3" x="74.66" y="128" width="10.67" height="10.66"/><rect class="cls-4" x="74.66" y="117.34" width="10.67" height="10.66"/><rect class="cls-4" x="74.66" y="106.66" width="10.67" height="10.67"/><rect class="cls-2" x="74.66" y="85.34" width="10.67" height="10.66"/><rect class="cls-2" x="74.66" y="74.66" width="10.67" height="10.67"/><rect class="cls-2" x="74.66" y="64" width="10.67" height="10.66"/><rect class="cls-2" x="74.66" y="53.34" width="10.67" height="10.66"/><rect class="cls-2" x="64" y="138.66" width="10.66" height="10.67"/><rect class="cls-7" x="64" y="128" width="10.66" height="10.66"/><rect class="cls-7" x="64" y="117.34" width="10.66" height="10.66"/><rect class="cls-3" x="64" y="106.66" width="10.66" height="10.67"/><rect class="cls-2" x="64" y="74.66" width="10.66" height="10.67"/><rect class="cls-2" x="64" y="64" width="10.66" height="10.66"/><rect class="cls-2" x="64" y="53.34" width="10.66" height="10.66"/><rect class="cls-2" x="53.34" y="138.66" width="10.66" height="10.67"/><rect class="cls-7" x="53.34" y="128" width="10.66" height="10.66"/><rect class="cls-7" x="53.34" y="117.34" width="10.66" height="10.66"/><rect class="cls-3" x="53.34" y="106.66" width="10.66" height="10.67"/><rect class="cls-2" x="53.34" y="64" width="10.66" height="10.66"/><rect class="cls-2" x="53.34" y="53.34" width="10.66" height="10.66"/><rect class="cls-2" x="42.67" y="138.66" width="10.66" height="10.67"/><rect class="cls-7" x="42.67" y="128" width="10.66" height="10.66"/><rect class="cls-7" x="42.67" y="117.34" width="10.66" height="10.66"/><rect class="cls-7" x="42.67" y="106.66" width="10.66" height="10.67"/><rect class="cls-2" x="32" y="138.66" width="10.67" height="10.67"/><rect class="cls-7" x="32" y="128" width="10.67" height="10.66"/><rect class="cls-7" x="32" y="117.34" width="10.67" height="10.66"/><rect class="cls-7" x="32" y="106.66" width="10.67" height="10.67"/><rect class="cls-2" x="21.34" y="138.66" width="10.66" height="10.67"/><rect class="cls-6" x="21.34" y="128" width="10.66" height="10.66"/><rect class="cls-7" x="21.34" y="117.34" width="10.66" height="10.66"/><rect class="cls-7" x="21.34" y="106.66" width="10.66" height="10.67"/><rect class="cls-6" x="10.67" y="128" width="10.66" height="10.66"/><rect class="cls-7" x="10.67" y="117.34" width="10.66" height="10.66"/><rect class="cls-7" x="10.67" y="106.66" width="10.66" height="10.67"/><rect class="cls-7" y="117.34" width="10.67" height="10.66"/><rect class="cls-7" y="106.66" width="10.67" height="10.67"/></svg>