<svg id="tecnologias" xmlns="http://www.w3.org/2000/svg" viewBox="0 0 224 224"><defs><style>.cls-1{fill:#1a323e;}.cls-2{fill:#fff;}</style></defs><rect class="cls-1" x="213.33" y="144" width="10.67" height="10.66"/><rect class="cls-1" x="213.33" y="133.33" width="10.67" height="10.67"/><rect class="cls-2" x="213.33" y="122.66" width="10.67" height="10.66"/><rect class="cls-1" x="213.33" y="112" width="10.67" height="10.66"/><rect class="cls-1" x="213.33" y="101.33" width="10.67" height="10.67"/><rect class="cls-2" x="213.33" y="90.66" width="10.67" height="10.66"/><rect class="cls-1" x="213.33" y="69.33" width="10.67" height="10.67"/><rect class="cls-2" x="213.33" y="58.66" width="10.67" height="10.66"/><rect class="cls-1" x="213.33" y="37.34" width="10.67" height="10.66"/><rect class="cls-1" x="202.66" y="144" width="10.66" height="10.66"/><rect class="cls-2" x="202.66" y="133.33" width="10.66" height="10.67"/><rect class="cls-1" x="202.66" y="112" width="10.66" height="10.66"/><rect class="cls-2" x="202.66" y="101.33" width="10.66" height="10.67"/><rect class="cls-1" x="202.66" y="80" width="10.66" height="10.66"/><rect class="cls-2" x="202.66" y="69.33" width="10.66" height="10.67"/><rect class="cls-1" x="202.66" y="37.34" width="10.66" height="10.66"/><rect class="cls-2" x="192" y="144" width="10.66" height="10.66"/><rect class="cls-1" x="192" y="133.33" width="10.66" height="10.67"/><rect class="cls-2" x="192" y="112" width="10.66" height="10.66"/><rect class="cls-1" x="192" y="101.33" width="10.66" height="10.67"/><rect class="cls-2" x="192" y="80" width="10.66" height="10.66"/><rect class="cls-1" x="192" y="69.33" width="10.66" height="10.67"/><rect class="cls-1" x="192" y="37.34" width="10.66" height="10.66"/><rect class="cls-1" x="181.33" y="144" width="10.67" height="10.66"/><rect class="cls-2" x="181.33" y="133.33" width="10.67" height="10.67"/><rect class="cls-1" x="181.33" y="112" width="10.67" height="10.66"/><rect class="cls-2" x="181.33" y="101.33" width="10.67" height="10.67"/><rect class="cls-1" x="181.33" y="80" width="10.67" height="10.66"/><rect class="cls-2" x="181.33" y="69.33" width="10.67" height="10.67"/><rect class="cls-1" x="181.33" y="37.34" width="10.67" height="10.66"/><rect class="cls-1" x="170.66" y="144" width="10.66" height="10.66"/><rect class="cls-1" x="170.66" y="133.33" width="10.66" height="10.67"/><rect class="cls-1" x="170.66" y="112" width="10.66" height="10.66"/><rect class="cls-1" x="170.66" y="101.33" width="10.66" height="10.67"/><rect class="cls-1" x="170.66" y="80" width="10.66" height="10.66"/><rect class="cls-1" x="170.66" y="69.33" width="10.66" height="10.67"/><rect class="cls-1" x="170.66" y="37.34" width="10.66" height="10.66"/><rect class="cls-1" x="160" y="144" width="10.66" height="10.66"/><rect class="cls-1" x="160" y="133.33" width="10.66" height="10.67"/><rect class="cls-1" x="160" y="112" width="10.66" height="10.66"/><rect class="cls-1" x="160" y="101.33" width="10.66" height="10.67"/><rect class="cls-1" x="160" y="80" width="10.66" height="10.66"/><rect class="cls-1" x="160" y="69.33" width="10.66" height="10.67"/><rect class="cls-1" x="160" y="37.34" width="10.66" height="10.66"/><rect class="cls-1" x="138.66" y="112" width="10.67" height="10.66"/><rect class="cls-1" x="138.66" y="101.33" width="10.67" height="10.67"/><rect class="cls-1" x="138.66" y="80" width="10.67" height="10.66"/><rect class="cls-1" x="138.66" y="69.33" width="10.67" height="10.67"/><rect class="cls-1" x="138.66" y="37.34" width="10.67" height="10.66"/><rect class="cls-1" x="128" y="112" width="10.66" height="10.66"/><rect class="cls-1" x="128" y="101.33" width="10.66" height="10.67"/><rect class="cls-1" x="128" y="80" width="10.66" height="10.66"/><rect class="cls-1" x="128" y="69.33" width="10.66" height="10.67"/><rect class="cls-1" x="128" y="37.34" width="10.66" height="10.66"/><rect class="cls-1" x="117.34" y="112" width="10.66" height="10.66"/><rect class="cls-1" x="117.34" y="101.33" width="10.66" height="10.67"/><rect class="cls-1" x="117.34" y="80" width="10.66" height="10.66"/><rect class="cls-1" x="117.34" y="69.33" width="10.66" height="10.67"/><rect class="cls-1" x="117.34" y="37.34" width="10.66" height="10.66"/><rect class="cls-1" x="106.66" y="112" width="10.67" height="10.66"/><rect class="cls-1" x="106.66" y="101.33" width="10.67" height="10.67"/><rect class="cls-1" x="106.66" y="80" width="10.67" height="10.66"/><rect class="cls-1" x="106.66" y="69.33" width="10.67" height="10.67"/><rect class="cls-1" x="106.66" y="37.34" width="10.67" height="10.66"/><rect class="cls-1" x="96" y="112" width="10.66" height="10.66"/><rect class="cls-1" x="96" y="101.33" width="10.66" height="10.67"/><rect class="cls-1" x="96" y="80" width="10.66" height="10.66"/><rect class="cls-1" x="96" y="69.33" width="10.66" height="10.67"/><rect class="cls-1" x="96" y="37.34" width="10.66" height="10.66"/><rect class="cls-1" x="85.34" y="112" width="10.66" height="10.66"/><rect class="cls-1" x="85.34" y="101.33" width="10.66" height="10.67"/><rect class="cls-1" x="85.34" y="80" width="10.66" height="10.66"/><rect class="cls-1" x="85.34" y="69.33" width="10.66" height="10.67"/><rect class="cls-1" x="85.34" y="37.34" width="10.66" height="10.66"/><rect class="cls-1" x="74.66" y="112" width="10.67" height="10.66"/><rect class="cls-1" x="74.66" y="101.33" width="10.67" height="10.67"/><rect class="cls-1" x="74.66" y="80" width="10.67" height="10.66"/><rect class="cls-1" x="74.66" y="69.33" width="10.67" height="10.67"/><rect class="cls-1" x="74.66" y="37.34" width="10.67" height="10.66"/><rect class="cls-1" x="53.34" y="175.99" width="10.66" height="10.67"/><rect class="cls-1" x="53.34" y="165.33" width="10.66" height="10.66"/><rect class="cls-1" x="53.34" y="144" width="10.66" height="10.66"/><rect class="cls-1" x="53.34" y="133.33" width="10.66" height="10.67"/><rect class="cls-1" x="53.34" y="112" width="10.66" height="10.66"/><rect class="cls-1" x="53.34" y="101.33" width="10.66" height="10.67"/><rect class="cls-1" x="53.34" y="80" width="10.66" height="10.66"/><rect class="cls-1" x="53.34" y="69.33" width="10.66" height="10.67"/><rect class="cls-1" x="53.34" y="37.34" width="10.66" height="10.66"/><rect class="cls-1" x="42.67" y="175.99" width="10.66" height="10.67"/><rect class="cls-1" x="42.67" y="165.33" width="10.66" height="10.66"/><rect class="cls-1" x="42.67" y="144" width="10.66" height="10.66"/><rect class="cls-1" x="42.67" y="133.33" width="10.66" height="10.67"/><rect class="cls-1" x="42.67" y="112" width="10.66" height="10.66"/><rect class="cls-1" x="42.67" y="101.33" width="10.66" height="10.67"/><rect class="cls-1" x="42.67" y="80" width="10.66" height="10.66"/><rect class="cls-1" x="42.67" y="69.33" width="10.66" height="10.67"/><rect class="cls-1" x="42.67" y="37.34" width="10.66" height="10.66"/><rect class="cls-1" x="32" y="175.99" width="10.67" height="10.67"/><rect class="cls-1" x="32" y="165.33" width="10.67" height="10.66"/><rect class="cls-1" x="32" y="144" width="10.67" height="10.66"/><rect class="cls-1" x="32" y="133.33" width="10.67" height="10.67"/><rect class="cls-1" x="32" y="112" width="10.67" height="10.66"/><rect class="cls-1" x="32" y="101.33" width="10.67" height="10.67"/><rect class="cls-1" x="32" y="80" width="10.67" height="10.66"/><rect class="cls-1" x="32" y="69.33" width="10.67" height="10.67"/><rect class="cls-1" x="32" y="37.34" width="10.67" height="10.66"/><rect class="cls-1" x="21.34" y="175.99" width="10.66" height="10.67"/><rect class="cls-1" x="21.34" y="165.33" width="10.66" height="10.66"/><rect class="cls-1" x="21.34" y="144" width="10.66" height="10.66"/><rect class="cls-1" x="21.34" y="133.33" width="10.66" height="10.67"/><rect class="cls-1" x="21.34" y="112" width="10.66" height="10.66"/><rect class="cls-1" x="21.34" y="101.33" width="10.66" height="10.67"/><rect class="cls-1" x="21.34" y="80" width="10.66" height="10.66"/><rect class="cls-1" x="21.34" y="69.33" width="10.66" height="10.67"/><rect class="cls-1" x="21.34" y="37.34" width="10.66" height="10.66"/><rect class="cls-1" x="10.67" y="175.99" width="10.66" height="10.67"/><rect class="cls-1" x="10.67" y="165.33" width="10.66" height="10.66"/><rect class="cls-1" x="10.67" y="144" width="10.66" height="10.66"/><rect class="cls-1" x="10.67" y="133.33" width="10.66" height="10.67"/><rect class="cls-1" x="10.67" y="112" width="10.66" height="10.66"/><rect class="cls-1" x="10.67" y="101.33" width="10.66" height="10.67"/><rect class="cls-1" x="10.67" y="80" width="10.66" height="10.66"/><rect class="cls-1" x="10.67" y="69.33" width="10.66" height="10.67"/><rect class="cls-1" x="10.67" y="37.34" width="10.66" height="10.66"/><rect class="cls-1" y="175.99" width="10.67" height="10.67"/><rect class="cls-1" y="165.33" width="10.67" height="10.66"/><rect class="cls-1" y="144" width="10.67" height="10.66"/><rect class="cls-1" y="133.33" width="10.67" height="10.67"/><rect class="cls-1" y="112" width="10.67" height="10.66"/><rect class="cls-1" y="101.33" width="10.67" height="10.67"/><rect class="cls-1" y="80" width="10.67" height="10.66"/><rect class="cls-1" y="69.33" width="10.67" height="10.67"/><rect class="cls-1" y="37.34" width="10.67" height="10.66"/></svg>