<?xml version="1.0" encoding="utf-8"?>
<svg xmlns="http://www.w3.org/2000/svg" viewBox="457.3271 -640.2745 179.7158 224.0001" width="179.7158px" height="224.0001px"><g transform="matrix(0.6418420076370239, 0, 0, 0.641834020614624, 457.32708740234375, -640.2744750976562)" id="object-0"><path d="M 0 144.414 H 11.667 V 156.448 H 0 V 144.414 Z" style="fill: #324fff;"/><path d="M 0 156.448 H 11.667 V 168.483 H 0 V 156.448 Z" style="fill: #324fff;"/><path d="M 0 168.483 H 11.667 V 180.517 H 0 V 168.483 Z" style="fill: #324fff;"/><path d="M 0 180.517 H 11.667 V 192.552 H 0 V 180.517 Z" style="fill: #324fff;"/><path d="M 0 192.552 H 11.667 V 204.586 H 0 V 192.552 Z" style="fill: #324fff;"/><path d="M 0 204.586 H 11.667 V 216.621 H 0 V 204.586 Z" style="fill: #324fff;"/><path d="M 0 216.621 H 11.667 V 228.655 H 0 V 216.621 Z" style="fill: #324fff;"/><path d="M 0 228.655 H 11.667 V 240.69 H 0 V 228.655 Z" style="fill: #324fff;"/><path d="M 0 240.69 H 11.667 V 252.724 H 0 V 240.69 Z" style="fill: #324fff;"/><path d="M 0 252.724 H 11.667 V 264.759 H 0 V 252.724 Z" style="fill: #324fff;"/><path d="M 0 264.759 H 11.667 V 276.793 H 0 V 264.759 Z" style="fill: #324fff;"/><path d="M 0 276.793 H 11.667 V 288.828 H 0 V 276.793 Z" style="fill: #283198;"/><path d="M 11.667 156.448 H 23.333 V 168.483 H 11.667 V 156.448 Z" style="fill: #324fff;"/><path d="M 11.667 168.483 H 23.333 V 180.517 H 11.667 V 168.483 Z" style="fill: #324fff;"/><path d="M 11.667 180.517 H 23.333 V 192.552 H 11.667 V 180.517 Z" style="fill: #324fff;"/><path d="M 11.667 192.552 H 23.333 V 204.586 H 11.667 V 192.552 Z" style="fill: #324fff;"/><path d="M 11.667 204.586 H 23.333 V 216.621 H 11.667 V 204.586 Z" style="fill: #324fff;"/><path d="M 11.667 216.621 H 23.333 V 228.655 H 11.667 V 216.621 Z" style="fill: #324fff;"/><path d="M 11.667 228.655 H 23.333 V 240.69 H 11.667 V 228.655 Z" style="fill: #324fff;"/><path d="M 11.667 240.69 H 23.333 V 252.724 H 11.667 V 240.69 Z" style="fill: #324fff;"/><path d="M 11.667 252.724 H 23.333 V 264.759 H 11.667 V 252.724 Z" style="fill: #324fff;"/><path d="M 11.667 264.759 H 23.333 V 276.793 H 11.667 V 264.759 Z" style="fill: #283198;"/><path d="M 11.667 276.793 H 23.333 V 288.828 H 11.667 V 276.793 Z" style="fill: #283198;"/><path d="M 11.667 288.828 H 23.333 V 300.862 H 11.667 V 288.828 Z" style="fill: #283198;"/><path d="M 23.333 168.483 H 35 V 180.517 H 23.333 V 168.483 Z" style="fill: #324fff;"/><path d="M 23.333 180.517 H 35 V 192.552 H 23.333 V 180.517 Z" style="fill: #324fff;"/><path d="M 23.333 192.552 H 35 V 204.586 H 23.333 V 192.552 Z" style="fill: #324fff;"/><path d="M 23.333 204.586 H 35 V 216.621 H 23.333 V 204.586 Z" style="fill: #324fff;"/><path d="M 23.333 216.621 H 35 V 228.655 H 23.333 V 216.621 Z" style="fill: #324fff;"/><path d="M 23.333 228.655 H 35 V 240.69 H 23.333 V 228.655 Z" style="fill: #324fff;"/><path d="M 23.333 240.69 H 35 V 252.724 H 23.333 V 240.69 Z" style="fill: #324fff;"/><path d="M 23.333 252.724 H 35 V 264.759 H 23.333 V 252.724 Z" style="fill: #283198;"/><path d="M 23.333 264.759 H 35 V 276.793 H 23.333 V 264.759 Z" style="fill: #283198;"/><path d="M 23.333 276.793 H 35 V 288.828 H 23.333 V 276.793 Z" style="fill: #283198;"/><path d="M 23.333 288.828 H 35 V 300.862 H 23.333 V 288.828 Z" style="fill: #283198;"/><path d="M 23.333 300.862 H 35 V 312.897 H 23.333 V 300.862 Z" style="fill: rgba(41,48,152,0.7);"/><path d="M 35 180.517 H 46.667 V 192.552 H 35 V 180.517 Z" style="fill: #324fff;"/><path d="M 35 192.552 H 46.667 V 204.586 H 35 V 192.552 Z" style="fill: #324fff;"/><path d="M 35 204.586 H 46.667 V 216.621 H 35 V 204.586 Z" style="fill: #324fff;"/><path d="M 35 216.621 H 46.667 V 228.655 H 35 V 216.621 Z" style="fill: #324fff;"/><path d="M 35 228.655 H 46.667 V 240.69 H 35 V 228.655 Z" style="fill: #324fff;"/><path d="M 35 240.69 H 46.667 V 252.724 H 35 V 240.69 Z" style="fill: #283198;"/><path d="M 35 252.724 H 46.667 V 264.759 H 35 V 252.724 Z" style="fill: #283198;"/><path d="M 35 264.759 H 46.667 V 276.793 H 35 V 264.759 Z" style="fill: #283198;"/><path d="M 35 276.793 H 46.667 V 288.828 H 35 V 276.793 Z" style="fill: #283198;"/><path d="M 35 288.828 H 46.667 V 300.862 H 35 V 288.828 Z" style="fill: #283198;"/><path d="M 35 300.862 H 46.667 V 312.897 H 35 V 300.862 Z" style="fill: #283198;"/><path d="M 35 312.897 H 46.667 V 324.931 H 35 V 312.897 Z" style="fill: rgba(41,48,152,0.7);"/><path d="M 46.667 192.552 H 58.333 V 204.586 H 46.667 V 192.552 Z" style="fill: #324fff;"/><path d="M 46.667 204.586 H 58.333 V 216.621 H 46.667 V 204.586 Z" style="fill: #324fff;"/><path d="M 46.667 216.621 H 58.333 V 228.655 H 46.667 V 216.621 Z" style="fill: #324fff;"/><path d="M 46.667 228.655 H 58.333 V 240.69 H 46.667 V 228.655 Z" style="fill: #283198;"/><path d="M 46.667 240.69 H 58.333 V 252.724 H 46.667 V 240.69 Z" style="fill: #283198;"/><path d="M 46.667 252.724 H 58.333 V 264.759 H 46.667 V 252.724 Z" style="fill: #283198;"/><path d="M 46.667 264.759 H 58.333 V 276.793 H 46.667 V 264.759 Z" style="fill: #283198;"/><path d="M 46.667 276.793 H 58.333 V 288.828 H 46.667 V 276.793 Z" style="fill: #283198;"/><path d="M 46.667 288.828 H 58.333 V 300.862 H 46.667 V 288.828 Z" style="fill: #283198;"/><path d="M 46.667 300.862 H 58.333 V 312.897 H 46.667 V 300.862 Z" style="fill: #283198;"/><path d="M 46.667 312.897 H 58.333 V 324.931 H 46.667 V 312.897 Z" style="fill: #283198;"/><path d="M 46.667 324.931 H 58.333 V 336.966 H 46.667 V 324.931 Z" style="fill: rgba(41,48,152,0.7);"/><path d="M 58.333 204.586 H 70 V 216.621 H 58.333 V 204.586 Z" style="fill: #324fff;"/><path d="M 58.333 216.621 H 70 V 228.655 H 58.333 V 216.621 Z" style="fill: #283198;"/><path d="M 58.333 228.655 H 70 V 240.69 H 58.333 V 228.655 Z" style="fill: #283198;"/><path d="M 58.333 240.69 H 70 V 252.724 H 58.333 V 240.69 Z" style="fill: #283198;"/><path d="M 58.333 252.724 H 70 V 264.759 H 58.333 V 252.724 Z" style="fill: #283198;"/><path d="M 58.333 264.759 H 70 V 276.793 H 58.333 V 264.759 Z" style="fill: #283198;"/><path d="M 58.333 276.793 H 70 V 288.828 H 58.333 V 276.793 Z" style="fill: #283198;"/><path d="M 58.333 288.828 H 70 V 300.862 H 58.333 V 288.828 Z" style="fill: #283198;"/><path d="M 58.333 300.862 H 70 V 312.897 H 58.333 V 300.862 Z" style="fill: #283198;"/><path d="M 58.333 312.897 H 70 V 324.931 H 58.333 V 312.897 Z" style="fill: #283198;"/><path d="M 58.333 324.931 H 70 V 336.966 H 58.333 V 324.931 Z" style="fill: #283198;"/><path d="M 58.333 336.966 H 70 V 349 H 58.333 V 336.966 Z" style="fill: rgba(85,85,170,0.02);"/><path d="M 70 60.172 H 81.667 V 72.207 H 70 V 60.172 Z" style="fill: #324fff;"/><path d="M 70 72.207 H 81.667 V 84.241 H 70 V 72.207 Z" style="fill: #324fff;"/><path d="M 70 84.241 H 81.667 V 96.276 H 70 V 84.241 Z" style="fill: #324fff;"/><path d="M 70 96.276 H 81.667 V 108.31 H 70 V 96.276 Z" style="fill: #324fff;"/><path d="M 70 108.31 H 81.667 V 120.345 H 70 V 108.31 Z" style="fill: #324fff;"/><path d="M 70 120.345 H 81.667 V 132.379 H 70 V 120.345 Z" style="fill: #324fff;"/><path d="M 70 132.379 H 81.667 V 144.414 H 70 V 132.379 Z" style="fill: #324fff;"/><path d="M 70 144.414 H 81.667 V 156.448 H 70 V 144.414 Z" style="fill: #324fff;"/><path d="M 70 156.448 H 81.667 V 168.483 H 70 V 156.448 Z" style="fill: #324fff;"/><path d="M 70 168.483 H 81.667 V 180.517 H 70 V 168.483 Z" style="fill: #324fff;"/><path d="M 70 180.517 H 81.667 V 192.552 H 70 V 180.517 Z" style="fill: #324fff;"/><path d="M 70 192.552 H 81.667 V 204.586 H 70 V 192.552 Z" style="fill: #324fff;"/><path d="M 70 204.586 H 81.667 V 216.621 H 70 V 204.586 Z" style="fill: #00e8ff;"/><path d="M 70 216.621 H 81.667 V 228.655 H 70 V 216.621 Z" style="fill: #00ffff;"/><path d="M 70 228.655 H 81.667 V 240.69 H 70 V 228.655 Z" style="fill: #00ffff;"/><path d="M 70 240.69 H 81.667 V 252.724 H 70 V 240.69 Z" style="fill: #00ffff;"/><path d="M 70 252.724 H 81.667 V 264.759 H 70 V 252.724 Z" style="fill: #00ffff;"/><path d="M 70 264.759 H 81.667 V 276.793 H 70 V 264.759 Z" style="fill: #00ffff;"/><path d="M 70 276.793 H 81.667 V 288.828 H 70 V 276.793 Z" style="fill: #00ffff;"/><path d="M 70 288.828 H 81.667 V 300.862 H 70 V 288.828 Z" style="fill: #00ffff;"/><path d="M 70 300.862 H 81.667 V 312.897 H 70 V 300.862 Z" style="fill: #00ffff;"/><path d="M 70 312.897 H 81.667 V 324.931 H 70 V 312.897 Z" style="fill: #00ffff;"/><path d="M 70 324.931 H 81.667 V 336.966 H 70 V 324.931 Z" style="fill: #00ffff;"/><path d="M 70 336.966 H 81.667 V 349 H 70 V 336.966 Z" style="fill: rgba(0,254,254,0.1);"/><path d="M 81.667 48.138 H 93.333 V 60.172 H 81.667 V 48.138 Z" style="fill: #324fff;"/><path d="M 81.667 60.172 H 93.333 V 72.207 H 81.667 V 60.172 Z" style="fill: #324fff;"/><path d="M 81.667 72.207 H 93.333 V 84.241 H 81.667 V 72.207 Z" style="fill: #324fff;"/><path d="M 81.667 84.241 H 93.333 V 96.276 H 81.667 V 84.241 Z" style="fill: #324fff;"/><path d="M 81.667 96.276 H 93.333 V 108.31 H 81.667 V 96.276 Z" style="fill: #324fff;"/><path d="M 81.667 108.31 H 93.333 V 120.345 H 81.667 V 108.31 Z" style="fill: #324fff;"/><path d="M 81.667 120.345 H 93.333 V 132.379 H 81.667 V 120.345 Z" style="fill: #324fff;"/><path d="M 81.667 132.379 H 93.333 V 144.414 H 81.667 V 132.379 Z" style="fill: #324fff;"/><path d="M 81.667 144.414 H 93.333 V 156.448 H 81.667 V 144.414 Z" style="fill: #324fff;"/><path d="M 81.667 156.448 H 93.333 V 168.483 H 81.667 V 156.448 Z" style="fill: #324fff;"/><path d="M 81.667 168.483 H 93.333 V 180.517 H 81.667 V 168.483 Z" style="fill: #324fff;"/><path d="M 81.667 180.517 H 93.333 V 192.552 H 81.667 V 180.517 Z" style="fill: #324fff;"/><path d="M 81.667 192.552 H 93.333 V 204.586 H 81.667 V 192.552 Z" style="fill: #00e8ff;"/><path d="M 81.667 204.586 H 93.333 V 216.621 H 81.667 V 204.586 Z" style="fill: #00e8ff;"/><path d="M 81.667 216.621 H 93.333 V 228.655 H 81.667 V 216.621 Z" style="fill: #00e8ff;"/><path d="M 81.667 228.655 H 93.333 V 240.69 H 81.667 V 228.655 Z" style="fill: #00ffff;"/><path d="M 81.667 240.69 H 93.333 V 252.724 H 81.667 V 240.69 Z" style="fill: #00ffff;"/><path d="M 81.667 252.724 H 93.333 V 264.759 H 81.667 V 252.724 Z" style="fill: #00ffff;"/><path d="M 81.667 264.759 H 93.333 V 276.793 H 81.667 V 264.759 Z" style="fill: #00ffff;"/><path d="M 81.667 276.793 H 93.333 V 288.828 H 81.667 V 276.793 Z" style="fill: #00ffff;"/><path d="M 81.667 288.828 H 93.333 V 300.862 H 81.667 V 288.828 Z" style="fill: #00ffff;"/><path d="M 81.667 300.862 H 93.333 V 312.897 H 81.667 V 300.862 Z" style="fill: #00ffff;"/><path d="M 81.667 312.897 H 93.333 V 324.931 H 81.667 V 312.897 Z" style="fill: #00ffff;"/><path d="M 81.667 324.931 H 93.333 V 336.966 H 81.667 V 324.931 Z" style="fill: rgba(0,254,254,0.84);"/><path d="M 93.333 36.103 H 105 V 48.138 H 93.333 V 36.103 Z" style="fill: #324fff;"/><path d="M 93.333 48.138 H 105 V 60.172 H 93.333 V 48.138 Z" style="fill: #324fff;"/><path d="M 93.333 60.172 H 105 V 72.207 H 93.333 V 60.172 Z" style="fill: #324fff;"/><path d="M 93.333 72.207 H 105 V 84.241 H 93.333 V 72.207 Z" style="fill: #324fff;"/><path d="M 93.333 84.241 H 105 V 96.276 H 93.333 V 84.241 Z" style="fill: #324fff;"/><path d="M 93.333 96.276 H 105 V 108.31 H 93.333 V 96.276 Z" style="fill: #324fff;"/><path d="M 93.333 108.31 H 105 V 120.345 H 93.333 V 108.31 Z" style="fill: #324fff;"/><path d="M 93.333 120.345 H 105 V 132.379 H 93.333 V 120.345 Z" style="fill: #324fff;"/><path d="M 93.333 132.379 H 105 V 144.414 H 93.333 V 132.379 Z" style="fill: #324fff;"/><path d="M 93.333 144.414 H 105 V 156.448 H 93.333 V 144.414 Z" style="fill: #324fff;"/><path d="M 93.333 156.448 H 105 V 168.483 H 93.333 V 156.448 Z" style="fill: #324fff;"/><path d="M 93.333 168.483 H 105 V 180.517 H 93.333 V 168.483 Z" style="fill: #324fff;"/><path d="M 93.333 180.517 H 105 V 192.552 H 93.333 V 180.517 Z" style="fill: #00e8ff;"/><path d="M 93.333 192.552 H 105 V 204.586 H 93.333 V 192.552 Z" style="fill: #00e8ff;"/><path d="M 93.333 204.586 H 105 V 216.621 H 93.333 V 204.586 Z" style="fill: #02e8ff;"/><path d="M 93.333 216.621 H 105 V 228.655 H 93.333 V 216.621 Z" style="fill: #00e8ff;"/><path d="M 93.333 228.655 H 105 V 240.69 H 93.333 V 228.655 Z" style="fill: #00e8ff;"/><path d="M 93.333 240.69 H 105 V 252.724 H 93.333 V 240.69 Z" style="fill: #00ffff;"/><path d="M 93.333 252.724 H 105 V 264.759 H 93.333 V 252.724 Z" style="fill: #00ffff;"/><path d="M 93.333 264.759 H 105 V 276.793 H 93.333 V 264.759 Z" style="fill: #00ffff;"/><path d="M 93.333 276.793 H 105 V 288.828 H 93.333 V 276.793 Z" style="fill: #00ffff;"/><path d="M 93.333 288.828 H 105 V 300.862 H 93.333 V 288.828 Z" style="fill: #00ffff;"/><path d="M 93.333 300.862 H 105 V 312.897 H 93.333 V 300.862 Z" style="fill: #00ffff;"/><path d="M 93.333 312.897 H 105 V 324.931 H 93.333 V 312.897 Z" style="fill: rgba(0,254,254,0.84);"/><path d="M 105 24.069 H 116.667 V 36.103 H 105 V 24.069 Z" style="fill: #324fff;"/><path d="M 105 36.103 H 116.667 V 48.138 H 105 V 36.103 Z" style="fill: #324fff;"/><path d="M 105 48.138 H 116.667 V 60.172 H 105 V 48.138 Z" style="fill: #324fff;"/><path d="M 105 60.172 H 116.667 V 72.207 H 105 V 60.172 Z" style="fill: #324fff;"/><path d="M 105 72.207 H 116.667 V 84.241 H 105 V 72.207 Z" style="fill: #324fff;"/><path d="M 105 84.241 H 116.667 V 96.276 H 105 V 84.241 Z" style="fill: #324fff;"/><path d="M 105 96.276 H 116.667 V 108.31 H 105 V 96.276 Z" style="fill: #324fff;"/><path d="M 105 108.31 H 116.667 V 120.345 H 105 V 108.31 Z" style="fill: #324fff;"/><path d="M 105 120.345 H 116.667 V 132.379 H 105 V 120.345 Z" style="fill: #324fff;"/><path d="M 105 132.379 H 116.667 V 144.414 H 105 V 132.379 Z" style="fill: #324fff;"/><path d="M 105 144.414 H 116.667 V 156.448 H 105 V 144.414 Z" style="fill: #324fff;"/><path d="M 105 156.448 H 116.667 V 168.483 H 105 V 156.448 Z" style="fill: #324fff;"/><path d="M 105 168.483 H 116.667 V 180.517 H 105 V 168.483 Z" style="fill: #00e8ff;"/><path d="M 105 180.517 H 116.667 V 192.552 H 105 V 180.517 Z" style="fill: #00e8ff;"/><path d="M 105 192.552 H 116.667 V 204.586 H 105 V 192.552 Z" style="fill: #00e8ff;"/><path d="M 105 204.586 H 116.667 V 216.621 H 105 V 204.586 Z" style="fill: #00e8ff;"/><path d="M 105 216.621 H 116.667 V 228.655 H 105 V 216.621 Z" style="fill: #00e8ff;"/><path d="M 105 228.655 H 116.667 V 240.69 H 105 V 228.655 Z" style="fill: #00e8ff;"/><path d="M 105 240.69 H 116.667 V 252.724 H 105 V 240.69 Z" style="fill: #00e8ff;"/><path d="M 105 252.724 H 116.667 V 264.759 H 105 V 252.724 Z" style="fill: #00ffff;"/><path d="M 105 264.759 H 116.667 V 276.793 H 105 V 264.759 Z" style="fill: #00ffff;"/><path d="M 105 276.793 H 116.667 V 288.828 H 105 V 276.793 Z" style="fill: #00ffff;"/><path d="M 105 288.828 H 116.667 V 300.862 H 105 V 288.828 Z" style="fill: #00ffff;"/><path d="M 105 300.862 H 116.667 V 312.897 H 105 V 300.862 Z" style="fill: rgba(0,254,254,0.84);"/><path d="M 116.667 12.034 H 128.333 V 24.069 H 116.667 V 12.034 Z" style="fill: rgba(50,81,254,0.84);"/><path d="M 116.667 24.069 H 128.333 V 36.103 H 116.667 V 24.069 Z" style="fill: #324fff;"/><path d="M 116.667 36.103 H 128.333 V 48.138 H 116.667 V 36.103 Z" style="fill: #324fff;"/><path d="M 116.667 48.138 H 128.333 V 60.172 H 116.667 V 48.138 Z" style="fill: #324fff;"/><path d="M 116.667 60.172 H 128.333 V 72.207 H 116.667 V 60.172 Z" style="fill: #324fff;"/><path d="M 116.667 72.207 H 128.333 V 84.241 H 116.667 V 72.207 Z" style="fill: #324fff;"/><path d="M 116.667 84.241 H 128.333 V 96.276 H 116.667 V 84.241 Z" style="fill: #324fff;"/><path d="M 116.667 96.276 H 128.333 V 108.31 H 116.667 V 96.276 Z" style="fill: #324fff;"/><path d="M 116.667 108.31 H 128.333 V 120.345 H 116.667 V 108.31 Z" style="fill: #324fff;"/><path d="M 116.667 120.345 H 128.333 V 132.379 H 116.667 V 120.345 Z" style="fill: #324fff;"/><path d="M 116.667 132.379 H 128.333 V 144.414 H 116.667 V 132.379 Z" style="fill: #324fff;"/><path d="M 116.667 144.414 H 128.333 V 156.448 H 116.667 V 144.414 Z" style="fill: #324fff;"/><path d="M 116.667 156.448 H 128.333 V 168.483 H 116.667 V 156.448 Z" style="fill: #00e8ff;"/><path d="M 116.667 168.483 H 128.333 V 180.517 H 116.667 V 168.483 Z" style="fill: #00e8ff;"/><path d="M 116.667 180.517 H 128.333 V 192.552 H 116.667 V 180.517 Z" style="fill: #00e8ff;"/><path d="M 116.667 192.552 H 128.333 V 204.586 H 116.667 V 192.552 Z" style="fill: #00e8ff;"/><path d="M 116.667 204.586 H 128.333 V 216.621 H 116.667 V 204.586 Z" style="fill: #00e8ff;"/><path d="M 116.667 216.621 H 128.333 V 228.655 H 116.667 V 216.621 Z" style="fill: #00e8ff;"/><path d="M 116.667 228.655 H 128.333 V 240.69 H 116.667 V 228.655 Z" style="fill: #00e8ff;"/><path d="M 116.667 240.69 H 128.333 V 252.724 H 116.667 V 240.69 Z" style="fill: #00e8ff;"/><path d="M 116.667 252.724 H 128.333 V 264.759 H 116.667 V 252.724 Z" style="fill: #00e8ff;"/><path d="M 116.667 264.759 H 128.333 V 276.793 H 116.667 V 264.759 Z" style="fill: #00ffff;"/><path d="M 116.667 276.793 H 128.333 V 288.828 H 116.667 V 276.793 Z" style="fill: #00ffff;"/><path d="M 116.667 288.828 H 128.333 V 300.862 H 116.667 V 288.828 Z" style="fill: #00ffff;"/><path d="M 128.333 0 H 140 V 12.034 H 128.333 V 0 Z" style="fill: rgba(50,81,254,0.84);"/><path d="M 128.333 12.034 H 140 V 24.069 H 128.333 V 12.034 Z" style="fill: #324fff;"/><path d="M 128.333 24.069 H 140 V 36.103 H 128.333 V 24.069 Z" style="fill: #324fff;"/><path d="M 128.333 36.103 H 140 V 48.138 H 128.333 V 36.103 Z" style="fill: #324fff;"/><path d="M 128.333 48.138 H 140 V 60.172 H 128.333 V 48.138 Z" style="fill: #324fff;"/><path d="M 128.333 60.172 H 140 V 72.207 H 128.333 V 60.172 Z" style="fill: #324fff;"/><path d="M 128.333 72.207 H 140 V 84.241 H 128.333 V 72.207 Z" style="fill: #324fff;"/><path d="M 128.333 84.241 H 140 V 96.276 H 128.333 V 84.241 Z" style="fill: #324fff;"/><path d="M 128.333 96.276 H 140 V 108.31 H 128.333 V 96.276 Z" style="fill: #324fff;"/><path d="M 128.333 108.31 H 140 V 120.345 H 128.333 V 108.31 Z" style="fill: #324fff;"/><path d="M 128.333 120.345 H 140 V 132.379 H 128.333 V 120.345 Z" style="fill: #324fff;"/><path d="M 128.333 132.379 H 140 V 144.414 H 128.333 V 132.379 Z" style="fill: #324fff;"/><path d="M 128.333 144.414 H 140 V 156.448 H 128.333 V 144.414 Z" style="fill: #00e8ff;"/><path d="M 128.333 156.448 H 140 V 168.483 H 128.333 V 156.448 Z" style="fill: #00e8ff;"/><path d="M 128.333 168.483 H 140 V 180.517 H 128.333 V 168.483 Z" style="fill: #00e8ff;"/><path d="M 128.333 180.517 H 140 V 192.552 H 128.333 V 180.517 Z" style="fill: #00e8ff;"/><path d="M 128.333 192.552 H 140 V 204.586 H 128.333 V 192.552 Z" style="fill: #00e8ff;"/><path d="M 128.333 204.586 H 140 V 216.621 H 128.333 V 204.586 Z" style="fill: #00e8ff;"/><path d="M 128.333 216.621 H 140 V 228.655 H 128.333 V 216.621 Z" style="fill: #00e8ff;"/><path d="M 128.333 228.655 H 140 V 240.69 H 128.333 V 228.655 Z" style="fill: #00e8ff;"/><path d="M 128.333 240.69 H 140 V 252.724 H 128.333 V 240.69 Z" style="fill: #00e8ff;"/><path d="M 128.333 252.724 H 140 V 264.759 H 128.333 V 252.724 Z" style="fill: #00e8ff;"/><path d="M 128.333 264.759 H 140 V 276.793 H 128.333 V 264.759 Z" style="fill: #00e8ff;"/><path d="M 128.333 276.793 H 140 V 288.828 H 128.333 V 276.793 Z" style="fill: #00ffff;"/><path d="M 140 132.379 H 151.667 V 144.414 H 140 V 132.379 Z" style="fill: #283198;"/><path d="M 140 144.414 H 151.667 V 156.448 H 140 V 144.414 Z" style="fill: #283198;"/><path d="M 140 156.448 H 151.667 V 168.483 H 140 V 156.448 Z" style="fill: #283198;"/><path d="M 140 168.483 H 151.667 V 180.517 H 140 V 168.483 Z" style="fill: #283198;"/><path d="M 140 180.517 H 151.667 V 192.552 H 140 V 180.517 Z" style="fill: #283198;"/><path d="M 140 192.552 H 151.667 V 204.586 H 140 V 192.552 Z" style="fill: #283198;"/><path d="M 140 204.586 H 151.667 V 216.621 H 140 V 204.586 Z" style="fill: #283198;"/><path d="M 140 216.621 H 151.667 V 228.655 H 140 V 216.621 Z" style="fill: #283198;"/><path d="M 140 228.655 H 151.667 V 240.69 H 140 V 228.655 Z" style="fill: #283198;"/><path d="M 140 240.69 H 151.667 V 252.724 H 140 V 240.69 Z" style="fill: #283198;"/><path d="M 140 252.724 H 151.667 V 264.759 H 140 V 252.724 Z" style="fill: #283198;"/><path d="M 140 264.759 H 151.667 V 276.793 H 140 V 264.759 Z" style="fill: #283198;"/><path d="M 140 276.793 H 151.667 V 288.828 H 140 V 276.793 Z" style="fill: #00e8ff;"/><path d="M 151.667 120.345 H 163.333 V 132.379 H 151.667 V 120.345 Z" style="fill: #283198;"/><path d="M 151.667 132.379 H 163.333 V 144.414 H 151.667 V 132.379 Z" style="fill: #283198;"/><path d="M 151.667 144.414 H 163.333 V 156.448 H 151.667 V 144.414 Z" style="fill: #283198;"/><path d="M 151.667 156.448 H 163.333 V 168.483 H 151.667 V 156.448 Z" style="fill: #283198;"/><path d="M 151.667 168.483 H 163.333 V 180.517 H 151.667 V 168.483 Z" style="fill: #283198;"/><path d="M 151.667 180.517 H 163.333 V 192.552 H 151.667 V 180.517 Z" style="fill: #283198;"/><path d="M 151.667 192.552 H 163.333 V 204.586 H 151.667 V 192.552 Z" style="fill: #283198;"/><path d="M 151.667 204.586 H 163.333 V 216.621 H 151.667 V 204.586 Z" style="fill: #283198;"/><path d="M 151.667 216.621 H 163.333 V 228.655 H 151.667 V 216.621 Z" style="fill: #283198;"/><path d="M 151.667 228.655 H 163.333 V 240.69 H 151.667 V 228.655 Z" style="fill: #283198;"/><path d="M 151.667 240.69 H 163.333 V 252.724 H 151.667 V 240.69 Z" style="fill: #283198;"/><path d="M 151.667 252.724 H 163.333 V 264.759 H 151.667 V 252.724 Z" style="fill: #283198;"/><path d="M 151.667 264.759 H 163.333 V 276.793 H 151.667 V 264.759 Z" style="fill: #00e8ff;"/><path d="M 151.667 276.793 H 163.333 V 288.828 H 151.667 V 276.793 Z" style="fill: #00e8ff;"/><path d="M 151.667 288.828 H 163.333 V 300.862 H 151.667 V 288.828 Z" style="fill: #00e8ff;"/><path d="M 163.333 108.31 H 175 V 120.345 H 163.333 V 108.31 Z" style="fill: #283198;"/><path d="M 163.333 120.345 H 175 V 132.379 H 163.333 V 120.345 Z" style="fill: #283198;"/><path d="M 163.333 132.379 H 175 V 144.414 H 163.333 V 132.379 Z" style="fill: #283198;"/><path d="M 163.333 144.414 H 175 V 156.448 H 163.333 V 144.414 Z" style="fill: #283198;"/><path d="M 163.333 156.448 H 175 V 168.483 H 163.333 V 156.448 Z" style="fill: #283198;"/><path d="M 163.333 168.483 H 175 V 180.517 H 163.333 V 168.483 Z" style="fill: #283198;"/><path d="M 163.333 180.517 H 175 V 192.552 H 163.333 V 180.517 Z" style="fill: #283198;"/><path d="M 163.333 192.552 H 175 V 204.586 H 163.333 V 192.552 Z" style="fill: #283198;"/><path d="M 163.333 204.586 H 175 V 216.621 H 163.333 V 204.586 Z" style="fill: #283198;"/><path d="M 163.333 216.621 H 175 V 228.655 H 163.333 V 216.621 Z" style="fill: #283198;"/><path d="M 163.333 228.655 H 175 V 240.69 H 163.333 V 228.655 Z" style="fill: #283198;"/><path d="M 163.333 240.69 H 175 V 252.724 H 163.333 V 240.69 Z" style="fill: #283198;"/><path d="M 163.333 252.724 H 175 V 264.759 H 163.333 V 252.724 Z" style="fill: #00e8ff;"/><path d="M 163.333 264.759 H 175 V 276.793 H 163.333 V 264.759 Z" style="fill: #00e8ff;"/><path d="M 163.333 276.793 H 175 V 288.828 H 163.333 V 276.793 Z" style="fill: #00e8ff;"/><path d="M 163.333 288.828 H 175 V 300.862 H 163.333 V 288.828 Z" style="fill: #00e8ff;"/><path d="M 163.333 300.862 H 175 V 312.897 H 163.333 V 300.862 Z" style="fill: rgba(0,234,255,0.98);"/><path d="M 175 96.276 H 186.667 V 108.31 H 175 V 96.276 Z" style="fill: #283198;"/><path d="M 175 108.31 H 186.667 V 120.345 H 175 V 108.31 Z" style="fill: #283198;"/><path d="M 175 120.345 H 186.667 V 132.379 H 175 V 120.345 Z" style="fill: #283198;"/><path d="M 175 132.379 H 186.667 V 144.414 H 175 V 132.379 Z" style="fill: #283198;"/><path d="M 175 144.414 H 186.667 V 156.448 H 175 V 144.414 Z" style="fill: #283198;"/><path d="M 175 156.448 H 186.667 V 168.483 H 175 V 156.448 Z" style="fill: #283198;"/><path d="M 175 168.483 H 186.667 V 180.517 H 175 V 168.483 Z" style="fill: #283198;"/><path d="M 175 180.517 H 186.667 V 192.552 H 175 V 180.517 Z" style="fill: #283198;"/><path d="M 175 192.552 H 186.667 V 204.586 H 175 V 192.552 Z" style="fill: #283198;"/><path d="M 175 204.586 H 186.667 V 216.621 H 175 V 204.586 Z" style="fill: #283198;"/><path d="M 175 216.621 H 186.667 V 228.655 H 175 V 216.621 Z" style="fill: #283198;"/><path d="M 175 228.655 H 186.667 V 240.69 H 175 V 228.655 Z" style="fill: #283198;"/><path d="M 175 240.69 H 186.667 V 252.724 H 175 V 240.69 Z" style="fill: #00e8ff;"/><path d="M 175 252.724 H 186.667 V 264.759 H 175 V 252.724 Z" style="fill: #00e8ff;"/><path d="M 175 264.759 H 186.667 V 276.793 H 175 V 264.759 Z" style="fill: #00e8ff;"/><path d="M 175 276.793 H 186.667 V 288.828 H 175 V 276.793 Z" style="fill: #00e8ff;"/><path d="M 175 288.828 H 186.667 V 300.862 H 175 V 288.828 Z" style="fill: #00e8ff;"/><path d="M 175 300.862 H 186.667 V 312.897 H 175 V 300.862 Z" style="fill: #00e8ff;"/><path d="M 175 312.897 H 186.667 V 324.931 H 175 V 312.897 Z" style="fill: rgba(0,234,255,0.98);"/><path d="M 186.667 84.241 H 198.333 V 96.276 H 186.667 V 84.241 Z" style="fill: #283198;"/><path d="M 186.667 96.276 H 198.333 V 108.31 H 186.667 V 96.276 Z" style="fill: #283198;"/><path d="M 186.667 108.31 H 198.333 V 120.345 H 186.667 V 108.31 Z" style="fill: #283198;"/><path d="M 186.667 120.345 H 198.333 V 132.379 H 186.667 V 120.345 Z" style="fill: #283198;"/><path d="M 186.667 132.379 H 198.333 V 144.414 H 186.667 V 132.379 Z" style="fill: #283198;"/><path d="M 186.667 144.414 H 198.333 V 156.448 H 186.667 V 144.414 Z" style="fill: #283198;"/><path d="M 186.667 156.448 H 198.333 V 168.483 H 186.667 V 156.448 Z" style="fill: #283198;"/><path d="M 186.667 168.483 H 198.333 V 180.517 H 186.667 V 168.483 Z" style="fill: #283198;"/><path d="M 186.667 180.517 H 198.333 V 192.552 H 186.667 V 180.517 Z" style="fill: #283198;"/><path d="M 186.667 192.552 H 198.333 V 204.586 H 186.667 V 192.552 Z" style="fill: #283198;"/><path d="M 186.667 204.586 H 198.333 V 216.621 H 186.667 V 204.586 Z" style="fill: #283198;"/><path d="M 186.667 216.621 H 198.333 V 228.655 H 186.667 V 216.621 Z" style="fill: #283198;"/><path d="M 186.667 228.655 H 198.333 V 240.69 H 186.667 V 228.655 Z" style="fill: #00e8ff;"/><path d="M 186.667 240.69 H 198.333 V 252.724 H 186.667 V 240.69 Z" style="fill: #00e8ff;"/><path d="M 186.667 252.724 H 198.333 V 264.759 H 186.667 V 252.724 Z" style="fill: #00e8ff;"/><path d="M 186.667 264.759 H 198.333 V 276.793 H 186.667 V 264.759 Z" style="fill: #00e8ff;"/><path d="M 186.667 276.793 H 198.333 V 288.828 H 186.667 V 276.793 Z" style="fill: #00e8ff;"/><path d="M 186.667 288.828 H 198.333 V 300.862 H 186.667 V 288.828 Z" style="fill: #00e8ff;"/><path d="M 186.667 300.862 H 198.333 V 312.897 H 186.667 V 300.862 Z" style="fill: #00e8ff;"/><path d="M 186.667 312.897 H 198.333 V 324.931 H 186.667 V 312.897 Z" style="fill: #00e8ff;"/><path d="M 186.667 324.931 H 198.333 V 336.966 H 186.667 V 324.931 Z" style="fill: rgba(0,234,255,0.98);"/><path d="M 198.333 72.207 H 210 V 84.241 H 198.333 V 72.207 Z" style="fill: #283198;"/><path d="M 198.333 84.241 H 210 V 96.276 H 198.333 V 84.241 Z" style="fill: #283198;"/><path d="M 198.333 96.276 H 210 V 108.31 H 198.333 V 96.276 Z" style="fill: #283198;"/><path d="M 198.333 108.31 H 210 V 120.345 H 198.333 V 108.31 Z" style="fill: #283198;"/><path d="M 198.333 120.345 H 210 V 132.379 H 198.333 V 120.345 Z" style="fill: #283198;"/><path d="M 198.333 132.379 H 210 V 144.414 H 198.333 V 132.379 Z" style="fill: #283198;"/><path d="M 198.333 144.414 H 210 V 156.448 H 198.333 V 144.414 Z" style="fill: #283198;"/><path d="M 198.333 156.448 H 210 V 168.483 H 198.333 V 156.448 Z" style="fill: #283198;"/><path d="M 198.333 168.483 H 210 V 180.517 H 198.333 V 168.483 Z" style="fill: #283198;"/><path d="M 198.333 180.517 H 210 V 192.552 H 198.333 V 180.517 Z" style="fill: #283198;"/><path d="M 198.333 192.552 H 210 V 204.586 H 198.333 V 192.552 Z" style="fill: #283198;"/><path d="M 198.333 204.586 H 210 V 216.621 H 198.333 V 204.586 Z" style="fill: #283198;"/><path d="M 198.333 216.621 H 210 V 228.655 H 198.333 V 216.621 Z" style="fill: #00e8ff;"/><path d="M 198.333 228.655 H 210 V 240.69 H 198.333 V 228.655 Z" style="fill: #00e8ff;"/><path d="M 198.333 240.69 H 210 V 252.724 H 198.333 V 240.69 Z" style="fill: #00e8ff;"/><path d="M 198.333 252.724 H 210 V 264.759 H 198.333 V 252.724 Z" style="fill: #00e8ff;"/><path d="M 198.333 264.759 H 210 V 276.793 H 198.333 V 264.759 Z" style="fill: #00e8ff;"/><path d="M 198.333 276.793 H 210 V 288.828 H 198.333 V 276.793 Z" style="fill: #00e8ff;"/><path d="M 198.333 288.828 H 210 V 300.862 H 198.333 V 288.828 Z" style="fill: #00e8ff;"/><path d="M 198.333 300.862 H 210 V 312.897 H 198.333 V 300.862 Z" style="fill: #00e8ff;"/><path d="M 198.333 312.897 H 210 V 324.931 H 198.333 V 312.897 Z" style="fill: #00e8ff;"/><path d="M 198.333 324.931 H 210 V 336.966 H 198.333 V 324.931 Z" style="fill: #00e8ff;"/><path d="M 198.333 336.966 H 210 V 349 H 198.333 V 336.966 Z" style="fill: rgba(0,233,254,0.32);"/><path d="M 210 204.586 H 221.667 V 216.621 H 210 V 204.586 Z" style="fill: #324fff;"/><path d="M 210 216.621 H 221.667 V 228.655 H 210 V 216.621 Z" style="fill: #324fff;"/><path d="M 210 228.655 H 221.667 V 240.69 H 210 V 228.655 Z" style="fill: #324fff;"/><path d="M 210 240.69 H 221.667 V 252.724 H 210 V 240.69 Z" style="fill: #324fff;"/><path d="M 210 252.724 H 221.667 V 264.759 H 210 V 252.724 Z" style="fill: #324fff;"/><path d="M 210 264.759 H 221.667 V 276.793 H 210 V 264.759 Z" style="fill: #324fff;"/><path d="M 210 276.793 H 221.667 V 288.828 H 210 V 276.793 Z" style="fill: #324fff;"/><path d="M 210 288.828 H 221.667 V 300.862 H 210 V 288.828 Z" style="fill: #324fff;"/><path d="M 210 300.862 H 221.667 V 312.897 H 210 V 300.862 Z" style="fill: #324fff;"/><path d="M 210 312.897 H 221.667 V 324.931 H 210 V 312.897 Z" style="fill: #324fff;"/><path d="M 210 324.931 H 221.667 V 336.966 H 210 V 324.931 Z" style="fill: #324fff;"/><path d="M 221.667 192.552 H 233.333 V 204.586 H 221.667 V 192.552 Z" style="fill: #324fff;"/><path d="M 221.667 204.586 H 233.333 V 216.621 H 221.667 V 204.586 Z" style="fill: #324fff;"/><path d="M 221.667 216.621 H 233.333 V 228.655 H 221.667 V 216.621 Z" style="fill: #324fff;"/><path d="M 221.667 228.655 H 233.333 V 240.69 H 221.667 V 228.655 Z" style="fill: #324fff;"/><path d="M 221.667 240.69 H 233.333 V 252.724 H 221.667 V 240.69 Z" style="fill: #324fff;"/><path d="M 221.667 252.724 H 233.333 V 264.759 H 221.667 V 252.724 Z" style="fill: #324fff;"/><path d="M 221.667 264.759 H 233.333 V 276.793 H 221.667 V 264.759 Z" style="fill: #324fff;"/><path d="M 221.667 276.793 H 233.333 V 288.828 H 221.667 V 276.793 Z" style="fill: #324fff;"/><path d="M 221.667 288.828 H 233.333 V 300.862 H 221.667 V 288.828 Z" style="fill: #324fff;"/><path d="M 221.667 300.862 H 233.333 V 312.897 H 221.667 V 300.862 Z" style="fill: #324fff;"/><path d="M 221.667 312.897 H 233.333 V 324.931 H 221.667 V 312.897 Z" style="fill: #324fff;"/><path d="M 233.333 180.517 H 245 V 192.552 H 233.333 V 180.517 Z" style="fill: #324fff;"/><path d="M 233.333 192.552 H 245 V 204.586 H 233.333 V 192.552 Z" style="fill: #324fff;"/><path d="M 233.333 204.586 H 245 V 216.621 H 233.333 V 204.586 Z" style="fill: #324fff;"/><path d="M 233.333 216.621 H 245 V 228.655 H 233.333 V 216.621 Z" style="fill: #324fff;"/><path d="M 233.333 228.655 H 245 V 240.69 H 233.333 V 228.655 Z" style="fill: #324fff;"/><path d="M 233.333 240.69 H 245 V 252.724 H 233.333 V 240.69 Z" style="fill: #324fff;"/><path d="M 233.333 252.724 H 245 V 264.759 H 233.333 V 252.724 Z" style="fill: #324fff;"/><path d="M 233.333 264.759 H 245 V 276.793 H 233.333 V 264.759 Z" style="fill: #324fff;"/><path d="M 233.333 276.793 H 245 V 288.828 H 233.333 V 276.793 Z" style="fill: #324fff;"/><path d="M 233.333 288.828 H 245 V 300.862 H 233.333 V 288.828 Z" style="fill: #324fff;"/><path d="M 233.333 300.862 H 245 V 312.897 H 233.333 V 300.862 Z" style="fill: #324fff;"/><path d="M 233.333 312.897 H 245 V 324.931 H 233.333 V 312.897 Z" style="fill: rgba(50,83,254,0.37);"/><path d="M 245 168.483 H 256.667 V 180.517 H 245 V 168.483 Z" style="fill: #324fff;"/><path d="M 245 180.517 H 256.667 V 192.552 H 245 V 180.517 Z" style="fill: #324fff;"/><path d="M 245 192.552 H 256.667 V 204.586 H 245 V 192.552 Z" style="fill: #324fff;"/><path d="M 245 204.586 H 256.667 V 216.621 H 245 V 204.586 Z" style="fill: #324fff;"/><path d="M 245 216.621 H 256.667 V 228.655 H 245 V 216.621 Z" style="fill: #324fff;"/><path d="M 245 228.655 H 256.667 V 240.69 H 245 V 228.655 Z" style="fill: #324fff;"/><path d="M 245 240.69 H 256.667 V 252.724 H 245 V 240.69 Z" style="fill: #324fff;"/><path d="M 245 252.724 H 256.667 V 264.759 H 245 V 252.724 Z" style="fill: #324fff;"/><path d="M 245 264.759 H 256.667 V 276.793 H 245 V 264.759 Z" style="fill: #324fff;"/><path d="M 245 276.793 H 256.667 V 288.828 H 245 V 276.793 Z" style="fill: #324fff;"/><path d="M 245 288.828 H 256.667 V 300.862 H 245 V 288.828 Z" style="fill: #324fff;"/><path d="M 245 300.862 H 256.667 V 312.897 H 245 V 300.862 Z" style="fill: rgba(50,83,254,0.37);"/><path d="M 256.667 156.448 H 268.333 V 168.483 H 256.667 V 156.448 Z" style="fill: #324fff;"/><path d="M 256.667 168.483 H 268.333 V 180.517 H 256.667 V 168.483 Z" style="fill: #324fff;"/><path d="M 256.667 180.517 H 268.333 V 192.552 H 256.667 V 180.517 Z" style="fill: #324fff;"/><path d="M 256.667 192.552 H 268.333 V 204.586 H 256.667 V 192.552 Z" style="fill: #324fff;"/><path d="M 256.667 204.586 H 268.333 V 216.621 H 256.667 V 204.586 Z" style="fill: #324fff;"/><path d="M 256.667 216.621 H 268.333 V 228.655 H 256.667 V 216.621 Z" style="fill: #324fff;"/><path d="M 256.667 228.655 H 268.333 V 240.69 H 256.667 V 228.655 Z" style="fill: #324fff;"/><path d="M 256.667 240.69 H 268.333 V 252.724 H 256.667 V 240.69 Z" style="fill: #324fff;"/><path d="M 256.667 252.724 H 268.333 V 264.759 H 256.667 V 252.724 Z" style="fill: #324fff;"/><path d="M 256.667 264.759 H 268.333 V 276.793 H 256.667 V 264.759 Z" style="fill: #324fff;"/><path d="M 256.667 276.793 H 268.333 V 288.828 H 256.667 V 276.793 Z" style="fill: #324fff;"/><path d="M 256.667 288.828 H 268.333 V 300.862 H 256.667 V 288.828 Z" style="fill: rgba(50,81,255,0.99);"/><path d="M 268.333 144.414 H 280 V 156.448 H 268.333 V 144.414 Z" style="fill: #324fff;"/><path d="M 268.333 156.448 H 280 V 168.483 H 268.333 V 156.448 Z" style="fill: #324fff;"/><path d="M 268.333 168.483 H 280 V 180.517 H 268.333 V 168.483 Z" style="fill: #324fff;"/><path d="M 268.333 180.517 H 280 V 192.552 H 268.333 V 180.517 Z" style="fill: #324fff;"/><path d="M 268.333 192.552 H 280 V 204.586 H 268.333 V 192.552 Z" style="fill: #324fff;"/><path d="M 268.333 204.586 H 280 V 216.621 H 268.333 V 204.586 Z" style="fill: #324fff;"/><path d="M 268.333 216.621 H 280 V 228.655 H 268.333 V 216.621 Z" style="fill: #324fff;"/><path d="M 268.333 228.655 H 280 V 240.69 H 268.333 V 228.655 Z" style="fill: #324fff;"/><path d="M 268.333 240.69 H 280 V 252.724 H 268.333 V 240.69 Z" style="fill: #324fff;"/><path d="M 268.333 252.724 H 280 V 264.759 H 268.333 V 252.724 Z" style="fill: #324fff;"/><path d="M 268.333 264.759 H 280 V 276.793 H 268.333 V 264.759 Z" style="fill: #324fff;"/><path d="M 268.333 276.793 H 280 V 288.828 H 268.333 V 276.793 Z" style="fill: rgba(50,81,255,0.99);"/></g></svg>