<?xml version="1.0" encoding="utf-8"?>
<svg xmlns="http://www.w3.org/2000/svg" viewBox="-448.9909 2.192 223.9998 223.9998" width="223.9998px" height="223.9998px"><g transform="matrix(0.3490909934043884, 0, 0, 0.3490909934043884, -459.1728820800781, -7.989954948425293)" id="object-0"><path d="M 29.167 408.333 H 58.333 V 437.5 H 29.167 V 408.333 Z" style="fill: #0084ff;"/><path d="M 29.167 437.5 H 58.333 V 466.667 H 29.167 V 437.5 Z" style="fill: #0084ff;"/><path d="M 29.167 466.667 H 58.333 V 495.833 H 29.167 V 466.667 Z" style="fill: #0084ff;"/><path d="M 29.167 495.833 H 58.333 V 525 H 29.167 V 495.833 Z" style="fill: #0084ff;"/><path d="M 58.333 379.167 H 87.5 V 408.333 H 58.333 V 379.167 Z" style="fill: #0084ff;"/><path d="M 58.333 495.833 H 87.5 V 525 H 58.333 V 495.833 Z" style="fill: #0084ff;"/><path d="M 58.333 525 H 87.5 V 554.167 H 58.333 V 525 Z" style="fill: #0084ff;"/><path d="M 87.5 350 H 116.667 V 379.167 H 87.5 V 350 Z" style="fill: #0084ff;"/><path d="M 87.5 525 H 116.667 V 554.167 H 87.5 V 525 Z" style="fill: #0084ff;"/><path d="M 87.5 554.167 H 116.667 V 583.333 H 87.5 V 554.167 Z" style="fill: #0084ff;"/><path d="M 116.667 350 H 145.833 V 379.167 H 116.667 V 350 Z" style="fill: #0084ff;"/><path d="M 116.667 554.167 H 145.833 V 583.333 H 116.667 V 554.167 Z" style="fill: #0084ff;"/><path d="M 145.833 350 H 175 V 379.167 H 145.833 V 350 Z" style="fill: #0084ff;"/><path d="M 145.833 554.167 H 175 V 583.333 H 145.833 V 554.167 Z" style="fill: #0084ff;"/><path d="M 175 145.833 H 204.167 V 175 H 175 V 145.833 Z" style="fill: #0084ff;"/><path d="M 175 175 H 204.167 V 204.167 H 175 V 175 Z" style="fill: #0084ff;"/><path d="M 175 204.167 H 204.167 V 233.333 H 175 V 204.167 Z" style="fill: #0084ff;"/><path d="M 175 233.333 H 204.167 V 262.5 H 175 V 233.333 Z" style="fill: #0084ff;"/><path d="M 175 262.5 H 204.167 V 291.667 H 175 V 262.5 Z" style="fill: #0084ff;"/><path d="M 175 379.167 H 204.167 V 408.333 H 175 V 379.167 Z" style="fill: #0084ff;"/><path d="M 175 408.333 H 204.167 V 437.5 H 175 V 408.333 Z" style="fill: #0084ff;"/><path d="M 175 437.5 H 204.167 V 466.667 H 175 V 437.5 Z" style="fill: #0084ff;"/><path d="M 175 554.167 H 204.167 V 583.333 H 175 V 554.167 Z" style="fill: #0084ff;"/><path d="M 175 641.667 H 204.167 V 670.833 H 175 V 641.667 Z" style="fill: #0084ff;"/><path d="M 204.167 87.5 H 233.333 V 116.667 H 204.167 V 87.5 Z" style="fill: #0084ff;"/><path d="M 204.167 116.667 H 233.333 V 145.833 H 204.167 V 116.667 Z" style="fill: #0084ff;"/><path d="M 204.167 262.5 H 233.333 V 291.667 H 204.167 V 262.5 Z" style="fill: #0084ff;"/><path d="M 204.167 291.667 H 233.333 V 320.833 H 204.167 V 291.667 Z" style="fill: #0084ff;"/><path d="M 204.167 320.833 H 233.333 V 350 H 204.167 V 320.833 Z" style="fill: rgba(0,130,255,0.38);"/><path d="M 204.167 525 H 233.333 V 554.167 H 204.167 V 525 Z" style="fill: #0084ff;"/><path d="M 204.167 554.167 H 233.333 V 583.333 H 204.167 V 554.167 Z" style="fill: #0084ff;"/><path d="M 204.167 612.5 H 233.333 V 641.667 H 204.167 V 612.5 Z" style="fill: #0084ff;"/><path d="M 204.167 641.667 H 233.333 V 670.833 H 204.167 V 641.667 Z" style="fill: #0084ff;"/><path d="M 233.333 58.333 H 262.5 V 87.5 H 233.333 V 58.333 Z" style="fill: #0084ff;"/><path d="M 233.333 87.5 H 262.5 V 116.667 H 233.333 V 87.5 Z" style="fill: #0084ff;"/><path d="M 233.333 320.833 H 262.5 V 350 H 233.333 V 320.833 Z" style="fill: #0084ff;"/><path d="M 233.333 350 H 262.5 V 379.167 H 233.333 V 350 Z" style="fill: #0084ff;"/><path d="M 233.333 525 H 262.5 V 554.167 H 233.333 V 525 Z" style="fill: #0084ff;"/><path d="M 233.333 612.5 H 262.5 V 641.667 H 233.333 V 612.5 Z" style="fill: #0084ff;"/><path d="M 262.5 58.333 H 291.667 V 87.5 H 262.5 V 58.333 Z" style="fill: #0084ff;"/><path d="M 262.5 350 H 291.667 V 379.167 H 262.5 V 350 Z" style="fill: #0084ff;"/><path d="M 262.5 379.167 H 291.667 V 408.333 H 262.5 V 379.167 Z" style="fill: #0084ff;"/><path d="M 262.5 408.333 H 291.667 V 437.5 H 262.5 V 408.333 Z" style="fill: #0084ff;"/><path d="M 262.5 437.5 H 291.667 V 466.667 H 262.5 V 437.5 Z" style="fill: #0084ff;"/><path d="M 262.5 466.667 H 291.667 V 495.833 H 262.5 V 466.667 Z" style="fill: #0084ff;"/><path d="M 262.5 495.833 H 291.667 V 525 H 262.5 V 495.833 Z" style="fill: #0084ff;"/><path d="M 262.5 583.333 H 291.667 V 612.5 H 262.5 V 583.333 Z" style="fill: rgba(0,137,254,0.56);"/><path d="M 262.5 612.5 H 291.667 V 641.667 H 262.5 V 612.5 Z" style="fill: #0084ff;"/><path d="M 291.667 58.333 H 320.833 V 87.5 H 291.667 V 58.333 Z" style="fill: #0084ff;"/><path d="M 291.667 408.333 H 320.833 V 437.5 H 291.667 V 408.333 Z" style="fill: #0084ff;"/><path d="M 291.667 437.5 H 320.833 V 466.667 H 291.667 V 437.5 Z" style="fill: #0084ff;"/><path d="M 291.667 583.333 H 320.833 V 612.5 H 291.667 V 583.333 Z" style="fill: #0084ff;"/><path d="M 320.833 29.167 H 350 V 58.333 H 320.833 V 29.167 Z" style="fill: #0084ff;"/><path d="M 320.833 58.333 H 350 V 87.5 H 320.833 V 58.333 Z" style="fill: #0084ff;"/><path d="M 320.833 320.833 H 350 V 350 H 320.833 V 320.833 Z" style="fill: #0084ff;"/><path d="M 320.833 495.833 H 350 V 525 H 320.833 V 495.833 Z" style="fill: #0084ff;"/><path d="M 320.833 525 H 350 V 554.167 H 320.833 V 525 Z" style="fill: #0084ff;"/><path d="M 320.833 554.167 H 350 V 583.333 H 320.833 V 554.167 Z" style="fill: #0084ff;"/><path d="M 350 29.167 H 379.167 V 58.333 H 350 V 29.167 Z" style="fill: #0084ff;"/><path d="M 350 58.333 H 379.167 V 87.5 H 350 V 58.333 Z" style="fill: #0084ff;"/><path d="M 350 320.833 H 379.167 V 350 H 350 V 320.833 Z" style="fill: #0084ff;"/><path d="M 350 495.833 H 379.167 V 525 H 350 V 495.833 Z" style="fill: rgba(0,134,255,0.69);"/><path d="M 350 525 H 379.167 V 554.167 H 350 V 525 Z" style="fill: #0084ff;"/><path d="M 350 554.167 H 379.167 V 583.333 H 350 V 554.167 Z" style="fill: #0084ff;"/><path d="M 379.167 58.333 H 408.333 V 87.5 H 379.167 V 58.333 Z" style="fill: #0084ff;"/><path d="M 379.167 408.333 H 408.333 V 437.5 H 379.167 V 408.333 Z" style="fill: #0084ff;"/><path d="M 379.167 437.5 H 408.333 V 466.667 H 379.167 V 437.5 Z" style="fill: #0084ff;"/><path d="M 379.167 583.333 H 408.333 V 612.5 H 379.167 V 583.333 Z" style="fill: #0084ff;"/><path d="M 408.333 58.333 H 437.5 V 87.5 H 408.333 V 58.333 Z" style="fill: #0084ff;"/><path d="M 408.333 350 H 437.5 V 379.167 H 408.333 V 350 Z" style="fill: #0084ff;"/><path d="M 408.333 379.167 H 437.5 V 408.333 H 408.333 V 379.167 Z" style="fill: #0084ff;"/><path d="M 408.333 408.333 H 437.5 V 437.5 H 408.333 V 408.333 Z" style="fill: #0084ff;"/><path d="M 408.333 437.5 H 437.5 V 466.667 H 408.333 V 437.5 Z" style="fill: #0084ff;"/><path d="M 408.333 466.667 H 437.5 V 495.833 H 408.333 V 466.667 Z" style="fill: #0084ff;"/><path d="M 408.333 495.833 H 437.5 V 525 H 408.333 V 495.833 Z" style="fill: #0084ff;"/><path d="M 408.333 612.5 H 437.5 V 641.667 H 408.333 V 612.5 Z" style="fill: #0084ff;"/><path d="M 437.5 58.333 H 466.667 V 87.5 H 437.5 V 58.333 Z" style="fill: #0084ff;"/><path d="M 437.5 320.833 H 466.667 V 350 H 437.5 V 320.833 Z" style="fill: #0084ff;"/><path d="M 437.5 350 H 466.667 V 379.167 H 437.5 V 350 Z" style="fill: #0084ff;"/><path d="M 437.5 525 H 466.667 V 554.167 H 437.5 V 525 Z" style="fill: #0084ff;"/><path d="M 437.5 612.5 H 466.667 V 641.667 H 437.5 V 612.5 Z" style="fill: #0084ff;"/><path d="M 466.667 58.333 H 495.833 V 87.5 H 466.667 V 58.333 Z" style="fill: #0084ff;"/><path d="M 466.667 262.5 H 495.833 V 291.667 H 466.667 V 262.5 Z" style="fill: #0084ff;"/><path d="M 466.667 291.667 H 495.833 V 320.833 H 466.667 V 291.667 Z" style="fill: #0084ff;"/><path d="M 466.667 525 H 495.833 V 554.167 H 466.667 V 525 Z" style="fill: #0084ff;"/><path d="M 466.667 554.167 H 495.833 V 583.333 H 466.667 V 554.167 Z" style="fill: #0084ff;"/><path d="M 466.667 612.5 H 495.833 V 641.667 H 466.667 V 612.5 Z" style="fill: #0084ff;"/><path d="M 466.667 641.667 H 495.833 V 670.833 H 466.667 V 641.667 Z" style="fill: #0084ff;"/><path d="M 495.833 58.333 H 525 V 87.5 H 495.833 V 58.333 Z" style="fill: #0084ff;"/><path d="M 495.833 87.5 H 525 V 116.667 H 495.833 V 87.5 Z" style="fill: #0084ff;"/><path d="M 495.833 116.667 H 525 V 145.833 H 495.833 V 116.667 Z" style="fill: #0084ff;"/><path d="M 495.833 145.833 H 525 V 175 H 495.833 V 145.833 Z" style="fill: #0084ff;"/><path d="M 495.833 175 H 525 V 204.167 H 495.833 V 175 Z" style="fill: #0084ff;"/><path d="M 495.833 204.167 H 525 V 233.333 H 495.833 V 204.167 Z" style="fill: #0084ff;"/><path d="M 495.833 233.333 H 525 V 262.5 H 495.833 V 233.333 Z" style="fill: #0084ff;"/><path d="M 495.833 262.5 H 525 V 291.667 H 495.833 V 262.5 Z" style="fill: #0084ff;"/><path d="M 495.833 379.167 H 525 V 408.333 H 495.833 V 379.167 Z" style="fill: #0084ff;"/><path d="M 495.833 408.333 H 525 V 437.5 H 495.833 V 408.333 Z" style="fill: #0084ff;"/><path d="M 495.833 437.5 H 525 V 466.667 H 495.833 V 437.5 Z" style="fill: #0084ff;"/><path d="M 495.833 554.167 H 525 V 583.333 H 495.833 V 554.167 Z" style="fill: #0084ff;"/><path d="M 495.833 641.667 H 525 V 670.833 H 495.833 V 641.667 Z" style="fill: rgba(0,132,255,0.44);"/><path d="M 525 350 H 554.167 V 379.167 H 525 V 350 Z" style="fill: #0084ff;"/><path d="M 525 554.167 H 554.167 V 583.333 H 525 V 554.167 Z" style="fill: #0084ff;"/><path d="M 554.167 350 H 583.333 V 379.167 H 554.167 V 350 Z" style="fill: #0084ff;"/><path d="M 554.167 554.167 H 583.333 V 583.333 H 554.167 V 554.167 Z" style="fill: #0084ff;"/><path d="M 583.333 350 H 612.5 V 379.167 H 583.333 V 350 Z" style="fill: #0084ff;"/><path d="M 583.333 525 H 612.5 V 554.167 H 583.333 V 525 Z" style="fill: #0084ff;"/><path d="M 583.333 554.167 H 612.5 V 583.333 H 583.333 V 554.167 Z" style="fill: #0084ff;"/><path d="M 612.5 379.167 H 641.667 V 408.333 H 612.5 V 379.167 Z" style="fill: #0084ff;"/><path d="M 612.5 495.833 H 641.667 V 525 H 612.5 V 495.833 Z" style="fill: #0084ff;"/><path d="M 612.5 525 H 641.667 V 554.167 H 612.5 V 525 Z" style="fill: #0084ff;"/><path d="M 641.667 408.333 H 670.833 V 437.5 H 641.667 V 408.333 Z" style="fill: #0084ff;"/><path d="M 641.667 437.5 H 670.833 V 466.667 H 641.667 V 437.5 Z" style="fill: #0084ff;"/><path d="M 641.667 466.667 H 670.833 V 495.833 H 641.667 V 466.667 Z" style="fill: #0084ff;"/><path d="M 641.667 495.833 H 670.833 V 525 H 641.667 V 495.833 Z" style="fill: #0084ff;"/></g></svg>