<svg id="tecnologias" xmlns="http://www.w3.org/2000/svg" viewBox="0 0 224 224"><defs><style>.cls-1{fill:#e1e8ee;}.cls-2{fill:#d1dfdf;}.cls-3{fill:#e8efef;}.cls-4{fill:#bacdd1;}.cls-5{fill:#f5f5fa;}.cls-6{fill:#fff;}.cls-7{fill:#f9f9fc;}.cls-8{fill:#d5deea;}.cls-9{fill:#191c24;}.cls-10{fill:#1a202b;}.cls-11{fill:#e4ecf2;}.cls-12{fill:#f4fafb;}.cls-13{fill:#e5ecf2;}.cls-14{fill:#dbe4eb;}.cls-15{fill:#bdcfae;}.cls-16{fill:#c1d3c3;}.cls-17{fill:#cfded0;}.cls-18{fill:#98b2a5;}.cls-19{fill:#e5e8f2;}.cls-20{fill:#e5e5f2;}.cls-21{fill:#171a24;}.cls-22{fill:#576177;}.cls-23{fill:#18212b;}.cls-24{fill:#eff6fb;}.cls-25{fill:#bcd7d9;}.cls-26{fill:#eaf3f6;}.cls-27{fill:#bad6a8;}.cls-28{fill:#95a567;}.cls-29{fill:#c0d0b5;}.cls-30{fill:#d3e3d9;}.cls-31{fill:#d5e4dd;}.cls-32{fill:#edecf3;}.cls-33{fill:#303742;}.cls-34{fill:#505b70;}.cls-35{fill:#353e4d;}.cls-36{fill:#f4f4fa;}.cls-37{fill:#0d1116;}.cls-38{fill:#2a313e;}.cls-39{fill:#cde6e7;}.cls-40{fill:#e4eff4;}.cls-41{fill:#daecec;}.cls-42{fill:#9eaf83;}.cls-43{fill:#bbd2b7;}.cls-44{fill:#6a954f;}.cls-45{fill:#a5c782;}.cls-46{fill:#a9c796;}.cls-47{fill:#8b9d5d;}.cls-48{fill:#c4d5c8;}.cls-49{fill:#e4ebea;}.cls-50{fill:#535e75;}.cls-51{fill:#eeeef5;}.cls-52{fill:#2c3442;}.cls-53{fill:#222a37;}.cls-54{fill:#1c2333;}.cls-55{fill:#d8ebe6;}.cls-56{fill:#dfeff3;}.cls-57{fill:#e6f2f6;}.cls-58{fill:#dbeced;}.cls-59{fill:#cedcd6;}.cls-60{fill:#d0dfd2;}.cls-61{fill:#699743;}.cls-62{fill:#8eb768;}.cls-63{fill:#93b878;}.cls-64{fill:#b9cdbb;}.cls-65{fill:#c8d8d0;}.cls-66{fill:#dfebe6;}.cls-67{fill:#f1f2f7;}.cls-68{fill:#171c25;}.cls-69{fill:#414a5c;}.cls-70{fill:#2d3543;}.cls-71{fill:#fcf4f9;}.cls-72{fill:#ebf5f7;}.cls-73{fill:#ddedf3;}.cls-74{fill:#e7f4fb;}.cls-75{fill:#d0e4dd;}.cls-76{fill:#dce7e2;}.cls-77{fill:#c3d2b8;}.cls-78{fill:#77a046;}.cls-79{fill:#54623a;}.cls-80{fill:#9dbe85;}.cls-81{fill:#538539;}.cls-82{fill:#4f7e38;}.cls-83{fill:#edf4f4;}.cls-84{fill:#57627b;}.cls-85{fill:#f3f1f8;}.cls-86{fill:#f4f0f7;}.cls-87{fill:#fefeff;}.cls-88{fill:#f7f7fb;}.cls-89{fill:#f6f5fb;}.cls-90{fill:#d7e9f1;}.cls-91{fill:#e9f0f4;}.cls-92{fill:#e7f4fc;}.cls-93{fill:#779e73;}.cls-94{fill:#dde9e0;}.cls-95{fill:#171f29;}.cls-96{fill:#20242e;}.cls-97{fill:#5c8a3c;}.cls-98{fill:#53803c;}.cls-99{fill:#56863e;}.cls-100{fill:#d1e2d4;}.cls-101{fill:#1d1e0c;}.cls-102{fill:#e8f3f2;}.cls-103{fill:#fefefe;}.cls-104{fill:#e7f5fd;}.cls-105{fill:#89ad82;}.cls-106{fill:#29303d;}.cls-107{fill:#a6bbb5;}.cls-108{fill:#6a9946;}.cls-109{fill:#548639;}.cls-110{fill:#adca95;}.cls-111{fill:#cfdfd6;}.cls-112{fill:#dae6e5;}.cls-113{fill:#fbfbfd;}.cls-114{fill:#658a39;}.cls-115{fill:#577e36;}.cls-116{fill:#739338;}.cls-117{fill:#eff8f4;}.cls-118{fill:#ddefea;}.cls-119{fill:#e7f4f6;}.cls-120{fill:#d4e5e1;}.cls-121{fill:#96bb97;}.cls-122{fill:#81ad72;}.cls-123{fill:#73a05b;}.cls-124{fill:#76a153;}.cls-125{fill:#55873a;}.cls-126{fill:#6a983d;}.cls-127{fill:#759c3d;}.cls-128{fill:#6a9544;}.cls-129{fill:#f0f4f6;}.cls-130{fill:#edecf4;}.cls-131{fill:#f5f5fb;}.cls-132{fill:#44662b;}.cls-133{fill:#5f8739;}.cls-134{fill:#638839;}.cls-135{fill:#b0cbcd;}.cls-136{fill:#e3eef3;}.cls-137{fill:#cbdfe0;}.cls-138{fill:#8cb68a;}.cls-139{fill:#7eab6e;}.cls-140{fill:#739e4a;}.cls-141{fill:#6d984b;}.cls-142{fill:#86ac6c;}.cls-143{fill:#68963f;}.cls-144{fill:#7da654;}.cls-145{fill:#80a84b;}.cls-146{fill:#ececf4;}.cls-147{fill:#f3f4fa;}.cls-148{fill:#f0f0f7;}.cls-149{fill:#ededf5;}.cls-150{fill:#688e39;}.cls-151{fill:#5c8236;}.cls-152{fill:#4c7b35;}.cls-153{fill:#5d8739;}.cls-154{fill:#dce7ed;}.cls-155{fill:#d3e4eb;}.cls-156{fill:#adc6b8;}.cls-157{fill:#c4d6d6;}.cls-158{fill:#7ea35e;}.cls-159{fill:#6e7e3c;}.cls-160{fill:#86a44d;}.cls-161{fill:#c0d2be;}.cls-162{fill:#d3e1d8;}.cls-163{fill:#d4d8e6;}.cls-164{fill:#d1d7e4;}.cls-165{fill:#567f36;}.cls-166{fill:#638938;}.cls-167{fill:#4b7231;}.cls-168{fill:#5e8738;}.cls-169{fill:#1b200f;}.cls-170{fill:#3f6029;}.cls-171{fill:#5f8235;}.cls-172{fill:#799b3e;}.cls-173{fill:#597e36;}.cls-174{fill:#4f7331;}.cls-175{fill:#7ca33d;}</style></defs><rect class="cls-1" x="170.66" y="138.66" width="10.66" height="10.67"/><rect class="cls-2" x="170.66" y="128" width="10.66" height="10.66"/><rect class="cls-3" x="170.66" y="117.34" width="10.66" height="10.66"/><rect class="cls-3" x="170.66" y="106.66" width="10.66" height="10.67"/><rect class="cls-4" x="170.66" y="96" width="10.66" height="10.66"/><rect class="cls-5" x="170.66" y="85.34" width="10.66" height="10.66"/><rect class="cls-6" x="170.66" y="74.66" width="10.66" height="10.67"/><rect class="cls-6" x="170.66" y="64" width="10.66" height="10.66"/><rect class="cls-7" x="170.66" y="53.34" width="10.66" height="10.66"/><rect class="cls-8" x="170.66" y="42.67" width="10.66" height="10.66"/><rect class="cls-9" x="170.66" y="32" width="10.66" height="10.67"/><rect class="cls-10" x="170.66" y="21.34" width="10.66" height="10.66"/><rect class="cls-10" x="170.66" y="10.67" width="10.66" height="10.66"/><rect class="cls-11" x="160" y="170.66" width="10.66" height="10.66"/><rect class="cls-12" x="160" y="160" width="10.66" height="10.66"/><rect class="cls-13" x="160" y="149.34" width="10.66" height="10.66"/><rect class="cls-14" x="160" y="138.66" width="10.66" height="10.67"/><rect class="cls-15" x="160" y="128" width="10.66" height="10.66"/><rect class="cls-16" x="160" y="117.34" width="10.66" height="10.66"/><rect class="cls-17" x="160" y="106.66" width="10.66" height="10.67"/><rect class="cls-18" x="160" y="96" width="10.66" height="10.66"/><rect class="cls-19" x="160" y="85.34" width="10.66" height="10.66"/><rect class="cls-20" x="160" y="74.66" width="10.66" height="10.67"/><rect class="cls-20" x="160" y="64" width="10.66" height="10.66"/><rect class="cls-21" x="160" y="53.34" width="10.66" height="10.66"/><rect class="cls-22" x="160" y="42.67" width="10.66" height="10.66"/><rect class="cls-23" x="160" y="32" width="10.66" height="10.67"/><rect class="cls-24" x="149.34" y="192" width="10.66" height="10.66"/><rect class="cls-25" x="149.34" y="181.33" width="10.66" height="10.67"/><rect class="cls-26" x="149.34" y="170.66" width="10.66" height="10.66"/><rect class="cls-13" x="149.34" y="160" width="10.66" height="10.66"/><rect class="cls-13" x="149.34" y="149.34" width="10.66" height="10.66"/><rect class="cls-27" x="149.34" y="138.66" width="10.66" height="10.67"/><rect class="cls-28" x="149.34" y="128" width="10.66" height="10.66"/><rect class="cls-29" x="149.34" y="117.34" width="10.66" height="10.66"/><rect class="cls-30" x="149.34" y="106.66" width="10.66" height="10.67"/><rect class="cls-31" x="149.34" y="96" width="10.66" height="10.66"/><rect class="cls-32" x="149.34" y="85.34" width="10.66" height="10.66"/><rect class="cls-33" x="149.34" y="74.66" width="10.66" height="10.67"/><rect class="cls-34" x="149.34" y="64" width="10.66" height="10.66"/><rect class="cls-35" x="149.34" y="53.34" width="10.66" height="10.66"/><rect class="cls-36" x="149.34" y="42.67" width="10.66" height="10.66"/><rect class="cls-37" x="149.34" y="21.34" width="10.66" height="10.66"/><rect class="cls-38" x="149.34" y="10.67" width="10.66" height="10.66"/><rect class="cls-38" x="149.34" width="10.66" height="10.67"/><rect class="cls-39" x="138.66" y="202.66" width="10.67" height="10.66"/><rect class="cls-40" x="138.66" y="192" width="10.67" height="10.66"/><rect class="cls-41" x="138.66" y="181.33" width="10.67" height="10.67"/><rect class="cls-42" x="138.66" y="170.66" width="10.67" height="10.66"/><rect class="cls-43" x="138.66" y="160" width="10.67" height="10.66"/><rect class="cls-44" x="138.66" y="149.34" width="10.67" height="10.66"/><rect class="cls-45" x="138.66" y="138.66" width="10.67" height="10.67"/><rect class="cls-46" x="138.66" y="128" width="10.67" height="10.66"/><rect class="cls-47" x="138.66" y="117.34" width="10.67" height="10.66"/><rect class="cls-48" x="138.66" y="106.66" width="10.67" height="10.67"/><rect class="cls-49" x="138.66" y="96" width="10.67" height="10.66"/><rect class="cls-50" x="138.66" y="85.34" width="10.67" height="10.66"/><rect class="cls-36" x="138.66" y="74.66" width="10.67" height="10.67"/><rect class="cls-36" x="138.66" y="64" width="10.67" height="10.66"/><rect class="cls-51" x="138.66" y="53.34" width="10.67" height="10.66"/><rect class="cls-52" x="138.66" y="42.67" width="10.67" height="10.66"/><rect class="cls-53" x="138.66" y="32" width="10.67" height="10.67"/><rect class="cls-54" x="138.66" y="21.34" width="10.67" height="10.66"/><rect class="cls-55" x="128" y="213.33" width="10.66" height="10.67"/><rect class="cls-56" x="128" y="202.66" width="10.66" height="10.66"/><rect class="cls-57" x="128" y="192" width="10.66" height="10.66"/><rect class="cls-58" x="128" y="181.33" width="10.66" height="10.67"/><rect class="cls-59" x="128" y="170.66" width="10.66" height="10.66"/><rect class="cls-60" x="128" y="160" width="10.66" height="10.66"/><rect class="cls-61" x="128" y="149.34" width="10.66" height="10.66"/><rect class="cls-62" x="128" y="138.66" width="10.66" height="10.67"/><rect class="cls-63" x="128" y="128" width="10.66" height="10.66"/><rect class="cls-64" x="128" y="117.34" width="10.66" height="10.66"/><rect class="cls-65" x="128" y="106.66" width="10.66" height="10.67"/><rect class="cls-66" x="128" y="96" width="10.66" height="10.66"/><rect class="cls-67" x="128" y="85.34" width="10.66" height="10.66"/><rect class="cls-68" x="128" y="74.66" width="10.66" height="10.67"/><rect class="cls-69" x="128" y="64" width="10.66" height="10.66"/><rect class="cls-70" x="128" y="53.34" width="10.66" height="10.66"/><rect class="cls-71" x="128" y="42.67" width="10.66" height="10.66"/><rect class="cls-6" x="128" y="32" width="10.66" height="10.67"/><rect class="cls-72" x="117.34" y="213.33" width="10.66" height="10.67"/><rect class="cls-73" x="117.34" y="202.66" width="10.66" height="10.66"/><rect class="cls-74" x="117.34" y="192" width="10.66" height="10.66"/><rect class="cls-75" x="117.34" y="181.33" width="10.66" height="10.67"/><rect class="cls-76" x="117.34" y="170.66" width="10.66" height="10.66"/><rect class="cls-77" x="117.34" y="160" width="10.66" height="10.66"/><rect class="cls-78" x="117.34" y="149.34" width="10.66" height="10.66"/><rect class="cls-79" x="117.34" y="138.66" width="10.66" height="10.67"/><rect class="cls-80" x="117.34" y="128" width="10.66" height="10.66"/><rect class="cls-81" x="117.34" y="117.34" width="10.66" height="10.66"/><rect class="cls-82" x="117.34" y="106.66" width="10.66" height="10.67"/><rect class="cls-83" x="117.34" y="96" width="10.66" height="10.66"/><rect class="cls-84" x="117.34" y="85.34" width="10.66" height="10.66"/><rect class="cls-85" x="117.34" y="74.66" width="10.66" height="10.67"/><rect class="cls-86" x="117.34" y="64" width="10.66" height="10.66"/><rect class="cls-87" x="117.34" y="53.34" width="10.66" height="10.66"/><rect class="cls-88" x="117.34" y="42.67" width="10.66" height="10.66"/><rect class="cls-89" x="117.34" y="32" width="10.66" height="10.67"/><rect class="cls-90" x="106.66" y="213.33" width="10.67" height="10.67"/><rect class="cls-91" x="106.66" y="202.66" width="10.67" height="10.66"/><rect class="cls-92" x="106.66" y="192" width="10.67" height="10.66"/><rect class="cls-93" x="106.66" y="181.33" width="10.67" height="10.67"/><rect class="cls-94" x="106.66" y="170.66" width="10.67" height="10.66"/><rect class="cls-95" x="106.66" y="160" width="10.67" height="10.66"/><rect class="cls-96" x="106.66" y="149.34" width="10.67" height="10.66"/><rect class="cls-97" x="106.66" y="138.66" width="10.67" height="10.67"/><rect class="cls-98" x="106.66" y="128" width="10.67" height="10.66"/><rect class="cls-99" x="106.66" y="117.34" width="10.67" height="10.66"/><rect class="cls-100" x="106.66" y="106.66" width="10.67" height="10.67"/><rect class="cls-83" x="106.66" y="96" width="10.67" height="10.66"/><rect class="cls-36" x="106.66" y="85.34" width="10.67" height="10.66"/><rect class="cls-6" x="106.66" y="74.66" width="10.67" height="10.67"/><rect class="cls-6" x="106.66" y="64" width="10.67" height="10.66"/><rect class="cls-6" x="106.66" y="53.34" width="10.67" height="10.66"/><rect class="cls-6" x="106.66" y="42.67" width="10.67" height="10.66"/><rect class="cls-87" x="106.66" y="32" width="10.67" height="10.67"/><rect class="cls-101" x="106.66" width="10.67" height="10.67"/><rect class="cls-102" x="96" y="213.33" width="10.66" height="10.67"/><rect class="cls-103" x="96" y="202.66" width="10.66" height="10.66"/><rect class="cls-104" x="96" y="192" width="10.66" height="10.66"/><rect class="cls-105" x="96" y="181.33" width="10.66" height="10.67"/><rect class="cls-95" x="96" y="170.66" width="10.66" height="10.66"/><rect class="cls-106" x="96" y="160" width="10.66" height="10.66"/><rect class="cls-107" x="96" y="149.34" width="10.66" height="10.66"/><rect class="cls-108" x="96" y="138.66" width="10.66" height="10.67"/><rect class="cls-109" x="96" y="128" width="10.66" height="10.66"/><rect class="cls-110" x="96" y="117.34" width="10.66" height="10.66"/><rect class="cls-111" x="96" y="106.66" width="10.66" height="10.67"/><rect class="cls-112" x="96" y="96" width="10.66" height="10.66"/><rect class="cls-36" x="96" y="85.34" width="10.66" height="10.66"/><rect class="cls-6" x="96" y="74.66" width="10.66" height="10.67"/><rect class="cls-6" x="96" y="64" width="10.66" height="10.66"/><rect class="cls-6" x="96" y="53.34" width="10.66" height="10.66"/><rect class="cls-6" x="96" y="42.67" width="10.66" height="10.66"/><rect class="cls-113" x="96" y="32" width="10.66" height="10.67"/><rect class="cls-114" x="96" y="21.34" width="10.66" height="10.66"/><rect class="cls-115" x="96" y="10.67" width="10.66" height="10.66"/><rect class="cls-116" x="96" width="10.66" height="10.67"/><rect class="cls-117" x="85.34" y="213.33" width="10.66" height="10.67"/><rect class="cls-118" x="85.34" y="202.66" width="10.66" height="10.66"/><rect class="cls-119" x="85.34" y="192" width="10.66" height="10.66"/><rect class="cls-120" x="85.34" y="181.33" width="10.66" height="10.67"/><rect class="cls-121" x="85.34" y="170.66" width="10.66" height="10.66"/><rect class="cls-122" x="85.34" y="160" width="10.66" height="10.66"/><rect class="cls-123" x="85.34" y="149.34" width="10.66" height="10.66"/><rect class="cls-124" x="85.34" y="138.66" width="10.66" height="10.67"/><rect class="cls-125" x="85.34" y="128" width="10.66" height="10.66"/><rect class="cls-126" x="85.34" y="117.34" width="10.66" height="10.66"/><rect class="cls-127" x="85.34" y="106.66" width="10.66" height="10.67"/><rect class="cls-128" x="85.34" y="96" width="10.66" height="10.66"/><rect class="cls-129" x="85.34" y="85.34" width="10.66" height="10.66"/><rect class="cls-130" x="85.34" y="74.66" width="10.66" height="10.67"/><rect class="cls-131" x="85.34" y="64" width="10.66" height="10.66"/><rect class="cls-130" x="85.34" y="53.34" width="10.66" height="10.66"/><rect class="cls-36" x="85.34" y="42.67" width="10.66" height="10.66"/><rect class="cls-132" x="85.34" y="32" width="10.66" height="10.67"/><rect class="cls-133" x="85.34" y="21.34" width="10.66" height="10.66"/><rect class="cls-134" x="85.34" y="10.67" width="10.66" height="10.66"/><rect class="cls-135" x="74.66" y="202.66" width="10.67" height="10.66"/><rect class="cls-136" x="74.66" y="192" width="10.67" height="10.66"/><rect class="cls-137" x="74.66" y="181.33" width="10.67" height="10.67"/><rect class="cls-138" x="74.66" y="170.66" width="10.67" height="10.66"/><rect class="cls-139" x="74.66" y="160" width="10.67" height="10.66"/><rect class="cls-140" x="74.66" y="149.34" width="10.67" height="10.66"/><rect class="cls-141" x="74.66" y="138.66" width="10.67" height="10.67"/><rect class="cls-142" x="74.66" y="128" width="10.67" height="10.66"/><rect class="cls-143" x="74.66" y="117.34" width="10.67" height="10.66"/><rect class="cls-144" x="74.66" y="106.66" width="10.67" height="10.67"/><rect class="cls-145" x="74.66" y="96" width="10.67" height="10.66"/><rect class="cls-146" x="74.66" y="85.34" width="10.67" height="10.66"/><rect class="cls-147" x="74.66" y="74.66" width="10.67" height="10.67"/><rect class="cls-148" x="74.66" y="64" width="10.67" height="10.66"/><rect class="cls-149" x="74.66" y="53.34" width="10.67" height="10.66"/><rect class="cls-150" x="74.66" y="42.67" width="10.67" height="10.66"/><rect class="cls-151" x="74.66" y="32" width="10.67" height="10.67"/><rect class="cls-152" x="74.66" y="21.34" width="10.67" height="10.66"/><rect class="cls-153" x="74.66" y="10.67" width="10.67" height="10.66"/><rect class="cls-154" x="64" y="181.33" width="10.66" height="10.67"/><rect class="cls-155" x="64" y="170.66" width="10.66" height="10.66"/><rect class="cls-156" x="64" y="160" width="10.66" height="10.66"/><rect class="cls-157" x="64" y="149.34" width="10.66" height="10.66"/><rect class="cls-158" x="64" y="138.66" width="10.66" height="10.67"/><rect class="cls-159" x="64" y="128" width="10.66" height="10.66"/><rect class="cls-160" x="64" y="117.34" width="10.66" height="10.66"/><rect class="cls-161" x="64" y="106.66" width="10.66" height="10.67"/><rect class="cls-162" x="64" y="96" width="10.66" height="10.66"/><rect class="cls-163" x="64" y="85.34" width="10.66" height="10.66"/><rect class="cls-164" x="64" y="74.66" width="10.66" height="10.67"/><rect class="cls-164" x="64" y="64" width="10.66" height="10.66"/><rect class="cls-165" x="64" y="53.34" width="10.66" height="10.66"/><rect class="cls-166" x="64" y="42.67" width="10.66" height="10.66"/><rect class="cls-167" x="64" y="32" width="10.66" height="10.67"/><rect class="cls-168" x="64" y="21.34" width="10.66" height="10.66"/><rect class="cls-169" x="53.34" y="64" width="10.66" height="10.66"/><rect class="cls-170" x="53.34" y="53.34" width="10.66" height="10.66"/><rect class="cls-171" x="53.34" y="42.67" width="10.66" height="10.66"/><rect class="cls-172" x="53.34" y="32" width="10.66" height="10.67"/><rect class="cls-173" x="53.34" y="21.34" width="10.66" height="10.66"/><rect class="cls-174" x="42.67" y="64" width="10.66" height="10.66"/><rect class="cls-174" x="42.67" y="53.34" width="10.66" height="10.66"/><rect class="cls-175" x="42.67" y="42.67" width="10.66" height="10.66"/></svg>