<svg id="tecnologias" xmlns="http://www.w3.org/2000/svg" viewBox="0 0 224 224"><defs><style>.cls-1{fill:#00758f;}</style></defs><rect class="cls-1" y="21.34" width="10.67" height="10.66"/><rect class="cls-1" x="213.33" y="213.33" width="10.67" height="10.67"/><rect class="cls-1" x="202.66" y="202.66" width="10.66" height="10.66"/><rect class="cls-1" x="202.66" y="170.66" width="10.66" height="10.66"/><rect class="cls-1" x="192" y="192" width="10.66" height="10.66"/><rect class="cls-1" x="192" y="170.66" width="10.66" height="10.66"/><rect class="cls-1" x="192" y="160" width="10.66" height="10.66"/><rect class="cls-1" x="181.33" y="192" width="10.67" height="10.66"/><rect class="cls-1" x="181.33" y="170.66" width="10.67" height="10.66"/><rect class="cls-1" x="181.33" y="149.34" width="10.67" height="10.66"/><rect class="cls-1" x="170.66" y="181.33" width="10.66" height="10.67"/><rect class="cls-1" x="170.66" y="170.66" width="10.66" height="10.66"/><rect class="cls-1" x="170.66" y="138.66" width="10.66" height="10.67"/><rect class="cls-1" x="160" y="138.66" width="10.66" height="10.67"/><rect class="cls-1" x="149.34" y="128" width="10.66" height="10.66"/><rect class="cls-1" x="138.66" y="117.34" width="10.67" height="10.66"/><rect class="cls-1" x="138.66" y="106.66" width="10.67" height="10.67"/><rect class="cls-1" x="128" y="96" width="10.66" height="10.66"/><rect class="cls-1" x="128" y="85.34" width="10.66" height="10.66"/><rect class="cls-1" x="117.34" y="74.66" width="10.66" height="10.67"/><rect class="cls-1" x="117.34" y="64" width="10.66" height="10.66"/><rect class="cls-1" x="106.66" y="53.34" width="10.67" height="10.66"/><rect class="cls-1" x="96" y="42.67" width="10.66" height="10.66"/><rect class="cls-1" x="85.34" y="160" width="10.66" height="10.66"/><rect class="cls-1" x="85.34" y="32" width="10.66" height="10.67"/><rect class="cls-1" x="74.66" y="149.34" width="10.67" height="10.66"/><rect class="cls-1" x="74.66" y="138.66" width="10.67" height="10.67"/><rect class="cls-1" x="74.66" y="32" width="10.67" height="10.67"/><rect class="cls-1" x="64" y="128" width="10.66" height="10.66"/><rect class="cls-1" x="64" y="21.34" width="10.66" height="10.66"/><rect class="cls-1" x="53.34" y="149.34" width="10.66" height="10.66"/><rect class="cls-1" x="53.34" y="138.66" width="10.66" height="10.67"/><rect class="cls-1" x="53.34" y="128" width="10.66" height="10.66"/><rect class="cls-1" x="53.34" y="117.34" width="10.66" height="10.66"/><rect class="cls-1" x="53.34" y="42.67" width="10.66" height="10.66"/><rect class="cls-1" x="53.34" y="21.34" width="10.66" height="10.66"/><rect class="cls-1" x="42.67" y="149.34" width="10.66" height="10.66"/><rect class="cls-1" x="42.67" y="85.34" width="10.66" height="10.66"/><rect class="cls-1" x="42.67" y="21.34" width="10.66" height="10.66"/><rect class="cls-1" x="32" y="138.66" width="10.67" height="10.67"/><rect class="cls-1" x="32" y="128" width="10.67" height="10.66"/><rect class="cls-1" x="32" y="117.34" width="10.67" height="10.66"/><rect class="cls-1" x="32" y="106.66" width="10.67" height="10.67"/><rect class="cls-1" x="32" y="96" width="10.67" height="10.66"/><rect class="cls-1" x="32" y="74.66" width="10.67" height="10.67"/><rect class="cls-1" x="32" y="64" width="10.67" height="10.66"/><rect class="cls-1" x="32" y="10.67" width="10.67" height="10.66"/><rect class="cls-1" x="21.34" y="53.34" width="10.66" height="10.66"/><rect class="cls-1" x="21.34" y="42.67" width="10.66" height="10.66"/><rect class="cls-1" x="21.34" y="10.67" width="10.66" height="10.66"/><rect class="cls-1" x="10.67" y="32" width="10.66" height="10.67"/><rect class="cls-1" x="10.67" width="10.66" height="10.67"/><rect class="cls-1" y="10.67" width="10.67" height="10.66"/></svg>