<svg id="tecnologias" xmlns="http://www.w3.org/2000/svg" viewBox="0 0 224 224"><defs><style>.cls-1{fill:#464b8a;}.cls-2{fill:#787cb4;}.cls-3{fill:#555a94;}.cls-4{fill:#676ba1;}.cls-5{fill:#7a7eae;}.cls-6{fill:#8a8eba;}.cls-7{fill:#474c8a;}.cls-8{fill:#9599c2;}.cls-9{fill:#505491;}.cls-10{fill:#aaafd2;}.cls-11{fill:#575c96;}.cls-12{fill:#b0b4d6;}.cls-13{fill:#5e629a;}.cls-14{fill:#63679e;}.cls-15{fill:#666aa1;}.cls-16{fill:#6b70a4;}.cls-17{fill:#7074a7;}.cls-18{fill:#7377aa;}.cls-19{fill:#aeb3d5;}.cls-20{fill:#7579aa;}.cls-21{fill:#9ea3c9;}.cls-22{fill:#777bad;}.cls-23{fill:#8185b4;}.cls-24{fill:#888cb9;}</style></defs><rect class="cls-1" x="213.33" y="117.34" width="10.67" height="10.66"/><rect class="cls-2" x="213.33" y="106.66" width="10.67" height="10.67"/><rect class="cls-2" x="213.33" y="96" width="10.67" height="10.66"/><rect class="cls-1" x="202.66" y="128" width="10.66" height="10.66"/><rect class="cls-2" x="202.66" y="117.34" width="10.66" height="10.66"/><rect class="cls-2" x="202.66" y="106.66" width="10.66" height="10.67"/><rect class="cls-2" x="202.66" y="96" width="10.66" height="10.66"/><rect class="cls-2" x="202.66" y="85.34" width="10.66" height="10.66"/><rect class="cls-1" x="192" y="138.66" width="10.66" height="10.67"/><rect class="cls-2" x="192" y="128" width="10.66" height="10.66"/><rect class="cls-2" x="192" y="117.34" width="10.66" height="10.66"/><rect class="cls-2" x="192" y="106.66" width="10.66" height="10.67"/><rect class="cls-2" x="192" y="96" width="10.66" height="10.66"/><rect class="cls-2" x="192" y="85.34" width="10.66" height="10.66"/><rect class="cls-2" x="192" y="74.66" width="10.66" height="10.67"/><rect class="cls-1" x="181.33" y="149.34" width="10.67" height="10.66"/><rect class="cls-2" x="181.33" y="138.66" width="10.67" height="10.67"/><rect class="cls-2" x="181.33" y="128" width="10.67" height="10.66"/><rect class="cls-2" x="181.33" y="117.34" width="10.67" height="10.66"/><rect x="181.33" y="106.66" width="10.67" height="10.67"/><rect x="181.33" y="96" width="10.67" height="10.66"/><rect x="181.33" y="85.34" width="10.67" height="10.66"/><rect class="cls-2" x="181.33" y="74.66" width="10.67" height="10.67"/><rect class="cls-2" x="181.33" y="64" width="10.67" height="10.66"/><rect class="cls-1" x="170.66" y="149.34" width="10.66" height="10.66"/><rect class="cls-2" x="170.66" y="138.66" width="10.66" height="10.67"/><rect class="cls-2" x="170.66" y="128" width="10.66" height="10.66"/><rect x="170.66" y="117.34" width="10.66" height="10.66"/><rect class="cls-2" x="170.66" y="106.66" width="10.66" height="10.67"/><rect class="cls-2" x="170.66" y="96" width="10.66" height="10.66"/><rect x="170.66" y="85.34" width="10.66" height="10.66"/><rect class="cls-2" x="170.66" y="74.66" width="10.66" height="10.67"/><rect class="cls-2" x="170.66" y="64" width="10.66" height="10.66"/><rect class="cls-1" x="160" y="160" width="10.66" height="10.66"/><rect class="cls-2" x="160" y="149.34" width="10.66" height="10.66"/><rect class="cls-2" x="160" y="138.66" width="10.66" height="10.67"/><rect class="cls-2" x="160" y="128" width="10.66" height="10.66"/><rect x="160" y="117.34" width="10.66" height="10.66"/><rect class="cls-2" x="160" y="106.66" width="10.66" height="10.67"/><rect class="cls-2" x="160" y="96" width="10.66" height="10.66"/><rect x="160" y="85.34" width="10.66" height="10.66"/><rect class="cls-2" x="160" y="74.66" width="10.66" height="10.67"/><rect class="cls-2" x="160" y="64" width="10.66" height="10.66"/><rect class="cls-3" x="160" y="53.34" width="10.66" height="10.66"/><rect class="cls-1" x="149.34" y="160" width="10.66" height="10.66"/><rect class="cls-2" x="149.34" y="149.34" width="10.66" height="10.66"/><rect x="149.34" y="138.66" width="10.66" height="10.67"/><rect x="149.34" y="128" width="10.66" height="10.66"/><rect x="149.34" y="117.34" width="10.66" height="10.66"/><rect x="149.34" y="106.66" width="10.66" height="10.67"/><rect x="149.34" y="96" width="10.66" height="10.66"/><rect class="cls-2" x="149.34" y="85.34" width="10.66" height="10.66"/><rect class="cls-2" x="149.34" y="74.66" width="10.66" height="10.67"/><rect class="cls-2" x="149.34" y="64" width="10.66" height="10.66"/><rect class="cls-4" x="149.34" y="53.34" width="10.66" height="10.66"/><rect class="cls-1" x="138.66" y="160" width="10.67" height="10.66"/><rect class="cls-2" x="138.66" y="149.34" width="10.67" height="10.66"/><rect class="cls-2" x="138.66" y="138.66" width="10.67" height="10.67"/><rect class="cls-2" x="138.66" y="128" width="10.67" height="10.66"/><rect class="cls-2" x="138.66" y="117.34" width="10.67" height="10.66"/><rect class="cls-2" x="138.66" y="106.66" width="10.67" height="10.67"/><rect class="cls-2" x="138.66" y="96" width="10.67" height="10.66"/><rect class="cls-2" x="138.66" y="85.34" width="10.67" height="10.66"/><rect class="cls-2" x="138.66" y="74.66" width="10.67" height="10.67"/><rect class="cls-2" x="138.66" y="64" width="10.67" height="10.66"/><rect class="cls-5" x="138.66" y="53.34" width="10.67" height="10.66"/><rect class="cls-1" x="128" y="160" width="10.66" height="10.66"/><rect class="cls-2" x="128" y="149.34" width="10.66" height="10.66"/><rect class="cls-2" x="128" y="138.66" width="10.66" height="10.67"/><rect class="cls-2" x="128" y="128" width="10.66" height="10.66"/><rect x="128" y="117.34" width="10.66" height="10.66"/><rect x="128" y="106.66" width="10.66" height="10.67"/><rect x="128" y="96" width="10.66" height="10.66"/><rect class="cls-2" x="128" y="85.34" width="10.66" height="10.66"/><rect class="cls-2" x="128" y="74.66" width="10.66" height="10.67"/><rect class="cls-2" x="128" y="64" width="10.66" height="10.66"/><rect class="cls-6" x="128" y="53.34" width="10.66" height="10.66"/><rect class="cls-7" x="117.34" y="160" width="10.66" height="10.66"/><rect class="cls-2" x="117.34" y="149.34" width="10.66" height="10.66"/><rect class="cls-2" x="117.34" y="138.66" width="10.66" height="10.67"/><rect class="cls-2" x="117.34" y="128" width="10.66" height="10.66"/><rect class="cls-2" x="117.34" y="117.34" width="10.66" height="10.66"/><rect class="cls-2" x="117.34" y="106.66" width="10.66" height="10.67"/><rect class="cls-2" x="117.34" y="96" width="10.66" height="10.66"/><rect x="117.34" y="85.34" width="10.66" height="10.66"/><rect class="cls-2" x="117.34" y="74.66" width="10.66" height="10.67"/><rect class="cls-2" x="117.34" y="64" width="10.66" height="10.66"/><rect class="cls-8" x="117.34" y="53.34" width="10.66" height="10.66"/><rect class="cls-9" x="106.66" y="160" width="10.67" height="10.66"/><rect class="cls-2" x="106.66" y="149.34" width="10.67" height="10.66"/><rect class="cls-2" x="106.66" y="138.66" width="10.67" height="10.67"/><rect class="cls-2" x="106.66" y="128" width="10.67" height="10.66"/><rect class="cls-2" x="106.66" y="117.34" width="10.67" height="10.66"/><rect class="cls-2" x="106.66" y="106.66" width="10.67" height="10.67"/><rect class="cls-2" x="106.66" y="96" width="10.67" height="10.66"/><rect x="106.66" y="85.34" width="10.67" height="10.66"/><rect class="cls-2" x="106.66" y="74.66" width="10.67" height="10.67"/><rect class="cls-2" x="106.66" y="64" width="10.67" height="10.66"/><rect class="cls-10" x="106.66" y="53.34" width="10.67" height="10.66"/><rect class="cls-11" x="96" y="160" width="10.66" height="10.66"/><rect class="cls-2" x="96" y="149.34" width="10.66" height="10.66"/><rect class="cls-2" x="96" y="138.66" width="10.66" height="10.67"/><rect class="cls-2" x="96" y="128" width="10.66" height="10.66"/><rect x="96" y="117.34" width="10.66" height="10.66"/><rect x="96" y="106.66" width="10.66" height="10.67"/><rect x="96" y="96" width="10.66" height="10.66"/><rect x="96" y="85.34" width="10.66" height="10.66"/><rect x="96" y="74.66" width="10.66" height="10.67"/><rect x="96" y="64" width="10.66" height="10.66"/><rect class="cls-12" x="96" y="53.34" width="10.66" height="10.66"/><rect class="cls-13" x="85.34" y="160" width="10.66" height="10.66"/><rect class="cls-2" x="85.34" y="149.34" width="10.66" height="10.66"/><rect class="cls-2" x="85.34" y="138.66" width="10.66" height="10.67"/><rect class="cls-2" x="85.34" y="128" width="10.66" height="10.66"/><rect class="cls-2" x="85.34" y="117.34" width="10.66" height="10.66"/><rect class="cls-2" x="85.34" y="106.66" width="10.66" height="10.67"/><rect class="cls-2" x="85.34" y="96" width="10.66" height="10.66"/><rect class="cls-2" x="85.34" y="85.34" width="10.66" height="10.66"/><rect class="cls-2" x="85.34" y="74.66" width="10.66" height="10.67"/><rect class="cls-2" x="85.34" y="64" width="10.66" height="10.66"/><rect class="cls-12" x="85.34" y="53.34" width="10.66" height="10.66"/><rect class="cls-14" x="74.66" y="160" width="10.67" height="10.66"/><rect class="cls-2" x="74.66" y="149.34" width="10.67" height="10.66"/><rect class="cls-2" x="74.66" y="138.66" width="10.67" height="10.67"/><rect class="cls-2" x="74.66" y="128" width="10.67" height="10.66"/><rect class="cls-2" x="74.66" y="117.34" width="10.67" height="10.66"/><rect x="74.66" y="106.66" width="10.67" height="10.67"/><rect x="74.66" y="96" width="10.67" height="10.66"/><rect x="74.66" y="85.34" width="10.67" height="10.66"/><rect class="cls-2" x="74.66" y="74.66" width="10.67" height="10.67"/><rect class="cls-2" x="74.66" y="64" width="10.67" height="10.66"/><rect class="cls-12" x="74.66" y="53.34" width="10.67" height="10.66"/><rect class="cls-15" x="64" y="160" width="10.66" height="10.66"/><rect class="cls-2" x="64" y="149.34" width="10.66" height="10.66"/><rect class="cls-2" x="64" y="138.66" width="10.66" height="10.67"/><rect class="cls-2" x="64" y="128" width="10.66" height="10.66"/><rect x="64" y="117.34" width="10.66" height="10.66"/><rect class="cls-2" x="64" y="106.66" width="10.66" height="10.67"/><rect class="cls-2" x="64" y="96" width="10.66" height="10.66"/><rect x="64" y="85.34" width="10.66" height="10.66"/><rect class="cls-2" x="64" y="74.66" width="10.66" height="10.67"/><rect class="cls-2" x="64" y="64" width="10.66" height="10.66"/><rect class="cls-12" x="64" y="53.34" width="10.66" height="10.66"/><rect class="cls-16" x="53.34" y="160" width="10.66" height="10.66"/><rect class="cls-2" x="53.34" y="149.34" width="10.66" height="10.66"/><rect class="cls-2" x="53.34" y="138.66" width="10.66" height="10.67"/><rect class="cls-2" x="53.34" y="128" width="10.66" height="10.66"/><rect x="53.34" y="117.34" width="10.66" height="10.66"/><rect class="cls-2" x="53.34" y="106.66" width="10.66" height="10.67"/><rect class="cls-2" x="53.34" y="96" width="10.66" height="10.66"/><rect x="53.34" y="85.34" width="10.66" height="10.66"/><rect class="cls-2" x="53.34" y="74.66" width="10.66" height="10.67"/><rect class="cls-2" x="53.34" y="64" width="10.66" height="10.66"/><rect class="cls-12" x="53.34" y="53.34" width="10.66" height="10.66"/><rect class="cls-17" x="42.67" y="149.34" width="10.66" height="10.66"/><rect x="42.67" y="138.66" width="10.66" height="10.67"/><rect x="42.67" y="128" width="10.66" height="10.66"/><rect x="42.67" y="117.34" width="10.66" height="10.66"/><rect x="42.67" y="106.66" width="10.66" height="10.67"/><rect x="42.67" y="96" width="10.66" height="10.66"/><rect class="cls-2" x="42.67" y="85.34" width="10.66" height="10.66"/><rect class="cls-2" x="42.67" y="74.66" width="10.66" height="10.67"/><rect class="cls-12" x="42.67" y="64" width="10.66" height="10.66"/><rect class="cls-17" x="32" y="149.34" width="10.67" height="10.66"/><rect class="cls-2" x="32" y="138.66" width="10.67" height="10.67"/><rect class="cls-2" x="32" y="128" width="10.67" height="10.66"/><rect class="cls-2" x="32" y="117.34" width="10.67" height="10.66"/><rect class="cls-2" x="32" y="106.66" width="10.67" height="10.67"/><rect class="cls-2" x="32" y="96" width="10.67" height="10.66"/><rect class="cls-2" x="32" y="85.34" width="10.67" height="10.66"/><rect class="cls-2" x="32" y="74.66" width="10.67" height="10.67"/><rect class="cls-12" x="32" y="64" width="10.67" height="10.66"/><rect class="cls-18" x="21.34" y="138.66" width="10.66" height="10.67"/><rect class="cls-2" x="21.34" y="128" width="10.66" height="10.66"/><rect class="cls-2" x="21.34" y="117.34" width="10.66" height="10.66"/><rect class="cls-2" x="21.34" y="106.66" width="10.66" height="10.67"/><rect class="cls-2" x="21.34" y="96" width="10.66" height="10.66"/><rect class="cls-2" x="21.34" y="85.34" width="10.66" height="10.66"/><rect class="cls-19" x="21.34" y="74.66" width="10.66" height="10.67"/><rect class="cls-20" x="10.67" y="128" width="10.66" height="10.66"/><rect class="cls-2" x="10.67" y="117.34" width="10.66" height="10.66"/><rect class="cls-2" x="10.67" y="106.66" width="10.66" height="10.67"/><rect class="cls-2" x="10.67" y="96" width="10.66" height="10.66"/><rect class="cls-21" x="10.67" y="85.34" width="10.66" height="10.66"/><rect class="cls-22" y="117.34" width="10.67" height="10.66"/><rect class="cls-23" y="106.66" width="10.67" height="10.67"/><rect class="cls-24" y="96" width="10.67" height="10.66"/></svg>