<?xml version="1.0" encoding="utf-8"?>
<svg xmlns="http://www.w3.org/2000/svg" viewBox="-1793.606 -380.9918 217.2879 223.9996" width="217.2879px" height="223.9996px"><g transform="matrix(0.18683399260044098, 0, 0, 0.18682201206684113, -1793.60595703125, -380.9918212890625)" id="object-0"><path d="M 0 149.875 H 48.458 V 199.833 H 0 V 149.875 Z" style="fill: #000000;"/><path d="M 0 199.833 H 48.458 V 249.792 H 0 V 199.833 Z" style="fill: #000000;"/><path d="M 0 249.792 H 48.458 V 299.75 H 0 V 249.792 Z" style="fill: #000000;"/><path d="M 0 299.75 H 48.458 V 349.708 H 0 V 299.75 Z" style="fill: #000000;"/><path d="M 0 349.708 H 48.458 V 399.667 H 0 V 349.708 Z" style="fill: #000000;"/><path d="M 0 399.667 H 48.458 V 449.625 H 0 V 399.667 Z" style="fill: #000000;"/><path d="M 48.458 99.917 H 96.917 V 149.875 H 48.458 V 99.917 Z" style="fill: #000000;"/><path d="M 48.458 149.875 H 96.917 V 199.833 H 48.458 V 149.875 Z" style="fill: #ffffff;"/><path d="M 48.458 199.833 H 96.917 V 249.792 H 48.458 V 199.833 Z" style="fill: #ffffff;"/><path d="M 48.458 249.792 H 96.917 V 299.75 H 48.458 V 249.792 Z" style="fill: #306792;"/><path d="M 48.458 299.75 H 96.917 V 349.708 H 48.458 V 299.75 Z" style="fill: #306792;"/><path d="M 48.458 349.708 H 96.917 V 399.667 H 48.458 V 349.708 Z" style="fill: #ffffff;"/><path d="M 48.458 399.667 H 96.917 V 449.625 H 48.458 V 399.667 Z" style="fill: #ffffff;"/><path d="M 48.458 449.625 H 96.917 V 499.583 H 48.458 V 449.625 Z" style="fill: #ffffff;"/><path d="M 48.458 499.583 H 96.917 V 549.542 H 48.458 V 499.583 Z" style="fill: #ffffff;"/><path d="M 48.458 549.542 H 96.917 V 599.5 H 48.458 V 549.542 Z" style="fill: #000000;"/><path d="M 48.458 599.5 H 96.917 V 649.458 H 48.458 V 599.5 Z" style="fill: #000000;"/><path d="M 96.917 49.958 H 145.375 V 99.917 H 96.917 V 49.958 Z" style="fill: #000000;"/><path d="M 96.917 99.917 H 145.375 V 149.875 H 96.917 V 99.917 Z" style="fill: #ffffff;"/><path d="M 96.917 149.875 H 145.375 V 199.833 H 96.917 V 149.875 Z" style="fill: #306792;"/><path d="M 96.917 199.833 H 145.375 V 249.792 H 96.917 V 199.833 Z" style="fill: #306792;"/><path d="M 96.917 249.792 H 145.375 V 299.75 H 96.917 V 249.792 Z" style="fill: #306792;"/><path d="M 96.917 299.75 H 145.375 V 349.708 H 96.917 V 299.75 Z" style="fill: #306792;"/><path d="M 96.917 349.708 H 145.375 V 399.667 H 96.917 V 349.708 Z" style="fill: #306792;"/><path d="M 96.917 399.667 H 145.375 V 449.625 H 96.917 V 399.667 Z" style="fill: #306792;"/><path d="M 96.917 449.625 H 145.375 V 499.583 H 96.917 V 449.625 Z" style="fill: #306792;"/><path d="M 96.917 499.583 H 145.375 V 549.542 H 96.917 V 499.583 Z" style="fill: #306792;"/><path d="M 96.917 549.542 H 145.375 V 599.5 H 96.917 V 549.542 Z" style="fill: #306792;"/><path d="M 96.917 599.5 H 145.375 V 649.458 H 96.917 V 599.5 Z" style="fill: #ffffff;"/><path d="M 96.917 649.458 H 145.375 V 699.417 H 96.917 V 649.458 Z" style="fill: #ffffff;"/><path d="M 96.917 699.417 H 145.375 V 749.375 H 96.917 V 699.417 Z" style="fill: #000000;"/><path d="M 145.375 49.958 H 193.833 V 99.917 H 145.375 V 49.958 Z" style="fill: #ffffff;"/><path d="M 145.375 99.917 H 193.833 V 149.875 H 145.375 V 99.917 Z" style="fill: #306792;"/><path d="M 145.375 149.875 H 193.833 V 199.833 H 145.375 V 149.875 Z" style="fill: #306792;"/><path d="M 145.375 199.833 H 193.833 V 249.792 H 145.375 V 199.833 Z" style="fill: #306792;"/><path d="M 145.375 249.792 H 193.833 V 299.75 H 145.375 V 249.792 Z" style="fill: #306792;"/><path d="M 145.375 299.75 H 193.833 V 349.708 H 145.375 V 299.75 Z" style="fill: #306792;"/><path d="M 145.375 349.708 H 193.833 V 399.667 H 145.375 V 349.708 Z" style="fill: #306792;"/><path d="M 145.375 399.667 H 193.833 V 449.625 H 145.375 V 399.667 Z" style="fill: #306792;"/><path d="M 145.375 449.625 H 193.833 V 499.583 H 145.375 V 449.625 Z" style="fill: #306792;"/><path d="M 145.375 499.583 H 193.833 V 549.542 H 145.375 V 499.583 Z" style="fill: #306792;"/><path d="M 145.375 549.542 H 193.833 V 599.5 H 145.375 V 549.542 Z" style="fill: #306792;"/><path d="M 145.375 599.5 H 193.833 V 649.458 H 145.375 V 599.5 Z" style="fill: #306792;"/><path d="M 145.375 649.458 H 193.833 V 699.417 H 145.375 V 649.458 Z" style="fill: #306792;"/><path d="M 145.375 699.417 H 193.833 V 749.375 H 145.375 V 699.417 Z" style="fill: #ffffff;"/><path d="M 145.375 749.375 H 193.833 V 799.333 H 145.375 V 749.375 Z" style="fill: #ffffff;"/><path d="M 145.375 799.333 H 193.833 V 849.292 H 145.375 V 799.333 Z" style="fill: #000000;"/><path d="M 193.833 0 H 242.292 V 49.958 H 193.833 V 0 Z" style="fill: #000000;"/><path d="M 193.833 49.958 H 242.292 V 99.917 H 193.833 V 49.958 Z" style="fill: #ffffff;"/><path d="M 193.833 99.917 H 242.292 V 149.875 H 193.833 V 99.917 Z" style="fill: #306792;"/><path d="M 193.833 149.875 H 242.292 V 199.833 H 193.833 V 149.875 Z" style="fill: #306792;"/><path d="M 193.833 199.833 H 242.292 V 249.792 H 193.833 V 199.833 Z" style="fill: #306792;"/><path d="M 193.833 249.792 H 242.292 V 299.75 H 193.833 V 249.792 Z" style="fill: #306792;"/><path d="M 193.833 299.75 H 242.292 V 349.708 H 193.833 V 299.75 Z" style="fill: #306792;"/><path d="M 193.833 349.708 H 242.292 V 399.667 H 193.833 V 349.708 Z" style="fill: #306792;"/><path d="M 193.833 399.667 H 242.292 V 449.625 H 193.833 V 399.667 Z" style="fill: #306792;"/><path d="M 193.833 449.625 H 242.292 V 499.583 H 193.833 V 449.625 Z" style="fill: #306792;"/><path d="M 193.833 499.583 H 242.292 V 549.542 H 193.833 V 499.583 Z" style="fill: #306792;"/><path d="M 193.833 549.542 H 242.292 V 599.5 H 193.833 V 549.542 Z" style="fill: #306792;"/><path d="M 193.833 599.5 H 242.292 V 649.458 H 193.833 V 599.5 Z" style="fill: #306792;"/><path d="M 193.833 649.458 H 242.292 V 699.417 H 193.833 V 649.458 Z" style="fill: #306792;"/><path d="M 193.833 699.417 H 242.292 V 749.375 H 193.833 V 699.417 Z" style="fill: #306792;"/><path d="M 193.833 749.375 H 242.292 V 799.333 H 193.833 V 749.375 Z" style="fill: #306792;"/><path d="M 193.833 799.333 H 242.292 V 849.292 H 193.833 V 799.333 Z" style="fill: #ffffff;"/><path d="M 193.833 849.292 H 242.292 V 899.25 H 193.833 V 849.292 Z" style="fill: #000000;"/><path d="M 242.292 0 H 290.75 V 49.958 H 242.292 V 0 Z" style="fill: #000000;"/><path d="M 242.292 49.958 H 290.75 V 99.917 H 242.292 V 49.958 Z" style="fill: #ffffff;"/><path d="M 242.292 99.917 H 290.75 V 149.875 H 242.292 V 99.917 Z" style="fill: #306792;"/><path d="M 242.292 149.875 H 290.75 V 199.833 H 242.292 V 149.875 Z" style="fill: #306792;"/><path d="M 242.292 199.833 H 290.75 V 249.792 H 242.292 V 199.833 Z" style="fill: #306792;"/><path d="M 242.292 249.792 H 290.75 V 299.75 H 242.292 V 249.792 Z" style="fill: #306792;"/><path d="M 242.292 299.75 H 290.75 V 349.708 H 242.292 V 299.75 Z" style="fill: #306792;"/><path d="M 242.292 349.708 H 290.75 V 399.667 H 242.292 V 349.708 Z" style="fill: #306792;"/><path d="M 242.292 399.667 H 290.75 V 449.625 H 242.292 V 399.667 Z" style="fill: #306792;"/><path d="M 242.292 449.625 H 290.75 V 499.583 H 242.292 V 449.625 Z" style="fill: #306792;"/><path d="M 242.292 499.583 H 290.75 V 549.542 H 242.292 V 499.583 Z" style="fill: #306792;"/><path d="M 242.292 549.542 H 290.75 V 599.5 H 242.292 V 549.542 Z" style="fill: #306792;"/><path d="M 242.292 599.5 H 290.75 V 649.458 H 242.292 V 599.5 Z" style="fill: #306792;"/><path d="M 242.292 649.458 H 290.75 V 699.417 H 242.292 V 649.458 Z" style="fill: #306792;"/><path d="M 242.292 699.417 H 290.75 V 749.375 H 242.292 V 699.417 Z" style="fill: #306792;"/><path d="M 242.292 749.375 H 290.75 V 799.333 H 242.292 V 749.375 Z" style="fill: #306792;"/><path d="M 242.292 799.333 H 290.75 V 849.292 H 242.292 V 799.333 Z" style="fill: #f9fafc;"/><path d="M 242.292 849.292 H 290.75 V 899.25 H 242.292 V 849.292 Z" style="fill: #000000;"/><path d="M 290.75 0 H 339.208 V 49.958 H 290.75 V 0 Z" style="fill: #000000;"/><path d="M 290.75 49.958 H 339.208 V 99.917 H 290.75 V 49.958 Z" style="fill: #ffffff;"/><path d="M 290.75 99.917 H 339.208 V 149.875 H 290.75 V 99.917 Z" style="fill: #306792;"/><path d="M 290.75 149.875 H 339.208 V 199.833 H 290.75 V 149.875 Z" style="fill: #306792;"/><path d="M 290.75 199.833 H 339.208 V 249.792 H 290.75 V 199.833 Z" style="fill: #306792;"/><path d="M 290.75 249.792 H 339.208 V 299.75 H 290.75 V 249.792 Z" style="fill: #306792;"/><path d="M 290.75 299.75 H 339.208 V 349.708 H 290.75 V 299.75 Z" style="fill: #306792;"/><path d="M 290.75 349.708 H 339.208 V 399.667 H 290.75 V 349.708 Z" style="fill: #306792;"/><path d="M 290.75 399.667 H 339.208 V 449.625 H 290.75 V 399.667 Z" style="fill: #306792;"/><path d="M 290.75 449.625 H 339.208 V 499.583 H 290.75 V 449.625 Z" style="fill: #306792;"/><path d="M 290.75 499.583 H 339.208 V 549.542 H 290.75 V 499.583 Z" style="fill: #306792;"/><path d="M 290.75 549.542 H 339.208 V 599.5 H 290.75 V 549.542 Z" style="fill: #306792;"/><path d="M 290.75 599.5 H 339.208 V 649.458 H 290.75 V 599.5 Z" style="fill: #306792;"/><path d="M 290.75 649.458 H 339.208 V 699.417 H 290.75 V 649.458 Z" style="fill: #306792;"/><path d="M 290.75 699.417 H 339.208 V 749.375 H 290.75 V 699.417 Z" style="fill: #306792;"/><path d="M 290.75 749.375 H 339.208 V 799.333 H 290.75 V 749.375 Z" style="fill: #306792;"/><path d="M 290.75 799.333 H 339.208 V 849.292 H 290.75 V 799.333 Z" style="fill: #ffffff;"/><path d="M 290.75 849.292 H 339.208 V 899.25 H 290.75 V 849.292 Z" style="fill: #000000;"/><path d="M 339.208 0 H 387.667 V 49.958 H 339.208 V 0 Z" style="fill: rgba(0,0,0,0.98);"/><path d="M 339.208 49.958 H 387.667 V 99.917 H 339.208 V 49.958 Z" style="fill: #ffffff;"/><path d="M 339.208 99.917 H 387.667 V 149.875 H 339.208 V 99.917 Z" style="fill: #306792;"/><path d="M 339.208 149.875 H 387.667 V 199.833 H 339.208 V 149.875 Z" style="fill: #306792;"/><path d="M 339.208 199.833 H 387.667 V 249.792 H 339.208 V 199.833 Z" style="fill: #306792;"/><path d="M 339.208 249.792 H 387.667 V 299.75 H 339.208 V 249.792 Z" style="fill: #ffffff;"/><path d="M 339.208 299.75 H 387.667 V 349.708 H 339.208 V 299.75 Z" style="fill: #ffffff;"/><path d="M 339.208 349.708 H 387.667 V 399.667 H 339.208 V 349.708 Z" style="fill: #ffffff;"/><path d="M 339.208 399.667 H 387.667 V 449.625 H 339.208 V 399.667 Z" style="fill: #ffffff;"/><path d="M 339.208 449.625 H 387.667 V 499.583 H 339.208 V 449.625 Z" style="fill: #ffffff;"/><path d="M 339.208 499.583 H 387.667 V 549.542 H 339.208 V 499.583 Z" style="fill: #ffffff;"/><path d="M 339.208 549.542 H 387.667 V 599.5 H 339.208 V 549.542 Z" style="fill: #ffffff;"/><path d="M 339.208 599.5 H 387.667 V 649.458 H 339.208 V 599.5 Z" style="fill: #ffffff;"/><path d="M 339.208 649.458 H 387.667 V 699.417 H 339.208 V 649.458 Z" style="fill: #306792;"/><path d="M 339.208 699.417 H 387.667 V 749.375 H 339.208 V 699.417 Z" style="fill: #306792;"/><path d="M 339.208 749.375 H 387.667 V 799.333 H 339.208 V 749.375 Z" style="fill: #ffffff;"/><path d="M 339.208 799.333 H 387.667 V 849.292 H 339.208 V 799.333 Z" style="fill: #ffffff;"/><path d="M 339.208 849.292 H 387.667 V 899.25 H 339.208 V 849.292 Z" style="fill: #000000;"/><path d="M 387.667 49.958 H 436.125 V 99.917 H 387.667 V 49.958 Z" style="fill: #ffffff;"/><path d="M 387.667 99.917 H 436.125 V 149.875 H 387.667 V 99.917 Z" style="fill: #306792;"/><path d="M 387.667 149.875 H 436.125 V 199.833 H 387.667 V 149.875 Z" style="fill: #ffffff;"/><path d="M 387.667 199.833 H 436.125 V 249.792 H 387.667 V 199.833 Z" style="fill: #306792;"/><path d="M 387.667 249.792 H 436.125 V 299.75 H 387.667 V 249.792 Z" style="fill: #306792;"/><path d="M 387.667 299.75 H 436.125 V 349.708 H 387.667 V 299.75 Z" style="fill: #306792;"/><path d="M 387.667 349.708 H 436.125 V 399.667 H 387.667 V 349.708 Z" style="fill: #306792;"/><path d="M 387.667 399.667 H 436.125 V 449.625 H 387.667 V 399.667 Z" style="fill: #306792;"/><path d="M 387.667 449.625 H 436.125 V 499.583 H 387.667 V 449.625 Z" style="fill: #306792;"/><path d="M 387.667 499.583 H 436.125 V 549.542 H 387.667 V 499.583 Z" style="fill: #306792;"/><path d="M 387.667 549.542 H 436.125 V 599.5 H 387.667 V 549.542 Z" style="fill: #306792;"/><path d="M 387.667 599.5 H 436.125 V 649.458 H 387.667 V 599.5 Z" style="fill: #306792;"/><path d="M 387.667 649.458 H 436.125 V 699.417 H 387.667 V 649.458 Z" style="fill: #ffffff;"/><path d="M 387.667 699.417 H 436.125 V 749.375 H 387.667 V 699.417 Z" style="fill: #ffffff;"/><path d="M 387.667 749.375 H 436.125 V 799.333 H 387.667 V 749.375 Z" style="fill: #000000;"/><path d="M 387.667 799.333 H 436.125 V 849.292 H 387.667 V 799.333 Z" style="fill: #306792;"/><path d="M 387.667 849.292 H 436.125 V 899.25 H 387.667 V 849.292 Z" style="fill: #000000;"/><path d="M 436.125 49.958 H 484.583 V 99.917 H 436.125 V 49.958 Z" style="fill: #000000;"/><path d="M 436.125 99.917 H 484.583 V 149.875 H 436.125 V 99.917 Z" style="fill: #ffffff;"/><path d="M 436.125 149.875 H 484.583 V 199.833 H 436.125 V 149.875 Z" style="fill: #306792;"/><path d="M 436.125 199.833 H 484.583 V 249.792 H 436.125 V 199.833 Z" style="fill: #306792;"/><path d="M 436.125 249.792 H 484.583 V 299.75 H 436.125 V 249.792 Z" style="fill: #306792;"/><path d="M 436.125 299.75 H 484.583 V 349.708 H 436.125 V 299.75 Z" style="fill: #ffffff;"/><path d="M 436.125 349.708 H 484.583 V 399.667 H 436.125 V 349.708 Z" style="fill: #356b95;"/><path d="M 436.125 399.667 H 484.583 V 449.625 H 436.125 V 399.667 Z" style="fill: #306792;"/><path d="M 436.125 449.625 H 484.583 V 499.583 H 436.125 V 449.625 Z" style="fill: #306792;"/><path d="M 436.125 499.583 H 484.583 V 549.542 H 436.125 V 499.583 Z" style="fill: #306792;"/><path d="M 436.125 549.542 H 484.583 V 599.5 H 436.125 V 549.542 Z" style="fill: #306792;"/><path d="M 436.125 599.5 H 484.583 V 649.458 H 436.125 V 599.5 Z" style="fill: #306792;"/><path d="M 436.125 649.458 H 484.583 V 699.417 H 436.125 V 649.458 Z" style="fill: #306792;"/><path d="M 436.125 699.417 H 484.583 V 749.375 H 436.125 V 699.417 Z" style="fill: #ffffff;"/><path d="M 436.125 749.375 H 484.583 V 799.333 H 436.125 V 749.375 Z" style="fill: #ffffff;"/><path d="M 436.125 799.333 H 484.583 V 849.292 H 436.125 V 799.333 Z" style="fill: #306792;"/><path d="M 436.125 849.292 H 484.583 V 899.25 H 436.125 V 849.292 Z" style="fill: #060606;"/><path d="M 484.583 49.958 H 533.042 V 99.917 H 484.583 V 49.958 Z" style="fill: #ffffff;"/><path d="M 484.583 99.917 H 533.042 V 149.875 H 484.583 V 99.917 Z" style="fill: #306792;"/><path d="M 484.583 149.875 H 533.042 V 199.833 H 484.583 V 149.875 Z" style="fill: #306792;"/><path d="M 484.583 199.833 H 533.042 V 249.792 H 484.583 V 199.833 Z" style="fill: #306792;"/><path d="M 484.583 249.792 H 533.042 V 299.75 H 484.583 V 249.792 Z" style="fill: #306792;"/><path d="M 484.583 299.75 H 533.042 V 349.708 H 484.583 V 299.75 Z" style="fill: #ffffff;"/><path d="M 484.583 349.708 H 533.042 V 399.667 H 484.583 V 349.708 Z" style="fill: #ffffff;"/><path d="M 484.583 399.667 H 533.042 V 449.625 H 484.583 V 399.667 Z" style="fill: #306792;"/><path d="M 484.583 449.625 H 533.042 V 499.583 H 484.583 V 449.625 Z" style="fill: #306792;"/><path d="M 484.583 499.583 H 533.042 V 549.542 H 484.583 V 499.583 Z" style="fill: #306792;"/><path d="M 484.583 549.542 H 533.042 V 599.5 H 484.583 V 549.542 Z" style="fill: #306792;"/><path d="M 484.583 599.5 H 533.042 V 649.458 H 484.583 V 599.5 Z" style="fill: #306792;"/><path d="M 484.583 649.458 H 533.042 V 699.417 H 484.583 V 649.458 Z" style="fill: #ffffff;"/><path d="M 484.583 699.417 H 533.042 V 749.375 H 484.583 V 699.417 Z" style="fill: #ffffff;"/><path d="M 484.583 749.375 H 533.042 V 799.333 H 484.583 V 749.375 Z" style="fill: #306792;"/><path d="M 484.583 799.333 H 533.042 V 849.292 H 484.583 V 799.333 Z" style="fill: #306792;"/><path d="M 484.583 849.292 H 533.042 V 899.25 H 484.583 V 849.292 Z" style="fill: #000000;"/><path d="M 533.042 0 H 581.5 V 49.958 H 533.042 V 0 Z" style="fill: #000000;"/><path d="M 533.042 49.958 H 581.5 V 99.917 H 533.042 V 49.958 Z" style="fill: #ffffff;"/><path d="M 533.042 99.917 H 581.5 V 149.875 H 533.042 V 99.917 Z" style="fill: #306792;"/><path d="M 533.042 149.875 H 581.5 V 199.833 H 533.042 V 149.875 Z" style="fill: #306792;"/><path d="M 533.042 199.833 H 581.5 V 249.792 H 533.042 V 199.833 Z" style="fill: #306792;"/><path d="M 533.042 249.792 H 581.5 V 299.75 H 533.042 V 249.792 Z" style="fill: #306792;"/><path d="M 533.042 299.75 H 581.5 V 349.708 H 533.042 V 299.75 Z" style="fill: #306792;"/><path d="M 533.042 349.708 H 581.5 V 399.667 H 533.042 V 349.708 Z" style="fill: #ffffff;"/><path d="M 533.042 399.667 H 581.5 V 449.625 H 533.042 V 399.667 Z" style="fill: #ffffff;"/><path d="M 533.042 449.625 H 581.5 V 499.583 H 533.042 V 449.625 Z" style="fill: #ffffff;"/><path d="M 533.042 499.583 H 581.5 V 549.542 H 533.042 V 499.583 Z" style="fill: #ffffff;"/><path d="M 533.042 549.542 H 581.5 V 599.5 H 533.042 V 549.542 Z" style="fill: #ffffff;"/><path d="M 533.042 599.5 H 581.5 V 649.458 H 533.042 V 599.5 Z" style="fill: #306792;"/><path d="M 533.042 649.458 H 581.5 V 699.417 H 533.042 V 649.458 Z" style="fill: #306792;"/><path d="M 533.042 699.417 H 581.5 V 749.375 H 533.042 V 699.417 Z" style="fill: #ffffff;"/><path d="M 533.042 749.375 H 581.5 V 799.333 H 533.042 V 749.375 Z" style="fill: #306792;"/><path d="M 533.042 799.333 H 581.5 V 849.292 H 533.042 V 799.333 Z" style="fill: #ffffff;"/><path d="M 533.042 849.292 H 581.5 V 899.25 H 533.042 V 849.292 Z" style="fill: #000000;"/><path d="M 533.042 899.25 H 581.5 V 949.208 H 533.042 V 899.25 Z" style="fill: #000000;"/><path d="M 533.042 949.208 H 581.5 V 999.167 H 533.042 V 949.208 Z" style="fill: #000000;"/><path d="M 533.042 999.167 H 581.5 V 1049.125 H 533.042 V 999.167 Z" style="fill: #000000;"/><path d="M 533.042 1049.125 H 581.5 V 1099.083 H 533.042 V 1049.125 Z" style="fill: #000000;"/><path d="M 581.5 0 H 629.958 V 49.958 H 581.5 V 0 Z" style="fill: #000000;"/><path d="M 581.5 49.958 H 629.958 V 99.917 H 581.5 V 49.958 Z" style="fill: #ffffff;"/><path d="M 581.5 99.917 H 629.958 V 149.875 H 581.5 V 99.917 Z" style="fill: #306792;"/><path d="M 581.5 149.875 H 629.958 V 199.833 H 581.5 V 149.875 Z" style="fill: #306792;"/><path d="M 581.5 199.833 H 629.958 V 249.792 H 581.5 V 199.833 Z" style="fill: #306792;"/><path d="M 581.5 249.792 H 629.958 V 299.75 H 581.5 V 249.792 Z" style="fill: #306792;"/><path d="M 581.5 299.75 H 629.958 V 349.708 H 581.5 V 299.75 Z" style="fill: #306792;"/><path d="M 581.5 349.708 H 629.958 V 399.667 H 581.5 V 349.708 Z" style="fill: #306792;"/><path d="M 581.5 399.667 H 629.958 V 449.625 H 581.5 V 399.667 Z" style="fill: #306792;"/><path d="M 581.5 449.625 H 629.958 V 499.583 H 581.5 V 449.625 Z" style="fill: #306792;"/><path d="M 581.5 499.583 H 629.958 V 549.542 H 581.5 V 499.583 Z" style="fill: #306792;"/><path d="M 581.5 549.542 H 629.958 V 599.5 H 581.5 V 549.542 Z" style="fill: #306792;"/><path d="M 581.5 599.5 H 629.958 V 649.458 H 581.5 V 599.5 Z" style="fill: #306792;"/><path d="M 581.5 649.458 H 629.958 V 699.417 H 581.5 V 649.458 Z" style="fill: #306792;"/><path d="M 581.5 699.417 H 629.958 V 749.375 H 581.5 V 699.417 Z" style="fill: #306792;"/><path d="M 581.5 749.375 H 629.958 V 799.333 H 581.5 V 749.375 Z" style="fill: #306792;"/><path d="M 581.5 799.333 H 629.958 V 849.292 H 581.5 V 799.333 Z" style="fill: #306792;"/><path d="M 581.5 849.292 H 629.958 V 899.25 H 581.5 V 849.292 Z" style="fill: #306792;"/><path d="M 581.5 899.25 H 629.958 V 949.208 H 581.5 V 899.25 Z" style="fill: #306792;"/><path d="M 581.5 949.208 H 629.958 V 999.167 H 581.5 V 949.208 Z" style="fill: #306792;"/><path d="M 581.5 999.167 H 629.958 V 1049.125 H 581.5 V 999.167 Z" style="fill: #306792;"/><path d="M 581.5 1049.125 H 629.958 V 1099.083 H 581.5 V 1049.125 Z" style="fill: #ffffff;"/><path d="M 581.5 1099.083 H 629.958 V 1149.042 H 581.5 V 1099.083 Z" style="fill: #ffffff;"/><path d="M 629.958 0 H 678.417 V 49.958 H 629.958 V 0 Z" style="fill: #000000;"/><path d="M 629.958 49.958 H 678.417 V 99.917 H 629.958 V 49.958 Z" style="fill: #ffffff;"/><path d="M 629.958 99.917 H 678.417 V 149.875 H 629.958 V 99.917 Z" style="fill: #306792;"/><path d="M 629.958 149.875 H 678.417 V 199.833 H 629.958 V 149.875 Z" style="fill: #306792;"/><path d="M 629.958 199.833 H 678.417 V 249.792 H 629.958 V 199.833 Z" style="fill: #306792;"/><path d="M 629.958 249.792 H 678.417 V 299.75 H 629.958 V 249.792 Z" style="fill: #306792;"/><path d="M 629.958 299.75 H 678.417 V 349.708 H 629.958 V 299.75 Z" style="fill: #306792;"/><path d="M 629.958 349.708 H 678.417 V 399.667 H 629.958 V 349.708 Z" style="fill: #306792;"/><path d="M 629.958 399.667 H 678.417 V 449.625 H 629.958 V 399.667 Z" style="fill: #306792;"/><path d="M 629.958 449.625 H 678.417 V 499.583 H 629.958 V 449.625 Z" style="fill: #306792;"/><path d="M 629.958 499.583 H 678.417 V 549.542 H 629.958 V 499.583 Z" style="fill: #306792;"/><path d="M 629.958 549.542 H 678.417 V 599.5 H 629.958 V 549.542 Z" style="fill: #306792;"/><path d="M 629.958 599.5 H 678.417 V 649.458 H 629.958 V 599.5 Z" style="fill: #306792;"/><path d="M 629.958 649.458 H 678.417 V 699.417 H 629.958 V 649.458 Z" style="fill: #306792;"/><path d="M 629.958 699.417 H 678.417 V 749.375 H 629.958 V 699.417 Z" style="fill: #306792;"/><path d="M 629.958 749.375 H 678.417 V 799.333 H 629.958 V 749.375 Z" style="fill: #306792;"/><path d="M 629.958 799.333 H 678.417 V 849.292 H 629.958 V 799.333 Z" style="fill: #306792;"/><path d="M 629.958 849.292 H 678.417 V 899.25 H 629.958 V 849.292 Z" style="fill: #306792;"/><path d="M 629.958 899.25 H 678.417 V 949.208 H 629.958 V 899.25 Z" style="fill: #306792;"/><path d="M 629.958 949.208 H 678.417 V 999.167 H 629.958 V 949.208 Z" style="fill: #306792;"/><path d="M 629.958 999.167 H 678.417 V 1049.125 H 629.958 V 999.167 Z" style="fill: #306792;"/><path d="M 629.958 1049.125 H 678.417 V 1099.083 H 629.958 V 1049.125 Z" style="fill: #306792;"/><path d="M 629.958 1099.083 H 678.417 V 1149.042 H 629.958 V 1099.083 Z" style="fill: #fbfcfd;"/><path d="M 629.958 1149.042 H 678.417 V 1199 H 629.958 V 1149.042 Z" style="fill: #000000;"/><path d="M 678.417 0 H 726.875 V 49.958 H 678.417 V 0 Z" style="fill: #000000;"/><path d="M 678.417 49.958 H 726.875 V 99.917 H 678.417 V 49.958 Z" style="fill: #ffffff;"/><path d="M 678.417 99.917 H 726.875 V 149.875 H 678.417 V 99.917 Z" style="fill: #306792;"/><path d="M 678.417 149.875 H 726.875 V 199.833 H 678.417 V 149.875 Z" style="fill: #306792;"/><path d="M 678.417 199.833 H 726.875 V 249.792 H 678.417 V 199.833 Z" style="fill: #306792;"/><path d="M 678.417 249.792 H 726.875 V 299.75 H 678.417 V 249.792 Z" style="fill: #306792;"/><path d="M 678.417 299.75 H 726.875 V 349.708 H 678.417 V 299.75 Z" style="fill: #306792;"/><path d="M 678.417 349.708 H 726.875 V 399.667 H 678.417 V 349.708 Z" style="fill: #306792;"/><path d="M 678.417 399.667 H 726.875 V 449.625 H 678.417 V 399.667 Z" style="fill: #306792;"/><path d="M 678.417 449.625 H 726.875 V 499.583 H 678.417 V 449.625 Z" style="fill: #306792;"/><path d="M 678.417 499.583 H 726.875 V 549.542 H 678.417 V 499.583 Z" style="fill: #306792;"/><path d="M 678.417 549.542 H 726.875 V 599.5 H 678.417 V 549.542 Z" style="fill: #306792;"/><path d="M 678.417 599.5 H 726.875 V 649.458 H 678.417 V 599.5 Z" style="fill: #306792;"/><path d="M 678.417 649.458 H 726.875 V 699.417 H 678.417 V 649.458 Z" style="fill: #306792;"/><path d="M 678.417 699.417 H 726.875 V 749.375 H 678.417 V 699.417 Z" style="fill: #306792;"/><path d="M 678.417 749.375 H 726.875 V 799.333 H 678.417 V 749.375 Z" style="fill: #306792;"/><path d="M 678.417 799.333 H 726.875 V 849.292 H 678.417 V 799.333 Z" style="fill: #306792;"/><path d="M 678.417 849.292 H 726.875 V 899.25 H 678.417 V 849.292 Z" style="fill: #306792;"/><path d="M 678.417 899.25 H 726.875 V 949.208 H 678.417 V 899.25 Z" style="fill: #306792;"/><path d="M 678.417 949.208 H 726.875 V 999.167 H 678.417 V 949.208 Z" style="fill: #306792;"/><path d="M 678.417 999.167 H 726.875 V 1049.125 H 678.417 V 999.167 Z" style="fill: #306792;"/><path d="M 678.417 1049.125 H 726.875 V 1099.083 H 678.417 V 1049.125 Z" style="fill: #306792;"/><path d="M 678.417 1099.083 H 726.875 V 1149.042 H 678.417 V 1099.083 Z" style="fill: #306792;"/><path d="M 678.417 1149.042 H 726.875 V 1199 H 678.417 V 1149.042 Z" style="fill: #000000;"/><path d="M 726.875 0 H 775.333 V 49.958 H 726.875 V 0 Z" style="fill: #000000;"/><path d="M 726.875 49.958 H 775.333 V 99.917 H 726.875 V 49.958 Z" style="fill: #9ab5c9;"/><path d="M 726.875 99.917 H 775.333 V 149.875 H 726.875 V 99.917 Z" style="fill: #306792;"/><path d="M 726.875 149.875 H 775.333 V 199.833 H 726.875 V 149.875 Z" style="fill: #306792;"/><path d="M 726.875 199.833 H 775.333 V 249.792 H 726.875 V 199.833 Z" style="fill: #306792;"/><path d="M 726.875 249.792 H 775.333 V 299.75 H 726.875 V 249.792 Z" style="fill: #306792;"/><path d="M 726.875 299.75 H 775.333 V 349.708 H 726.875 V 299.75 Z" style="fill: #306792;"/><path d="M 726.875 349.708 H 775.333 V 399.667 H 726.875 V 349.708 Z" style="fill: #306792;"/><path d="M 726.875 399.667 H 775.333 V 449.625 H 726.875 V 399.667 Z" style="fill: #306792;"/><path d="M 726.875 449.625 H 775.333 V 499.583 H 726.875 V 449.625 Z" style="fill: #306792;"/><path d="M 726.875 499.583 H 775.333 V 549.542 H 726.875 V 499.583 Z" style="fill: #306792;"/><path d="M 726.875 549.542 H 775.333 V 599.5 H 726.875 V 549.542 Z" style="fill: #306792;"/><path d="M 726.875 599.5 H 775.333 V 649.458 H 726.875 V 599.5 Z" style="fill: #306792;"/><path d="M 726.875 649.458 H 775.333 V 699.417 H 726.875 V 649.458 Z" style="fill: #306792;"/><path d="M 726.875 699.417 H 775.333 V 749.375 H 726.875 V 699.417 Z" style="fill: #306792;"/><path d="M 726.875 749.375 H 775.333 V 799.333 H 726.875 V 749.375 Z" style="fill: #306792;"/><path d="M 726.875 799.333 H 775.333 V 849.292 H 726.875 V 799.333 Z" style="fill: #306792;"/><path d="M 726.875 849.292 H 775.333 V 899.25 H 726.875 V 849.292 Z" style="fill: #306792;"/><path d="M 726.875 899.25 H 775.333 V 949.208 H 726.875 V 899.25 Z" style="fill: #306792;"/><path d="M 726.875 949.208 H 775.333 V 999.167 H 726.875 V 949.208 Z" style="fill: #306792;"/><path d="M 726.875 999.167 H 775.333 V 1049.125 H 726.875 V 999.167 Z" style="fill: #306792;"/><path d="M 726.875 1049.125 H 775.333 V 1099.083 H 726.875 V 1049.125 Z" style="fill: #306792;"/><path d="M 726.875 1099.083 H 775.333 V 1149.042 H 726.875 V 1099.083 Z" style="fill: #a1b9cd;"/><path d="M 726.875 1149.042 H 775.333 V 1199 H 726.875 V 1149.042 Z" style="fill: #000000;"/><path d="M 775.333 0 H 823.792 V 49.958 H 775.333 V 0 Z" style="fill: #000000;"/><path d="M 775.333 49.958 H 823.792 V 99.917 H 775.333 V 49.958 Z" style="fill: #306792;"/><path d="M 775.333 99.917 H 823.792 V 149.875 H 775.333 V 99.917 Z" style="fill: #ffffff;"/><path d="M 775.333 149.875 H 823.792 V 199.833 H 775.333 V 149.875 Z" style="fill: #306792;"/><path d="M 775.333 199.833 H 823.792 V 249.792 H 775.333 V 199.833 Z" style="fill: #306792;"/><path d="M 775.333 249.792 H 823.792 V 299.75 H 775.333 V 249.792 Z" style="fill: #306792;"/><path d="M 775.333 299.75 H 823.792 V 349.708 H 775.333 V 299.75 Z" style="fill: #306792;"/><path d="M 775.333 349.708 H 823.792 V 399.667 H 775.333 V 349.708 Z" style="fill: #ffffff;"/><path d="M 775.333 399.667 H 823.792 V 449.625 H 775.333 V 399.667 Z" style="fill: #ffffff;"/><path d="M 775.333 449.625 H 823.792 V 499.583 H 775.333 V 449.625 Z" style="fill: #ffffff;"/><path d="M 775.333 499.583 H 823.792 V 549.542 H 775.333 V 499.583 Z" style="fill: #306792;"/><path d="M 775.333 549.542 H 823.792 V 599.5 H 775.333 V 549.542 Z" style="fill: #306792;"/><path d="M 775.333 599.5 H 823.792 V 649.458 H 775.333 V 599.5 Z" style="fill: #306792;"/><path d="M 775.333 649.458 H 823.792 V 699.417 H 775.333 V 649.458 Z" style="fill: #306792;"/><path d="M 775.333 699.417 H 823.792 V 749.375 H 775.333 V 699.417 Z" style="fill: #306792;"/><path d="M 775.333 749.375 H 823.792 V 799.333 H 775.333 V 749.375 Z" style="fill: #306792;"/><path d="M 775.333 799.333 H 823.792 V 849.292 H 775.333 V 799.333 Z" style="fill: #306792;"/><path d="M 775.333 849.292 H 823.792 V 899.25 H 775.333 V 849.292 Z" style="fill: #306792;"/><path d="M 775.333 899.25 H 823.792 V 949.208 H 775.333 V 899.25 Z" style="fill: #306792;"/><path d="M 775.333 949.208 H 823.792 V 999.167 H 775.333 V 949.208 Z" style="fill: #306792;"/><path d="M 775.333 999.167 H 823.792 V 1049.125 H 775.333 V 999.167 Z" style="fill: #306792;"/><path d="M 775.333 1049.125 H 823.792 V 1099.083 H 775.333 V 1049.125 Z" style="fill: #306792;"/><path d="M 775.333 1099.083 H 823.792 V 1149.042 H 775.333 V 1099.083 Z" style="fill: #ffffff;"/><path d="M 823.792 0 H 872.25 V 49.958 H 823.792 V 0 Z" style="fill: #000000;"/><path d="M 823.792 49.958 H 872.25 V 99.917 H 823.792 V 49.958 Z" style="fill: #306792;"/><path d="M 823.792 99.917 H 872.25 V 149.875 H 823.792 V 99.917 Z" style="fill: #306792;"/><path d="M 823.792 149.875 H 872.25 V 199.833 H 823.792 V 149.875 Z" style="fill: #ffffff;"/><path d="M 823.792 199.833 H 872.25 V 249.792 H 823.792 V 199.833 Z" style="fill: #306792;"/><path d="M 823.792 249.792 H 872.25 V 299.75 H 823.792 V 249.792 Z" style="fill: #306792;"/><path d="M 823.792 299.75 H 872.25 V 349.708 H 823.792 V 299.75 Z" style="fill: #ffffff;"/><path d="M 823.792 349.708 H 872.25 V 399.667 H 823.792 V 349.708 Z" style="fill: #ffffff;"/><path d="M 823.792 399.667 H 872.25 V 449.625 H 823.792 V 399.667 Z" style="fill: #306792;"/><path d="M 823.792 449.625 H 872.25 V 499.583 H 823.792 V 449.625 Z" style="fill: #306792;"/><path d="M 823.792 499.583 H 872.25 V 549.542 H 823.792 V 499.583 Z" style="fill: #ffffff;"/><path d="M 823.792 549.542 H 872.25 V 599.5 H 823.792 V 549.542 Z" style="fill: #ffffff;"/><path d="M 823.792 599.5 H 872.25 V 649.458 H 823.792 V 599.5 Z" style="fill: #306792;"/><path d="M 823.792 649.458 H 872.25 V 699.417 H 823.792 V 649.458 Z" style="fill: #306792;"/><path d="M 823.792 699.417 H 872.25 V 749.375 H 823.792 V 699.417 Z" style="fill: #306792;"/><path d="M 823.792 749.375 H 872.25 V 799.333 H 823.792 V 749.375 Z" style="fill: #306792;"/><path d="M 823.792 799.333 H 872.25 V 849.292 H 823.792 V 799.333 Z" style="fill: #306792;"/><path d="M 823.792 849.292 H 872.25 V 899.25 H 823.792 V 849.292 Z" style="fill: #306792;"/><path d="M 823.792 899.25 H 872.25 V 949.208 H 823.792 V 899.25 Z" style="fill: #306792;"/><path d="M 823.792 949.208 H 872.25 V 999.167 H 823.792 V 949.208 Z" style="fill: #ffffff;"/><path d="M 823.792 999.167 H 872.25 V 1049.125 H 823.792 V 999.167 Z" style="fill: #ffffff;"/><path d="M 823.792 1049.125 H 872.25 V 1099.083 H 823.792 V 1049.125 Z" style="fill: #ffffff;"/><path d="M 823.792 1099.083 H 872.25 V 1149.042 H 823.792 V 1099.083 Z" style="fill: #000000;"/><path d="M 872.25 0 H 920.708 V 49.958 H 872.25 V 0 Z" style="fill: #000000;"/><path d="M 872.25 49.958 H 920.708 V 99.917 H 872.25 V 49.958 Z" style="fill: #306792;"/><path d="M 872.25 99.917 H 920.708 V 149.875 H 872.25 V 99.917 Z" style="fill: #306792;"/><path d="M 872.25 149.875 H 920.708 V 199.833 H 872.25 V 149.875 Z" style="fill: #306792;"/><path d="M 872.25 199.833 H 920.708 V 249.792 H 872.25 V 199.833 Z" style="fill: #ffffff;"/><path d="M 872.25 249.792 H 920.708 V 299.75 H 872.25 V 249.792 Z" style="fill: #306792;"/><path d="M 872.25 299.75 H 920.708 V 349.708 H 872.25 V 299.75 Z" style="fill: #ffffff;"/><path d="M 872.25 349.708 H 920.708 V 399.667 H 872.25 V 349.708 Z" style="fill: #306792;"/><path d="M 872.25 399.667 H 920.708 V 449.625 H 872.25 V 399.667 Z" style="fill: #306792;"/><path d="M 872.25 449.625 H 920.708 V 499.583 H 872.25 V 449.625 Z" style="fill: #306792;"/><path d="M 872.25 499.583 H 920.708 V 549.542 H 872.25 V 499.583 Z" style="fill: #306792;"/><path d="M 872.25 549.542 H 920.708 V 599.5 H 872.25 V 549.542 Z" style="fill: #306792;"/><path d="M 872.25 599.5 H 920.708 V 649.458 H 872.25 V 599.5 Z" style="fill: #ffffff;"/><path d="M 872.25 649.458 H 920.708 V 699.417 H 872.25 V 649.458 Z" style="fill: #ffffff;"/><path d="M 872.25 699.417 H 920.708 V 749.375 H 872.25 V 699.417 Z" style="fill: #ffffff;"/><path d="M 872.25 749.375 H 920.708 V 799.333 H 872.25 V 749.375 Z" style="fill: #ffffff;"/><path d="M 872.25 799.333 H 920.708 V 849.292 H 872.25 V 799.333 Z" style="fill: #e5e5e5;"/><path d="M 872.25 849.292 H 920.708 V 899.25 H 872.25 V 849.292 Z" style="fill: #000000;"/><path d="M 872.25 899.25 H 920.708 V 949.208 H 872.25 V 899.25 Z" style="fill: #000000;"/><path d="M 872.25 949.208 H 920.708 V 999.167 H 872.25 V 949.208 Z" style="fill: #000000;"/><path d="M 872.25 999.167 H 920.708 V 1049.125 H 872.25 V 999.167 Z" style="fill: #000000;"/><path d="M 920.708 0 H 969.167 V 49.958 H 920.708 V 0 Z" style="fill: #000000;"/><path d="M 920.708 49.958 H 969.167 V 99.917 H 920.708 V 49.958 Z" style="fill: #ffffff;"/><path d="M 920.708 99.917 H 969.167 V 149.875 H 920.708 V 99.917 Z" style="fill: #306792;"/><path d="M 920.708 149.875 H 969.167 V 199.833 H 920.708 V 149.875 Z" style="fill: #306792;"/><path d="M 920.708 199.833 H 969.167 V 249.792 H 920.708 V 199.833 Z" style="fill: #306792;"/><path d="M 920.708 249.792 H 969.167 V 299.75 H 920.708 V 249.792 Z" style="fill: #326893;"/><path d="M 920.708 299.75 H 969.167 V 349.708 H 920.708 V 299.75 Z" style="fill: #ffffff;"/><path d="M 920.708 349.708 H 969.167 V 399.667 H 920.708 V 349.708 Z" style="fill: #ffffff;"/><path d="M 920.708 399.667 H 969.167 V 449.625 H 920.708 V 399.667 Z" style="fill: #ffffff;"/><path d="M 920.708 449.625 H 969.167 V 499.583 H 920.708 V 449.625 Z" style="fill: #ffffff;"/><path d="M 920.708 499.583 H 969.167 V 549.542 H 920.708 V 499.583 Z" style="fill: #ffffff;"/><path d="M 920.708 549.542 H 969.167 V 599.5 H 920.708 V 549.542 Z" style="fill: #ffffff;"/><path d="M 920.708 599.5 H 969.167 V 649.458 H 920.708 V 599.5 Z" style="fill: #ffffff;"/><path d="M 920.708 649.458 H 969.167 V 699.417 H 920.708 V 649.458 Z" style="fill: #ffffff;"/><path d="M 920.708 699.417 H 969.167 V 749.375 H 920.708 V 699.417 Z" style="fill: #ffffff;"/><path d="M 920.708 749.375 H 969.167 V 799.333 H 920.708 V 749.375 Z" style="fill: #306792;"/><path d="M 920.708 799.333 H 969.167 V 849.292 H 920.708 V 799.333 Z" style="fill: #ffffff;"/><path d="M 969.167 49.958 H 1017.625 V 99.917 H 969.167 V 49.958 Z" style="fill: #ffffff;"/><path d="M 969.167 99.917 H 1017.625 V 149.875 H 969.167 V 99.917 Z" style="fill: #306792;"/><path d="M 969.167 149.875 H 1017.625 V 199.833 H 969.167 V 149.875 Z" style="fill: #306792;"/><path d="M 969.167 199.833 H 1017.625 V 249.792 H 969.167 V 199.833 Z" style="fill: #306792;"/><path d="M 969.167 249.792 H 1017.625 V 299.75 H 969.167 V 249.792 Z" style="fill: #306792;"/><path d="M 969.167 299.75 H 1017.625 V 349.708 H 969.167 V 299.75 Z" style="fill: #306792;"/><path d="M 969.167 349.708 H 1017.625 V 399.667 H 969.167 V 349.708 Z" style="fill: #306792;"/><path d="M 969.167 399.667 H 1017.625 V 449.625 H 969.167 V 399.667 Z" style="fill: #306792;"/><path d="M 969.167 449.625 H 1017.625 V 499.583 H 969.167 V 449.625 Z" style="fill: #306792;"/><path d="M 969.167 499.583 H 1017.625 V 549.542 H 969.167 V 499.583 Z" style="fill: #306792;"/><path d="M 969.167 549.542 H 1017.625 V 599.5 H 969.167 V 549.542 Z" style="fill: #306792;"/><path d="M 969.167 599.5 H 1017.625 V 649.458 H 969.167 V 599.5 Z" style="fill: #ffffff;"/><path d="M 969.167 649.458 H 1017.625 V 699.417 H 969.167 V 649.458 Z" style="fill: #000000;"/><path d="M 969.167 699.417 H 1017.625 V 749.375 H 969.167 V 699.417 Z" style="fill: #ffffff;"/><path d="M 969.167 749.375 H 1017.625 V 799.333 H 969.167 V 749.375 Z" style="fill: #306792;"/><path d="M 969.167 799.333 H 1017.625 V 849.292 H 969.167 V 799.333 Z" style="fill: #000000;"/><path d="M 1017.625 49.958 H 1066.083 V 99.917 H 1017.625 V 49.958 Z" style="fill: #000000;"/><path d="M 1017.625 99.917 H 1066.083 V 149.875 H 1017.625 V 99.917 Z" style="fill: #ffffff;"/><path d="M 1017.625 149.875 H 1066.083 V 199.833 H 1017.625 V 149.875 Z" style="fill: #306792;"/><path d="M 1017.625 199.833 H 1066.083 V 249.792 H 1017.625 V 199.833 Z" style="fill: #306792;"/><path d="M 1017.625 249.792 H 1066.083 V 299.75 H 1017.625 V 249.792 Z" style="fill: #306792;"/><path d="M 1017.625 299.75 H 1066.083 V 349.708 H 1017.625 V 299.75 Z" style="fill: #306792;"/><path d="M 1017.625 349.708 H 1066.083 V 399.667 H 1017.625 V 349.708 Z" style="fill: #306792;"/><path d="M 1017.625 399.667 H 1066.083 V 449.625 H 1017.625 V 399.667 Z" style="fill: #306792;"/><path d="M 1017.625 449.625 H 1066.083 V 499.583 H 1017.625 V 449.625 Z" style="fill: #ffffff;"/><path d="M 1017.625 499.583 H 1066.083 V 549.542 H 1017.625 V 499.583 Z" style="fill: #ffffff;"/><path d="M 1017.625 549.542 H 1066.083 V 599.5 H 1017.625 V 549.542 Z" style="fill: #000000;"/><path d="M 1017.625 599.5 H 1066.083 V 649.458 H 1017.625 V 599.5 Z" style="fill: #000000;"/><path d="M 1017.625 699.417 H 1066.083 V 749.375 H 1017.625 V 699.417 Z" style="fill: #ffffff;"/><path d="M 1017.625 749.375 H 1066.083 V 799.333 H 1017.625 V 749.375 Z" style="fill: #ffffff;"/><path d="M 1017.625 799.333 H 1066.083 V 849.292 H 1017.625 V 799.333 Z" style="fill: #000000;"/><path d="M 1066.083 99.917 H 1114.542 V 149.875 H 1066.083 V 99.917 Z" style="fill: #000000;"/><path d="M 1066.083 149.875 H 1114.542 V 199.833 H 1066.083 V 149.875 Z" style="fill: #ffffff;"/><path d="M 1066.083 199.833 H 1114.542 V 249.792 H 1066.083 V 199.833 Z" style="fill: #ffffff;"/><path d="M 1066.083 249.792 H 1114.542 V 299.75 H 1066.083 V 249.792 Z" style="fill: #ffffff;"/><path d="M 1066.083 299.75 H 1114.542 V 349.708 H 1066.083 V 299.75 Z" style="fill: #ffffff;"/><path d="M 1066.083 349.708 H 1114.542 V 399.667 H 1066.083 V 349.708 Z" style="fill: #ffffff;"/><path d="M 1066.083 399.667 H 1114.542 V 449.625 H 1066.083 V 399.667 Z" style="fill: #ffffff;"/><path d="M 1066.083 449.625 H 1114.542 V 499.583 H 1066.083 V 449.625 Z" style="fill: #000000;"/><path d="M 1066.083 499.583 H 1114.542 V 549.542 H 1066.083 V 499.583 Z" style="fill: #000000;"/><path d="M 1066.083 699.417 H 1114.542 V 749.375 H 1066.083 V 699.417 Z" style="fill: #ffffff;"/><path d="M 1066.083 749.375 H 1114.542 V 799.333 H 1066.083 V 749.375 Z" style="fill: #ffffff;"/><path d="M 1066.083 799.333 H 1114.542 V 849.292 H 1066.083 V 799.333 Z" style="fill: #000000;"/><path d="M 1114.542 149.875 H 1163 V 199.833 H 1114.542 V 149.875 Z" style="fill: #000000;"/><path d="M 1114.542 199.833 H 1163 V 249.792 H 1114.542 V 199.833 Z" style="fill: #000000;"/><path d="M 1114.542 249.792 H 1163 V 299.75 H 1114.542 V 249.792 Z" style="fill: #000000;"/><path d="M 1114.542 299.75 H 1163 V 349.708 H 1114.542 V 299.75 Z" style="fill: #000000;"/><path d="M 1114.542 349.708 H 1163 V 399.667 H 1114.542 V 349.708 Z" style="fill: #000000;"/><path d="M 1114.542 699.417 H 1163 V 749.375 H 1114.542 V 699.417 Z" style="fill: #000000;"/><path d="M 1114.542 749.375 H 1163 V 799.333 H 1114.542 V 749.375 Z" style="fill: #000000;"/></g></svg>