<svg id="tecnologias" xmlns="http://www.w3.org/2000/svg" viewBox="0 0 224 224"><defs><style>.cls-1{fill:#1e3b93;}</style></defs><rect class="cls-1" x="214.25" y="106.67" width="9.75" height="10.65"/><rect class="cls-1" x="204.52" y="127.97" width="9.74" height="10.64"/><rect class="cls-1" x="194.78" y="138.61" width="9.74" height="10.65"/><rect class="cls-1" x="204.52" y="117.33" width="9.74" height="10.64"/><rect class="cls-1" x="204.52" y="106.67" width="9.74" height="10.65"/><rect class="cls-1" x="204.52" y="96.03" width="9.74" height="10.64"/><rect class="cls-1" x="204.52" y="85.39" width="9.74" height="10.64"/><rect class="cls-1" x="194.78" y="74.74" width="9.74" height="10.65"/><rect class="cls-1" x="165.56" y="127.97" width="9.74" height="10.64"/><rect class="cls-1" x="165.56" y="96.03" width="9.74" height="10.64"/><rect class="cls-1" x="165.56" y="117.33" width="9.74" height="10.64"/><rect class="cls-1" x="165.56" y="106.67" width="9.74" height="10.65"/><rect class="cls-1" x="165.56" y="85.39" width="9.74" height="10.64"/><rect class="cls-1" x="155.82" y="85.39" width="9.75" height="10.64"/><rect class="cls-1" x="175.3" y="85.39" width="9.74" height="10.64"/><rect class="cls-1" x="136.35" y="106.67" width="9.74" height="10.65"/><rect class="cls-1" x="116.86" y="106.67" width="9.75" height="10.65"/><rect class="cls-1" x="126.61" y="127.97" width="9.74" height="10.64"/><rect class="cls-1" x="116.86" y="127.97" width="9.75" height="10.64"/><rect class="cls-1" x="136.35" y="117.33" width="9.74" height="10.64"/><rect class="cls-1" x="126.61" y="106.67" width="9.74" height="10.65"/><rect class="cls-1" x="116.86" y="96.03" width="9.75" height="10.64"/><rect class="cls-1" x="136.35" y="85.39" width="9.74" height="10.64"/><rect class="cls-1" x="126.61" y="85.39" width="9.74" height="10.64"/><rect class="cls-1" x="97.39" y="127.97" width="9.74" height="10.64"/><rect class="cls-1" x="97.39" y="85.39" width="9.74" height="10.64"/><rect class="cls-1" x="87.65" y="127.97" width="9.75" height="10.64"/><rect class="cls-1" x="87.65" y="106.67" width="9.75" height="10.65"/><rect class="cls-1" x="87.65" y="85.39" width="9.75" height="10.64"/><rect class="cls-1" x="77.91" y="127.97" width="9.74" height="10.64"/><rect class="cls-1" x="77.91" y="117.33" width="9.74" height="10.64"/><rect class="cls-1" x="77.91" y="106.67" width="9.74" height="10.65"/><rect class="cls-1" x="77.91" y="96.03" width="9.74" height="10.64"/><rect class="cls-1" x="77.91" y="85.39" width="9.74" height="10.64"/><rect class="cls-1" x="58.43" y="127.97" width="9.75" height="10.64"/><rect class="cls-1" x="58.43" y="117.33" width="9.75" height="10.64"/><rect class="cls-1" x="58.43" y="96.03" width="9.75" height="10.64"/><rect class="cls-1" x="48.69" y="106.67" width="9.74" height="10.65"/><rect class="cls-1" x="48.69" y="85.39" width="9.74" height="10.64"/><rect class="cls-1" x="38.95" y="127.97" width="9.74" height="10.64"/><rect class="cls-1" x="38.95" y="117.33" width="9.74" height="10.64"/><rect class="cls-1" x="38.95" y="106.67" width="9.74" height="10.65"/><rect class="cls-1" x="38.95" y="96.03" width="9.74" height="10.64"/><rect class="cls-1" x="38.95" y="85.39" width="9.74" height="10.64"/><rect class="cls-1" x="19.47" y="138.61" width="9.75" height="10.65"/><rect class="cls-1" x="19.47" y="74.74" width="9.75" height="10.65"/><rect class="cls-1" x="9.74" y="127.97" width="9.74" height="10.64"/><rect class="cls-1" x="9.74" y="117.33" width="9.74" height="10.64"/><rect class="cls-1" x="9.74" y="106.67" width="9.74" height="10.65"/><rect class="cls-1" x="9.74" y="96.03" width="9.74" height="10.64"/><rect class="cls-1" x="9.74" y="85.39" width="9.74" height="10.64"/><rect class="cls-1" y="106.67" width="9.74" height="10.65"/></svg>