<svg id="tecnologias" xmlns="http://www.w3.org/2000/svg" viewBox="0 0 224 224"><defs><style>.cls-1{fill:#e85f63;}</style></defs><rect class="cls-1" x="194.78" y="85.26" width="9.74" height="10.7"/><rect class="cls-1" x="204.52" y="95.96" width="9.75" height="10.69"/><rect class="cls-1" x="214.26" y="106.65" width="9.74" height="10.69"/><rect class="cls-1" x="204.52" y="117.35" width="9.75" height="10.7"/><rect class="cls-1" x="194.78" y="128.05" width="9.74" height="10.69"/><rect class="cls-1" x="175.3" y="106.65" width="9.75" height="10.69"/><rect class="cls-1" x="175.3" y="95.96" width="9.75" height="10.69"/><rect class="cls-1" x="165.56" y="117.35" width="9.74" height="10.7"/><rect class="cls-1" x="165.56" y="85.26" width="9.74" height="10.7"/><rect class="cls-1" x="155.83" y="128.05" width="9.74" height="10.69"/><rect class="cls-1" x="155.83" y="117.35" width="9.74" height="10.7"/><rect class="cls-1" x="155.83" y="106.65" width="9.74" height="10.69"/><rect class="cls-1" x="155.83" y="95.96" width="9.74" height="10.69"/><rect class="cls-1" x="155.83" y="85.26" width="9.74" height="10.7"/><rect class="cls-1" x="136.35" y="128.05" width="9.75" height="10.69"/><rect class="cls-1" x="136.35" y="117.35" width="9.75" height="10.7"/><rect class="cls-1" x="136.35" y="106.65" width="9.75" height="10.69"/><rect class="cls-1" x="136.35" y="95.96" width="9.75" height="10.69"/><rect class="cls-1" x="136.35" y="85.26" width="9.75" height="10.7"/><rect class="cls-1" x="126.61" y="117.35" width="9.74" height="10.7"/><rect class="cls-1" x="126.61" y="85.26" width="9.74" height="10.7"/><rect class="cls-1" x="116.87" y="128.05" width="9.74" height="10.69"/><rect class="cls-1" x="116.87" y="117.35" width="9.74" height="10.7"/><rect class="cls-1" x="116.87" y="106.65" width="9.74" height="10.69"/><rect class="cls-1" x="116.87" y="95.96" width="9.74" height="10.69"/><rect class="cls-1" x="116.87" y="85.26" width="9.74" height="10.7"/><rect class="cls-1" x="97.39" y="117.35" width="9.74" height="10.7"/><rect class="cls-1" x="97.39" y="106.65" width="9.74" height="10.69"/><rect class="cls-1" x="97.39" y="95.96" width="9.74" height="10.69"/><rect class="cls-1" x="87.65" y="128.05" width="9.74" height="10.69"/><rect class="cls-1" x="87.65" y="85.26" width="9.74" height="10.7"/><rect class="cls-1" x="77.91" y="117.35" width="9.75" height="10.7"/><rect class="cls-1" x="77.91" y="106.65" width="9.75" height="10.69"/><rect class="cls-1" x="77.91" y="95.96" width="9.75" height="10.69"/><rect class="cls-1" x="58.44" y="117.35" width="9.74" height="10.7"/><rect class="cls-1" x="58.44" y="106.65" width="9.74" height="10.69"/><rect class="cls-1" x="58.44" y="85.26" width="9.74" height="10.7"/><rect class="cls-1" x="48.7" y="128.05" width="9.74" height="10.69"/><rect class="cls-1" x="48.7" y="106.65" width="9.74" height="10.69"/><rect class="cls-1" x="48.7" y="85.26" width="9.74" height="10.7"/><rect class="cls-1" x="38.95" y="128.05" width="9.75" height="10.69"/><rect class="cls-1" x="38.95" y="106.65" width="9.75" height="10.69"/><rect class="cls-1" x="38.95" y="95.96" width="9.75" height="10.69"/><rect class="cls-1" x="19.48" y="128.05" width="9.74" height="10.69"/><rect class="cls-1" x="19.48" y="85.26" width="9.74" height="10.7"/><rect class="cls-1" x="9.74" y="117.35" width="9.75" height="10.7"/><rect class="cls-1" x="9.74" y="95.96" width="9.75" height="10.69"/><rect class="cls-1" y="106.65" width="9.74" height="10.69"/></svg>