<svg id="tecnologias" xmlns="http://www.w3.org/2000/svg" viewBox="0 0 224 224"><defs><style>.cls-1{fill:#6db33f;}.cls-2{fill:#fff;}</style></defs><rect class="cls-1" x="213.33" y="106.66" width="10.67" height="10.67"/><rect class="cls-1" x="202.66" y="128" width="10.66" height="10.66"/><rect class="cls-1" x="202.66" y="117.34" width="10.66" height="10.66"/><polygon class="cls-1" points="213.33 106.66 213.33 117.34 202.66 117.34 202.66 128 202.66 138.66 192 138.66 192 149.34 192 160 181.33 160 181.33 170.66 181.33 181.33 170.66 181.33 170.66 192 160 192 160 202.66 149.34 202.66 138.66 202.66 128 202.66 117.34 202.66 106.66 202.66 96 202.66 85.34 202.66 74.66 202.66 64 202.66 64 192 53.34 192 53.34 181.33 42.67 181.33 42.67 170.66 42.67 160 32 160 32 149.34 32 138.66 21.34 138.66 21.34 128 21.34 117.34 10.67 117.34 10.67 106.66 21.34 106.66 21.34 96 21.34 85.34 32 85.34 32 74.66 32 64 42.67 64 42.67 53.34 42.67 42.67 53.34 42.67 53.34 32 64 32 64 21.34 74.66 21.34 85.34 21.34 96 21.34 106.66 21.34 117.34 21.34 128 21.34 138.66 21.34 149.34 21.34 160 21.34 160 32 170.66 32 170.66 42.67 170.66 53.34 160 53.34 160 42.67 149.34 42.67 138.66 42.67 128 42.67 128 32 117.34 32 106.66 32 96 32 96 42.67 85.34 42.67 74.66 42.67 64 42.67 64 53.34 53.34 53.34 53.34 64 53.34 74.66 42.67 74.66 42.67 85.34 42.67 96 42.67 106.66 42.67 117.34 42.67 128 42.67 138.66 42.67 149.34 53.34 149.34 64 149.34 64 160 64 170.66 74.66 170.66 74.66 181.33 85.34 181.33 96 181.33 106.66 181.33 117.34 181.33 128 181.33 138.66 181.33 149.34 181.33 149.34 170.66 160 170.66 160 160 170.66 160 170.66 149.34 181.33 149.34 181.33 138.66 181.33 128 181.33 117.34 181.33 106.66 181.33 96 181.33 85.34 181.33 74.66 170.66 74.66 170.66 64 170.66 53.34 181.33 53.34 181.33 64 192 64 192 74.66 192 85.34 202.66 85.34 202.66 96 202.66 106.66 213.33 106.66"/><rect class="cls-1" x="202.66" y="96" width="10.66" height="10.66"/><rect class="cls-1" x="202.66" y="85.34" width="10.66" height="10.66"/><rect class="cls-1" x="192" y="149.34" width="10.66" height="10.66"/><rect class="cls-1" x="192" y="138.66" width="10.66" height="10.67"/><rect class="cls-1" x="192" y="74.66" width="10.66" height="10.67"/><rect class="cls-1" x="192" y="64" width="10.66" height="10.66"/><rect class="cls-1" x="181.33" y="170.66" width="10.67" height="10.66"/><rect class="cls-1" x="181.33" y="160" width="10.67" height="10.66"/><rect class="cls-1" x="181.33" y="53.34" width="10.67" height="10.66"/><rect class="cls-1" x="181.33" y="42.67" width="10.67" height="10.66"/><rect class="cls-1" x="170.66" y="181.33" width="10.66" height="10.67"/><rect class="cls-1" x="170.66" y="138.66" width="10.66" height="10.67"/><rect class="cls-1" x="170.66" y="128" width="10.66" height="10.66"/><rect class="cls-1" x="170.66" y="117.34" width="10.66" height="10.66"/><rect class="cls-1" x="170.66" y="106.66" width="10.66" height="10.67"/><rect class="cls-1" x="170.66" y="96" width="10.66" height="10.66"/><rect class="cls-1" x="170.66" y="85.34" width="10.66" height="10.66"/><rect class="cls-1" x="170.66" y="74.66" width="10.66" height="10.67"/><rect class="cls-1" x="170.66" y="42.67" width="10.66" height="10.66"/><rect class="cls-1" x="170.66" y="32" width="10.66" height="10.67"/><rect class="cls-1" x="160" y="192" width="10.66" height="10.66"/><rect class="cls-1" x="160" y="149.34" width="10.66" height="10.66"/><rect class="cls-1" x="160" y="138.66" width="10.66" height="10.67"/><rect class="cls-2" x="160" y="128" width="10.66" height="10.66"/><rect class="cls-2" x="160" y="117.34" width="10.66" height="10.66"/><rect class="cls-2" x="160" y="106.66" width="10.66" height="10.67"/><rect class="cls-2" x="160" y="96" width="10.66" height="10.66"/><rect class="cls-2" x="160" y="85.34" width="10.66" height="10.66"/><rect class="cls-2" x="160" y="74.66" width="10.66" height="10.67"/><rect class="cls-1" x="160" y="64" width="10.66" height="10.66"/><rect class="cls-1" x="160" y="53.34" width="10.66" height="10.66"/><rect class="cls-1" x="160" y="21.34" width="10.66" height="10.66"/><rect class="cls-1" x="149.34" y="202.66" width="10.66" height="10.66"/><rect class="cls-1" x="149.34" y="160" width="10.66" height="10.66"/><rect class="cls-1" x="149.34" y="149.34" width="10.66" height="10.66"/><rect class="cls-2" x="149.34" y="138.66" width="10.66" height="10.67"/><rect class="cls-2" x="149.34" y="128" width="10.66" height="10.66"/><rect class="cls-2" x="149.34" y="117.34" width="10.66" height="10.66"/><rect class="cls-2" x="149.34" y="106.66" width="10.66" height="10.67"/><rect class="cls-2" x="149.34" y="96" width="10.66" height="10.66"/><rect class="cls-2" x="149.34" y="85.34" width="10.66" height="10.66"/><rect class="cls-2" x="149.34" y="74.66" width="10.66" height="10.67"/><rect class="cls-2" x="149.34" y="64" width="10.66" height="10.66"/><rect class="cls-1" x="149.34" y="53.34" width="10.66" height="10.66"/><rect class="cls-1" x="149.34" y="42.67" width="10.66" height="10.66"/><rect class="cls-1" x="149.34" y="10.67" width="10.66" height="10.66"/><rect class="cls-1" x="138.66" y="202.66" width="10.67" height="10.66"/><rect class="cls-1" x="138.66" y="170.66" width="10.67" height="10.66"/><rect class="cls-1" x="138.66" y="160" width="10.67" height="10.66"/><rect class="cls-2" x="138.66" y="149.34" width="10.67" height="10.66"/><rect class="cls-2" x="138.66" y="138.66" width="10.67" height="10.67"/><rect class="cls-1" x="138.66" y="128" width="10.67" height="10.66"/><rect class="cls-1" x="138.66" y="117.34" width="10.67" height="10.66"/><rect class="cls-1" x="138.66" y="106.66" width="10.67" height="10.67"/><rect class="cls-1" x="138.66" y="96" width="10.67" height="10.66"/><rect class="cls-1" x="138.66" y="85.34" width="10.67" height="10.66"/><rect class="cls-2" x="138.66" y="74.66" width="10.67" height="10.67"/><rect class="cls-2" x="138.66" y="64" width="10.67" height="10.66"/><rect class="cls-2" x="138.66" y="53.34" width="10.67" height="10.66"/><rect class="cls-1" x="138.66" y="42.67" width="10.67" height="10.66"/><rect class="cls-1" x="138.66" y="10.67" width="10.67" height="10.66"/><rect class="cls-1" x="128" y="202.66" width="10.66" height="10.66"/><rect class="cls-1" x="128" y="170.66" width="10.66" height="10.66"/><rect class="cls-2" x="128" y="160" width="10.66" height="10.66"/><rect class="cls-2" x="128" y="149.34" width="10.66" height="10.66"/><rect class="cls-1" x="128" y="138.66" width="10.66" height="10.67"/><rect class="cls-1" x="128" y="128" width="10.66" height="10.66"/><polygon class="cls-1" points="138.66 117.34 138.66 128 128 128 128 117.34 128 106.66 128 96 138.66 96 138.66 106.66 138.66 117.34"/><rect class="cls-1" x="128" y="85.34" width="10.66" height="10.66"/><rect class="cls-1" x="128" y="74.66" width="10.66" height="10.67"/><rect class="cls-1" x="128" y="64" width="10.66" height="10.66"/><rect class="cls-2" x="128" y="53.34" width="10.66" height="10.66"/><rect class="cls-1" x="128" y="42.67" width="10.66" height="10.66"/><rect class="cls-1" x="128" y="10.67" width="10.66" height="10.66"/><rect class="cls-1" x="117.34" y="202.66" width="10.66" height="10.66"/><rect class="cls-1" x="117.34" y="170.66" width="10.66" height="10.66"/><rect class="cls-2" x="117.34" y="160" width="10.66" height="10.66"/><rect class="cls-2" x="117.34" y="149.34" width="10.66" height="10.66"/><rect class="cls-1" x="117.34" y="138.66" width="10.66" height="10.67"/><polygon class="cls-1" points="128 128 128 138.66 117.34 138.66 106.66 138.66 96 138.66 96 128 106.66 128 117.34 128 128 128"/><rect class="cls-1" x="117.34" y="117.34" width="10.66" height="10.66"/><rect class="cls-1" x="117.34" y="106.66" width="10.66" height="10.67"/><rect class="cls-1" x="117.34" y="96" width="10.66" height="10.66"/><rect class="cls-1" x="117.34" y="85.34" width="10.66" height="10.66"/><rect class="cls-1" x="117.34" y="74.66" width="10.66" height="10.67"/><rect class="cls-1" x="117.34" y="64" width="10.66" height="10.66"/><rect class="cls-1" x="117.34" y="53.34" width="10.66" height="10.66"/><rect class="cls-1" x="117.34" y="42.67" width="10.66" height="10.66"/><rect class="cls-1" x="117.34" y="32" width="10.66" height="10.67"/><rect class="cls-1" x="117.34" y="10.67" width="10.66" height="10.66"/><rect class="cls-1" x="106.66" y="202.66" width="10.67" height="10.66"/><rect class="cls-1" x="106.66" y="170.66" width="10.67" height="10.66"/><rect class="cls-2" x="106.66" y="160" width="10.67" height="10.66"/><rect class="cls-2" x="106.66" y="149.34" width="10.67" height="10.66"/><rect class="cls-1" x="106.66" y="138.66" width="10.67" height="10.67"/><rect class="cls-1" x="106.66" y="117.34" width="10.67" height="10.66"/><rect class="cls-2" x="106.66" y="106.66" width="10.67" height="10.67"/><rect class="cls-2" x="106.66" y="96" width="10.67" height="10.66"/><rect class="cls-2" x="106.66" y="85.34" width="10.67" height="10.66"/><rect class="cls-2" x="106.66" y="74.66" width="10.67" height="10.67"/><rect class="cls-2" x="106.66" y="64" width="10.67" height="10.66"/><rect class="cls-2" x="106.66" y="53.34" width="10.67" height="10.66"/><rect class="cls-2" x="106.66" y="42.67" width="10.67" height="10.66"/><rect class="cls-1" x="106.66" y="32" width="10.67" height="10.67"/><rect class="cls-1" x="106.66" y="10.67" width="10.67" height="10.66"/><rect class="cls-1" x="96" y="202.66" width="10.66" height="10.66"/><rect class="cls-1" x="96" y="170.66" width="10.66" height="10.66"/><rect class="cls-2" x="96" y="160" width="10.66" height="10.66"/><rect class="cls-2" x="96" y="149.34" width="10.66" height="10.66"/><rect class="cls-1" x="96" y="138.66" width="10.66" height="10.67"/><rect class="cls-1" x="96" y="117.34" width="10.66" height="10.66"/><rect class="cls-1" x="96" y="106.66" width="10.66" height="10.67"/><rect class="cls-1" x="96" y="96" width="10.66" height="10.66"/><rect class="cls-1" x="96" y="85.34" width="10.66" height="10.66"/><rect class="cls-1" x="96" y="74.66" width="10.66" height="10.67"/><rect class="cls-1" x="96" y="64" width="10.66" height="10.66"/><rect class="cls-1" x="96" y="53.34" width="10.66" height="10.66"/><rect class="cls-1" x="96" y="42.67" width="10.66" height="10.66"/><rect class="cls-1" x="96" y="32" width="10.66" height="10.67"/><rect class="cls-1" x="96" y="10.67" width="10.66" height="10.66"/><rect class="cls-1" x="85.34" y="202.66" width="10.66" height="10.66"/><rect class="cls-1" x="85.34" y="170.66" width="10.66" height="10.66"/><rect class="cls-2" x="85.34" y="160" width="10.66" height="10.66"/><rect class="cls-2" x="85.34" y="149.34" width="10.66" height="10.66"/><rect class="cls-1" x="85.34" y="138.66" width="10.66" height="10.67"/><rect class="cls-1" x="85.34" y="128" width="10.66" height="10.66"/><polygon class="cls-1" points="96 117.34 96 128 85.34 128 85.34 117.34 85.34 106.66 85.34 96 96 96 96 106.66 96 117.34"/><rect class="cls-1" x="85.34" y="85.34" width="10.66" height="10.66"/><rect class="cls-1" x="85.34" y="74.66" width="10.66" height="10.67"/><rect class="cls-1" x="85.34" y="64" width="10.66" height="10.66"/><rect class="cls-2" x="85.34" y="53.34" width="10.66" height="10.66"/><rect class="cls-1" x="85.34" y="42.67" width="10.66" height="10.66"/><rect class="cls-1" x="85.34" y="10.67" width="10.66" height="10.66"/><rect class="cls-1" x="74.66" y="202.66" width="10.67" height="10.66"/><rect class="cls-1" x="74.66" y="170.66" width="10.67" height="10.66"/><rect class="cls-1" x="74.66" y="160" width="10.67" height="10.66"/><rect class="cls-2" x="74.66" y="149.34" width="10.67" height="10.66"/><rect class="cls-2" x="74.66" y="138.66" width="10.67" height="10.67"/><rect class="cls-1" x="74.66" y="128" width="10.67" height="10.66"/><rect class="cls-1" x="74.66" y="117.34" width="10.67" height="10.66"/><rect class="cls-1" x="74.66" y="106.66" width="10.67" height="10.67"/><rect class="cls-1" x="74.66" y="96" width="10.67" height="10.66"/><rect class="cls-1" x="74.66" y="85.34" width="10.67" height="10.66"/><rect class="cls-2" x="74.66" y="74.66" width="10.67" height="10.67"/><rect class="cls-2" x="74.66" y="64" width="10.67" height="10.66"/><rect class="cls-2" x="74.66" y="53.34" width="10.67" height="10.66"/><rect class="cls-1" x="74.66" y="42.67" width="10.67" height="10.66"/><rect class="cls-1" x="74.66" y="10.67" width="10.67" height="10.66"/><rect class="cls-1" x="64" y="202.66" width="10.66" height="10.66"/><rect class="cls-1" x="64" y="160" width="10.66" height="10.66"/><rect class="cls-1" x="64" y="149.34" width="10.66" height="10.66"/><rect class="cls-2" x="64" y="138.66" width="10.66" height="10.67"/><rect class="cls-2" x="64" y="128" width="10.66" height="10.66"/><rect class="cls-2" x="64" y="117.34" width="10.66" height="10.66"/><rect class="cls-2" x="64" y="106.66" width="10.66" height="10.67"/><rect class="cls-2" x="64" y="96" width="10.66" height="10.66"/><rect class="cls-2" x="64" y="85.34" width="10.66" height="10.66"/><rect class="cls-2" x="64" y="74.66" width="10.66" height="10.67"/><rect class="cls-2" x="64" y="64" width="10.66" height="10.66"/><rect class="cls-1" x="64" y="53.34" width="10.66" height="10.66"/><rect class="cls-1" x="64" y="42.67" width="10.66" height="10.66"/><rect class="cls-1" x="64" y="10.67" width="10.66" height="10.66"/><rect class="cls-1" x="53.34" y="192" width="10.66" height="10.66"/><rect class="cls-1" x="53.34" y="138.66" width="10.66" height="10.67"/><rect class="cls-2" x="53.34" y="128" width="10.66" height="10.66"/><rect class="cls-2" x="53.34" y="117.34" width="10.66" height="10.66"/><rect class="cls-2" x="53.34" y="106.66" width="10.66" height="10.67"/><rect class="cls-2" x="53.34" y="96" width="10.66" height="10.66"/><rect class="cls-2" x="53.34" y="85.34" width="10.66" height="10.66"/><rect class="cls-2" x="53.34" y="74.66" width="10.66" height="10.67"/><rect class="cls-1" x="53.34" y="64" width="10.66" height="10.66"/><rect class="cls-1" x="53.34" y="53.34" width="10.66" height="10.66"/><rect class="cls-1" x="53.34" y="21.34" width="10.66" height="10.66"/><rect class="cls-1" x="42.67" y="181.33" width="10.66" height="10.67"/><rect class="cls-1" x="42.67" y="138.66" width="10.66" height="10.67"/><rect class="cls-1" x="42.67" y="128" width="10.66" height="10.66"/><rect class="cls-1" x="42.67" y="117.34" width="10.66" height="10.66"/><rect class="cls-1" x="42.67" y="106.66" width="10.66" height="10.67"/><rect class="cls-1" x="42.67" y="96" width="10.66" height="10.66"/><rect class="cls-1" x="42.67" y="85.34" width="10.66" height="10.66"/><rect class="cls-1" x="42.67" y="74.66" width="10.66" height="10.67"/><rect class="cls-1" x="42.67" y="32" width="10.66" height="10.67"/><rect class="cls-1" x="32" y="170.66" width="10.67" height="10.66"/><rect class="cls-1" x="32" y="160" width="10.67" height="10.66"/><rect class="cls-1" x="32" y="53.34" width="10.67" height="10.66"/><rect class="cls-1" x="32" y="42.67" width="10.67" height="10.66"/><rect class="cls-1" x="21.34" y="149.34" width="10.66" height="10.66"/><rect class="cls-1" x="21.34" y="138.66" width="10.66" height="10.67"/><rect class="cls-1" x="21.34" y="74.66" width="10.66" height="10.67"/><rect class="cls-1" x="21.34" y="64" width="10.66" height="10.66"/><rect class="cls-1" x="10.67" y="128" width="10.66" height="10.66"/><rect class="cls-1" x="10.67" y="117.34" width="10.66" height="10.66"/><rect class="cls-1" x="10.67" y="96" width="10.66" height="10.66"/><rect class="cls-1" x="10.67" y="85.34" width="10.66" height="10.66"/><rect class="cls-1" y="106.66" width="10.67" height="10.67"/></svg>