<svg id="tecnologias" xmlns="http://www.w3.org/2000/svg" viewBox="0 0 224 224"><defs><style>.cls-1{fill:#2687ce;}.cls-2{fill:#fcfeff;}.cls-3{fill:#fff;}.cls-4{fill:#b9d533;}.cls-5{fill:#fdfeff;}.cls-6{fill:#7dbb00;}.cls-7{fill:#0073c6;}.cls-8{fill:#0071c9;}.cls-9{fill:#0372c4;}</style></defs><rect class="cls-1" x="186.67" y="181.33" width="10.66" height="10.67"/><rect class="cls-1" x="186.67" y="170.66" width="10.66" height="10.66"/><rect class="cls-1" x="186.67" y="160" width="10.66" height="10.66"/><rect class="cls-1" x="186.67" y="149.34" width="10.66" height="10.66"/><rect class="cls-1" x="186.67" y="138.66" width="10.66" height="10.67"/><rect class="cls-1" x="186.67" y="128" width="10.66" height="10.66"/><rect class="cls-1" x="186.67" y="117.34" width="10.66" height="10.66"/><rect class="cls-1" x="186.67" y="106.66" width="10.66" height="10.67"/><rect class="cls-1" x="186.67" y="96" width="10.66" height="10.66"/><rect class="cls-1" x="186.67" y="85.34" width="10.66" height="10.66"/><rect class="cls-1" x="186.67" y="74.66" width="10.66" height="10.67"/><rect class="cls-1" x="186.67" y="64" width="10.66" height="10.66"/><rect class="cls-1" x="186.67" y="53.34" width="10.66" height="10.66"/><rect class="cls-1" x="186.67" y="42.67" width="10.66" height="10.66"/><rect class="cls-2" x="186.67" y="32" width="10.66" height="10.67"/><rect class="cls-2" x="186.67" y="21.34" width="10.66" height="10.66"/><rect class="cls-1" x="176" y="192" width="10.67" height="10.66"/><rect class="cls-1" x="176" y="181.33" width="10.67" height="10.67"/><rect class="cls-1" x="176" y="170.66" width="10.67" height="10.66"/><rect class="cls-1" x="176" y="160" width="10.67" height="10.66"/><rect class="cls-1" x="176" y="149.34" width="10.67" height="10.66"/><rect class="cls-1" x="176" y="138.66" width="10.67" height="10.67"/><rect class="cls-1" x="176" y="128" width="10.67" height="10.66"/><rect class="cls-1" x="176" y="117.34" width="10.67" height="10.66"/><rect class="cls-1" x="176" y="106.66" width="10.67" height="10.67"/><rect class="cls-1" x="176" y="96" width="10.67" height="10.66"/><rect class="cls-1" x="176" y="85.34" width="10.67" height="10.66"/><rect class="cls-1" x="176" y="74.66" width="10.67" height="10.67"/><rect class="cls-1" x="176" y="64" width="10.67" height="10.66"/><rect class="cls-1" x="176" y="53.34" width="10.67" height="10.66"/><rect class="cls-2" x="176" y="42.67" width="10.67" height="10.66"/><rect class="cls-2" x="176" y="32" width="10.67" height="10.67"/><rect class="cls-2" x="176" y="21.34" width="10.67" height="10.66"/><rect class="cls-2" x="176" y="10.67" width="10.67" height="10.66"/><rect class="cls-1" x="165.33" y="202.66" width="10.66" height="10.66"/><rect class="cls-1" x="165.33" y="192" width="10.66" height="10.66"/><rect class="cls-1" x="165.33" y="181.33" width="10.66" height="10.67"/><rect class="cls-1" x="165.33" y="170.66" width="10.66" height="10.66"/><rect class="cls-1" x="165.33" y="160" width="10.66" height="10.66"/><rect class="cls-3" x="165.33" y="149.34" width="10.66" height="10.66"/><rect class="cls-1" x="165.33" y="138.66" width="10.66" height="10.67"/><rect class="cls-1" x="165.33" y="128" width="10.66" height="10.66"/><rect class="cls-1" x="165.33" y="117.34" width="10.66" height="10.66"/><rect class="cls-1" x="165.33" y="106.66" width="10.66" height="10.67"/><rect class="cls-1" x="165.33" y="96" width="10.66" height="10.66"/><rect class="cls-1" x="165.33" y="85.34" width="10.66" height="10.66"/><rect class="cls-1" x="165.33" y="74.66" width="10.66" height="10.67"/><rect class="cls-1" x="165.33" y="64" width="10.66" height="10.66"/><rect class="cls-1" x="165.33" y="53.34" width="10.66" height="10.66"/><rect class="cls-2" x="165.33" y="42.67" width="10.66" height="10.66"/><rect class="cls-4" x="165.33" y="32" width="10.66" height="10.67"/><rect class="cls-4" x="165.33" y="21.34" width="10.66" height="10.66"/><rect class="cls-2" x="165.33" y="10.67" width="10.66" height="10.66"/><rect class="cls-1" x="154.67" y="202.66" width="10.66" height="10.66"/><rect class="cls-1" x="154.67" y="192" width="10.66" height="10.66"/><rect class="cls-1" x="154.67" y="181.33" width="10.66" height="10.67"/><rect class="cls-1" x="154.67" y="170.66" width="10.66" height="10.66"/><rect class="cls-1" x="154.67" y="160" width="10.66" height="10.66"/><rect class="cls-3" x="154.67" y="149.34" width="10.66" height="10.66"/><rect class="cls-1" x="154.67" y="138.66" width="10.66" height="10.67"/><rect class="cls-1" x="154.67" y="128" width="10.66" height="10.66"/><rect class="cls-1" x="154.67" y="117.34" width="10.66" height="10.66"/><rect class="cls-1" x="154.67" y="106.66" width="10.66" height="10.67"/><rect class="cls-1" x="154.67" y="96" width="10.66" height="10.66"/><rect class="cls-1" x="154.67" y="85.34" width="10.66" height="10.66"/><rect class="cls-1" x="154.67" y="74.66" width="10.66" height="10.67"/><rect class="cls-1" x="154.67" y="64" width="10.66" height="10.66"/><rect class="cls-5" x="154.67" y="53.34" width="10.66" height="10.66"/><rect class="cls-5" x="154.67" y="42.67" width="10.66" height="10.66"/><rect class="cls-4" x="154.67" y="32" width="10.66" height="10.67"/><rect class="cls-4" x="154.67" y="21.34" width="10.66" height="10.66"/><rect class="cls-2" x="154.67" y="10.67" width="10.66" height="10.66"/><rect class="cls-1" x="144" y="202.66" width="10.66" height="10.66"/><rect class="cls-1" x="144" y="192" width="10.66" height="10.66"/><rect class="cls-1" x="144" y="181.33" width="10.66" height="10.67"/><rect class="cls-1" x="144" y="170.66" width="10.66" height="10.66"/><rect class="cls-1" x="144" y="160" width="10.66" height="10.66"/><rect class="cls-3" x="144" y="149.34" width="10.66" height="10.66"/><rect class="cls-3" x="144" y="138.66" width="10.66" height="10.67"/><rect class="cls-3" x="144" y="128" width="10.66" height="10.66"/><rect class="cls-3" x="144" y="117.34" width="10.66" height="10.66"/><rect class="cls-3" x="144" y="106.66" width="10.66" height="10.67"/><rect class="cls-1" x="144" y="96" width="10.66" height="10.66"/><rect class="cls-1" x="144" y="85.34" width="10.66" height="10.66"/><rect class="cls-1" x="144" y="74.66" width="10.66" height="10.67"/><rect class="cls-1" x="144" y="64" width="10.66" height="10.66"/><rect class="cls-2" x="144" y="53.34" width="10.66" height="10.66"/><rect class="cls-6" x="144" y="42.67" width="10.66" height="10.66"/><rect class="cls-4" x="144" y="32" width="10.66" height="10.67"/><rect class="cls-4" x="144" y="21.34" width="10.66" height="10.66"/><rect class="cls-2" x="144" y="10.67" width="10.66" height="10.66"/><rect class="cls-2" x="144" width="10.66" height="10.67"/><rect class="cls-1" x="133.33" y="213.33" width="10.67" height="10.67"/><rect class="cls-1" x="133.33" y="202.66" width="10.67" height="10.66"/><rect class="cls-1" x="133.33" y="192" width="10.67" height="10.66"/><rect class="cls-1" x="133.33" y="181.33" width="10.67" height="10.67"/><rect class="cls-1" x="133.33" y="170.66" width="10.67" height="10.66"/><rect class="cls-3" x="133.33" y="160" width="10.67" height="10.66"/><rect class="cls-1" x="133.33" y="149.34" width="10.67" height="10.66"/><rect class="cls-1" x="133.33" y="138.66" width="10.67" height="10.67"/><rect class="cls-1" x="133.33" y="128" width="10.67" height="10.66"/><rect class="cls-1" x="133.33" y="117.34" width="10.67" height="10.66"/><rect class="cls-1" x="133.33" y="106.66" width="10.67" height="10.67"/><rect class="cls-1" x="133.33" y="96" width="10.67" height="10.66"/><rect class="cls-1" x="133.33" y="85.34" width="10.67" height="10.66"/><rect class="cls-1" x="133.33" y="74.66" width="10.67" height="10.67"/><rect class="cls-1" x="133.33" y="64" width="10.67" height="10.66"/><rect class="cls-2" x="133.33" y="53.34" width="10.67" height="10.66"/><rect class="cls-6" x="133.33" y="42.67" width="10.67" height="10.66"/><rect class="cls-4" x="133.33" y="32" width="10.67" height="10.67"/><rect class="cls-4" x="133.33" y="21.34" width="10.67" height="10.66"/><rect class="cls-4" x="133.33" y="10.67" width="10.67" height="10.66"/><rect class="cls-2" x="133.33" width="10.67" height="10.67"/><rect class="cls-1" x="122.67" y="213.33" width="10.66" height="10.67"/><rect class="cls-1" x="122.67" y="202.66" width="10.66" height="10.66"/><rect class="cls-1" x="122.67" y="192" width="10.66" height="10.66"/><rect class="cls-1" x="122.67" y="181.33" width="10.66" height="10.67"/><rect class="cls-1" x="122.67" y="170.66" width="10.66" height="10.66"/><rect class="cls-3" x="122.67" y="160" width="10.66" height="10.66"/><rect class="cls-3" x="122.67" y="149.34" width="10.66" height="10.66"/><rect class="cls-3" x="122.67" y="138.66" width="10.66" height="10.67"/><rect class="cls-3" x="122.67" y="128" width="10.66" height="10.66"/><rect class="cls-3" x="122.67" y="117.34" width="10.66" height="10.66"/><rect class="cls-3" x="122.67" y="106.66" width="10.66" height="10.67"/><rect class="cls-1" x="122.67" y="96" width="10.66" height="10.66"/><rect class="cls-1" x="122.67" y="85.34" width="10.66" height="10.66"/><rect class="cls-1" x="122.67" y="74.66" width="10.66" height="10.67"/><rect class="cls-1" x="122.67" y="64" width="10.66" height="10.66"/><rect class="cls-2" x="122.67" y="53.34" width="10.66" height="10.66"/><rect class="cls-6" x="122.67" y="42.67" width="10.66" height="10.66"/><rect class="cls-6" x="122.67" y="32" width="10.66" height="10.67"/><rect class="cls-4" x="122.67" y="21.34" width="10.66" height="10.66"/><rect class="cls-4" x="122.67" y="10.67" width="10.66" height="10.66"/><rect class="cls-2" x="122.67" width="10.66" height="10.67"/><rect class="cls-1" x="112" y="213.33" width="10.66" height="10.67"/><rect class="cls-1" x="112" y="202.66" width="10.66" height="10.66"/><rect class="cls-1" x="112" y="192" width="10.66" height="10.66"/><rect class="cls-1" x="112" y="181.33" width="10.66" height="10.67"/><rect class="cls-1" x="112" y="170.66" width="10.66" height="10.66"/><rect class="cls-1" x="112" y="160" width="10.66" height="10.66"/><rect class="cls-3" x="112" y="149.34" width="10.66" height="10.66"/><rect class="cls-1" x="112" y="138.66" width="10.66" height="10.67"/><rect class="cls-1" x="112" y="128" width="10.66" height="10.66"/><rect class="cls-1" x="112" y="117.34" width="10.66" height="10.66"/><rect class="cls-3" x="112" y="106.66" width="10.66" height="10.67"/><rect class="cls-1" x="112" y="96" width="10.66" height="10.66"/><rect class="cls-1" x="112" y="85.34" width="10.66" height="10.66"/><rect class="cls-1" x="112" y="74.66" width="10.66" height="10.67"/><rect class="cls-1" x="112" y="64" width="10.66" height="10.66"/><rect class="cls-2" x="112" y="53.34" width="10.66" height="10.66"/><rect class="cls-6" x="112" y="42.67" width="10.66" height="10.66"/><rect class="cls-6" x="112" y="32" width="10.66" height="10.67"/><rect class="cls-4" x="112" y="21.34" width="10.66" height="10.66"/><rect class="cls-4" x="112" y="10.67" width="10.66" height="10.66"/><rect class="cls-2" x="112" width="10.66" height="10.67"/><rect class="cls-7" x="101.33" y="213.33" width="10.67" height="10.67"/><rect class="cls-1" x="101.33" y="202.66" width="10.67" height="10.66"/><rect class="cls-7" x="101.33" y="192" width="10.67" height="10.66"/><rect class="cls-1" x="101.33" y="181.33" width="10.67" height="10.67"/><rect class="cls-7" x="101.33" y="170.66" width="10.67" height="10.66"/><rect class="cls-1" x="101.33" y="160" width="10.67" height="10.66"/><rect class="cls-3" x="101.33" y="149.34" width="10.67" height="10.66"/><rect class="cls-1" x="101.33" y="138.66" width="10.67" height="10.67"/><rect class="cls-8" x="101.33" y="128" width="10.67" height="10.66"/><rect class="cls-1" x="101.33" y="117.34" width="10.67" height="10.66"/><rect class="cls-3" x="101.33" y="106.66" width="10.67" height="10.67"/><rect class="cls-1" x="101.33" y="96" width="10.67" height="10.66"/><rect class="cls-7" x="101.33" y="85.34" width="10.67" height="10.66"/><rect class="cls-1" x="101.33" y="74.66" width="10.67" height="10.67"/><rect class="cls-7" x="101.33" y="64" width="10.67" height="10.66"/><rect class="cls-2" x="101.33" y="53.34" width="10.67" height="10.66"/><rect class="cls-6" x="101.33" y="42.67" width="10.67" height="10.66"/><rect class="cls-6" x="101.33" y="32" width="10.67" height="10.67"/><rect class="cls-4" x="101.33" y="21.34" width="10.67" height="10.66"/><rect class="cls-4" x="101.33" y="10.67" width="10.67" height="10.66"/><rect class="cls-2" x="101.33" width="10.67" height="10.67"/><rect class="cls-9" x="90.67" y="213.33" width="10.66" height="10.67"/><rect class="cls-9" x="90.67" y="202.66" width="10.66" height="10.66"/><rect class="cls-9" x="90.67" y="192" width="10.66" height="10.66"/><rect class="cls-9" x="90.67" y="181.33" width="10.66" height="10.67"/><rect class="cls-9" x="90.67" y="170.66" width="10.66" height="10.66"/><rect class="cls-9" x="90.67" y="160" width="10.66" height="10.66"/><rect class="cls-3" x="90.67" y="149.34" width="10.66" height="10.66"/><rect class="cls-3" x="90.67" y="138.66" width="10.66" height="10.67"/><rect class="cls-3" x="90.67" y="128" width="10.66" height="10.66"/><rect class="cls-3" x="90.67" y="117.34" width="10.66" height="10.66"/><rect class="cls-3" x="90.67" y="106.66" width="10.66" height="10.67"/><rect class="cls-9" x="90.67" y="96" width="10.66" height="10.66"/><rect class="cls-9" x="90.67" y="85.34" width="10.66" height="10.66"/><rect class="cls-9" x="90.67" y="74.66" width="10.66" height="10.67"/><rect class="cls-9" x="90.67" y="64" width="10.66" height="10.66"/><rect class="cls-2" x="90.67" y="53.34" width="10.66" height="10.66"/><rect class="cls-6" x="90.67" y="42.67" width="10.66" height="10.66"/><rect class="cls-6" x="90.67" y="32" width="10.66" height="10.67"/><rect class="cls-4" x="90.67" y="21.34" width="10.66" height="10.66"/><rect class="cls-4" x="90.67" y="10.67" width="10.66" height="10.66"/><rect class="cls-2" x="90.67" width="10.66" height="10.67"/><rect class="cls-9" x="80" y="213.33" width="10.66" height="10.67"/><rect class="cls-9" x="80" y="202.66" width="10.66" height="10.66"/><rect class="cls-9" x="80" y="192" width="10.66" height="10.66"/><rect class="cls-9" x="80" y="181.33" width="10.66" height="10.67"/><rect class="cls-9" x="80" y="170.66" width="10.66" height="10.66"/><rect class="cls-9" x="80" y="160" width="10.66" height="10.66"/><rect class="cls-9" x="80" y="149.34" width="10.66" height="10.66"/><rect class="cls-9" x="80" y="138.66" width="10.66" height="10.67"/><rect class="cls-9" x="80" y="128" width="10.66" height="10.66"/><rect class="cls-9" x="80" y="117.34" width="10.66" height="10.66"/><rect class="cls-9" x="80" y="106.66" width="10.66" height="10.67"/><rect class="cls-9" x="80" y="96" width="10.66" height="10.66"/><rect class="cls-9" x="80" y="85.34" width="10.66" height="10.66"/><rect class="cls-9" x="80" y="74.66" width="10.66" height="10.67"/><rect class="cls-9" x="80" y="64" width="10.66" height="10.66"/><rect class="cls-2" x="80" y="53.34" width="10.66" height="10.66"/><rect class="cls-6" x="80" y="42.67" width="10.66" height="10.66"/><rect class="cls-6" x="80" y="32" width="10.66" height="10.67"/><rect class="cls-4" x="80" y="21.34" width="10.66" height="10.66"/><rect class="cls-4" x="80" y="10.67" width="10.66" height="10.66"/><rect class="cls-2" x="80" width="10.66" height="10.67"/><rect class="cls-9" x="69.33" y="213.33" width="10.67" height="10.67"/><rect class="cls-9" x="69.33" y="202.66" width="10.67" height="10.66"/><rect class="cls-9" x="69.33" y="192" width="10.67" height="10.66"/><rect class="cls-9" x="69.33" y="181.33" width="10.67" height="10.67"/><rect class="cls-9" x="69.33" y="170.66" width="10.67" height="10.66"/><rect class="cls-9" x="69.33" y="160" width="10.67" height="10.66"/><rect class="cls-3" x="69.33" y="149.34" width="10.67" height="10.66"/><rect class="cls-3" x="69.33" y="138.66" width="10.67" height="10.67"/><rect class="cls-3" x="69.33" y="128" width="10.67" height="10.66"/><rect class="cls-9" x="69.33" y="117.34" width="10.67" height="10.66"/><rect class="cls-3" x="69.33" y="106.66" width="10.67" height="10.67"/><rect class="cls-9" x="69.33" y="96" width="10.67" height="10.66"/><rect class="cls-9" x="69.33" y="85.34" width="10.67" height="10.66"/><rect class="cls-9" x="69.33" y="74.66" width="10.67" height="10.67"/><rect class="cls-9" x="69.33" y="64" width="10.67" height="10.66"/><rect class="cls-2" x="69.33" y="53.34" width="10.67" height="10.66"/><rect class="cls-6" x="69.33" y="42.67" width="10.67" height="10.66"/><rect class="cls-4" x="69.33" y="32" width="10.67" height="10.67"/><rect class="cls-4" x="69.33" y="21.34" width="10.67" height="10.66"/><rect class="cls-2" x="69.33" y="10.67" width="10.67" height="10.66"/><rect class="cls-2" x="69.33" width="10.67" height="10.67"/><rect class="cls-9" x="58.67" y="202.66" width="10.66" height="10.66"/><rect class="cls-9" x="58.67" y="192" width="10.66" height="10.66"/><rect class="cls-9" x="58.67" y="181.33" width="10.66" height="10.67"/><rect class="cls-9" x="58.67" y="170.66" width="10.66" height="10.66"/><rect class="cls-9" x="58.67" y="160" width="10.66" height="10.66"/><rect class="cls-3" x="58.67" y="149.34" width="10.66" height="10.66"/><rect class="cls-9" x="58.67" y="138.66" width="10.66" height="10.67"/><rect class="cls-3" x="58.67" y="128" width="10.66" height="10.66"/><rect class="cls-9" x="58.67" y="117.34" width="10.66" height="10.66"/><rect class="cls-3" x="58.67" y="106.66" width="10.66" height="10.67"/><rect class="cls-9" x="58.67" y="96" width="10.66" height="10.66"/><rect class="cls-9" x="58.67" y="85.34" width="10.66" height="10.66"/><rect class="cls-9" x="58.67" y="74.66" width="10.66" height="10.67"/><rect class="cls-9" x="58.67" y="64" width="10.66" height="10.66"/><rect class="cls-2" x="58.67" y="53.34" width="10.66" height="10.66"/><rect class="cls-2" x="58.67" y="42.67" width="10.66" height="10.66"/><rect class="cls-4" x="58.67" y="32" width="10.66" height="10.67"/><rect class="cls-4" x="58.67" y="21.34" width="10.66" height="10.66"/><rect class="cls-2" x="58.67" y="10.67" width="10.66" height="10.66"/><rect class="cls-9" x="48" y="202.66" width="10.66" height="10.66"/><rect class="cls-9" x="48" y="192" width="10.66" height="10.66"/><rect class="cls-9" x="48" y="181.33" width="10.66" height="10.67"/><rect class="cls-9" x="48" y="170.66" width="10.66" height="10.66"/><rect class="cls-9" x="48" y="160" width="10.66" height="10.66"/><rect class="cls-3" x="48" y="149.34" width="10.66" height="10.66"/><rect class="cls-9" x="48" y="138.66" width="10.66" height="10.67"/><rect class="cls-3" x="48" y="128" width="10.66" height="10.66"/><rect class="cls-3" x="48" y="117.34" width="10.66" height="10.66"/><rect class="cls-3" x="48" y="106.66" width="10.66" height="10.67"/><rect class="cls-9" x="48" y="96" width="10.66" height="10.66"/><rect class="cls-9" x="48" y="85.34" width="10.66" height="10.66"/><rect class="cls-9" x="48" y="74.66" width="10.66" height="10.67"/><rect class="cls-9" x="48" y="64" width="10.66" height="10.66"/><rect class="cls-9" x="48" y="53.34" width="10.66" height="10.66"/><rect class="cls-2" x="48" y="42.67" width="10.66" height="10.66"/><rect class="cls-4" x="48" y="32" width="10.66" height="10.67"/><rect class="cls-4" x="48" y="21.34" width="10.66" height="10.66"/><rect class="cls-2" x="48" y="10.67" width="10.66" height="10.66"/><rect class="cls-9" x="37.34" y="202.66" width="10.66" height="10.66"/><rect class="cls-9" x="37.34" y="192" width="10.66" height="10.66"/><rect class="cls-9" x="37.34" y="181.33" width="10.66" height="10.67"/><rect class="cls-9" x="37.34" y="170.66" width="10.66" height="10.66"/><rect class="cls-9" x="37.34" y="160" width="10.66" height="10.66"/><rect class="cls-9" x="37.34" y="149.34" width="10.66" height="10.66"/><rect class="cls-9" x="37.34" y="138.66" width="10.66" height="10.67"/><rect class="cls-9" x="37.34" y="128" width="10.66" height="10.66"/><rect class="cls-9" x="37.34" y="117.34" width="10.66" height="10.66"/><rect class="cls-9" x="37.34" y="106.66" width="10.66" height="10.67"/><rect class="cls-9" x="37.34" y="96" width="10.66" height="10.66"/><rect class="cls-9" x="37.34" y="85.34" width="10.66" height="10.66"/><rect class="cls-9" x="37.34" y="74.66" width="10.66" height="10.67"/><rect class="cls-9" x="37.34" y="64" width="10.66" height="10.66"/><rect class="cls-9" x="37.34" y="53.34" width="10.66" height="10.66"/><rect class="cls-2" x="37.34" y="42.67" width="10.66" height="10.66"/><rect class="cls-2" x="37.34" y="32" width="10.66" height="10.67"/><rect class="cls-2" x="37.34" y="21.34" width="10.66" height="10.66"/><rect class="cls-2" x="37.34" y="10.67" width="10.66" height="10.66"/><rect class="cls-9" x="26.67" y="192" width="10.67" height="10.66"/><rect class="cls-9" x="26.67" y="181.33" width="10.67" height="10.67"/><rect class="cls-9" x="26.67" y="170.66" width="10.67" height="10.66"/><rect class="cls-9" x="26.67" y="160" width="10.67" height="10.66"/><rect class="cls-9" x="26.67" y="149.34" width="10.67" height="10.66"/><rect class="cls-9" x="26.67" y="138.66" width="10.67" height="10.67"/><rect class="cls-9" x="26.67" y="128" width="10.67" height="10.66"/><rect class="cls-9" x="26.67" y="117.34" width="10.67" height="10.66"/><rect class="cls-9" x="26.67" y="106.66" width="10.67" height="10.67"/><rect class="cls-9" x="26.67" y="96" width="10.67" height="10.66"/><rect class="cls-9" x="26.67" y="85.34" width="10.67" height="10.66"/><rect class="cls-9" x="26.67" y="74.66" width="10.67" height="10.67"/><rect class="cls-9" x="26.67" y="64" width="10.67" height="10.66"/><rect class="cls-9" x="26.67" y="53.34" width="10.67" height="10.66"/><rect class="cls-9" x="26.67" y="42.67" width="10.67" height="10.66"/><rect class="cls-2" x="26.67" y="32" width="10.67" height="10.67"/><rect class="cls-2" x="26.67" y="21.34" width="10.67" height="10.66"/></svg>