<svg id="tecnologias" xmlns="http://www.w3.org/2000/svg" viewBox="0 0 224 224"><defs><style>.cls-1{fill:#40dfdf;}.cls-2{fill:#41dfdf;}.cls-3{fill:#48dbe0;}.cls-4{fill:#50d5e3;}.cls-5{fill:#7ebeea;}.cls-6{fill:#80beea;}.cls-7{fill:#55d4e4;}.cls-8{fill:#5bd0e4;}.cls-9{fill:#5fcde6;}.cls-10{fill:#65cbe5;}.cls-11{fill:#45dcdf;}.cls-12{fill:#6ac8e6;}.cls-13{fill:#3fdfdf;}.cls-14{fill:#73c4e8;}.cls-15{fill:#40e0df;}.cls-16{fill:#77c1e8;}.cls-17{fill:#7ec0ea;}.cls-18{fill:#6bc7e7;}</style></defs><rect x="197.55" y="181.5" width="10.69" height="10.7"/><rect x="197.55" y="170.81" width="10.69" height="10.69"/><rect x="197.55" y="160.12" width="10.69" height="10.69"/><rect x="197.55" y="149.43" width="10.69" height="10.69"/><rect x="197.55" y="138.73" width="10.69" height="10.7"/><rect x="197.55" y="53.19" width="10.69" height="10.69"/><rect x="197.55" y="42.5" width="10.69" height="10.69"/><rect x="197.55" y="31.8" width="10.69" height="10.7"/><rect x="186.85" y="192.2" width="10.7" height="10.69"/><rect class="cls-1" x="186.85" y="181.5" width="10.7" height="10.7"/><rect class="cls-2" x="186.85" y="170.81" width="10.7" height="10.69"/><rect class="cls-3" x="186.85" y="160.12" width="10.7" height="10.69"/><rect class="cls-3" x="186.85" y="149.43" width="10.7" height="10.69"/><rect class="cls-4" x="186.85" y="138.73" width="10.7" height="10.7"/><rect x="186.85" y="128.04" width="10.7" height="10.69"/><rect x="186.85" y="63.88" width="10.7" height="10.69"/><rect class="cls-5" x="186.85" y="53.19" width="10.7" height="10.69"/><rect class="cls-6" x="186.85" y="42.5" width="10.7" height="10.69"/><rect class="cls-6" x="186.85" y="31.8" width="10.7" height="10.7"/><rect x="186.85" y="21.11" width="10.7" height="10.69"/><rect x="176.15" y="202.89" width="10.69" height="10.69"/><rect class="cls-1" x="176.15" y="192.2" width="10.69" height="10.69"/><rect class="cls-1" x="176.15" y="181.5" width="10.69" height="10.7"/><rect class="cls-2" x="176.15" y="170.81" width="10.69" height="10.69"/><rect class="cls-3" x="176.15" y="160.12" width="10.69" height="10.69"/><rect class="cls-3" x="176.15" y="149.43" width="10.69" height="10.69"/><rect class="cls-4" x="176.15" y="138.73" width="10.69" height="10.7"/><rect class="cls-7" x="176.15" y="128.04" width="10.69" height="10.69"/><rect x="176.15" y="117.35" width="10.69" height="10.69"/><rect x="176.15" y="63.88" width="10.69" height="10.69"/><rect class="cls-5" x="176.15" y="53.19" width="10.69" height="10.69"/><rect class="cls-6" x="176.15" y="42.5" width="10.69" height="10.69"/><rect class="cls-6" x="176.15" y="31.8" width="10.69" height="10.7"/><rect class="cls-6" x="176.15" y="21.11" width="10.69" height="10.69"/><rect x="176.15" y="10.42" width="10.69" height="10.69"/><rect x="165.47" y="213.58" width="10.69" height="10.7"/><rect class="cls-1" x="165.47" y="202.89" width="10.69" height="10.69"/><rect class="cls-1" x="165.47" y="192.2" width="10.69" height="10.69"/><rect class="cls-1" x="165.47" y="181.5" width="10.69" height="10.7"/><rect class="cls-2" x="165.47" y="170.81" width="10.69" height="10.69"/><rect class="cls-3" x="165.47" y="160.12" width="10.69" height="10.69"/><rect class="cls-3" x="165.47" y="149.43" width="10.69" height="10.69"/><rect class="cls-4" x="165.47" y="138.73" width="10.69" height="10.7"/><rect class="cls-7" x="165.47" y="128.04" width="10.69" height="10.69"/><rect class="cls-8" x="165.47" y="117.35" width="10.69" height="10.69"/><rect x="165.47" y="106.65" width="10.69" height="10.7"/><rect x="165.47" y="63.88" width="10.69" height="10.69"/><rect class="cls-5" x="165.47" y="53.19" width="10.69" height="10.69"/><rect class="cls-6" x="165.47" y="42.5" width="10.69" height="10.69"/><rect class="cls-6" x="165.47" y="31.8" width="10.69" height="10.7"/><rect class="cls-6" x="165.47" y="21.11" width="10.69" height="10.69"/><rect class="cls-6" x="165.47" y="10.42" width="10.69" height="10.69"/><rect x="165.47" y="-0.28" width="10.69" height="10.7"/><rect x="154.78" y="213.58" width="10.69" height="10.7"/><rect class="cls-1" x="154.78" y="202.89" width="10.69" height="10.69"/><rect class="cls-1" x="154.78" y="192.2" width="10.69" height="10.69"/><rect class="cls-1" x="154.78" y="181.5" width="10.69" height="10.7"/><rect class="cls-2" x="154.78" y="170.81" width="10.69" height="10.69"/><rect x="154.78" y="160.12" width="10.69" height="10.69"/><rect class="cls-3" x="154.78" y="149.43" width="10.69" height="10.69"/><rect class="cls-4" x="154.78" y="138.73" width="10.69" height="10.7"/><rect class="cls-7" x="154.78" y="128.04" width="10.69" height="10.69"/><rect class="cls-8" x="154.78" y="117.35" width="10.69" height="10.69"/><rect class="cls-9" x="154.78" y="106.65" width="10.69" height="10.7"/><rect x="154.78" y="95.96" width="10.69" height="10.69"/><rect x="154.78" y="63.88" width="10.69" height="10.69"/><rect class="cls-5" x="154.78" y="53.19" width="10.69" height="10.69"/><rect class="cls-6" x="154.78" y="42.5" width="10.69" height="10.69"/><rect class="cls-6" x="154.78" y="31.8" width="10.69" height="10.7"/><rect class="cls-6" x="154.78" y="21.11" width="10.69" height="10.69"/><rect x="154.78" y="10.42" width="10.69" height="10.69"/><rect x="154.78" y="-0.28" width="10.69" height="10.7"/><rect x="144.07" y="213.58" width="10.7" height="10.7"/><rect x="144.07" y="202.89" width="10.7" height="10.69"/><rect class="cls-1" x="144.07" y="192.2" width="10.7" height="10.69"/><rect class="cls-1" x="144.07" y="181.5" width="10.7" height="10.7"/><rect class="cls-2" x="144.07" y="170.81" width="10.7" height="10.69"/><rect x="144.07" y="160.12" width="10.7" height="10.69"/><rect x="144.07" y="149.43" width="10.7" height="10.69"/><rect class="cls-4" x="144.07" y="138.73" width="10.7" height="10.7"/><rect class="cls-7" x="144.07" y="128.04" width="10.7" height="10.69"/><rect x="144.07" y="117.35" width="10.7" height="10.69"/><rect class="cls-9" x="144.07" y="106.65" width="10.7" height="10.7"/><rect class="cls-10" x="144.07" y="95.96" width="10.7" height="10.69"/><rect x="144.07" y="85.27" width="10.7" height="10.69"/><rect x="144.07" y="53.19" width="10.7" height="10.69"/><rect class="cls-6" x="144.07" y="42.5" width="10.7" height="10.69"/><rect class="cls-6" x="144.07" y="31.8" width="10.7" height="10.7"/><rect x="144.07" y="21.11" width="10.7" height="10.69"/><rect class="cls-6" x="144.07" y="10.42" width="10.7" height="10.69"/><rect x="144.07" y="-0.28" width="10.7" height="10.7"/><rect x="133.39" y="213.58" width="10.69" height="10.7"/><rect class="cls-1" x="133.39" y="202.89" width="10.69" height="10.69"/><rect x="133.39" y="192.2" width="10.69" height="10.69"/><rect class="cls-1" x="133.39" y="181.5" width="10.69" height="10.7"/><rect x="133.39" y="170.81" width="10.69" height="10.69"/><rect class="cls-11" x="133.39" y="160.12" width="10.69" height="10.69"/><rect x="133.39" y="149.43" width="10.69" height="10.69"/><rect class="cls-4" x="133.39" y="138.73" width="10.69" height="10.7"/><rect class="cls-7" x="133.39" y="128.04" width="10.69" height="10.69"/><rect x="133.39" y="117.35" width="10.69" height="10.69"/><rect class="cls-9" x="133.39" y="106.65" width="10.69" height="10.7"/><rect class="cls-10" x="133.39" y="95.96" width="10.69" height="10.69"/><rect class="cls-12" x="133.39" y="85.27" width="10.69" height="10.69"/><rect x="133.39" y="74.57" width="10.69" height="10.7"/><rect x="133.39" y="42.5" width="10.69" height="10.69"/><rect x="133.39" y="31.8" width="10.69" height="10.7"/><rect class="cls-6" x="133.39" y="21.11" width="10.69" height="10.69"/><rect class="cls-6" x="133.39" y="10.42" width="10.69" height="10.69"/><rect x="133.39" y="-0.28" width="10.69" height="10.7"/><rect x="122.7" y="213.58" width="10.69" height="10.7"/><rect class="cls-1" x="122.7" y="202.89" width="10.69" height="10.69"/><rect class="cls-13" x="122.7" y="192.2" width="10.69" height="10.69"/><rect x="122.7" y="181.5" width="10.69" height="10.7"/><rect x="122.7" y="170.81" width="10.69" height="10.69"/><rect class="cls-11" x="122.7" y="160.12" width="10.69" height="10.69"/><rect x="122.7" y="149.43" width="10.69" height="10.69"/><rect class="cls-4" x="122.7" y="138.73" width="10.69" height="10.7"/><rect class="cls-7" x="122.7" y="128.04" width="10.69" height="10.69"/><rect x="122.7" y="117.35" width="10.69" height="10.69"/><rect class="cls-9" x="122.7" y="106.65" width="10.69" height="10.7"/><rect class="cls-10" x="122.7" y="95.96" width="10.69" height="10.69"/><rect class="cls-12" x="122.7" y="85.27" width="10.69" height="10.69"/><rect class="cls-14" x="122.7" y="74.57" width="10.69" height="10.7"/><rect x="122.7" y="63.88" width="10.69" height="10.69"/><rect x="122.7" y="53.19" width="10.69" height="10.69"/><rect x="122.7" y="42.5" width="10.69" height="10.69"/><rect class="cls-6" x="122.7" y="31.8" width="10.69" height="10.7"/><rect class="cls-6" x="122.7" y="21.11" width="10.69" height="10.69"/><rect class="cls-6" x="122.7" y="10.42" width="10.69" height="10.69"/><rect x="122.7" y="-0.28" width="10.69" height="10.7"/><rect x="112" y="213.58" width="10.7" height="10.7"/><rect class="cls-1" x="112" y="202.89" width="10.7" height="10.69"/><rect class="cls-13" x="112" y="192.2" width="10.7" height="10.69"/><rect class="cls-1" x="112" y="181.5" width="10.7" height="10.7"/><rect class="cls-15" x="112" y="170.81" width="10.7" height="10.69"/><rect class="cls-11" x="112" y="160.12" width="10.7" height="10.69"/><rect x="112" y="149.43" width="10.7" height="10.69"/><rect class="cls-4" x="112" y="138.73" width="10.7" height="10.7"/><rect class="cls-7" x="112" y="128.04" width="10.7" height="10.69"/><rect x="112" y="117.35" width="10.7" height="10.69"/><rect class="cls-9" x="112" y="106.65" width="10.7" height="10.7"/><rect class="cls-10" x="112" y="95.96" width="10.7" height="10.69"/><rect x="112" y="85.27" width="10.7" height="10.69"/><rect class="cls-14" x="112" y="74.57" width="10.7" height="10.7"/><rect class="cls-16" x="112" y="63.88" width="10.7" height="10.69"/><rect class="cls-17" x="112" y="53.19" width="10.7" height="10.69"/><rect class="cls-6" x="112" y="42.5" width="10.7" height="10.69"/><rect class="cls-6" x="112" y="31.8" width="10.7" height="10.7"/><rect x="112" y="21.11" width="10.7" height="10.69"/><rect class="cls-6" x="112" y="10.42" width="10.7" height="10.69"/><rect x="112" y="-0.28" width="10.7" height="10.7"/><rect x="101.3" y="213.58" width="10.69" height="10.7"/><rect class="cls-1" x="101.3" y="202.89" width="10.69" height="10.69"/><rect class="cls-13" x="101.3" y="192.2" width="10.69" height="10.69"/><rect class="cls-1" x="101.3" y="181.5" width="10.69" height="10.7"/><rect class="cls-15" x="101.3" y="170.81" width="10.69" height="10.69"/><rect class="cls-11" x="101.3" y="160.12" width="10.69" height="10.69"/><rect x="101.3" y="149.43" width="10.69" height="10.69"/><rect class="cls-4" x="101.3" y="138.73" width="10.69" height="10.7"/><rect class="cls-7" x="101.3" y="128.04" width="10.69" height="10.69"/><rect x="101.3" y="117.35" width="10.69" height="10.69"/><rect class="cls-9" x="101.3" y="106.65" width="10.69" height="10.7"/><rect class="cls-10" x="101.3" y="95.96" width="10.69" height="10.69"/><rect x="101.3" y="85.27" width="10.69" height="10.69"/><rect class="cls-14" x="101.3" y="74.57" width="10.69" height="10.7"/><rect class="cls-16" x="101.3" y="63.88" width="10.69" height="10.69"/><rect class="cls-17" x="101.3" y="53.19" width="10.69" height="10.69"/><rect class="cls-6" x="101.3" y="42.5" width="10.69" height="10.69"/><rect class="cls-6" x="101.3" y="31.8" width="10.69" height="10.7"/><rect x="101.3" y="21.11" width="10.69" height="10.69"/><rect class="cls-6" x="101.3" y="10.42" width="10.69" height="10.69"/><rect x="101.3" y="-0.28" width="10.69" height="10.7"/><rect x="90.62" y="213.58" width="10.69" height="10.7"/><rect class="cls-1" x="90.62" y="202.89" width="10.69" height="10.69"/><rect class="cls-13" x="90.62" y="192.2" width="10.69" height="10.69"/><rect class="cls-1" x="90.62" y="181.5" width="10.69" height="10.7"/><rect class="cls-15" x="90.62" y="170.81" width="10.69" height="10.69"/><rect class="cls-11" x="90.62" y="160.12" width="10.69" height="10.69"/><rect x="90.62" y="149.43" width="10.69" height="10.69"/><rect class="cls-4" x="90.62" y="138.73" width="10.69" height="10.7"/><rect class="cls-7" x="90.62" y="128.04" width="10.69" height="10.69"/><rect x="90.62" y="117.35" width="10.69" height="10.69"/><rect class="cls-9" x="90.62" y="106.65" width="10.69" height="10.7"/><rect class="cls-10" x="90.62" y="95.96" width="10.69" height="10.69"/><rect x="90.62" y="85.27" width="10.69" height="10.69"/><rect class="cls-14" x="90.62" y="74.57" width="10.69" height="10.7"/><rect class="cls-16" x="90.62" y="63.88" width="10.69" height="10.69"/><rect x="90.62" y="53.19" width="10.69" height="10.69"/><rect class="cls-6" x="90.62" y="42.5" width="10.69" height="10.69"/><rect class="cls-6" x="90.62" y="31.8" width="10.69" height="10.7"/><rect x="90.62" y="21.11" width="10.69" height="10.69"/><rect class="cls-6" x="90.62" y="10.42" width="10.69" height="10.69"/><rect x="90.62" y="-0.28" width="10.69" height="10.7"/><rect x="79.91" y="213.58" width="10.7" height="10.7"/><rect class="cls-1" x="79.91" y="202.89" width="10.7" height="10.69"/><rect class="cls-13" x="79.91" y="192.2" width="10.7" height="10.69"/><rect class="cls-1" x="79.91" y="181.5" width="10.7" height="10.7"/><rect class="cls-15" x="79.91" y="170.81" width="10.7" height="10.69"/><rect class="cls-11" x="79.91" y="160.12" width="10.7" height="10.69"/><rect x="79.91" y="149.43" width="10.7" height="10.69"/><rect class="cls-4" x="79.91" y="138.73" width="10.7" height="10.7"/><rect class="cls-7" x="79.91" y="128.04" width="10.7" height="10.69"/><rect class="cls-8" x="79.91" y="117.35" width="10.7" height="10.69"/><rect class="cls-9" x="79.91" y="106.65" width="10.7" height="10.7"/><rect class="cls-10" x="79.91" y="95.96" width="10.7" height="10.69"/><rect x="79.91" y="85.27" width="10.7" height="10.69"/><rect class="cls-14" x="79.91" y="74.57" width="10.7" height="10.7"/><rect class="cls-16" x="79.91" y="63.88" width="10.7" height="10.69"/><rect x="79.91" y="53.19" width="10.7" height="10.69"/><rect class="cls-6" x="79.91" y="42.5" width="10.7" height="10.69"/><rect class="cls-6" x="79.91" y="31.8" width="10.7" height="10.7"/><rect x="79.91" y="21.11" width="10.7" height="10.69"/><rect class="cls-6" x="79.91" y="10.42" width="10.7" height="10.69"/><rect x="79.91" y="-0.28" width="10.7" height="10.7"/><rect x="69.23" y="213.58" width="10.69" height="10.7"/><rect class="cls-1" x="69.23" y="202.89" width="10.69" height="10.69"/><rect class="cls-13" x="69.23" y="192.2" width="10.69" height="10.69"/><rect class="cls-1" x="69.23" y="181.5" width="10.69" height="10.7"/><rect class="cls-15" x="69.23" y="170.81" width="10.69" height="10.69"/><rect class="cls-11" x="69.23" y="160.12" width="10.69" height="10.69"/><rect x="69.23" y="149.43" width="10.69" height="10.69"/><rect x="69.23" y="138.73" width="10.69" height="10.7"/><rect x="69.23" y="128.04" width="10.69" height="10.69"/><rect class="cls-8" x="69.23" y="117.35" width="10.69" height="10.69"/><rect class="cls-9" x="69.23" y="106.65" width="10.69" height="10.7"/><rect class="cls-10" x="69.23" y="95.96" width="10.69" height="10.69"/><rect x="69.23" y="85.27" width="10.69" height="10.69"/><rect class="cls-14" x="69.23" y="74.57" width="10.69" height="10.7"/><rect class="cls-16" x="69.23" y="63.88" width="10.69" height="10.69"/><rect x="69.23" y="53.19" width="10.69" height="10.69"/><rect class="cls-6" x="69.23" y="42.5" width="10.69" height="10.69"/><rect class="cls-6" x="69.23" y="31.8" width="10.69" height="10.7"/><rect x="69.23" y="21.11" width="10.69" height="10.69"/><rect class="cls-6" x="69.23" y="10.42" width="10.69" height="10.69"/><rect x="69.23" y="-0.28" width="10.69" height="10.7"/><rect x="58.54" y="213.58" width="10.69" height="10.7"/><rect class="cls-1" x="58.54" y="202.89" width="10.69" height="10.69"/><rect class="cls-13" x="58.54" y="192.2" width="10.69" height="10.69"/><rect class="cls-1" x="58.54" y="181.5" width="10.69" height="10.7"/><rect class="cls-15" x="58.54" y="170.81" width="10.69" height="10.69"/><rect class="cls-11" x="58.54" y="160.12" width="10.69" height="10.69"/><rect x="58.54" y="149.43" width="10.69" height="10.69"/><rect x="58.54" y="117.35" width="10.69" height="10.69"/><rect x="58.54" y="106.65" width="10.69" height="10.7"/><rect class="cls-10" x="58.54" y="95.96" width="10.69" height="10.69"/><rect class="cls-18" x="58.54" y="85.27" width="10.69" height="10.69"/><rect class="cls-14" x="58.54" y="74.57" width="10.69" height="10.7"/><rect class="cls-16" x="58.54" y="63.88" width="10.69" height="10.69"/><rect x="58.54" y="53.19" width="10.69" height="10.69"/><rect class="cls-6" x="58.54" y="42.5" width="10.69" height="10.69"/><rect class="cls-6" x="58.54" y="31.8" width="10.69" height="10.7"/><rect x="58.54" y="21.11" width="10.69" height="10.69"/><rect class="cls-6" x="58.54" y="10.42" width="10.69" height="10.69"/><rect x="58.54" y="-0.28" width="10.69" height="10.7"/><rect x="47.85" y="202.89" width="10.69" height="10.69"/><rect class="cls-13" x="47.85" y="192.2" width="10.69" height="10.69"/><rect class="cls-1" x="47.85" y="181.5" width="10.69" height="10.7"/><rect class="cls-15" x="47.85" y="170.81" width="10.69" height="10.69"/><rect x="47.85" y="160.12" width="10.69" height="10.69"/><rect x="47.85" y="95.96" width="10.69" height="10.69"/><rect class="cls-18" x="47.85" y="85.27" width="10.69" height="10.69"/><rect class="cls-14" x="47.85" y="74.57" width="10.69" height="10.7"/><rect class="cls-16" x="47.85" y="63.88" width="10.69" height="10.69"/><rect x="47.85" y="53.19" width="10.69" height="10.69"/><rect class="cls-6" x="47.85" y="42.5" width="10.69" height="10.69"/><rect class="cls-6" x="47.85" y="31.8" width="10.69" height="10.7"/><rect class="cls-6" x="47.85" y="21.11" width="10.69" height="10.69"/><rect class="cls-6" x="47.85" y="10.42" width="10.69" height="10.69"/><rect x="47.85" y="-0.28" width="10.69" height="10.7"/><rect x="37.14" y="192.2" width="10.7" height="10.69"/><rect x="37.14" y="181.5" width="10.7" height="10.7"/><rect x="37.14" y="170.81" width="10.7" height="10.69"/><rect x="37.14" y="85.27" width="10.7" height="10.69"/><rect class="cls-14" x="37.14" y="74.57" width="10.7" height="10.7"/><rect class="cls-16" x="37.14" y="63.88" width="10.7" height="10.69"/><rect class="cls-17" x="37.14" y="53.19" width="10.7" height="10.69"/><rect class="cls-6" x="37.14" y="42.5" width="10.7" height="10.69"/><rect class="cls-6" x="37.14" y="31.8" width="10.7" height="10.7"/><rect class="cls-6" x="37.14" y="21.11" width="10.7" height="10.69"/><rect x="37.14" y="10.42" width="10.7" height="10.69"/><rect x="26.46" y="74.57" width="10.69" height="10.7"/><rect class="cls-16" x="26.46" y="63.88" width="10.69" height="10.69"/><rect class="cls-17" x="26.46" y="53.19" width="10.69" height="10.69"/><rect class="cls-6" x="26.46" y="42.5" width="10.69" height="10.69"/><rect class="cls-6" x="26.46" y="31.8" width="10.69" height="10.7"/><rect x="26.46" y="21.11" width="10.69" height="10.69"/><rect x="15.77" y="63.88" width="10.69" height="10.69"/><rect x="15.77" y="53.19" width="10.69" height="10.69"/><rect x="15.77" y="42.5" width="10.69" height="10.69"/><rect x="15.77" y="31.8" width="10.69" height="10.7"/></svg>