<?xml version="1.0" encoding="utf-8"?>
<svg xmlns="http://www.w3.org/2000/svg" viewBox="-2799.0027 -77.6158 224.015 140.7769" width="224.015px" height="140.7769px"><g transform="matrix(1.0000669956207275, 0, 0, 1.0055489540100098, -2799.002685546875, -77.61578369140625)" id="object-1"><path d="M 0 56 H 9.333 V 65.333 H 0 V 56 Z" style="fill: #0079d8;"/><path d="M 0 65.333 H 9.333 V 74.667 H 0 V 65.333 Z" style="fill: #0079d8;"/><path d="M 0 74.667 H 9.333 V 84 H 0 V 74.667 Z" style="fill: #0079d8;"/><path d="M 0 84 H 9.333 V 93.333 H 0 V 84 Z" style="fill: #0079d8;"/><path d="M 0 93.333 H 9.333 V 102.667 H 0 V 93.333 Z" style="fill: #0079d8;"/><path d="M 0 102.667 H 9.333 V 112 H 0 V 102.667 Z" style="fill: #0079d8;"/><path d="M 9.333 46.667 H 18.667 V 56 H 9.333 V 46.667 Z" style="fill: #0079d8;"/><path d="M 9.333 56 H 18.667 V 65.333 H 9.333 V 56 Z" style="fill: #0079d8;"/><path d="M 9.333 65.333 H 18.667 V 74.667 H 9.333 V 65.333 Z" style="fill: #0079d8;"/><path d="M 9.333 74.667 H 18.667 V 84 H 9.333 V 74.667 Z" style="fill: #0079d8;"/><path d="M 9.333 84 H 18.667 V 93.333 H 9.333 V 84 Z" style="fill: #0079d8;"/><path d="M 9.333 93.333 H 18.667 V 102.667 H 9.333 V 93.333 Z" style="fill: #0079d8;"/><path d="M 9.333 102.667 H 18.667 V 112 H 9.333 V 102.667 Z" style="fill: #0079d8;"/><path d="M 9.333 112 H 18.667 V 121.333 H 9.333 V 112 Z" style="fill: #0079d8;"/><path d="M 18.667 37.333 H 28 V 46.667 H 18.667 V 37.333 Z" style="fill: #0079d8;"/><path d="M 18.667 46.667 H 28 V 56 H 18.667 V 46.667 Z" style="fill: #0079d8;"/><path d="M 18.667 56 H 28 V 65.333 H 18.667 V 56 Z" style="fill: #0079d8;"/><path d="M 18.667 65.333 H 28 V 74.667 H 18.667 V 65.333 Z" style="fill: #0079d8;"/><path d="M 18.667 74.667 H 28 V 84 H 18.667 V 74.667 Z" style="fill: #0079d8;"/><path d="M 18.667 84 H 28 V 93.333 H 18.667 V 84 Z" style="fill: #0079d8;"/><path d="M 18.667 93.333 H 28 V 102.667 H 18.667 V 93.333 Z" style="fill: #0079d8;"/><path d="M 18.667 102.667 H 28 V 112 H 18.667 V 102.667 Z" style="fill: #0079d8;"/><path d="M 18.667 112 H 28 V 121.333 H 18.667 V 112 Z" style="fill: #0079d8;"/><path d="M 18.667 121.333 H 28 V 130.667 H 18.667 V 121.333 Z" style="fill: #0079d8;"/><path d="M 28 28 H 37.333 V 37.333 H 28 V 28 Z" style="fill: #0079d8;"/><path d="M 28 37.333 H 37.333 V 46.667 H 28 V 37.333 Z" style="fill: #0079d8;"/><path d="M 28 46.667 H 37.333 V 56 H 28 V 46.667 Z" style="fill: #0079d8;"/><path d="M 28 56 H 37.333 V 65.333 H 28 V 56 Z" style="fill: #0079d8;"/><path d="M 28 65.333 H 37.333 V 74.667 H 28 V 65.333 Z" style="fill: #3796e0;"/><path d="M 28 74.667 H 37.333 V 84 H 28 V 74.667 Z" style="fill: #0079d8;"/><path d="M 28 84 H 37.333 V 93.333 H 28 V 84 Z" style="fill: #0079d8;"/><path d="M 28 93.333 H 37.333 V 102.667 H 28 V 93.333 Z" style="fill: #007bd8;"/><path d="M 28 102.667 H 37.333 V 112 H 28 V 102.667 Z" style="fill: #0079d8;"/><path d="M 28 112 H 37.333 V 121.333 H 28 V 112 Z" style="fill: #0079d8;"/><path d="M 28 121.333 H 37.333 V 130.667 H 28 V 121.333 Z" style="fill: #0079d8;"/><path d="M 37.333 28 H 46.667 V 37.333 H 37.333 V 28 Z" style="fill: #0079d8;"/><path d="M 37.333 37.333 H 46.667 V 46.667 H 37.333 V 37.333 Z" style="fill: #0079d8;"/><path d="M 37.333 46.667 H 46.667 V 56 H 37.333 V 46.667 Z" style="fill: #0079d8;"/><path d="M 37.333 56 H 46.667 V 65.333 H 37.333 V 56 Z" style="fill: #0079d8;"/><path d="M 37.333 65.333 H 46.667 V 74.667 H 37.333 V 65.333 Z" style="fill: #ffffff;"/><path d="M 37.333 74.667 H 46.667 V 84 H 37.333 V 74.667 Z" style="fill: #ffffff;"/><path d="M 37.333 84 H 46.667 V 93.333 H 37.333 V 84 Z" style="fill: #ffffff;"/><path d="M 37.333 93.333 H 46.667 V 102.667 H 37.333 V 93.333 Z" style="fill: #0079d8;"/><path d="M 37.333 102.667 H 46.667 V 112 H 37.333 V 102.667 Z" style="fill: #0079d8;"/><path d="M 37.333 112 H 46.667 V 121.333 H 37.333 V 112 Z" style="fill: #0079d8;"/><path d="M 37.333 121.333 H 46.667 V 130.667 H 37.333 V 121.333 Z" style="fill: #0079d8;"/><path d="M 37.333 130.667 H 46.667 V 140 H 37.333 V 130.667 Z" style="fill: #0079d8;"/><path d="M 46.667 28 H 56 V 37.333 H 46.667 V 28 Z" style="fill: #0079d8;"/><path d="M 46.667 37.333 H 56 V 46.667 H 46.667 V 37.333 Z" style="fill: #0079d8;"/><path d="M 46.667 46.667 H 56 V 56 H 46.667 V 46.667 Z" style="fill: #0079d8;"/><path d="M 46.667 56 H 56 V 65.333 H 46.667 V 56 Z" style="fill: #0079d8;"/><path d="M 46.667 65.333 H 56 V 74.667 H 46.667 V 65.333 Z" style="fill: #0079d8;"/><path d="M 46.667 74.667 H 56 V 84 H 46.667 V 74.667 Z" style="fill: #0079d8;"/><path d="M 46.667 84 H 56 V 93.333 H 46.667 V 84 Z" style="fill: #ffffff;"/><path d="M 46.667 93.333 H 56 V 102.667 H 46.667 V 93.333 Z" style="fill: #ffffff;"/><path d="M 46.667 102.667 H 56 V 112 H 46.667 V 102.667 Z" style="fill: #ffffff;"/><path d="M 46.667 112 H 56 V 121.333 H 46.667 V 112 Z" style="fill: #ffffff;"/><path d="M 46.667 121.333 H 56 V 130.667 H 46.667 V 121.333 Z" style="fill: #0079d8;"/><path d="M 46.667 130.667 H 56 V 140 H 46.667 V 130.667 Z" style="fill: #0079d8;"/><path d="M 56 28 H 65.333 V 37.333 H 56 V 28 Z" style="fill: #0079d8;"/><path d="M 56 37.333 H 65.333 V 46.667 H 56 V 37.333 Z" style="fill: #0079d8;"/><path d="M 56 46.667 H 65.333 V 56 H 56 V 46.667 Z" style="fill: #0079d8;"/><path d="M 56 56 H 65.333 V 65.333 H 56 V 56 Z" style="fill: #0079d8;"/><path d="M 56 65.333 H 65.333 V 74.667 H 56 V 65.333 Z" style="fill: #0079d8;"/><path d="M 56 74.667 H 65.333 V 84 H 56 V 74.667 Z" style="fill: #0079d8;"/><path d="M 56 84 H 65.333 V 93.333 H 56 V 84 Z" style="fill: #0079d8;"/><path d="M 56 93.333 H 65.333 V 102.667 H 56 V 93.333 Z" style="fill: #0079d8;"/><path d="M 56 102.667 H 65.333 V 112 H 56 V 102.667 Z" style="fill: #ffffff;"/><path d="M 56 112 H 65.333 V 121.333 H 56 V 112 Z" style="fill: #ffffff;"/><path d="M 56 121.333 H 65.333 V 130.667 H 56 V 121.333 Z" style="fill: #0079d8;"/><path d="M 56 130.667 H 65.333 V 140 H 56 V 130.667 Z" style="fill: #0079d8;"/><path d="M 65.333 18.667 H 74.667 V 28 H 65.333 V 18.667 Z" style="fill: #0079d8;"/><path d="M 65.333 28 H 74.667 V 37.333 H 65.333 V 28 Z" style="fill: #0079d8;"/><path d="M 65.333 37.333 H 74.667 V 46.667 H 65.333 V 37.333 Z" style="fill: #0079d8;"/><path d="M 65.333 46.667 H 74.667 V 56 H 65.333 V 46.667 Z" style="fill: #0079d8;"/><path d="M 65.333 56 H 74.667 V 65.333 H 65.333 V 56 Z" style="fill: #0079d8;"/><path d="M 65.333 65.333 H 74.667 V 74.667 H 65.333 V 65.333 Z" style="fill: #0079d8;"/><path d="M 65.333 74.667 H 74.667 V 84 H 65.333 V 74.667 Z" style="fill: #ffffff;"/><path d="M 65.333 84 H 74.667 V 93.333 H 65.333 V 84 Z" style="fill: #ffffff;"/><path d="M 65.333 93.333 H 74.667 V 102.667 H 65.333 V 93.333 Z" style="fill: #ffffff;"/><path d="M 65.333 102.667 H 74.667 V 112 H 65.333 V 102.667 Z" style="fill: #65aee7;"/><path d="M 65.333 112 H 74.667 V 121.333 H 65.333 V 112 Z" style="fill: #0079d8;"/><path d="M 65.333 121.333 H 74.667 V 130.667 H 65.333 V 121.333 Z" style="fill: #0079d8;"/><path d="M 65.333 130.667 H 74.667 V 140 H 65.333 V 130.667 Z" style="fill: #0079d8;"/><path d="M 74.667 9.333 H 84 V 18.667 H 74.667 V 9.333 Z" style="fill: #0079d8;"/><path d="M 74.667 18.667 H 84 V 28 H 74.667 V 18.667 Z" style="fill: #0079d8;"/><path d="M 74.667 28 H 84 V 37.333 H 74.667 V 28 Z" style="fill: #0079d8;"/><path d="M 74.667 37.333 H 84 V 46.667 H 74.667 V 37.333 Z" style="fill: #0079d8;"/><path d="M 74.667 46.667 H 84 V 56 H 74.667 V 46.667 Z" style="fill: #0079d8;"/><path d="M 74.667 56 H 84 V 65.333 H 74.667 V 56 Z" style="fill: #0079d8;"/><path d="M 74.667 65.333 H 84 V 74.667 H 74.667 V 65.333 Z" style="fill: #ffffff;"/><path d="M 74.667 74.667 H 84 V 84 H 74.667 V 74.667 Z" style="fill: #ffffff;"/><path d="M 74.667 84 H 84 V 93.333 H 74.667 V 84 Z" style="fill: #0079d8;"/><path d="M 74.667 93.333 H 84 V 102.667 H 74.667 V 93.333 Z" style="fill: #0079d8;"/><path d="M 74.667 102.667 H 84 V 112 H 74.667 V 102.667 Z" style="fill: #0079d8;"/><path d="M 74.667 112 H 84 V 121.333 H 74.667 V 112 Z" style="fill: #0079d8;"/><path d="M 74.667 121.333 H 84 V 130.667 H 74.667 V 121.333 Z" style="fill: #0079d8;"/><path d="M 74.667 130.667 H 84 V 140 H 74.667 V 130.667 Z" style="fill: #0079d8;"/><path d="M 84 9.333 H 93.333 V 18.667 H 84 V 9.333 Z" style="fill: #0079d8;"/><path d="M 84 18.667 H 93.333 V 28 H 84 V 18.667 Z" style="fill: #0079d8;"/><path d="M 84 28 H 93.333 V 37.333 H 84 V 28 Z" style="fill: #0079d8;"/><path d="M 84 37.333 H 93.333 V 46.667 H 84 V 37.333 Z" style="fill: #0079d8;"/><path d="M 84 46.667 H 93.333 V 56 H 84 V 46.667 Z" style="fill: #0079d8;"/><path d="M 84 56 H 93.333 V 65.333 H 84 V 56 Z" style="fill: #0079d8;"/><path d="M 84 65.333 H 93.333 V 74.667 H 84 V 65.333 Z" style="fill: #0079d8;"/><path d="M 84 74.667 H 93.333 V 84 H 84 V 74.667 Z" style="fill: #0079d8;"/><path d="M 84 84 H 93.333 V 93.333 H 84 V 84 Z" style="fill: #0079d8;"/><path d="M 84 93.333 H 93.333 V 102.667 H 84 V 93.333 Z" style="fill: #0079d8;"/><path d="M 84 102.667 H 93.333 V 112 H 84 V 102.667 Z" style="fill: #0079d8;"/><path d="M 84 112 H 93.333 V 121.333 H 84 V 112 Z" style="fill: #0079d8;"/><path d="M 84 121.333 H 93.333 V 130.667 H 84 V 121.333 Z" style="fill: #0079d8;"/><path d="M 84 130.667 H 93.333 V 140 H 84 V 130.667 Z" style="fill: #0079d8;"/><path d="M 93.333 0 H 102.667 V 9.333 H 93.333 V 0 Z" style="fill: #0079d8;"/><path d="M 93.333 9.333 H 102.667 V 18.667 H 93.333 V 9.333 Z" style="fill: #0079d8;"/><path d="M 93.333 18.667 H 102.667 V 28 H 93.333 V 18.667 Z" style="fill: #0079d8;"/><path d="M 93.333 28 H 102.667 V 37.333 H 93.333 V 28 Z" style="fill: #0079d8;"/><path d="M 93.333 37.333 H 102.667 V 46.667 H 93.333 V 37.333 Z" style="fill: #0079d8;"/><path d="M 93.333 46.667 H 102.667 V 56 H 93.333 V 46.667 Z" style="fill: #0079d8;"/><path d="M 93.333 56 H 102.667 V 65.333 H 93.333 V 56 Z" style="fill: #0079d8;"/><path d="M 93.333 65.333 H 102.667 V 74.667 H 93.333 V 65.333 Z" style="fill: #ffffff;"/><path d="M 93.333 74.667 H 102.667 V 84 H 93.333 V 74.667 Z" style="fill: #ffffff;"/><path d="M 93.333 84 H 102.667 V 93.333 H 93.333 V 84 Z" style="fill: #ffffff;"/><path d="M 93.333 93.333 H 102.667 V 102.667 H 93.333 V 93.333 Z" style="fill: #ffffff;"/><path d="M 93.333 102.667 H 102.667 V 112 H 93.333 V 102.667 Z" style="fill: #feffff;"/><path d="M 93.333 112 H 102.667 V 121.333 H 93.333 V 112 Z" style="fill: #ffffff;"/><path d="M 93.333 121.333 H 102.667 V 130.667 H 93.333 V 121.333 Z" style="fill: #0079d8;"/><path d="M 93.333 130.667 H 102.667 V 140 H 93.333 V 130.667 Z" style="fill: #0079d8;"/><path d="M 102.667 0 H 112 V 9.333 H 102.667 V 0 Z" style="fill: #0079d8;"/><path d="M 102.667 9.333 H 112 V 18.667 H 102.667 V 9.333 Z" style="fill: #0079d8;"/><path d="M 102.667 18.667 H 112 V 28 H 102.667 V 18.667 Z" style="fill: #0079d8;"/><path d="M 102.667 28 H 112 V 37.333 H 102.667 V 28 Z" style="fill: #0079d8;"/><path d="M 102.667 37.333 H 112 V 46.667 H 102.667 V 37.333 Z" style="fill: #0079d8;"/><path d="M 102.667 46.667 H 112 V 56 H 102.667 V 46.667 Z" style="fill: #0079d8;"/><path d="M 102.667 56 H 112 V 65.333 H 102.667 V 56 Z" style="fill: #0079d8;"/><path d="M 102.667 65.333 H 112 V 74.667 H 102.667 V 65.333 Z" style="fill: #ffffff;"/><path d="M 102.667 74.667 H 112 V 84 H 102.667 V 74.667 Z" style="fill: #0079d8;"/><path d="M 102.667 84 H 112 V 93.333 H 102.667 V 84 Z" style="fill: #0079d8;"/><path d="M 102.667 93.333 H 112 V 102.667 H 102.667 V 93.333 Z" style="fill: #ffffff;"/><path d="M 102.667 102.667 H 112 V 112 H 102.667 V 102.667 Z" style="fill: #0079d8;"/><path d="M 102.667 112 H 112 V 121.333 H 102.667 V 112 Z" style="fill: #0079d8;"/><path d="M 102.667 121.333 H 112 V 130.667 H 102.667 V 121.333 Z" style="fill: #0079d8;"/><path d="M 102.667 130.667 H 112 V 140 H 102.667 V 130.667 Z" style="fill: #0079d8;"/><path d="M 112 0 H 121.333 V 9.333 H 112 V 0 Z" style="fill: #0079d8;"/><path d="M 112 9.333 H 121.333 V 18.667 H 112 V 9.333 Z" style="fill: #0079d8;"/><path d="M 112 18.667 H 121.333 V 28 H 112 V 18.667 Z" style="fill: #0079d8;"/><path d="M 112 28 H 121.333 V 37.333 H 112 V 28 Z" style="fill: #0079d8;"/><path d="M 112 37.333 H 121.333 V 46.667 H 112 V 37.333 Z" style="fill: #0079d8;"/><path d="M 112 46.667 H 121.333 V 56 H 112 V 46.667 Z" style="fill: #0079d8;"/><path d="M 112 56 H 121.333 V 65.333 H 112 V 56 Z" style="fill: #0079d8;"/><path d="M 112 65.333 H 121.333 V 74.667 H 112 V 65.333 Z" style="fill: #ffffff;"/><path d="M 112 74.667 H 121.333 V 84 H 112 V 74.667 Z" style="fill: #0079d8;"/><path d="M 112 84 H 121.333 V 93.333 H 112 V 84 Z" style="fill: #0079d8;"/><path d="M 112 93.333 H 121.333 V 102.667 H 112 V 93.333 Z" style="fill: #ffffff;"/><path d="M 112 102.667 H 121.333 V 112 H 112 V 102.667 Z" style="fill: #0079d8;"/><path d="M 112 112 H 121.333 V 121.333 H 112 V 112 Z" style="fill: #0079d8;"/><path d="M 112 121.333 H 121.333 V 130.667 H 112 V 121.333 Z" style="fill: #0079d8;"/><path d="M 112 130.667 H 121.333 V 140 H 112 V 130.667 Z" style="fill: #0079d8;"/><path d="M 121.333 0 H 130.667 V 9.333 H 121.333 V 0 Z" style="fill: #0079d8;"/><path d="M 121.333 9.333 H 130.667 V 18.667 H 121.333 V 9.333 Z" style="fill: #0079d8;"/><path d="M 121.333 18.667 H 130.667 V 28 H 121.333 V 18.667 Z" style="fill: #0079d8;"/><path d="M 121.333 28 H 130.667 V 37.333 H 121.333 V 28 Z" style="fill: #0079d8;"/><path d="M 121.333 37.333 H 130.667 V 46.667 H 121.333 V 37.333 Z" style="fill: #0079d8;"/><path d="M 121.333 46.667 H 130.667 V 56 H 121.333 V 46.667 Z" style="fill: #0079d8;"/><path d="M 121.333 56 H 130.667 V 65.333 H 121.333 V 56 Z" style="fill: #0079d8;"/><path d="M 121.333 65.333 H 130.667 V 74.667 H 121.333 V 65.333 Z" style="fill: #ffffff;"/><path d="M 121.333 74.667 H 130.667 V 84 H 121.333 V 74.667 Z" style="fill: #ffffff;"/><path d="M 121.333 84 H 130.667 V 93.333 H 121.333 V 84 Z" style="fill: #ffffff;"/><path d="M 121.333 93.333 H 130.667 V 102.667 H 121.333 V 93.333 Z" style="fill: #aed4f3;"/><path d="M 121.333 102.667 H 130.667 V 112 H 121.333 V 102.667 Z" style="fill: #0079d8;"/><path d="M 121.333 112 H 130.667 V 121.333 H 121.333 V 112 Z" style="fill: #0079d8;"/><path d="M 121.333 121.333 H 130.667 V 130.667 H 121.333 V 121.333 Z" style="fill: #0079d8;"/><path d="M 121.333 130.667 H 130.667 V 140 H 121.333 V 130.667 Z" style="fill: #0079d8;"/><path d="M 130.667 0 H 140 V 9.333 H 130.667 V 0 Z" style="fill: #0079d8;"/><path d="M 130.667 9.333 H 140 V 18.667 H 130.667 V 9.333 Z" style="fill: #0079d8;"/><path d="M 130.667 18.667 H 140 V 28 H 130.667 V 18.667 Z" style="fill: #0079d8;"/><path d="M 130.667 28 H 140 V 37.333 H 130.667 V 28 Z" style="fill: #0079d8;"/><path d="M 130.667 37.333 H 140 V 46.667 H 130.667 V 37.333 Z" style="fill: #0079d8;"/><path d="M 130.667 46.667 H 140 V 56 H 130.667 V 46.667 Z" style="fill: #0079d8;"/><path d="M 130.667 56 H 140 V 65.333 H 130.667 V 56 Z" style="fill: #0079d8;"/><path d="M 130.667 65.333 H 140 V 74.667 H 130.667 V 65.333 Z" style="fill: #0079d8;"/><path d="M 130.667 74.667 H 140 V 84 H 130.667 V 74.667 Z" style="fill: #0079d8;"/><path d="M 130.667 84 H 140 V 93.333 H 130.667 V 84 Z" style="fill: #0079d8;"/><path d="M 130.667 93.333 H 140 V 102.667 H 130.667 V 93.333 Z" style="fill: #0079d8;"/><path d="M 130.667 102.667 H 140 V 112 H 130.667 V 102.667 Z" style="fill: #0079d8;"/><path d="M 130.667 112 H 140 V 121.333 H 130.667 V 112 Z" style="fill: #0079d8;"/><path d="M 130.667 121.333 H 140 V 130.667 H 130.667 V 121.333 Z" style="fill: #0079d8;"/><path d="M 130.667 130.667 H 140 V 140 H 130.667 V 130.667 Z" style="fill: #0079d8;"/><path d="M 140 9.333 H 149.333 V 18.667 H 140 V 9.333 Z" style="fill: #0079d8;"/><path d="M 140 18.667 H 149.333 V 28 H 140 V 18.667 Z" style="fill: #0079d8;"/><path d="M 140 28 H 149.333 V 37.333 H 140 V 28 Z" style="fill: #0079d8;"/><path d="M 140 37.333 H 149.333 V 46.667 H 140 V 37.333 Z" style="fill: #0079d8;"/><path d="M 140 46.667 H 149.333 V 56 H 140 V 46.667 Z" style="fill: #0079d8;"/><path d="M 140 56 H 149.333 V 65.333 H 140 V 56 Z" style="fill: #0079d8;"/><path d="M 140 65.333 H 149.333 V 74.667 H 140 V 65.333 Z" style="fill: #0079d8;"/><path d="M 140 74.667 H 149.333 V 84 H 140 V 74.667 Z" style="fill: #ffffff;"/><path d="M 140 84 H 149.333 V 93.333 H 140 V 84 Z" style="fill: #0079d8;"/><path d="M 140 93.333 H 149.333 V 102.667 H 140 V 93.333 Z" style="fill: #0079d8;"/><path d="M 140 102.667 H 149.333 V 112 H 140 V 102.667 Z" style="fill: #ffffff;"/><path d="M 140 112 H 149.333 V 121.333 H 140 V 112 Z" style="fill: #0079d8;"/><path d="M 140 121.333 H 149.333 V 130.667 H 140 V 121.333 Z" style="fill: #0079d8;"/><path d="M 140 130.667 H 149.333 V 140 H 140 V 130.667 Z" style="fill: #0079d8;"/><path d="M 149.333 9.333 H 158.667 V 18.667 H 149.333 V 9.333 Z" style="fill: #0079d8;"/><path d="M 149.333 18.667 H 158.667 V 28 H 149.333 V 18.667 Z" style="fill: #0079d8;"/><path d="M 149.333 28 H 158.667 V 37.333 H 149.333 V 28 Z" style="fill: #0079d8;"/><path d="M 149.333 37.333 H 158.667 V 46.667 H 149.333 V 37.333 Z" style="fill: #0079d8;"/><path d="M 149.333 46.667 H 158.667 V 56 H 149.333 V 46.667 Z" style="fill: #0079d8;"/><path d="M 149.333 56 H 158.667 V 65.333 H 149.333 V 56 Z" style="fill: #0079d8;"/><path d="M 149.333 65.333 H 158.667 V 74.667 H 149.333 V 65.333 Z" style="fill: #ffffff;"/><path d="M 149.333 74.667 H 158.667 V 84 H 149.333 V 74.667 Z" style="fill: #ffffff;"/><path d="M 149.333 84 H 158.667 V 93.333 H 149.333 V 84 Z" style="fill: #ffffff;"/><path d="M 149.333 93.333 H 158.667 V 102.667 H 149.333 V 93.333 Z" style="fill: #0079d8;"/><path d="M 149.333 102.667 H 158.667 V 112 H 149.333 V 102.667 Z" style="fill: #3796e0;"/><path d="M 149.333 112 H 158.667 V 121.333 H 149.333 V 112 Z" style="fill: #ffffff;"/><path d="M 149.333 121.333 H 158.667 V 130.667 H 149.333 V 121.333 Z" style="fill: #0079d8;"/><path d="M 149.333 130.667 H 158.667 V 140 H 149.333 V 130.667 Z" style="fill: #0079d8;"/><path d="M 158.667 18.667 H 168 V 28 H 158.667 V 18.667 Z" style="fill: #0079d8;"/><path d="M 158.667 28 H 168 V 37.333 H 158.667 V 28 Z" style="fill: #0079d8;"/><path d="M 158.667 37.333 H 168 V 46.667 H 158.667 V 37.333 Z" style="fill: #0079d8;"/><path d="M 158.667 46.667 H 168 V 56 H 158.667 V 46.667 Z" style="fill: #0079d8;"/><path d="M 158.667 56 H 168 V 65.333 H 158.667 V 56 Z" style="fill: #0079d8;"/><path d="M 158.667 65.333 H 168 V 74.667 H 158.667 V 65.333 Z" style="fill: #ffffff;"/><path d="M 158.667 74.667 H 168 V 84 H 158.667 V 74.667 Z" style="fill: #0079d8;"/><path d="M 158.667 84 H 168 V 93.333 H 158.667 V 84 Z" style="fill: #ffffff;"/><path d="M 158.667 93.333 H 168 V 102.667 H 158.667 V 93.333 Z" style="fill: #0079d8;"/><path d="M 158.667 102.667 H 168 V 112 H 158.667 V 102.667 Z" style="fill: #0079d8;"/><path d="M 158.667 112 H 168 V 121.333 H 158.667 V 112 Z" style="fill: #ffffff;"/><path d="M 158.667 121.333 H 168 V 130.667 H 158.667 V 121.333 Z" style="fill: #0079d8;"/><path d="M 158.667 130.667 H 168 V 140 H 158.667 V 130.667 Z" style="fill: #0079d8;"/><path d="M 168 28 H 177.333 V 37.333 H 168 V 28 Z" style="fill: #0079d8;"/><path d="M 168 37.333 H 177.333 V 46.667 H 168 V 37.333 Z" style="fill: #0079d8;"/><path d="M 168 46.667 H 177.333 V 56 H 168 V 46.667 Z" style="fill: #0079d8;"/><path d="M 168 56 H 177.333 V 65.333 H 168 V 56 Z" style="fill: #0079d8;"/><path d="M 168 65.333 H 177.333 V 74.667 H 168 V 65.333 Z" style="fill: #ffffff;"/><path d="M 168 74.667 H 177.333 V 84 H 168 V 74.667 Z" style="fill: #0079d8;"/><path d="M 168 84 H 177.333 V 93.333 H 168 V 84 Z" style="fill: #ffffff;"/><path d="M 168 93.333 H 177.333 V 102.667 H 168 V 93.333 Z" style="fill: #ffffff;"/><path d="M 168 102.667 H 177.333 V 112 H 168 V 102.667 Z" style="fill: #0079d8;"/><path d="M 168 112 H 177.333 V 121.333 H 168 V 112 Z" style="fill: #ffffff;"/><path d="M 168 121.333 H 177.333 V 130.667 H 168 V 121.333 Z" style="fill: #0079d8;"/><path d="M 168 130.667 H 177.333 V 140 H 168 V 130.667 Z" style="fill: #0079d8;"/><path d="M 177.333 56 H 186.667 V 65.333 H 177.333 V 56 Z" style="fill: #0079d8;"/><path d="M 177.333 65.333 H 186.667 V 74.667 H 177.333 V 65.333 Z" style="fill: #94c7ef;"/><path d="M 177.333 74.667 H 186.667 V 84 H 177.333 V 74.667 Z" style="fill: #ffffff;"/><path d="M 177.333 84 H 186.667 V 93.333 H 177.333 V 84 Z" style="fill: #0079d8;"/><path d="M 177.333 93.333 H 186.667 V 102.667 H 177.333 V 93.333 Z" style="fill: #ffffff;"/><path d="M 177.333 102.667 H 186.667 V 112 H 177.333 V 102.667 Z" style="fill: #ffffff;"/><path d="M 177.333 112 H 186.667 V 121.333 H 177.333 V 112 Z" style="fill: #ffffff;"/><path d="M 177.333 121.333 H 186.667 V 130.667 H 177.333 V 121.333 Z" style="fill: #0079d8;"/><path d="M 177.333 130.667 H 186.667 V 140 H 177.333 V 130.667 Z" style="fill: #0079d8;"/><path d="M 186.667 56 H 196 V 65.333 H 186.667 V 56 Z" style="fill: #0079d8;"/><path d="M 186.667 65.333 H 196 V 74.667 H 186.667 V 65.333 Z" style="fill: #0079d8;"/><path d="M 186.667 74.667 H 196 V 84 H 186.667 V 74.667 Z" style="fill: #0079d8;"/><path d="M 186.667 84 H 196 V 93.333 H 186.667 V 84 Z" style="fill: #0079d8;"/><path d="M 186.667 93.333 H 196 V 102.667 H 186.667 V 93.333 Z" style="fill: #0079d8;"/><path d="M 186.667 102.667 H 196 V 112 H 186.667 V 102.667 Z" style="fill: #0079d8;"/><path d="M 186.667 112 H 196 V 121.333 H 186.667 V 112 Z" style="fill: #0079d8;"/><path d="M 186.667 121.333 H 196 V 130.667 H 186.667 V 121.333 Z" style="fill: #0079d8;"/><path d="M 186.667 130.667 H 196 V 140 H 186.667 V 130.667 Z" style="fill: #0079d8;"/><path d="M 196 56 H 205.333 V 65.333 H 196 V 56 Z" style="fill: #0079d8;"/><path d="M 196 65.333 H 205.333 V 74.667 H 196 V 65.333 Z" style="fill: #0079d8;"/><path d="M 196 74.667 H 205.333 V 84 H 196 V 74.667 Z" style="fill: #0079d8;"/><path d="M 196 84 H 205.333 V 93.333 H 196 V 84 Z" style="fill: #0079d8;"/><path d="M 196 93.333 H 205.333 V 102.667 H 196 V 93.333 Z" style="fill: #0079d8;"/><path d="M 196 102.667 H 205.333 V 112 H 196 V 102.667 Z" style="fill: #0079d8;"/><path d="M 196 112 H 205.333 V 121.333 H 196 V 112 Z" style="fill: #0079d8;"/><path d="M 196 121.333 H 205.333 V 130.667 H 196 V 121.333 Z" style="fill: #0079d8;"/><path d="M 205.333 65.333 H 214.667 V 74.667 H 205.333 V 65.333 Z" style="fill: #0079d8;"/><path d="M 205.333 74.667 H 214.667 V 84 H 205.333 V 74.667 Z" style="fill: #0079d8;"/><path d="M 205.333 84 H 214.667 V 93.333 H 205.333 V 84 Z" style="fill: #0079d8;"/><path d="M 205.333 93.333 H 214.667 V 102.667 H 205.333 V 93.333 Z" style="fill: #0079d8;"/><path d="M 205.333 102.667 H 214.667 V 112 H 205.333 V 102.667 Z" style="fill: #0079d8;"/><path d="M 205.333 112 H 214.667 V 121.333 H 205.333 V 112 Z" style="fill: #0079d8;"/><path d="M 205.333 121.333 H 214.667 V 130.667 H 205.333 V 121.333 Z" style="fill: #0079d8;"/><path d="M 214.667 74.667 H 224 V 84 H 214.667 V 74.667 Z" style="fill: #0079d8;"/><path d="M 214.667 84 H 224 V 93.333 H 214.667 V 84 Z" style="fill: #0079d8;"/><path d="M 214.667 93.333 H 224 V 102.667 H 214.667 V 93.333 Z" style="fill: #0079d8;"/><path d="M 214.667 102.667 H 224 V 112 H 214.667 V 102.667 Z" style="fill: #0079d8;"/><path d="M 214.667 112 H 224 V 121.333 H 214.667 V 112 Z" style="fill: rgba(0,0,255,0);"/></g></svg>